<?xml version="1.0" encoding="UTF-8"?><svg id="Calque_2" xmlns="http://www.w3.org/2000/svg" width="149.6" height="59.36" viewBox="0 0 149.6 59.36"><defs><style>.cls-1{fill:#027cf5;}.cls-1,.cls-2,.cls-3{stroke-width:0px;}.cls-4,.cls-3{isolation:isolate;}.cls-2{fill:#fff;}.cls-3{fill:#000;mix-blend-mode:multiply;opacity:.5;}</style></defs><g id="Calque_1-2"><g class="cls-4"><g id="Layer_1"><path class="cls-1" d="M48.04,6.39C42.99,2.4,36.62,0,29.68,0,13.29,0,0,13.29,0,29.68s13.29,29.68,29.68,29.68c6.94,0,13.31-2.4,18.36-6.39,6.89-5.43,11.32-13.84,11.32-23.29s-4.44-17.86-11.32-23.29Z"/><path class="cls-1" d="M141.01,5.94H54.1c7.02,5.54,11.54,14.1,11.54,23.74s-4.52,18.2-11.54,23.74h86.91c4.74,0,8.59-3.85,8.59-8.59V14.53c0-4.74-3.85-8.59-8.59-8.59h0Z"/><path class="cls-2" d="M80.33,20.95h-2.97l-1.03,2h-2.45l5.07-9.1h2.83l1.05,9.1h-2.35l-.15-2h0ZM78.2,19.29h2.04l-.25-3.41h-.05l-1.74,3.41h0Z"/><path class="cls-2" d="M89.23,13.85c.73,0,1.37.14,1.92.42.55.28.98.68,1.29,1.21.31.53.46,1.16.46,1.9,0,.82-.11,1.56-.34,2.24-.23.68-.56,1.26-.98,1.76-.43.5-.94.89-1.53,1.16s-1.25.41-1.97.41h-4.3l1.94-9.1h3.51,0ZM86.51,21.1h1.26c.4,0,.77-.08,1.11-.24s.63-.39.87-.69c.25-.3.44-.66.57-1.08.14-.42.21-.89.21-1.42,0-.41-.07-.76-.21-1.05s-.35-.52-.62-.68c-.27-.16-.6-.24-.99-.24h-1.05l-1.14,5.39h0Z"/><path class="cls-2" d="M98.66,13.85c.73,0,1.37.14,1.92.42.55.28.98.68,1.29,1.21.31.53.46,1.16.46,1.9,0,.82-.11,1.56-.34,2.24-.23.68-.56,1.26-.98,1.76-.43.5-.94.89-1.53,1.16s-1.25.41-1.97.41h-4.3l1.94-9.1h3.51,0ZM95.94,21.1h1.26c.4,0,.77-.08,1.11-.24s.63-.39.87-.69c.25-.3.44-.66.57-1.08.14-.42.21-.89.21-1.42,0-.41-.07-.76-.21-1.05s-.35-.52-.62-.68c-.27-.16-.6-.24-.99-.24h-1.05l-1.14,5.39h0Z"/><path class="cls-2" d="M107.64,22.95l1.53-7.24h-2.62l.4-1.86h7.56l-.4,1.86h-2.62l-1.54,7.24h-2.32Z"/><path class="cls-2" d="M116.02,22.61c-.61-.34-1.08-.8-1.4-1.39-.33-.59-.49-1.26-.49-2.01,0-.81.13-1.56.38-2.23.26-.67.61-1.26,1.06-1.75s.98-.87,1.59-1.14c.6-.27,1.25-.4,1.95-.4.86,0,1.6.17,2.21.51.61.34,1.07.8,1.39,1.38.32.58.48,1.25.48,2.01,0,.82-.13,1.56-.38,2.24-.25.67-.61,1.26-1.07,1.75-.46.49-.99.87-1.59,1.14-.6.27-1.25.4-1.95.4-.84,0-1.57-.17-2.18-.5h0ZM118.05,15.84c-.31.18-.59.43-.82.75-.24.32-.42.69-.55,1.12-.13.42-.2.88-.2,1.37,0,.43.07.81.22,1.14.14.32.35.57.62.75s.58.26.94.26.69-.09,1.01-.27c.31-.18.59-.43.82-.75.23-.32.42-.7.55-1.12.13-.43.2-.88.2-1.36,0-.44-.07-.82-.22-1.15-.15-.32-.35-.57-.62-.74-.27-.17-.58-.26-.94-.26s-.69.09-1,.27h0Z"/><path class="cls-2" d="M86.11,34.89c0-.05,0-.15-.01-.3-.01-.55-.16-1.04-.43-1.46s-.64-.75-1.1-1c-.46-.25-.97-.37-1.55-.37-.69,0-1.33.16-1.91.48-.58.32-1.08.77-1.5,1.36s-.75,1.28-.98,2.08c-.23.8-.35,1.68-.35,2.62,0,.79.13,1.48.39,2.05s.63,1.02,1.1,1.32c.47.31,1.04.46,1.7.46.6,0,1.15-.11,1.65-.34.5-.22.93-.55,1.3-.98s.64-.93.83-1.51h4.16c-.22,1.27-.71,2.38-1.46,3.33-.76.96-1.71,1.7-2.87,2.23-1.16.53-2.45.8-3.87.8s-2.76-.29-3.86-.88-1.95-1.41-2.55-2.48c-.6-1.07-.9-2.32-.9-3.76,0-1.54.22-2.94.68-4.2.45-1.26,1.1-2.34,1.93-3.25s1.84-1.6,3.01-2.1c1.17-.49,2.48-.74,3.92-.74,1.32,0,2.5.26,3.53.78,1.03.52,1.84,1.24,2.43,2.15.6.91.9,1.97.92,3.17,0,.13,0,.25-.01.36,0,.11-.02.21-.04.29h-4.16s.01-.08.01-.13Z"/><path class="cls-2" d="M100.63,41.69h-5.49l-1.9,3.69h-4.52l9.37-16.82h5.23l1.93,16.82h-4.35s-.28-3.69-.28-3.69ZM96.69,38.61h3.76l-.47-6.29h-.09s-3.21,6.29-3.2,6.29Z"/><path class="cls-2" d="M110.58,28.56h7.17c1.15,0,2.13.21,2.94.64.81.42,1.42,1,1.85,1.73.42.73.63,1.57.63,2.52,0,.82-.16,1.59-.48,2.34-.32.74-.78,1.4-1.39,1.98-.61.57-1.35,1.01-2.23,1.32l1.98,6.31h-4.46l-1.73-5.89h.09-2.43l-1.25,5.89h-4.29l3.58-16.82h0ZM113.16,36.48h2.65c.61,0,1.15-.11,1.61-.34.46-.22.81-.54,1.06-.94.25-.4.37-.87.37-1.39,0-.66-.2-1.16-.6-1.5-.4-.34-.96-.51-1.69-.51h-2.39l-1.01,4.68h0Z"/><path class="cls-2" d="M127.04,45.38l2.83-13.38h-4.84l.74-3.44h13.96l-.74,3.44h-4.84l-2.84,13.38h-4.28,0Z"/><path class="cls-3" d="M48.04,6.39C42.99,2.4,36.62,0,29.68,0,13.29,0,0,13.29,0,29.68s13.29,29.68,29.68,29.68c6.94,0,13.31-2.4,18.36-6.39,6.89-5.43,11.32-13.84,11.32-23.29s-4.43-17.86-11.32-23.29Z"/><path class="cls-2" d="M18.06,36.44l-2.11-14.4h-3.96c-.97,0-1.81-.82-1.81-1.82s.84-1.82,1.81-1.82h4.75c1.82,0,2.49.75,2.72,2.23l.17,1.14h13.09c-.07.46-.1.93-.1,1.39,0,5.32,4.29,9.67,9.68,9.78l-.13.22c-.62.98-1.65,1.53-3.09,1.53h-17.62l.22,1.46c.09.52.38.87.87.87h16.28c.88,0,1.66.64,1.66,1.6s-.78,1.62-1.66,1.62h-16.73c-2.38,0-3.67-1.43-4.03-3.79h0ZM23.32,42.22c1.56,0,2.8,1.24,2.8,2.79s-1.24,2.8-2.8,2.8-2.79-1.24-2.79-2.8,1.26-2.79,2.79-2.79ZM36.42,42.22c1.55,0,2.79,1.24,2.79,2.79s-1.24,2.8-2.79,2.8-2.8-1.24-2.8-2.8,1.26-2.79,2.8-2.79ZM34.8,23.15c0-4.16,3.44-7.6,7.61-7.6s7.6,3.44,7.6,7.6-3.47,7.61-7.6,7.61-7.61-3.45-7.61-7.61ZM43.57,26.92v-2.6h2.6c.68,0,1.14-.46,1.14-1.17s-.46-1.16-1.14-1.16h-2.6v-2.57c0-.71-.46-1.17-1.16-1.17s-1.17.48-1.17,1.17v2.57h-2.59c-.69,0-1.15.46-1.15,1.16s.48,1.17,1.15,1.17h2.59v2.6c0,.69.46,1.15,1.17,1.15s1.16-.46,1.16-1.15Z"/></g></g></g></svg>