<?xml version="1.0" encoding="utf-8"?>
<!DOCTYPE svg PUBLIC "-//W3C//DTD SVG 1.1//EN" "http://www.w3.org/Graphics/SVG/1.1/DTD/svg11.dtd">
<svg version="1.1" xmlns="http://www.w3.org/2000/svg" xmlns:xlink="http://www.w3.org/1999/xlink" xmlns:xml="http://www.w3.org/XML/1998/namespace" x="0" y="0" width="860" height="196" viewBox="83.341995, 304.0857, 1023.9161, 233.7287" id="katman_1" xml:space="preserve" style="enable-background:new 0 0 1190.6 841.9;">
<g>
	<g>
		<path d="M394.4 388 h12 l-6.3 -15.9 L394.4 388 z M381.8 403.4 l17.8 -41.9 h4.8 l17.8 41.9 h-9.1 l-3.9 -10.6 h-15.9 l-4.3 10.6 H381.8 L381.8 403.4 z M423.7 401.5 l-0.5 -7.7 c3.8 3.4 8.2 5.3 12.5 5.3 c2.4 0 4.3 -0.5 5.8 -1.4 c2.1 -1.6 2.5 -4.7 0.8 -6.8 c-0.1 -0.1 -0.2 -0.3 -0.4 -0.4 c-1.4 -1.9 -4.3 -2.9 -10.6 -5.8 c-5.8 -2.9 -8.7 -6.7 -8.7 -12 c0 -3.4 1.4 -6.3 3.9 -8.7 c5.3 -4.8 14.4 -2.9 15.4 -2.9 c1.9 0.5 3.4 1 4.8 1.4 l0.5 7.2 c-1.6 -1.2 -3.4 -2.2 -5.3 -2.9 c-5.8 -1.9 -12 -0.5 -12 4.3 c0 2.4 1.4 3.9 4.8 5.8 c7.2 3.9 11.1 5.3 13.5 8.7 c3.4 3.8 3.4 12 -1.9 15.9 c-2.9 1.9 -6.3 3.4 -11.1 3.4 C430 404.3 425.6 402.4 423.7 401.5 z M463.6 403.4 v-37.1 c-3.4 0 -7.2 0.5 -12.5 1 l0.5 -6.3 h32.2 l0.5 6.3 c-6.7 -1 -10.6 -1 -12.5 -1 v36.6 h-8.2 L463.6 403.4 L463.6 403.4 z M505.5 399 c6.7 0 12.5 -5.3 12.5 -16.8 c0 -1 0 -10.1 -5.8 -14.9 c-1.9 -1.4 -3.9 -1.9 -6.7 -1.9 c-8.7 0 -12.5 8.2 -12.5 16.8 C493.5 393.8 499.3 399 505.5 399 L505.5 399 z M505.5 404.3 c-12.5 0 -21.2 -9.1 -21.2 -21.7 c0 -13 8.7 -21.7 21.2 -21.7 c12.5 0 21.2 8.7 21.2 21.7 C526.7 395.2 518 404.3 505.5 404.3 z M533.4 403.4 v-41.9 h4.3 l25 28.4 v-28.4 h5.8 v41.9 h-4.3 l-25 -28.4 v28.4 H533.4 z M591.2 403.4 l4.8 -41.9 h4.3 l14.9 29.4 l14.4 -29.4 h4.3 l4.8 41.9 h-8.7 l-2.4 -26 l-11.5 24.1 h-3.9 l-12 -24.1 l-2.4 25.5 h-6.7 L591.2 403.4 L591.2 403.4 z M654.2 388 h12 l-6.3 -15.9 L654.2 388 L654.2 388 z M641.7 403.4 l17.8 -41.9 h4.8 l17.8 41.9 H673 l-3.8 -10.6 h-15.9 l-4.3 10.6 H641.7 L641.7 403.4 z M693.2 380.3 c1 0 2.4 0.5 3.4 0.5 c6.7 0 8.7 -3.9 8.7 -7.2 c0 -5.3 -3.8 -7.2 -8.7 -7.2 h-2.9 v14 L693.2 380.3 L693.2 380.3 z M685.5 403.9 V362 c2.4 -0.5 5.3 -0.5 9.6 -0.5 c3.9 0 7.2 0.5 9.6 1.4 c3.8 1.4 8.7 4.3 8.7 10.6 c0 2.4 -1 4.8 -2.4 7.2 c-1.4 1.9 -3.8 3.4 -6.7 4.3 l14.9 18.8 h-9.6 l-13 -17.8 h-2.9 v17.8 H685.5 L685.5 403.9 z M728.8 403.4 v-37.1 c-3.4 0 -7.2 0.5 -12.5 1 l0.5 -6.3 H749 l0.5 6.3 c-6.7 -1 -10.6 -1 -12.5 -1 v36.6 h-8.2 L728.8 403.4 L728.8 403.4 z M754.8 361.5 h8.2 v41.9 h-8.2 V361.5 z M771.1 403.4 v-41.9 h4.3 l25 28.4 v-28.4 h5.8 v41.9 h-4.3 l-25 -28.4 v28.4 H771.1 z" />
		<path d="M1105.1 312.4 c-2.9 -4.8 -8.2 -7.7 -14.4 -7.7 H678.3 c-6.7 0 -17.3 0 -28.4 11.1 c-2.9 3 -5.4 6.4 -7.2 10.1 c-3.4 6.3 -5.8 10.6 -17.3 10.6 h-60.1 c-11.1 0 -14 -4.3 -17.3 -10.6 c-1.9 -3.4 -3.9 -6.7 -7.2 -10.1 c-11.1 -11.1 -21.7 -11.1 -28.4 -11.1 H100.3 c-6.7 0 -12 2.9 -14.4 7.7 c-2.9 4.8 -2.4 11.1 1 16.4 l7.2 12.5 c3.8 6.7 9.1 7.7 13 8.7 c3.4 0.5 5.8 1 8.2 5.8 l6.7 11.5 c5.3 9.6 11.1 10.6 15.4 11.5 c3.4 0.5 6.7 1 11.1 8.7 c4.3 7.7 10.6 19.2 26.5 24.1 c1.4 0.5 153.5 44.8 154 44.8 c15.9 5.3 20.2 11.1 25 18.3 c2.9 4.3 11.1 15.9 30.3 21.2 l146.3 39.5 c15.9 4.3 25.5 -3.4 30.3 -7.7 l26.5 -25 c3.9 -3.4 5.8 -4.8 8.2 -4.8 s4.3 1.4 8.2 4.8 l26.5 25 c4.8 3.9 14.4 11.5 30.3 7.7 l146.3 -39.5 c19.7 -5.3 27.4 -16.8 30.3 -21.2 c4.8 -7.2 9.1 -13.5 25 -18.3 c0 0 152.1 -44.3 154 -44.8 c15.4 -4.8 22.1 -16.4 26.5 -24.1 c4.3 -7.7 7.2 -8.2 10.6 -8.7 c4.3 -1 10.6 -1.9 15.9 -11.5 l6.7 -11.5 c2.9 -4.8 4.8 -5.3 8.2 -5.8 c3.8 -1 9.1 -1.9 13 -8.7 l7.2 -12.5 C1107.5 323 1108 317.2 1105.1 312.4 L1105.1 312.4 z M823.6 346.1 v72.2 H367.4 v-72.2 L823.6 346.1 L823.6 346.1 z M660 524.6 c-11.1 0 -14.9 -9.6 -17.8 -17.3 c-3.4 -8.7 -21.2 -65.4 -26.5 -80.8 h22.6 c12 20.7 34.2 57.3 43.8 72.7 c1.9 2.9 6.7 11.1 15.4 16.4 C662.9 524.6 663.8 524.6 660 524.6 z M713.4 510.2 c-12.5 0 -19.2 -9.6 -23.1 -15.9 c-8.2 -13 -26.9 -44.3 -40.9 -67.9 h25 c15.9 16.8 49.1 52 62.1 65.4 c1.9 1.9 6.3 6.3 12.5 10.1 C718.2 509.7 718.2 510.2 713.4 510.2 L713.4 510.2 z M764.4 496.3 c-9.6 0 -16.8 -6.7 -21.7 -11.5 c-11.5 -11.5 -39 -40.4 -55.8 -58.7 h27.4 c17.3 13 57.3 42.3 73.1 52.9 c4.8 3.1 10 5.7 15.4 7.7 C767.3 496.3 768.3 496.3 764.4 496.3 L764.4 496.3 z M828.9 469.3 c-4.3 6.7 -7.7 10.1 -15.4 10.1 c-7.2 0 -14.4 -3.4 -20.7 -7.7 c-13 -9.1 -43.3 -30.8 -62.6 -45.2 H763 c39.9 19.7 56.8 28.9 67.9 32.2 l5.8 1.4 C833.2 462.6 831.3 465.9 828.9 469.3 z M840.9 450.5 c-9.1 0 -21.2 -6.3 -57.7 -24.5 h35.6 l50 12.5 c3.4 1 6.7 1.4 9.6 2.4 C850.1 449.6 845.7 450.5 840.9 450.5 z M938.1 423.6 c-29.4 8.7 -34.2 10.6 -42.3 10.6 c-5.8 0 -13 -1 -25 -4.3 l-39.5 -10.1 v-14 L938.1 423.6 L938.1 423.6 z M968.9 414.9 c-9.6 2.4 -18.3 1.4 -31.8 -1 l-104.9 -17.3 v-11.1 l171.8 19.2 L968.9 414.9 L968.9 414.9 z M1033.4 382.7 c-1.4 2.4 -2.9 4.8 -4.3 6.7 c-5.8 8.2 -9.6 7.7 -27.9 5.8 l-169.9 -19.2 v-10.6 l195.9 11.5 c1.4 0 5.3 0.5 9.6 0.5 C1035.8 378.8 1034.4 380.8 1033.4 382.7 L1033.4 382.7 z M1066.6 350.4 c0 0 -3.9 6.3 -5.3 9.6 c-5.8 9.1 -8.7 9.1 -25 7.7 l-204.5 -12 v-8.7 H1069 C1068.1 348.5 1067.6 349.5 1066.6 350.4 z M1096 323.5 l-5.3 9.1 c-3.9 5.8 -5.3 5.8 -17.8 5.8 H647 c4.3 -5.3 5.8 -10.6 10.6 -15.4 c8.2 -8.2 14.9 -8.2 21.2 -8.2 h412.4 c2.9 0 4.8 1 5.8 2.4 C1097.4 318.7 1097.4 321.1 1096 323.5 L1096 323.5 z M552.2 522.2 c1.9 -2.4 3.4 -5.8 5.8 -11.5 c3.4 -8.7 22.1 -67.9 27.4 -84.2 h20.7 c5.3 16.8 24.1 75.6 27.4 84.2 c1.9 5.8 3.8 9.1 5.8 11.5 c-0.5 -0.5 -1.4 -1 -1.9 -1.4 l-26.5 -25 c-4.3 -3.8 -8.7 -7.7 -14.9 -7.7 c-6.3 0 -11.1 3.8 -14.9 7.7 l-26.5 25 C553.6 521.3 552.7 521.8 552.2 522.2 L552.2 522.2 z M493.5 515 c8.7 -5.3 14 -13.5 15.4 -16.4 c9.6 -14.9 31.8 -52 43.8 -72.7 h22.6 c-4.8 15.4 -23.1 72.2 -26.5 80.8 c-2.9 7.7 -6.7 17.3 -17.8 17.3 C527.2 524.6 528.1 524.6 493.5 515 L493.5 515 z M442.5 501.5 c6.3 -3.4 10.6 -7.7 12.5 -10.1 c13 -13 46.7 -48.6 62.1 -65.4 h25 c-14 23.6 -32.7 54.9 -40.9 67.9 c-3.9 6.3 -10.6 15.9 -23.1 15.9 C473.3 510.2 472.8 509.7 442.5 501.5 L442.5 501.5 z M388.6 486.6 c6.7 -1.9 12.5 -5.8 15.4 -7.7 c15.9 -10.6 55.8 -39.9 73.1 -52.9 h27.4 c-16.8 18.3 -44.3 47.2 -55.8 58.7 c-4.8 4.8 -11.5 11.5 -21.7 11.5 C423.2 496.3 423.7 496.3 388.6 486.6 L388.6 486.6 z M354.9 459.7 c1.9 -0.5 3.9 -0.5 5.8 -1.4 c11.5 -3.4 28.4 -12 67.9 -32.2 h32.7 c-19.7 14.4 -49.6 36.1 -62.6 45.2 c-5.8 4.3 -13.5 7.7 -20.7 7.7 c-7.7 0 -11.1 -3.4 -15.4 -10.1 C360.2 465.9 357.8 462.6 354.9 459.7 L354.9 459.7 z M313 441.4 c2.9 -0.5 6.3 -1.4 9.6 -2.4 l50 -12.5 h35.6 c-36.6 18.3 -48.6 24.5 -57.7 24.5 C345.3 450.5 340.9 449.6 313 441.4 z M359.7 405.8 v14 l-39.5 10.1 c-12 2.9 -19.2 4.3 -25 4.3 c-8.2 0 -13 -1.9 -42.3 -10.6 C252.9 423.6 359.7 405.8 359.7 405.8 z M187.9 404.8 l171.8 -19.2 v11.1 L254.8 414 c-14 2.4 -22.6 3.4 -31.8 1 C223 414.9 187.9 404.8 187.9 404.8 z M154.2 377.4 c3.9 -0.5 8.2 -0.5 9.6 -0.5 l195.9 -11.5 v10.6 l-169.9 19.2 c-18.3 1.9 -22.1 2.4 -27.9 -5.8 c-1.4 -1.9 -2.9 -4.3 -4.3 -6.7 C156.6 380.8 155.7 378.8 154.2 377.4 z M122.5 347.6 h237.2 v8.7 l-204.5 12 c-16.4 1 -19.2 1.4 -25 -7.7 c-1.8 -3.2 -3.6 -6.4 -5.3 -9.6 C123.9 349.5 122.9 348.5 122.5 347.6 z M94.6 317.2 c1 -1.4 2.9 -2.4 5.8 -2.4 h412.4 c6.3 0 13.5 0 21.2 8.2 c4.8 4.8 6.3 10.1 10.6 15.4 H118.6 c-12.5 0 -14 0 -17.8 -5.8 l-5.3 -9.1 C94.1 321.1 93.6 318.7 94.6 317.2 L94.6 317.2 z" />
	</g>
</g>
</svg>