<?xml version="1.0" encoding="UTF-8"?><svg id="Calque_2" xmlns="http://www.w3.org/2000/svg" width="140.63" height="56.48" viewBox="0 0 140.63 56.48"><defs><style>.cls-1{fill:#027cf5;}.cls-1,.cls-2,.cls-3{stroke-width:0px;}.cls-4,.cls-3{isolation:isolate;}.cls-2{fill:#fff;}.cls-3{fill:#000;mix-blend-mode:multiply;opacity:.5;}</style></defs><g id="Calque_1-2"><g class="cls-4"><g id="Layer_1"><path class="cls-1" d="M45.71,6.08C40.9,2.28,34.84,0,28.24,0,12.64,0,0,12.64,0,28.24s12.64,28.24,28.24,28.24c6.6,0,12.66-2.28,17.47-6.08,6.55-5.17,10.77-13.17,10.77-22.16s-4.22-16.99-10.77-22.16h0Z"/><path class="cls-1" d="M132.46,5.66H51.48c6.68,5.27,10.98,13.42,10.98,22.59s-4.3,17.32-10.98,22.59h80.98c4.51,0,8.17-3.66,8.17-8.17V13.83c0-4.51-3.66-8.17-8.17-8.17h0Z"/><path class="cls-3" d="M45.71,6.08C40.9,2.28,34.84,0,28.24,0,12.64,0,0,12.64,0,28.24s12.64,28.24,28.24,28.24c6.6,0,12.66-2.28,17.47-6.08,6.55-5.17,10.77-13.17,10.77-22.16s-4.22-16.99-10.77-22.16h0Z"/><path class="cls-2" d="M41.92,39.32l-2.64-17.02c-.1-.64-.65-1.11-1.29-1.11h-2.95c.65,0,1.2.47,1.29,1.11l2.64,17.02c.12.79-.49,1.51-1.29,1.51h2.95c.8,0,1.42-.72,1.29-1.51Z"/><path class="cls-2" d="M37.01,39.32l-2.64-17.02c-.1-.64-.65-1.11-1.29-1.11h-14.35c-.65,0-1.2.47-1.29,1.11l-2.64,17.02c-.12.79.49,1.51,1.29,1.51h19.63c.8,0,1.42-.72,1.29-1.51Z"/><path class="cls-2" d="M30.81,13.66c-.51,0-1.01.08-1.47.23.69.21,1.32.57,1.86,1.03,2.06.21,3.68,2.07,3.68,4.35,0,.34.27.61.61.61s.61-.27.61-.61c0-3.09-2.37-5.61-5.28-5.61h0Z"/><path class="cls-2" d="M29.23,14.92c-.54-.47-1.17-.82-1.86-1.03-.47-.14-.96-.23-1.47-.23-2.91,0-5.28,2.51-5.28,5.61,0,.34.27.61.61.61s.61-.27.61-.61c0-2.28,1.62-4.14,3.68-4.35.13-.01.25-.04.38-.04.52,0,1.01.12,1.47.31,1.51.64,2.59,2.22,2.59,4.08,0,.34.27.61.61.61s.61-.27.61-.61c0-1.75-.76-3.32-1.95-4.35h0Z"/><path class="cls-2" d="M80.9,19.84c.29-1.4.72-3.26.97-4.32h-.06c-.77,1.92-1.88,4.63-3.03,7.25h-2.02c.03-2.34,0-5.25.09-7.24h-.07c-.15,1.05-.49,2.86-.81,4.39l-.6,2.85h-2.24l1.9-8.95h3.62c.01,1.7-.04,4.41-.11,5.73h.04c.54-1.46,1.53-3.66,2.42-5.73h3.58l-1.9,8.95h-2.4l.61-2.92h0Z"/><path class="cls-2" d="M91.6,19.1h-3.88l-.39,1.81h4.43l-.66,1.85h-6.57l1.9-8.95h6.45l-.39,1.85h-4.04l-.34,1.58h3.88l-.4,1.85h0Z"/><path class="cls-2" d="M100.49,22.76h-1.78c-.03-.2,0-.59.02-.82-.57.7-1.34.99-2.47.99-2.17,0-3.23-1.57-3.23-3.64,0-2.71,1.62-5.65,5.11-5.65,2.39,0,3.59,1.3,3.61,2.93h-2.48c-.02-.5-.3-1.15-1.33-1.15-1.67,0-2.32,2.36-2.32,3.82,0,1.12.4,1.86,1.39,1.86,1.16,0,1.53-.76,1.7-1.59v-.05s-1.63,0-1.63,0l.41-1.82h4.02l-1.01,5.11h0Z"/><path class="cls-2" d="M104.96,20.91l-.87,1.86h-2.59l4.61-8.95h3.26l.93,8.95h-2.5l-.16-1.86h-2.68ZM107.61,19.05c-.12-1.36-.2-2.64-.22-3.47h-.04c-.4.98-.96,2.18-1.58,3.47h1.84,0Z"/><path class="cls-2" d="M77.08,38.01c.1,1.18.83,1.99,2.35,1.99,1.2,0,1.93-.42,1.93-1.47,0-.94-.67-1.4-2.39-1.97-3.11-1.01-4.34-2.22-4.34-4.16,0-2.65,1.94-4.67,5.86-4.67,3.55,0,5.75,1.64,5.8,4.47h-3.97c-.03-.67-.31-1.62-1.9-1.62-.96,0-1.66.41-1.66,1.29,0,.69.53,1.12,2.24,1.68,3.25,1.05,4.61,2.35,4.61,4.49,0,2.77-2.03,4.79-6.42,4.79-4.01,0-6-1.89-6.08-4.83h3.97,0Z"/><path class="cls-2" d="M91.52,39.55l-1.42,3.02h-4.21l7.5-14.56h5.3l1.51,14.56h-4.06l-.26-3.02h-4.36,0ZM95.83,36.54c-.19-2.21-.32-4.3-.36-5.64h-.06c-.65,1.6-1.57,3.55-2.57,5.64,0,0,3,0,3,0Z"/><path class="cls-2" d="M104.78,28.01h4.06l-2.44,11.54h6.62l-1.07,3.01h-10.26l3.09-14.56Z"/><path class="cls-2" d="M125.44,36.61h-6.3l-.63,2.95h7.21l-1.08,3.01h-10.68l3.09-14.56h10.49l-.64,3.01h-6.56l-.55,2.57h6.3l-.65,3.01h0Z"/></g></g></g></svg>