<?xml version="1.0" encoding="UTF-8"?><svg id="Calque_2" xmlns="http://www.w3.org/2000/svg" width="155.14" height="29.77" viewBox="0 0 155.14 29.77"><defs><style>.cls-1{fill:#5cc5ff;}.cls-1,.cls-2,.cls-3{stroke-width:0px;}.cls-2{fill:#000;}.cls-3{fill:#027cf5;}.cls-4{opacity:.3;}</style></defs><g id="Layer_1"><path class="cls-3" d="M42.58,8.66c-1.7.1-2.55.14-4.25.2-2.58.09-4.26,1.69-4.37,4.17-1.58-2.63-4.35-4.06-8.11-4.25-1.7-.08-2.55-.14-4.25-.29-2.67-.22-4.39,1.25-4.39,3.89v6.6c-.94-2.87-1.41-4.31-2.35-7.21-.6-1.88-1.81-4.39-5.3-5.07-2.64-.52-4.38.41-5.31,2.98-1.5,4.01-2.24,5.99-3.74,9.94-.31.82-.5,1.47-.5,2.21,0,2.1,1.67,4.2,3.88,4.77,2.01.51,3.35-.36,3.99-2.44.08-.24.12-.36.21-.59,1.11.24,1.66.34,2.77.55.07.25.11.37.19.61.83,2.99,2.66,3.89,4.05,4.09,1.36.19,2.48-.24,3.18-1.08.77.94,1.91,1.55,3.33,1.67,1.7.14,2.55.2,4.25.29,3.76.19,6.53-1.26,8.11-3.92.11,2.49,1.79,4.08,4.37,3.99,1.7-.06,2.55-.1,4.25-.2,6.13-.36,9.64-4.6,9.64-11.25s-3.51-10.02-9.64-9.66h0Z"/><path class="cls-3" d="M77.84,4.12c-2.69.4-4.93,1.59-6.55,3.34-.59-1.13-1.8-1.79-3.25-1.58-4.22.61-6.33.9-10.54,1.4-2.04.25-3.65,2.04-3.65,4.1,0,2.06,1.6,3.5,3.65,3.26.48-.06.73-.09,1.21-.15v9.52c0,2.45,1.66,3.95,4.04,3.64,2.39-.32,4.06-2.27,4.06-4.72v-9.52c.49-.07.74-.11,1.23-.18.18-.03.35-.08.53-.13-.12.72-.19,1.47-.19,2.24v2.02c0,5.92,3.72,9.21,9.47,8.34,5.75-.86,9.46-5.22,9.46-11.14v-2.02c0-5.97-3.71-9.3-9.46-8.43h0Z"/><path class="cls-3" d="M151.51,3.45c-4.22-1.09-6.33-1.51-10.54-2.15-1.3-.2-2.42.32-3.06,1.25-1.39-1.24-3.27-2.04-5.53-2.21-1.79-.13-2.68-.18-4.47-.25-3.04-.12-4.85,1.75-4.85,4.86v5.84c-.92-2.7-1.38-4.05-2.3-6.74-.6-1.79-1.81-4.18-5.3-4.03-2.64.11-4.38,1.61-5.31,4.47-1.13,3.39-1.69,5.08-2.82,8.48-.66-.6-1.58-.91-2.63-.81-1.5.14-2.44,1.02-3.17,1.85-.05.07-.08.1-.13.17-.64.88-1.1,1-1.48,1.04-.49.06-1.49.17-1.49-2.52v-1.46c0-2.51,1.05-2.63,1.49-2.68.32-.04.68-.08,1.44.77.05.05.07.07.12.12.69.63,1.67,1.32,3.21,1.18,2.09-.2,3.67-1.89,3.67-3.97,0-1.33-.7-2.73-1.92-3.8-1.58-1.39-4.05-2.03-6.77-1.72-5.77.66-9.35,4.94-9.35,10.97v1.83c0,6.25,3.5,9.46,9.35,8.79,2.43-.28,4.58-1.18,6.17-2.53.16-.14.32-.28.46-.43.62,1.17,1.91,1.88,3.49,1.76,2.01-.15,3.35-1.38,3.98-3.63.08-.26.12-.39.21-.65,1.11-.06,1.66-.08,2.77-.12.07.23.11.34.18.57.83,2.81,2.66,3.36,4.05,3.35,1.29-.01,2.36-.52,3.06-1.34.72.84,1.78,1.36,3.09,1.4,2.4.08,4.02-1.49,4.02-4.01v-.38c.35.71.53,1.06.88,1.77.72,1.46,1.77,2.97,4.1,3.22,2.3.25,4.03-1.18,4.03-3.42,0-.81-.21-1.65-.59-2.36-.52-.99-.78-1.48-1.3-2.46,1.42-1.11,2.21-2.8,2.22-4.91.16.04.31.09.48.12.48.07.73.11,1.21.19v9.52c0,2.45,1.66,4.41,4.04,4.89,2.39.48,4.06-.8,4.06-3.25v-9.52c.49.12.74.18,1.23.31,2.04.53,3.64-.6,3.64-2.65s-1.6-4.17-3.64-4.7h0Z"/><g class="cls-4"><path class="cls-2" d="M42.58,8.66c-1.7.1-2.55.14-4.25.2-2.58.09-4.26,1.69-4.37,4.17-1.58-2.63-4.35-4.06-8.11-4.25-1.7-.08-2.55-.14-4.25-.29-2.67-.22-4.39,1.25-4.39,3.89v6.6c-.94-2.87-1.41-4.31-2.35-7.21-.6-1.88-1.81-4.39-5.3-5.07-2.64-.52-4.38.41-5.31,2.98-1.5,4.01-2.24,5.99-3.74,9.94-.31.82-.5,1.47-.5,2.21,0,2.1,1.67,4.2,3.88,4.77,2.01.51,3.35-.36,3.99-2.44.08-.24.12-.36.21-.59,1.11.24,1.66.34,2.77.55.07.25.11.37.19.61.83,2.99,2.66,3.89,4.05,4.09,1.36.19,2.48-.24,3.18-1.08.77.94,1.91,1.55,3.33,1.67,1.7.14,2.55.2,4.25.29,3.76.19,6.53-1.26,8.11-3.92.11,2.49,1.79,4.08,4.37,3.99,1.7-.06,2.55-.1,4.25-.2,6.13-.36,9.64-4.6,9.64-11.25s-3.51-10.02-9.64-9.66h0Z"/><path class="cls-2" d="M77.84,4.12c-2.69.4-4.93,1.59-6.55,3.34-.59-1.13-1.8-1.79-3.25-1.58-4.22.61-6.33.9-10.54,1.4-2.04.25-3.65,2.04-3.65,4.1,0,2.06,1.6,3.5,3.65,3.26.48-.06.73-.09,1.21-.15v9.52c0,2.45,1.66,3.95,4.04,3.64,2.39-.32,4.06-2.27,4.06-4.72v-9.52c.49-.07.74-.11,1.23-.18.18-.03.35-.08.53-.13-.12.72-.19,1.47-.19,2.24v2.02c0,5.92,3.72,9.21,9.47,8.34,5.75-.86,9.46-5.22,9.46-11.14v-2.02c0-5.97-3.71-9.3-9.46-8.43h0Z"/><path class="cls-2" d="M151.51,3.45c-4.22-1.09-6.33-1.51-10.54-2.15-1.3-.2-2.42.32-3.06,1.25-1.39-1.24-3.27-2.04-5.53-2.21-1.79-.13-2.68-.18-4.47-.25-3.04-.12-4.85,1.75-4.85,4.86v5.84c-.92-2.7-1.38-4.05-2.3-6.74-.6-1.79-1.81-4.18-5.3-4.03-2.64.11-4.38,1.61-5.31,4.47-1.13,3.39-1.69,5.08-2.82,8.48-.66-.6-1.58-.91-2.63-.81-1.5.14-2.44,1.02-3.17,1.85-.05.07-.08.1-.13.17-.64.88-1.1,1-1.48,1.04-.49.06-1.49.17-1.49-2.52v-1.46c0-2.51,1.05-2.63,1.49-2.68.32-.04.68-.08,1.44.77.05.05.07.07.12.12.69.63,1.67,1.32,3.21,1.18,2.09-.2,3.67-1.89,3.67-3.97,0-1.33-.7-2.73-1.92-3.8-1.58-1.39-4.05-2.03-6.77-1.72-5.77.66-9.35,4.94-9.35,10.97v1.83c0,6.25,3.5,9.46,9.35,8.79,2.43-.28,4.58-1.18,6.17-2.53.16-.14.32-.28.46-.43.62,1.17,1.91,1.88,3.49,1.76,2.01-.15,3.35-1.38,3.98-3.63.08-.26.12-.39.21-.65,1.11-.06,1.66-.08,2.77-.12.07.23.11.34.18.57.83,2.81,2.66,3.36,4.05,3.35,1.29-.01,2.36-.52,3.06-1.34.72.84,1.78,1.36,3.09,1.4,2.4.08,4.02-1.49,4.02-4.01v-.38c.35.71.53,1.06.88,1.77.72,1.46,1.77,2.97,4.1,3.22,2.3.25,4.03-1.18,4.03-3.42,0-.81-.21-1.65-.59-2.36-.52-.99-.78-1.48-1.3-2.46,1.42-1.11,2.21-2.8,2.22-4.91.16.04.31.09.48.12.48.07.73.11,1.21.19v9.52c0,2.45,1.66,4.41,4.04,4.89,2.39.48,4.06-.8,4.06-3.25v-9.52c.49.12.74.18,1.23.31,2.04.53,3.64-.6,3.64-2.65s-1.6-4.17-3.64-4.7h0Z"/></g><path class="cls-1" d="M12.38,12.83c-.68-2.13-1.62-3.08-3.41-3.44-1.78-.36-2.75.21-3.42,2.06-1.5,4.03-2.24,6.03-3.74,10-.28.75-.4,1.19-.4,1.6,0,.99.77,1.91,1.88,2.2,1.09.29,1.67-.13,2.08-1.47.26-.75.39-1.12.66-1.86,2.27.53,3.41.76,5.69,1.16.26.85.39,1.28.64,2.13.41,1.47,1.04,2.17,2.13,2.33,1.18.17,1.94-.43,1.94-1.5,0-.43-.11-.94-.33-1.67-1.49-4.58-2.24-6.89-3.73-11.53h0ZM6.88,19.13c.77-2.39,1.15-3.59,1.92-5.99.08.02.12.02.2.04.76,2.71,1.14,4.07,1.9,6.77-1.6-.29-2.41-.46-4.01-.82Z"/><path class="cls-1" d="M25.26,11.55c-1.7-.09-2.55-.15-4.25-.31-1.55-.14-2.39.58-2.39,2.1v12.23c0,1.52.84,2.44,2.39,2.58,1.7.15,2.55.21,4.25.31,4.98.27,7.64-2.75,7.64-8.26s-2.66-8.38-7.64-8.65h0ZM24.63,25.16c-.76-.05-1.15-.07-1.91-.13v-10.41c.76.06,1.15.08,1.91.13,2.81.17,4.09,1.8,4.09,5.38s-1.28,5.19-4.09,5.03h0Z"/><path class="cls-1" d="M42,11.48c-1.7.09-2.55.13-4.25.19-1.55.05-2.39.88-2.39,2.4v12.23c0,1.52.84,2.33,2.39,2.28,1.7-.05,2.55-.09,4.25-.19,4.98-.28,7.64-3.52,7.64-9.03s-2.66-8.16-7.64-7.88h0ZM41.37,25.17c-.76.04-1.15.06-1.91.09v-10.41c.76-.03,1.15-.05,1.91-.09,2.81-.15,4.09,1.37,4.09,4.95s-1.28,5.31-4.09,5.46h0Z"/><path class="cls-1" d="M67.45,8.75c-4.22.6-6.33.89-10.54,1.39-.94.11-1.65.91-1.65,1.88s.71,1.59,1.65,1.48c1.28-.15,1.93-.23,3.21-.39v11.52c0,1.34.77,2.06,2.04,1.89s2.06-1.1,2.06-2.43v-11.52c1.29-.18,1.94-.27,3.23-.45.94-.13,1.64-.95,1.64-1.91s-.69-1.58-1.64-1.45h0Z"/><path class="cls-1" d="M77.26,6.99c-4.69.71-7.47,4.06-7.47,8.94v2.02c0,4.82,2.75,7.34,7.47,6.63,4.7-.71,7.46-4.02,7.46-8.86v-2.02c0-4.87-2.76-7.43-7.46-6.72ZM80.62,16.34c0,2.76-1.25,4.59-3.36,4.9-2.12.32-3.37-1.13-3.37-3.89v-2.04c0-2.8,1.25-4.65,3.37-4.97,2.09-.32,3.36,1.16,3.36,3.96v2.04h0Z"/><path class="cls-1" d="M104.11,15c-.63.06-1.08.34-1.74,1.09-.88,1.21-1.85,1.83-3.05,1.97-2.25.26-3.49-1.23-3.49-4.28v-1.46c0-2.86,1.26-4.67,3.49-4.93,1.19-.14,2.06.29,2.99,1.33.64.59,1.13.79,1.79.72.99-.1,1.67-.81,1.67-1.81,0-.77-.5-1.69-1.31-2.4-1.21-1.06-3.17-1.53-5.38-1.28-4.66.54-7.35,3.84-7.35,8.71v1.83c0,5.08,2.61,7.6,7.35,7.05,2.04-.24,3.76-.99,4.97-2.03,1.06-.91,1.75-2.06,1.75-3.04s-.68-1.59-1.68-1.49h0Z"/><path class="cls-1" d="M118.28,5.51c-.68-2-1.62-2.77-3.41-2.69s-2.75.95-3.42,3c-1.5,4.48-2.24,6.73-3.74,11.24-.29.85-.4,1.33-.4,1.74,0,.99.77,1.62,1.88,1.54,1.09-.08,1.67-.68,2.08-2.14.26-.82.39-1.24.66-2.06,2.27-.14,3.41-.19,5.69-.26.26.8.39,1.2.64,2,.41,1.39,1.04,1.97,2.13,1.95,1.18-.01,1.94-.71,1.94-1.79,0-.43-.11-.93-.33-1.62-1.49-4.38-2.24-6.56-3.73-10.91h0ZM112.77,13.13c.77-2.61,1.15-3.91,1.92-6.5.08,0,.12,0,.2,0,.76,2.53,1.14,3.79,1.9,6.33-1.6.06-2.41.09-4.01.19h0Z"/><path class="cls-1" d="M137.91,8.92c0-3.25-2.33-5.56-6.12-5.83-1.79-.12-2.68-.17-4.47-.23-1.95-.07-2.85.88-2.85,2.89v11.87c0,1.4.76,2.21,2.08,2.25,1.3.04,2.02-.72,2.02-2.13v-3.93c.97.04,1.46.07,2.43.13.89,1.8,1.34,2.7,2.23,4.51.67,1.37,1.24,1.86,2.32,1.97,1.19.12,2.03-.57,2.03-1.7,0-.43-.11-.92-.34-1.33-.88-1.66-1.32-2.49-2.21-4.14,1.83-.68,2.88-2.21,2.88-4.34h0ZM131.23,11.06c-1.07-.07-1.6-.1-2.66-.15v-4.76c1.07.05,1.6.08,2.66.15,1.63.11,2.61,1.05,2.61,2.57s-.99,2.3-2.61,2.19Z"/><path class="cls-1" d="M150.93,6.09c-4.22-1.07-6.33-1.47-10.54-2.08-.94-.14-1.65.49-1.65,1.46s.71,1.76,1.65,1.9c1.28.19,1.93.29,3.21.52v11.52c0,1.34.77,2.29,2.04,2.54,1.28.25,2.06-.39,2.06-1.73v-11.52c1.29.28,1.94.43,3.23.76.94.24,1.64-.29,1.64-1.24s-.69-1.88-1.64-2.11h0Z"/></g></svg>