<?xml version="1.0" encoding="UTF-8"?><svg id="Calque_2" xmlns="http://www.w3.org/2000/svg" width="131.75" height="126.75" viewBox="0 0 131.75 126.75"><defs><style>.cls-1{fill:#027cf5;}.cls-1,.cls-2,.cls-3{stroke-width:0px;}.cls-4,.cls-3{isolation:isolate;}.cls-2{fill:#fff;}.cls-3{fill:#000;mix-blend-mode:multiply;opacity:.5;}</style></defs><g id="Calque_1-2"><g class="cls-4"><g id="Layer_1"><path class="cls-1" d="M131.75,47.26l-12.56,1.28h0c-4.94-9.32-7.99-19.58-8.89-30.2h0c-16.53-1.24-32.24-7.65-44.9-18.34h0c-12.56,10.81-28.21,17.39-44.72,18.79h0c-1.24,16.53-7.65,32.24-18.34,44.9.74.85,1.45,1.72,2.14,2.61h0c-.31.43-.6.86-.87,1.32-1.84,3.12-2.57,6.66-2.18,10.54.05.48.11.96.19,1.42l-.23.02-1.22,6.33c-.16.82-.22,1.65-.18,2.46.01.25.03.57.07.93.32,3.14,1.37,5.89,3.13,8.17,1.62,2.09,3.66,3.72,6.1,4.85,1.99.93,4.16,1.54,6.44,1.8,1.63.19,3.28.23,4.9.13h0c.19,1.37.36,2.74.47,4.12h0c16.52,1.24,32.24,7.65,44.9,18.34h0c12.56-10.81,28.21-17.39,44.72-18.79h0c.34-4.57,1.1-9.08,2.21-13.48l15.44-1.57,1.76-23.99h0l1.59-21.66h0Z"/><path class="cls-3" d="M91.55,96.65l-15.71,1.6-11.64,1.18-37.57,3.81c-1.57.47-3.21.8-4.92.97-.35.04-.71.06-1.06.08.19,1.37.36,2.74.47,4.12,16.53,1.24,32.24,7.65,44.9,18.34,12.56-10.81,28.21-17.39,44.72-18.79.34-4.57,1.1-9.08,2.21-13.48l-12.93,1.31-8.48.86h0Z"/><path class="cls-3" d="M29.33,59.11c3.18,1.08,5.8,2.82,7.8,5.15.57.67,1.07,1.38,1.51,2.11l3.62-10.03,23.04-2.34,1.7,7.14.54-7.36,25.52-2.59-1.59,21.41,1.84-.19,1.57-21.41,24.31-2.47c-4.94-9.32-7.99-19.58-8.89-30.2C93.78,17.1,78.06,10.69,65.4,0h0c-12.56,10.81-28.21,17.39-44.72,18.79h0c-1.24,16.53-7.65,32.24-18.34,44.9.74.85,1.45,1.72,2.14,2.61,1.63-2.28,3.76-4.13,6.37-5.52,5.51-2.92,12.94-3.56,18.48-1.68h0Z"/><path class="cls-2" d="M37.82,47.31l.99-13.42,3.32-.34,2.6,7.38h.12s3.72-8.03,3.72-8.03l3.54-.36-.99,13.42-2.84.29.63-8.5-.15.02-3.32,7.09-1.75.18-2.24-6.53-.15.02-.6,8.5-2.88.29h0Z"/><path class="cls-2" d="M62.9,44.76l-8.82.9.99-13.42,8.8-.9-.18,2.61-5.63.57-.21,2.87,5.3-.54-.17,2.35-5.3.54-.22,2.99,5.65-.58-.19,2.61h0Z"/><path class="cls-2" d="M66.25,33.33c.44-.83,1.05-1.5,1.83-2.01s1.75-.82,2.89-.94c.94-.1,1.76-.05,2.46.14.7.18,1.29.46,1.75.84s.83.8,1.08,1.28.4.96.46,1.45l.02.19c.01.1.01.16,0,.19l-3.06.31s0-.07,0-.12-.01-.1-.03-.15c-.02-.16-.08-.34-.19-.54s-.25-.38-.44-.56-.44-.3-.73-.39-.65-.11-1.06-.07c-.5.05-.94.21-1.3.49s-.65.66-.87,1.15-.35,1.07-.4,1.75l-.13,1.51c-.01.18-.02.38-.02.61s.01.44.03.62c.06.58.22,1.06.47,1.45s.58.67.97.84.82.24,1.29.19c.45-.05.85-.16,1.19-.35s.62-.42.83-.7.32-.59.35-.92l.08-.93-2.39.24.15-2.11,5.33-.54-.22,2.93c-.06.9-.3,1.7-.73,2.41s-1.02,1.28-1.78,1.73-1.68.72-2.75.83c-1,.1-1.94.01-2.81-.27s-1.59-.79-2.17-1.52-.92-1.69-1.04-2.89c-.02-.22-.03-.47-.03-.76s0-.54.03-.75l.13-1.75c.09-1.08.35-2.03.78-2.86h0Z"/><path class="cls-2" d="M82.52,29.44l3.9-.4,3.28,12.99-3.41.35-.63-3.01-4.02.41-1.08,3.18-3.24.33s5.19-13.85,5.19-13.85ZM84.14,32.15l-1.73,5.22,2.87-.29-.96-4.95-.17.02h0Z"/><path class="cls-2" d="M19.47,73.17c.47-.26,1.04-.42,1.7-.49.59-.06,1.18-.02,1.77.12.59.14,1.08.39,1.48.76.4.37.63.86.69,1.48,0,.07,0,.13,0,.18,0,.06,0,.1,0,.14l7.14-.72c-.01-.09-.01-.21,0-.34,0-.13,0-.29-.02-.48-.15-1.47-.71-2.78-1.7-3.93-.98-1.15-2.32-2.01-4.01-2.59-1.69-.58-3.67-.75-5.92-.52-2.13.22-4.03.77-5.7,1.65-1.67.89-2.94,2.08-3.83,3.58s-1.22,3.25-1.02,5.26c.15,1.5.56,2.71,1.24,3.64.67.93,1.52,1.65,2.55,2.16s2.13.87,3.31,1.09l3.05.65c.68.14,1.29.28,1.84.44.55.16.99.36,1.32.62s.52.64.58,1.14c.06.58-.09,1.06-.46,1.44s-.82.67-1.38.88-1.09.33-1.58.39c-.72.07-1.4.02-2.06-.15s-1.2-.46-1.64-.86-.69-.91-.75-1.53c0-.09-.01-.17-.01-.21s0-.1.01-.15l-7.38.75c-.03.14-.04.27-.03.4s.02.29.04.48c.15,1.51.61,2.76,1.37,3.74s1.72,1.75,2.89,2.29,2.43.89,3.8,1.05,2.72.17,4.07.04c2.21-.22,4.19-.79,5.95-1.7,1.75-.91,3.11-2.12,4.06-3.63.95-1.51,1.32-3.28,1.12-5.3-.16-1.55-.6-2.78-1.31-3.68s-1.58-1.58-2.6-2.04-2.05-.77-3.1-.95l-3.21-.59c-1.1-.2-1.96-.48-2.59-.84s-.98-.85-1.04-1.49c-.05-.46.05-.87.29-1.25s.6-.69,1.07-.95h0Z"/><path class="cls-2" d="M48.57,64.42l-10.45,28.93,8.07-.82,1.74-5.78,7.6-.77.93,5.5,8.64-.88-6.48-27.21-10.05,1.02h0ZM49.71,80.88l3.04-10.08.43-.04,1.51,9.61s-4.97.5-4.97.51Z"/><polygon class="cls-2" points="83.65 60.86 75.66 61.67 73.61 89.75 91.89 87.9 92.36 81.23 82.06 82.27 83.65 60.86"/><polygon class="cls-2" points="121.87 63.36 122.34 56.94 103.01 58.9 100.96 86.98 120.29 85.01 120.76 78.59 109.4 79.75 109.75 74.97 120.41 73.89 120.81 68.19 110.17 69.27 110.55 64.51 121.87 63.36"/></g></g></g></svg>