<?xml version="1.0" encoding="UTF-8"?><svg id="Calque_2" xmlns="http://www.w3.org/2000/svg" width="133.42" height="75.88" viewBox="0 0 133.42 75.88"><defs><style>.cls-1{fill:#000;}.cls-1,.cls-2,.cls-3{stroke-width:0px;}.cls-2{fill:#027cf5;}.cls-4{opacity:.3;}.cls-3{fill:#fff;}</style></defs><g id="Layer_1"><path class="cls-2" d="M133.28,46.26l-1.09-5.25c.38-1.19.43-2.5.07-3.79l-3.31-11.84-2.49-12.04c-.27-1.31-.92-2.45-1.8-3.33l-1.44-5.16c-.98-3.52-4.63-5.58-8.15-4.59L12.15,28.99c-2.03.57-3.67,2.07-4.42,4.05L.42,52.53c-.51,1.35-.55,2.78-.18,4.11.28,1.34.97,2.6,2.04,3.57l15.44,13.97c1.57,1.42,3.71,2,5.78,1.57l104.63-21.67c3.58-.74,5.88-4.24,5.14-7.82h0ZM15.87,57.44c-2.54.71-5.15-.69-6.01-3.14-.35-2.57,1.32-5.01,3.9-5.55,2.47-.51,4.87.91,5.68,3.22.33,2.43-1.15,4.79-3.57,5.47Z"/><path class="cls-3" d="M31.17,36.59l14.78-4.13,1.05,3.75-10.31,2.88,1.45,5.19,9.66-2.7,1.05,3.75-9.66,2.7,2.37,8.48-4.47,1.25-5.92-21.18h0Z"/><path class="cls-3" d="M57.68,42.87l2.37,8.48-4.47,1.25-5.92-21.18,9.31-2.6c4.62-1.29,7.81.56,8.73,3.83.79,2.84-.32,4.81-1.68,5.87,1.16.09,3.04.74,4.1,4.53l.29,1.04c.4,1.43.86,3.04,1.43,3.95l-4.34,1.21c-.63-.82-1.14-2.38-1.77-4.63l-.09-.31c-.65-2.32-1.54-3.25-4.95-2.29l-3.01.84h0ZM56.66,39.23l3.84-1.07c2.51-.7,3.21-1.92,2.71-3.69-.48-1.72-1.88-2.37-4.11-1.75l-3.95,1.1,1.51,5.41h0Z"/><path class="cls-3" d="M88.39,33.59l-10.13,2.83,1.5,5.38,10.13-2.83,1.05,3.75-14.57,4.07-5.92-21.18,14.57-4.07,1.05,3.75-10.13,2.83,1.27,4.54,10.13-2.83,1.05,3.75h0Z"/><path class="cls-3" d="M107.58,28.23l-10.13,2.83,1.5,5.38,10.13-2.83,1.05,3.75-14.57,4.07-5.92-21.18,14.57-4.07,1.05,3.75-10.13,2.83,1.27,4.54,10.13-2.83,1.05,3.75h0Z"/><g class="cls-4"><path class="cls-1" d="M133.28,46.26l-1.09-5.25c-.66,2.05-2.29,3.74-4.52,4.37l-102.91,28.74c-2.03.57-4.22.13-5.88-1.18L2.52,60.06c-1.13-.89-1.91-2.1-2.28-3.42.28,1.34.97,2.6,2.04,3.57l15.44,13.97c1.57,1.42,3.71,2,5.78,1.57l104.63-21.67c3.58-.74,5.88-4.24,5.14-7.82h0Z"/><path class="cls-1" d="M126.46,13.34c-.27-1.31-.92-2.45-1.8-3.33l4.29,15.38-2.49-12.04Z"/><path class="cls-1" d="M9.86,54.3c-.35-2.57,1.32-5.01,3.9-5.55,2.47-.51,4.87.91,5.68,3.22-.03-.22-.05-.44-.12-.67-.74-2.65-3.49-4.2-6.14-3.46s-4.2,3.49-3.46,6.14c.03.11.08.21.12.32Z"/></g></g></svg>