<?xml version="1.0" encoding="utf-8"?>
<!DOCTYPE svg PUBLIC "-//W3C//DTD SVG 1.1//EN" "http://www.w3.org/Graphics/SVG/1.1/DTD/svg11.dtd">
<svg version="1.1" xmlns="http://www.w3.org/2000/svg" xmlns:xlink="http://www.w3.org/1999/xlink" xmlns:xml="http://www.w3.org/XML/1998/namespace" xmlns:dc="http://purl.org/dc/elements/1.1/" xmlns:cc="http://creativecommons.org/ns#" xmlns:rdf="http://www.w3.org/1999/02/22-rdf-syntax-ns#" xmlns:sodipodi="http://sodipodi.sourceforge.net/DTD/sodipodi-0.dtd" xmlns:inkscape="http://www.inkscape.org/namespaces/inkscape" width="1000" height="526" viewBox="0, 0, 594.3929, 313.0096" id="svg2" xml:space="preserve" inkscape:version="1.0 (4035a4fb49, 2020-05-01)" sodipodi:docname="Land Rover logo.svg">
  <metadata id="metadata8" />
  <defs id="defs6">
    <clipPath clipPathUnits="userSpaceOnUse" id="clipPath18">
      <path d="M0 0 H595.275 V841.89 H0 Z" id="path16" />
    </clipPath>
    <clipPath clipPathUnits="userSpaceOnUse" id="clipPath48">
      <path d="m413.496 781.128 h72.259 v32.414 h-72.259 z" id="path46" />
    </clipPath>
    <clipPath clipPathUnits="userSpaceOnUse" id="clipPath84">
      <path d="m502.966 779.358 h63.963 v34.186 h-63.963 z" id="path82" />
    </clipPath>
  </defs>
  <sodipodi:namedview id="namedview4" inkscape:current-layer="g10" inkscape:window-maximized="1" inkscape:window-y="-8" inkscape:window-x="-8" inkscape:cy="1457.4121" inkscape:cx="1343.4445" inkscape:zoom="0.1767767" showgrid="false" inkscape:window-height="1017" inkscape:window-width="1920" inkscape:pageshadow="2" inkscape:pageopacity="0" guidetolerance="10" gridtolerance="10" objecttolerance="10" borderopacity="1" bordercolor="#666666" pagecolor="#ffffff" />
  <g transform="matrix(1.333333, 0, 0, -1.333333, -670.6213, 1084.724)" id="g10" inkscape:label="Jaguar Land Rover Annual Report FY2021" inkscape:groupmode="layer">
    <g transform="matrix(6.970225, 0, 0, 6.970225, 760.8085, 694.1152)" id="g86" stroke-width="0.143467" style="fill:black;">
      <path d="M0 0 L-2.788 -5.475 H-2.846 L-2.987 0 h-2.332 l-0.091 -0.197 l0.2 -0.122 c0.193 -0.136 0.247 -0.274 0.272 -0.654 l0.316 -6.644 h2.598 L2.169 0 Z m-8.299 -3.943 c-0.261 -0.749 -0.466 -1.231 -0.769 -1.549 c-0.238 -0.25 -0.552 -0.429 -1.275 -0.429 c-0.567 0 -0.883 0.232 -0.883 0.671 c-0.004 0.283 0.073 0.713 0.376 1.55 c0.262 0.748 0.467 1.23 0.771 1.548 c0.235 0.25 0.55 0.43 1.274 0.43 c0.567 0 0.882 -0.232 0.881 -0.669 c0.006 -0.287 -0.071 -0.717 -0.375 -1.552 M-8.42 0.094 h-0.242 c-1.435 0 -2.255 -0.387 -2.928 -1.102 c-0.837 -0.885 -1.623 -3.278 -1.608 -4.544 c0.016 -1.291 0.851 -2.186 2.606 -2.186 h0.257 c1.439 0 2.259 0.387 2.932 1.102 c0.836 0.887 1.606 3.279 1.591 4.544 c-0.017 1.29 -0.852 2.186 -2.608 2.186 m-7.046 -2.859 c-0.131 -0.325 -0.275 -0.403 -0.464 -0.48 c-0.127 -0.05 -0.396 -0.068 -0.655 -0.068 h-1.003 l0.546 1.574 h1.212 c0.363 0 0.511 -0.189 0.516 -0.404 c0.002 -0.137 -0.061 -0.388 -0.152 -0.622 M-15.646 0 h-3.289 l-0.066 -0.197 l0.133 -0.131 c0.14 -0.138 0.135 -0.302 0.012 -0.654 l-2.298 -6.635 h2.1 l0.898 2.634 l0.711 -0.001 l0.79 -2.633 h2.11 l-0.992 2.695 c0.576 0.093 0.865 0.258 1.154 0.515 c0.396 0.362 0.67 0.87 0.897 1.618 c0.332 1.085 0.131 1.705 -0.082 2.023 C-13.861 -0.328 -14.478 0 -15.646 0 M6.386 -4.562 L6.968 -2.969 H4.291 l0.415 1.216 h2.9 L8.243 0.005 H2.768 L2.692 -0.219 L2.823 -0.348 c0.141 -0.137 0.135 -0.3 0.013 -0.654 l-2.28 -6.612 h5.116 l0.618 1.77 H3.304 l0.44 1.282 z m6.143 1.797 c-0.131 -0.325 -0.277 -0.403 -0.463 -0.48 c-0.13 -0.05 -0.395 -0.068 -0.654 -0.068 H10.41 l0.541 1.574 h1.214 c0.361 0 0.511 -0.189 0.514 -0.404 c0.004 -0.137 -0.061 -0.388 -0.15 -0.622 M12.346 0 H9.058 L8.994 -0.197 L9.126 -0.328 C9.267 -0.466 9.26 -0.63 9.139 -0.982 l-2.3 -6.635 h2.103 l0.897 2.633 h0.71 l0.791 -2.633 h2.108 l-0.99 2.695 c0.575 0.093 0.864 0.258 1.152 0.515 c0.397 0.362 0.672 0.87 0.899 1.618 c0.332 1.085 0.131 1.705 -0.081 2.023 C14.135 -0.328 13.517 0 12.346 0 m4.312 -10.222 c-5.769 -2.981 -13.464 -4.623 -21.671 -4.623 c-8.206 0 -15.9 1.642 -21.67 4.623 c-5.549 2.868 -8.607 6.603 -8.607 10.515 c0 3.915 3.058 7.65 8.607 10.516 c5.77 2.98 13.464 4.624 21.67 4.624 c8.207 0 15.902 -1.644 21.671 -4.624 c5.55 -2.866 8.605 -6.601 8.605 -10.516 c0 -3.912 -3.055 -7.647 -8.605 -10.515 m0.781 22.543 c-6.008 3.104 -13.981 4.813 -22.452 4.813 c-8.471 0 -16.445 -1.709 -22.451 -4.813 c-3.558 -1.839 -9.528 -5.847 -9.528 -12.028 c0 -6.178 5.97 -10.187 9.528 -12.026 c6.005 -3.104 13.978 -4.813 22.451 -4.813 c8.472 0 16.445 1.709 22.452 4.813 c3.558 1.839 9.526 5.847 9.526 12.026 c0 6.182 -5.968 10.189 -9.526 12.028 M15.85 -8.659 c-6.207 -3.206 -13.928 -4.425 -20.863 -4.425 c-6.936 0 -14.655 1.219 -20.864 4.425 c-3.285 1.699 -7.652 4.829 -7.652 8.952 c0 4.127 4.366 7.254 7.652 8.952 c6.209 3.206 13.928 4.425 20.864 4.425 c6.935 0 14.656 -1.217 20.863 -4.425 c3.288 -1.698 7.653 -4.825 7.653 -8.952 c0 -4.125 -4.366 -7.253 -7.653 -8.952 M16.172 9.87 c-6.302 3.259 -14.149 4.506 -21.185 4.506 c-7.037 0 -14.882 -1.248 -21.187 -4.506 c-3.54 -1.828 -8.033 -5.128 -8.033 -9.577 c0 -4.445 4.493 -7.747 8.033 -9.577 c6.305 -3.256 14.152 -4.504 21.187 -4.504 c7.036 0 14.883 1.246 21.185 4.504 c3.542 1.83 8.035 5.132 8.035 9.577 c0 4.449 -4.492 7.749 -8.035 9.577 m-37.081 -10.852 l-5.747 -1.89 l-0.702 -1.926 h5.068 l0.66 1.815 h-3.513 l3.988 1.35 z M1.959 7.457 h0.833 c0.567 0 0.88 -0.19 0.887 -0.629 C3.684 6.545 3.608 6.157 3.314 5.322 C3.054 4.575 2.846 4.142 2.551 3.825 C2.314 3.575 1.999 3.464 1.276 3.464 H0.58 Z M0.133 8.282 L-2.141 1.647 h3.355 c1.438 0 2.259 0.319 2.925 1.033 c0.836 0.884 1.6 3.184 1.575 4.45 C5.689 8.422 4.855 9.263 3.1 9.263 H0.052 L-0.012 9.067 L0.12 8.938 C0.26 8.799 0.255 8.635 0.133 8.282 m12.66 -1.75 H7.725 L7.065 4.719 h3.512 L6.588 3.365 L6.342 2.716 L12.089 4.606 Z M-9.858 1.651 h1.91 l1.666 4.927 l0.974 -4.927 h1.912 L-0.79 9.266 L-2.788 9.263 L-4.18 5.124 L-4.975 9.263 H-7.668 L-7.734 9.067 L-7.602 8.938 C-7.46 8.799 -7.467 8.635 -7.588 8.282 Z m-13.694 -0.004 l5.197 0.002 l0.628 1.815 h-3.021 l1.996 5.799 h-2.606 l-0.065 -0.196 l0.13 -0.129 c0.142 -0.139 0.136 -0.303 0.014 -0.656 z m11.057 5.511 h0.068 l0.036 -2.3 h-1.402 z m-5.321 -5.507 h2.211 l0.958 1.683 h2.289 l0.023 -1.683 h2.006 l-0.433 7.612 h-3.003 l-0.067 -0.196 l0.097 -0.097 c0.158 -0.155 0.093 -0.378 -0.492 -1.306 z" id="path88" fill-rule="nonzero" stroke-width="0.143467" fill-opacity="1" style="stroke:none;" />
    </g>
  </g>
</svg>