<?xml version="1.0" encoding="UTF-8"?><svg id="Calque_2" xmlns="http://www.w3.org/2000/svg" width="138.79" height="83.6" viewBox="0 0 138.79 83.6"><defs><style>.cls-1{fill:#027cf5;}.cls-1,.cls-2,.cls-3{stroke-width:0px;}.cls-4,.cls-3{isolation:isolate;}.cls-2{fill:#fff;}.cls-3{fill:#000;mix-blend-mode:multiply;opacity:.5;}</style></defs><g id="Calque_1-2"><g class="cls-4"><g id="Layer_1"><path class="cls-1" d="M126.9,16.11c0-8.9-7.21-16.11-16.11-16.11H0v23.25c0,8.9,7.21,16.11,16.11,16.11h110.79v-23.25Z"/><path class="cls-1" d="M122.68,44.24H45.83v23.25c0,8.9,7.21,16.11,16.11,16.11h76.85v-23.25c0-8.9-7.21-16.11-16.11-16.11h0Z"/><path class="cls-3" d="M138.79,83.6H61.94c-8.9,0-16.11-7.21-16.11-16.11v-23.25h76.85c8.9,0,16.11,7.21,16.11,16.11v23.25Z"/><path class="cls-2" d="M20.78,10.7c-5.58,0-9.56,4.43-9.56,10.72,0,4.39,2.86,7.24,7.3,7.24s7.65-2.51,8.35-6.32h-4.2c-.53,1.62-2.05,2.69-3.81,2.69-1.98,0-3.22-1.48-3.22-3.86,0-3.91,2.12-6.83,4.9-6.83,1.84,0,3.12,1.18,3.16,2.92,0,.14,0,.19-.01.22h4.16c.03-.25.05-.45.05-.68,0-3.43-3.09-6.09-7.1-6.09h0Z"/><path class="cls-2" d="M39.14,10.7c-5.3,0-9.39,4.34-9.39,10.64,0,4.17,2.89,7.32,7.6,7.32,5.3,0,9.37-4.32,9.37-10.64,0-4.15-2.79-7.32-7.59-7.32ZM37.49,25c-2.01,0-3.32-1.56-3.32-3.96,0-3.72,2.17-6.65,4.84-6.65,2,0,3.32,1.54,3.32,3.93,0,3.77-2.17,6.67-4.84,6.67Z"/><polygon class="cls-2" points="59.06 26.92 64.87 17.44 65.09 17.44 62.81 28.2 66.81 28.2 70.43 11.16 65.18 11.16 58.84 21.61 58.62 21.61 56.75 11.16 51.73 11.16 48.11 28.2 52.12 28.2 54.41 17.44 54.63 17.44 56.39 26.92 59.06 26.92"/><polygon class="cls-2" points="78.78 11.16 74.45 11.16 70.82 28.2 75.16 28.2 78.78 11.16"/><polygon class="cls-2" points="97.67 11.16 93.51 11.16 91.39 21.1 91.16 21.1 85.86 11.16 82.79 11.16 79.17 28.2 83.32 28.2 85.41 18.35 85.64 18.35 91.02 28.2 94.04 28.2 97.67 11.16"/><path class="cls-2" d="M106.43,28.66c4.63,0,7.66-2.6,8.57-7.43l.41-2.12h-7.24l-.64,2.99h3.06l-.02.15c-.33,1.68-1.83,2.75-3.79,2.75s-3.33-1.5-3.33-3.88c0-3.93,2.05-6.75,4.84-6.75,1.81,0,3.16,1,3.21,2.37h4.17c.01-.09.01-.27.01-.39-.05-3.13-3.24-5.64-7.13-5.64-5.58,0-9.5,4.37-9.5,10.66,0,4.4,2.93,7.29,7.38,7.29h0Z"/><path class="cls-2" d="M64.28,58.21c1.61,0,2.79.91,2.89,2.15h4c-.02-3.2-2.73-5.42-6.74-5.42s-7.07,2.36-7.07,5.6c0,2.3,1.49,3.99,4.1,4.77l1.84.56c1.66.51,2.27.99,2.27,1.84,0,1.14-1.18,1.91-2.87,1.91-1.58,0-2.92-.84-3.07-2.09h-4.13c.07,3.34,2.83,5.37,6.91,5.37,4.47,0,7.46-2.29,7.46-5.78,0-2.37-1.31-3.78-4.24-4.64l-1.86-.54c-1.46-.44-2.05-1.06-2.05-1.9,0-1.05,1.13-1.82,2.57-1.82Z"/><path class="cls-2" d="M82.31,54.94c-5.3,0-9.39,4.34-9.39,10.64,0,4.17,2.89,7.32,7.6,7.32,5.3,0,9.37-4.32,9.37-10.64,0-4.15-2.79-7.32-7.59-7.32h0ZM80.66,69.24c-2.01,0-3.32-1.56-3.32-3.96,0-3.72,2.17-6.65,4.84-6.65,2,0,3.32,1.53,3.32,3.93,0,3.77-2.17,6.67-4.84,6.67Z"/><path class="cls-2" d="M101.65,54.94c-5.3,0-9.39,4.34-9.39,10.64,0,4.17,2.89,7.32,7.6,7.32,5.3,0,9.37-4.32,9.37-10.64,0-4.15-2.79-7.32-7.59-7.32ZM99.99,69.24c-2.01,0-3.32-1.56-3.32-3.96,0-3.72,2.17-6.65,4.84-6.65,1.99,0,3.32,1.53,3.32,3.93,0,3.77-2.17,6.67-4.84,6.67Z"/><polygon class="cls-2" points="124.96 55.4 122.84 65.34 122.61 65.34 117.31 55.4 114.24 55.4 110.62 72.44 114.77 72.44 116.86 62.59 117.09 62.59 122.47 72.44 125.49 72.44 129.12 55.4 124.96 55.4"/></g></g></g></svg>