<?xml version="1.0" encoding="UTF-8"?><svg id="Calque_2" xmlns="http://www.w3.org/2000/svg" width="116.45" height="116.45" viewBox="0 0 116.45 116.45"><defs><style>.cls-1{fill:#000;}.cls-1,.cls-2{stroke-width:0px;}.cls-2{fill:#fcca22;}</style></defs><g id="Layer_1"><path class="cls-2" d="M60.39,1.23l3.87,6.49c.81,1.35,2.64,1.64,3.83.61l5.68-4.97c1.44-1.26,3.7-.52,4.12,1.34l1.68,7.37c.35,1.54,2.01,2.38,3.46,1.76l6.94-2.97c1.76-.75,3.68.65,3.51,2.55l-.68,7.52c-.14,1.57,1.17,2.88,2.74,2.74l7.52-.68c1.9-.17,3.3,1.75,2.55,3.51l-2.98,6.94c-.62,1.45.22,3.11,1.76,3.46l7.37,1.68c1.86.42,2.6,2.68,1.34,4.12l-4.98,5.68c-1.04,1.19-.75,3.02.61,3.83l6.49,3.87c1.64.98,1.64,3.36,0,4.33l-6.49,3.87c-1.35.81-1.64,2.64-.61,3.83l4.98,5.68c1.26,1.44.52,3.7-1.34,4.12l-7.37,1.68c-1.54.35-2.38,2.01-1.76,3.46l2.98,6.94c.75,1.76-.65,3.68-2.55,3.51l-7.52-.68c-1.57-.14-2.88,1.17-2.74,2.74l.68,7.52c.17,1.9-1.75,3.3-3.51,2.55l-6.94-2.98c-1.45-.62-3.11.22-3.46,1.76l-1.68,7.37c-.42,1.86-2.68,2.6-4.12,1.34l-5.68-4.98c-1.19-1.04-3.02-.75-3.83.61l-3.87,6.49c-.98,1.64-3.36,1.64-4.33,0l-3.87-6.49c-.81-1.35-2.64-1.64-3.83-.61l-5.68,4.98c-1.44,1.26-3.7.52-4.12-1.34l-1.68-7.37c-.35-1.54-2.01-2.38-3.46-1.76l-6.94,2.98c-1.76.75-3.68-.65-3.51-2.55l.68-7.52c.14-1.57-1.17-2.88-2.74-2.74l-7.52.68c-1.9.17-3.3-1.75-2.55-3.51l2.97-6.94c.62-1.45-.22-3.11-1.76-3.46l-7.37-1.68c-1.86-.42-2.6-2.68-1.34-4.12l4.97-5.68c1.04-1.19.75-3.02-.61-3.83l-6.49-3.87c-1.64-.98-1.64-3.36,0-4.33l6.49-3.87c1.35-.81,1.64-2.64.61-3.83l-4.97-5.68c-1.26-1.44-.52-3.7,1.34-4.12l7.37-1.68c1.54-.35,2.38-2.01,1.76-3.46l-2.97-6.94c-.75-1.76.65-3.68,2.55-3.51l7.52.68c1.57.14,2.88-1.17,2.74-2.74l-.68-7.52c-.17-1.9,1.75-3.3,3.51-2.55l6.94,2.97c1.45.62,3.11-.22,3.46-1.76l1.68-7.37c.42-1.86,2.68-2.6,4.12-1.34l5.68,4.97c1.19,1.04,3.02.75,3.83-.61l3.87-6.49c.98-1.64,3.36-1.64,4.33,0Z"/><path class="cls-1" d="M19.08,72.43v-.22s4.55,0,4.55,0v.11c.14,1.1,1.44,1.89,3.37,1.89s3.09-.8,3.09-1.94h0c0-1.01-.83-1.48-3.04-1.89l-1.94-.36c-3.98-.73-5.7-2.5-5.7-5.28h0c.01-3.5,3.14-5.75,7.48-5.75,4.72,0,7.29,2.26,7.58,5.4v.15s-4.42,0-4.42,0l-.03-.15c-.2-1.11-1.37-1.85-3.11-1.85s-2.74.73-2.74,1.79h0c0,1.02.86,1.58,2.9,1.96l1.94.36c4,.74,5.83,2.26,5.83,5.13h0c0,3.65-2.96,5.97-7.92,5.97-4.7,0-7.65-2.02-7.84-5.33h0Z"/><path class="cls-1" d="M37.57,68.38v-.03c0-5.77,3.63-9.36,9.29-9.36s9.28,3.59,9.28,9.36v.03c0,5.78-3.61,9.37-9.28,9.37s-9.29-3.59-9.29-9.37ZM51.26,68.38v-.03c0-3.42-1.76-5.61-4.4-5.61s-4.42,2.19-4.42,5.61v.03c0,3.43,1.75,5.62,4.42,5.62s4.4-2.19,4.4-5.62Z"/><path class="cls-1" d="M58.81,68.38v-.03c0-5.77,3.63-9.36,9.29-9.36s9.28,3.59,9.28,9.36v.03c0,5.78-3.61,9.37-9.28,9.37s-9.29-3.59-9.29-9.37ZM72.5,68.38v-.03c0-3.42-1.76-5.61-4.4-5.61s-4.42,2.19-4.42,5.61v.03c0,3.43,1.75,5.62,4.42,5.62s4.4-2.19,4.4-5.62Z"/><path class="cls-1" d="M80.94,59.48h3.82l7.85,10.01h.24v-10.01h4.54v17.8h-3.8l-7.88-10.11h-.24v10.11h-4.54v-17.8h0Z"/><path class="cls-1" d="M19.51,47.07v-.02c0-3.93,2.35-6.36,6.18-6.36,3.21,0,5.56,1.95,5.75,4.62v.15h-3.13v-.07c-.19-1.26-1.22-2.15-2.62-2.15-1.78,0-2.87,1.44-2.87,3.8v.02c0,2.38,1.09,3.83,2.88,3.83,1.4,0,2.38-.83,2.61-2.08l.02-.09h3.13v.13c-.21,2.69-2.48,4.58-5.76,4.58-3.83,0-6.18-2.43-6.18-6.36h0Z"/><path class="cls-1" d="M33.2,47.07v-.02c0-3.92,2.46-6.36,6.31-6.36s6.3,2.44,6.3,6.36v.02c0,3.93-2.45,6.36-6.3,6.36s-6.31-2.44-6.31-6.36ZM42.5,47.07v-.02c0-2.32-1.2-3.81-2.99-3.81s-3,1.49-3,3.81v.02c0,2.33,1.19,3.82,3,3.82s2.99-1.49,2.99-3.82Z"/><path class="cls-1" d="M48.23,41.02h3.7l3.09,8.2h.17l3.08-8.2h3.69v12.08h-2.85v-7.69h-.19l-2.9,7.69h-1.85l-2.9-7.69h-.18v7.69h-2.86v-12.08h0Z"/><path class="cls-1" d="M64.99,41.02h3.25v12.08h-3.25v-12.08Z"/><path class="cls-1" d="M71.26,41.02h2.6l5.33,6.8h.16v-6.8h3.08v12.08h-2.58l-5.35-6.87h-.16v6.87h-3.08v-12.08h0Z"/><path class="cls-1" d="M84.84,47.06v-.02c0-3.92,2.37-6.35,6.21-6.35,3.12,0,5.43,1.72,5.76,4.19v.08s-3.2,0-3.2,0l-.02-.08c-.27-1.01-1.26-1.65-2.54-1.65-1.82,0-2.9,1.42-2.9,3.77v.02c0,2.39,1.21,3.86,3.07,3.86,1.48,0,2.5-.82,2.59-2.06v-.2s-2.33,0-2.33,0v-2.11h5.47v1.56c0,3.32-2.19,5.36-5.8,5.36-3.93,0-6.3-2.4-6.3-6.37h0Z"/></g></svg>