<?xml version="1.0" encoding="utf-8"?>
<!DOCTYPE svg PUBLIC "-//W3C//DTD SVG 1.1//EN" "http://www.w3.org/Graphics/SVG/1.1/DTD/svg11.dtd">
<svg version="1.1" xmlns="http://www.w3.org/2000/svg" xmlns:xlink="http://www.w3.org/1999/xlink" xmlns:xml="http://www.w3.org/XML/1998/namespace" width="462" height="169" viewBox="707.50006, 755.0001, 1155.0001, 422.5" id="Layer_1" data-name="Layer 1">
  <metadata />
  <defs>
    <style>
      .cls-1 {
        fill: #000;
        fill-rule: evenodd;
        stroke-width: 0px;
      }
    </style>
  </defs>
  <path d="M1841.9 840.6 h-330.1 c-8.4 0 -14 -2.5 -14 -14.1 v-49 c0 -14.1 -7.6 -21.6 -21.4 -21.6 h-377.9 c-14.1 0 -21.4 8 -21.4 21.5 v49 c0 10.3 -4.9 14.1 -14 14.1 h-216.3 c-16.5 0 -26.2 8 -31.2 18.3 l-105.3 205.9 c-1.4 2.7 -2.1 5.7 -2.2 8.7 c0 8.2 5.3 18.7 20.1 18.7 h334.9 c10.3 0 14 4.7 14 14.1 v49 c0 14.7 8.5 21.5 21.4 21.5 h377.9 c12.9 0 21.4 -6.2 21.4 -21.3 v-49 c0 -10 4.2 -14.1 13.9 -14.1 h210 c14.5 0 24.9 -3.9 32.2 -17.4 l104.1 -203.5 c2.3 -4.4 3.9 -6.9 3.9 -12.1 c0 -13.8 -11.9 -18.7 -20 -18.7 h0 Z M1758.7 922.6 l-50.2 98.2 c-3.1 5.7 -8.7 5.9 -12.7 5.9 h-249.2 c-10.3 0 -14.1 4.7 -14.1 14.1 v56.5 c0 9.4 -4.2 13.9 -14.2 13.9 h-261.7 c-8.8 0 -14.1 -3 -14.1 -14 v-56.5 c0 -10.3 -4.8 -14 -14.1 -14 h-305.5 c-7.5 0 -12.7 -4.7 -12.7 -11.3 s0.5 -3.7 1.3 -5.3 l50.2 -98.2 c1.9 -3.5 5.1 -5.9 12.7 -5.9 h254.1 c8.8 0 14.2 -3.5 14.2 -14.2 v-56.5 c0 -10 4.4 -14 14.1 -14 h261.8 c9.4 0 14.1 4.2 14.1 14.2 v56.5 c0 9.7 4.5 14 14.2 14 h300.7 c9.6 0 12.7 6.3 12.7 11.3 s-0.5 3.7 -1.3 5.3 h-0.3 Z" fill-rule="evenodd" stroke-width="0px" class="cls-1" style="fill:black;" />
  <path d="M1546.9 799.4 c0 -5 -4.1 -6.1 -8.3 -6.1 h-10.1 v23.2 h3.3 v-10.2 h4.5 l6.6 10.2 h3.6 l-6.9 -10.5 c4.2 0 7.2 -2 7.2 -6.6 h0.1 Z M1537.9 803.5 h-6.1 v-7.5 h6.2 c2.4 0 5.7 0.3 5.7 3.3 s-1.1 4.2 -5.8 4.2 h0 Z" fill-rule="evenodd" stroke-width="0px" class="cls-1" style="fill:black;" />
  <path d="M1536.3 784.1 c-11.5 0 -20.8 9.2 -20.8 20.7 h0 c0 11.4 9.2 20.7 20.8 20.7 s20.7 -9.2 20.7 -20.7 s-9.2 -20.7 -20.7 -20.7 Z M1536.3 822.3 c-9.6 -0.3 -17.3 -8.3 -17 -17.9 c0.3 -9.3 7.7 -16.7 17 -17 c9.6 0 17.3 7.8 17.4 17.4 c0 9.7 -7.7 17.6 -17.4 17.6 h0 Z" fill-rule="evenodd" stroke-width="0px" class="cls-1" style="fill:black;" />
</svg>