<?xml version="1.0" encoding="UTF-8"?><svg id="Calque_2" xmlns="http://www.w3.org/2000/svg" width="143" height="49.44" viewBox="0 0 143 49.44"><defs><style>.cls-1{fill:#027cf5;}.cls-1,.cls-2,.cls-3{stroke-width:0px;}.cls-4,.cls-3{isolation:isolate;}.cls-2{fill:#fff;}.cls-3{fill:#000;mix-blend-mode:multiply;opacity:.5;}</style></defs><g id="Calque_1-2"><g class="cls-4"><g id="Layer_1"><path class="cls-1" d="M60.41,5.32c-4.21-3.32-9.51-5.32-15.29-5.32-13.65,0-24.72,11.07-24.72,24.72s11.07,24.72,24.72,24.72c5.78,0,11.08-2,15.29-5.32,5.74-4.53,9.43-11.53,9.43-19.4s-3.69-14.87-9.43-19.4Z"/><path class="cls-1" d="M135.84,4.95h-70.39c5.85,4.61,9.61,11.75,9.61,19.77s-3.76,15.16-9.61,19.77h70.39c3.95,0,7.15-3.2,7.15-7.15V12.1c0-3.95-3.2-7.15-7.15-7.15h0Z"/><path class="cls-1" d="M14.46,26.08c1.13,0,1.86-.62,1.89-1.53.03-.93-.74-1.6-1.92-1.61-4.16-.01-8.31-.02-12.47,0-1.26,0-1.95.57-1.97,1.53-.02,1.03.67,1.61,1.98,1.61,2.05,0,4.1,0,6.14,0s4.23,0,6.34,0h0Z"/><path class="cls-1" d="M15.99,33.95c1.03,0,1.76-.64,1.78-1.52.02-.87-.68-1.59-1.72-1.6-3.63-.03-7.26-.03-10.89,0-1.17,0-1.78.65-1.75,1.63.03.95.7,1.48,1.88,1.49,1.75,0,3.49,0,5.24,0s3.63,0,5.44,0h0Z"/><path class="cls-1" d="M5.27,18.24c1.78.01,3.56,0,5.34,0s3.56,0,5.34,0c1.1,0,1.83-.65,1.83-1.58,0-.89-.69-1.51-1.77-1.52-3.59-.02-7.19-.02-10.78,0-1.19,0-1.81.59-1.8,1.57.01.96.67,1.52,1.85,1.53Z"/><path class="cls-1" d="M20.16,38.42c-3.02-.01-6.04-.01-9.05,0-1.15,0-1.82.6-1.81,1.56,0,.95.66,1.52,1.83,1.54,1.47.02,2.95,0,4.43,0s3.08.02,4.63,0c1.08-.02,1.77-.62,1.78-1.5.02-.94-.69-1.59-1.8-1.6h0Z"/><path class="cls-1" d="M11.07,10.58c3.03,0,6.06,0,9.08,0,1.08,0,1.77-.6,1.8-1.49.03-.96-.65-1.57-1.79-1.58-1.51-.01-3.03,0-4.54,0v.02c-1.51,0-3.03,0-4.54,0-1.12,0-1.78.56-1.79,1.46-.02.97.66,1.59,1.79,1.6Z"/><path class="cls-3" d="M60.39,5.32c-4.21-3.32-9.51-5.32-15.29-5.32-13.65,0-24.72,11.07-24.72,24.72s11.07,24.72,24.72,24.72c5.78,0,11.08-2,15.29-5.32,5.74-4.53,9.43-11.53,9.43-19.4s-3.69-14.87-9.43-19.4Z"/><path class="cls-3" d="M14.46,26.08c1.13,0,1.86-.62,1.89-1.53.03-.93-.74-1.6-1.92-1.61-4.16-.01-8.31-.02-12.47,0-1.26,0-1.95.57-1.97,1.53-.02,1.03.67,1.61,1.98,1.61,2.05,0,4.1,0,6.14,0s4.23,0,6.34,0h0Z"/><path class="cls-3" d="M15.99,33.95c1.03,0,1.76-.64,1.78-1.52.02-.87-.68-1.59-1.72-1.6-3.63-.03-7.26-.03-10.89,0-1.17,0-1.78.65-1.75,1.63.03.95.7,1.48,1.88,1.49,1.75,0,3.49,0,5.24,0s3.63,0,5.44,0h0Z"/><path class="cls-3" d="M5.27,18.24c1.78.01,3.56,0,5.34,0s3.56,0,5.34,0c1.1,0,1.83-.65,1.83-1.58,0-.89-.69-1.51-1.77-1.52-3.59-.02-7.19-.02-10.78,0-1.19,0-1.81.59-1.8,1.57.01.96.67,1.52,1.85,1.53Z"/><path class="cls-3" d="M20.16,38.42c-3.02-.01-6.04-.01-9.05,0-1.15,0-1.82.6-1.81,1.56,0,.95.66,1.52,1.83,1.54,1.47.02,2.95,0,4.43,0s3.08.02,4.63,0c1.08-.02,1.77-.62,1.78-1.5.02-.94-.69-1.59-1.8-1.6h0Z"/><path class="cls-3" d="M11.07,10.58c3.03,0,6.06,0,9.08,0,1.08,0,1.77-.6,1.8-1.49.03-.96-.65-1.57-1.79-1.58-1.51-.01-3.03,0-4.54,0v.02c-1.51,0-3.03,0-4.54,0-1.12,0-1.78.56-1.79,1.46-.02.97.66,1.59,1.79,1.6Z"/><path class="cls-2" d="M46.35,15.99c5.78.69,9.9,5.94,9.21,11.72s-5.94,9.9-11.72,9.21-9.9-5.94-9.21-11.72c.6-5.02,4.69-8.91,9.73-9.26v-1.84h-1.97c-.32,0-.59-.26-.59-.59h0v-1.44c0-.32.26-.59.59-.59h5.93c.32,0,.59.26.59.59v1.44c0,.32-.26.59-.59.59h-1.97v1.89h0,0ZM45.09,26.49l7-2.14c-.94-3.08-3.78-5.18-7-5.18v7.32ZM54.54,19.17c.42-.97.36-2-.23-2.68-.7-.83-1.97-.92-3.15-.34,1.25.85,2.39,1.87,3.37,3.02ZM35.64,19.17c-.42-.97-.36-2,.22-2.68.7-.83,1.97-.92,3.15-.34-1.25.85-2.39,1.87-3.37,3.02ZM51.34,20.19c-3.45-3.45-9.04-3.45-12.49,0-3.45,3.45-3.45,9.04,0,12.49,3.45,3.45,9.04,3.45,12.49,0,1.65-1.66,2.58-3.9,2.59-6.24,0-2.34-.93-4.59-2.59-6.25Z"/><path class="cls-2" d="M89.49,20.47h-6.15l1.87-8.79h2.58l-1.42,6.68h3.57s-.45,2.11-.45,2.11Z"/><path class="cls-2" d="M90.36,20.47l1.87-8.79h2.58l-1.87,8.79h-2.58Z"/><path class="cls-2" d="M94.26,20.47l1.86-8.79h2.99l.72,5.51h.05l2.97-5.51h3.22l-1.87,8.79h-2.28l1.19-5.53h-.07l-3.06,5.53h-1.49l-.73-5.53h-.05l-1.18,5.53h-2.28Z"/><path class="cls-2" d="M105.52,20.47l1.87-8.79h2.58l-1.87,8.79h-2.58Z"/><path class="cls-2" d="M111.44,20.47l1.43-6.74h-2.44l.44-2.05h7.46l-.44,2.05h-2.44l-1.43,6.74h-2.58Z"/><path class="cls-2" d="M123.57,20.47h-6.2l1.87-8.79h6.19l-.44,2.05h-3.61l-.3,1.43h3.39l-.4,1.85h-3.39l-.3,1.42h3.62l-.43,2.05h0Z"/><path class="cls-2" d="M130.25,11.68c.68,0,1.28.13,1.81.4.52.27.94.65,1.24,1.15.3.5.45,1.1.45,1.81,0,.79-.11,1.52-.33,2.18-.22.66-.53,1.23-.94,1.72-.41.49-.9.86-1.47,1.13-.57.27-1.2.4-1.89.4h-4.38l1.87-8.79h3.65ZM127.77,18.42h.96c.35,0,.66-.07.95-.21s.53-.34.74-.6.37-.58.49-.96c.12-.38.17-.81.17-1.29,0-.33-.06-.62-.17-.86-.12-.25-.28-.44-.5-.57-.21-.14-.48-.21-.78-.21h-.87l-.99,4.7Z"/><path class="cls-2" d="M84.81,37.76l2.1-9.87h-3.57l.64-3h10.93l-.64,3h-3.57l-2.1,9.87h-3.78Z"/><path class="cls-2" d="M93.49,37.76l2.74-12.87h3.78l-2.74,12.87h-3.78Z"/><path class="cls-2" d="M99.2,37.76l2.73-12.87h4.38l1.06,8.07h.07l4.34-8.07h4.72l-2.74,12.87h-3.34l1.74-8.1h-.11l-4.48,8.1h-2.18l-1.07-8.1h-.07l-1.72,8.1h-3.34Z"/><path class="cls-2" d="M124.77,37.76h-9.08l2.74-12.87h9.07l-.64,3h-5.29l-.44,2.09h4.96l-.58,2.71h-4.96l-.45,2.08h5.3l-.63,3h0Z"/></g></g></g></svg>