<?xml version="1.0" encoding="UTF-8"?><svg id="Calque_2" xmlns="http://www.w3.org/2000/svg" width="156.46" height="31.93" viewBox="0 0 156.46 31.93"><defs><style>.cls-1{fill:#1c1c1c;stroke-width:0px;}</style></defs><g id="Layer_1"><path class="cls-1" d="M13.56,18.94l-.86,2.55h-2.35l3.75-11.05h3l3.92,11.05h-2.51l-.91-2.55h-4.04,0ZM17.08,16.98c-.79-2.33-1.28-3.82-1.55-4.82h-.01c-.27,1.09-.83,2.82-1.45,4.82h3.02Z"/><path class="cls-1" d="M22.59,10.44h4.38c3.22,0,5.32,2.12,5.32,5.39s-2.04,5.66-5.42,5.66h-4.28v-11.05h0ZM24.98,19.56h1.79c2.12,0,3.05-1.57,3.05-3.73,0-1.81-.88-3.46-3.04-3.46h-1.81s0,7.19,0,7.19Z"/><path class="cls-1" d="M34.55,10.44h4.38c3.22,0,5.32,2.12,5.32,5.39s-2.04,5.66-5.42,5.66h-4.28v-11.05h0ZM36.94,19.56h1.79c2.12,0,3.05-1.57,3.05-3.73,0-1.81-.88-3.46-3.04-3.46h-1.81s0,7.19,0,7.19Z"/><path class="cls-1" d="M52.75,12.4h-3.36v-1.96h9.1v1.96h-3.35v9.09h-2.39v-9.09Z"/><path class="cls-1" d="M69.95,15.93c0,3.07-1.85,5.72-5.43,5.72s-5.28-2.52-5.28-5.68,2-5.68,5.44-5.68c3.23,0,5.28,2.26,5.28,5.65ZM61.7,15.92c0,2.16.95,3.79,2.91,3.79,2.12,0,2.88-1.78,2.88-3.75,0-2.09-.86-3.73-2.92-3.73s-2.87,1.54-2.87,3.69Z"/><path class="cls-1" d="M85.62,18.08c-.44,2.06-2,3.56-4.76,3.56-3.5,0-5.16-2.48-5.16-5.62s1.71-5.74,5.27-5.74c2.94,0,4.37,1.73,4.64,3.57h-2.39c-.23-.85-.82-1.7-2.32-1.7-1.97,0-2.73,1.77-2.73,3.79,0,1.87.66,3.83,2.8,3.83,1.56,0,2.05-1.04,2.26-1.69h2.4Z"/><path class="cls-1" d="M89.69,18.94l-.86,2.55h-2.35l3.75-11.05h3l3.92,11.05h-2.51l-.91-2.55h-4.04,0ZM93.22,16.98c-.79-2.33-1.29-3.82-1.55-4.82h-.01c-.27,1.09-.83,2.82-1.45,4.82h3.02Z"/><path class="cls-1" d="M101.06,17.07v4.42h-2.34v-11.05h4.86c2.41,0,3.71,1.33,3.71,3.03,0,1.48-.81,2.29-1.61,2.61.55.2,1.37.77,1.37,2.75v.55c0,.74,0,1.59.16,2.11h-2.26c-.2-.48-.23-1.31-.23-2.48v-.16c0-1.21-.31-1.78-2.08-1.78h-1.57ZM101.06,15.16h2c1.31,0,1.81-.5,1.81-1.42s-.59-1.4-1.75-1.4h-2.06v2.82h0Z"/><path class="cls-1" d="M111.9,12.4h-3.36v-1.96h9.1v1.96h-3.35v9.09h-2.39v-9.09Z"/><path class="cls-1" d="M6.71,29.74c-2.76,0-5-2.24-5-5V7.19c0-2.76,2.24-5,5-5h120.67c.68-.61,1.4-1.17,2.16-1.68-.18-.01-.37-.03-.55-.03H6.71C3.01.48,0,3.49,0,7.19v17.56c0,3.7,3.01,6.71,6.71,6.71h122.28c.19,0,.37-.01.55-.03-.76-.51-1.48-1.07-2.16-1.68H6.71Z"/><path class="cls-1" d="M149.56,11.76h-1.36v-1.34c0-.37-.24-.61-.6-.61s-.61.25-.61.61v1.34h-1.35c-.36,0-.6.24-.6.6s.25.61.6.61h1.35v1.36c0,.36.24.6.61.6s.6-.24.6-.6v-1.36h1.36c.35,0,.6-.24.6-.61s-.24-.6-.6-.6Z"/><path class="cls-1" d="M140.49,0c-3.27,0-6.31.99-8.85,2.68-.65.44-1.27.92-1.86,1.44-3.23,2.92-5.26,7.14-5.26,11.84s2.03,8.92,5.26,11.84c.58.53,1.2,1.01,1.86,1.44,2.53,1.69,5.57,2.68,8.85,2.68,8.82,0,15.96-7.15,15.96-15.96s-7.15-15.96-15.96-15.96h0ZM137.61,25.26c-.8,0-1.46-.65-1.46-1.46s.66-1.46,1.46-1.46,1.46.65,1.46,1.46-.65,1.46-1.46,1.46ZM144.46,25.26c-.81,0-1.46-.65-1.46-1.46s.65-1.46,1.46-1.46,1.46.65,1.46,1.46-.65,1.46-1.46,1.46ZM147.47,17.59c-.32.51-.86.8-1.62.8h-9.21l.11.76c.04.27.2.45.45.45h8.51c.46,0,.87.33.87.84s-.41.85-.87.85h-8.75c-1.24,0-1.92-.75-2.11-1.98l-1.1-7.53h-2.07c-.51,0-.94-.43-.94-.95s.44-.95.94-.95h2.48c.95,0,1.3.39,1.42,1.16l.09.6h6.84c-.04.24-.05.48-.05.73,0,2.78,2.24,5.05,5.06,5.11l-.07.11h0ZM147.6,16.35c-2.18,0-3.98-1.81-3.98-3.98s1.8-3.97,3.98-3.97,3.97,1.8,3.97,3.97-1.81,3.98-3.97,3.98Z"/></g></svg>