<?xml version="1.0" encoding="UTF-8"?>
<svg id="Calque_2" data-name="Calque 2" xmlns="http://www.w3.org/2000/svg" viewBox="0 0 260.44 259.01">
  <defs>
    <style>
      .cls-1 {
        fill: #ffad29;
      }

      .cls-1, .cls-2, .cls-3 {
        stroke-width: 0px;
      }

      .cls-3 {
        fill: #fff;
      }
    </style>
  </defs>
  <g id="Calque_1-2" data-name="Calque 1">
    <g>
      <g>
        <path class="cls-1" d="m130.09,244.55c-61.75,0-111.99-50.24-111.99-111.99S68.34,20.56,130.09,20.56s111.99,50.24,111.99,111.99-50.24,111.99-111.99,111.99Zm0-220.81c-60,0-108.82,48.82-108.82,108.82s48.82,108.82,108.82,108.82,108.82-48.82,108.82-108.82S190.09,23.74,130.09,23.74Z"/>
        <path class="cls-1" d="m130.09,236.48c-57.3,0-103.92-46.62-103.92-103.92S72.78,28.63,130.09,28.63s103.92,46.62,103.92,103.92-46.62,103.92-103.92,103.92Zm0-206.81c-56.73,0-102.89,46.16-102.89,102.89s46.16,102.89,102.89,102.89,102.89-46.16,102.89-102.89S186.82,29.67,130.09,29.67Z"/>
      </g>
      <path class="cls-2" d="m249.58,118.39l5.16-27.92-20.58-19.55-6.64-27.6-26.76-9.49-17.29-22.51-28.3,2.21L130.22,0l-24.95,13.53-28.3-2.21-17.29,22.51-26.76,9.49-6.64,27.6-20.58,19.55,5.16,27.92L0,144.62l16.07,23.4.76,28.38,24.2,14.84,12.23,25.62,28.14,3.72,21.6,18.43,27.22-8.05,27.22,8.05,21.6-18.43,28.14-3.72,12.23-25.62,24.2-14.84.76-28.38,16.07-23.4-10.85-26.23Zm-119.5,126.16c-61.75,0-111.99-50.24-111.99-111.99S68.34,20.56,130.09,20.56s111.99,50.24,111.99,111.99-50.24,111.99-111.99,111.99Z"/>
      <path class="cls-2" d="m130.09,23.74c-60,0-108.82,48.82-108.82,108.82s48.82,108.82,108.82,108.82,108.82-48.82,108.82-108.82S190.09,23.74,130.09,23.74Zm0,212.75c-57.3,0-103.92-46.62-103.92-103.92S72.78,28.63,130.09,28.63s103.92,46.62,103.92,103.92-46.62,103.92-103.92,103.92Z"/>
      <path class="cls-2" d="m130.09,29.67c-56.73,0-102.89,46.16-102.89,102.89s46.16,102.89,102.89,102.89,102.89-46.16,102.89-102.89S186.82,29.67,130.09,29.67Z"/>
      <g>
        <path class="cls-3" d="m100.95,89.09c0,1.58-.36,2.92-1.08,4.02-.72,1.1-2.01,1.96-3.87,2.58-1.86.62-4.43.92-7.73.92h-15.67c.19-4.5.28-8.72.28-12.64s-.09-8.13-.28-12.64h8.18v.03h7.42c2.88,0,5.15.24,6.81.71,1.66.48,2.83,1.17,3.52,2.07s1.03,2.05,1.03,3.45-.49,2.68-1.48,3.78c-.99,1.1-2.68,1.99-5.07,2.66,5.29,0,7.94,1.68,7.94,5.05Zm-20.16-11.38v3.24h6.69c1.44,0,2.44-.13,3.01-.38.57-.25.85-.72.85-1.39,0-.53-.3-.91-.89-1.13s-1.58-.33-2.98-.33h-6.69Zm6.69,12.53c1.21,0,2.13-.05,2.77-.16.64-.1,1.1-.29,1.38-.56s.42-.63.42-1.1c0-.6-.33-1.04-.99-1.31-.66-.27-1.85-.4-3.57-.4h-6.69v3.52h6.69Z"/>
        <path class="cls-3" d="m111.95,90.24c8.82-.05,15.21-.17,19.18-.38-.16.95-.26,1.93-.3,2.94-.03,1.01-.05,2.28-.05,3.81h-27.05c.19-4.5.28-8.72.28-12.64s-.09-8.13-.28-12.64h27.05v6.3h-18.84v3.34c1.11.02,2.76.04,4.94.04,3.69,0,7.51-.07,11.45-.21v5.99c-3.95-.14-7.76-.21-11.45-.21-2.18,0-3.83.01-4.94.04v3.62Z"/>
        <path class="cls-3" d="m135.88,90.3c.52-1.02,1.03-2.21,1.51-3.55,1.65.95,3.56,1.7,5.75,2.23,2.18.53,4.21.8,6.09.8s3.28-.17,4.07-.5c.79-.34,1.18-.7,1.18-1.1,0-1.42-2.16-2.12-6.48-2.12-4.74,0-8.17-.49-10.31-1.48-2.14-.99-3.2-2.58-3.2-4.79,0-3.13,1.3-5.44,3.9-6.93,2.6-1.48,5.98-2.23,10.13-2.23,2.41,0,4.89.31,7.43.92,2.54.62,4.83,1.46,6.88,2.52-.67,1.53-1.38,3.4-2.12,5.61-.14.46-.26.81-.35,1.04-1.18-.95-2.97-1.75-5.36-2.38-2.39-.64-4.5-.96-6.34-.96-2.21,0-3.69.15-4.46.44s-1.15.71-1.15,1.27.53,1,1.58,1.34c1.06.34,2.58.5,4.58.5,4.92,0,8.5.56,10.72,1.69s3.34,2.85,3.34,5.17c0,3.25-1.18,5.59-3.55,7.02s-5.95,2.14-10.76,2.14c-2.58,0-5.2-.29-7.87-.85s-5.07-1.4-7.21-2.49c.79-1.18,1.45-2.29,1.97-3.31Z"/>
        <path class="cls-3" d="m194.6,78.64c-3.64-.12-7.18-.19-10.62-.21v18.17h-8.7v-18.17c-3.46.02-6.99.09-10.58.21v-7.31h29.91v7.31Z"/>
      </g>
      <g>
        <path class="cls-3" d="m62.08,132.96c1.02.48,2.19.94,3.52,1.39-1.24,1.05-2.87,2.46-4.88,4.22-2.07-1.59-3.84-3.39-5.3-5.41-3.31-.39-5.75-1.48-7.31-3.27-1.56-1.79-2.34-4.16-2.34-7.1,0-3.29.99-5.86,2.98-7.71,1.99-1.85,5.11-2.77,9.36-2.77s7.4.92,9.39,2.77c1.99,1.85,2.98,4.42,2.98,7.71,0,5.77-2.8,9.16-8.41,10.18Zm.47-6.5c.91-.79,1.36-2.01,1.36-3.67s-.45-2.84-1.36-3.63c-.91-.79-2.39-1.19-4.44-1.19s-3.5.4-4.41,1.19c-.91.79-1.36,2.01-1.36,3.63s.45,2.87,1.36,3.66c.91.8,2.38,1.19,4.41,1.19s3.53-.39,4.44-1.18Z"/>
        <path class="cls-3" d="m89.12,112.85h6.88v11.04c-.04,2.72-.97,4.96-2.79,6.74s-4.89,2.66-9.2,2.66-7.35-.85-8.96-2.54c-1.61-1.69-2.4-3.92-2.36-6.67v-11.23h6.88v10.79c0,.81.06,1.48.18,1.98.12.51.51.99,1.17,1.43.66.44,1.71.67,3.18.67,1.59,0,2.76-.23,3.5-.68.74-.45,1.18-.96,1.32-1.51s.21-1.27.21-2.14v-10.54Z"/>
        <path class="cls-3" d="m115.72,133.01c-.35-1.05-.82-2.38-1.41-3.97h-8.85l-1.39,3.97h-6.96l7.77-20.14h10.21l7.82,20.14h-7.18Zm-3-8.29c-.7-1.94-1.42-3.88-2.16-5.83l-.67-1.8c-.65,1.68-1.6,4.23-2.86,7.63h5.69Z"/>
        <path class="cls-3" d="m130.59,127.41c5.36-.04,9.8-.13,13.31-.28-.24.94-.39,1.85-.44,2.72-.06.87-.08,1.92-.08,3.16h-19.56c.15-3.59.22-6.94.22-10.07s-.07-6.48-.22-10.07h6.77v14.54Z"/>
        <path class="cls-3" d="m162.24,118.39c-2.2-.11-3.83-.18-4.88-.19v9.49c1.07-.02,2.7-.08,4.88-.19v5.52h-16.12v-5.52c2.13.11,3.75.18,4.85.19v-9.49c-1.11.02-2.73.08-4.85.19v-5.52h16.12v5.52Z"/>
        <path class="cls-3" d="m188.29,118.7c-2.9-.09-5.72-.15-8.46-.17v14.48h-6.93v-14.48c-2.76.02-5.57.07-8.43.17v-5.83h23.83v5.83Z"/>
        <path class="cls-3" d="m215.19,112.87l-.53.8c-1.98,3.07-3.67,5.78-5.09,8.14-1.41,2.36-2.59,4.53-3.54,6.5v4.69h-7.24v-5.16c-.68-1.39-1.49-2.82-2.41-4.29-.92-1.47-2.24-3.49-3.94-6.06-1.33-1.96-2.35-3.5-3.05-4.63h7.77c.55,1.13,1.46,2.8,2.72,5.02,1.26,2.26,2.12,3.85,2.58,4.77.65-1.35,1.52-3,2.61-4.96,1.28-2.29,2.14-3.9,2.58-4.83h7.54Z"/>
      </g>
      <g>
        <polygon class="cls-1" points="53.83 170.78 46.8 175.66 49.28 167.47 42.47 162.31 51.02 162.13 53.83 154.05 56.63 162.13 65.19 162.31 58.37 167.47 60.85 175.66 53.83 170.78"/>
        <polygon class="cls-1" points="82.46 196.07 75.44 200.95 77.91 192.77 71.1 187.6 79.65 187.43 82.46 179.35 85.27 187.43 93.82 187.6 87 192.77 89.48 200.95 82.46 196.07"/>
        <polygon class="cls-1" points="129.09 198.13 112.35 209.78 118.25 190.25 102 177.93 122.39 177.52 129.09 158.25 135.79 177.52 156.18 177.93 139.92 190.25 145.83 209.78 129.09 198.13"/>
        <polygon class="cls-1" points="175.72 196.07 168.7 200.95 171.18 192.77 164.36 187.6 172.91 187.43 175.72 179.35 178.53 187.43 187.08 187.6 180.26 192.77 182.74 200.95 175.72 196.07"/>
        <polygon class="cls-1" points="204.35 170.78 197.33 175.66 199.81 167.47 192.99 162.31 201.54 162.13 204.35 154.05 207.16 162.13 215.71 162.31 208.9 167.47 211.37 175.66 204.35 170.78"/>
      </g>
    </g>
  </g>
</svg>