<?xml version="1.0" encoding="UTF-8"?><svg id="Calque_2" xmlns="http://www.w3.org/2000/svg" width="170.35" height="37.74" viewBox="0 0 170.35 37.74"><defs><style>.cls-1{fill:#e62e2e;}.cls-1,.cls-2,.cls-3{stroke-width:0px;}.cls-4,.cls-3{isolation:isolate;}.cls-2{fill:#fff;}.cls-3{fill:#000;mix-blend-mode:multiply;opacity:.5;}</style></defs><g id="Calque_1-2"><g class="cls-4"><g id="Layer_1"><path class="cls-1" d="M170.35,16.66c0-9.2-7.03-16.66-15.71-16.66H15.71C7.03,0,0,7.46,0,16.66c0,.75.06,1.49.15,2.21C.07,19.6,0,20.33,0,21.08,0,30.28,7.03,37.74,15.71,37.74h138.93c8.68,0,15.71-7.46,15.71-16.66,0-.75-.06-1.49-.15-2.21.09-.73.15-1.46.15-2.21h0Z"/><path class="cls-3" d="M154.64,33.32H15.71c-7.97,0-14.53-6.29-15.56-14.45-.09.73-.15,1.46-.15,2.21,0,9.2,7.03,16.66,15.71,16.66h138.93c8.68,0,15.71-7.46,15.71-16.66,0-.75-.06-1.49-.15-2.21-1.02,8.15-7.59,14.45-15.56,14.45h0Z"/><path class="cls-2" d="M15.09,10.67h3.03l4.29,12.33h-2.72l-.91-2.99h-4.35l-.91,2.99h-2.71l4.28-12.33h0ZM15.02,18.08h3.17l-1.5-4.95h-.15l-1.51,4.95Z"/><path class="cls-2" d="M24.67,10.67h4.85c3.67,0,5.78,2.21,5.78,6.07v.02c0,3.98-2.09,6.24-5.78,6.24h-4.85s0-12.33,0-12.33ZM29.12,20.88c2.28,0,3.56-1.44,3.56-4.07v-.02c0-2.54-1.32-3.99-3.56-3.99h-1.86v8.07h1.86Z"/><path class="cls-2" d="M37.93,10.67h4.85c3.67,0,5.78,2.21,5.78,6.07v.02c0,3.98-2.09,6.24-5.78,6.24h-4.85s0-12.33,0-12.33ZM42.37,20.88c2.28,0,3.56-1.44,3.56-4.07v-.02c0-2.54-1.32-3.99-3.56-3.99h-1.86v8.07h1.86Z"/><path class="cls-2" d="M58.85,12.8h-3.7v-2.13h9.98v2.13h-3.7v10.2h-2.58v-10.2Z"/><path class="cls-2" d="M66.61,16.84v-.02c0-3.99,2.31-6.47,5.94-6.47s5.93,2.49,5.93,6.47v.02c0,3.98-2.29,6.48-5.93,6.48s-5.94-2.5-5.94-6.48ZM75.85,16.84v-.02c0-2.61-1.3-4.28-3.3-4.28s-3.31,1.67-3.31,4.28v.02c0,2.61,1.27,4.29,3.31,4.29s3.3-1.68,3.3-4.29Z"/><path class="cls-2" d="M85.23,16.84v-.02c0-4,2.21-6.47,5.78-6.47,2.92,0,5.11,1.86,5.35,4.47v.1h-2.51v-.06c-.26-1.38-1.37-2.32-2.84-2.32-1.94,0-3.14,1.63-3.14,4.28v.02c0,2.65,1.21,4.29,3.15,4.29,1.48,0,2.55-.86,2.82-2.18l.02-.07h2.51v.09c-.27,2.58-2.38,4.34-5.36,4.34-3.57,0-5.78-2.48-5.78-6.48h0Z"/><path class="cls-2" d="M101.93,10.67h3.03l4.29,12.33h-2.72l-.91-2.99h-4.35l-.91,2.99h-2.71l4.28-12.33h0ZM101.87,18.08h3.17l-1.5-4.95h-.15l-1.51,4.95Z"/><path class="cls-2" d="M111.52,10.67h5.14c2.8,0,4.41,1.5,4.41,3.92v.02c0,1.58-.82,2.94-2.23,3.5l2.6,4.9h-2.92l-2.3-4.51h-2.11v4.51h-2.58v-12.33h0ZM116.37,16.61c1.29,0,2.05-.73,2.05-1.95v-.02c0-1.19-.79-1.96-2.09-1.96h-2.24v3.92h2.27Z"/><path class="cls-2" d="M126.83,12.8h-3.7v-2.13h9.98v2.13h-3.7v10.2h-2.58v-10.2Z"/><path class="cls-2" d="M144.36,19.91l-1.09-7.47h-2.05c-.5,0-.94-.43-.94-.94s.43-.94.94-.94h2.46c.94,0,1.29.39,1.41,1.15l.09.59h6.79c-.04.24-.05.48-.05.72,0,2.76,2.23,5.01,5.02,5.07l-.07.11c-.32.51-.85.79-1.6.79h-9.14l.11.76c.04.27.2.45.45.45h8.44c.46,0,.86.33.86.83s-.4.84-.86.84h-8.68c-1.24,0-1.9-.74-2.09-1.96h0ZM147.09,22.91c.81,0,1.45.64,1.45,1.45s-.65,1.45-1.45,1.45-1.45-.64-1.45-1.45.65-1.45,1.45-1.45ZM153.89,22.91c.8,0,1.45.64,1.45,1.45s-.65,1.45-1.45,1.45-1.45-.64-1.45-1.45.65-1.45,1.45-1.45ZM153.05,13.02c0-2.16,1.78-3.94,3.95-3.94s3.94,1.78,3.94,3.94-1.8,3.95-3.94,3.95-3.95-1.79-3.95-3.95ZM157.59,14.97v-1.35h1.35c.35,0,.59-.24.59-.61s-.24-.6-.59-.6h-1.35v-1.33c0-.37-.24-.61-.6-.61s-.61.25-.61.61v1.33h-1.34c-.36,0-.6.24-.6.6s.25.61.6.61h1.34v1.35c0,.36.24.6.61.6s.6-.24.6-.6Z"/></g></g></g></svg>