<?xml version="1.0" encoding="UTF-8"?><svg id="Calque_2" xmlns="http://www.w3.org/2000/svg" width="134.34" height="68.77" viewBox="0 0 134.34 68.77"><defs><style>.cls-1{fill:#34ad5c;}.cls-1,.cls-2{stroke-width:0px;}.cls-2{fill:#fff;}</style></defs><g id="Layer_1"><path class="cls-1" d="M133.89,35.5c0-.18-.07-.34-.2-.46-.12-.12-.28-.18-.45-.18h-.01l-26.74.38-4.43.5c.13.26.2.55.18.85l-1,21.17.14,9.87c0,.36.26.68.66.64l31.65-.45c.36,0,.65-.3.64-.66l-.45-31.65h0Z"/><path class="cls-1" d="M86.35,34.09l13.99.66h.25c.06.01.12.03.19.04l5.64-.64,12.39-1.4c.36-.04.62-.36.57-.72l-3.55-31.45c-.02-.17-.1-.33-.24-.44-.12-.09-.26-.14-.41-.14-.02,0-.05,0-.07,0l-31.27,3.53.24,10.53,2.26,20.03h0Z"/><path class="cls-1" d="M50.49,33.98l15.24-.66c.45-.02.91.14,1.25.46.14.13.26.29.35.46.1-.19.22-.37.39-.52.34-.31.78-.49,1.25-.45l14.37.68c.06-.1.11-.22.1-.35l-.45-19.46-.14-6.11-.11-4.65v-.64s-.03-.77-.03-.77c0-.35-.3-.64-.65-.64h-.01l-31.64.73s-.07.02-.11.02c.02.02.04.04.06.06.31.35.46.79.44,1.26l-.73,12.39.42,18.21h0Z"/><path class="cls-1" d="M47.9,34.1l1.08-18.33.39-6.66.34-5.78c.01-.17-.05-.34-.16-.47-.09-.1-.2-.15-.32-.19-.04-.01-.08-.03-.12-.03l-.41-.02L17.5.78h-.04c-.34,0-.63.27-.65.61l-1.86,31.6c-.02.36.25.67.61.69l4.29.25,12.4-.23h.03c.7,0,1.31.42,1.58,1.02.07-.01.15-.03.22-.03l13.8-.6h0Z"/><path class="cls-1" d="M100.94,36.02c-.07-.06-.14-.1-.22-.13-.06-.02-.11-.04-.18-.04h-.14s-.54-.03-.54-.03l-2.35-.11-3.42-.16-7.62-.36-.55-.03-.55-.03-1.6-.07-3.77-.18-7.74-.37-3.34-.16c-.22.01-.4.11-.53.25-.09.1-.15.22-.16.37v.18s-.03.55-.03.55l-.33,6.94,1.04,23.97c.01.26-.04.5-.13.73l30.19,1.43c.18,0,.34-.05.47-.17.13-.12.2-.28.21-.45l.49-10.39.42-8.86.42-8.86.17-3.5c0-.17-.05-.34-.17-.47-.01-.02-.04-.03-.05-.04h0Z"/><path class="cls-1" d="M67.05,48.66l-.26-6-.3-6.92-.02-.54v-.15c-.01-.15-.08-.28-.17-.39-.12-.14-.29-.24-.49-.24h-.03l-12.28.53-3.3.14-.6.03-.68.03-.56.02-.58.03-3.72.16-5.34.23-4.57.2s-.07.02-.11.03v.05l.4,21.79.45,10.44c0,.18.08.34.21.45.13.12.29.19.47.17l30.26-1.31.59-.03.78-.03c.08,0,.17-.03.24-.06.24-.11.4-.35.38-.62l-.52-11.99-.26-6h0Z"/><path class="cls-1" d="M32.96,35.79v-.36c0-.07-.03-.12-.05-.19h0c-.03-.1-.08-.2-.16-.27-.12-.12-.28-.18-.45-.18h-.01l-5.38.1-7.06.13-19.21.35c-.36,0-.65.3-.64.67l.58,31.65c0,.36.35.62.67.64l31.64-.58c.36,0,.65-.3.64-.66l-.17-9.37-.4-21.92h0Z"/><polygon class="cls-2" points="40.99 19.75 40.48 15.24 31.87 16.21 31.38 11.91 40.56 10.87 40.05 6.34 24.97 8.05 27.44 29.86 33.34 29.2 32.38 20.73 40.99 19.75"/><path class="cls-2" d="M68.04,6.8c-7.39-.7-10.97,4.49-11.51,10.18-.61,6.37,1.91,11.76,9.01,12.43,7.48.71,10.97-4.07,11.58-10.46.56-5.91-2.03-11.49-9.09-12.16ZM70.88,18.31c-.42,4.44-1.63,7.02-4.69,6.73-2.83-.27-3.79-3.29-3.39-7.48.39-4.06,1.73-6.64,4.63-6.36,3.17.3,3.82,3.26,3.46,7.12Z"/><path class="cls-2" d="M111.25,23.26l-.08-.67c-.29-2.51-1.18-4.27-3.55-4.88,1.78-.96,3.1-2.6,2.76-5.53-.4-3.46-3.31-5.68-8.09-5.12l-9.95,1.15,2.53,21.81,5.85-.68-.97-8.38,2.08-.24c2.32-.27,3.14.33,3.41,2.61l.07.62c.29,2.5.56,3.88.98,4.75l5.77-.67c-.3-1.04-.6-2.94-.81-4.76h0ZM101.78,16.38l-2.53.29-.57-4.89,2.91-.34c1.52-.18,2.74.35,2.94,2.06.21,1.85-.97,2.67-2.76,2.88Z"/><path class="cls-2" d="M17.22,44.87c1.94.14,2.48,1.31,2.56,2.69l5.71.41c.04-4.07-2.58-6.88-7.99-7.26-4.58-.33-8.34,1.69-8.65,6.1-.22,3.07,1.27,5.26,6.61,7.12,2.93,1.04,3.92,1.82,3.81,3.4-.09,1.2-.78,2-2.8,1.85-1.99-.14-2.95-1.31-3.06-3.1l-5.76-.41c-.07,4.39,2.92,7.33,8.33,7.71,5.8.42,9.1-2.11,9.4-6.28.24-3.32-1.21-5.63-6.86-7.69-2.87-1.04-3.81-1.5-3.72-2.86.08-1.17.94-1.8,2.42-1.69h0Z"/><path class="cls-2" d="M48.49,40.3l-8.7,21.07,5.89.7,1.63-4.28,6.11.73.69,4.56,6.25.75-3.78-22.56-8.08-.96h0ZM48.81,53.21c1.19-3.01,2.31-6.08,3.04-8.43h.09c.18,2.31.57,5.55,1.06,8.93l-4.18-.5Z"/><polygon class="cls-2" points="83.56 40.98 77.51 41.2 78.32 63.14 93.04 62.59 93.48 57.99 84.21 58.33 83.56 40.98"/><polygon class="cls-2" points="117.09 58.6 116.8 54.13 125.98 53.53 125.68 48.97 116.5 49.57 116.26 45.79 125.81 45.17 125.51 40.61 110.14 41.61 111.56 63.51 126.93 62.51 127.32 57.94 117.09 58.6"/></g></svg>