<?xml version="1.0" encoding="UTF-8"?>
<svg id="Calque_2" data-name="Calque 2" xmlns="http://www.w3.org/2000/svg" viewBox="0 0 531 114">
  <defs>
    <style>
      .cls-1 {
        fill: #fa7221;
      }

      .cls-1, .cls-2 {
        stroke-width: 0px;
      }

      .cls-2 {
        fill: #fff;
      }
    </style>
  </defs>
  <g id="Calque_1-2" data-name="Calque 1">
    <g>
      <rect class="cls-2" x="0" y="0" width="531" height="114" rx="57" ry="57"/>
      <polygon class="cls-1" points="83.5 76.91 59.88 93.35 68.21 65.8 45.28 48.42 74.05 47.83 83.5 20.65 92.95 47.83 121.72 48.42 98.79 65.8 107.12 93.35 83.5 76.91"/>
      <polygon class="cls-1" points="174.5 76.91 150.88 93.35 159.21 65.8 136.28 48.42 165.05 47.83 174.5 20.65 183.95 47.83 212.72 48.42 189.79 65.8 198.12 93.35 174.5 76.91"/>
      <polygon class="cls-1" points="265.5 76.91 241.88 93.35 250.21 65.8 227.28 48.42 256.05 47.83 265.5 20.65 274.95 47.83 303.72 48.42 280.79 65.8 289.12 93.35 265.5 76.91"/>
      <polygon class="cls-1" points="356.5 76.91 332.88 93.35 341.21 65.8 318.28 48.42 347.05 47.83 356.5 20.65 365.95 47.83 394.72 48.42 371.79 65.8 380.12 93.35 356.5 76.91"/>
      <polygon class="cls-1" points="447.5 76.91 423.88 93.35 432.21 65.8 409.28 48.42 438.05 47.83 447.5 20.65 456.95 47.83 485.72 48.42 462.79 65.8 471.12 93.35 447.5 76.91"/>
    </g>
  </g>
</svg>