<?xml version="1.0" encoding="utf-8"?>
<!DOCTYPE svg PUBLIC "-//W3C//DTD SVG 1.1//EN" "http://www.w3.org/Graphics/SVG/1.1/DTD/svg11.dtd">
<svg version="1.1" xmlns="http://www.w3.org/2000/svg" xmlns:xlink="http://www.w3.org/1999/xlink" xmlns:xml="http://www.w3.org/XML/1998/namespace" width="1000" height="431" viewBox="0, 0, 1659.74, 715.6299" id="Layer_2" data-name="Layer 2">
  <defs>
    <style>
      .cls-1 {
        fill: #231f20;
        stroke-width: 0px;
      }
    </style>
  </defs>
  <g id="Layer_1-2" data-name="Layer 1">
    <g>
      <path d="M317.82 9.33 c7.57 0.15 16.24 -2.92 22 -5.69 c4.02 -1.95 6.72 -3.46 6.35 -3.46 c-5.22 -0.13 -13.83 -0.19 -16.97 -0.19 c-13.77 0 -20.99 7.86 -20.99 8.42 c-0.19 0.41 1.76 0.66 4.78 0.76 c1.29 0.16 2.89 0.16 4.84 0.16" stroke-width="0px" class="cls-1" style="fill:#231F20;" />
      <path d="M169.5 128.83 c2.7 4.62 5.18 11 8.51 14.89 c4.81 5.85 14.58 15.68 28.41 13.32 c5.97 -0.97 6.06 -2.83 6.06 -2.83 c7.04 6.85 18.01 6.6 18.01 6.6 c-1.26 -4.37 -6.16 -12.82 -6.85 -18.1 c-0.69 -5.75 0.94 -11.12 0.94 -11.12 c2.04 -6.47 5.84 -14.55 10.09 -18.67 c3.68 -3.77 13.35 -7.89 20.96 -2.7 c6.16 4.4 13.39 18.54 7.38 38.68 c-0.38 1.42 -7.07 15.81 -14.2 17.91 c0 0 -0.69 0.25 -2.04 0.25 c-4.81 0 -13.86 -5.12 -13.86 -5.12 c0 0 -0.25 1.32 0.97 6.63 c0.79 2.86 2.04 6.13 2.83 8.74 c0 0 -1.89 3.08 -2.83 4.87 c-1.63 2.01 -3.39 8.95 0.41 11.85 c0 0 16.06 10.84 31.49 11.66 c10.68 0.6 14.71 -6.54 14.71 -6.54 c7.83 -10.75 13.83 -19.89 22.03 -27.43 c22.69 -20.74 54.42 -26.21 54.42 -26.21 c2.1 -0.22 36.83 -9.99 96.06 37.17 c-16.97 1.2 -37.11 5.37 -52.41 8.04 c-43.71 7.86 -71.83 48.77 -79.85 65.55 c-21.3 43.71 22.09 58.7 22.09 58.7 c0.32 -0.41 41.38 -3.58 61.18 -46.91 c0 0 7.29 -19.45 26.43 -13.2 c12.76 4.15 123.96 42.89 149.01 49.43 c0 0 74.54 19.3 102.72 -14.8 c44.65 14.71 86.73 21.75 196.9 7.6 c19.3 -2.61 34.25 -1.89 34.25 -1.89 c25.8 1.89 49.33 19.17 56.28 30.57 c29.1 46.1 65.8 137.92 193.57 126.86 l57.82 -5.22 c35.2 -2.08 63.76 -3.65 93.01 11.75 c12.6 6.6 19.7 8.99 41.07 29.41 c29.41 27.97 56.53 58.13 92.57 41.76 c12.79 -5.91 27.15 -28.62 27.15 -28.62 c-1.51 -10.27 -5.91 -20.46 -17.5 -28.91 c32.65 7.64 106.37 12.63 134.96 -37.08 c7.35 -11.63 8.14 -21.87 5.31 -28.16 c-7.86 -17.31 -29.48 -11.72 -29.48 -11.72 c-10.24 2.23 -21.77 13.86 -39.09 19.11 c-37.14 10.84 -67.06 -1.82 -67.06 -1.82 c-57.29 -24.86 -241.67 -129.81 -335.44 -175.85 c0 0 -108.82 -50.34 -266.85 -112.68 c0 0 -310.55 -131.91 -517.82 -121.23 c0 0 -110.48 3.02 -145.24 51.47 c0 0 -5.72 6.66 -2.58 14.05 c0 0 0.82 2.04 -0.66 3.39 c0 0 -18.48 16.62 -28.09 31.58 c-3.3 5.12 -6.44 13.89 -0.1 20.49 c0 0 2.99 2.48 4.34 4.46 M179.8 112.34 c11.06 -25.08 31.93 -28.62 34.69 -29.13 c2.95 -0.25 12.51 -1.7 12.51 -1.7 c26.58 -4.52 39.28 -32.18 39.28 -32.18 c-17.94 -0.25 -26.74 1.04 -26.74 1.04 c-17.56 3.11 -23.66 23.85 -23.66 23.66 c-14.83 3.58 -14.58 -9.4 -11.91 -13.2 c2.32 -3.64 11.09 -18.95 68.6 -32.24 c0 0 28.28 -8.49 88.9 -5.78 l-2.58 4.49 c-5.31 10.21 -26.55 31.05 -61.84 23.35 c0 0 0.44 15.59 38.49 20.99 c0 0 34.57 6.19 92.86 52.88 c0 0 -27.9 -55.27 -75.26 -69.57 c0 0 -5.94 -1.07 -3.08 -4.93 c0 0 29.29 -26.96 66.96 -28.12 c0 0 127.58 -12.32 198.37 84.91 c0 0 -21.34 -41.26 -37.52 -59.2 c0 0 74.03 20.9 188.1 60.4 c0 0 77.68 27.27 127.3 46.88 c67.24 26.27 235.11 91.47 342.42 149.8 c19.01 10.31 212.77 110.89 212.77 110.89 c53.61 24.07 90.81 9.65 90.81 9.65 c12.07 -4.68 33.81 -21.59 43.52 -12.01 c4.87 4.96 5.59 11.53 3.3 18.04 c-2.92 9.52 -16.72 22.37 -33.4 29.98 c-17.88 7.73 -54.52 9.8 -75.73 6.38 c-0.06 0 -41.26 -4.21 -77.17 -41.7 c-11.5 -11.78 -25.45 -25.23 -38.34 -38.55 c-5.69 -5.94 -19.73 -19.83 -42.96 -22.94 c-24.13 -3.33 -83.4 -4.87 -105.49 -12.19 c-14.93 -5.03 -32.87 -15.02 -56.63 -50.15 c-11.53 -16.94 -19.7 -21.49 -35.35 -31.42 c0 0 12 9.59 18.82 21.43 c9.71 17.47 14.89 30.17 20.18 39.34 c5.25 9.4 11.28 17.53 20.43 24.86 c11.19 9.17 18.32 10.75 30.51 12.79 c11.75 1.92 51.35 1.6 85.25 1.07 c33.4 -0.6 48.33 10.25 59.3 19.45 c10.15 8.52 27.53 32.99 38.3 43.56 c12.66 12.57 22.03 25.67 47.39 38.37 c8.67 4.37 23.03 15.15 22.31 25.67 c-11.37 11.18 -25.42 14.3 -59.14 5.31 c2.23 2.42 20.05 20.83 50.25 12.1 c-9.21 7.57 -18.2 10.75 -27.5 10.25 c-31.61 -1.7 -62.63 -40.6 -79.94 -54.83 c-13.33 -10.94 -14.83 -13.64 -37.24 -29.22 c-34.06 -23.41 -110.45 -16.81 -110.45 -16.81 l-56.28 2.99 c-109.32 8.14 -155.23 -88.39 -167.39 -108.6 c-4.12 -6.95 -7.86 -12.48 -11.5 -17.19 c-5.62 -7.38 -35.64 -45.88 -65.74 -58.73 c0 0 29.69 25.64 28.06 42.36 c0 0 -12.41 -5.53 -45.91 -0.82 c-143.82 20.33 -192.81 -15.49 -192.81 -15.49 c6.57 -28.97 -13.58 -58.32 -13.58 -58.32 c11.16 3.39 81.92 27.4 149.23 13.67 c0 0 -109.42 0.72 -186.12 -60.21 c0 0 47.67 59.55 36.32 98.58 c0 0 -7.83 41.48 -91.13 24.85 c-8.83 -1.76 -19.26 -4.74 -143.79 -39.25 c-29.35 -8.64 -39.37 5.28 -44.72 13.6 c-0.28 12.19 -14.8 26.62 -22.12 31.11 c-38.49 -6.91 -23.16 -42.52 -23.16 -42.52 c-24.23 34.47 0.94 49.84 9.05 50.81 c-4.68 2.55 -9.18 4.05 -13.07 5.47 c0 0 -31.64 -18.67 -13.92 -49.31 c24.57 -42.77 49.62 -56.5 95.46 -60.58 c20.02 -1.95 36.64 -3.3 49.37 -1.6 c33.31 4.46 54.27 23.25 103.88 28.22 c-105.52 -31.2 -105.83 -92.1 -106.15 -93.27 c0 -0.15 -0.1 -0.15 -0.1 -0.15 c-5.81 20.08 -2.67 36.92 2.58 51.41 c-1.51 -0.6 -24.67 -15.62 -33.53 -21.09 c-37.9 -23.06 -67.94 -26.99 -67.94 -26.99 c-12.44 -1.7 -18.48 -16.81 -18.48 -16.81 c-0.22 -0.82 -0.88 -1.57 -1.19 -2.23 c-17.44 -30.01 -35.01 -30.32 -35.01 -30.32 c9.96 13.01 10.18 31.89 10.18 31.89 c5.12 36.98 -36.96 48.42 -36.96 48.42 c-25.76 32.59 -24.51 33.28 -30.1 34.19 c-5.75 0.79 -18.42 -5.62 -18.42 -5.62 c-2.01 -3.02 0.91 -6.16 0.91 -6.16 c4.9 -3.84 8.77 -7.61 8.77 -7.61 c27.28 -27.84 30.54 -41.35 27.12 -59.26 c-6.79 -36.2 -32.81 -31.87 -32.81 -31.87 c-12.19 0.63 -17.66 11.37 -17.66 11.37 c-4.24 6.69 -13.42 27.18 -13.42 27.18 c-5.62 12.16 -11.5 14.8 -14.39 15.33 c-1.32 0.25 -3.55 0.13 -4.43 0.13 c-8.86 -0.31 -15.37 -8.26 -15.37 -8.26 c-0.44 -0.41 -0.91 -0.82 -1.07 -1.19 c-8.04 -8.49 -2.39 -19.77 -2.39 -19.77 M221.69 73.72 s1.04 -3.39 1.32 -4.21 c0.53 -0.66 3.61 -9.43 11.47 -10.25 c0 0 4.52 -0.34 11.6 -0.34 c0 0 -3.46 11 -17.06 13.42 c0 0 -5.22 1.38 -7.32 1.38" stroke-width="0px" class="cls-1" style="fill:#231F20;" />
      <path d="M195.96 687.32 c9.83 -10.06 14.67 -22.69 14.67 -43.18 v-64.23 h-49.21 v60.17 c0 17.41 -3.9 29.35 -12.54 37.83 c-11.31 11.18 -30.14 15.81 -57.98 15.81 H0 v17.63 h98.73 c46.82 0 79.81 -6.32 97.22 -24.04" stroke-width="0px" class="cls-1" style="fill:#231F20;" />
      <path d="M1289.86 683.39 l24.19 27.97 h55.15 l-114.51 -131.44 h-48.39 l-114.51 131.44 h28.47 l24.23 -27.97 h145.36 Z M1216.99 599.08 l58.2 67.21 h-116.17 l57.98 -67.21 Z" stroke-width="0px" class="cls-1" style="fill:#231F20;" />
      <path d="M455.26 711.36 h55.08 l-114.54 -131.44 h-48.46 l-114.38 131.44 h28.47 l24.01 -27.87 h145.71 l24.1 27.87 Z M300.25 666.42 l57.94 -67.34 l58.17 67.34 h-116.11 Z" stroke-width="0px" class="cls-1" style="fill:#231F20;" />
      <path d="M1628.79 655.05 c12.47 -6.69 18.25 -19.42 18.25 -32.61 c0 -17.57 -7.82 -28.79 -22.06 -34.97 c-12.85 -5.63 -28.63 -7.54 -59.96 -7.54 h-152.15 v131.44 h48.96 v-45.56 h64.42 l73.69 45.56 h59.8 l-77.08 -46.57 c18.19 -0.41 33.81 -3.3 46.13 -9.74 M1461.84 649.26 v-52.85 h96.75 c18.38 0 26.52 1.6 32.18 5.88 c5.37 4.05 7.17 10.02 7.17 19.58 v2.51 c0 8.42 -1.89 15.37 -8.33 19.77 c-6.19 4.21 -14.74 5.12 -30.42 5.12 h-97.35 Z" stroke-width="0px" class="cls-1" style="fill:#231F20;" />
      <path d="M827.12 579.92 v65.55 c0 16.91 1.76 30.32 10.34 41.35 c14.05 18.38 39.66 28.81 110.61 28.81 h0.88 c71.27 0 96.88 -10.43 110.73 -28.81 c8.61 -11.03 10.53 -24.45 10.53 -41.51 v-65.39 h-49.08 v63.63 c0 16.53 -2.23 27.03 -8.58 35.88 c-10.53 14.93 -27.34 20.33 -61.87 20.33 h-4.21 c-32.87 0 -51.16 -5.41 -61.93 -20.33 c-6.28 -8.86 -8.39 -18.85 -8.39 -35.88 v-63.63 h-49.02 Z" stroke-width="0px" class="cls-1" style="fill:#231F20;" />
      <path d="M645.31 597.32 h122.52 v-17.41 h-137.88 c-33.4 0 -53.36 3.8 -71.21 13.73 c-16.78 9.33 -29.98 26.68 -29.98 51.66 c0 26.55 12.07 46.04 38.62 56.53 c15.81 6.38 36.86 9.52 63.41 9.52 h142.19 v-60.39 h-48.96 v42.83 h-78.27 c-25.45 0 -40.19 -3.71 -51.06 -12 c-10.43 -7.83 -15.84 -19.92 -15.84 -36.26 s5.22 -27.34 14.77 -35.29 c11.06 -8.8 25.36 -12.92 51.69 -12.92" stroke-width="0px" class="cls-1" style="fill:#231F20;" />
    </g>
  </g>
</svg>