<?xml version="1.0" encoding="UTF-8"?><svg id="Calque_2" xmlns="http://www.w3.org/2000/svg" width="169.5" height="35.52" viewBox="0 0 169.5 35.52"><defs><style>.cls-1{fill:#1c1c1c;}.cls-1,.cls-2{stroke-width:0px;}.cls-2{fill:#fff;}</style></defs><g id="Layer_1"><path class="cls-1" d="M16.26,0h136.98c8.98,0,16.26,7.95,16.26,17.76h0c0,9.81-7.28,17.76-16.26,17.76H16.26C7.28,35.52,0,27.57,0,17.76h0C0,7.95,7.28,0,16.26,0Z"/><circle class="cls-2" cx="18.86" cy="17.76" r="11.65"/><path class="cls-1" d="M11.66,12.18h2.18c.84,0,1.15.35,1.25,1.02l.08.53h10.34c.6,0,.93.35.93.84,0,.09-.02.22-.03.31l-.44,3.04c-.16,1.1-.76,1.75-1.85,1.75h-8.1l.1.67c.03.24.17.4.4.4h7.49c.4,0,.76.29.76.74s-.36.74-.76.74h-7.69c-1.1,0-1.69-.66-1.85-1.74l-.97-6.62h-1.82c-.45,0-.83-.38-.83-.84s.39-.84.83-.84h0ZM16.87,23.13c.72,0,1.29.57,1.29,1.28s-.57,1.29-1.29,1.29-1.28-.57-1.28-1.29.58-1.28,1.28-1.28ZM22.89,23.13c.71,0,1.28.57,1.28,1.28s-.57,1.29-1.28,1.29-1.29-.57-1.29-1.29.58-1.28,1.29-1.28Z"/><path class="cls-2" d="M43.17,23.74v-.67c1.14-.16,1.14-.36.89-1.14-.18-.54-.47-1.36-.74-2.08h-3.53c-.2.56-.45,1.25-.63,1.81-.38,1.14.05,1.29,1.49,1.41v.67h-4.47v-.67c1.14-.14,1.43-.31,2.05-1.83l3.77-9.37.87-.16c1.16,3.15,2.39,6.38,3.57,9.4.67,1.68.83,1.81,2.01,1.96v.67h-5.25ZM41.58,15.08c-.52,1.31-1.03,2.52-1.49,3.84h2.88l-1.4-3.84h0Z"/><path class="cls-2" d="M54.64,11.97c2.32,0,4.02.49,5.18,1.57.92.85,1.63,2.12,1.63,3.95,0,2.08-.87,3.68-2.26,4.73-1.34,1.01-3.06,1.52-5.13,1.52h-4.98v-.67c1.38-.11,1.54-.27,1.54-1.78v-6.88c0-1.52-.2-1.67-1.54-1.78v-.67h5.56,0ZM53.14,21.17c0,1.29.33,1.72,1.65,1.72,2.45,0,3.86-1.7,3.86-5.13,0-1.72-.47-3.22-1.31-4-.76-.76-1.7-1.01-2.92-1.01-.67,0-.98.14-1.09.25-.16.16-.2.47-.2,1v7.17h0Z"/><path class="cls-2" d="M68.59,11.97c2.32,0,4.02.49,5.18,1.57.92.85,1.63,2.12,1.63,3.95,0,2.08-.87,3.68-2.26,4.73-1.34,1.01-3.06,1.52-5.13,1.52h-4.98v-.67c1.38-.11,1.54-.27,1.54-1.78v-6.88c0-1.52-.2-1.67-1.54-1.78v-.67h5.56,0ZM67.09,21.17c0,1.29.33,1.72,1.65,1.72,2.45,0,3.86-1.7,3.86-5.13,0-1.72-.47-3.22-1.3-4-.76-.76-1.7-1.01-2.92-1.01-.67,0-.98.14-1.09.25-.16.16-.2.47-.2,1v7.17h0Z"/><path class="cls-2" d="M90.83,15.1c-.2-.83-.6-1.52-.78-1.78-.33-.38-.47-.53-1.54-.53h-1.16v8.51c0,1.52.18,1.63,1.79,1.76v.67h-6.01v-.67c1.54-.13,1.7-.24,1.7-1.76v-8.51h-1.11c-1.01,0-1.31.16-1.65.6-.25.34-.51,1-.74,1.72h-.69c.13-1.32.25-2.74.29-3.61h.54c.27.42.49.45,1.03.45h7.25c.49,0,.74-.11,1.05-.45h.53c.02.76.09,2.36.18,3.53l-.69.05h0Z"/><path class="cls-2" d="M99.16,11.71c3.35,0,6.09,2.45,6.09,6.01,0,3.86-2.75,6.29-6.18,6.29-3.62,0-6.25-2.64-6.25-6.14,0-3.1,2.21-6.16,6.34-6.16ZM98.89,12.51c-1.85,0-3.21,1.81-3.21,5.02s1.21,5.69,3.66,5.69c1.72,0,3.06-1.67,3.06-4.98,0-3.59-1.41-5.72-3.51-5.72h0Z"/><path class="cls-2" d="M122.01,20.62c-.25.91-.73,2.28-1.01,2.92-.47.11-1.96.47-3.33.47-4.87,0-6.88-3.14-6.88-6.01,0-3.75,2.86-6.29,7.21-6.29,1.58,0,2.97.38,3.42.43.09.85.22,2.19.35,2.99l-.73.13c-.38-1.41-.92-2.08-1.88-2.46-.43-.18-1.09-.25-1.57-.25-2.63,0-3.95,2.19-3.95,5.04,0,3.32,1.7,5.56,4.18,5.56,1.52,0,2.54-.8,3.51-2.79l.69.27h0Z"/><path class="cls-2" d="M129.96,23.74v-.67c1.14-.16,1.14-.36.89-1.14-.18-.54-.47-1.36-.74-2.08h-3.53c-.2.56-.45,1.25-.63,1.81-.38,1.14.05,1.29,1.49,1.41v.67h-4.48v-.67c1.14-.14,1.43-.31,2.05-1.83l3.77-9.37.87-.16c1.16,3.15,2.39,6.38,3.57,9.4.67,1.68.83,1.81,2.01,1.96v.67h-5.25ZM128.37,15.08c-.53,1.31-1.03,2.52-1.49,3.84h2.88l-1.4-3.84h0Z"/><path class="cls-2" d="M147.26,23.85c-.11,0-.33,0-.54-.02-2.3-.11-2.97-.6-3.51-1.36-.73-1-1.25-2.1-1.87-3.19-.27-.49-.53-.6-1.1-.6l-.36-.02v2.64c0,1.47.18,1.59,1.54,1.76v.67h-5.54v-.67c1.38-.14,1.54-.29,1.54-1.76v-6.94c0-1.43-.18-1.63-1.54-1.74v-.67h5.25c1.61,0,2.54.18,3.28.69.73.49,1.21,1.29,1.21,2.41,0,1.61-1.07,2.46-2.26,2.93.27.54.98,1.72,1.52,2.55.63,1,1.03,1.49,1.38,1.88.42.47.62.62,1.14.8l-.13.61h0ZM140.36,17.92c.78,0,1.38-.13,1.77-.47.6-.51.85-1.2.85-2.12,0-1.92-1.1-2.61-2.12-2.61-.49,0-.73.07-.83.18-.13.11-.16.33-.16.69v4.33h.49,0Z"/><path class="cls-2" d="M157.5,15.1c-.2-.83-.6-1.52-.78-1.78-.33-.38-.47-.53-1.54-.53h-1.16v8.51c0,1.52.18,1.63,1.79,1.76v.67h-6.01v-.67c1.54-.13,1.7-.24,1.7-1.76v-8.51h-1.1c-1.01,0-1.3.16-1.65.6-.25.34-.51,1-.74,1.72h-.69c.13-1.32.25-2.74.29-3.61h.54c.27.42.49.45,1.03.45h7.25c.49,0,.74-.11,1.05-.45h.53c.02.76.09,2.36.18,3.53l-.69.05h0Z"/></g></svg>