<?xml version="1.0" encoding="UTF-8"?><svg id="Calque_2" xmlns="http://www.w3.org/2000/svg" width="171.88" height="34.92" viewBox="0 0 171.88 34.92"><defs><style>.cls-1{fill:#1c1c1c;}.cls-1,.cls-2{stroke-width:0px;}.cls-2{fill:#fff;}</style></defs><g id="Layer_1"><path class="cls-1" d="M15.98,0h139.92c8.83,0,15.98,7.82,15.98,17.46h0c0,9.64-7.15,17.46-15.98,17.46H15.98C7.15,34.92,0,27.1,0,17.46h0C0,7.82,7.15,0,15.98,0Z"/><circle class="cls-2" cx="18.54" cy="17.46" r="11.45"/><g id="RMf50D"><path class="cls-1" d="M13.44,20.1c-.31.08-.62.16-.93.23-1.17.27-2.27-.4-2.57-1.56-.29-1.13.39-2.29,1.53-2.6.62-.17,1.25-.3,1.87-.48.2-.06.4-.19.54-.34.98-1.01,1.89-2.09,2.92-3.03,1.03-.94,1.93-.85,2.94.13.68.65,1.13,1.45,1.45,2.32.5,1.35.75,2.74.52,4.19-.03.22-.08.44-.15.65-.44,1.45-1.21,1.96-2.67,1.6-1.2-.3-2.37-.72-3.53-1.15-.48-.18-.92-.27-1.4-.09-.17.06-.35.09-.53.13h0ZM16.8,17.21c.07.2.18.59.35.96.35.77.79,1.48,1.56,1.91.67.37,1.35.22,1.73-.44.22-.38.37-.82.44-1.25.2-1.28-.06-2.49-.61-3.65-.31-.65-.71-1.24-1.31-1.64-.78-.53-1.56-.33-2,.5-.12.22-.2.46-.26.7-.23.91-.15,1.82.11,2.92h0Z"/><path class="cls-1" d="M13.58,20.89c.32-.08.64.12.72.43.18.74.36,1.47.55,2.19,0,.01,0,.03,0,.04.01.43-.28.63-1.16.77-.37.06-.54-.14-.62-.46-.17-.7-.35-1.4-.52-2.11-.08-.32.11-.64.43-.72l.61-.15h0Z"/><path class="cls-1" d="M25,15.81c-.38.1-.76.2-1.14.28-.43.09-.8-.11-.93-.51-.13-.41,0-.84.42-.97.85-.26,1.72-.48,2.59-.65.44-.09.79.26.85.68.05.39-.19.75-.62.87-.39.11-.78.2-1.18.3Z"/><path class="cls-1" d="M26.02,19.04c.02.22-.14.53-.33.66-.21.15-.58.17-.81.07-.54-.24-1.05-.58-1.54-.91-.32-.22-.39-.67-.2-1.01.17-.32.6-.51.93-.34.58.3,1.13.65,1.68,1,.1.07.25.26.27.52h0Z"/><path class="cls-1" d="M24.08,11.31c-.01.13-.06.33-.16.53-.23.43-.49.84-.75,1.25-.27.43-.72.55-1.11.33-.39-.23-.5-.69-.26-1.13.25-.45.52-.89.79-1.33.19-.29.45-.44.81-.38.34.06.62.25.67.72h0Z"/><path class="cls-1" d="M18.21,18.21c-.47-.92-.69-1.86-.72-2.86.91-.25,1.75.19,1.96,1.01.21.83-.29,1.61-1.24,1.85Z"/></g><path class="cls-2" d="M47.78,20.05c-.24.85-.68,2.14-.95,2.73-.44.1-1.83.44-3.12.44-4.57,0-6.45-2.94-6.45-5.64,0-3.51,2.68-5.89,6.76-5.89,1.48,0,2.78.36,3.21.41.08.8.2,2.05.32,2.8l-.68.12c-.36-1.32-.87-1.95-1.77-2.31-.41-.17-1.02-.24-1.48-.24-2.46,0-3.7,2.05-3.7,4.72,0,3.11,1.6,5.21,3.92,5.21,1.43,0,2.38-.75,3.29-2.61l.65.25h0Z"/><path class="cls-2" d="M55.16,11.7c3.14,0,5.7,2.29,5.7,5.64,0,3.62-2.58,5.89-5.79,5.89-3.39,0-5.86-2.48-5.86-5.75,0-2.9,2.07-5.77,5.94-5.77h0ZM54.91,12.44c-1.73,0-3,1.7-3,4.7s1.14,5.33,3.43,5.33c1.61,0,2.87-1.56,2.87-4.67,0-3.36-1.32-5.36-3.29-5.37Z"/><path class="cls-2" d="M71.22,22.97v-.63c1.29-.14,1.38-.25,1.38-1.78l-.02-6.62c-1.22,2.92-2.56,6.15-3.79,9.03h-.56c-1.1-2.77-2.31-5.93-3.53-8.9-.22,5.33-.22,6.38-.22,7,.02.92.36,1.15,1.63,1.27v.63h-4.21v-.63c.97-.08,1.41-.27,1.54-1.29.07-.51.14-1.48.53-7.08.05-.82-.07-1.27-1.53-1.41v-.63h3.67l3.28,7.49,3.29-7.49h3.58v.63c-1.36.14-1.51.27-1.48,1.63l.14,6.37c.02,1.53.08,1.6,1.46,1.78v.63h-5.16Z"/><path class="cls-2" d="M77.63,22.97v-.63c1.29-.12,1.44-.22,1.44-1.65v-6.47c0-1.43-.17-1.56-1.44-1.66v-.63h5.25v.63c-1.27.12-1.44.24-1.44,1.66v6.47c0,1.41.15,1.51,1.44,1.65v.63h-5.25Z"/><path class="cls-2" d="M96.15,12.56c-1.04.14-1.36.36-1.41,1.12-.05.66-.1,1.24-.1,2.72v6.76h-.95l-7.08-8.49v3.84c0,1.48.03,2.14.08,2.63.07.75.42,1.14,1.68,1.21v.63h-4.21v-.63c.97-.08,1.39-.34,1.49-1.14.07-.61.1-1.22.1-2.7v-4.02c0-.56-.03-.93-.36-1.38-.31-.43-.71-.48-1.43-.54v-.63h3.31l6.47,7.52v-3.06c0-1.48-.02-2.04-.07-2.67-.05-.73-.32-1.09-1.73-1.17v-.63h4.19v.63h0Z"/><path class="cls-2" d="M108.66,18.32c-.97.17-1.09.24-1.09,1.39v1.31c0,.61.02,1.19.1,1.65-.87.15-2.73.56-4.11.56-3.99,0-6.28-2.43-6.28-5.79,0-3.82,3.11-5.74,6.72-5.74,1.38,0,2.87.34,3.43.39.03.75.17,2.04.29,2.97l-.66.12c-.41-1.44-1.04-2.17-2.09-2.53-.39-.14-1.02-.2-1.44-.2-2.05,0-3.6,1.78-3.6,4.7s1.05,5.35,3.84,5.35c.34,0,.78-.05,1.09-.24.25-.15.39-.44.39-.97v-1.49c0-1.19-.24-1.31-1.66-1.48v-.63h5.08v.63h0Z"/><path class="cls-2" d="M119.95,14.73c-.34-1.09-.82-2.33-2.38-2.33-.99,0-1.63.7-1.63,1.65s.63,1.49,2.12,2.24c1.82.9,2.97,1.78,2.97,3.46,0,2-1.66,3.46-4.09,3.46-1.09,0-2.05-.29-2.85-.53-.1-.39-.39-2.16-.51-2.95l.66-.15c.34,1.07,1.29,2.92,2.95,2.92,1.04,0,1.66-.64,1.66-1.73,0-.99-.61-1.56-2.04-2.33-1.76-.95-2.92-1.8-2.92-3.57s1.39-3.19,3.94-3.19c1.17,0,2.05.25,2.43.31.07.63.19,1.51.32,2.58l-.65.15h0Z"/><path class="cls-2" d="M128.35,11.7c3.14,0,5.7,2.29,5.7,5.64,0,3.62-2.58,5.89-5.79,5.89-3.4,0-5.86-2.48-5.86-5.75,0-2.9,2.07-5.77,5.94-5.77h0ZM128.1,12.44c-1.73,0-3.01,1.7-3.01,4.7s1.14,5.33,3.43,5.33c1.61,0,2.87-1.56,2.87-4.67,0-3.36-1.32-5.36-3.29-5.36h0Z"/><path class="cls-2" d="M141.76,11.7c3.14,0,5.71,2.29,5.71,5.64,0,3.62-2.58,5.89-5.79,5.89-3.4,0-5.86-2.48-5.86-5.75,0-2.9,2.07-5.77,5.94-5.77h0ZM141.51,12.44c-1.73,0-3.01,1.7-3.01,4.7s1.14,5.33,3.43,5.33c1.61,0,2.87-1.56,2.87-4.67,0-3.36-1.32-5.36-3.29-5.36h0Z"/><path class="cls-2" d="M160.77,12.56c-1.04.14-1.36.36-1.41,1.12-.05.66-.1,1.24-.1,2.72v6.76h-.95l-7.08-8.49v3.84c0,1.48.03,2.14.09,2.63.07.75.42,1.14,1.68,1.21v.63h-4.21v-.63c.97-.08,1.39-.34,1.49-1.14.07-.61.1-1.22.1-2.7v-4.02c0-.56-.03-.93-.36-1.38-.3-.43-.71-.48-1.43-.54v-.63h3.31l6.47,7.52v-3.06c0-1.48-.02-2.04-.07-2.67-.05-.73-.32-1.09-1.73-1.17v-.63h4.19v.63h0Z"/></g></svg>