<?xml version="1.0" encoding="UTF-8"?><svg width="192" height="52" id="Calque_2" xmlns="http://www.w3.org/2000/svg" viewBox="0 0 96 26.52"><defs><style>.cls-1,.cls-2{stroke-width:0px;}.cls-2{fill:#f57d56;}</style></defs><g id="_10_Bubble"><path class="cls-2" d="m94.65,13.75c-.14,7.16-6.64,10.63-12.84,10.34-7.06-.34-14.18-.13-21.24-.16-10.73-.02-21.45-.04-32.18-.16-3.91-.05-7.82-.11-11.74-.25-3.73-.13-7.92-.28-10.71-3.09-3.58-3.6-2.87-11.98.4-15.42,3.02-3.19,7.91-3.03,11.97-3.21,7.96-.36,15.95-.4,23.92-.4,14.54-.02,29.14-.04,43.67.73,3.56.28,6.9,1.39,8.21,5,.75,2.07.6,4.44.55,6.6Z"/><path class="cls-1" d="m95.54,7.82c-.94-4.8-5.24-6.54-9.66-6.89C64.39-.21,42.65-.23,21.15.48c-4.64.14-9.76-.11-13.9,2.28-1.3.75-2.27,1.72-3.02,2.84C-.26,9.12-.99,15.09,1.16,20.23c1.67,3.96,5.93,5.2,9.85,5.57,7.55.72,15.28.43,22.86.49,10.64.07,21.29.08,31.93.11,3.64.01,7.28.02,10.92.07,3.88.05,7.7.32,11.34-1.32,1.5-.69,2.72-1.88,3.67-3.21,1.36-.93,2.49-2.21,3.28-4.04,1.3-2.98,1.14-6.95.53-10.08Zm-13.73,16.27c-7.06-.34-14.18-.13-21.24-.16-10.73-.02-21.45-.04-32.18-.16-3.91-.05-7.82-.11-11.74-.25-3.73-.13-7.92-.28-10.71-3.09-3.58-3.6-2.87-11.98.4-15.42,3.02-3.19,7.91-3.03,11.97-3.21,7.96-.36,15.95-.4,23.92-.4,14.54-.02,29.14-.04,43.67.73,3.56.28,6.9,1.39,8.21,5,.75,2.07.6,4.44.55,6.6-.14,7.16-6.64,10.63-12.84,10.34Z"/></g></svg>
