<?xml version="1.0" encoding="UTF-8"?><svg id="Calque_2" xmlns="http://www.w3.org/2000/svg" width="108.79" height="94.22" viewBox="0 0 108.79 94.22"><defs><style>.cls-1{fill:#e62e2e;}.cls-1,.cls-2{stroke-width:0px;}.cls-2{fill:#fff;}</style></defs><g id="Layer_1"><path class="cls-1" d="M54.66,0L.27,31.1l-.27,62.66,108.52.46.27-62.66S54.66,0,54.66,0ZM54.46,25.76c-3.74,0-6.77-3.03-6.77-6.77s3.03-6.77,6.77-6.77,6.77,3.03,6.77,6.77-3.03,6.77-6.77,6.77Z"/><path class="cls-2" d="M23.76,39.28h13.24l-.82,3.83h-8.21l-.77,3.82h7.66l-.83,3.81h-7.66l-1.47,7.03h-5.06l3.92-18.49h0Z"/><path class="cls-2" d="M42.26,50.66l-1.49,7.11h-5.09l3.92-18.49h7.95c3.95,0,6.01,1.96,6.01,4.86,0,2.51-1.5,4.22-3.81,4.87.99.43,2.19,1.56,1.56,4.57-.41,1.93-.71,3.39-.62,4.19h-4.89c-.11-.79.04-2.1.51-4.36.38-1.75.2-2.75-1.63-2.75h-2.42ZM43.03,47.07h2.36c1.76,0,2.99-.7,2.99-2.36,0-1.11-.58-1.83-2.17-1.83h-2.3s-.88,4.19-.88,4.19Z"/><path class="cls-2" d="M68.39,50.2h-8.01l-.8,3.74h9.15l-1.37,3.83h-13.56l3.92-18.49h13.32l-.81,3.83h-8.34l-.69,3.26h8.01l-.83,3.83h0Z"/><path class="cls-2" d="M84.93,50.2h-8.01l-.8,3.74h9.15l-1.37,3.83h-13.56l3.92-18.49h13.32l-.81,3.83h-8.34l-.69,3.26h8.01l-.83,3.83h0Z"/><path class="cls-2" d="M13.06,65.17h4.45c3.41,0,5.39,2.01,5.39,5.19,0,3.53-2.11,7.06-7.22,7.06h-5.21s2.6-12.25,2.6-12.25ZM14.39,74.96h1.48c2.21,0,3.45-2.24,3.45-4.71,0-1.77-.75-2.63-2.23-2.63h-1.14l-1.56,7.33h0Z"/><path class="cls-2" d="M33.14,72.4h-5.3l-.53,2.48h6.06l-.91,2.53h-8.99l2.6-12.25h8.83l-.54,2.54h-5.52l-.46,2.16h5.3l-.55,2.54h0Z"/><path class="cls-2" d="M37.03,65.17h3.42l-2.05,9.71h5.57l-.9,2.54h-8.63l2.6-12.25h0Z"/><path class="cls-2" d="M50.76,65.17l-2.6,12.25h-3.42l2.6-12.25s3.42,0,3.42,0Z"/><path class="cls-2" d="M53.46,77.42l-1.49-12.25h3.39l.41,5.15c.14,1.67.19,3.33.19,4.18h.05c.49-1.27,1.08-2.47,1.94-4.16l2.63-5.18h3.58l-6.76,12.25h-3.95Z"/><path class="cls-2" d="M72.5,72.4h-5.3l-.53,2.48h6.06l-.91,2.53h-8.99l2.6-12.25h8.83l-.54,2.54h-5.52l-.46,2.16h5.3l-.55,2.54h0Z"/><path class="cls-2" d="M78.16,72.71l-.99,4.71h-3.37l2.6-12.25h5.26c2.62,0,3.98,1.3,3.98,3.22,0,1.67-.99,2.79-2.52,3.23.66.29,1.45,1.03,1.04,3.03-.27,1.28-.47,2.25-.41,2.78h-3.24c-.07-.53.02-1.39.34-2.89.25-1.16.13-1.82-1.08-1.82h-1.6ZM78.66,70.32h1.56c1.17,0,1.98-.46,1.98-1.56,0-.73-.39-1.21-1.43-1.21h-1.52s-.58,2.77-.58,2.77Z"/><path class="cls-2" d="M88.05,77.42l.92-4.36c.04-.16.04-.28-.02-.46l-2.49-7.42h3.54c.39,1.68.99,3.93,1.23,5.33.8-1.42,2.4-3.74,3.44-5.33h3.66l-5.76,7.64c-.09.11-.17.26-.21.46l-.87,4.15h-3.45Z"/></g></svg>