<?xml version="1.0" encoding="UTF-8"?><svg id="Calque_2" xmlns="http://www.w3.org/2000/svg" width="118.71" height="65.41" viewBox="0 0 118.71 65.41"><defs><style>.cls-1{fill:#e62e2e;stroke-width:0px;}</style></defs><g id="Layer_1"><path class="cls-1" d="M26.16,9.94c-.07-2.26-.53-4.78.79-6.7.91-1.33,2.58-1.94,4.15-1.78,5.97-1.23,16.46-.28,16.34,7.93-.04,2.5-1.19,4.38-2.89,5.79,3.71.99,6.6,3.21,6.58,7.7-.04,9.54-12.3,12.31-19.03,11.82-.17-.01-.36-.04-.54-.06-2.14.39-4.62-.67-4.67-3.2-.07-4.18-.24-8.37-.42-12.54-.13-2.98-.22-5.96-.31-8.95ZM34.7,4.22c.22,2.88.21,9.02.19,10.46.37-.04.76-.07,1.15-.1,2.95-.56,6-1.65,6.9-4.22,1.62-4.58-3.83-5.92-8.24-6.14h0ZM38.84,18.97c-1.35-.1-2.7-.01-4.04.14-.05,2.45-.05,4.9-.08,7.35,3.36.07,7.77-.49,8.19-3.9.46-3.77-3.85-3.58-4.07-3.59h0Z"/><path class="cls-1" d="M54.05,4.92c.47-3.62,6.54-3.61,7.3-.15,1.21,5.5-2.79,19.77,5.77,19.06,6.37-.53,2.07-12.75,1.89-16.85-.21-4.76,8.12-4.75,8.38,0,.3,5.53,2.23,18.69-7.51,21.64-18.89,5.72-17.08-13.93-15.82-23.7h0Z"/><path class="cls-1" d="M102.86,3.58c1.02,6.95-6.47,13.54-7.93,14.77.87,1.02-1.57,6.72-1.8,8.97-.24,2.28-.02,4.54-1.82,6.22-1.54,1.45-4.16,1.32-5.72-.07-1.81-1.61-1.95-3.62-1.46-5.81.49-2.16,2.79-8.23,2.84-8.44-1.8-1.15-7.32-8.03-6.36-12.59.85-3.97,6.04-3.18,7.3-.16.85,2.06,1.03,9.18,2.81,9.12,1.31-.38,3.81-9.82,4.32-11.8,1.3-5.1,7.12-4.91,7.81-.2h0Z"/><path class="cls-1" d="M39.32,56.84c.05,2.27.52,4.73-.77,6.68-1.61,2.43-5.6,2.36-7.23,0-.18-.26-.33-.54-.45-.84-3.14-6.34-6.03-12.84-8.9-19.34-.04,1.94-.07,3.89-.12,5.83-.1,4.17-.02,8.35-.22,12.52-.21,4.35-7.59,4.37-7.67,0-.08-4.18-.23-8.35-.41-12.52-.13-2.98-.22-5.95-.31-8.93-.07-2.25-.53-4.77.79-6.68,1.63-2.36,5.62-2.43,7.23,0,.36.54.58,1.14.72,1.77,2.86,6.17,5.82,12.29,8.65,18.49.06-1.97.12-3.94.21-5.91.18-4.17.33-2.97.41-7.14.08-4.39,7.46-4.35,7.67,0,.2,4.17.12,8.35.22,12.52.08,2.97.12.57.19,3.55h0Z"/><path class="cls-1" d="M61.03,63.38c-6.21,4.15-14.06,1.8-16.52-5.92-1.88-5.92-1-13.23.66-19.1.54-1.91,2.21-2.87,4-3.03,2.58-2.57,6.16-3.92,9.64-2.99,11.34,3.04,10.91,25.22,2.21,31.04h0ZM60.42,38.38c-1.49-2.27-4.63-4.09-5.88-.61-.02.07-.04.13-.06.2.32.74.39,1.61.11,2.62-1.31,4.62-2.19,10.35-.98,15.07.56,2.19,2.41,4.64,4.1,4.63,1.41-.01,3.26-2.83,3.94-4.68,1.86-5.12,1.8-12.59-1.23-17.22h0Z"/><path class="cls-1" d="M75.8,56.87c-2.43-3.99-7.42-18.57-6.5-22.97.77-3.67,5.96-3.98,6.9-.62,1.84,6.55,1.78,17.3,4.3,20.53.86-1.43,2.85-9.58,3.13-12.23.27-4.22,8.08-3.88,8.06,1.17.11,2.96,1.72,9.67,1.95,10.24,2.98-2.09,4.09-20.56,4.07-23.17-.04-4.77,7.22-4.79,7.31-.03.09,4.34-4.49,33.71-13.41,29.75-2.11-.93-3.05-3.61-3.85-5.76-.17-.44-.32-.89-.48-1.33-.16.32-.32.63-.47.96-.92,1.96-2.01,4.24-3.7,5.58-2.77,2.19-5.62.67-7.31-2.11h0Z"/><path class="cls-1" d="M116.82,42.45c-.68,3.05-1.2,6.14-1.96,9.17-1.05,4.21-8.19,2.7-7.52-1.63.48-3.09.92-6.2,1.32-9.31.41-3.11.18-12.89,2.54-15.12,2.07-1.95,5.91-1.2,7.09,1.53,1.3,3.03-.79,12.26-1.48,15.35h0ZM112.8,58.43l-.02.8c-.07.42-.23.78-.5,1.07-.22.35-.51.62-.88.79-.38.23-.79.35-1.21.37-.45.1-.91.09-1.36-.03-.6-.13-1.15-.38-1.65-.77-.2-.2-.4-.41-.6-.61-.34-.43-.55-.93-.63-1.49,0-.27.01-.54.02-.81.06-.42.23-.77.5-1.07.22-.35.51-.61.88-.79.38-.22.79-.35,1.21-.37.46-.1.91-.08,1.36.03.6.13,1.15.39,1.65.77.2.2.4.4.6.61.34.43.55.93.63,1.49h0Z"/><path class="cls-1" d="M19.43,17.31c-.32,2.17.05,4.58.09,6.46.05,2.61-3.83,3.04-4.19.46-.26-1.84-.54-3.68-.86-5.52-.31-1.84-2.22-6.85-1.11-9.06,1.05-2.09,3.89-2.85,5.5-.93,1.3,1.55.85,6.67.56,8.59h0Z"/><path class="cls-1" d="M8.41,21.79c.86,1.77,2.35,3.39,3.33,4.77,1.36,1.92-1.32,4-2.89,2.25-1.12-1.26-2.26-2.5-3.42-3.72C4.27,23.86.32,21,.03,18.84c-.27-2.03,1.46-3.89,3.62-3.19,1.75.56,4,4.58,4.76,6.14h0Z"/></g></svg>