<?xml version="1.0" encoding="UTF-8"?><svg width="384" height="100" id="Calque_2" xmlns="http://www.w3.org/2000/svg" viewBox="0 0 192 50"><defs><style>.cls-1{fill:#f20a94;opacity:0;}.cls-1,.cls-2{stroke-width:0px;}.cls-2{fill:#0d1f49;}</style></defs><g id="_06_Lines"><rect class="cls-1" width="191.65" height="50"/><g id="Calque_2-2"><g id="Line_10"><path class="cls-2" d="m76.51,23.57h-.95c-.76,0-1.43.67-1.43,1.43s.67,1.43,1.43,1.43h.95c.76,0,1.43-.67,1.43-1.43s-.67-1.43-1.43-1.43Z"/><path class="cls-2" d="m65.11,23.57h-.95c-.76,0-1.43.67-1.43,1.43s.67,1.43,1.43,1.43h.95c.76,0,1.43-.67,1.43-1.43s-.67-1.43-1.43-1.43Z"/><path class="cls-2" d="m70.81,23.57h-.95c-.76,0-1.43.67-1.43,1.43s.67,1.43,1.43,1.43h.95c.76,0,1.43-.67,1.43-1.43s-.67-1.43-1.43-1.43Z"/><path class="cls-2" d="m59.41,23.57h-.95c-.76,0-1.43.67-1.43,1.43s.67,1.43,1.43,1.43h.95c.76,0,1.43-.67,1.43-1.43s-.67-1.43-1.43-1.43Z"/><path class="cls-2" d="m93.62,23.57h-.95c-.76,0-1.43.67-1.43,1.43s.67,1.43,1.43,1.43h.95c.76,0,1.43-.67,1.43-1.43s-.67-1.43-1.43-1.43Z"/><path class="cls-2" d="m82.22,23.57h-.95c-.76,0-1.43.67-1.43,1.43s.67,1.43,1.43,1.43h.95c.76,0,1.43-.67,1.43-1.43s-.67-1.43-1.43-1.43Z"/><path class="cls-2" d="m87.92,23.57h-.95c-.76,0-1.43.67-1.43,1.43s.67,1.43,1.43,1.43h.95c.76,0,1.43-.67,1.43-1.43s-.67-1.43-1.43-1.43Z"/><path class="cls-2" d="m53.7,23.57h-.95c-.76,0-1.43.67-1.43,1.43s.67,1.43,1.43,1.43h.95c.76,0,1.43-.67,1.43-1.43s-.67-1.43-1.43-1.43Z"/><path class="cls-2" d="m48,23.57h-.95c-.76,0-1.43.67-1.43,1.43s.67,1.43,1.43,1.43h.95c.76,0,1.43-.67,1.43-1.43s-.67-1.43-1.43-1.43Z"/><path class="cls-2" d="m2.38,23.57h-.95c-.76,0-1.43.67-1.43,1.43s.67,1.43,1.43,1.43h.95c.76,0,1.43-.67,1.43-1.43s-.67-1.43-1.43-1.43Z"/><path class="cls-2" d="m13.78,23.57h-.95c-.76,0-1.43.67-1.43,1.43s.67,1.43,1.43,1.43h.95c.76,0,1.43-.67,1.43-1.43s-.67-1.43-1.43-1.43h0Z"/><path class="cls-2" d="m25.19,23.57h-.95c-.76,0-1.43.67-1.43,1.43s.67,1.43,1.43,1.43h.95c.76,0,1.43-.67,1.43-1.43s-.67-1.43-1.43-1.43Z"/><path class="cls-2" d="m8.08,23.57h-.95c-.76,0-1.43.67-1.43,1.43s.67,1.43,1.43,1.43h.95c.76,0,1.43-.67,1.43-1.43s-.67-1.43-1.43-1.43Z"/><path class="cls-2" d="m19.49,23.57h-.95c-.76,0-1.43.67-1.43,1.43s.67,1.43,1.43,1.43h.95c.76,0,1.43-.67,1.43-1.43s-.67-1.43-1.43-1.43Z"/><path class="cls-2" d="m30.89,23.57h-.95c-.76,0-1.43.67-1.43,1.43s.67,1.43,1.43,1.43h.95c.76,0,1.43-.67,1.43-1.43s-.67-1.43-1.43-1.43Z"/><path class="cls-2" d="m42.3,23.57h-.95c-.76,0-1.43.67-1.43,1.43s.67,1.43,1.43,1.43h.95c.76,0,1.43-.67,1.43-1.43s-.67-1.43-1.43-1.43Z"/><path class="cls-2" d="m36.59,23.57h-.95c-.76,0-1.43.67-1.43,1.43s.67,1.43,1.43,1.43h.95c.76,0,1.43-.67,1.43-1.43s-.67-1.43-1.43-1.43Z"/><path class="cls-2" d="m105.03,23.57h-.95c-.76,0-1.43.67-1.43,1.43s.67,1.43,1.43,1.43h.95c.76,0,1.43-.67,1.43-1.43s-.67-1.43-1.43-1.43Z"/><path class="cls-2" d="m167.76,23.57h-.95c-.76,0-1.43.67-1.43,1.43s.67,1.43,1.43,1.43h.95c.76,0,1.43-.67,1.43-1.43s-.67-1.43-1.43-1.43Z"/><path class="cls-2" d="m162.06,23.57h-.95c-.76,0-1.43.67-1.43,1.43s.67,1.43,1.43,1.43h.95c.76,0,1.43-.67,1.43-1.43s-.67-1.43-1.43-1.43Z"/><path class="cls-2" d="m156.36,23.57h-.95c-.76,0-1.43.67-1.43,1.43s.67,1.43,1.43,1.43h.95c.76,0,1.43-.67,1.43-1.43s-.67-1.43-1.43-1.43Z"/><path class="cls-2" d="m99.33,23.57h-.95c-.76,0-1.43.67-1.43,1.43s.67,1.43,1.43,1.43h.95c.76,0,1.43-.67,1.43-1.43s-.67-1.43-1.43-1.43Z"/><path class="cls-2" d="m173.47,23.57h-.95c-.76,0-1.43.67-1.43,1.43s.67,1.43,1.43,1.43h.95c.76,0,1.43-.67,1.43-1.43s-.67-1.43-1.43-1.43Z"/><path class="cls-2" d="m179.17,23.57h-.95c-.76,0-1.43.67-1.43,1.43s.67,1.43,1.43,1.43h.95c.76,0,1.43-.67,1.43-1.43s-.67-1.43-1.43-1.43Z"/><path class="cls-2" d="m190.57,23.57h-.95c-.76,0-1.43.67-1.43,1.43s.67,1.43,1.43,1.43h.95c.76,0,1.43-.67,1.43-1.43s-.67-1.43-1.43-1.43Z"/><path class="cls-2" d="m184.87,23.57h-.95c-.76,0-1.43.67-1.43,1.43s.67,1.43,1.43,1.43h.95c.76,0,1.43-.67,1.43-1.43s-.67-1.43-1.43-1.43Z"/><path class="cls-2" d="m150.65,23.57h-.95c-.76,0-1.43.67-1.43,1.43s.67,1.43,1.43,1.43h.95c.76,0,1.43-.67,1.43-1.43s-.67-1.43-1.43-1.43Z"/><path class="cls-2" d="m116.44,23.57h-.95c-.76,0-1.43.67-1.43,1.43s.67,1.43,1.43,1.43h.95c.76,0,1.43-.67,1.43-1.43s-.67-1.43-1.43-1.43Z"/><path class="cls-2" d="m122.14,23.57h-.95c-.76,0-1.43.67-1.43,1.43s.67,1.43,1.43,1.43h.95c.76,0,1.43-.67,1.43-1.43s-.67-1.43-1.43-1.43Z"/><path class="cls-2" d="m110.73,23.57h-.95c-.76,0-1.43.67-1.43,1.43s.67,1.43,1.43,1.43h.95c.76,0,1.43-.67,1.43-1.43s-.67-1.43-1.43-1.43Z"/><path class="cls-2" d="m133.54,23.57h-.95c-.76,0-1.43.67-1.43,1.43s.67,1.43,1.43,1.43h.95c.76,0,1.43-.67,1.43-1.43s-.67-1.43-1.43-1.43Z"/><path class="cls-2" d="m127.84,23.57h-.95c-.76,0-1.43.67-1.43,1.43s.67,1.43,1.43,1.43h.95c.76,0,1.43-.67,1.43-1.43s-.67-1.43-1.43-1.43Z"/><path class="cls-2" d="m139.25,23.57h-.95c-.76,0-1.43.67-1.43,1.43s.67,1.43,1.43,1.43h.95c.76,0,1.43-.67,1.43-1.43s-.67-1.43-1.43-1.43Z"/><path class="cls-2" d="m144.95,23.57h-.95c-.76,0-1.43.67-1.43,1.43s.67,1.43,1.43,1.43h.95c.76,0,1.43-.67,1.43-1.43s-.67-1.43-1.43-1.43Z"/></g></g></g></svg>
