<?xml version="1.0" encoding="UTF-8"?>
<svg id="Layer_2" data-name="Layer 2" xmlns="http://www.w3.org/2000/svg" width="204" height="204" viewBox="0 0 102.87 102.87">
  <defs>
    <style>
      .cls-1 {
        fill: #333;
        fill-rule: evenodd;
        stroke-width: 0px;
      }
    </style>
  </defs>
  <g id="Layer_1-2" data-name="Layer 1">
    <path class="cls-1" d="m102.87,51.34c0-14.15-5.8-27.03-15.05-36.28C78.38,5.8,65.68,0,51.35,0S24.31,5.8,15.06,15.06C5.81,24.31,0,37.19,0,51.34s5.81,27.03,15.06,36.47c9.26,9.26,22.14,15.07,36.29,15.07s27.03-5.81,36.47-15.07c9.25-9.43,15.05-22.13,15.05-36.47h0Zm-29.75,6.17l-21.23-21.23c-.37-.18-.73-.18-.91,0l-21.23,21.23c-.19.18-.19.55,0,.72l4.71,4.72,16.51-16.51c.18-.18.54-.18.91,0l16.51,16.51,4.72-4.72c.18-.18.18-.55,0-.72h0Z"/>
  </g>
</svg>
