<?xml version="1.0" encoding="UTF-8"?>
<svg xmlns="http://www.w3.org/2000/svg" viewBox="0 0 277.92 123.23">
  <defs>
    <style>
      .cls-1 {
        isolation: isolate;
      }

      .cls-2, .cls-3 {
        stroke-width: 0px;
      }

      .cls-4 {
        mix-blend-mode: overlay;
        opacity: .96;
      }

      .cls-5 {
        mix-blend-mode: multiply;
        opacity: .15;
      }

      .cls-3 {
        fill: #ffdb2b;
      }
    </style>
  </defs>
  <g class="cls-1">
    <g id="Calque_2" data-name="Calque 2">
      <g id="Calque_1-2" data-name="Calque 1">
        <g>
          <g>
            <g>
              <polygon class="cls-3" points="63.68 0 44.37 41.25 0 47.03 31.84 78.62 24.07 123.23 63.68 101.89 102.94 123.23 95.51 78.73 127.92 48.28 83.8 40.86 63.68 0"/>
              <g class="cls-4">
                <polygon class="cls-2" points="63.68 0 63.96 64.67 83.8 40.86 63.68 0"/>
                <polygon class="cls-2" points="63.96 64.67 127.92 48.28 95.51 78.73 63.96 64.67"/>
                <polygon class="cls-2" points="63.96 64.67 102.94 123.23 63.68 101.89 63.96 64.67"/>
                <polygon class="cls-2" points="63.96 64.67 63.68 101.89 24.07 123.23 63.96 64.67"/>
                <polygon class="cls-2" points="63.96 64.67 31.84 78.62 0 47.03 63.96 64.67"/>
              </g>
            </g>
            <polygon class="cls-3" points="63.68 0 44.37 41.25 0 47.03 31.84 78.62 24.07 123.23 63.68 101.89 102.94 123.23 95.51 78.73 127.92 48.28 83.8 40.86 63.68 0"/>
            <g class="cls-5">
              <polygon class="cls-2" points="63.68 0 63.96 64.67 83.8 40.86 63.68 0"/>
              <polygon class="cls-2" points="63.96 64.67 127.92 48.28 95.51 78.73 63.96 64.67"/>
              <polygon class="cls-2" points="63.96 64.67 102.94 123.23 63.68 101.89 63.96 64.67"/>
              <polygon class="cls-2" points="63.96 64.67 63.68 101.89 24.07 123.23 63.96 64.67"/>
              <polygon class="cls-2" points="63.96 64.67 31.84 78.62 0 47.03 63.96 64.67"/>
            </g>
          </g>
          <g>
            <g>
              <polygon class="cls-3" points="213.68 0 194.37 41.25 150 47.03 181.84 78.62 174.07 123.23 213.68 101.89 252.94 123.23 245.51 78.73 277.92 48.28 233.8 40.86 213.68 0"/>
              <g class="cls-4">
                <polygon class="cls-2" points="213.68 0 213.96 64.67 233.8 40.86 213.68 0"/>
                <polygon class="cls-2" points="213.96 64.67 277.92 48.28 245.51 78.73 213.96 64.67"/>
                <polygon class="cls-2" points="213.96 64.67 252.94 123.23 213.68 101.89 213.96 64.67"/>
                <polygon class="cls-2" points="213.96 64.67 213.68 101.89 174.07 123.23 213.96 64.67"/>
                <polygon class="cls-2" points="213.96 64.67 181.84 78.62 150 47.03 213.96 64.67"/>
              </g>
            </g>
            <polygon class="cls-3" points="213.68 0 194.37 41.25 150 47.03 181.84 78.62 174.07 123.23 213.68 101.89 252.94 123.23 245.51 78.73 277.92 48.28 233.8 40.86 213.68 0"/>
            <g class="cls-5">
              <polygon class="cls-2" points="213.68 0 213.96 64.67 233.8 40.86 213.68 0"/>
              <polygon class="cls-2" points="213.96 64.67 277.92 48.28 245.51 78.73 213.96 64.67"/>
              <polygon class="cls-2" points="213.96 64.67 252.94 123.23 213.68 101.89 213.96 64.67"/>
              <polygon class="cls-2" points="213.96 64.67 213.68 101.89 174.07 123.23 213.96 64.67"/>
              <polygon class="cls-2" points="213.96 64.67 181.84 78.62 150 47.03 213.96 64.67"/>
            </g>
          </g>
        </g>
      </g>
    </g>
  </g>
</svg>