<?xml version="1.0" encoding="UTF-8"?><svg id="Calque_2" xmlns="http://www.w3.org/2000/svg" width="155.6" height="49.44" viewBox="0 0 155.6 49.44"><defs><style>.cls-1{fill:#027cf5;}.cls-1,.cls-2,.cls-3{stroke-width:0px;}.cls-4,.cls-3{isolation:isolate;}.cls-2{fill:#fff;}.cls-3{fill:#000;mix-blend-mode:multiply;opacity:.5;}</style></defs><g id="Calque_1-2"><g class="cls-4"><g id="Layer_1"><path class="cls-1" d="M40.01,5.32C35.8,2,30.5,0,24.72,0,11.07,0,0,11.07,0,24.72s11.07,24.72,24.72,24.72c5.78,0,11.08-2,15.29-5.32,5.74-4.53,9.43-11.53,9.43-19.4s-3.69-14.87-9.43-19.4Z"/><path class="cls-1" d="M148.45,4.95H45.06c5.85,4.61,9.61,11.75,9.61,19.77s-3.76,15.16-9.61,19.77h103.39c3.95,0,7.15-3.2,7.15-7.15V12.1c0-3.95-3.2-7.15-7.15-7.15h0Z"/><polygon class="cls-2" points="65.12 17.85 68.16 17.85 68.49 16.28 65.45 16.28 65.84 14.44 69.2 14.44 69.55 12.79 64.07 12.79 62.35 20.86 64.48 20.86 65.12 17.85"/><path class="cls-2" d="M70.83,20.86l.6-2.82h1.12l.83,2.82h2.14l-.95-3.02c.42-.14.78-.36,1.07-.63.29-.28.51-.59.67-.95.15-.36.23-.73.23-1.12,0-.45-.1-.86-.3-1.21s-.5-.63-.89-.83-.86-.31-1.41-.31h-3.44l-1.72,8.07h2.06,0ZM72.22,14.34h1.15c.35,0,.62.08.81.25s.29.4.29.72c0,.25-.06.47-.18.67-.12.19-.29.35-.51.45s-.48.16-.77.16h-1.27s.49-2.25.49-2.25Z"/><polygon class="cls-2" points="81.93 20.86 82.28 19.21 78.81 19.21 79.16 17.56 82.42 17.56 82.74 16.05 79.48 16.05 79.82 14.44 83.29 14.44 83.64 12.79 78.12 12.79 76.4 20.86 81.93 20.86"/><polygon class="cls-2" points="88.59 20.86 88.94 19.21 85.46 19.21 85.82 17.56 89.08 17.56 89.4 16.05 86.13 16.05 86.48 14.44 89.95 14.44 90.3 12.79 84.78 12.79 83.06 20.86 88.59 20.86"/><path class="cls-2" d="M71.74,26.17c-.78-.39-1.68-.59-2.71-.59h-4.95l-2.73,12.83h6.06c1.01,0,1.94-.19,2.78-.58.83-.39,1.55-.93,2.16-1.63.6-.7,1.06-1.53,1.39-2.49s.48-2.01.48-3.16c0-1.05-.22-1.94-.65-2.69s-1.04-1.31-1.82-1.7h0ZM70.57,32.96c-.19.59-.46,1.1-.81,1.52-.35.42-.76.75-1.23.97-.47.23-1,.34-1.56.34h-1.77l1.61-7.6h1.48c.55,0,1.02.11,1.4.33.38.22.67.54.88.96.2.42.3.91.3,1.49,0,.74-.1,1.41-.29,2h0Z"/><polygon class="cls-2" points="79.88 28.2 85.4 28.2 85.96 25.58 77.18 25.58 74.45 38.41 83.24 38.41 83.79 35.78 78.27 35.78 78.83 33.16 84.02 33.16 84.53 30.76 79.34 30.76 79.88 28.2"/><polygon class="cls-2" points="91.03 25.58 87.76 25.58 85.04 38.41 93.75 38.41 94.32 35.71 88.88 35.71 91.03 25.58"/><polygon class="cls-2" points="95.14 38.41 98.4 38.41 101.13 25.58 97.87 25.58 95.14 38.41"/><polygon class="cls-2" points="110.87 25.58 106.43 35.01 106.37 35.01 105.86 25.58 102.28 25.58 103.75 38.41 107.74 38.41 114.56 25.58 110.87 25.58"/><polygon class="cls-2" points="118.41 28.2 123.93 28.2 124.5 25.58 115.71 25.58 112.98 38.41 121.78 38.41 122.32 35.78 116.8 35.78 117.36 33.16 122.56 33.16 123.06 30.76 117.87 30.76 118.41 28.2"/><path class="cls-2" d="M134.01,26.06c-.62-.32-1.36-.49-2.24-.49h-5.47l-2.73,12.83h3.27l.95-4.49h1.78l1.32,4.49h3.4l-1.51-4.81c.67-.23,1.24-.57,1.7-1,.46-.44.82-.94,1.06-1.51.24-.57.36-1.16.36-1.78,0-.72-.16-1.36-.48-1.92s-.79-1-1.41-1.32h0ZM132.33,30.64c-.19.31-.46.55-.81.72-.35.17-.76.26-1.23.26h-2.02l.77-3.57h1.82c.56,0,.99.13,1.29.39s.45.64.45,1.15c0,.4-.1.75-.28,1.06h0Z"/><polygon class="cls-2" points="145.35 25.58 141.71 30.93 141.65 30.93 140.18 25.58 136.8 25.58 139.43 33.98 138.5 38.41 141.77 38.41 142.69 34.03 148.91 25.58 145.35 25.58"/><path class="cls-3" d="M40.01,5.32C35.8,2,30.5,0,24.72,0,11.07,0,0,11.07,0,24.72s11.07,24.72,24.72,24.72c5.78,0,11.08-2,15.29-5.32,5.74-4.53,9.43-11.53,9.43-19.4s-3.69-14.87-9.43-19.4Z"/><path class="cls-2" d="M27.22,30.9c0,.21.02.43.05.64h-5.24c.04-.21.05-.42.05-.64,0-2.34-1.9-4.24-4.24-4.24s-4.24,1.91-4.24,4.24c0,.21,0,.41.04.61h-.42c-1.73,0-2.67-1.18-2.67-2.99v-10c0-1.93,1.08-3.02,3.02-3.02h12.22c1.93,0,3.02,1.09,3.02,3.02v9.14c-.99.73-1.59,1.92-1.59,3.24h0ZM14.81,30.9c0-1.68,1.36-3.04,3.04-3.04s3.04,1.36,3.04,3.04-1.36,3.05-3.04,3.05-3.04-1.37-3.04-3.05ZM28.41,30.9c0-1.68,1.37-3.05,3.05-3.05s3.04,1.37,3.04,3.05-1.36,3.05-3.04,3.05-3.05-1.37-3.05-3.05ZM32.56,18.48c1.04,0,1.74.26,2.36.96l3.16,3.58c.59.65.75,1.15.75,2.18v3.32c0,1.85-.99,3.03-2.78,3.03h-.4c.04-.22.05-.43.05-.64,0-2.34-1.92-4.24-4.26-4.24-.47,0-.91.09-1.31.25v-8.43h2.42ZM36.49,24.71c-.02-.21-.11-.34-.24-.5l-2.55-2.87c-.31-.36-.56-.45-.99-.45h-.64v2.87c0,.58.38.95.95.95h3.47Z"/></g></g></g></svg>