<?xml version="1.0" encoding="UTF-8"?><svg id="Calque_2" xmlns="http://www.w3.org/2000/svg" width="121.66" height="59.93" viewBox="0 0 121.66 59.93"><defs><style>.cls-1{fill:#e62e2e;stroke-width:0px;}</style></defs><g id="Layer_1"><path class="cls-1" d="M3.62,28.22c-.54-3.22-1.17-6.44-1.8-9.65-.45-2.28-.88-4.57-1.3-6.86-.32-1.75-.94-3.6-.07-5.26,1.11-2.12,4.64-2.71,6.31-.93,1.36,1.45,1.24,3.52,1.48,5.41.27,2.19.56,4.38.82,6.58.39,3.24.96,6.47,1.25,9.73.01.13.01.25,0,.37,2.76-.55,5.55-1.08,8.34-1.37,1.91-.21,2.22,2.03.36,2.41-3.74.77-7.58,1.21-11.38,1.69-1.73.39-3.71-.21-4.03-2.1h0Z"/><path class="cls-1" d="M21.1,20.19c-.23,1.37-1.38,2.38-3.11,2.65-.17.03-.35.06-.53.08-.6.1-1.15.04-1.73-.08-1.59-.34-3.03-1.22-3.11-2.65-.11-2.06-.97-14.23.26-17.69,1.29-3.61,8.93-2.69,9.43.83.51,3.57-.91,15.16-1.2,16.86Z"/><path class="cls-1" d="M44.16,8.86c-1.4,2.27-2.45,6.71-3.67,9.09-.42.82-1.34,1.12-2.15,1.02-.81.1-1.72-.2-2.14-1.02-1.21-2.38-2.26-4.82-3.67-7.09-.12-.19-.63-.78-1.16-1.39-.26,2.96.48,5.97.61,8.91.14,3.37.11,6.83-.51,10.15-.48,2.51-5.5,2.41-6.05,0-1.07-4.65-1.7-9.65-1.11-14.39.39-3.15.44-7.88,3.53-9.71,4.88-2.9,8.35,4.64,10.52,9.54,2.17-4.9,5.64-14.44,10.51-11.54,3.16,1.88,3.46,13.82,2.42,18.31-.56,2.41-5.54,2.5-6.05,0-.31-1.5-.48-1.85-.51-2.36-.15-2.93.86-7.93.61-10.88-.51.56-1,1.1-1.16,1.36h0Z"/><path class="cls-1" d="M63.08,24.09c-.23,1.37-1.39,2.38-3.11,2.65-.18.03-.35.06-.53.08-.6.1-1.15.04-1.73-.08-1.59-.34-3.03-1.22-3.11-2.65-.11-2.06-.97-15.13.26-18.59,1.29-3.61,8.93-2.69,9.43.83.51,3.57-.91,16.06-1.2,17.76h0Z"/><path class="cls-1" d="M63.83,0c6.02.25,12.09.4,18.08,1.03,1.91.2,1.72,2.5-.19,2.43-1.93-.07-3.87-.19-5.8-.32.06.22.09.45.08.7-.07,3.26-.5,13.43-.62,15.7-.09,1.82.16,3.89-1.08,5.35-1.59,1.88-5.03,1.54-6.34-.48-1.08-1.67-.44-3.93-.24-5.8.24-2.14,1.24-12.03,1.56-15.28.02-.25.09-.48.17-.7-1.93-.17-3.86-.34-5.79-.51-1.67-.15-1.5-2.19.16-2.12h0Z"/><path class="cls-1" d="M80.89,25.21c-1.6-2.46-1.63-5.9-.3-8.47.53-1.02,1.23-1.84,2.06-2.5-.68-.6-1.21-1.36-1.5-2.38-.8-2.87,1.31-6.17,3.66-7.63,4.5-2.81,12.43-.74,11.31,5.65-.18,1.01-1.92,1.16-2.19.13-.8-3.07-3.68-5.51-6.18-2.28-.93,1.2-1.37,2.64.07,3.42,1.31.71,2.89.89,4.23,1.59,3,1.55.94,5.13-1.93,4.88-2.65-.23-4.07,1.44-3.46,4.09.53,2.3,5.08,2.93,5.53.32.32-1.85,3.91-2.3,4.2-.24,1.08,7.56-12.06,8.68-15.49,3.43h0Z"/><path class="cls-1" d="M100.22,9.9c.24-1.69.19-3.64,1.5-4.89,1.2-1.14,3.28-1.16,4.68-.26,4-1.31,9.61.37,12.22,2.94,2.73,2.68,3.29,6.78,2.94,10.44-.41,4.21-2.36,8.35-5.98,10.71-4.41,2.87-9.87,2.21-14.5.25-1.67-.12-3.32-1.23-3.05-3.03.48-3.13.89-6.28,1.29-9.43.28-2.24.59-4.48.9-6.72h0ZM107.9,7.4c-.42,2.56-1.47,8.27-1.89,10.38-.39,1.96-.73,3.94-1.09,5.91,1.82.72,3.82,1.14,5.55,0,1.82-1.18,2.93-3.63,3.43-5.66.52-2.14.7-4.48.1-6.64-.32-1.17-.89-2.14-1.82-2.96-1.41-1.24-2.87-1.17-4.28-1.04Z"/><path class="cls-1" d="M15.05,35.02c5.93-1.06,11.89-2.22,17.88-2.89,1.91-.21,2.22,2.07.34,2.42-1.9.35-3.82.65-5.74.94.1.2.18.42.23.66.64,3.2,1.02,6.45,1.57,9.67.38,2.24.74,4.48,1.12,6.72.3,1.79.99,3.76.1,5.46-1.15,2.17-4.58,2.59-6.29.9-1.42-1.4-1.28-3.74-1.48-5.62-.23-2.14-.46-4.29-.66-6.43-.31-3.25-.63-6.51-1.02-9.75-.03-.25-.02-.49.02-.72-1.92.25-3.85.5-5.76.75-1.66.22-1.93-1.82-.3-2.11h0Z"/><path class="cls-1" d="M44.42,46.08c-.35,1.35-1.58,2.25-3.32,2.39-.18.01-.35.03-.53.04-.61.04-1.15-.05-1.72-.23-1.55-.47-2.92-1.46-2.88-2.9.06-2.07.21-16.5,1.73-19.85,1.58-3.5,9.12-1.94,9.32,1.61.21,3.6-2.17,17.27-2.6,18.95h0Z"/><path class="cls-1" d="M68.42,35.39c-1.4,2.27-2.45,4.71-3.67,7.09-.42.82-1.34,1.12-2.15,1.02-.81.1-1.72-.2-2.14-1.02-1.21-2.38-2.26-4.82-3.67-7.09-.12-.19-.63-.78-1.16-1.39-.26,2.96.48,5.97.61,8.91.14,3.37.11,6.83-.51,10.15-.48,2.51-5.5,2.41-6.05,0-1.07-4.65-1.7-9.65-1.11-14.39.39-3.15.44-7.88,3.53-9.71,4.88-2.9,8.35,4.64,10.52,9.54,2.17-4.9,5.64-12.44,10.51-9.54,3.16,1.88,3.22,6.91,3.58,10.13.52,4.6-.12,9.48-1.16,13.98-.56,2.41-5.58,2.51-6.05,0-.62-3.32-.65-6.78-.51-10.15.12-2.93.86-5.93.61-8.88-.51.56-1,1.1-1.16,1.36h0Z"/><path class="cls-1" d="M79.89,52.91c-1.65-2.26-1.84-5.54-.7-8.06.45-1,1.09-1.82,1.84-2.48-.68-.54-1.22-1.23-1.54-2.19-.9-2.7.94-5.94,3.11-7.45,4.16-2.89,11.81-1.31,11.05,4.83-.12.97-1.77,1.2-2.08.23-.91-2.89-3.77-5.07-6-1.87-.83,1.18-1.18,2.58.23,3.25,1.28.61,2.8.71,4.11,1.31,2.93,1.33,1.15,4.84-1.61,4.74-2.54-.09-3.81,1.57-3.1,4.06.61,2.16,4.98,2.54,5.29.04.22-1.77,3.61-2.38,3.99-.43,1.39,7.15-11.07,8.85-14.59,4.01h0Z"/><path class="cls-1" d="M43.7,53.15l-.03.99c-.08.52-.29.96-.62,1.32-.27.43-.63.76-1.09.98-.47.28-.97.43-1.49.46-.56.12-1.12.11-1.68-.04-.74-.16-1.42-.47-2.03-.95-.25-.25-.49-.5-.74-.75-.42-.53-.68-1.14-.78-1.83,0-.33.02-.66.03-1,.08-.52.29-.95.62-1.31.27-.43.63-.76,1.09-.98.47-.27.97-.43,1.49-.46.56-.12,1.12-.11,1.68.04.74.16,1.42.47,2.03.95.25.25.5.5.74.75.42.53.68,1.14.78,1.83Z"/><path class="cls-1" d="M100.09,49.25c-.26-2.18-1.26-4.41-1.8-6.21-.74-2.5,2.89-3.94,3.92-1.55.74,1.71,1.5,3.41,2.29,5.1.79,1.69,3.95,6.02,3.47,8.45-.46,2.29-2.99,3.78-5.06,2.35-1.66-1.15-2.59-6.21-2.82-8.14h0Z"/><path class="cls-1" d="M109.54,42.02c-1.29-1.48-3.17-2.65-4.47-3.72-1.82-1.49.21-4.21,2.19-2.93,1.41.92,2.85,1.81,4.29,2.68,1.44.88,6.01,2.59,6.86,4.6.8,1.89-.38,4.14-2.65,4.04-1.84-.08-5.07-3.36-6.21-4.66h0Z"/></g></svg>