<?xml version="1.0" encoding="utf-8"?>
<!DOCTYPE svg PUBLIC "-//W3C//DTD SVG 1.1//EN" "http://www.w3.org/Graphics/SVG/1.1/DTD/svg11.dtd">
<svg version="1.1" xmlns="http://www.w3.org/2000/svg" xmlns:xlink="http://www.w3.org/1999/xlink" xmlns:xml="http://www.w3.org/XML/1998/namespace" x="0" y="0" width="725" height="170" viewBox="22.632002, 41.04478, 118.9, 27.91045" id="katman_1" xml:space="preserve" style="enable-background:new 0 0 164 110;">
<metadata>

   
      
         -1
         2024-07-17T14:24:36+02:00
         xmp.iid:8f971f9e-2dad-4fcf-9f13-54a695b0c40c
         xmp.did:8f971f9e-2dad-4fcf-9f13-54a695b0c40c
         xmp.did:8f971f9e-2dad-4fcf-9f13-54a695b0c40c
         
            
               
                  
                     saved
                     xmp.iid:8f971f9e-2dad-4fcf-9f13-54a695b0c40c
                     2024-07-17T14:24:36+02:00
                     Adobe Bridge 2024
                     /metadata
                  
               
            
         
      
   

                                                                                                    
                                                                                                    
                                                                                                    
                                                                                                    
                                                                                                    
                                                                                                    
                                                                                                    
                                                                                                    
                                                                                                    
                                                                                                    
                                                                                                    
                                                                                                    
                                                                                                    
                                                                                                    
                                                                                                    
                                                                                                    
                                                                                                    
                                                                                                    
                                                                                                    
                                                                                                    
                           
</metadata>
<path d="M91.5 65.8 c0 0.2 0.1 0.3 0.2 0.3 s0.2 0 0.3 -0.1 l37 -24 c0.6 -0.4 1.4 -0.7 2.2 -0.7 h8.1 c1.1 -0.1 2 0.8 2.1 1.9 v15.7 c0 1.9 -0.4 3 -2.1 4 l-9.9 5.9 c-0.1 0.1 -0.2 0.1 -0.3 0.1 c-0.1 0 -0.2 -0.1 -0.2 -0.4 V50.4 c0 -0.2 -0.1 -0.3 -0.2 -0.3 c-0.1 0 -0.2 0 -0.3 0.1 l-27.1 17.6 c-0.6 0.4 -1.4 0.6 -2.1 0.6 h-18 c-1.1 0.1 -2 -0.8 -2.1 -1.9 V43.9 c0 -0.1 -0.1 -0.3 -0.2 -0.3 c-0.1 0 -0.2 0 -0.3 0.1 L60.9 54.5 c-0.1 0 -0.2 0.2 -0.2 0.3 c0 0.1 0.1 0.2 0.2 0.3 l12.8 12.8 c0.1 0.1 0.2 0.3 0.3 0.4 c0 0.2 -0.2 0.2 -0.4 0.2 H61.9 c-0.8 0.1 -1.5 -0.1 -2.1 -0.6 l-7.7 -7.7 C52 60 52 60 51.9 60 c-0.1 0 -0.2 0 -0.2 0.1 l-13 7.8 c-0.6 0.4 -1.4 0.6 -2.1 0.6 H24.8 c-1.1 0.1 -2 -0.8 -2.1 -1.9 V51.1 c-0.2 -1.6 0.6 -3.2 2.1 -4 l9.9 -5.9 c0 -0.2 0.1 -0.2 0.2 -0.2 c0.1 0 0.2 0.2 0.2 0.5 V62 c0 0.2 0.1 0.3 0.2 0.3 c0.1 0 0.2 -0.1 0.3 -0.1 l33.6 -20.3 c0.7 -0.4 1.4 -0.7 2.2 -0.6 h18 c1.1 -0.1 2 0.8 2.1 1.9 L91.5 65.8 L91.5 65.8 z" />
</svg>