<?xml version="1.0" encoding="UTF-8"?><svg id="Calque_2" xmlns="http://www.w3.org/2000/svg" width="157.88" height="87.63" viewBox="0 0 157.88 87.63"><defs><style>.cls-1{fill:#027cf5;}.cls-1,.cls-2,.cls-3{stroke-width:0px;}.cls-4,.cls-3{isolation:isolate;}.cls-2{fill:#fff;}.cls-3{fill:#000;mix-blend-mode:multiply;opacity:.5;}</style></defs><g id="Calque_1-2"><g class="cls-4"><g id="Layer_1"><path class="cls-1" d="M156,35.04c-2.66-4.8-5.17-9.69-8.05-14.36-1.21-1.95-3.02-3.65-4.86-5.07-3.56-2.74-7.8-3.51-12.21-3.48-3.02.02-6.04,0-9.04,0-.13-.48-.22-.72-.27-.96-1.09-6.41-5.2-10.22-11.67-10.62-4.56-.28-9.14-.49-13.71-.5C69.52,0,42.85,0,16.18,0c-3.42,0-5.74,2.17-5.73,5.29,0,3.14,2.27,5.2,5.77,5.23,3.29.02,6.58-.02,9.87.01,3.05.03,5.35,2.28,5.37,5.2.03,2.96-2.15,5.2-5.24,5.31-1.74.06-3.51-.11-5.24.06-1.18.12-2.46.43-3.46,1.04-1.9,1.17-2.61,3.59-1.97,5.71.66,2.18,2.5,3.62,4.94,3.73,2,.09,4.01-.01,6.01.08,2.28.11,3.86,1.32,4.64,3.46,1.31,3.56-1.29,7.01-5.36,7.04-6.42.05-12.85.12-19.27-.03-3.09-.07-5.27.95-6.52,3.8v3.08c1.42,2.9,3.78,3.79,6.92,3.72,6.37-.14,12.74-.06,19.12-.04,3.16.01,5.44,2.27,5.42,5.28-.02,2.92-2.3,5.16-5.35,5.22-1.95.04-3.91,0-5.86.01-3.44.01-5.77,2.14-5.77,5.25,0,3.13,2.3,5.25,5.75,5.26,6.01,0,12.03-.08,18.04.05,1.74.04,2.49-.52,3.07-2.11,2.38-6.49,7.12-10.57,13.62-12.57,9.15-2.81,17.95,1.86,20.1,10.59.41,1.66.45,3.42.67,5.16h31.09c.08-.26.14-.46.2-.65,2.69-8.93,8.58-14.29,17.82-15.74,8.16-1.29,15.55,4.04,17.11,12.17.2,1.04.26,2.11.39,3.22,2.98.07,5.39-1.02,7.38-3.04,2.71-2.75,4.31-6.14,5.06-9.87,1.02-5.08,1.8-10.21,2.78-15.3.72-3.73.3-7.25-1.55-10.58h0ZM144.46,41.11c-4.73.06-9.46.02-14.18.02-3.34,0-6.68,0-10.02,0-.55,0-1.1-.05-1.77-.08.92-7.27,1.82-14.39,2.76-21.8,4.25.18,8.47.11,12.62.62,3.33.4,6.01,2.39,7.78,5.3,2.1,3.46,4.12,6.98,6.05,10.54,1.5,2.77-.07,5.36-3.24,5.4h0Z"/><path class="cls-1" d="M59.27,64.4c-6.62,0-12.74,5.61-13.29,12.2-.52,6.21,3.88,10.99,10.11,10.99,6.18,0,11.79-4.7,13.1-10.99,1.36-6.58-3.2-12.2-9.91-12.2Z"/><path class="cls-1" d="M126.16,64.41c-6.94-.05-13.07,5.66-13.54,12.6-.36,5.26,3.37,9.85,8.54,10.52,7.56.98,14.91-5.5,14.9-13.15,0-5.7-4.2-9.93-9.9-9.97h0Z"/><path class="cls-1" d="M6.93,31.72c2.89,0,5.28-2.41,5.26-5.32-.02-2.93-2.37-5.22-5.34-5.19-2.87.03-5.16,2.32-5.19,5.19-.03,2.89,2.37,5.31,5.26,5.32Z"/><path class="cls-3" d="M59.27,64.4c-6.62,0-12.74,5.61-13.29,12.2-.52,6.21,3.88,10.99,10.11,10.99,6.18,0,11.79-4.7,13.1-10.99,1.36-6.58-3.2-12.2-9.91-12.2Z"/><path class="cls-3" d="M126.16,64.41c-6.94-.05-13.07,5.66-13.54,12.6-.36,5.26,3.37,9.85,8.54,10.52,7.56.98,14.91-5.5,14.9-13.15,0-5.7-4.2-9.93-9.9-9.97h0Z"/><path class="cls-2" d="M36.08,30.49l3.06-14.38h9.78l-.63,2.94h-5.98l-.7,3.28h5.42l-.6,2.8h-5.42l-1.14,5.36h-3.8,0Z"/><path class="cls-2" d="M50.6,16.11h6.13c.98,0,1.82.18,2.51.54.69.36,1.22.86,1.58,1.48s.54,1.34.54,2.15c0,.7-.14,1.36-.41,2-.27.64-.67,1.2-1.19,1.69-.52.49-1.15.87-1.9,1.12l1.69,5.39h-3.82l-1.48-5.03h.08-2.07l-1.07,5.03h-3.67s3.06-14.38,3.06-14.38ZM52.81,22.88h2.26c.53,0,.98-.1,1.37-.29.39-.19.69-.46.91-.81.21-.35.32-.74.32-1.19,0-.57-.17-.99-.51-1.29s-.82-.44-1.44-.44h-2.04l-.87,4.01h0Z"/><path class="cls-2" d="M71,30.49h-9.86l3.06-14.38h9.85l-.63,2.94h-6.19l-.61,2.87h5.82l-.57,2.69h-5.82l-.63,2.94h6.19l-.62,2.94h0Z"/><path class="cls-2" d="M82.87,30.49h-9.86l3.06-14.38h9.85l-.63,2.94h-6.19l-.61,2.87h5.82l-.57,2.69h-5.82l-.63,2.94h6.19l-.62,2.94h0Z"/><path class="cls-2" d="M42.96,35.68c.92,0,1.73.18,2.43.53.7.35,1.24.86,1.63,1.53s.58,1.46.58,2.4c0,1.03-.14,1.97-.43,2.83-.29.86-.7,1.6-1.24,2.23-.54.63-1.18,1.12-1.93,1.46-.75.35-1.58.52-2.48.52h-5.43l2.44-11.49h4.43,0ZM39.53,44.82h1.58c.51,0,.98-.1,1.4-.3.43-.2.79-.49,1.1-.87.31-.38.55-.83.72-1.36s.26-1.13.26-1.79c0-.51-.09-.96-.27-1.33-.18-.37-.44-.66-.78-.86-.34-.2-.76-.3-1.25-.3h-1.32l-1.44,6.81h0Z"/><path class="cls-2" d="M55.69,47.17h-7.87l2.44-11.49h7.87l-.5,2.35h-4.94l-.49,2.29h4.65l-.45,2.15h-4.65l-.5,2.35h4.94l-.49,2.35h0Z"/><path class="cls-2" d="M65.1,47.17h-7.8l2.44-11.49h2.92l-1.93,9.08h4.87s-.51,2.41-.51,2.41Z"/><path class="cls-2" d="M66.34,47.17l2.44-11.49h2.92l-2.44,11.49h-2.92Z"/><path class="cls-2" d="M74.05,47.17l-1.32-11.49h3.21l.45,8.45h.06l3.98-8.45h3.31l-6.11,11.49h-3.58Z"/><path class="cls-2" d="M90.19,47.17h-7.87l2.44-11.49h7.87l-.5,2.35h-4.94l-.49,2.29h4.65l-.45,2.15h-4.65l-.5,2.35h4.94l-.49,2.35h0Z"/><path class="cls-2" d="M94.24,35.68h4.9c.79,0,1.45.14,2.01.43.55.29.97.68,1.26,1.18s.43,1.07.43,1.72c0,.56-.11,1.09-.33,1.6-.22.51-.53.96-.95,1.35-.41.39-.92.69-1.52.9l1.35,4.31h-3.05l-1.18-4.02h.06-1.66l-.85,4.02h-2.93l2.44-11.49h0ZM96.01,41.08h1.81c.42,0,.79-.08,1.1-.23.31-.15.56-.37.72-.64.17-.28.25-.59.25-.95,0-.45-.14-.79-.41-1.03s-.66-.35-1.15-.35h-1.63s-.69,3.2-.69,3.2Z"/><path class="cls-2" d="M105.16,47.17l.84-3.96-2.36-7.52h3.03l1.32,4.79h.05l3.26-4.79h3.18l-5.57,7.57-.83,3.92h-2.93,0Z"/></g></g></g></svg>