<?xml version="1.0" encoding="utf-8"?>
<!DOCTYPE svg PUBLIC "-//W3C//DTD SVG 1.1//EN" "http://www.w3.org/Graphics/SVG/1.1/DTD/svg11.dtd">
<svg version="1.1" xmlns="http://www.w3.org/2000/svg" xmlns:xlink="http://www.w3.org/1999/xlink" xmlns:xml="http://www.w3.org/XML/1998/namespace" xmlns:dc="http://purl.org/dc/elements/1.1/" xmlns:cc="http://creativecommons.org/ns#" xmlns:rdf="http://www.w3.org/1999/02/22-rdf-syntax-ns#" xmlns:sodipodi="http://sodipodi.sourceforge.net/DTD/sodipodi-0.dtd" xmlns:inkscape="http://www.inkscape.org/namespaces/inkscape" width="999" height="318" viewBox="0, 0, 2672.8726, 851.1222" id="svg2" xml:space="preserve" sodipodi:docname="Saab_pms.svg" inkscape:version="0.92.4 (5da689c313, 2019-01-14)">
  <sodipodi:namedview id="namedview30" pagecolor="#ffffff" bordercolor="#666666" borderopacity="1" objecttolerance="10" gridtolerance="10" guidetolerance="10" inkscape:pageopacity="0" inkscape:pageshadow="2" inkscape:window-width="1920" inkscape:window-height="1001" showgrid="false" fit-margin-top="0" fit-margin-left="0" fit-margin-right="0" fit-margin-bottom="0" inkscape:zoom="0.29369224" inkscape:cx="1452.4493" inkscape:cy="471.51249" inkscape:window-x="-9" inkscape:window-y="-9" inkscape:window-maximized="1" inkscape:current-layer="svg2" />
  <metadata id="metadata8" />
  <defs id="defs6" />
  <g transform="matrix(9.429286, 0, 0, -9.429286, 0, 851.1223)" id="g10">
    <g transform="scale(0.1)" id="g12">
      <path d="m451.316 0 c249.258 0 451.329 202.059 451.329 451.309 c0 249.265 -202.071 451.328 -451.329 451.328 C202.059 902.637 0 700.574 0 451.309 C0 202.059 202.059 0 451.316 0" id="path14" fill-rule="nonzero" fill-opacity="1" inkscape:connector-curvature="0" style="fill:#898A8E;stroke:none;" />
      <path d="m451.316 884.023 c-238.972 0 -432.7027 -193.742 -432.7027 -432.714 c0 -238.957 193.7307 -432.684 432.7027 -432.684 c238.977 0 432.707 193.727 432.707 432.684 c0 238.972 -193.73 432.714 -432.707 432.714" id="path16" fill-rule="nonzero" fill-opacity="1" inkscape:connector-curvature="0" style="fill:#0F2752;stroke:none;" />
      <path d="m690.43 769.129 c-63.867 64.023 -148.789 99.277 -239.114 99.277 c-90.32 0 -175.23 -35.254 -239.109 -99.277 C148.34 705.117 113.176 620 113.176 529.465 c0 0 0.039 -160.676 0.066 -162.863 c0 -0.059 -0.012 -0.11 -0.012 -0.157 h0.012 c1.707 -88.019 36.688 -170.519 98.965 -232.941 c63.879 -64.0118 148.789 -99.2774 239.109 -99.2774 c90.325 0 175.247 35.2656 239.114 99.2774 c62.429 62.59 97.429 145.336 98.965 233.594 l0.07 162.367 c0 90.535 -35.18 175.652 -99.035 239.664 z M683.984 140.391 C621.836 78.1055 539.199 43.7891 451.309 43.7891 c-87.891 0 -170.539 34.3164 -232.676 96.6019 c-60.547 60.695 -94.59 140.859 -96.297 226.406 c1.324 23.808 5.23 47.098 11.531 69.59 c50.653 -130.254 176.172 -216.836 316.531 -216.836 c141.34 0 267.192 86.828 317.2 217.383 c6.629 -22.11 10.918 -44.961 12.715 -68.235 C779.055 282.441 744.98 201.523 683.984 140.391 Z M138.945 450.926 c16.864 50.851 46.297 96.945 86.438 134.32 c61.344 57.106 141.98 88.563 227.027 88.563 c83.051 0 162.766 -31.926 224.492 -89.903 c39.797 -37.394 69.336 -82.941 86.789 -132.754 C717.969 318.113 592.5 228.816 451.063 228.816 c-140.536 0 -265.77 89.223 -312.118 222.11 z m641.438 -26.922 c-15.676 62.598 -49.375 120.027 -97.934 165.633 c-63.406 59.574 -145.34 92.375 -230.691 92.375 c-87.363 0 -170.176 -32.317 -233.211 -91.008 C170.574 546.348 137.488 489.559 122.258 427.098 V529.16 c0 88.106 34.226 170.938 96.383 233.231 c62.14 62.297 144.789 96.613 232.675 96.613 c87.895 0 170.528 -34.316 232.676 -96.613 c62.16 -62.293 96.391 -145.125 96.391 -233.231 V424.004" id="path18" fill-rule="nonzero" fill-opacity="1" inkscape:connector-curvature="0" style="fill:#898A8E;stroke:none;" />
      <path d="m375.066 797.695 c17.739 4.5 42.883 6.621 42.883 6.621 l33.328 -68.359 l33.34 68.359 c0 0 22.774 -2.062 42.863 -6.621 l30.481 -89.269 l6.844 79.101 c22.468 -6.308 42.851 -15.058 67.547 -28.277 c22.199 -11.875 25.929 -25.316 24.218 -39.184 c-0.086 -0.222 -1.922 -14.062 -18.476 -8.125 c-0.36 0 28.742 -15.242 22.328 -43.757 c-2.395 -10.223 -12.602 -15.438 -28.039 -6.758 c-13.711 7.898 -29.074 16.133 -47.285 23.242 c-31.895 12.453 -55.223 16.457 -55.223 16.457 l-6.437 18.953 c-20.95 4.297 -44.532 5.731 -44.532 5.731 l-7.629 -16.758 c-11.148 0.48 -28.445 0.422 -40 0 l-7.617 16.758 c-20.469 -1.063 -44.527 -5.731 -44.527 -5.731 l-6.438 -18.953 c-10.586 -2.168 -21.113 -4.738 -33.664 -8.496 l1.867 5.848 c-20.527 -16.368 -38.222 -23.731 -38.222 -23.895 c-13.41 -6.535 -50.047 -25.09 -58.899 -7.141 c-2.781 4.161 -2.5 12.715 -2.5 12.715 c10.832 7.141 26.457 15.145 37.59 21.367 c0 0 -5.566 -22.589 17.258 -10.429 c8.113 3.953 16.543 9.699 20.387 18.281 c5.273 14.785 -10.918 11.883 -16.969 10.098 c-10.332 -3.039 -48.508 -16.016 -48.637 9.754 c-0.086 18.363 24.668 37.152 51.223 48.078 c39.766 16.375 53.476 1.445 52.402 -10.926 c-16.101 -4.484 -19.543 -5.766 -33.183 -10.305 c0.3 4.61 -3.125 11.465 -19.953 4.598 c-16.407 -8.055 -20.614 -14.461 -18.258 -21.395 c2.996 -9.308 28.668 0.606 35.086 1.981 c35.976 7.715 31.269 -16.582 31.218 -17.227 c0 0 25.45 73.664 25.625 73.664 z m10 -59.531 c7.032 1.484 19.622 3.359 30.969 4.402 c-0.058 -0.117 -17.148 37.493 -17.148 37.493 z m203.403 -32.492 c9.441 -3.59 25.484 -11.484 33.211 -15.887 c0 0 8.039 -5.988 11.98 -0.801 c3.098 6.094 0.844 12.071 -12.547 19.2 c-8.664 5.039 -25 12.078 -31.152 14.531 z m3.308 37.433 c0 0 13.789 -5.722 23.075 -10.078 c3.496 -1.648 5.539 -3.371 9.679 -3.632 c3.282 0.39 4.492 2.343 4.856 3.964 c1.051 9.149 -9.309 13.243 -12.844 15.059 c-10.156 5.086 -13.273 6.457 -23.367 10.633 c0 -0.242 -1.399 -15.946 -1.399 -15.946 z m-105.254 -0.539 c10.957 -1.015 17.793 -1.796 30.957 -4.402 c0.125 -0.031 -13.808 41.895 -13.808 41.895 l-17.149 -37.493" id="path20" fill-rule="nonzero" fill-opacity="1" inkscape:connector-curvature="0" style="fill:#917641;stroke:none;" />
      <path d="m285.969 458.367 c10.875 -4.988 19.722 -8.543 29.351 -7.176 c21.86 3.106 28.332 11.731 48.332 5.891 c9.102 -2.668 16.27 -10.168 16.27 -10.168 c0 0 -5.188 1.836 -10.82 2.176 c-21.321 1.262 -38.387 -15.117 -59.289 -9.766 c-18.817 4.805 -23.844 19.043 -23.844 19.043" id="path22" fill-rule="nonzero" fill-opacity="1" inkscape:connector-curvature="0" style="fill:#898A8E;stroke:none;" />
      <path d="m404.758 455.438 c-6.926 -5.965 -22.207 -38.7 -60.918 -20.293 c-1.125 -3.915 1.336 -16.532 7.461 -25.372 c5.269 -8.406 19.129 -11.96 29.051 -10.886 v0 c-11.946 -11.106 -4.063 -27.93 -2.93 -52.961 c6.766 13.762 18.879 19.707 18.879 19.707 c0 0 -12.317 -22.363 -12.375 -34.207 c-0.871 -18.836 18.535 -35.168 35.476 -60.047 c5.012 29.09 3.828 39.637 9.172 56.668 c4.512 -10.047 9.324 -59.715 7.664 -79.367 c29.16 23.371 62.68 23.976 47.903 85.558 c8.836 -11.086 17.254 -33.34 19.714 -46.34 l-0.007 0.024 c13.757 22.359 46.179 36.668 21.347 95.769 c13.543 -11.086 18.399 -30.175 23.809 -37.351 c3.965 28.336 20.105 71.629 -15.195 104.265 l0.203 0.196 c8.84 -2.871 20.011 -10.871 26.269 -20.071 c-0.191 25.411 16.028 39.993 -19.765 83.829 c6.64 10.957 11.359 23.898 13.351 37.089 c-13.523 -1.582 -29.504 -4.324 -41.183 -10.398 c-0.426 1.094 -3.036 5.871 -9.461 6.551 l-103.34 -0.02 c-7.141 0 -13.703 -9.597 -17.746 -28.074 c-0.313 0.184 -3.621 2.859 -8.125 4.582 c-12.559 4.801 -42.032 5.125 -50.684 -21.789 c-4.93 -12.625 -0.992 -34.738 -0.992 -34.738 c0 0 32.223 24.16 47.957 -3.883 m23.957 28.18 c-5.18 3.097 -8.859 12.765 -2.68 17.648 c4.414 3.496 17.207 -3.027 7.641 -13.242 c8.883 -5.125 14.117 3.32 14.43 6.367 l3.039 0.242 c-1.219 -6.238 -10.059 -19.156 -22.43 -11.015" id="path24" fill-rule="nonzero" fill-opacity="1" inkscape:connector-curvature="0" style="fill:#898A8E;stroke:none;" />
      <path d="m502.527 554.172 c3.496 0 6.25 -2.258 6.25 -2.258 l40.567 87.859 c-43.731 -0.019 -28.067 -29.058 -27.364 -30.75 c0.715 -1.687 -2.207 -0.89 -2.207 -0.89 c-2.703 2.582 -6.367 4.164 -10.398 4.164 c-8.34 0 -15.293 -6.692 -15.293 -15.051 c0 -8.328 6.953 -15.148 15.293 -15.148 c1.328 0 2.629 0.175 3.855 0.5 c0 0 -29.5 -28.055 -53.203 8.281 c-1.785 2.746 2.493 -3.25 9.336 -3.234 c8.34 0.039 15.09 6.769 15.09 15.109 c0 8.332 -6.75 15.086 -15.09 15.086 c-3.203 0 -6.187 -0.996 -8.621 -2.711 l0.012 0.23 c3.504 2.766 5.769 7.055 5.769 11.868 c0 8.347 -6.757 15.097 -15.105 15.097 l-0.207 0.067 c-8.34 0 -15.109 -6.766 -15.109 -15.094 c0 -4.817 2.265 -9.113 5.793 -11.887 l0.007 -0.226 c-2.449 1.711 -5.418 2.714 -8.64 2.714 c-8.332 0 -15.086 -6.746 -15.086 -15.097 c0 -8.336 6.754 -15.047 15.086 -15.086 c6.867 -0.039 11.133 5.965 9.336 3.23 c-23.692 -36.347 -53.203 -8.277 -53.203 -8.277 c1.242 -0.324 2.531 -0.5 3.859 -0.5 c8.34 0 15.094 6.75 15.094 15.098 c0 8.339 -6.754 15.086 -15.094 15.086 c-4.027 0 -7.688 -1.582 -10.395 -4.149 c0 0 -2.929 -0.812 -2.214 0.879 c0.722 1.688 16.375 30.731 -27.352 30.762 l40.555 -87.871 c0 0 2.754 2.199 6.25 2.199 c3.066 0 99.355 0 102.429 0" id="path26" fill-rule="nonzero" fill-opacity="1" inkscape:connector-curvature="0" style="fill:#917641;stroke:none;" />
      <path d="m551.016 455.184 c2.285 9.531 1.218 22.921 -19.356 45 c-6.555 -7.168 -13.789 -13.621 -21.144 -19.618 c2.578 -26.894 3.672 -68.191 -18.934 -89.734 c0 0 0.305 17.535 -9.578 36.57 c-0.996 -23.937 -11.789 -48.496 -33.535 -63.359 c0 0 3.699 16.621 1.25 45.984 c-3.547 -10.886 -12.168 -21.972 -25.278 -26.289 l-5.586 30.313 c0 0 10.833 7.707 10.864 8.019 c-0.031 -0.312 3.511 -17.234 3.511 -17.234 c11.504 10.879 2.395 28.316 13.313 32.215 c5.781 1.844 8.867 -2.52 10.703 -6.153 c5.09 -10.507 5.203 -19.48 5.383 -30.859 c6.812 15.984 7.078 31.738 4.629 49.746 c-0.774 6.16 2.144 9.395 5.789 10.438 c3.926 0.851 7.004 -1.344 9.609 -4.442 c6.797 -8.527 11.328 -19.726 14.004 -29.707 c4.465 15.176 4.981 36.758 -0.351 51.785 c-0.633 2.922 -1.59 6.106 -1.59 6.106 c15.711 13.332 30.117 28.926 38.394 48.625 c-21.98 -6.465 -50.816 -23.899 -50.816 -23.899 l-5.957 6.356 l22.793 17.754 c1.433 1.133 2.039 2.773 -2.055 2.883 l-84.156 -0.11 c-7.953 0.02 -15.863 -2.519 -15.942 -15.937 l10.5 -8.883 c0 0 12.942 4.812 25.293 -3.711 l-1.64 -7.18 c0 0 -5.418 3.711 -8.211 1.641 c-6.914 -17.863 -18.52 -20.418 -28.012 -16.922 c-10.476 4.336 -12.051 16.609 -13.699 23.191 c-18.059 10.457 -46.281 12.196 -48.406 -19.679 c19.293 8.761 38.992 -1.914 44.285 -12.715 l50.144 -14.5 c-17.089 -12.785 -40.097 -53.234 -68.3 -40.098 c19.582 -21.211 41.476 5.332 48.441 -5.793 c7.129 -11.855 -25.727 -14.871 -20.395 -44.98 c4.844 4.961 14.7 15.422 21.438 9.172 c3.887 -3.594 2.031 -8.672 0.754 -10.188 c-14.242 -30.176 -20.402 -44.062 2.871 -67.937 c4.922 36.804 6.98 46.785 16.727 47.136 c14.191 0.063 18.789 -61.851 19.523 -77.234 c28.25 18.332 32.566 21.609 23.543 66.766 c-1.867 8.07 -0.625 12.715 4.883 14.875 c5.937 2.207 11.004 -1.797 13.437 -5.676 c6.621 -10.293 13.469 -22.324 17.344 -34.578 c7.188 11.933 26.113 20.254 5.477 70.164 c-3.387 6.164 -2.774 11.449 1.847 14.316 c10.313 6.926 24.16 -10.261 29.055 -18.465 c-0.988 17.606 7.586 39.61 -19.984 67.567 c-4.454 5.402 -4.454 9.394 -0.75 13.086 c5.957 6.164 20.148 0.754 27.871 -3.828" id="path28" fill-rule="nonzero" fill-opacity="1" inkscape:connector-curvature="0" style="fill:#CE0F3E;stroke:none;" />
      <path d="m423.945 472.266 c14.832 2.91 12.266 -10.442 29.239 -13.711 c-14.2 -5.352 -20.672 11.386 -29.239 13.711 v0" id="path30" fill-rule="nonzero" fill-opacity="1" inkscape:connector-curvature="0" style="fill:#898A8E;stroke:none;" />
      <path d="m514.68 517.098 c-5.625 -8.953 -14.145 -16.676 -24.614 -19.098 c4.7 7.73 13.774 18.016 24.614 19.098" id="path32" fill-rule="nonzero" fill-opacity="1" inkscape:connector-curvature="0" style="fill:#898A8E;stroke:none;" />
      <path d="m211.941 269.188 c-3.23 2.785 -5.476 4.57 -8.867 8.527 l-0.066 14.09 c8.758 -9.098 18.133 -17.223 27.871 -24.461 l0.129 -13.68 c-3.442 2.547 -6.809 5.418 -10.141 8.102 v-84.032 c-2.773 2.235 -6.219 5.008 -8.926 7.325 v84.129" id="path34" fill-rule="nonzero" fill-opacity="1" inkscape:connector-curvature="0" style="fill:#898A8E;stroke:none;" />
      <path d="m237.91 262.004 c11.094 -8.332 16.778 -11.75 25.059 -16.566 l0.078 -13.395 c-5.496 3.211 -9.953 5.359 -16.184 9.988 l0.188 -25.851 c5.898 -3.875 10.652 -6.797 14.773 -9.215 l0.078 -11.36 c-5.015 2.95 -9.16 5.293 -14.773 9.219 l-0.031 -33.195 c5.558 -3.68 9.629 -6.207 17.297 -10.703 l0.078 -14.238 c-13.203 8.273 -14.793 9.289 -26.563 17.539 c0 0 0.012 97.777 0 97.777" id="path36" fill-rule="nonzero" fill-opacity="1" inkscape:connector-curvature="0" style="fill:#898A8E;stroke:none;" />
      <path d="m303.008 131.418 c-26.641 -14.484 -41.945 45.602 -28.836 91.531 c2.461 8.672 10.34 19.864 27.586 -0.058 l0.086 -12.344 c-13.707 19.66 -20.438 13.797 -21.016 -17.395 c-0.984 -55.418 11.809 -54.597 22.219 -47.636 l-0.039 -14.098" id="path38" fill-rule="nonzero" fill-opacity="1" inkscape:connector-curvature="0" style="fill:#898A8E;stroke:none;" />
      <path d="m311.418 220.781 c3.66 -1.691 5.23 -2.414 10.699 -4.324 v-42.894 c4.992 -1.739 10.141 -3.301 15.383 -4.442 l-0.031 42.09 c4.551 -1.789 6.679 -2.199 10.246 -3.156 l0.039 -98.016 c-3.555 0.957 -6.668 1.953 -10.188 3.027 l0.149 44.122 c-5.195 1.55 -10.481 3.234 -15.598 5.027 v-43.551 c-3.457 1.211 -6.961 2.801 -10.699 4.539 c0 0 0 97.567 0 97.578" id="path40" fill-rule="nonzero" fill-opacity="1" inkscape:connector-curvature="0" style="fill:#898A8E;stroke:none;" />
      <path d="m362.742 203.855 c3.957 -1.132 5.91 -1.531 9.184 -2.265 c5.777 -18.543 13.023 -46.082 18.875 -64.57 c0.086 -0.008 0.156 0.011 0.246 0 l0.094 61.035 c3.312 -0.68 7.011 -1.532 10.429 -1.922 V98.6797 c-3.023 0.3633 -5.007 0.793 -8.035 1.2226 c-5.832 18.6607 -14.219 44.1797 -19.98 62.8987 c-0.086 0.019 -0.176 -0.02 -0.262 0 l0.262 -59.043 c-3.36 0.656 -7.492 1.465 -10.813 2.219 c0 0 0.031 97.878 0 97.878" id="path42" fill-rule="nonzero" fill-opacity="1" inkscape:connector-curvature="0" style="fill:#898A8E;stroke:none;" />
      <path d="m473.602 193.973 c3.839 0.293 6.933 0.664 11.105 1.242 v-85.098 c8.047 0.332 16.063 1.688 23.508 2.91 l-0.11 -12.82 c-11.308 -1.8476 -23.242 -3.2929 -34.48 -4.1054 l-0.023 97.8714" id="path44" fill-rule="nonzero" fill-opacity="1" inkscape:connector-curvature="0" style="fill:#898A8E;stroke:none;" />
      <path d="m609.387 136.965 c-20.707 -26.078 -44.465 -13.852 -42.688 34.07 c1.184 31.543 16.024 60.145 42.117 53.828 l0.09 -13.047 c-35.488 15.997 -33.113 -52.402 -28.769 -66.757 c4.043 -13.34 12.414 -11.055 18.703 -6.817 l-0.188 29.094 c-2.422 -1.078 -5.039 -2.484 -7.5 -3.508 l0.098 11.711 c6.047 2.516 12.637 5.27 18.105 8.453 l0.032 -47.027" id="path46" fill-rule="nonzero" fill-opacity="1" inkscape:connector-curvature="0" style="fill:#898A8E;stroke:none;" />
      <path d="m621.395 236.551 c3.371 1.769 6.418 3.539 9.718 5.402 l0.34 -98.281 c-3.289 -1.848 -6.629 -3.664 -10 -5.442 c0 0 -0.058 98.313 -0.058 98.321" id="path48" fill-rule="nonzero" fill-opacity="1" inkscape:connector-curvature="0" style="fill:#898A8E;stroke:none;" />
      <path d="m644.707 249.754 c9.316 5.441 16.863 11.586 25.09 17.707 l-0.383 -13.633 c-5.254 -3.898 -10.109 -7.363 -15.605 -11.015 l0.086 -27.258 c5.8 3.351 9.179 5.703 14.582 10.019 l-0.149 -11.453 c-5.301 -4.18 -9.156 -6.984 -14.433 -10.156 l-0.133 -32.547 c6.629 4.273 11.441 7.84 16.953 11.961 l-0.051 -12.734 c-8.273 -6.817 -17.441 -13.79 -26.582 -19.446 l0.625 98.555" id="path50" fill-rule="nonzero" fill-opacity="1" inkscape:connector-curvature="0" style="fill:#898A8E;stroke:none;" />
      <path d="m678.105 191.492 c5.958 -4.129 16.145 7.043 13.02 20.715 c-3.449 15.047 -14.906 28.055 -13.402 46.297 c0.031 0.254 2.609 25.754 19.797 31.75 l0.07 -11.504 c-11.418 -2.121 -11.867 -15.086 -11.875 -15.637 c-0.11 -4.781 0.996 -8.105 1.328 -8.992 c2.664 -7.004 6.59 -14.68 9.48 -21.492 c12.403 -29.297 -3.82 -53.938 -18.347 -53.774 l-0.071 12.637" id="path52" fill-rule="nonzero" fill-opacity="1" inkscape:connector-curvature="0" style="fill:#898A8E;stroke:none;" />
      <path d="m459.68 144.363 c0 -27.996 -4.907 -50.8161 -23.032 -50.7107 c-16.328 0.0977 -23.023 22.7147 -23.023 50.7107 c0 28.012 6.695 50.727 23.023 50.727 c17.219 -0.012 23.032 -22.715 23.032 -50.727 z m-23.039 38.196 c-8.399 -0.051 -12.735 -17.813 -12.735 -38.664 c0 -20.829 4.336 -37.762 12.735 -37.723 c8.32 0.039 12.754 16.894 12.754 37.723 c0 20.851 -4.434 38.703 -12.754 38.664" id="path54" fill-rule="nonzero" fill-opacity="1" inkscape:connector-curvature="0" style="fill:#898A8E;stroke:none;" />
      <path d="m556.914 156.141 c0 -27.723 -4.902 -50.321 -23.035 -50.203 c-16.32 0.085 -23.031 22.48 -23.031 50.203 c0 27.726 6.711 50.214 23.031 50.214 c17.223 -0.015 23.035 -22.488 23.035 -50.214 z m-23.035 37.816 c-8.402 -0.051 -12.738 -17.641 -12.738 -38.285 c0 -20.613 4.336 -37.379 12.738 -37.34 c8.316 0.047 12.742 16.727 12.742 37.34 c0 20.644 -4.426 38.32 -12.742 38.285" id="path56" fill-rule="nonzero" fill-opacity="1" inkscape:connector-curvature="0" style="fill:#898A8E;stroke:none;" />
      <path d="m2765.16 466.758 v1.121 c28.58 10.644 49.33 43.156 49.33 80.707 c0 38.68 -16.83 98.629 -113.78 98.629 h-331.2 V298.359 l-150 348.856 H2056.43 L1927.8 350.965 L1800.41 647.215 H1637.34 L1504.12 340.422 c2.27 9.5 3.58 19.773 3.58 31.07 c0 70.606 -44.82 100.883 -119.36 113.77 c-39.22 6.718 -141.79 21.847 -175.4 27.461 c-20.19 3.363 -29.71 11.211 -29.71 24.652 c0 26.344 24.65 39.227 69.49 39.227 c61.09 0 82.93 -19.043 86.87 -46.512 h151.3 c-8.4 94.715 -95.82 129.469 -240.97 129.469 c-175.42 0 -207.93 -74.551 -207.93 -127.215 c0 -59.414 31.96 -100.879 114.34 -113.215 l133.39 -20.164 c46.5 -7.293 63.32 -14.57 63.32 -35.879 c0 -34.168 -36.43 -42.023 -70.06 -42.023 c-69.48 0 -86.3 19.054 -89.67 49.308 h-158.03 c7.85 -111.516 105.91 -135.625 241.54 -135.625 c43.91 0 165.14 0.809 212 70.43 l-25.23 -58.106 h142.92 l24.1 65.028 h174.85 l24.1 -65.028 h196.05 l24.1 65.028 h174.84 l24.1 -65.028 h440.86 c122.74 0 145.14 71.746 145.14 119.387 c0 56.598 -27.44 90.789 -69.49 100.301 z m-1103.18 -71.731 l55.49 151.321 h1.12 l55.49 -151.321 z m419.11 0 l55.47 151.321 h1.12 l55.5 -151.321 z m421.8 165.899 h132.82 c28.59 0 40.91 -15.711 40.91 -33.629 c0 -18.488 -12.32 -34.203 -40.91 -34.203 h-132.82 z m143.46 -227.539 h-143.46 v81.25 h143.46 c28.04 0 47.09 -13.446 47.09 -39.785 c0 -26.336 -19.05 -41.465 -47.09 -41.465" id="path58" fill-rule="nonzero" fill-opacity="1" inkscape:connector-curvature="0" style="fill:#0F2752;stroke:none;" />
    </g>
  </g>
</svg>