<?xml version="1.0" encoding="UTF-8"?><svg width="188" height="72" id="Calque_2" xmlns="http://www.w3.org/2000/svg" viewBox="0 0 94.09 37.27"><defs><style>.cls-1,.cls-2{stroke-width:0px;}.cls-2{fill:#3498db;}</style></defs><g id="_02_Bubble"><path class="cls-1" d="m94.06,8.09c.54,4.72-9.19,26.56-16.27,29.18l-.05-.08c.97-.56,1.75-1.38,2.43-2.17,4.11-4.75,14.06-21.76,13.78-26.93h.11Z"/><path class="cls-1" d="m8.55,26.33s-.02.06-.04.08c-.02.05-.04.1-.06.14.01-.05.03-.1.04-.15.01-.03.02-.06.02-.08.01.01.03.01.04.01Z"/><path class="cls-1" d="m8.64,25.92s.05.02.08.02c-.03.07-.06.13-.09.2-.02,0-.03-.01-.05-.02.01-.07.03-.13.06-.2Z"/><path class="cls-1" d="m10.8,21.8s-.01.02-.01.03c-.04,0-.08,0-.11-.01.01-.02.02-.03.03-.05l.09.03Z"/><path class="cls-1" d="m78.2,31.78c-2.84.75-64.46,2.43-66.84,1.12-.12-.06-.2-.18-.26-.36-.61-.07-1.04-.14-1.24-.23l-.06-.03c-.99-.66-.05-3.67.47-5.21-.49-.16-.96-.33-1.41-.52.02-.04.03-.07.04-.1-.02-.01-.04-.01-.06-.02-.02.03-.04.06-.05.09.02,0,.04.02.07.03-1.22,3.32-2.35,7.19-1.25,7.77,1.62.79,24.52,1.44,56.51,1.78v.08c-13.56.6-46.78.05-51.03-.25-1.35-.09-4.31-.4-5.6-.94-.66-.27-.98-.61-1.04-1.44-.08-1.59.9-4.39,1.99-6.97.01-.01.01-.02.01-.03.02-.04.04-.09.06-.14.02-.02.03-.05.04-.08-.01,0-.03,0-.04-.01-.27-.09-.54-.19-.8-.3-.01,0-.01,0-.02-.01-1.16-.45-2.24-1.04-3.37-1.89-.28-.21-.16-.12-.67-.56l-.17-.14c-1.88-1.86-2.46-3.04-3.48-5.33,1.92,1.12,3.15,1.78,6.34,2.43,1.35.29,2.77.39,4.15.4,3.2-7.61,8.37-16.28,11-17.47l.06.08c-3.02,1.57-6.62,10.22-9.96,17.37.41,0,.81-.02,1.21-.05,1.69-3.9,6.91-15.44,10.69-18.04,3.11-2.14,62.2-4.31,68.13-1.41.31.16.36.17.69.46.09.09.16.19.23.3.54.17.91.35,1.1.56,3.29,3.64-12.6,28.31-15.44,29.06Z"/><path class="cls-1" d="m8.9,26.45s-.02.06-.04.1c-.03-.01-.05-.02-.07-.03.01-.03.03-.06.05-.09.02.01.04.01.06.02Z"/><path class="cls-1" d="m8.55,26.33s-.02.06-.04.08t-.02,0c-.27-.12-.53-.25-.78-.38.26.11.53.21.8.3.01.01.03.01.04.01Z"/><path class="cls-1" d="m1.67,19.26c.05.03.1.06.15.09-.05,0-.1-.04-.14-.06,0-.01-.01-.02-.01-.03Z"/><path class="cls-1" d="m8.72,25.94c-.03.07-.06.13-.09.2-.02,0-.03-.01-.05-.02.01-.07.03-.13.06-.2.02.01.05.02.08.02Z"/><path class="cls-2" d="m92.39,2.12c-.04-.08-.09-.15-.14-.21-4.35-3.8-65.14-.19-68.29,1.32-3.71,2.45-9.29,13.97-10.96,17.83-.51.03-1.02.05-1.51.06-.37.01-.73.01-1.09,0-3.08-.03-5.88-.52-8.58-1.77-.05,0-.1-.04-.14-.06-.35-.16-.69-.33-1.04-.53.71,1.54,1.67,3.2,3.3,4.58.51.42.39.33.67.53.11.08.21.15.32.22,1.25.87,2.41,1.4,3.71,1.83.02.01.05.02.08.02.11.04.22.07.33.1.61.19,1.25.36,1.96.53-.07.23-.14.45-.2.66-1.51,4.96-.57,4.66-.09,4.75.09.01.19.03.31.04,7.53.84,64.48-.85,65.86-1.48.71-.44,1.75-1.65,2.25-2.25,5.56-6.73,15.32-22.61,13.25-26.17ZM10.71,21.77l.09.03s-.01.02-.01.03c-.04,0-.08,0-.11-.01.01-.02.02-.03.03-.05Z"/><path class="cls-2" d="m1.67,19.26c.05.03.1.06.15.09-.05,0-.1-.04-.14-.06,0-.01-.01-.02-.01-.03Z"/><path class="cls-2" d="m8.64,25.92s.05.02.08.02c-.03.07-.06.13-.09.2-.02,0-.03-.01-.05-.02.01-.07.03-.13.06-.2Z"/><path class="cls-2" d="m10.8,21.8s-.01.02-.01.03c-.04,0-.08,0-.11-.01.01-.02.02-.03.03-.05l.09.03Z"/><path class="cls-1" d="m8.64,25.92c-.03.07-.05.13-.06.2.02.01.03.02.05.02.03-.07.06-.13.09-.2-.03,0-.06-.01-.08-.02Zm-6.97-6.66s.01.02.01.03c.04.02.09.05.14.06-.05-.03-.1-.06-.15-.09Z"/><path class="cls-1" d="m8.9,26.45s-.02.06-.04.1c-.03-.01-.05-.02-.07-.03.01-.03.03-.06.05-.09.02.01.04.01.06.02Z"/><path class="cls-1" d="m10.8,21.8s-.01.02-.01.03c-.04,0-.08,0-.11-.01.01-.02.02-.03.03-.05l.09.03Z"/></g></svg>
