<?xml version="1.0" encoding="UTF-8"?><svg id="Calque_2" xmlns="http://www.w3.org/2000/svg" width="95.91" height="84.67" viewBox="0 0 95.91 84.67"><defs><style>.cls-1{fill:#000;}.cls-1,.cls-2{stroke-width:0px;}.cls-2{fill:#fff;}</style></defs><g id="Layer_1"><path class="cls-1" d="M95.84,78.16L84.47,4.78c-.43-2.75-2.8-4.78-5.58-4.78H17.02c-2.79,0-5.15,2.03-5.58,4.78L.07,78.16c-.53,3.42,2.12,6.51,5.58,6.51h84.61c3.46,0,6.11-3.09,5.58-6.51ZM47.96,28.42c-10.14,0-18.39-8.76-18.39-19.52,0-1.17.95-2.12,2.12-2.12s2.12.95,2.12,2.12c0,8.43,6.35,15.28,14.16,15.28s14.15-6.86,14.15-15.28c0-1.17.95-2.12,2.12-2.12s2.12.95,2.12,2.12c0,10.76-8.25,19.52-18.39,19.52h0Z"/><path class="cls-2" d="M33.14,49.48v-.6c1.23-.13,1.32-.24,1.32-1.7l-.02-6.33c-1.17,2.79-2.45,5.87-3.62,8.63h-.54c-1.05-2.64-2.21-5.66-3.38-8.5-.21,5.1-.21,6.1-.21,6.69.02.88.34,1.1,1.56,1.22v.6h-4.02v-.6c.93-.08,1.35-.26,1.48-1.23.07-.49.13-1.41.5-6.77.05-.78-.07-1.22-1.46-1.35v-.6h3.5l3.13,7.16,3.15-7.16h3.42v.6c-1.3.13-1.44.26-1.41,1.56l.13,6.09c.02,1.46.08,1.53,1.4,1.7v.6h-4.93,0Z"/><path class="cls-2" d="M48.18,46.72c-.08.44-.54,2.3-.68,2.76h-8.42v-.58c1.48-.15,1.57-.23,1.57-1.59v-6.2c0-1.38-.19-1.48-1.3-1.57v-.6h5.27c1.7,0,2.27-.02,2.5-.03.02.29.1,1.62.16,2.63l-.63.08c-.15-.55-.42-1.22-.7-1.51-.29-.32-.5-.42-1.33-.42h-1.06c-.62,0-.68.03-.68.58v3.39h1.59c.91,0,1.07-.24,1.31-1.4h.63v3.62h-.63c-.26-1.2-.39-1.4-1.33-1.4h-1.57v2.79c0,1.12.03,1.46,1.04,1.48h1.15c.91,0,1.15-.11,1.51-.55.41-.47.73-1.07.99-1.62l.6.15h0Z"/><path class="cls-2" d="M60.21,45.04c-.93.16-1.04.23-1.04,1.33v1.25c0,.58.02,1.14.1,1.57-.83.15-2.61.54-3.93.54-3.81,0-6-2.32-6-5.53,0-3.65,2.97-5.48,6.43-5.48,1.31,0,2.74.32,3.28.37.03.71.16,1.95.28,2.84l-.63.11c-.39-1.38-.99-2.08-2-2.42-.37-.13-.97-.19-1.38-.19-1.96,0-3.44,1.7-3.44,4.5s1.01,5.11,3.67,5.11c.32,0,.75-.05,1.04-.23.24-.15.37-.42.37-.93v-1.43c0-1.14-.23-1.25-1.59-1.41v-.6h4.85v.6h0Z"/><path class="cls-2" d="M66.97,49.48v-.6c1.02-.14,1.02-.32.79-1.02-.16-.49-.42-1.22-.67-1.87h-3.16c-.18.5-.41,1.12-.57,1.62-.34,1.02.05,1.15,1.33,1.26v.6h-4.01v-.6c1.02-.13,1.28-.28,1.83-1.64l3.38-8.39.78-.14c1.04,2.82,2.14,5.71,3.2,8.42.6,1.51.75,1.62,1.8,1.75v.6h-4.71,0ZM65.54,41.73c-.47,1.17-.93,2.25-1.33,3.44h2.58l-1.25-3.44h0Z"/><path class="cls-2" d="M28.3,59.56c-.51-1.64-1.23-3.5-3.58-3.5-1.48,0-2.46,1.05-2.46,2.48s.94,2.25,3.2,3.38c2.74,1.36,4.47,2.69,4.47,5.22,0,3.02-2.5,5.22-6.16,5.22-1.64,0-3.1-.44-4.3-.79-.15-.59-.59-3.25-.77-4.45l1-.23c.51,1.61,1.94,4.4,4.45,4.4,1.56,0,2.5-.97,2.5-2.61,0-1.48-.92-2.35-3.07-3.5-2.66-1.43-4.4-2.71-4.4-5.37s2.1-4.81,5.93-4.81c1.76,0,3.09.38,3.66.46.1.95.28,2.28.49,3.89l-.97.23h0Z"/><path class="cls-2" d="M40.07,71.97v-.95c1.61-.23,1.61-.51,1.25-1.61-.26-.77-.67-1.92-1.05-2.94h-4.99c-.28.79-.64,1.76-.89,2.56-.54,1.61.08,1.82,2.1,1.99v.95h-6.32v-.95c1.61-.2,2.02-.43,2.89-2.58l5.32-13.22,1.23-.23c1.64,4.45,3.38,9,5.04,13.27.94,2.38,1.18,2.56,2.84,2.76v.95h-7.42ZM37.81,59.74c-.74,1.84-1.46,3.55-2.1,5.42h4.07l-1.97-5.42Z"/><path class="cls-2" d="M61.96,67.46c-.2,1.1-.92,3.81-1.15,4.5h-12.68v-.95c2.25-.15,2.46-.33,2.46-2.48v-9.74c0-2.15-.26-2.35-2.18-2.51v-.94h7.98v.94c-1.99.18-2.25.36-2.25,2.51v9.92c0,1.41.05,2.05,1.46,2.07.05.02,1.23.02,1.33.02,1.46,0,1.84-.31,2.46-1,.48-.51,1.15-1.61,1.61-2.66l.97.31h0Z"/><path class="cls-2" d="M77.2,67.62c-.13.69-.84,3.63-1.07,4.35h-13.27v-.92c2.33-.23,2.48-.36,2.48-2.51v-9.77c0-2.18-.31-2.33-2.05-2.48v-.94h8.31c2.68,0,3.58-.03,3.94-.05.03.46.15,2.56.26,4.14l-1,.13c-.23-.87-.67-1.92-1.1-2.38-.46-.51-.79-.67-2.1-.67h-1.66c-.97,0-1.07.05-1.07.92v5.35h2.51c1.43,0,1.69-.38,2.07-2.2h1v5.7h-1c-.41-1.89-.61-2.2-2.1-2.2h-2.48v4.4c0,1.77.05,2.3,1.64,2.33h1.82c1.43,0,1.82-.18,2.38-.87.64-.74,1.15-1.69,1.56-2.56l.95.23h0Z"/></g></svg>