<?xml version="1.0" encoding="UTF-8"?><svg id="Calque_2" xmlns="http://www.w3.org/2000/svg" width="107" height="62.69" viewBox="0 0 107 62.69"><defs><style>.cls-1{fill:#e62e2e;}.cls-1,.cls-2{stroke-width:0px;}.cls-2{fill:#fff;}</style></defs><g id="Layer_1"><path class="cls-1" d="M106.19,33.52c-.04-.08-.08-.16-.12-.24-2.11-4.01-6.89-4.77-11.99-4.85.32-.65.65-1.37,1-2.2.44-1.08.77-1.97,1.01-2.63l.53-1.44c.04-.11.07-.22.11-.33,1.01-3.4,2.52-6.87,3.98-10.23.01-.03.03-.06.04-.09l.19-.45c.31-.74.45-1.54.41-2.34.05-.33.09-.73.09-1.22,0-3.25-2.09-6.04-5.31-7.12l-.2-.07c-.71-.24-1.47-.33-2.21-.26l-.22.02c-2.28.21-4.27,1.18-5.74,2.82-.2.22-.4.42-.59.6-4.21,3.28-7.85,6.01-10.85,8.12.4-.99.58-2.01.58-2.94,0-1.83-.63-3.55-1.79-4.88-1.97-2.49-4.84-3.75-8.53-3.75-2.74,0-5.54.54-8.3,1.61-1.14.44-2.21.9-3.18,1.38-2.65-2.64-7.1-3.05-11.67-3.05h0l-1.69.03s-.09,0-.11,0c-.89.02-1.68-.02-2.46.08l-.25.03c-.23.03-.46.07-.68.13-.85.22-1.76.39-2.7.5-.05,0-.1.01-.14.02-.66.1-1.3.19-1.93.3-1.12-.67-2.41-1.03-3.75-1.03-1.54,0-3.05.42-4.49,1.23-.06.03-.11.06-.16.1-.18.11-.41.23-.7.37-.11.05-.22.11-.33.17l-2.79,1.58c-1.3-1.68-3.31-2.84-5.66-3.07-.25-.03-.57-.03-.83-.02-2.84.11-5.34,1.82-6.84,4.7-.44.85-.9,1.79-1.32,2.75-1.61,3.18-3.2,6.74-4.87,10.85-1.31,3.21-1.74,4.72-1.74,6.23,0,4.38,3.46,7.94,7.71,7.94,1.91,0,3.64-.7,4.96-1.9.17,1.6.78,3.09,1.78,4.36,1.51,1.92,3.73,3.02,6.08,3.02.03,0,.07,0,.1,0-.07.3-.13.59-.17.89-.29.16-.56.34-.83.54-.06.04-.12.09-.17.14-1.08.88-2.14,1.84-3.29,2.96-2.33,2.33-3.67,5.36-3.67,8.3,0,.39.03.79.08,1.22.2,1.93,1.37,6.28,7.66,8.04.04.01.12.03.16.04.04,0,.07.02.11.03,2.26.53,4.69.8,7.22.8,2.91,0,5.75-.29,8.43-.87,1.06-.23,2.03-.49,2.93-.79,2.31,1.85,5.43,2.2,8.23.8.11-.06.23-.12.34-.18l.12-.07c.11-.06.21-.13.32-.2,1.07-.74,2.02-1.59,2.82-2.54.16-.19.32-.34.52-.5.08-.06.16-.13.24-.19l.09-.08s.04-.03.06-.05c.34-.04.68-.07,1.02-.11.39,2.25,1.76,4.17,3.76,5.2,1.2.64,2.45.96,3.72.96h.13c.32,0,.72-.04,1.03-.1,1.21-.21,2.2-.7,3-1.28,2.31.04,4.54-.11,6.57-.34,1.64-.17,3.48-.25,5.47-.25.63,0,1.11.01,1.41.05.13.01.26.02.39.02h.16c.22.01.45,0,.67,0,1.28.52,2.75.66,4.12.38,1.07-.1,2.08-.14,3.05-.14,1.47,0,2.93-.25,4.23-.72.07-.02.18-.05.32-.07,1.29-.19,2.49-.44,3.65-.77.55-.14,1.17-.31,1.89-.51.09-.02.18-.05.26-.08.77-.25,1.45-.54,2.05-.86,2.47-1.3,3.94-3.73,3.94-6.5,0-2.05-.87-3.86-2.29-5.13.5-.58.89-1.21,1.18-1.86.4-.14.79-.33,1.14-.57,1.73-.9,3.07-2.37,3.75-4.17.35-.89.53-1.82.53-2.8,0-1.17-.26-2.31-.8-3.47h0ZM60.94,31.92c-3.11,2.42-5.9,4.54-8.36,6.33-.03-.53-.11-1.04-.24-1.53-.17-.89-.56-1.74-1.14-2.45l-.68-.83c-.39-.57-.83-1.09-1.3-1.57.75.32,1.52.55,2.31.68,1.27.24,2.19.34,2.98.34,2.68,0,5.04-.76,7.05-1.58,0,0-.01.01-.02.02-.2.22-.4.42-.59.59ZM77.8,28.44s.1-.08.14-.12l.09-.08s.02-.02.04-.03c.34-.04.68-.07,1.02-.11.03.18.08.36.12.53-.46-.13-.94-.2-1.42-.2h0Z"/><path class="cls-2" d="M25.67,12.05c-.82,1.9-1.65,3.8-2.46,5.65-1.59,3.61-3.23,7.35-4.73,11.08-.26.38-.4.82-.4,1.28,0,.71.23,1.37.66,1.91.62.78,1.32.94,1.81.94.34,0,.69-.1,1.03-.29l.25-.14.14-.25c.39-.71.65-1.4.81-2.14.13-.6.32-1.16.6-1.72.7-1.54,1.36-3.1,1.99-4.62.77-1.84,1.57-3.74,2.4-5.51.65-1.13,1.2-2.3,1.67-3.57.42-1.11.92-2.25,1.42-3.28.39-.64.67-1.22.85-1.76.25.96,1.02,1.19,1.28,1.23l.14.02.14-.02c.68-.08,1.36-.19,2.04-.29l.11-.02c.38-.11.78-.19,1.18-.25-.16.38-.32.74-.49,1.08-.02.03-.04.07-.06.1-1.37.1-2.33.45-2.92,1.06-.7.7-1.04,1.35-1.04,2,0,.97.6,1.64,1.51,1.68-.66,1.41-1.31,2.97-1.94,4.73-.38,1.11-.74,1.99-1.1,2.67-.36.37-.56.83-.56,1.32,0,.59.22,1.16.64,1.65.46.56.99.84,1.59.84.18,0,.34-.03.5-.08,1.4-.14,2.69-.2,3.96-.2.9,0,1.76-.15,2.49-.43.36-.11.75-.21,1.17-.29,1.12-.16,2.14-.37,3.09-.65.55-.14,1.16-.31,1.89-.5.47-.16.87-.32,1.23-.51.67-.35,1.03-.95,1.03-1.68,0-.03,0-.06-.01-.09.39,1.01.94,1.86,1.66,2.49,1.07.95,2.15,1.52,3.22,1.69.93.17,1.6.26,2.03.26,1.95,0,3.76-.65,5.5-1.39.05-.02.09-.05.08-.05l.17-.05c2.23-.89,4.24-2.08,5.93-3.48.43-.32.83-.65,1.18-.99h0c0,.71.43,1.54,1.66,1.59h.06s.06,0,.06,0c.03,0,.06,0,.1,0-1.46,1.15-1.46,1.64-1.46,1.92,0,.58.2,1.13.59,1.62.71.88,1.7,1.1,2.77.57l.12-.07c.67-.46,1.26-.99,1.75-1.57.41-.49.87-.92,1.38-1.31l.09-.08c.66-.64,1.43-1.06,2.21-1.23,2.71-.36,5.3-.45,8.04-.54.42-.01.85-.03,1.27-.04-.01.02-.02.04-.03.06-.22.39-.45.81-.6,1.24-.11.37-.26.75-.48,1.24-.32.71-.47,1.33-.47,1.9,0,1.09.61,1.56.95,1.72.43.23.82.34,1.2.34h.21c.68-.13,1.26-.68,1.92-1.82.43-.8.87-1.72,1.34-2.83.41-1.01.72-1.83.94-2.44l.53-1.44c1.1-3.72,2.68-7.35,4.21-10.85l.19-.45-.06-.3s-.02-.07-.02-.1c0-.06,0-.11.02-.19l.1-.39c.02-.17.04-.32.04-.5,0-.43-.15-1.47-1.59-1.95l-.2-.07-.21.02c-.91.08-1.65.44-2.2,1.05-.37.41-.75.77-1.05,1.06-4.74,3.7-8.8,6.73-12.07,9-1.2.83-2.44,1.6-3.63,2.24-.59.26-1.46.4-2.59.42-1.27.02-2.39.04-3.35.08h-.13s-.03.03-.05.03c.24-.47.43-.96.55-1.46l.07-.74c0-.81-.33-1.58-.94-2.22-.58-.61-1.28-1.01-2.11-1.2-.62-.12-1.23-.18-1.81-.18-1.43,0-2.99.38-4.54,1.1-1.92.71-3.86,1.68-5.91,2.95-.68.39-1.06,1.02-1.06,1.73,0,.39.11.78.32,1.13.54,1.03,1.26,1.18,1.65,1.18.34,0,.68-.12,1-.35.93-.66,1.97-1.24,3.12-1.73.49-.23,1-.46,1.5-.74.71-.39,1.46-.74,2.26-1.06.66-.25,1.42-.39,2.26-.4-.04.05-.08.11-.14.17-.17.21-.32.43-.44.67-2.49,2.45-5.44,4.02-8.75,4.68l-.11.03c-.5.16-1.02.24-1.6.24-.34,0-.84-.04-1.45-.11-.56-.07-1-.29-1.35-.66-.34-.36-.49-.75-.49-1.25,0-.27.04-.5.16-.77.74-2,2.32-3.64,3.91-5.1l.11-.09c2.26-1.89,4.84-3.41,7.69-4.52,1.11-.44,2.12-.74,3.02-.89.06.4.25.77.56,1.08.68.68,1.62.84,2.94.36,1.84-.65,2.12-1.86,2.12-2.51s-.27-1.12-.53-1.38c-1.18-1.58-2.86-1.8-4.36-1.8-2.07,0-4.2.42-6.33,1.24-2.08.8-3.82,1.67-5.17,2.57-1.57,1.02-3.03,2.19-4.35,3.49-1.39,1.37-2.49,2.99-3.27,4.82-.31.8-.47,1.64-.47,2.49,0,.4.03.77.1,1.17.06.36.15.69.25,1.01-.34-.48-.96-.74-1.56-.74-.46,0-.94.09-1.5.3-.32.14-.55.17-.78.17l-3.48.33c-1.49.19-3.02.35-4.55.48.33-.77.64-1.49.93-2.16.36-.82.72-1.64,1.08-2.38.42-.76.76-1.46,1.06-2.16.21-.51.53-.73,1.92-.74l1.78-.17c.75-.1,1.54-.15,2.36-.15.52,0,2.11,0,2.48-1.5l.07-.29-.1-.28c-.54-1.48-2.04-1.48-2.61-1.48-.9,0-1.76.02-2.57.04h-1.15c.3-.69.66-1.31,1.07-1.86.71-.04,1.88-.07,3.34-.07.41,0,1.06.01,2.01.08.04.19.13.38.24.56.47.85,1.11.98,1.45.98h.16l.75-.25.36-.03.12-.12c.96-.35,1.37-1.01,1.54-1.47.11-.25.16-.52.16-.82,0-.36-.09-.72-.3-1.17-.44-.84-1.76-1.95-8.1-1.95l-1.69.03c-.69.02-1.34.04-1.95.04l-.25.03c-1.1.29-2.26.51-3.46.64-1.05.15-2.06.32-2.98.49l-.21.07c-.58.25-.91.57-1.1.87-.08-.36-.21-.72-.42-1.08-.42-.66-1.03-1.03-1.73-1.03-.59,0-1.16.16-1.78.51-.34.21-.73.42-1.2.65l-4.34,2.46c-1.39.84-2.55,1.58-3.63,2.32-.81.54-1.53,1.11-2.19,1.72-.39-1.26-.51-1.69-.53-1.77,0-.21.05-.38.17-.55l.21-.29c.43-.59.96-1.33.96-2.4,0-1.35-1.14-2.17-2.27-2.28h-.07s-.07,0-.07,0c-.88.04-1.63.64-2.24,1.79-.42.79-.83,1.66-1.22,2.54-1.56,3.08-3.11,6.54-4.75,10.59-1.17,2.85-1.33,3.69-1.33,4.16,0,1.35,1.04,2.49,2.27,2.49.96,0,1.69-.62,1.93-1.62.36-1.35.86-2.91,1.5-4.65.6-1.72,1.24-3.27,1.89-4.63.13-.28.25-.51.35-.71.3,1.47.64,2.23,1.18,2.63.91.64,1.64.52,2.63-.18l2.63-2.11c1.74-1.61,3.7-2.99,5.86-4.11h0ZM81.74,18.85c2.61-1.75,5.13-3.49,7.62-5.24-.65,1.8-1.28,3.47-1.89,5.05-1.97.07-3.88.13-5.73.19Z"/><path class="cls-2" d="M101.26,35.82c-.44-.84-1.76-1.95-8.1-1.95l-1.69.03c-.69.02-1.34.04-1.95.04l-.25.03c-1.1.29-2.26.51-3.46.64-1.05.15-2.06.32-2.98.49l-.21.07c-1.17.51-1.34,1.3-1.34,1.65-.02.36-.02.54-.02.57,0,1.56,1.05,1.86,1.37,1.91l.14.02.14-.02c.68-.08,1.36-.19,2.04-.29l.12-.02c.38-.11.78-.19,1.18-.25-.16.38-.32.74-.49,1.08-.02.03-.04.07-.06.1-1.37.1-2.33.45-2.92,1.06-.7.7-1.04,1.35-1.04,2,0,.97.6,1.64,1.51,1.68-.66,1.41-1.31,2.97-1.94,4.73-.38,1.11-.74,1.99-1.1,2.67-.01.01-.02.03-.03.04-.29-.32-.75-.56-1.44-.58l-1.21-.07c-.09-.03-.21-.05-.37-.05h0c-.78.02-1.87.04-3.22.04-.93,0-1.71,0-2.36.02.44-.74.85-1.46,1.25-2.2.57-1.05,1.18-2.1,1.81-3.14.67-1.16,1.33-2.35,1.96-3.51.85-1.56,1.74-3.08,2.72-4.63.39-.46.6-.99.6-1.55,0-1.15-.67-2.04-1.82-2.44l-.3-.1-.3.09c-.95.28-1.6.93-1.88,1.91-.1.26-.21.44-.32.56l-.11.14c-1.02,1.62-1.96,3.27-2.78,4.89-.6,1.17-1.25,2.33-2,3.59-1.32,2.42-2.79,4.71-4.37,6.82-.19.03-.19.06-1.27-.09h-.24c-.15-.01-.28,0-.42.04.26-.66.47-1.22.64-1.67l.53-1.44c1.1-3.72,2.68-7.35,4.21-10.85l.19-.44-.06-.31s-.02-.08-.02-.11c0-.06,0-.11.02-.19l.1-.39c.03-.17.04-.33.04-.5,0-.43-.15-1.47-1.59-1.95l-.2-.07-.21.02c-.91.08-1.65.44-2.2,1.05-.37.41-.75.77-1.05,1.06-4.74,3.7-8.8,6.73-12.07,9-1.2.83-2.44,1.6-3.63,2.24-.59.26-1.46.4-2.59.42-1.27.02-2.39.04-3.35.08h-.13c-.86.16-1.43.97-1.57,1.75-.21-.56-.55-1.07-1.05-1.52-1.04-.98-2.13-1.75-3.31-2.35-1.1-.56-2.39-1.13-3.93-1.74-.88-.39-2.09-.95-2.56-1.28-.32-.21-.56-.47-.74-.8l-.03-.18c.01-.43.17-.8.46-1.12.39-.43.81-.73,1.22-.92,2.85-1.09,5.91-1.64,9.09-1.64h.81c.27,0,.55.02.84.06-2.18,1.77-3.22,3.14-3.24,4.3v.81c0,1.09.71,1.58,1.42,1.58.76,0,1.7-.55,3.23-1.91.93-.83,1.58-1.36,1.87-1.54.57-.3,1.89-1,1.89-2.5,0-.36-.05-.66-.16-.92v-.13l-.84-1.02c-.74-1.12-1.67-1.91-2.77-2.34l-.18-.05c-1.37-.25-2.78-.38-4.17-.38-1.05,0-1.95.03-2.93.09l-1,.16c-1.77.21-3.51.57-5.07,1.05-1.37.28-2.54,1.24-3.45,2.81-.49.78-.74,1.61-.74,2.47,0,1.72.57,3.18,1.7,4.36,1.81,1.88,4.06,2.96,6.04,3.83.55.23,1.01.43,1.55.71l.59.24c.36.15.69.31.97.46-.65.27-1.59.54-2.95.77-2.13.37-4.3.55-6.62.55-.82,0-1.58-.03-2.34-.08-.79-.05-1.47-.18-2.01-.37-.29-.1-.29-.18-.29-.22,0-.27.16-.57.46-.88.22-.22.45-.43.67-.61,1.36-1.08,2-2,2-2.88,0-.38-.09-.78-.27-1.19-.16-.37-.6-1.36-1.56-1.36-.29,0-.58.1-.85.31-.95.77-1.89,1.62-2.89,2.6-1.3,1.3-2.07,2.96-2.07,4.45,0,.22.02.45.04.61.1,1.1.82,2.59,3.72,3.4h.04c1.86.44,3.87.67,5.98.67,2.53,0,4.97-.25,7.28-.75,2.36-.51,4.18-1.21,5.41-2.08l.11-.09c.59-.56.9-1.27.9-2.06,0-.02,0-.03,0-.05.25.35.68.63,1.36.66h.06s.06,0,.06,0c.03,0,.06,0,.1,0-1.46,1.15-1.46,1.64-1.46,1.92,0,.58.2,1.14.58,1.61.71.88,1.7,1.1,2.77.57l.12-.07c.67-.46,1.26-.99,1.75-1.57.41-.49.86-.92,1.38-1.31l.09-.08c.66-.64,1.43-1.06,2.22-1.23,2.72-.36,5.31-.45,8.06-.54.42-.01.84-.03,1.26-.04-.01.02-.02.04-.03.06-.21.37-.45.8-.6,1.24-.11.37-.27.76-.49,1.24-.32.71-.47,1.33-.47,1.9,0,1.09.61,1.56.94,1.72.43.23.82.34,1.2.34h.21c.68-.13,1.26-.68,1.92-1.82.16-.3.32-.62.49-.95.33,1.26,1.33,1.39,1.68,1.39h.04c2.04,0,4.01-.1,5.83-.31,1.82-.18,3.85-.28,6.02-.28.84,0,1.46.02,1.97.07h.16c.53,0,.97-.26,1.33-.76.09.15.18.3.3.43.46.56.99.84,1.59.84.18,0,.34-.03.5-.08,1.4-.14,2.69-.2,3.96-.2.9,0,1.76-.15,2.49-.43.36-.12.76-.21,1.17-.29,1.11-.16,2.13-.37,3.09-.65.55-.14,1.16-.31,1.88-.5.47-.16.88-.32,1.23-.51.67-.35,1.03-.95,1.03-1.69,0-1-.94-1.54-1.82-1.54-.46,0-.94.09-1.5.3-.32.14-.55.17-.78.17l-3.48.33c-1.49.19-3.02.35-4.55.48.33-.77.64-1.49.93-2.16.36-.82.72-1.64,1.08-2.38.42-.76.76-1.46,1.06-2.16.21-.51.53-.73,1.91-.74l1.78-.17c.75-.1,1.54-.15,2.36-.15.52,0,2.1,0,2.48-1.5l.07-.29-.1-.28c-.54-1.48-2.04-1.48-2.61-1.48-.9,0-1.76.02-2.57.04h-1.15c.3-.69.66-1.31,1.07-1.86.71-.04,1.88-.07,3.34-.07.41,0,1.06.01,2.01.08.04.19.13.38.24.56.47.85,1.11.98,1.45.98h.16l.75-.25.37-.03.12-.12c.95-.35,1.37-1.01,1.53-1.47.11-.25.16-.52.16-.82,0-.36-.09-.72-.3-1.17h0ZM55.51,47.27c2.6-1.75,5.13-3.49,7.62-5.24-.66,1.82-1.28,3.47-1.89,5.05-1.97.07-3.88.13-5.72.19Z"/></g></svg>