<?xml version="1.0" encoding="UTF-8"?>
<svg id="Calque_2" data-name="Calque 2" xmlns="http://www.w3.org/2000/svg" viewBox="0 0 587.2 165.57">
  <defs>
    <style>
      .cls-1 {
        fill: #3f3f3f;
      }

      .cls-1, .cls-2, .cls-3 {
        stroke-width: 0px;
      }

      .cls-2 {
        fill: #ffad29;
      }

      .cls-3 {
        fill: #fff;
      }
    </style>
  </defs>
  <g id="Calque_1-2" data-name="Calque 1">
    <g>
      <path class="cls-3" d="m103.75,4.26h379.75c9.08,0,16.44,7.37,16.44,16.44v59.56H87.3V20.71c0-9.08,7.37-16.44,16.44-16.44Z"/>
      <g>
        <path class="cls-1" d="m267.61,51.35c0,1.42-.27,2.76-.82,4-.54,1.25-1.28,2.34-2.22,3.27s-2.03,1.67-3.27,2.22c-1.25.54-2.58.82-4,.82h-17.19V27.28h17.19c1.42,0,2.76.27,4,.82,1.25.54,2.34,1.28,3.27,2.22s1.67,2.03,2.22,3.27c.54,1.25.82,2.58.82,4,0,.64-.09,1.29-.26,1.96-.18.67-.42,1.32-.74,1.94-.32.62-.7,1.19-1.15,1.7-.45.51-.94.93-1.49,1.27.56.3,1.06.72,1.51,1.23.45.52.83,1.09,1.15,1.71.32.62.56,1.27.73,1.95.17.68.25,1.34.25,1.98Zm-20.61-10.31h10.31c.48,0,.93-.09,1.34-.26.42-.18.78-.42,1.09-.73.31-.31.55-.68.73-1.1.18-.42.26-.87.26-1.35s-.09-.93-.26-1.34c-.18-.42-.42-.78-.73-1.09s-.68-.55-1.09-.73c-.42-.18-.86-.26-1.34-.26h-10.31v6.88Zm0,13.74h10.31c.48,0,.93-.09,1.34-.26.42-.18.78-.42,1.09-.73s.55-.67.73-1.09c.18-.42.26-.86.26-1.34s-.09-.93-.26-1.34c-.18-.42-.42-.78-.73-1.09s-.68-.55-1.09-.73c-.42-.18-.86-.26-1.34-.26h-10.31v6.86Z"/>
        <path class="cls-1" d="m296.37,61.65h-23.56V27.28h23.56v6.88h-16.68v6.88h11.29v6.88h-11.29v6.86h16.68v6.88Z"/>
        <path class="cls-1" d="m298.79,37.59c0-1.42.27-2.76.81-4,.54-1.25,1.28-2.34,2.22-3.27.93-.93,2.03-1.67,3.27-2.22s2.58-.82,4-.82h15.77v6.88h-15.77c-.48,0-.93.09-1.34.26-.42.18-.78.42-1.09.73s-.56.68-.73,1.09c-.18.42-.26.86-.26,1.34s.09.93.26,1.35c.18.42.42.79.73,1.1.31.31.67.55,1.09.73.42.18.86.26,1.34.26h6.88c1.42,0,2.76.27,4.01.8,1.25.54,2.35,1.27,3.28,2.21s1.67,2.03,2.21,3.28c.54,1.25.8,2.59.8,4.02s-.27,2.76-.8,4c-.54,1.25-1.27,2.34-2.21,3.27-.94.93-2.03,1.67-3.28,2.22-1.25.54-2.59.82-4.01.82h-15.27v-6.88h15.27c.48,0,.93-.09,1.34-.26.42-.18.78-.42,1.09-.73s.55-.67.73-1.09c.17-.42.26-.86.26-1.34s-.09-.93-.26-1.34c-.18-.42-.42-.78-.73-1.09s-.68-.55-1.09-.73c-.42-.18-.86-.26-1.34-.26h-6.88c-1.42,0-2.76-.27-4-.82-1.25-.54-2.34-1.28-3.27-2.22s-1.67-2.03-2.22-3.28c-.54-1.25-.81-2.59-.81-4.01Z"/>
        <path class="cls-1" d="m344.74,61.65h-6.86v-27.49h-10.33v-6.88h27.49v6.88h-10.31v27.49Z"/>
      </g>
      <path class="cls-1" d="m547.88,94.36l38-42.13h-81.68l-.04,28.07-420.99-.08.03-27.97-81.26-.06,36.84,43.13L0,138.01h81.78v27.56h423.73v-27.79h81.68l-39.32-43.41Z"/>
      <path class="cls-2" d="m83.2,80.26h4.1V20.71c0-9.08,7.35-16.44,16.42-16.44h379.81c9.07,0,16.42,7.36,16.42,16.44v59.56h4.25V20.71c0-11.42-9.27-20.71-20.67-20.71H103.72c-11.4,0-20.67,9.29-20.67,20.71l.15,59.55Z"/>
      <polygon class="cls-2" points="141.21 138.3 122.84 151.08 129.32 129.66 111.49 116.14 133.86 115.69 141.21 94.55 148.55 115.69 170.93 116.14 153.1 129.66 159.58 151.08 141.21 138.3"/>
      <polygon class="cls-2" points="217.21 138.3 198.84 151.08 205.32 129.66 187.49 116.14 209.86 115.69 217.21 94.55 224.55 115.69 246.93 116.14 229.1 129.66 235.58 151.08 217.21 138.3"/>
      <polygon class="cls-2" points="293.21 138.3 274.84 151.08 281.32 129.66 263.49 116.14 285.86 115.69 293.21 94.55 300.55 115.69 322.93 116.14 305.1 129.66 311.58 151.08 293.21 138.3"/>
      <polygon class="cls-2" points="369.21 138.3 350.84 151.08 357.32 129.66 339.49 116.14 361.86 115.69 369.21 94.55 376.55 115.69 398.93 116.14 381.1 129.66 387.58 151.08 369.21 138.3"/>
      <polygon class="cls-2" points="445.21 138.3 426.84 151.08 433.32 129.66 415.49 116.14 437.86 115.69 445.21 94.55 452.55 115.69 474.93 116.14 457.1 129.66 463.58 151.08 445.21 138.3"/>
    </g>
  </g>
</svg>