<?xml version="1.0" encoding="utf-8"?>
<!DOCTYPE svg PUBLIC "-//W3C//DTD SVG 1.1//EN" "http://www.w3.org/Graphics/SVG/1.1/DTD/svg11.dtd">
<svg version="1.1" xmlns="http://www.w3.org/2000/svg" xmlns:xlink="http://www.w3.org/1999/xlink" xmlns:xml="http://www.w3.org/XML/1998/namespace" xmlns:inkscape="http://www.inkscape.org/namespaces/inkscape" xmlns:sodipodi="http://sodipodi.sourceforge.net/DTD/sodipodi-0.dtd" x="0" y="0" width="1000" height="876" viewBox="0, 0, 500, 437.5232" id="Livello_1" xml:space="preserve" sodipodi:docname="Renault_2021.svg" inkscape:version="1.1.1 (3bf5ae0d25, 2021-09-20)" style="enable-background:new 0 0 382 500;">
  <defs id="defs11" />
  <sodipodi:namedview id="namedview9" pagecolor="#ffffff" bordercolor="#666666" borderopacity="1.0" inkscape:pageshadow="2" inkscape:pageopacity="0.0" inkscape:pagecheckerboard="0" showgrid="false" inkscape:zoom="0.719" inkscape:cx="424.89569" inkscape:cy="227.39917" inkscape:window-width="1920" inkscape:window-height="1001" inkscape:window-x="-9" inkscape:window-y="-9" inkscape:window-maximized="1" inkscape:current-layer="Livello_1" fit-margin-top="0" fit-margin-left="0" fit-margin-right="0" fit-margin-bottom="0" />

<path d="m208.9847 0 l-83.7801 156.0092 l83.7801 156.0079 h23.1817 L316.8576 156.0092 L262.8999 55.53194 L250.7151 78.22095 L292.4896 156.0092 L220.4372 290.1771 L148.3861 156.0092 L232.1664 0 Z m48.0051 0 l-84.6924 156.0092 l53.9591 100.4771 l12.1845 -22.68908 l-41.7744 -77.78806 l72.0524 -134.168 l72.0512 134.168 l-83.7814 156.0079 h23.1826 L363.9517 156.0092 L280.1714 0 Z" id="path132" stroke-width="0.543658px" stroke-linecap="butt" stroke-linejoin="miter" opacity="1" stroke-opacity="1" style="fill:black;stroke:none;" /><path d="m79.9942 374.1075 v62.23127 h54.2125 V423.7918 H96.1104 V411.1899 h33.3725 V398.8086 H96.1104 v-12.31994 h37.3091 v-12.38109 z" id="rect47" fill-rule="evenodd" stroke-width="0.350576" opacity="1" sodipodi:nodetypes="ccccccccccccc" style="fill:black;" /><path d="m0 374.1075 v62.23127 h16.1162 v-19.49003 h19.4006 l11.2528 19.49003 h18.5865 l-13.496 -22.89223 c6.5534 -3.61768 11.2722 -10.20709 11.2722 -18.31429 c0 -16.64605 -12.6179 -21.02475 -22.8701 -21.02475 z m16.1162 12.38109 h22.8561 c2.9512 0 6.2357 2.29429 6.2357 9.38713 c0 2.40483 -0.702 8.59169 -6.2357 8.59169 H16.1162 Z" id="rect47-6" fill-rule="evenodd" stroke-width="0.350576" opacity="1" style="fill:black;" /><path d="m148.8468 374.1075 v62.23127 h16.1162 v-40.08544 l35.6286 40.08544 h16.116 v-62.23127 h-16.116 v39.7587 l-35.6286 -39.7587 z" id="rect1271" stroke-width="0.223607" opacity="1" style="fill:black;" /><path d="m253.3119 374.1075 l-27.4231 62.23127 h18.4797 l4.1814 -10.59523 h31.3448 l4.1814 10.59523 h18.4797 l-27.4231 -62.23127 z m10.9103 11.92151 l10.7866 27.33332 h-21.5729 z" id="path1750" stroke-width="0.200132px" stroke-linecap="butt" stroke-linejoin="miter" opacity="1" stroke-opacity="1" style="fill:black;stroke:none;" /><path d="m391.7109 374.1075 v62.23127 H443.34 v-12.54696 h-35.5131 v-49.68431 z" id="rect3635" stroke-width="0.200132" opacity="1" sodipodi:nodetypes="ccccccc" style="fill:black;stroke:none;" /><path d="m435.4432 374.1075 v12.38109 h24.2204 v49.85018 h16.1161 V386.4886 H500 v-12.38109 z" id="rect4042" stroke-width="0.200132" opacity="1" sodipodi:nodetypes="ccccccccc" style="fill:black;stroke:none;" /><path d="m310.1242 374.1075 v42.05703 c0 17.62353 17.8765 21.35867 32.0531 21.35867 c14.1766 0 32.0533 -3.73514 32.0533 -21.35867 v-42.05703 h-16.1162 v41.26999 c0 6.40728 -9.6883 8.55893 -15.9371 8.55893 c-6.2488 0 -15.937 -2.15165 -15.937 -8.55893 v-41.26999 z" id="rect8237" stroke-width="0.164525" opacity="1" style="fill:black;stroke:none;" /></svg>