<?xml version="1.0" encoding="utf-8"?>
<!DOCTYPE svg PUBLIC "-//W3C//DTD SVG 1.1//EN" "http://www.w3.org/Graphics/SVG/1.1/DTD/svg11.dtd">
<svg version="1.1" xmlns="http://www.w3.org/2000/svg" xmlns:xlink="http://www.w3.org/1999/xlink" xmlns:xml="http://www.w3.org/XML/1998/namespace" width="942" height="161" viewBox="17.468504, 17.44035, 567.42523, 96.82401" id="svg2327">
  <defs id="defs2329" />
  <g id="layer1">
    <path d="M84.70417 22.9702 C86.76495 23.02725 86.54597 24.4754 86.20511 24.97465 C80.12338 34.43563 65.75314 51.09449 55.28976 69.37193 C53.55744 72.33343 52.26732 74.51221 52.26732 77.76213 C52.26732 82.16823 55.01799 87.3776 60.54377 89.61308 C64.17886 91.06937 66.46712 91.11401 70.39027 91.17071 C99.51661 92.07142 111.1932 91.28445 137.2564 90.40004 C138.7616 90.39579 140.1612 89.38169 140.6643 88.76906 C145.7033 83.51504 148.6081 74.07 148.6081 65.7365 C148.6081 47.17524 135.2399 30.45579 114.3861 22.41461 L111.0391 26.70697 C129.3165 34.2613 138.7616 49.34977 138.7616 65.50937 C138.7616 69.14481 138.1447 72.66615 137.0289 76.02945 C136.2015 78.37476 135.1832 79.72157 132.2213 79.76622 C110.982 80.22047 98.95676 80.55319 77.66078 79.99335 C74.91401 79.93665 74.0257 78.93461 73.57925 76.75973 C73.23838 75.4696 73.52255 74.39847 74.41122 72.77988 C85.70621 52.77012 105.3833 29.89985 109.2458 24.4754 C109.98 23.47335 109.6352 21.45296 107.1156 20.78362 C99.74374 18.60485 91.47153 17.72044 83.08523 17.72044 C45.11444 17.87457 18.33307 39.23114 17.71653 65.7365 C19.23803 97.55292 46.90346 113.9843 83.08523 113.9843 C105.2252 113.9843 125.5068 106.1578 137.374 93.74705 L126.4114 94.18925 C116.2888 103.1921 100.0725 108.0039 83.30031 108.0039 C52.72972 108.0039 27.83905 92.8017 27.83905 65.50937 C27.83905 42.03496 52.72547 22.91351 83.30031 22.91351 C83.30031 22.91351 84.70417 22.9702 84.70417 22.9702 z M335.8495 80.43555 L356.5286 66.85654 L325.2278 43.54016 L325.2278 49.24843 L278.9277 49.24843 C272.8867 49.24843 267.9165 53.54504 267.0158 59.13957 L320.692 59.08287 L320.692 69.25819 L279.6537 69.31488 C273.1705 69.31488 267.8598 74.24043 267.5757 80.43555 L335.8495 80.43555 z M532.4747 49.078 L579.9395 49.078 L579.9395 39.07311 L532.2072 39.07311 C514.3557 39.07311 499.7704 52.71307 499.0401 69.81803 L556.5784 69.75744 C560.3148 69.75744 563.3334 72.22004 563.3334 75.18579 C563.3334 78.20433 560.3109 80.61024 556.5784 80.61024 L493.2301 80.60599 L493.2301 39.07311 L474.4413 39.07311 L474.4413 80.33421 L436.7101 80.33421 C431.1719 79.4335 429.4357 75.41292 429.4357 67.58256 L429.4396 39.07311 L399.1408 39.07311 L371.9012 56.73366 L348.1994 39.07311 L275.2926 39.07311 C259.133 39.07311 245.6631 50.19378 242.6974 65.00623 L257.3437 65.00623 C251.8179 68.75504 247.5659 74.07 245.2167 80.33846 L198.86 80.33421 C193.3951 79.4335 191.6018 75.41292 191.6018 67.58256 L191.6057 39.07311 L172.8698 39.07311 L172.8698 65.6798 C172.0828 83.29996 181.6413 89.61308 192.5468 90.61512 L338.1945 90.61087 L365.0326 73.27878 L388.4623 90.84225 L417.1301 90.84225 L380.6323 63.39154 L410.6469 43.93772 L410.7036 65.6798 C409.933 83.29996 420.4329 89.61308 431.3423 90.61512 L567.642 90.61087 C577.0342 90.61087 584.6456 83.74216 584.6456 75.18579 C584.6456 66.68185 577.0304 59.81315 567.642 59.81315 L520.5671 59.81315 C521.0093 53.82886 526.1619 49.078 532.4747 49.078 L532.4747 49.078 z" id="path2383" fill-rule="evenodd" fill-opacity="1" style="fill:black;" />
  </g>
</svg>