<?xml version="1.0" encoding="UTF-8"?>
<svg xmlns="http://www.w3.org/2000/svg" viewBox="0 0 527.92 221.81">
  <defs>
    <style>
      .cls-1 {
        isolation: isolate;
      }

      .cls-2, .cls-3 {
        stroke-width: 0px;
      }

      .cls-4 {
        mix-blend-mode: overlay;
        opacity: .96;
      }

      .cls-5 {
        mix-blend-mode: multiply;
        opacity: .15;
      }

      .cls-3 {
        fill: #ffdb2b;
      }
    </style>
  </defs>
  <g class="cls-1">
    <g id="Calque_2" data-name="Calque 2">
      <g id="Calque_1-2" data-name="Calque 1">
        <g>
          <g>
            <g>
              <polygon class="cls-3" points="263.46 1.42 228.93 75.19 149.58 85.54 206.52 142.03 192.62 221.81 263.46 183.63 333.67 221.81 320.39 142.22 378.34 87.76 299.45 74.49 263.46 1.42"/>
              <g class="cls-4">
                <polygon class="cls-2" points="263.46 1.42 263.96 117.07 299.45 74.49 263.46 1.42"/>
                <polygon class="cls-2" points="263.96 117.07 378.34 87.76 320.39 142.22 263.96 117.07"/>
                <polygon class="cls-2" points="263.96 117.07 333.67 221.81 263.46 183.63 263.96 117.07"/>
                <polygon class="cls-2" points="263.96 117.07 263.46 183.63 192.62 221.81 263.96 117.07"/>
                <polygon class="cls-2" points="263.96 117.07 206.52 142.03 149.58 85.54 263.96 117.07"/>
              </g>
            </g>
            <polygon class="cls-3" points="263.46 1.42 228.93 75.19 149.58 85.54 206.52 142.03 192.62 221.81 263.46 183.63 333.67 221.81 320.39 142.22 378.34 87.76 299.45 74.49 263.46 1.42"/>
            <g class="cls-5">
              <polygon class="cls-2" points="263.46 1.42 263.96 117.07 299.45 74.49 263.46 1.42"/>
              <polygon class="cls-2" points="263.96 117.07 378.34 87.76 320.39 142.22 263.96 117.07"/>
              <polygon class="cls-2" points="263.96 117.07 333.67 221.81 263.46 183.63 263.96 117.07"/>
              <polygon class="cls-2" points="263.96 117.07 263.46 183.63 192.62 221.81 263.96 117.07"/>
              <polygon class="cls-2" points="263.96 117.07 206.52 142.03 149.58 85.54 263.96 117.07"/>
            </g>
          </g>
          <g>
            <g>
              <polygon class="cls-3" points="463.68 0 444.37 41.25 400 47.03 431.84 78.62 424.07 123.23 463.68 101.89 502.94 123.23 495.51 78.73 527.92 48.28 483.8 40.86 463.68 0"/>
              <g class="cls-4">
                <polygon class="cls-2" points="463.68 0 463.96 64.67 483.8 40.86 463.68 0"/>
                <polygon class="cls-2" points="463.96 64.67 527.92 48.28 495.51 78.73 463.96 64.67"/>
                <polygon class="cls-2" points="463.96 64.67 502.94 123.23 463.68 101.89 463.96 64.67"/>
                <polygon class="cls-2" points="463.96 64.67 463.68 101.89 424.07 123.23 463.96 64.67"/>
                <polygon class="cls-2" points="463.96 64.67 431.84 78.62 400 47.03 463.96 64.67"/>
              </g>
            </g>
            <polygon class="cls-3" points="463.68 0 444.37 41.25 400 47.03 431.84 78.62 424.07 123.23 463.68 101.89 502.94 123.23 495.51 78.73 527.92 48.28 483.8 40.86 463.68 0"/>
            <g class="cls-5">
              <polygon class="cls-2" points="463.68 0 463.96 64.67 483.8 40.86 463.68 0"/>
              <polygon class="cls-2" points="463.96 64.67 527.92 48.28 495.51 78.73 463.96 64.67"/>
              <polygon class="cls-2" points="463.96 64.67 502.94 123.23 463.68 101.89 463.96 64.67"/>
              <polygon class="cls-2" points="463.96 64.67 463.68 101.89 424.07 123.23 463.96 64.67"/>
              <polygon class="cls-2" points="463.96 64.67 431.84 78.62 400 47.03 463.96 64.67"/>
            </g>
          </g>
          <g>
            <polygon class="cls-3" points="63.68 0 44.37 41.25 0 47.03 31.84 78.62 24.07 123.23 63.68 101.89 102.94 123.23 95.51 78.73 127.92 48.28 83.8 40.86 63.68 0"/>
            <g class="cls-5">
              <polygon class="cls-2" points="63.68 0 63.96 64.67 83.8 40.86 63.68 0"/>
              <polygon class="cls-2" points="63.96 64.67 127.92 48.28 95.51 78.73 63.96 64.67"/>
              <polygon class="cls-2" points="63.96 64.67 102.94 123.23 63.68 101.89 63.96 64.67"/>
              <polygon class="cls-2" points="63.96 64.67 63.68 101.89 24.07 123.23 63.96 64.67"/>
              <polygon class="cls-2" points="63.96 64.67 31.84 78.62 0 47.03 63.96 64.67"/>
            </g>
          </g>
        </g>
      </g>
    </g>
  </g>
</svg>