<?xml version="1.0" encoding="UTF-8"?><svg width="384" height="100" id="Calque_2" xmlns="http://www.w3.org/2000/svg" viewBox="0 0 192 50"><defs><style>.cls-1{opacity:0;}.cls-1,.cls-2{stroke-width:0px;}.cls-2{fill:#0d1f49;}</style></defs><g id="_10_Lines"><rect class="cls-1" x=".17" width="191.65" height="50"/><g id="Calque_2-2"><g id="Line_10"><path class="cls-2" d="m192,14.65l-4.66-2.74,4.55-3.21c-.12-.23-.29-.47-.41-.7l-5.36,2.51c.23-1.63.41-2.74.58-3.91-1.57,5.19-5.42,6.94-10.55,7.46.47-2.62.93-5.13,1.46-7.64l-.99-.29c-.58,2.16-.99,4.43-1.87,6.47-.47,1.11-1.4,2.51-2.39,2.8-18.83,5.6-38.24,9.09-57.88,10.43,0-2.86,1.05-6.94-.23-7.87-1.87-1.4-5.42-.58-8.28-.7.35-2.56.99-6.82-3.32-7.4-6.41-.87-5.83,5.19-7.05,9.21-5.89-5.83-8.68-6.53-12.07-3.21-2.68,2.68-1.75,5.42,3.91,10.72-.87.12-1.75.12-2.62.12-20.11-1.92-40.22-3.96-60.39-5.77-4.84-.41-7.69-2.33-8.28-7.29-.06-.58-.58-1.11-.87-1.63l-.7.23,1.46,6.64c-4.9.23-8.63-.82-10.55-5.71.29,1.22.58,2.45.93,3.96l-6.24-.93c-.06.23-.12.47-.17.76l4.66,1.81-3.91,2.56c5.07-1.98,10.03-2.91,15.62,0l-7.11,6.59.76.82c1.75-1.46,3.67-2.8,5.19-4.49,2.16-2.39,4.31-2.86,7.64-2.39,14.92,2.1,29.84,3.79,44.82,5.42,5.71.64,11.48.64,16.09.93-.12,2.74-1.11,5.54-.12,7.05,2.74,4.31,6.7,1.81,10.2.41.41,3.73.06,7.99,4.9,8.16,4.6.17,5.3-3.61,5.71-7.4,1.22.76,2.51,1.4,3.85,1.92,2.74.99,5.42.7,6.88-2.1,1.46-2.86-.58-4.37-2.62-5.77-1.17-.76-2.39-1.46-4.49-2.62,2.1-.29,3.03-.47,3.96-.52,20.46-1.28,40.74-4.72,60.5-10.26,1.4-.41,3.38.29,4.78,1.05,2.1,1.11,3.91,2.8,5.77,4.2l.58-.76-6.47-5.6c4.9-3.09,9.68-3.56,14.81-1.34Zm-93.44-.64c.23-1.11,2.39-1.75,3.67-2.62.76,1.46,2.45,3.15,2.1,4.31-1.05,3.5-2.86,6.7-4.37,10.03l-2.39-.52c.23-3.79.23-7.58.99-11.19Zm-13,8.45c-1.05-.7-1.52-4.02-.76-5.25,1.17-1.87,3.91-2.74,5.77-.58,2.45,2.74,4.43,5.83,6.59,8.8l-1.4,1.87c-3.44-1.52-7.05-2.74-10.2-4.84Zm3.85,13.06c-1.05.52-3.21-1.11-4.84-1.75.76-1.28,1.22-3.38,2.33-3.79,2.74-.99,5.71-1.22,8.63-1.81l.93,1.75c-2.33,1.98-4.43,4.26-7.05,5.6Zm9.73,6.7c-1.11-1.28-3.21-2.62-3.21-3.91.06-3.15,1.11-6.3,1.75-9.44l2.16.06c.87,3.09,2.21,6.12,2.51,9.27.12,1.28-2.1,2.68-3.21,4.02Zm13.52-9.44c.64.35.99,2.62.87,2.68-1.34.64-3.5,1.87-4.26,1.34-3.15-2.27-5.83-5.07-8.74-7.64.41-.64.87-1.28,1.28-1.87,3.61,1.81,7.34,3.5,10.84,5.48Zm0-9.97c-2.51,3.26-6.06,3.38-11.07,2.39,3.03-2.56,5.19-4.72,7.69-6.41.87-.58,2.51-.12,3.79-.12-.12,1.46.29,3.21-.41,4.14Z"/></g></g></g></svg>
