<?xml version="1.0" encoding="utf-8"?>
<!DOCTYPE svg PUBLIC "-//W3C//DTD SVG 1.1//EN" "http://www.w3.org/Graphics/SVG/1.1/DTD/svg11.dtd">
<svg version="1.1" xmlns="http://www.w3.org/2000/svg" xmlns:xlink="http://www.w3.org/1999/xlink" xmlns:xml="http://www.w3.org/XML/1998/namespace" xmlns:dc="http://purl.org/dc/elements/1.1/" xmlns:cc="http://creativecommons.org/ns#" xmlns:rdf="http://www.w3.org/1999/02/22-rdf-syntax-ns#" xmlns:sodipodi="http://sodipodi.sourceforge.net/DTD/sodipodi-0.dtd" xmlns:inkscape="http://www.inkscape.org/namespaces/inkscape" width="1000" height="760" viewBox="-6.1, 0, 125.92, 99.42252" id="svg124" inkscape:version="1.0 (4035a4fb49, 2020-05-01)" sodipodi:docname="ds-automobiles-logo.svg">
  <metadata id="metadata130" />
  <defs id="defs128" />
  <sodipodi:namedview id="namedview126" fit-margin-bottom="0" fit-margin-right="0" fit-margin-left="0" fit-margin-top="0" inkscape:current-layer="svg124" inkscape:window-maximized="1" inkscape:window-y="-11" inkscape:window-x="-11" inkscape:cy="950.6469" inkscape:cx="1456.3813" inkscape:zoom="0.22321145" showgrid="false" inkscape:window-height="986" inkscape:window-width="1920" inkscape:pageshadow="2" inkscape:pageopacity="0" guidetolerance="10" gridtolerance="10" objecttolerance="10" borderopacity="1" bordercolor="#666666" pagecolor="#ffffff" />
  <linearGradient id="a">
    <stop offset="4%" stop-color="#8C8C8C" id="stop2" />
    <stop offset="19.4%" stop-color="#B6B6B6" id="stop4" />
    <stop offset="40.3%" stop-color="#EBEBEB" id="stop6" />
    <stop offset="50.6%" stop-color="white" id="stop8" />
    <stop offset="56.4%" stop-color="#FAFAFA" id="stop10" />
    <stop offset="63.3%" stop-color="#EBEBEB" id="stop12" />
    <stop offset="70.7%" stop-color="lightgrey" id="stop14" />
    <stop offset="78.6%" stop-color="#B2B2B2" id="stop16" />
    <stop offset="86.8%" stop-color="#878787" id="stop18" />
    <stop offset="95.2%" stop-color="#535353" id="stop20" />
    <stop offset="96%" stop-color="#4D4D4D" id="stop22" />
  </linearGradient>
  <linearGradient x1="-885.604" y1="539.326" x2="-885.604" y2="540.182" gradientUnits="userSpaceOnUse" xlink:href="#a" gradientTransform="matrix(37.26315, 0, 0, 58.13955, 33073.5, -31327.22)" id="b" />
  <linearGradient id="c">
    <stop offset="0%" stop-color="#BFBFBF" id="stop26" />
    <stop offset="21.2%" stop-color="#666666" id="stop28" />
    <stop offset="27.4%" stop-color="#595959" id="stop30" />
    <stop offset="51.6%" stop-color="#292929" id="stop32" />
    <stop offset="70.1%" stop-color="#0B0B0B" id="stop34" />
    <stop offset="80.6%" id="stop36" />
  </linearGradient>
  <linearGradient x1="-873.785" y1="553.28" x2="-873.732" y2="554.046" gradientUnits="userSpaceOnUse" xlink:href="#c" gradientTransform="matrix(22.54773, 0, 0, 17.96866, 19779.25, -9887.531)" id="d" />
  <linearGradient x1="-885.598" y1="539.428" x2="-885.598" y2="540.284" gradientUnits="userSpaceOnUse" xlink:href="#a" gradientTransform="matrix(37.25035, 0, 0, 57.96187, 33061.85, -31265.65)" id="e" />
  <linearGradient id="f">
    <stop offset="4%" stop-color="#4D4D4D" id="stop41" />
    <stop offset="4.8%" stop-color="#5A5A5A" id="stop43" />
    <stop offset="7.7%" stop-color="gray" id="stop45" />
    <stop offset="10.9%" stop-color="#A3A3A3" id="stop47" />
    <stop offset="14.4%" stop-color="silver" id="stop49" />
    <stop offset="18.2%" stop-color="#D7D7D7" id="stop51" />
    <stop offset="22.6%" stop-color="#E9E9E9" id="stop53" />
    <stop offset="27.9%" stop-color="#F6F6F6" id="stop55" />
    <stop offset="34.8%" stop-color="#FDFDFD" id="stop57" />
    <stop offset="50.6%" stop-color="white" id="stop59" />
    <stop offset="63.1%" stop-color="#FDFDFD" id="stop61" />
    <stop offset="70.1%" stop-color="whitesmoke" id="stop63" />
    <stop offset="75.6%" stop-color="#E7E7E7" id="stop65" />
    <stop offset="80.5%" stop-color="lightgrey" id="stop67" />
    <stop offset="84.8%" stop-color="#BABABA" id="stop69" />
    <stop offset="88.8%" stop-color="#9B9B9B" id="stop71" />
    <stop offset="92.5%" stop-color="#777777" id="stop73" />
    <stop offset="96%" stop-color="#4D4D4D" id="stop75" />
  </linearGradient>
  <linearGradient xlink:href="#f" id="g" />
  <linearGradient x1="-871.128" y1="540.651" x2="-871.128" y2="539.795" gradientUnits="userSpaceOnUse" xlink:href="#f" gradientTransform="matrix(20.73141, 0, 0, 54.76353, 18139.23, -29557.74)" id="h" />
  <linearGradient x1="-871.03" y1="540.548" x2="-871.03" y2="539.692" gradientUnits="userSpaceOnUse" xlink:href="#f" gradientTransform="matrix(20.73141, 0, 0, 54.95893, 18124.14, -29631.93)" id="i" />
  <linearGradient x1="-871.046" y1="539.709" x2="-870.022" y2="540.351" gradientUnits="userSpaceOnUse" gradientTransform="matrix(20.39334, 0, 0, 56.20279, 17779.88, -30326.22)" id="j">
    <stop offset="1.8%" stop-color="whitesmoke" id="stop81" />
    <stop offset="32.7%" stop-color="buttonface" id="stop83" />
    <stop offset="68.7%" stop-color="#E2E2E2" id="stop85" />
    <stop offset="72.7%" stop-color="#E0E0E0" id="stop87" />
    <stop offset="96%" stop-color="#B3B3B3" id="stop89" />
  </linearGradient>
  <linearGradient x1="-871.917" y1="540.583" x2="-871.917" y2="539.727" gradientUnits="userSpaceOnUse" xlink:href="#f" gradientTransform="matrix(21.47879, 0, 0, 55.33211, 18762.05, -29861.7)" id="k" />
  <linearGradient x1="-872.787" y1="553.55" x2="-872.842" y2="554.32" gradientUnits="userSpaceOnUse" xlink:href="#c" gradientTransform="matrix(21.92096, 0, 0, 17.94895, 19200.54, -9908.399)" id="l" />
  <linearGradient x1="-885.469" y1="539.22" x2="-885.469" y2="540.076" gradientUnits="userSpaceOnUse" xlink:href="#a" gradientTransform="matrix(37.28096, 0, 0, 59.89872, 33051.73, -32297.98)" id="m" />
  <linearGradient x1="-873.246" y1="553.545" x2="-873.192" y2="554.313" gradientUnits="userSpaceOnUse" xlink:href="#c" gradientTransform="matrix(22.32967, 0, 0, 17.9544, 19544.43, -9911.303)" id="n" />
  <path d="m82.40971 91.03569 v8.300344 h2.507393 c0.951086 0 1.642796 -0.0864 2.248035 -0.518711 c0.605239 -0.432312 0.951148 -1.03754 0.951148 -1.815699 c0 -1.037552 -0.69171 -1.902245 -1.902188 -2.075171 c0.778165 -0.345853 1.124017 -0.951052 1.124017 -1.729217 c0 -1.296938 -0.864602 -2.161546 -2.507393 -2.161546 z m1.124018 0.864552 h1.124017 c1.037552 0 1.642841 0.432397 1.642841 1.383483 c0 1.037551 -0.605289 1.383375 -1.642841 1.383375 h-1.124017 z m0 3.545029 h1.296994 c1.296944 0 2.161547 0.345847 2.161547 1.469864 c0 1.037552 -0.605302 1.556347 -2.075166 1.556347 h-1.383375 z" id="path156" stroke-width="0.864625" />
  <path d="m74.02288 90.86271 c-2.420956 0 -4.06374 1.729301 -4.06374 4.236717 c0 2.593881 1.642784 4.323092 4.06374 4.323092 c2.680341 0 4.063734 -1.988603 4.063734 -4.323092 c0 -2.507416 -1.642785 -4.236717 -4.063734 -4.236717 z m0.08638 0.95104 c1.815717 0 2.93983 1.46996 2.93983 3.285677 c0 1.72925 -0.951187 3.372052 -2.93983 3.372052 c-1.902177 0 -2.939722 -1.556336 -2.939722 -3.372052 c0 -1.988643 1.124006 -3.285677 2.939722 -3.285677 z" id="path152" stroke-width="0.864625" />
  <path d="m48.6893 90.86271 c-2.420956 0 -4.06374 1.729301 -4.06374 4.236717 c0 2.593881 1.642784 4.323092 4.06374 4.323092 c2.680342 0 4.06374 -1.988603 4.06374 -4.323092 c0 -2.507416 -1.642785 -4.236717 -4.06374 -4.236717 z m0 0.95104 c1.815716 0 2.939722 1.46996 2.939722 3.285677 c0 1.72925 -0.95108 3.372052 -2.939722 3.372052 c-1.902177 0 -2.939723 -1.556336 -2.939723 -3.372052 c0 -1.988643 1.210472 -3.285677 2.939723 -3.285677 z" id="path146" stroke-width="0.864625" />
  <path d="m17.56277 90.9492 c-1.383402 2.680342 -2.420937 5.620031 -3.285564 8.386833 h1.124018 l0.778063 -2.33441 h3.890872 l0.778175 2.33441 h1.037529 c-0.778164 -2.593882 -2.334501 -6.571116 -3.372052 -8.386833 z m0.518709 1.210506 c0.605239 1.124018 1.210525 2.680286 1.642838 3.890763 H16.43875 c0.432313 -1.124012 1.123951 -3.026137 1.642726 -3.890763 z" id="path138" stroke-width="0.864625" />
  <path d="m-8.548987 90.9492 v8.300344 h2.507389 c2.93973 0 4.323203 -1.6427 4.323203 -4.150115 c0 -2.680342 -1.383448 -4.150229 -4.236715 -4.150229 z m1.037529 0.951041 h1.296994 c2.161566 0 3.285564 0.951159 3.285564 3.199188 c0 2.248029 -0.9511246 3.285564 -3.458541 3.285564 h-1.124017 z" id="path96" stroke-width="0.864625" />
  <path d="m121.4908 92.33258 c-0.34585 -0.345851 -1.03756 -0.518776 -1.72926 -0.518776 c-1.21047 0 -1.81571 0.518776 -1.81571 1.210477 c0 0.691701 0.43231 0.951089 1.55633 1.469865 c1.98864 0.864626 2.7668 1.210476 2.7668 2.593879 c0 1.124014 -0.86463 2.334491 -3.02619 2.334491 c-1.12402 0 -2.24803 -0.345851 -2.93973 -0.864627 l0.51877 -0.864626 c0.60524 0.432313 1.55633 0.778164 2.50742 0.778164 c1.29694 0 1.90218 -0.605239 1.90218 -1.383402 c0 -0.691702 -0.60524 -0.951089 -1.98864 -1.556328 c-1.72926 -0.691701 -2.42096 -1.210477 -2.42096 -2.507416 c0 -1.210477 0.86463 -2.248029 2.93973 -2.248029 c0.77817 0 1.64279 0.259388 2.16157 0.691701 z" id="path168" stroke-width="0.864626" />
  <path d="m108.7808 91.98673 v2.420954 h2.93973 v0.951089 h-2.93973 v3.026192 h3.89082 v0.951089 h-5.01484 v-8.386875 h4.75545 v1.037551 z" id="path166" stroke-width="0.864626" />
  <path d="m100.221 98.38496 h3.63143 v0.951089 h-4.755452 v-8.386875 h1.124022 z" id="path164" stroke-width="0.864626" />
  <path d="m92.69877 90.94918 h1.12401 v8.300412 h-1.12401 z" id="path162" stroke-width="0.864626" />
  <path d="m65.72243 90.94918 v8.300412 h-1.124015 v-7.176398 c-0.34585 0.518776 -1.124014 1.815715 -1.469864 2.420954 c-0.345851 0.605238 -0.778164 1.64279 -1.124015 2.334491 h-1.210476 c-0.691702 -1.556328 -1.64279 -3.28558 -2.593879 -4.755445 v7.176398 h-1.124015 v-8.300412 h1.556328 c0.951089 1.296939 1.296939 1.815715 1.729252 2.593879 c0.518776 0.864626 0.691701 1.210476 1.037552 2.075103 c0.691701 -1.556328 1.729253 -3.28558 2.766804 -4.668982 z" id="path150" stroke-width="0.864626" />
  <path d="M39.09193 99.33605 H38.05438 V91.98673 H35.54697 V91.03564 h6.138847 v0.951089 h-2.593879 z" id="path144" stroke-width="0.864626" />
  <path d="m30.6186 90.94918 h1.124014 v5.101295 c0 1.729253 -0.518775 3.28558 -3.112654 3.28558 c-1.124015 0 -2.075104 -0.345851 -2.593879 -1.037552 C25.5173 97.6068 25.43084 96.82864 25.43084 95.96401 v-5.101295 h1.124014 v4.92837 c0 1.469865 0.259388 2.593879 1.988641 2.593879 c1.729253 0 2.075103 -1.124014 2.075103 -2.593879 z" id="path142" stroke-width="0.864626" />
  <path d="M6.409061 92.33258 C6.063211 91.98673 5.37151 91.8138 4.679809 91.8138 c-1.210477 0 -1.815716 0.518776 -1.815716 1.210477 c0 0.691701 0.432313 0.951089 1.556328 1.469865 c1.98864 0.864626 2.766804 1.210476 2.766804 2.593879 c0 1.124014 -0.864626 2.334491 -3.026192 2.334491 c-1.124014 0 -2.248029 -0.345851 -2.93973 -0.864627 L1.740079 97.69326 c0.605239 0.432313 1.556327 0.778164 2.507416 0.778164 c1.29694 0 1.902178 -0.605239 1.902178 -1.383402 c0 -0.691702 -0.605238 -0.951089 -1.98864 -1.556328 C2.43178 94.84 1.740079 94.32122 1.740079 93.02428 c0 -1.210477 0.864626 -2.248029 2.93973 -2.248029 c0.778163 0 1.64279 0.259388 2.161565 0.691701 z" id="path136" stroke-width="0.864626" />
  <path d="m88.28917 51.79111 c-0.259388 -0.259388 -1.64279 -1.469864 -1.64279 -1.469864 L59.15126 28.96498 c4.755445 4.668982 11.75892 12.27769 13.92048 19.02178 c0.605238 1.815715 0.864626 3.544967 0.864626 5.101295 c0 1.383402 -0.34585 2.939729 -0.864626 4.496057 c-1.124014 2.853267 -3.458506 6.138847 -7.003473 9.85674 c-1.210477 1.296939 -6.484698 6.484697 -8.21395 8.21395 c-0.345851 0.34585 -0.605239 0.864626 -0.691702 1.469864 v1.556328 l30.86716 -24.03661 c0.345851 -0.259388 1.037552 -0.778163 1.037552 -1.64279 c-0.08646 -0.518776 -0.605239 -1.037551 -0.778164 -1.210477 z" id="path98" stroke-width="0.864626" style="fill:url(&quot;#b&quot;);" />
  <path d="m68.40276 68.82426 c-0.172926 -0.172925 5.879459 -4.496057 9.251501 -11.84538 c0.951089 -2.075103 1.383402 -2.939729 3.372043 -3.112654 c2.075103 -0.172926 4.582519 -0.345851 5.792996 -0.432314 c0.518776 0 0.691701 0.08646 0.778164 0.345851 c0.08646 0.172925 -0.08646 0.432313 -0.518776 0.691701 c-3.199117 2.248028 -7.954562 6.138847 -14.43926 11.24014 c-0.259388 0.345851 -4.150207 3.199117 -4.236669 3.112655 z" id="path100" stroke-width="0.864626" style="fill:url(&quot;#d&quot;);" />
  <path d="M72.89882 31.38593 C72.29358 29.57022 72.03419 27.84097 72.03419 26.28464 c0 -1.383402 0.345851 -2.939729 0.864626 -4.496057 c1.124015 -2.853267 3.458506 -6.138847 7.003474 -9.85674 c1.124014 -1.210477 5.792996 -5.879459 8.21395 -8.21395 c0.432313 -0.4323132 0.605238 -0.8646264 0.778163 -1.469865 c0.08646 -0.5187758 0.08646 -0.9510889 0.08646 -1.124014 V0.6052384 L58.02724 24.64185 c-0.172925 0.172925 -0.691701 0.605238 -0.951089 1.124014 c-0.08646 0.172926 -0.08646 0.605239 0 0.951089 c0.172925 0.432313 0.432313 0.691701 0.605238 0.864627 c0.259388 0.172925 1.556328 1.296939 1.556328 1.296939 L86.73284 50.23479 C81.89093 45.56581 75.06039 37.9571 72.89882 31.38593 Z" id="path102" stroke-width="0.864626" style="fill:url(&quot;#e&quot;);" />
  <path d="m71.34249 30.95362 c-0.518776 -1.556327 -0.864626 -3.199117 -0.864626 -4.755445 c0 -1.469864 0.432313 -2.853266 0.951089 -4.323131 C73.93637 15.7362 85.78175 5.27422 88.20271 3.28558 C86.21407 4.841908 77.48134 12.27769 75.23331 14.61218 c-3.717894 3.63143 -6.571161 7.695174 -6.571161 11.67245 c0 4.323132 3.026193 8.732726 6.484698 12.79647 c2.161566 2.593878 4.236669 4.841907 6.311772 6.657622 c2.161566 1.988641 3.631431 3.28558 5.187758 4.496057 C84.91712 48.592 74.19576 39.08111 71.34249 30.95362 Z" id="path104" stroke-width="0.864626" />
  <path d="M72.89882 31.38593 C72.29358 29.57022 72.03419 27.84097 72.03419 26.28464 c0 -1.383402 0.345851 -2.939729 0.864626 -4.496057 c1.124015 -2.853267 3.458506 -6.138847 7.003474 -9.85674 c1.124014 -1.210477 5.792996 -5.879459 8.21395 -8.21395 c0.08646 -0.086463 0.172925 -0.1729253 0.259388 -0.3458506 c-2.420954 1.902178 -14.26633 12.45062 -16.77375 18.58947 c-0.605238 1.469865 -0.951089 2.853267 -0.951089 4.323132 c0 1.556327 0.259388 3.199117 0.864626 4.755445 c2.853267 8.127487 13.40171 17.55191 15.21742 19.28117 C81.80447 45.47934 75.06039 37.9571 72.89882 31.38593 Z" id="path106" stroke-width="0.864626" style="fill:url(&quot;#h&quot;);" />
  <path d="M74.54161 48.33261 C71.68834 40.20512 60.88051 30.52131 59.15126 28.96498 c4.755445 4.668982 11.75892 12.27769 13.92048 19.02178 c0.605238 1.815715 0.864626 3.544967 0.864626 5.101295 c0 1.383402 -0.34585 2.939729 -0.864626 4.496057 c-1.124014 2.853267 -3.458506 6.138847 -7.003473 9.85674 c-1.210477 1.296939 -6.484698 6.484697 -8.21395 8.21395 c-0.08646 0.08646 -0.172926 0.172925 -0.259388 0.34585 c2.420953 -1.98864 14.17987 -12.45062 16.77375 -18.58947 c0.605239 -1.469864 0.951089 -2.853266 0.951089 -4.323131 c0.08646 -1.556328 -0.172925 -3.112655 -0.778164 -4.755445 z" id="path108" stroke-width="0.864626" style="fill:url(&quot;#i&quot;);" />
  <path d="m70.82372 40.29159 c-2.161566 -2.593879 -4.236669 -4.841907 -6.311772 -6.657622 c-2.161566 -1.988641 -3.804356 -3.458506 -5.360683 -4.668982 c1.815715 1.556327 12.62354 11.3266 15.39035 19.36763 c0.518776 1.556327 0.864627 3.199117 0.864627 4.755445 c0 1.469865 -0.432313 2.853267 -0.951089 4.323131 c-2.593879 6.138847 -14.3528 16.60083 -16.86021 18.58947 v0.08646 c2.075103 -1.556327 10.80783 -8.992114 13.05586 -11.3266 c3.717893 -3.63143 6.57116 -7.695174 6.57116 -11.67245 c0 -4.323132 -3.026192 -8.732726 -6.398235 -12.79647 z M45.4037 26.19818 c0 4.323132 -2.93973 8.646264 -6.830548 12.62354 c-2.507417 2.507416 -5.014833 4.755444 -7.349324 6.57116 c-2.420954 1.98864 -4.323132 3.28558 -6.052384 4.496056 c1.98864 -1.556327 14.17987 -10.98075 17.37899 -19.02178 c0.605238 -1.556328 0.951089 -3.112655 0.951089 -4.668983 c0 -1.556327 -0.345851 -3.112654 -0.951089 -4.668982 C39.35132 13.48817 27.16009 4.063744 25.17145 2.507416 c1.729252 1.210477 3.63143 2.507416 6.052384 4.496057 c2.334491 1.815715 4.841907 4.063744 7.349324 6.57116 c3.890818 3.977281 6.830548 8.386875 6.830548 12.62354 z" id="path110" stroke-width="0.864626" />
  <path d="M25.17145 49.88894 L24.65267 50.23479 V2.161566 l0.518776 0.3458505 c1.815715 1.556327 13.14232 10.98075 16.08205 19.02178 c0.605239 1.556328 0.951089 3.112655 0.951089 4.668982 c0 1.556328 -0.34585 3.112655 -0.951089 4.668983 c-3.026192 8.041024 -14.26633 17.46545 -16.08205 19.02178" id="path112" stroke-width="0.864626" style="fill:url(&quot;#j&quot;);" />
  <path d="m25.17145 49.88894 c1.98864 -1.556327 14.17987 -10.98075 17.37899 -19.02178 c0.605238 -1.556328 0.951089 -3.112655 0.951089 -4.668983 c0 -1.556327 -0.345851 -3.112654 -0.951089 -4.668982 C39.35132 13.48817 27.16009 4.063744 25.17145 2.507416 c1.815715 1.556327 13.14232 10.98075 16.08205 19.02178 c0.605239 1.556328 0.951089 3.112655 0.951089 4.668982 c0 1.556328 -0.34585 3.112655 -0.951089 4.668983 c-3.026192 8.041024 -14.26633 17.46545 -16.08205 19.02178 z" id="path114" stroke-width="0.864626" style="fill:url(&quot;#k&quot;);" />
  <path d="M88.46209 51.61819 C86.21407 49.45663 75.92501 39.68635 73.1582 31.29947 C72.55297 29.57022 72.29358 27.92743 72.29358 26.28464 c0 -1.469865 0.345851 -2.853267 0.864626 -4.323132 c1.29694 -3.28558 4.063744 -6.830547 6.917011 -9.770277 c1.210477 -1.296939 6.484697 -6.484697 8.21395 -8.300412 c0.432313 -0.4323131 0.691701 -0.9510889 0.778164 -1.469865 c0.08646 -0.5187758 0.172925 -1.037552 0.172925 -1.383402 V0.08646263 L57.85432 24.38246 C57.50847 24.64185 56.98969 25.07416 56.81677 25.76586 C56.64384 25.16063 56.12507 24.64185 55.77922 24.38246 L24.39328 0 V52.48282 L55.77922 28.10036 c0.345851 -0.259388 0.864627 -0.691701 1.037552 -1.383402 c0.172925 0.518776 0.518776 0.951089 0.691701 1.037552 c2.248028 2.161566 12.62354 11.93184 15.39035 20.31872 c0.605239 1.729253 0.864627 3.372043 0.864627 5.014833 c0 1.469865 -0.345851 2.853267 -0.864627 4.323131 c-1.296939 3.28558 -4.063743 6.830548 -6.91701 9.770278 c-1.210477 1.296939 -6.484697 6.57116 -8.21395 8.300412 c-0.345851 0.345851 -0.691701 0.951089 -0.778164 1.469865 c-0.08646 0.432313 -0.172925 0.864627 -0.172925 1.383402 v0.951089 L88.20271 54.90377 c0.432313 -0.34585 1.124014 -0.951089 1.124014 -1.815715 c-0.08646 -0.778164 -0.691701 -1.29694 -0.864626 -1.469865 z M55.60629 27.84097 L24.65267 51.87758 V0.6052384 L55.51983 24.64185 c0.345851 0.259388 1.037552 0.864626 1.037552 1.64279 c0 0.691701 -0.605238 1.29694 -0.951089 1.556327 z m1.469865 -1.124014 c-0.08646 -0.34585 -0.08646 -0.691701 0 -0.951089 c0.172925 -0.518776 0.691701 -0.951089 0.951089 -1.124014 L88.8944 0.6052384 V1.037552 c0 0.1729252 0 0.6052384 -0.08646 1.124014 c-0.08646 0.6052384 -0.345851 1.124014 -0.778164 1.469865 c-2.334491 2.334491 -7.089936 7.003473 -8.21395 8.21395 c-3.544968 3.717893 -5.879459 7.003473 -7.003473 9.85674 c-0.605239 1.556327 -0.864626 3.026192 -0.864626 4.496056 c0 1.64279 0.34585 3.372043 0.864626 5.101296 c2.161566 6.657622 8.992114 14.17987 13.74756 18.84885 L59.23772 28.87852 c0 0 -1.29694 -1.124014 -1.556328 -1.296939 c-0.172925 -0.172926 -0.432313 -0.518776 -0.605238 -0.864627 z M87.94331 54.73085 L57.07616 78.76746 v-0.432313 c0 -0.432313 0.08646 -0.778163 0.08646 -1.124014 c0.08646 -0.605238 0.345851 -1.124014 0.778164 -1.469865 l8.21395 -8.21395 c3.544968 -3.717893 5.879459 -7.003473 7.003473 -9.85674 c0.605239 -1.556327 0.864627 -3.026192 0.864627 -4.496057 c0 -1.64279 -0.345851 -3.372042 -0.864627 -5.101295 C70.91018 41.32914 63.99317 33.72042 59.23772 29.05144 l27.58158 21.44273 c0 0 1.383402 1.210477 1.64279 1.469865 c0.172925 0.172925 0.691701 0.691701 0.691701 1.296939 c-0.172925 0.605239 -0.864626 1.210477 -1.210477 1.469865 z" id="path116" stroke-width="0.864626" />
  <path d="m76.96256 41.93438 c0.08646 -0.08646 -3.112655 -3.199117 -3.544968 -3.544968 c-3.544968 -3.28558 -6.398235 -8.386875 -6.398235 -8.386875 c-1.037551 -2.075103 -1.383402 -2.939729 -3.372042 -3.112655 c-2.075103 -0.172925 -3.458505 -0.259387 -4.668982 -0.259387 c-0.518776 0 -0.691701 0.08646 -0.778164 0.34585 c-0.08646 0.172925 0.08646 0.432313 0.518776 0.691701 c3.199117 2.248029 7.954562 6.052384 14.43926 11.24014 c0.432314 0.259388 3.717894 3.112655 3.804356 3.026192 z" id="path118" stroke-width="0.864626" style="fill:url(&quot;#l&quot;);" />
  <path d="m24.65267 50.32125 l0.518776 -0.345851 c1.729252 -1.210477 3.63143 -2.507416 6.052384 -4.496057 c2.334491 -1.815715 4.841907 -4.063743 7.349324 -6.57116 c3.890818 -3.977281 6.830548 -8.300412 6.830548 -12.62354 c0 -4.323132 -2.93973 -8.646263 -6.830548 -12.62354 C36.06574 11.15368 33.55832 8.905651 31.22383 7.089936 C28.80288 5.101295 26.9007 3.804356 25.17145 2.593879 L24.65267 2.248029 V0.6052384 L55.51983 24.64185 c0.345851 0.259388 1.037552 0.864626 1.037552 1.64279 c0 0.778164 -0.605238 1.29694 -1.037552 1.64279 L24.65267 51.87758 Z" id="path120" stroke-width="0.864626" style="fill:url(&quot;#m&quot;);" />
  <path d="m36.23866 41.93438 c0 0 0.778163 -0.778163 2.593879 -2.420953 c0.432313 -0.345851 0.864626 -0.778164 1.210476 -1.124015 c3.544968 -3.28558 6.398235 -8.386875 6.398235 -8.386875 c1.037552 -2.075103 1.383402 -2.939729 3.372043 -3.112655 c2.075103 -0.172925 3.458505 -0.259387 4.668982 -0.259387 c0.518776 0 0.691701 0.08646 0.778164 0.34585 c0.08646 0.172925 -0.08646 0.432313 -0.518776 0.691701 c-3.199118 2.248029 -7.8681 6.138847 -14.43926 11.24014 c-0.432313 0.345851 -0.864626 0.691701 -1.296939 0.951089 c-1.729253 1.29694 -2.680342 2.161566 -2.766804 2.075103 z" id="path122" stroke-width="0.864626" style="fill:url(&quot;#n&quot;);" />
</svg>