<?xml version="1.0" encoding="UTF-8"?>
<svg id="Calque_2" data-name="Calque 2" xmlns="http://www.w3.org/2000/svg" viewBox="0 0 490.45 82.99">
  <defs>
    <style>
      .cls-1 {
        fill: #fa7221;
        stroke-width: 0px;
      }
    </style>
  </defs>
  <g id="Calque_1-2" data-name="Calque 1">
    <g>
      <path class="cls-1" d="m86.06,31.12c-1.05-3.22-3.91-5.34-7.29-5.41l-21.18-.43-6.96-20.01c-1.11-3.2-4.02-5.26-7.4-5.26s-6.29,2.07-7.4,5.26l-6.96,20.01-21.18.43c-3.38.07-6.25,2.19-7.29,5.41-1.05,3.22.02,6.62,2.72,8.67l16.88,12.8-6.13,20.28c-.98,3.24.16,6.62,2.89,8.61,1.39,1.01,3,1.52,4.6,1.52s3.11-.47,4.48-1.43l17.39-12.1,17.39,12.1c2.71,1.89,6.41,1.85,9.08-.09,2.74-1.99,3.87-5.37,2.89-8.61l-6.13-20.28,16.88-12.8c2.7-2.04,3.76-5.45,2.72-8.67Zm-4.23,6.67l-18.08,13.71c-.11.08-.16.23-.12.37l6.57,21.72c.67,2.21-.11,4.51-1.97,5.86-.95.69-2.04,1.03-3.14,1.03s-2.12-.32-3.05-.97l-18.63-12.96c-.11-.08-.27-.08-.38,0l-18.62,12.96c-1.89,1.32-4.32,1.29-6.18-.06s-2.64-3.66-1.97-5.86l6.57-21.72c.04-.13,0-.28-.12-.37l-18.08-13.71c-1.84-1.39-2.56-3.71-1.85-5.9.71-2.19,2.66-3.64,4.96-3.68l22.69-.46c.14,0,.26-.09.31-.23l7.45-21.43c.76-2.18,2.73-3.58,5.04-3.58s4.28,1.41,5.04,3.58l7.45,21.43c.05.13.17.22.31.23l22.69.46c2.3.05,4.25,1.49,4.96,3.68.71,2.19-.01,4.51-1.85,5.9Z"/>
      <path class="cls-1" d="m41.61,64.5l-18.63,12.96c-2.21,1.54-5.11-.58-4.33-3.15l6.57-21.72c.34-1.14-.06-2.36-1-3.08l-18.08-13.71c-2.14-1.62-1.03-5.04,1.66-5.09l22.69-.46c1.19-.02,2.23-.78,2.62-1.9l7.45-21.43c.88-2.54,4.47-2.54,5.36,0l7.45,21.43c.39,1.12,1.43,1.88,2.62,1.9l22.69.46c2.69.05,3.8,3.47,1.66,5.09l-18.08,13.71c-.94.72-1.34,1.95-1,3.08l6.57,21.72c.78,2.57-2.13,4.68-4.33,3.15l-18.63-12.96c-.97-.68-2.27-.68-3.24,0Z"/>
      <path class="cls-1" d="m187.06,31.12c-1.05-3.22-3.91-5.34-7.29-5.41l-21.18-.43-6.96-20.01c-1.11-3.2-4.02-5.26-7.4-5.26s-6.29,2.07-7.4,5.26l-6.96,20.01-21.18.43c-3.38.07-6.25,2.19-7.29,5.41-1.05,3.22.02,6.62,2.72,8.67l16.88,12.8-6.13,20.28c-.98,3.24.16,6.62,2.89,8.61,1.39,1.01,3,1.52,4.6,1.52s3.11-.47,4.48-1.43l17.39-12.1,17.39,12.1c2.71,1.89,6.41,1.85,9.08-.09,2.74-1.99,3.87-5.37,2.89-8.61l-6.13-20.28,16.88-12.8c2.7-2.04,3.76-5.45,2.72-8.67Zm-4.23,6.67l-18.08,13.71c-.11.08-.16.23-.12.37l6.57,21.72c.67,2.21-.11,4.51-1.97,5.86-.95.69-2.04,1.03-3.14,1.03s-2.12-.32-3.05-.97l-18.63-12.96c-.11-.08-.27-.08-.38,0l-18.62,12.96c-1.89,1.32-4.32,1.29-6.18-.06s-2.64-3.66-1.97-5.86l6.57-21.72c.04-.13,0-.28-.12-.37l-18.08-13.71c-1.84-1.39-2.56-3.71-1.85-5.9.71-2.19,2.66-3.64,4.96-3.68l22.69-.46c.14,0,.26-.09.31-.23l7.45-21.43c.76-2.18,2.73-3.58,5.04-3.58s4.28,1.41,5.04,3.58l7.45,21.43c.05.13.17.22.31.23l22.69.46c2.3.05,4.25,1.49,4.96,3.68.71,2.19-.01,4.51-1.85,5.9Z"/>
      <path class="cls-1" d="m142.61,64.5l-18.63,12.96c-2.21,1.54-5.11-.58-4.33-3.15l6.57-21.72c.34-1.14-.06-2.36-1-3.08l-18.08-13.71c-2.14-1.62-1.03-5.04,1.66-5.09l22.69-.46c1.19-.02,2.23-.78,2.62-1.9l7.45-21.43c.88-2.54,4.47-2.54,5.36,0l7.45,21.43c.39,1.12,1.43,1.88,2.62,1.9l22.69.46c2.69.05,3.8,3.47,1.66,5.09l-18.08,13.71c-.94.72-1.34,1.95-1,3.08l6.57,21.72c.78,2.57-2.13,4.68-4.33,3.15l-18.63-12.96c-.97-.68-2.27-.68-3.24,0Z"/>
      <path class="cls-1" d="m288.06,31.12c-1.05-3.22-3.91-5.34-7.29-5.41l-21.18-.43-6.96-20.01c-1.11-3.2-4.02-5.26-7.4-5.26s-6.29,2.07-7.4,5.26l-6.96,20.01-21.18.43c-3.38.07-6.25,2.19-7.29,5.41-1.05,3.22.02,6.62,2.72,8.67l16.88,12.8-6.13,20.28c-.98,3.24.16,6.62,2.89,8.61,1.39,1.01,3,1.52,4.6,1.52s3.11-.47,4.48-1.43l17.39-12.1,17.39,12.1c2.71,1.89,6.41,1.85,9.08-.09,2.74-1.99,3.87-5.37,2.89-8.61l-6.13-20.28,16.88-12.8c2.7-2.04,3.76-5.45,2.72-8.67Zm-4.23,6.67l-18.08,13.71c-.11.08-.16.23-.12.37l6.57,21.72c.67,2.21-.11,4.51-1.97,5.86-.95.69-2.04,1.03-3.14,1.03s-2.12-.32-3.05-.97l-18.63-12.96c-.11-.08-.27-.08-.38,0l-18.62,12.96c-1.89,1.32-4.32,1.29-6.18-.06s-2.64-3.66-1.97-5.86l6.57-21.72c.04-.13,0-.28-.12-.37l-18.08-13.71c-1.84-1.39-2.56-3.71-1.85-5.9.71-2.19,2.66-3.64,4.96-3.68l22.69-.46c.14,0,.26-.09.31-.23l7.45-21.43c.76-2.18,2.73-3.58,5.04-3.58s4.28,1.41,5.04,3.58l7.45,21.43c.05.13.17.22.31.23l22.69.46c2.3.05,4.25,1.49,4.96,3.68.71,2.19-.01,4.51-1.85,5.9Z"/>
      <path class="cls-1" d="m243.61,64.5l-18.63,12.96c-2.21,1.54-5.11-.58-4.33-3.15l6.57-21.72c.34-1.14-.06-2.36-1-3.08l-18.08-13.71c-2.14-1.62-1.03-5.04,1.66-5.09l22.69-.46c1.19-.02,2.23-.78,2.62-1.9l7.45-21.43c.88-2.54,4.47-2.54,5.36,0l7.45,21.43c.39,1.12,1.43,1.88,2.62,1.9l22.69.46c2.69.05,3.8,3.47,1.66,5.09l-18.08,13.71c-.94.72-1.34,1.95-1,3.08l6.57,21.72c.78,2.57-2.13,4.68-4.33,3.15l-18.63-12.96c-.97-.68-2.27-.68-3.24,0Z"/>
      <path class="cls-1" d="m389.06,31.12c-1.05-3.22-3.91-5.34-7.29-5.41l-21.18-.43-6.96-20.01c-1.11-3.2-4.02-5.26-7.4-5.26s-6.29,2.07-7.4,5.26l-6.96,20.01-21.18.43c-3.38.07-6.25,2.19-7.29,5.41-1.05,3.22.02,6.62,2.72,8.67l16.88,12.8-6.13,20.28c-.98,3.24.16,6.62,2.89,8.61,1.39,1.01,3,1.52,4.6,1.52s3.11-.47,4.48-1.43l17.39-12.1,17.39,12.1c2.71,1.89,6.41,1.85,9.08-.09,2.74-1.99,3.87-5.37,2.89-8.61l-6.13-20.28,16.88-12.8c2.7-2.04,3.76-5.45,2.72-8.67Zm-4.23,6.67l-18.08,13.71c-.11.08-.16.23-.12.37l6.57,21.72c.67,2.21-.11,4.51-1.97,5.86-.95.69-2.04,1.03-3.14,1.03s-2.12-.32-3.05-.97l-18.63-12.96c-.11-.08-.27-.08-.38,0l-18.62,12.96c-1.89,1.32-4.32,1.29-6.18-.06s-2.64-3.66-1.97-5.86l6.57-21.72c.04-.13,0-.28-.12-.37l-18.08-13.71c-1.84-1.39-2.56-3.71-1.85-5.9.71-2.19,2.66-3.64,4.96-3.68l22.69-.46c.14,0,.26-.09.31-.23l7.45-21.43c.76-2.18,2.73-3.58,5.04-3.58s4.28,1.41,5.04,3.58l7.45,21.43c.05.13.17.22.31.23l22.69.46c2.3.05,4.25,1.49,4.96,3.68.71,2.19-.01,4.51-1.85,5.9Z"/>
      <path class="cls-1" d="m344.61,64.5l-18.63,12.96c-2.21,1.54-5.11-.58-4.33-3.15l6.57-21.72c.34-1.14-.06-2.36-1-3.08l-18.08-13.71c-2.14-1.62-1.03-5.04,1.66-5.09l22.69-.46c1.19-.02,2.23-.78,2.62-1.9l7.45-21.43c.88-2.54,4.47-2.54,5.36,0l7.45,21.43c.39,1.12,1.43,1.88,2.62,1.9l22.69.46c2.69.05,3.8,3.47,1.66,5.09l-18.08,13.71c-.94.72-1.34,1.95-1,3.08l6.57,21.72c.78,2.57-2.13,4.68-4.33,3.15l-18.63-12.96c-.97-.68-2.27-.68-3.24,0Z"/>
      <path class="cls-1" d="m490.06,31.12c-1.05-3.22-3.91-5.34-7.29-5.41l-21.18-.43-6.96-20.01c-1.11-3.2-4.02-5.26-7.4-5.26s-6.29,2.07-7.4,5.26l-6.96,20.01-21.18.43c-3.38.07-6.25,2.19-7.29,5.41-1.05,3.22.02,6.62,2.72,8.67l16.88,12.8-6.13,20.28c-.98,3.24.16,6.62,2.89,8.61,1.39,1.01,3,1.52,4.6,1.52s3.11-.47,4.48-1.43l17.39-12.1,17.39,12.1c2.71,1.89,6.41,1.85,9.08-.09,2.74-1.99,3.87-5.37,2.89-8.61l-6.13-20.28,16.88-12.8c2.7-2.04,3.76-5.45,2.72-8.67Zm-4.23,6.67l-18.08,13.71c-.11.08-.16.23-.12.37l6.57,21.72c.67,2.21-.11,4.51-1.97,5.86-.95.69-2.04,1.03-3.14,1.03s-2.12-.32-3.05-.97l-18.63-12.96c-.11-.08-.27-.08-.38,0l-18.62,12.96c-1.89,1.32-4.32,1.29-6.18-.06s-2.64-3.66-1.97-5.86l6.57-21.72c.04-.13,0-.28-.12-.37l-18.08-13.71c-1.84-1.39-2.56-3.71-1.85-5.9.71-2.19,2.66-3.64,4.96-3.68l22.69-.46c.14,0,.26-.09.31-.23l7.45-21.43c.76-2.18,2.73-3.58,5.04-3.58s4.28,1.41,5.04,3.58l7.45,21.43c.05.13.17.22.31.23l22.69.46c2.3.05,4.25,1.49,4.96,3.68.71,2.19-.01,4.51-1.85,5.9Z"/>
      <path class="cls-1" d="m445.61,64.5l-18.63,12.96c-2.21,1.54-5.11-.58-4.33-3.15l6.57-21.72c.34-1.14-.06-2.36-1-3.08l-18.08-13.71c-2.14-1.62-1.03-5.04,1.66-5.09l22.69-.46c1.19-.02,2.23-.78,2.62-1.9l7.45-21.43c.88-2.54,4.47-2.54,5.36,0l7.45,21.43c.39,1.12,1.43,1.88,2.62,1.9l22.69.46c2.69.05,3.8,3.47,1.66,5.09l-18.08,13.71c-.94.72-1.34,1.95-1,3.08l6.57,21.72c.78,2.57-2.13,4.68-4.33,3.15l-18.63-12.96c-.97-.68-2.27-.68-3.24,0Z"/>
    </g>
  </g>
</svg>