<?xml version="1.0" encoding="UTF-8"?><svg width="192" height="126" id="Calque_2" xmlns="http://www.w3.org/2000/svg" viewBox="0 0 96 63.62"><defs><style>.cls-1,.cls-2{stroke-width:0px;}.cls-2{fill:#cc9dc8;}</style></defs><g id="_07_Bubble"><path class="cls-2" d="m94.2,17.38c-.15,2.37-.79,4.71-1.71,6.95-1.9,4.46-4.65,8.6-7.97,12.17s-7.19,6.63-11.41,9.07c-4.21,2.46-8.79,4.27-13.52,5.48-12.77,3.29-26.64,2.16-36.01-1.28-6.84-2.53-12.63-6.59-16.53-12.76-2.51-3.94-3.96-8.56-3.67-13.18.05-3.2,1.28-6.84,3.43-9.45,3.74-4.51,9.82-6.69,15.49-8.1,2.38-.59,4.8-1.06,7.25-1.5,2.44-.43,4.88-.83,7.34-1.16,9.83-1.36,19.78-1.86,29.7-1.51,4.27.18,10.69.61,14.83,1.26,3.6.57,7.12,1.58,9.64,4.24,2.41,2.6,3.36,6.28,3.14,9.77Z"/><path class="cls-1" d="m92.22,6.5c-2.79-2.88-6.58-3.99-10.55-4.67-5-.76-9.97-1.26-14.99-1.56-10.03-.56-20.11-.25-30.09.93-2.5.28-4.99.65-7.48,1.03-2.47.4-4.96.83-7.44,1.39-6.42,1.46-12.95,3.79-17.23,8.78C1.76,15.51.22,19.81.08,23.61c-.23,2.67.06,5.4.75,7.98.69,2.59,1.77,5.06,3.16,7.32,4.26,6.88,10.7,11.32,18.47,14.03,10.08,3.5,24.6,4.38,37.83.72,4.92-1.36,9.68-3.34,14.06-5.99,4.37-2.64,8.37-5.91,11.78-9.71,3.41-3.81,6.2-8.16,8.13-12.92.94-2.39,1.6-4.94,1.72-7.56.18-3.98-1.01-8.08-3.76-10.98Zm1.98,10.88c-.15,2.37-.79,4.71-1.71,6.95-1.9,4.46-4.65,8.6-7.97,12.17s-7.19,6.63-11.41,9.07c-4.21,2.46-8.79,4.27-13.52,5.48-12.77,3.29-26.64,2.16-36.01-1.28-6.84-2.53-12.63-6.59-16.53-12.76-2.51-3.94-3.96-8.56-3.67-13.18.05-3.2,1.28-6.84,3.43-9.45,3.74-4.51,9.82-6.69,15.49-8.1,2.38-.59,4.8-1.06,7.25-1.5,2.44-.43,4.88-.83,7.34-1.16,9.83-1.36,19.78-1.86,29.7-1.51,4.27.18,10.69.61,14.83,1.26,3.6.57,7.12,1.58,9.64,4.24,2.41,2.6,3.36,6.28,3.14,9.77Z"/><path class="cls-1" d="m82.14,58.33c-.78-.61-1.85-.89-2.78-.72-1.02.19-2.23.98-2.49,2.28-.17.85.13,1.8.79,2.56.65.74,1.56,1.17,2.46,1.17.06,0,.13,0,.19-.01,1.69-.12,3.08-1.63,2.97-3.25-.05-.78-.46-1.5-1.14-2.03Zm-3.68,3.41c-.45-.5-.65-1.12-.55-1.65.16-.77.94-1.3,1.64-1.43.12-.02.25-.03.38-.03.54,0,1.11.19,1.56.54.44.34.69.79.73,1.27.06,1.01-.9,2.03-1.98,2.11-.63.04-1.3-.26-1.78-.81Z"/><path class="cls-2" d="m82.22,60.44c.06,1.01-.9,2.03-1.98,2.11-.63.04-1.3-.26-1.78-.81-.45-.5-.65-1.12-.55-1.65.16-.77.94-1.3,1.64-1.43.12-.02.25-.03.38-.03.54,0,1.11.19,1.56.54.44.34.69.79.73,1.27Z"/><path class="cls-2" d="m75.01,57.77c-1.61,1.41-4.01,2.64-5.95,1.88-1.67-.66-2.92-2.71-2.63-4.31.43-2.27,3.82-3.25,6.15-3.25h.27c1.63.06,4.16.66,4.44,1.76.19.75-.54,2.38-2.28,3.92Z"/><path class="cls-1" d="m78.67,53.5c-.27-1.05-1.23-1.73-2.37-2.17s-2.45-.62-3.4-.66c-2.7-.09-7.23,1.02-7.86,4.41-.43,2.28,1.18,4.98,3.5,5.89.58.23,1.17.33,1.78.33,2.05,0,4.15-1.16,5.63-2.47,1.53-1.35,3.17-3.56,2.72-5.33Zm-3.66,4.27c-1.61,1.41-4.01,2.64-5.95,1.88-1.67-.66-2.92-2.71-2.63-4.31.43-2.27,3.82-3.25,6.15-3.25h.27c1.63.06,4.16.66,4.44,1.76.19.75-.54,2.38-2.28,3.92Z"/></g></svg>
