<?xml version="1.0" encoding="utf-8"?>
<!DOCTYPE svg PUBLIC "-//W3C//DTD SVG 1.1//EN" "http://www.w3.org/Graphics/SVG/1.1/DTD/svg11.dtd">
<svg version="1.1" xmlns="http://www.w3.org/2000/svg" xmlns:xlink="http://www.w3.org/1999/xlink" xmlns:xml="http://www.w3.org/XML/1998/namespace" xmlns:cc="http://creativecommons.org/ns#" xmlns:dc="http://purl.org/dc/elements/1.1/" xmlns:rdf="http://www.w3.org/1999/02/22-rdf-syntax-ns#" width="1000" height="438" viewBox="0, 0, 500, 219.323" id="svg8">
  <title id="title8">MINI logo</title>
  <metadata id="metadata5" />
  <g id="g5">
    <path d="m314.3591 85.0631 v49.1214 h11.0279 v-49.1214 z" id="path5" style="fill:#120A08;" />
    <path d="m259.667 85.0631 v49.1214 h10.2458 v-32.0319 l22.0191 32.0319 h11.0655 v-49.1214 h-10.2455 v32.8029 l-22.3534 -32.8029 z" id="path4" style="fill:#120A08;" />
    <path d="m238.0595 85.0631 v49.1214 h11.0277 v-49.1214 z" id="path3" style="fill:#120A08;" />
    <path d="m174.6131 85.0631 v49.1214 h10.244 v-38.6665 l10.8055 38.6665 h10.6177 l10.8417 -38.6665 v38.6665 h10.2458 v-49.1214 h-16.5424 l-9.798 33.507 l-9.9098 -33.507 z" id="path2" style="fill:#120A08;" />
  </g>
  <path d="m250 0 a109.6238 109.6238 0 0 0 -92.3926 50.65234 h-157.6074 l15.68945 15.68946 h133.7304 a109.6238 109.6238 0 0 0 -6.0195 18.28125 h-109.4316 l15.5 15.49805 h91.39455 a109.6238 109.6238 0 0 0 -0.4863 9.5039 a109.6238 109.6238 0 0 0 0.4375 8.7773 h-73.0645 l15.49805 15.4981 h59.95115 a109.6238 109.6238 0 0 0 5.7813 18.2793 h-47.4532 l15.6895 15.6914 h40.0684 a109.6238 109.6238 0 0 0 92.7148 51.3769 a109.6238 109.6238 0 0 0 92.7148 -51.3769 h40.0664 l15.6915 -15.6914 h-47.4532 a109.6238 109.6238 0 0 0 5.7813 -18.2793 h59.9512 l15.498 -15.4981 h-73.0645 a109.6238 109.6238 0 0 0 0.4375 -8.7773 a109.6238 109.6238 0 0 0 -0.4843 -9.5039 h91.3925 l15.5 -15.49805 h-109.4316 a109.6238 109.6238 0 0 0 -6.0195 -18.28125 h133.7304 l15.6895 -15.68946 h-157.6074 a109.6238 109.6238 0 0 0 -92.3926 -50.65234 z m0 14.85938 a94.76514 94.76514 0 0 1 94.7637 94.76562 a94.76514 94.76514 0 0 1 -94.7637 94.7656 a94.76514 94.76514 0 0 1 -94.7656 -94.7656 a94.76514 94.76514 0 0 1 94.7656 -94.76562 z" id="path1" style="fill:#120A08;" />
</svg>