<?xml version="1.0" encoding="utf-8"?>
<!DOCTYPE svg PUBLIC "-//W3C//DTD SVG 1.1//EN" "http://www.w3.org/Graphics/SVG/1.1/DTD/svg11.dtd">
<svg version="1.1" xmlns="http://www.w3.org/2000/svg" xmlns:xlink="http://www.w3.org/1999/xlink" xmlns:xml="http://www.w3.org/XML/1998/namespace" width="993" height="175" viewBox="0.952, 0.1363636, 135.04799, 23.86364">
  <metadata />
  <path d="M0 0 h158 v48 H0 V0 z" style="fill:none;" />
  <path d="M20.354 0.804 H1.004 v4.278 h7.142 v18.241 h5.067 V5.082 h7.141 V0.804 m18.921 14.874 a6.206 6.206 0 0 1 -4.678 3.826 a6.807 6.807 0 0 1 -1.175 0.104 c-0.399 0 -0.792 -0.038 -1.172 -0.104 a6.197 6.197 0 0 1 -4.676 -3.826 a9.886 9.886 0 0 1 -0.682 -3.614 c0 -1.276 0.243 -2.498 0.682 -3.617 c0.791 -2 2.56 -3.447 4.676 -3.825 a6.474 6.474 0 0 1 2.347 0 a6.203 6.203 0 0 1 4.678 3.824 a9.95 9.95 0 0 1 0 7.232 M33.421 0.127 c-6.589 0 -11.936 5.344 -11.936 11.937 c0 6.588 5.347 11.933 11.936 11.933 c6.594 0 11.937 -5.345 11.937 -11.933 c0 -6.593 -5.343 -11.937 -11.937 -11.937 z m12.017 0.677 h5.968 l5.573 9.682 L62.552 0.804 h5.966 l-9.006 14.188 v8.331 h-5.066 v-8.331 L45.438 0.804 M80.549 19.61 c0.398 0 0.793 -0.04 1.172 -0.106 a6.193 6.193 0 0 0 4.676 -3.824 a9.877 9.877 0 0 0 0 -7.231 a6.197 6.197 0 0 0 -4.676 -3.826 a6.674 6.674 0 0 0 -2.35 0 a6.193 6.193 0 0 0 -4.674 3.825 a9.872 9.872 0 0 0 -0.684 3.615 c0 1.276 0.243 2.495 0.684 3.616 a6.188 6.188 0 0 0 4.674 3.824 a6.72 6.72 0 0 0 1.178 0.107 m-11.938 -7.547 c0 -6.592 5.342 -11.938 11.938 -11.938 c6.589 0 11.936 5.344 11.936 11.938 C92.484 18.651 87.138 24 80.549 24 c-6.596 0 -11.938 -5.349 -11.938 -11.937 z m58.432 2.347 l-3.316 -8.897 l-3.32 8.897 h6.636 m1.47 3.94 h-9.585 l-1.844 4.959 h-5.637 L120.57 0.788 h6.304 L136 23.309 h-5.63 l-1.857 -4.959 z M112.936 0.804 h-19.35 v4.278 h7.145 l-0.002 18.241 h5.069 l-0.002 -18.241 h7.14 V0.804" style="fill:#EB0A1E;" />
</svg>