<?xml version="1.0" encoding="UTF-8"?><svg id="Calque_2" xmlns="http://www.w3.org/2000/svg" width="134.34" height="34.42" viewBox="0 0 134.34 34.42"><defs><style>.cls-1{fill:#34ad5c;}.cls-1,.cls-2{stroke-width:0px;}.cls-2{fill:#fff;}</style></defs><g id="Layer_1"><path class="cls-1" d="M133.89,1.15c0-.17-.07-.34-.2-.46-.12-.12-.28-.18-.45-.18h-.01l-31.46.45s.02.01.02.02c.31.35.48.79.45,1.25l-1,21.17.14,9.86c0,.36.26.68.66.64l31.65-.45c.36,0,.65-.3.64-.66l-.45-31.65h0Z"/><path class="cls-1" d="M100.94,1.67c-.11-.1-.25-.17-.4-.17h-.14s-.54-.03-.54-.03l-30.94-1.46c-.39.02-.67.26-.68.62l-.36,7.66,1.04,23.97c.01.25-.04.5-.13.73l30.19,1.43c.18,0,.34-.05.47-.17.13-.12.2-.28.21-.45l.49-10.39.42-8.86.42-8.86.17-3.5c0-.17-.05-.34-.17-.47-.02-.02-.04-.03-.05-.04Z"/><path class="cls-1" d="M67.05,14.31l-.26-6-.33-7.62c-.01-.35-.3-.62-.65-.62h-.03l-31.62,1.37s-.07.02-.11.03l.4,21.83.45,10.44c0,.18.08.33.21.45.13.12.29.19.47.17l30.26-1.31.58-.03.78-.03c.08,0,.17-.03.24-.06.24-.11.4-.35.38-.62l-.52-11.99-.26-6h0Z"/><path class="cls-1" d="M32.95,1.08c0-.07-.02-.12-.04-.18-.03-.1-.08-.2-.16-.27-.12-.12-.28-.18-.45-.18h-.01L.64,1.03C.28,1.03,0,1.33,0,1.69l.58,31.64c0,.36.35.62.67.64l31.65-.58c.36,0,.65-.3.64-.67l-.17-9.37-.41-22.28h0Z"/><path class="cls-2" d="M17.22,10.52c1.94.14,2.48,1.31,2.56,2.69l5.71.41c.04-4.07-2.58-6.88-7.99-7.26-4.58-.33-8.34,1.69-8.65,6.1-.22,3.07,1.27,5.26,6.61,7.12,2.93,1.04,3.92,1.82,3.81,3.4-.09,1.2-.78,2-2.8,1.85-1.99-.14-2.95-1.31-3.06-3.1l-5.76-.41c-.07,4.39,2.92,7.33,8.33,7.71,5.8.42,9.1-2.11,9.4-6.28.24-3.32-1.21-5.63-6.86-7.69-2.87-1.04-3.81-1.5-3.72-2.86.08-1.17.94-1.8,2.42-1.69h0Z"/><path class="cls-2" d="M48.5,5.95l-8.7,21.07,5.89.7,1.63-4.28,6.11.73.69,4.56,6.25.75-3.78-22.56-8.08-.96h0ZM48.81,18.86c1.19-3.01,2.31-6.08,3.04-8.43h.09c.18,2.31.57,5.54,1.06,8.93l-4.18-.5h0Z"/><polygon class="cls-2" points="83.56 6.63 77.51 6.85 78.32 28.79 93.04 28.24 93.48 23.64 84.21 23.98 83.56 6.63"/><polygon class="cls-2" points="117.09 24.25 116.8 19.78 125.98 19.18 125.69 14.62 116.5 15.22 116.26 11.44 125.81 10.82 125.52 6.26 110.14 7.25 111.56 29.16 126.93 28.16 127.32 23.59 117.09 24.25"/></g></svg>