<?xml version="1.0" encoding="utf-8"?>
<!DOCTYPE svg PUBLIC "-//W3C//DTD SVG 1.1//EN" "http://www.w3.org/Graphics/SVG/1.1/DTD/svg11.dtd">
<svg version="1.1" xmlns="http://www.w3.org/2000/svg" xmlns:xlink="http://www.w3.org/1999/xlink" xmlns:xml="http://www.w3.org/XML/1998/namespace" width="999" height="883" viewBox="0.45457003, 0, 454.11545, 402.42" id="Layer_2" data-name="Layer 2">
  <path d="M285 376.14 h34.43 a0.1 0.1 0 0 0 0.1 -0.09 v-11 a0.1 0.1 0 0 0 -0.1 -0.1 H285 a0.09 0.09 0 0 1 -0.1 -0.08 V352.49 a0.1 0.1 0 0 1 0.08 -0.1 h38 a0.08 0.08 0 0 0 0.1 -0.08 V340.49 a0.09 0.09 0 0 0 -0.08 -0.1 H271.26 a0.09 0.09 0 0 0 -0.09 0.09 h0 v60.76 a0.11 0.11 0 0 0 0.09 0.1 h51.92 a0.1 0.1 0 0 0 0.1 -0.1 v-11.8 a0.1 0.1 0 0 0 -0.1 -0.1 H285 a0.09 0.09 0 0 1 -0.1 -0.08 h0 v-13 a0.11 0.11 0 0 1 0.07 -0.13 Z" transform="translate(-1.7, -0.1)" />
  <path d="M191.37 342.37 c-3.38 -1.4 -7.76 -2 -13.34 -2 H143.5 a0.1 0.1 0 0 0 -0.1 0.1 v60.76 a0.12 0.12 0 0 0 0.1 0.1 h13.74 a0.1 0.1 0 0 0 0.1 -0.1 V382.64 a0.1 0.1 0 0 1 0.08 -0.1 H178 c8 0 13.94 -1.6 17.92 -5 c4 -3.2 6 -8.59 6 -16 c0 -5.39 -0.8 -9.59 -2.59 -12.59 A13.77 13.77 0 0 0 191.37 342.37 Z m-5.57 26.18 c-1.8 1.6 -4.58 2.2 -8.56 2.2 H157.43 a0.11 0.11 0 0 1 -0.09 -0.1 V352.06 a0.11 0.11 0 0 1 0.09 -0.1 h19.81 c3 0 5.17 0.2 6.76 1 a7.22 7.22 0 0 1 3.39 3 a13.21 13.21 0 0 1 1 5.19 C188.38 364.75 187.39 367.15 185.8 368.55 Z" transform="translate(-1.7, -0.1)" />
  <path d="M56.83 342.77 c-5.17 -2.4 -11.94 -3.6 -19.9 -3.6 c-8.16 0 -14.73 1.2 -19.9 3.6 A23 23 0 0 0 5.48 353.36 C2.9 358 1.7 363.75 1.7 370.75 c0 7.19 1.2 13 3.78 17.58 A24 24 0 0 0 17 398.93 c5.17 2.4 11.74 3.59 19.9 3.59 s14.73 -1.19 19.9 -3.59 a24.32 24.32 0 0 0 11.74 -10.6 c2.59 -4.59 3.78 -10.39 3.78 -17.58 c0 -7 -1.19 -12.79 -3.78 -17.39 A23.32 23.32 0 0 0 56.83 342.77 Z m-1 39 A11.78 11.78 0 0 1 49.26 388 c-3 1.4 -7.17 2.2 -12.34 2.2 a34.14 34.14 0 0 1 -12.34 -2 h0 A13.66 13.66 0 0 1 18 381.77 A27.71 27.71 0 0 1 16 371 a28.75 28.75 0 0 1 2 -11 a11.89 11.89 0 0 1 6.57 -6.2 c3 -1.4 7 -2.2 12.34 -2.2 a34.23 34.23 0 0 1 12.53 2 h0 a12.51 12.51 0 0 1 6.37 6.4 a27.35 27.35 0 0 1 2 10.79 a27.86 27.86 0 0 1 -2 11 Z" transform="translate(-1.7, -0.1)" />
  <path d="M419.45 388.84 V340.49 a0.09 0.09 0 0 0 -0.1 -0.1 H405.81 a0.1 0.1 0 0 0 -0.1 0.1 v60.76 a0.12 0.12 0 0 0 0.1 0.1 h50.37 a0.11 0.11 0 0 0 0.09 -0.1 v-12.2 a0.11 0.11 0 0 0 -0.09 -0.1 H419.55 a0.09 0.09 0 0 1 -0.1 -0.08 Z" transform="translate(-1.7, -0.1)" />
  <path d="M454.15 166.89 l-248.65 -27 h-0.06 l-68.06 35.6 a0.1 0.1 0 0 0 0 0.19 h300.4 l16.36 -8.54 a0.13 0.13 0 0 0 0.13 -0.12 a0.12 0.12 0 0 0 -0.12 -0.13 Z" transform="translate(-1.7, -0.1)" />
  <path d="M229 10 A129.94 129.94 0 0 1 358.91 139.93 c0 2.2 -0.05 4.38 -0.16 6.56 l10 1.08 c0.14 -2.53 0.21 -5.07 0.21 -7.64 A140 140 0 0 0 96.7 94.2 h10.67 A130 130 0 0 1 229 10 Z" transform="translate(-1.7, -0.1)" />
  <path d="M229 269.87 A129.94 129.94 0 0 1 99 139.93 c0 -2.21 0.06 -4.4 0.17 -6.59 l-10 -1.08 q-0.21 3.81 -0.21 7.67 a140 140 0 0 0 272.28 45.7 H350.6 A130 130 0 0 1 229 269.87 Z" transform="translate(-1.7, -0.1)" />
  <path d="M252.44 139.9 h0.05 l68.07 -35.5 a0.1 0.1 0 0 0 0.06 -0.13 a0.09 0.09 0 0 0 -0.06 -0.06 H20.12 L3.78 112.75 a0.1 0.1 0 0 0 0 0.19 Z" transform="translate(-1.7, -0.1)" />
</svg>