<?xml version="1.0" encoding="UTF-8"?><svg id="Calque_2" xmlns="http://www.w3.org/2000/svg" width="113.2" height="72.86" viewBox="0 0 113.2 72.86"><defs><style>.cls-1{fill:#e62e2e;}.cls-1,.cls-2{stroke-width:0px;}.cls-2{fill:#fff;}</style></defs><g id="Layer_1"><rect class="cls-2" x="1" y="1.11" width="111.2" height="32.59"/><path class="cls-1" d="M0,0v34.59h0v38.27h113.2V0H0ZM2,2h109.2v30.59H2V2Z"/><path class="cls-2" d="M9.23,57.68l-.02-.27h5.53l.02.13c.16,1.33,1.72,2.28,4.06,2.28s3.74-.97,3.74-2.34h0c0-1.22-1.01-1.79-3.68-2.28l-2.35-.43c-4.81-.88-6.9-3.03-6.9-6.39h0c.02-4.24,3.8-6.96,9.05-6.96,5.72,0,8.82,2.73,9.17,6.54l.02.18h-5.37l-.03-.18c-.24-1.34-1.66-2.24-3.76-2.24s-3.31.88-3.31,2.16h0c0,1.24,1.04,1.91,3.5,2.37l2.35.43c4.85.89,7.06,2.73,7.06,6.21h0c0,4.42-3.58,7.22-9.58,7.22-5.68,0-9.25-2.45-9.49-6.45h0Z"/><path class="cls-2" d="M31.61,52.78v-.03c0-6.98,4.39-11.33,11.24-11.33s11.22,4.34,11.22,11.33v.03c0,7-4.37,11.34-11.22,11.34s-11.24-4.34-11.24-11.34ZM48.17,52.78v-.03c0-4.13-2.13-6.79-5.32-6.79s-5.35,2.66-5.35,6.79v.03c0,4.15,2.12,6.81,5.35,6.81s5.32-2.66,5.32-6.81Z"/><path class="cls-2" d="M57.31,52.78v-.03c0-6.98,4.39-11.33,11.24-11.33s11.22,4.34,11.22,11.33v.03c0,7-4.37,11.34-11.22,11.34s-11.24-4.34-11.24-11.34ZM73.87,52.78v-.03c0-4.13-2.13-6.79-5.32-6.79s-5.35,2.66-5.35,6.79v.03c0,4.15,2.12,6.81,5.35,6.81s5.32-2.66,5.32-6.81Z"/><path class="cls-2" d="M84.08,42.01h4.63l9.5,12.12h.28v-12.12h5.49v21.54h-4.59l-9.54-12.24h-.28v12.24h-5.49s0-21.54,0-21.54Z"/><path class="cls-1" d="M9.75,17.41v-.02c0-4.76,2.84-7.69,7.48-7.69,3.89,0,6.73,2.36,6.96,5.59v.18h-3.78v-.09c-.23-1.53-1.48-2.6-3.17-2.6-2.15,0-3.47,1.74-3.47,4.6v.02c0,2.88,1.32,4.63,3.48,4.63,1.69,0,2.88-1,3.15-2.51l.02-.11h3.78v.16c-.26,3.26-3,5.54-6.97,5.54-4.63,0-7.48-2.94-7.48-7.7h0Z"/><path class="cls-1" d="M26.32,17.41v-.02c0-4.74,2.98-7.69,7.63-7.69s7.62,2.95,7.62,7.69v.02c0,4.75-2.97,7.7-7.62,7.7s-7.63-2.95-7.63-7.7ZM37.57,17.41v-.02c0-2.81-1.45-4.61-3.61-4.61s-3.63,1.8-3.63,4.61v.02c0,2.82,1.44,4.62,3.63,4.62s3.61-1.8,3.61-4.62Z"/><path class="cls-1" d="M44.5,10.1h4.48l3.74,9.92h.2l3.73-9.92h4.47v14.62h-3.45v-9.31h-.22l-3.52,9.31h-2.24l-3.52-9.31h-.21v9.31h-3.46v-14.62h0Z"/><path class="cls-1" d="M64.79,10.1h3.93v14.62h-3.93v-14.62Z"/><path class="cls-1" d="M72.37,10.1h3.14l6.45,8.23h.19v-8.23h3.73v14.62h-3.12l-6.47-8.31h-.19v8.31h-3.73v-14.62h0Z"/><path class="cls-1" d="M88.81,17.4v-.02c0-4.74,2.87-7.68,7.51-7.68,3.77,0,6.57,2.09,6.97,5.07v.1s-3.87,0-3.87,0l-.02-.09c-.33-1.23-1.52-2-3.08-2-2.2,0-3.52,1.72-3.52,4.56v.02c0,2.89,1.46,4.67,3.71,4.67,1.79,0,3.02-.99,3.13-2.49v-.24s-2.82,0-2.82,0v-2.55h6.62v1.89c0,4.02-2.65,6.48-7.02,6.48-4.76,0-7.62-2.91-7.62-7.71h0Z"/></g></svg>