<?xml version="1.0" encoding="utf-8"?>
<!DOCTYPE svg PUBLIC "-//W3C//DTD SVG 1.1//EN" "http://www.w3.org/Graphics/SVG/1.1/DTD/svg11.dtd">
<svg version="1.1" xmlns="http://www.w3.org/2000/svg" xmlns:xlink="http://www.w3.org/1999/xlink" xmlns:xml="http://www.w3.org/XML/1998/namespace" width="912" height="319" viewBox="110.00001, 545, 2280, 797.5" id="Layer_1" data-name="Layer 1">
  <defs>
    <style>
      .cls-1 {
        fill: #000;
        fill-rule: evenodd;
        stroke-width: 0px;
      }
    </style>
  </defs>
  <path d="M1991.2 545 c-89.7 0 -176.8 30.1 -247.1 85.8 c-70.3 -55.7 -157.4 -86 -247.1 -85.8 c-89.7 0 -176.8 30.1 -247.1 85.8 c-70.3 -55.7 -157.4 -86 -247.1 -85.8 c-89.7 0 -176.8 30.1 -247.1 85.8 c-70.3 -55.7 -157.4 -86 -247.1 -85.8 c-220.1 0 -398.5 178.4 -398.5 398.5 s178.4 398.5 398.5 398.5 c89.7 0 176.8 -30.1 247.1 -85.8 c70.3 55.7 157.4 86 247.1 85.8 c89.7 0.2 176.8 -30.1 247.1 -85.8 c70.3 55.7 157.4 86 247.1 85.8 c89.7 0 176.8 -30.1 247.1 -85.8 c70.3 55.7 157.4 86 247.1 85.8 c220.1 0 398.5 -178.4 398.5 -398.5 s-178.4 -398.5 -398.5 -398.5 Z M690.6 1191.1 c-50.8 37 -114.2 59.6 -181.9 59.6 c-169.8 0 -307.2 -137.4 -307.2 -307.2 s137.4 -307.2 307.2 -307.2 s131.1 22.6 181.9 59.7 c-56 70.3 -86.4 157.6 -86.2 247.5 c0 89.9 30.4 177.1 86.2 247.5 h0 Z M755.9 1126 c-39.2 -52.8 -60.2 -116.8 -60.1 -182.5 c-0.2 -65.7 20.9 -129.8 60.1 -182.5 c39.2 52.8 60.3 116.8 60.1 182.5 c0 65.7 -21 129.7 -60.1 182.5 Z M1184.8 1191.1 c-52.8 38.8 -116.6 59.7 -182.1 59.6 c-65.4 0 -129.1 -20.7 -181.7 -59.6 c55.8 -70.4 86.2 -157.7 86.2 -247.5 c0.2 -89.9 -30.2 -177.2 -86.2 -247.5 c52.6 -38.8 116.3 -59.7 181.7 -59.6 c68.2 0 131.1 22 182.1 59.6 c-56 70.3 -86.4 157.6 -86.2 247.5 c0 89.9 30.4 177.1 86.2 247.5 Z M1250 1126 c-39.2 -52.8 -60.2 -116.8 -60.1 -182.5 c-0.2 -65.7 20.9 -129.8 60.1 -182.5 c39.2 52.8 60.3 116.8 60.1 182.5 c0 65.7 -21 129.7 -60.1 182.5 Z M1678.9 1191.1 c-51 37.5 -113.9 59.6 -182.1 59.6 s-130.7 -22.1 -181.7 -59.6 c55.8 -70.4 86.2 -157.7 86.2 -247.5 c0.2 -89.9 -30.2 -177.2 -86.2 -247.5 c51 -37.5 113.5 -59.6 181.7 -59.6 s131.1 22 182.1 59.6 c-56 70.3 -86.4 157.6 -86.2 247.5 c0 89.9 30.4 177.1 86.2 247.5 Z M1744.2 1126 c-39.2 -52.8 -60.2 -116.8 -60.1 -182.5 c-0.2 -65.7 20.9 -129.8 60.1 -182.5 c39.2 52.8 60.3 116.8 60.1 182.5 c0 65.7 -21 129.7 -60.1 182.5 Z M1991.2 1250.7 c-67.7 0 -131.1 -22.6 -181.9 -59.6 c55.8 -70.5 86.2 -157.7 86.2 -247.5 c0.2 -89.9 -30.2 -177.2 -86.2 -247.5 c50.8 -37 114.2 -59.7 181.9 -59.7 c169.8 0 307.2 137.4 307.2 307.2 s-137.4 307.2 -307.2 307.2 h0 Z" fill-rule="evenodd" stroke-width="0px" class="cls-1" style="fill:black;" />
</svg>