<?xml version="1.0" encoding="utf-8"?>
<!DOCTYPE svg PUBLIC "-//W3C//DTD SVG 1.1//EN" "http://www.w3.org/Graphics/SVG/1.1/DTD/svg11.dtd">
<svg version="1.1" xmlns="http://www.w3.org/2000/svg" xmlns:xlink="http://www.w3.org/1999/xlink" xmlns:xml="http://www.w3.org/XML/1998/namespace" width="981" height="981" viewBox="0.75101215, 0.9430001, 184.18573, 185.0166" id="Layer_2" data-name="Layer 2">
  <defs>
    <style>
      .cls-1 {
        fill: #ffbb57;
      }

      .cls-1, .cls-2 {
        stroke-width: 0px;
      }

      .cls-2 {
        fill: #FFFFFF; fill-opacity:0.002;
        
      }
    </style>
  </defs>
  <g id="Layer_1-2_unfilled" data-name="Layer 1-2">
    <path d="m92.8 185.7 C41.8 185.7 0.4 144.3 0.4 93.4 S41.8 1 92.8 1 s92.4 41.4 92.4 92.4 s-41.4 92.4 -92.4 92.4 h0 Z m0 -182.7 C43 3 2.4 43.5 2.4 93.4 s40.5 90.4 90.4 90.4 s90.4 -40.5 90.4 -90.4 S142.6 3 92.8 3 Z m0 142.1 c-28.5 0 -51.8 -23.2 -51.8 -51.8 s23.2 -51.8 51.8 -51.8 s51.8 23.2 51.8 51.8 s-23.2 51.8 -51.8 51.8 Z m0 -101.6 c-27.4 0 -49.8 22.3 -49.8 49.8 s22.3 49.8 49.8 49.8 s49.8 -22.3 49.8 -49.8 s-22.3 -49.8 -49.8 -49.8 Z" stroke-width="0px" class="cls-1" style="fill:#FFBB57;" />
  </g>
  <path d="m92.8 3 C43 3 2.4 43.5 2.4 93.4 s40.5 90.4 90.4 90.4 s90.4 -40.5 90.4 -90.4 S142.6 3 92.8 3 Z m0 142.1 c-28.6 0 -51.8 -23.2 -51.8 -51.8 s23.2 -51.8 51.8 -51.8 s51.8 23.2 51.8 51.8 s-23.2 51.8 -51.8 51.8 Z" stroke-width="0px" fill-opacity="0" class="cls-2" style="fill:white;" />
</svg>