<?xml version="1.0" encoding="utf-8"?>
<!DOCTYPE svg PUBLIC "-//W3C//DTD SVG 1.1//EN" "http://www.w3.org/Graphics/SVG/1.1/DTD/svg11.dtd">
<svg version="1.1" xmlns="http://www.w3.org/2000/svg" xmlns:xlink="http://www.w3.org/1999/xlink" xmlns:xml="http://www.w3.org/XML/1998/namespace" width="918" height="900" viewBox="20.5, 25, 459.00003, 450" id="Layer_1" data-name="Layer 1">
  <defs>
    <style>
      .cls-1 {
        clip-path: url(#clippath);
      }

      .cls-2 {
        fill: none;
      }

      .cls-2, .cls-3 {
        stroke-width: 0px;
      }

      .cls-3 {
        fill: #14120e;
      }
    </style>
    <clipPath id="clippath">
      <rect width="500" height="500" stroke-width="0px" class="cls-2" style="fill:none;" />
    </clipPath>
  </defs>
  <g clip-path="url(&quot;#clippath&quot;)" class="cls-1">
    <path d="M397.7 422.5 c-5.2 0 -10.5 0 -15.7 0 c-1 0 -2.1 -0.9 -2.5 -1.8 c-0.8 -2 0.2 -4.7 2.5 -4.8 c5.4 -0.2 10.8 -0.1 16.2 0 c1.2 0 2.4 1.6 2.5 2.8 c0 1.5 -0.4 3 -2 3.6 c-0.2 0 -0.7 0.2 -1 0.2" stroke-width="0px" class="cls-3" style="fill:#14120E;" />
    <path d="M247.1 365.6 c-9.8 -0.3 -19.5 -1.8 -28.9 -4.6 c-18.1 -5.4 -34.7 -15.3 -48.6 -28 c-7.4 -6.7 -14 -14.2 -19.9 -22.2 c-15.7 -21.2 -26.1 -45.9 -31.6 -71.6 c-4.8 -22.1 -5.6 -44.8 -3.3 -67.2 c2.7 -26.7 11.2 -53.3 24.7 -76.5 c5.3 -9 11.3 -17.6 18.2 -25.5 c12.7 -14.6 28.1 -26.8 45.8 -34.8 c8.9 -4.1 18.3 -6.9 28 -8.6 c16.8 -2.9 34.2 -1.7 50.5 3.1 c17.9 5.4 34.3 15.2 48.1 27.7 c14.8 13.5 26.9 29.9 35.8 47.8 c2.5 5.1 4.8 10.4 7 15.7 c8 20.1 12.7 43.6 13.5 65.2 c0.6 16.4 -0.4 32.9 -3.6 49 c-3.2 16.1 -8.2 31.7 -15.2 46.6 c-10.6 22.7 -26.1 42.9 -45.8 58.4 c-10.8 8.5 -23.2 15.4 -36.3 19.7 c-8.5 2.8 -17.1 4.5 -26 5.4 c-4.1 0.4 -8.2 0.5 -12.3 0.4 M249.9 100 c39.9 29.8 79.8 59.6 119.8 89.3 c0.5 0.4 0.6 0 0.5 -0.6 c-0.2 -2.6 -0.3 -5.2 -0.5 -7.8 c-1.4 -20.3 -6.1 -40.6 -14.2 -59.3 c-3.5 -8 -7.4 -15.7 -12.1 -23.1 c-4.9 -7.7 -10.5 -14.9 -16.6 -21.6 c-6.3 -6.9 -13.6 -13 -21.3 -18.2 c-6.4 -4.3 -13.4 -8.1 -20.6 -10.8 c-6.7 -2.5 -13.6 -4.5 -20.6 -5.5 c-3.7 -0.6 -8 -1.1 -11.8 -1.1 c-8.4 -0.1 -16.9 0.6 -25 2.7 c-15.3 3.9 -29.4 11.1 -41.7 21.1 c-9.9 8 -18.4 17.6 -25.7 28 c-11.3 16.1 -19.3 34.5 -24.2 53.5 c-3.5 13.3 -5.4 27 -6 40.7 c0 0.8 0 1.7 0 2.5 l120.1 -89.7 Z M241.7 349.1 c5.5 0.4 11.1 0.5 16.7 0 c18.4 -1.8 35.9 -8.8 50.8 -19.7 c16.4 -12 29.3 -27.9 39.2 -45.6 l-98.4 -73.2 c-2.4 1.8 -4.8 3.6 -7.2 5.4 c-28 20.8 -55.8 41.7 -83.9 62.4 c-2.4 1.8 -4.8 3.6 -7.3 5.5 c8.7 15.8 20.1 30.4 34.2 41.7 c11.9 9.6 25.8 17.1 40.7 20.9 c5 1.3 10 2.1 15.2 2.6 M360.4 253.6 c0.2 0.2 0.5 0.4 0.7 0.5 c1.5 -4.4 2.7 -9 3.7 -13.5 c1 -4.4 1.7 -8.8 2.4 -13.3 l-117.3 -87.3 c-38.3 28.6 -76.7 57.2 -115.1 85.7 c-0.7 0.5 -1.3 1 -2 1.5 c1.1 8.8 3 17.6 5.8 26.1 c0 0.2 0.3 0.5 0.4 0.7 l111 -82.9 c36.8 27.5 73.7 54.9 110.5 82.5" stroke-width="0px" class="cls-3" style="fill:#14120E;" />
    <path d="M98.3 473.8 v-46 s10.3 0 10.3 0 v45.6 c-0.2 0.1 -0.4 0.4 -0.7 0.4 c-3.2 0.1 -6.4 0 -9.5 0" stroke-width="0px" class="cls-3" style="fill:#14120E;" />
    <path d="M371.7 422.5 c-5.2 0 -10.5 0.1 -15.7 0 c-0.6 0 -1.7 -0.9 -2.1 -1.3 c-0.9 -1.3 -0.8 -2.9 0.1 -4.1 c0.5 -0.6 1.2 -1.1 2 -1.1 c5.5 -0.1 11.1 -0.3 16.7 0 c1.1 0 2.2 2.2 2.1 3.2 c0 1.6 -1.3 3.3 -3.1 3.3" stroke-width="0px" class="cls-3" style="fill:#14120E;" />
    <path d="M478.6 473.9 c-3.1 0 -6.3 0 -9.4 0 c0 -0.3 -0.2 -0.5 -0.2 -0.8 c0 -7.8 0 -15.7 0 -23.5 c0 -7.5 -5.5 -12.7 -13 -12.7 s-18 0 -26.9 0 v37.1 s-10.3 0 -10.3 0 c0 -15 0 -29.9 0 -44.9 c0 -0.3 0 -0.7 0 -1 c13.2 0.1 26.4 -0.2 39.6 0.1 c7.2 0.1 14.8 3.7 18.2 10.2 c1.5 2.9 2.5 6.1 2.6 9.3 c0.2 8.3 0 16.7 0 25 c0 0.4 0 0.8 -0.1 1.3 c-0.2 0 -0.4 0 -0.6 0" stroke-width="0px" class="cls-3" style="fill:#14120E;" />
    <path d="M404.1 473.9 c-18.3 0 -36.5 0 -54.8 0 v-45.7 c0.3 0 0.5 -0.2 0.8 -0.2 c18.2 0.1 36.5 0 54.7 0 v8.9 s-45.2 0 -45.2 0 v9.6 s39.6 0 39.6 0 c0 2.5 0 5 0 7.5 c0 0.3 -0.1 0.6 -0.2 0.9 c-0.3 0 -0.6 0 -0.8 0 c-12.9 0 -25.8 0 -38.6 0 v10.1 c0.3 0 0.6 0 0.9 0 c14.8 0 29.5 0 44.3 0 c0.2 2.9 0.2 5.9 0 8.9 c-0.2 0 -0.5 0 -0.7 0" stroke-width="0px" class="cls-3" style="fill:#14120E;" />
    <path d="M41.6 473.3 c-7.5 -0.7 -14.6 -4.8 -18.4 -11.4 c-3.2 -5.6 -3.3 -12.1 -1.6 -18.1 c2.4 -8.3 10.3 -13.7 18.5 -15.1 c3.9 -0.7 7.8 -0.5 11.8 -0.6 c9.9 -0.2 19.8 0 29.8 0 v8.7 c-10.6 0 -21.2 0 -31.7 0 c-2.5 0 -4.9 0.2 -7.4 0.6 c-5.1 0.8 -9.7 4.8 -10.8 9.9 c-1.7 7.2 1.3 13.8 8.4 16.5 c1.9 0.7 3.9 1 5.9 1.1 c11.9 0.3 23.8 0.1 35.7 0.1 v8.8 c-3.6 0 -7.2 0 -10.7 0 c-9.5 0.3 -20 0.3 -29.4 -0.4" stroke-width="0px" class="cls-3" style="fill:#14120E;" />
    <path d="M145.7 473.8 v-37.2 s-25.7 0 -25.7 0 c0 -0.4 -0.1 -0.8 -0.1 -1.2 c0 -2.5 0 -5.1 0.1 -7.6 h61.6 c0 0 -0.1 8.8 -0.1 8.8 h-25.5 c0 0.2 -0.2 0.5 -0.2 0.7 c0 11.8 0 23.5 0 35.3 c0 0.4 -0.1 0.7 -0.2 1.1 h-10 Z" stroke-width="0px" class="cls-3" style="fill:#14120E;" />
    <path d="M256.9 473.8 c-4.6 0 -9.2 0.2 -13.7 -0.2 c-0.2 0 -0.3 -0.1 -0.5 -0.2 c-10 -7.2 -20 -14.5 -29.9 -21.8 c-0.3 -0.2 -0.6 -0.5 -0.9 -0.7 v-2.5 c0.3 0 0.6 -0.1 0.9 -0.1 c8.3 0 16.7 0 25 0 c2.2 0 4.8 -0.3 6.2 -2.1 c1.4 -1.7 1.4 -4.4 0.6 -6.4 c-0.7 -1.9 -3 -2.9 -4.9 -2.9 c-11.9 0 -23.9 0 -35.8 0 c-0.2 0.2 -0.6 0.6 -0.6 0.9 c0 12 0 24 0 36 c-0.3 0 -0.6 0 -1 0 c-3 0 -6.1 0 -9.1 0 c0 -0.3 -0.2 -0.5 -0.2 -0.8 c0 -14.7 0 -29.4 0 -44.1 c0 -0.3 0 -0.6 0.2 -0.9 c0.3 0 0.5 0 0.8 0 c15.4 0 30.7 0 46.1 0 c3.4 0 6.9 1 9.8 2.7 c2.9 1.7 4.8 4.8 5.4 8 c0.9 5.1 0.3 10.4 -3.9 13.7 c-4.4 3.4 -14.3 3.4 -19.6 3.1 c8.6 5.7 17 11.7 25.6 17.5 v0.7 s-0.5 0 -0.5 0 Z" stroke-width="0px" class="cls-3" style="fill:#14120E;" />
    <path d="M296.6 475 c-6.3 0 -12.7 -0.9 -18.1 -4.2 c-4.4 -2.7 -7.8 -7 -9.4 -11.9 c-1.9 -5.9 -1.5 -12.5 0.9 -18.1 c2.8 -6.4 9.1 -11.2 15.8 -12.8 c2.7 -0.7 5.6 -1 8.3 -1 c3.6 -0.1 7.2 -0.1 10.8 -0.1 c7 0 14.1 0.5 20.3 4.1 c5.3 3.1 9.3 8.6 10.5 14.7 c1.3 7.1 0 14.3 -4.5 20.1 c-4.1 5.4 -11 8.4 -17.5 8.9 c-5.7 0.4 -11.4 0.3 -17.2 0.3 M290.5 465.3 c4.9 0.7 10.9 0.7 15.9 0.5 c2.4 0 4.9 -0.1 7.4 -0.5 c3.7 -0.6 7.6 -2.9 9.5 -6.3 c2.2 -4.2 2.9 -9.7 1 -14.2 c-1.7 -4 -4.9 -6.8 -9 -8 c-2.9 -0.9 -7.7 -1.1 -10.8 -1.1 c-4.7 0 -9.6 -0.2 -14.2 0.7 c-2.5 0.5 -5 1.7 -6.9 3.4 c-3 2.9 -4.4 6.7 -4.5 10.8 c-0.1 7.2 4 13.6 11.6 14.7" stroke-width="0px" class="cls-3" style="fill:#14120E;" />
  </g>
</svg>