<?xml version="1.0" encoding="UTF-8"?><svg width="192" height="144" id="Calque_2" xmlns="http://www.w3.org/2000/svg" viewBox="0 0 96 72.18"><defs><style>.cls-1,.cls-2{stroke-width:0px;}.cls-2{fill:#68c5b7;}</style></defs><g id="_04_Bubble"><path class="cls-1" d="m96,32.43l-19.39-13.24,2.44-17.94-26.11,11.35L45.4.62l-7.83,14.31-9.64-2.45.09,6.55-20.81,6.85,9.16,10.86S1.15,54.75,0,54.75l21.59-4.03.41,15.06,13.74-12.62,19.35,19.03,1.73-17.94,33.5,7.81-15.85-26.38,21.54-3.23Z"/><path class="cls-2" d="m87.71,31.43l-14.9-11.57,2.52-15.17-24.56,11.46-5.81-12-6.5,12.7-9.13-2.54.29,6.7-18.07,4.79,7.86,9.31s-12.41,16.1-13.39,16.1l17.43-2.8,1.22,11.18,10.92-9.31,17.02,14.59,1.92-13.66,27.86,4.97-12.08-22.41,17.39-2.34Z"/><polygon class="cls-2" points="8.28 33.18 8.47 34.99 9.98 35.76 8.43 36.61 8.14 38.42 6.98 37.14 5.29 37.5 6.13 35.86 5.38 34.26 7.05 34.52 8.28 33.18"/><polygon class="cls-2" points="16.82 52.67 17.88 54.15 19.57 54.08 18.64 55.58 19.27 57.31 17.64 56.76 16.34 57.9 16.27 56.06 14.83 55.03 16.41 54.44 16.82 52.67"/><polygon class="cls-2" points="58.47 0 58.65 2.6 60.79 3.81 58.5 4.91 57.97 7.49 56.36 5.57 53.89 5.95 55.2 3.66 54.2 1.32 56.61 1.83 58.47 0"/><polygon class="cls-2" points="82.48 13.83 84.59 15.16 86.71 14.2 86.3 16.59 88.01 18.46 85.64 18.61 84.58 20.73 83.52 18.43 81.16 17.87 82.87 16.29 82.48 13.83"/><polygon class="cls-2" points="63.53 58.11 65.11 61.33 68.48 61.76 66.12 64.35 66.78 67.91 63.74 66.3 60.79 68.07 61.27 64.48 58.78 62.01 62.11 61.4 63.53 58.11"/><polygon class="cls-1" points="8.28 33.18 8.47 34.99 9.98 35.76 8.43 36.61 8.14 38.42 6.98 37.14 5.29 37.5 6.13 35.86 5.38 34.26 7.05 34.52 8.28 33.18"/><polygon class="cls-1" points="16.82 52.67 17.88 54.15 19.57 54.08 18.64 55.58 19.27 57.31 17.64 56.76 16.34 57.9 16.27 56.06 14.83 55.03 16.41 54.44 16.82 52.67"/><polygon class="cls-1" points="58.47 0 58.65 2.6 60.79 3.81 58.5 4.91 57.97 7.49 56.36 5.57 53.89 5.95 55.2 3.66 54.2 1.32 56.61 1.83 58.47 0"/><polygon class="cls-1" points="82.48 13.83 84.59 15.16 86.71 14.2 86.3 16.59 88.01 18.46 85.64 18.61 84.58 20.73 83.52 18.43 81.16 17.87 82.87 16.29 82.48 13.83"/><polygon class="cls-1" points="63.53 58.11 65.11 61.33 68.48 61.76 66.12 64.35 66.78 67.91 63.74 66.3 60.79 68.07 61.27 64.48 58.78 62.01 62.11 61.4 63.53 58.11"/></g></svg>
