<?xml version="1.0" encoding="UTF-8"?>
<svg id="Calque_2" data-name="Calque 2" xmlns="http://www.w3.org/2000/svg" viewBox="0 0 440.44 72.7">
  <defs>
    <style>
      .cls-1 {
        stroke-width: 0px;
      }
    </style>
  </defs>
  <g id="Calque_1-2" data-name="Calque 1">
    <g>
      <polygon class="cls-1" points="38.22 56.26 14.6 72.7 22.93 45.15 0 27.77 28.77 27.18 38.22 0 47.67 27.18 76.44 27.77 53.51 45.15 61.84 72.7 38.22 56.26"/>
      <polygon class="cls-1" points="129.22 56.26 105.6 72.7 113.93 45.15 91 27.77 119.77 27.18 129.22 0 138.67 27.18 167.44 27.77 144.51 45.15 152.84 72.7 129.22 56.26"/>
      <polygon class="cls-1" points="220.22 56.26 196.6 72.7 204.93 45.15 182 27.77 210.77 27.18 220.22 0 229.67 27.18 258.44 27.77 235.51 45.15 243.84 72.7 220.22 56.26"/>
      <polygon class="cls-1" points="311.22 56.26 287.6 72.7 295.93 45.15 273 27.77 301.77 27.18 311.22 0 320.67 27.18 349.44 27.77 326.51 45.15 334.84 72.7 311.22 56.26"/>
      <polygon class="cls-1" points="402.22 56.26 378.6 72.7 386.93 45.15 364 27.77 392.77 27.18 402.22 0 411.67 27.18 440.44 27.77 417.51 45.15 425.84 72.7 402.22 56.26"/>
    </g>
  </g>
</svg>