<?xml version="1.0" encoding="UTF-8"?><svg id="Calque_2" xmlns="http://www.w3.org/2000/svg" width="106.06" height="101.52" viewBox="0 0 106.06 101.52"><defs><style>.cls-1{fill:#000;mix-blend-mode:multiply;opacity:.3;}.cls-1,.cls-2,.cls-3{stroke-width:0px;}.cls-1,.cls-4{isolation:isolate;}.cls-2{fill:#e62e2e;}.cls-3{fill:#fff;}</style></defs><g id="Calque_1-2"><g class="cls-4"><g id="Layer_1"><g id="ztxCmp"><path class="cls-2" d="M98.74,47.49v-1.12h-54.47s-36.96,0-36.96,0v1.04c0,16.23,0,32.46,0,48.69,0,3.42,1.96,5.38,5.39,5.38,10.15,0,20.29,0,30.44,0h1.13c11.6,0,39.4-.06,48.9.04,3.17.04,5.63-2.13,5.61-5.63-.09-16.13-.04-32.26-.04-48.4h0Z"/><path class="cls-2" d="M106.05,27.87c0-3.13-2.08-5.19-5.21-5.19-1.51,0-7.85,0-18.65,0,.92-1.22,1.67-2.64,2.21-4.27,1.8-5.4.63-10.36-3.45-14.35-4.07-3.99-8.95-5.05-14.4-3.12-4.57,1.62-8.71,4.06-12.76,6.66-.59.38-.96.31-1.54-.01-3.6-2.01-7.16-4.12-10.88-5.87-1.93-.91-4.15-1.55-6.26-1.63-9.12-.34-16,8.36-13.81,17.23.49,2,1.43,3.81,2.65,5.36-5.76,0-9.74,0-10.75-.01-.06,0-.1.01-.15.01-3.17,0-4.55,0-7.72,0C2.06,22.68.01,24.71,0,27.97,0,32.19,0,33.74,0,37.96c0,3.48,1.97,5.46,5.43,5.46,7.15,0,12.51,0,19.65,0,26.8,0,67.73,0,76.01,0,2.86,0,4.93-2.15,4.95-5.06.02-4.39.01-6.09,0-10.48h0ZM43.76,14.25c-2.61,1.22-5.18,2.51-7.83,3.64-1.57.67-3.33-.02-4.38-1.44-1.05-1.43-1.07-3.37-.04-4.83,1.02-1.45,2.78-2.19,4.35-1.53,2.68,1.12,5.29,2.43,7.93,3.67,0,.17-.01.34-.02.51h0ZM74.53,16.41c-.96,1.34-2.67,2.14-4.08,1.56-2.78-1.14-5.48-2.47-8.21-3.72,0-.17,0-.35,0-.52,2.73-1.25,5.43-2.58,8.21-3.72,1.44-.59,3.19.26,4.13,1.65.99,1.45.96,3.32-.06,4.75h0Z"/><path class="cls-1" d="M98.74,47.49v-1.12h-54.47s-36.96,0-36.96,0v1.04c0,16.23,0,32.46,0,48.69,0,3.42,1.96,5.38,5.39,5.38,10.15,0,20.29,0,30.44,0h1.13c11.6,0,39.4-.06,48.9.04,3.17.04,5.63-2.13,5.61-5.63-.09-16.13-.04-32.26-.04-48.4h0Z"/></g><path class="cls-3" d="M19.28,62.84h12.84c.13.63.19,1.27.19,1.92,0,.69-.06,1.35-.19,1.98h-8.25v5.32h6.55c.13.65.19,1.3.19,1.95s-.06,1.31-.19,1.98h-6.55v9.47c-.78.13-1.53.19-2.27.19s-1.53-.06-2.33-.19v-22.63h0Z"/><path class="cls-3" d="M36.24,62.84c.92-.1,1.79-.19,2.6-.27s1.7-.11,2.69-.11c1.15,0,2.29.11,3.42.32s2.14.58,3.05,1.1c.91.52,1.64,1.25,2.19,2.17.55.92.82,2.09.82,3.49,0,1.09-.18,2.03-.54,2.82s-.78,1.44-1.28,1.95-.97.92-1.43,1.21l-.54.35,5.51,9.57c-.42.04-.86.09-1.32.14-.46.05-.93.08-1.42.08-.4,0-.79-.02-1.18-.06-.39-.04-.78-.09-1.18-.16l-5.92-10.51.76-.38c.29-.15.64-.33,1.05-.57.41-.23.81-.52,1.21-.86.4-.35.73-.77,1.01-1.26.27-.49.41-1.07.41-1.75,0-1.32-.38-2.29-1.13-2.91-.76-.62-1.73-.93-2.93-.93-.46,0-.88.03-1.26.09v19.1c-.38.04-.75.08-1.13.13-.38.04-.75.06-1.1.06-.71,0-1.5-.06-2.36-.19v-22.63h0Z"/><path class="cls-3" d="M56.04,62.84h12.84c.13.63.19,1.27.19,1.92,0,.69-.06,1.35-.19,1.98h-8.25v4.91h6.55c.13.65.19,1.3.19,1.95s-.06,1.31-.19,1.98h-6.55v5.98h8.47c.12.63.19,1.27.19,1.92,0,.69-.06,1.35-.19,1.98h-13.06v-22.63h0Z"/><path class="cls-3" d="M73.53,62.84h12.84c.13.63.19,1.27.19,1.92,0,.69-.06,1.35-.19,1.98h-8.25v4.91h6.55c.13.65.19,1.3.19,1.95s-.06,1.31-.19,1.98h-6.55v5.98h8.47c.12.63.19,1.27.19,1.92,0,.69-.06,1.35-.19,1.98h-13.06v-22.63h0Z"/></g></g></g></svg>