<?xml version="1.0" encoding="utf-8"?>
<!DOCTYPE svg PUBLIC "-//W3C//DTD SVG 1.1//EN" "http://www.w3.org/Graphics/SVG/1.1/DTD/svg11.dtd">
<svg version="1.1" xmlns="http://www.w3.org/2000/svg" xmlns:xlink="http://www.w3.org/1999/xlink" xmlns:xml="http://www.w3.org/XML/1998/namespace" width="995" height="891" viewBox="0.744, 0, 185.07, 165.8" id="Layer_2" data-name="Layer 2">
  <defs>
    <style>
      .cls-1 {
        
      }

      .cls-2 {
        fill: #00c4f3;
      }

      .cls-2, .cls-3 {
        stroke-width: 0px;
      }

      .cls-3 {
        fill: #FFFFFF; fill-opacity:0.002;
      }
    </style>
  </defs>
  <g id="Layer_1-2" data-name="Layer 1-2" class="cls-1">
    <path d="m181.2 154.3 c-3.4 6 -9.6 9.5 -16.5 9.5 H21.8 c-6.9 0 -13 -3.5 -16.5 -9.5 s-3.4 -13 0 -19 L76.8 11.5 c3.5 -5.9 9.6 -9.5 16.5 -9.5 s13 3.6 16.5 9.5 l71.5 123.8 c3.3 5.9 3.3 13 -0.1 19 Z" stroke-width="0px" fill-opacity="0" class="cls-3" style="fill:white;" />
  </g>
  <g id="Layer_1-2_00000027599404320478463220000009193311508226904194_unfilled" data-name="Layer 1-2 00000027599404320478463220000009193311508226904194 unfilled">
    <path d="m164.8 165.8 H21.8 c-7.6 0 -14.4 -3.9 -18.2 -10.5 s-3.8 -14.4 0 -21 L75.1 10.5 c3.8 -6.6 10.6 -10.5 18.2 -10.5 s14.4 3.9 18.2 10.5 l71.5 123.8 c3.8 6.6 3.8 14.4 0 21 c-3.9 6.6 -10.6 10.5 -18.2 10.5 h0 Z M93.3 2 c-6.9 0 -13 3.6 -16.4 9.5 L5.4 135.3 c-3.4 5.9 -3.4 13.1 0 19 s9.6 9.5 16.5 9.5 h142.9 c6.9 0 13 -3.6 16.4 -9.5 s3.4 -13.1 0 -19 L109.7 11.5 c-3.4 -5.9 -9.5 -9.5 -16.4 -9.5 h0 Z" stroke-width="0px" class="cls-2" style="fill:#00C4F3;" />
  </g>
</svg>