<?xml version="1.0" encoding="UTF-8"?><svg id="Calque_2" xmlns="http://www.w3.org/2000/svg" width="108.53" height="93.99" viewBox="0 0 108.53 93.99"><defs><style>.cls-1{fill:#e62e2e;}.cls-1,.cls-2{stroke-width:0px;}.cls-2{fill:#fff;}</style></defs><g id="Layer_1"><polygon class="cls-1" points="108.53 62.66 108.53 0 0 0 0 62.66 54.26 93.99 108.53 62.66"/><polygon class="cls-2" points="91.36 59.74 17.17 59.74 54.26 81.16 91.36 59.74"/><path class="cls-2" d="M32.54,9.56h12.26l-.76,3.54h-7.6l-.72,3.54h7.1l-.77,3.53h-7.1l-1.36,6.51h-4.69s3.63-17.12,3.63-17.12Z"/><path class="cls-2" d="M61.61,16.49c0,5.13-2.82,10.51-9.82,10.51-5.01,0-7.15-3.2-7.15-7,0-5.14,3.14-10.76,9.67-10.76,5.05,0,7.3,3.28,7.3,7.25ZM49.56,20.09c0,2.05.82,3.44,2.75,3.44,3.29,0,4.46-4.53,4.46-7.34,0-1.91-.65-3.49-2.7-3.49-3.08,0-4.52,4.43-4.52,7.38Z"/><path class="cls-2" d="M68.58,20.1l-1.38,6.59h-4.71l3.63-17.12h7.36c3.66,0,5.57,1.81,5.57,4.5,0,2.33-1.39,3.9-3.53,4.51.92.4,2.03,1.44,1.45,4.23-.38,1.79-.65,3.14-.57,3.89h-4.53c-.1-.74.03-1.95.47-4.04.35-1.62.19-2.54-1.51-2.54h-2.24ZM69.29,16.77h2.18c1.63,0,2.77-.65,2.77-2.18,0-1.03-.54-1.7-2.01-1.7h-2.13l-.82,3.88h0Z"/><path class="cls-2" d="M26.93,44.77c.12,1.38.98,2.34,2.76,2.34,1.42,0,2.27-.49,2.27-1.72,0-1.1-.78-1.65-2.81-2.31-3.66-1.19-5.11-2.61-5.11-4.89,0-3.11,2.29-5.49,6.89-5.49,4.18,0,6.76,1.93,6.82,5.26h-4.67c-.03-.78-.37-1.9-2.23-1.9-1.13,0-1.95.48-1.95,1.52,0,.81.62,1.32,2.63,1.97,3.82,1.24,5.42,2.76,5.42,5.27,0,3.26-2.38,5.64-7.55,5.64-4.72,0-7.06-2.22-7.16-5.67h4.67Z"/><path class="cls-2" d="M43.92,46.58l-1.67,3.55h-4.96l8.82-17.12h6.24l1.78,17.12h-4.78l-.31-3.55h-5.12,0ZM48.99,43.03c-.23-2.6-.38-5.05-.43-6.63h-.07c-.76,1.88-1.84,4.17-3.03,6.63h3.52Z"/><path class="cls-2" d="M59.51,33h4.77l-2.87,13.58h7.79l-1.26,3.54h-12.06l3.63-17.12Z"/><path class="cls-2" d="M83.81,43.12h-7.42l-.74,3.47h8.48l-1.27,3.54h-12.56l3.63-17.12h12.34l-.75,3.54h-7.72l-.64,3.02h7.42l-.77,3.54h0Z"/></g></svg>