<?xml version="1.0" encoding="utf-8"?>
<!DOCTYPE svg PUBLIC "-//W3C//DTD SVG 1.1//EN" "http://www.w3.org/Graphics/SVG/1.1/DTD/svg11.dtd">
<svg version="1.1" xmlns="http://www.w3.org/2000/svg" xmlns:xlink="http://www.w3.org/1999/xlink" xmlns:xml="http://www.w3.org/XML/1998/namespace" xmlns:dc="http://purl.org/dc/elements/1.1/" xmlns:cc="http://creativecommons.org/ns#" xmlns:rdf="http://www.w3.org/1999/02/22-rdf-syntax-ns#" xmlns:sodipodi="http://sodipodi.sourceforge.net/DTD/sodipodi-0.dtd" xmlns:inkscape="http://www.inkscape.org/namespaces/inkscape" width="829" height="986" viewBox="2.241993, 2.24, 265.51602, 315.52" id="svg17053" inkscape:version="0.48.1 " sodipodi:docname="Logo_Skoda_Auto.svg">
  <sodipodi:namedview id="namedview62" pagecolor="#ffffff" bordercolor="#666666" borderopacity="1" objecttolerance="10" gridtolerance="10" guidetolerance="10" inkscape:pageopacity="0" inkscape:pageshadow="2" inkscape:window-width="1280" inkscape:window-height="738" showgrid="false" inkscape:zoom="2.4283072" inkscape:cx="190" inkscape:cy="159.11048" inkscape:window-x="-8" inkscape:window-y="-8" inkscape:window-maximized="1" inkscape:current-layer="svg17053" />
  <defs id="defs17055">
    <linearGradient id="linearGradient3906">
      <stop offset="0%" stop-color="#99A2A7" stop-opacity="1" id="stop3908" />
      <stop offset="47.58398%" stop-color="#98A3A8" stop-opacity="1" id="stop3914" />
      <stop offset="53.52429%" stop-color="#E6E6E6" stop-opacity="1" id="stop3916" />
      <stop offset="100%" stop-color="#E6E6E6" stop-opacity="1" id="stop3910" />
    </linearGradient>
    <clipPath id="clipPath36">
      <path d="M85.721 183.017 C74.993 178.48 65.36 171.984 57.086 163.711 l0 0 C48.813 155.438 42.317 145.804 37.782 135.077 l0 0 c-4.697 -11.105 -7.079 -22.902 -7.079 -35.064 l0 0 c0 -12.159 2.382 -23.958 7.079 -35.061 l0 0 C42.317 54.225 48.813 44.59 57.086 36.319 l0 0 C65.36 28.045 74.993 21.549 85.721 17.013 l0 0 c11.105 -4.697 22.901 -7.081 35.063 -7.081 l0 0 c12.16 0 23.957 2.384 35.061 7.081 l0 0 c10.727 4.536 20.362 11.032 28.634 19.306 l0 0 c8.274 8.271 14.768 17.906 19.305 28.633 l0 0 c4.699 11.103 7.081 22.902 7.081 35.061 l0 0 c0 12.162 -2.382 23.959 -7.081 35.064 l0 0 c-4.537 10.727 -11.031 20.361 -19.305 28.634 l0 0 c-8.272 8.273 -17.907 14.769 -28.634 19.306 l0 0 c-11.104 4.697 -22.901 7.078 -35.061 7.078 l0 0 c-12.162 0 -23.958 -2.381 -35.063 -7.078 M62.943 42.175 C47.494 57.625 38.985 78.166 38.985 100.013 l0 0 c0 21.852 8.509 42.392 23.958 57.842 l0 0 c15.45 15.45 35.99 23.958 57.841 23.958 l0 0 c21.848 0 42.39 -8.508 57.84 -23.958 l0 0 c15.448 -15.45 23.957 -35.99 23.957 -57.842 l0 0 c0 -21.847 -8.509 -42.388 -23.957 -57.838 l0 0 c-15.45 -15.45 -35.992 -23.959 -57.84 -23.959 l0 0 c-21.851 0 -42.391 8.509 -57.841 23.959" id="path38" inkscape:connector-curvature="0" />
    </clipPath>
    <clipPath id="clipPath50">
      <path d="m0 271.333 l242 0 L242 0 L0 0 L0 271.333 z" id="path52" inkscape:connector-curvature="0" />
    </clipPath>
    <linearGradient x1="49.15666" y1="58.76199" x2="165.4158" y2="165.1362" gradientUnits="userSpaceOnUse" xlink:href="#linearGradient3784-189-732-961" gradientTransform="matrix(1.29232, 0, 0, -1.29232, 8.155804, 348.494)" id="linearGradient13624-886" />
    <linearGradient id="linearGradient3784-189-732-961">
      <stop offset="0%" stop-color="#151313" stop-opacity="1" id="stop15672" />
      <stop offset="8.500097%" stop-color="#151313" stop-opacity="1" id="stop15674" />
      <stop offset="12.77982%" stop-color="#F8F1F1" stop-opacity="1" id="stop15676" />
      <stop offset="22.87409%" stop-color="#151313" stop-opacity="1" id="stop15678" />
      <stop offset="30.41023%" stop-color="#141414" stop-opacity="1" id="stop15680" />
      <stop offset="38.17422%" stop-color="#F8F1F1" stop-opacity="1" id="stop15682" />
      <stop offset="44.96941%" stop-color="#151313" stop-opacity="1" id="stop15684" />
      <stop offset="56.54959%" stop-color="#F8F1F4" stop-opacity="1" id="stop15686" />
      <stop offset="62.68049%" stop-color="#141414" stop-opacity="1" id="stop15688" />
      <stop offset="78.70468%" stop-color="#F8F1F1" stop-opacity="1" id="stop15690" />
      <stop offset="100%" stop-color="#F8F1F2" stop-opacity="1" id="stop15692" />
    </linearGradient>
    <linearGradient x1="164.3603" y1="232.187" x2="175.916" y2="252.9573" gradientUnits="userSpaceOnUse" xlink:href="#linearGradient14555-699" gradientTransform="matrix(0.9894706, -0.1447338, 0.1447338, 0.9894706, -32.28811, 26.18733)" id="linearGradient16864" />
    <linearGradient id="linearGradient14555-699">
      <stop offset="0%" stop-color="#151313" stop-opacity="1" id="stop15652" />
      <stop offset="16.25631%" stop-color="#CCC4C4" stop-opacity="1" id="stop15654" />
      <stop offset="49.61395%" stop-color="#B7ACAD" stop-opacity="1" id="stop15656" />
      <stop offset="100%" stop-color="#151313" stop-opacity="1" id="stop15658" />
    </linearGradient>
    <linearGradient x1="162.6065" y1="229.0116" x2="178.7174" y2="245.7781" gradientUnits="userSpaceOnUse" xlink:href="#linearGradient14394-5-612" gradientTransform="matrix(-0.9133111, -0.4072626, -0.4072626, 0.9133111, 409.174, 87.09624)" id="linearGradient16861" />
    <linearGradient id="linearGradient14394-5-612">
      <stop offset="0%" stop-color="#151313" stop-opacity="1" id="stop15662" />
      <stop offset="25%" stop-color="#CCC4C4" stop-opacity="1" id="stop15664" />
      <stop offset="50%" stop-color="#B7ACAD" stop-opacity="1" id="stop15666" />
      <stop offset="100%" stop-color="#151313" stop-opacity="1" id="stop15668" />
    </linearGradient>
    <linearGradient x1="49.15666" y1="58.76199" x2="165.4158" y2="165.1362" gradientUnits="userSpaceOnUse" xlink:href="#linearGradient3784-189-732-961" gradientTransform="matrix(1.29232, 0, 0, -1.29232, 8.155804, 348.494)" id="linearGradient3138" inkscape:collect="always" />
    <linearGradient x1="164.3603" y1="232.187" x2="175.916" y2="252.9573" gradientUnits="userSpaceOnUse" xlink:href="#linearGradient14555-699" gradientTransform="matrix(0.9894706, -0.1447338, 0.1447338, 0.9894706, -32.28811, 26.18733)" id="linearGradient3140" inkscape:collect="always" />
    <linearGradient x1="162.6065" y1="229.0116" x2="178.7174" y2="245.7781" gradientUnits="userSpaceOnUse" xlink:href="#linearGradient14394-5-612" gradientTransform="matrix(-0.9133111, -0.4072626, -0.4072626, 0.9133111, 409.174, 87.09624)" id="linearGradient3142" inkscape:collect="always" />
    <linearGradient x1="49.15666" y1="58.76199" x2="165.4158" y2="165.1362" gradientUnits="userSpaceOnUse" xlink:href="#linearGradient3784-189-732-961" gradientTransform="matrix(1.29232, 0, 0, -1.29232, 8.155804, 348.494)" id="linearGradient3198" inkscape:collect="always" />
    <linearGradient x1="164.3603" y1="232.187" x2="175.916" y2="252.9573" gradientUnits="userSpaceOnUse" xlink:href="#linearGradient14555-699" gradientTransform="matrix(0.9894706, -0.1447338, 0.1447338, 0.9894706, -32.28811, 26.18733)" id="linearGradient3200" inkscape:collect="always" />
    <linearGradient x1="162.6065" y1="229.0116" x2="178.7174" y2="245.7781" gradientUnits="userSpaceOnUse" xlink:href="#linearGradient14394-5-612" gradientTransform="matrix(-0.9133111, -0.4072626, -0.4072626, 0.9133111, 409.174, 87.09624)" id="linearGradient3202" inkscape:collect="always" />
    <linearGradient x1="49.15666" y1="58.76199" x2="165.4158" y2="165.1362" gradientUnits="userSpaceOnUse" xlink:href="#linearGradient3784-189-732-961" gradientTransform="matrix(1.29232, 0, 0, -1.29232, 8.155804, 348.494)" id="linearGradient4126" inkscape:collect="always" />
    <linearGradient x1="164.3603" y1="232.187" x2="175.916" y2="252.9573" gradientUnits="userSpaceOnUse" xlink:href="#linearGradient14555-699" gradientTransform="matrix(0.9894706, -0.1447338, 0.1447338, 0.9894706, -32.28811, 26.18733)" id="linearGradient4128" inkscape:collect="always" />
    <linearGradient x1="162.6065" y1="229.0116" x2="178.7174" y2="245.7781" gradientUnits="userSpaceOnUse" xlink:href="#linearGradient14394-5-612" gradientTransform="matrix(-0.9133111, -0.4072626, -0.4072626, 0.9133111, 409.174, 87.09624)" id="linearGradient4130" inkscape:collect="always" />
    <linearGradient x1="49.15666" y1="58.76199" x2="165.4158" y2="165.1362" gradientUnits="userSpaceOnUse" xlink:href="#linearGradient3784-189-732-961" gradientTransform="matrix(1.29232, 0, 0, -1.29232, 8.155804, 348.494)" id="linearGradient4155" inkscape:collect="always" />
    <linearGradient x1="49.15666" y1="58.76199" x2="165.4158" y2="165.1362" gradientUnits="userSpaceOnUse" xlink:href="#linearGradient3784-189-732-961" gradientTransform="matrix(1.839968, 0, 0, -1.839891, -13.34622, 477.3811)" id="linearGradient3072" inkscape:collect="always" />
    <linearGradient x1="164.3603" y1="232.187" x2="175.916" y2="252.9573" gradientUnits="userSpaceOnUse" xlink:href="#linearGradient14555-699" gradientTransform="matrix(0.9894706, -0.1447338, 0.1447338, 0.9894706, -32.28811, 26.18733)" id="linearGradient3074" inkscape:collect="always" />
    <linearGradient x1="162.6065" y1="229.0116" x2="178.7174" y2="245.7781" gradientUnits="userSpaceOnUse" xlink:href="#linearGradient14394-5-612" gradientTransform="matrix(-0.9133111, -0.4072626, -0.4072626, 0.9133111, 409.174, 87.09624)" id="linearGradient3076" inkscape:collect="always" />
    <linearGradient x1="-188.6355" y1="285.6936" x2="85.45634" y2="285.6936" gradientUnits="userSpaceOnUse" xlink:href="#linearGradient3906" id="linearGradient3912" inkscape:collect="always" />
    <linearGradient x1="-188.6355" y1="285.6936" x2="85.45634" y2="285.6936" gradientUnits="userSpaceOnUse" xlink:href="#linearGradient3906" id="linearGradient3957" inkscape:collect="always" />
    <linearGradient x1="49.15666" y1="58.76199" x2="165.4158" y2="165.1362" gradientUnits="userSpaceOnUse" xlink:href="#linearGradient3784-189-732-961" gradientTransform="matrix(1.839968, 0, 0, -1.839891, -13.34622, 477.3811)" id="linearGradient3959" inkscape:collect="always" />
    <linearGradient x1="164.3603" y1="232.187" x2="175.916" y2="252.9573" gradientUnits="userSpaceOnUse" xlink:href="#linearGradient14555-699" gradientTransform="matrix(0.9894706, -0.1447338, 0.1447338, 0.9894706, -32.28811, 26.18733)" id="linearGradient3961" inkscape:collect="always" />
    <linearGradient x1="162.6065" y1="229.0116" x2="178.7174" y2="245.7781" gradientUnits="userSpaceOnUse" xlink:href="#linearGradient14394-5-612" gradientTransform="matrix(-0.9133111, -0.4072626, -0.4072626, 0.9133111, 409.174, 87.09624)" id="linearGradient3963" inkscape:collect="always" />
    <linearGradient x1="-188.6355" y1="285.6936" x2="85.45634" y2="285.6936" gradientUnits="userSpaceOnUse" xlink:href="#linearGradient3906" id="linearGradient3987" inkscape:collect="always" />
    <linearGradient x1="49.15666" y1="58.76199" x2="165.4158" y2="165.1362" gradientUnits="userSpaceOnUse" xlink:href="#linearGradient3784-189-732-961" gradientTransform="matrix(1.839968, 0, 0, -1.839891, -13.34622, 477.3811)" id="linearGradient3989" inkscape:collect="always" />
    <linearGradient x1="164.3603" y1="232.187" x2="175.916" y2="252.9573" gradientUnits="userSpaceOnUse" xlink:href="#linearGradient14555-699" gradientTransform="matrix(0.9894706, -0.1447338, 0.1447338, 0.9894706, -32.28811, 26.18733)" id="linearGradient3991" inkscape:collect="always" />
    <linearGradient x1="162.6065" y1="229.0116" x2="178.7174" y2="245.7781" gradientUnits="userSpaceOnUse" xlink:href="#linearGradient14394-5-612" gradientTransform="matrix(-0.9133111, -0.4072626, -0.4072626, 0.9133111, 409.174, 87.09624)" id="linearGradient3993" inkscape:collect="always" />
    <linearGradient x1="-188.6355" y1="285.6936" x2="85.45634" y2="285.6936" gradientUnits="userSpaceOnUse" xlink:href="#linearGradient3906" id="linearGradient3086" inkscape:collect="always" />
    <linearGradient x1="49.15666" y1="58.76199" x2="165.4158" y2="165.1362" gradientUnits="userSpaceOnUse" xlink:href="#linearGradient3784-189-732-961" gradientTransform="matrix(1.839968, 0, 0, -1.839891, -13.34622, 477.3811)" id="linearGradient3088" inkscape:collect="always" />
    <linearGradient x1="164.3603" y1="232.187" x2="175.916" y2="252.9573" gradientUnits="userSpaceOnUse" xlink:href="#linearGradient14555-699" gradientTransform="matrix(0.9894706, -0.1447338, 0.1447338, 0.9894706, -32.28811, 26.18733)" id="linearGradient3090" inkscape:collect="always" />
    <linearGradient x1="162.6065" y1="229.0116" x2="178.7174" y2="245.7781" gradientUnits="userSpaceOnUse" xlink:href="#linearGradient14394-5-612" gradientTransform="matrix(-0.9133111, -0.4072626, -0.4072626, 0.9133111, 409.174, 87.09624)" id="linearGradient3092" inkscape:collect="always" />
    <linearGradient x1="-188.6355" y1="285.6936" x2="85.45634" y2="285.6936" gradientUnits="userSpaceOnUse" xlink:href="#linearGradient3906" id="linearGradient3116" inkscape:collect="always" />
    <linearGradient x1="49.15666" y1="58.76199" x2="165.4158" y2="165.1362" gradientUnits="userSpaceOnUse" xlink:href="#linearGradient3784-189-732-961" gradientTransform="matrix(1.839968, 0, 0, -1.839891, -13.34622, 477.3811)" id="linearGradient3118" inkscape:collect="always" />
    <linearGradient x1="164.3603" y1="232.187" x2="175.916" y2="252.9573" gradientUnits="userSpaceOnUse" xlink:href="#linearGradient14555-699" gradientTransform="matrix(0.9894706, -0.1447338, 0.1447338, 0.9894706, -32.28811, 26.18733)" id="linearGradient3120" inkscape:collect="always" />
    <linearGradient x1="162.6065" y1="229.0116" x2="178.7174" y2="245.7781" gradientUnits="userSpaceOnUse" xlink:href="#linearGradient14394-5-612" gradientTransform="matrix(-0.9133111, -0.4072626, -0.4072626, 0.9133111, 409.174, 87.09624)" id="linearGradient3122" inkscape:collect="always" />
  </defs>
  <metadata id="metadata17058" />
  <g transform="matrix(1, 0, 0, 1.000012, -9.986984E-07, -130.3056)" id="g3094">
    <g transform="matrix(1.262925, 0, 0, -1.262872, 16.33661, 133.7612)" id="g7658" fill-opacity="1" style="fill:#141414;">
      <path d="M0 0 L3.824 -4.363 C4.032 -4.613 4.244 -4.7 4.578 -4.7 l8.023 0 c0.338 0 0.547 0.087 0.755 0.337 L17.18 0 c0.334 0.382 0.209 0.758 -0.337 0.758 l-5.414 0 c-0.341 0 -0.553 -0.125 -0.762 -0.376 l-1.635 -2.355 l-0.887 0 L6.51 0.382 C6.301 0.633 6.091 0.758 5.713 0.758 l-5.375 0 C-0.213 0.758 -0.33 0.382 0 0 m70.784 -21.919 l0 -0.421 c0 -14.654 2.401 -15.541 19.994 -15.541 c17.598 0 19.992 0.887 19.992 15.586 l0 0.376 c0 14.654 -2.394 15.538 -19.992 15.538 c-17.593 0 -19.994 -0.884 -19.994 -15.538 M69.002 -36.493 L52.285 -20.155 L67.99 -7.766 c0.465 0.335 0.292 0.756 -0.295 0.756 l-10.247 0 c-0.292 0 -0.504 -0.084 -0.755 -0.293 l-16.042 -12.814 l0 12.477 c0 0.417 -0.210091 0.63 -0.630091 0.63 l-7.810909 0 c-0.421 0 -0.633 -0.213 -0.633 -0.63 l0 -28.978 c0 -0.421 0.212 -0.63 0.633 -0.63 l7.812 0 c0.42 0 0.629 0.209 0.629 0.63 l0 7.306 l4.745 3.74 l11.506 -11.342 c0.254 -0.25 0.463 -0.334 0.796 -0.334 l11.006 0 c0.546 0 0.716 0.376 0.298 0.755 m64.874 29.483 l-16.756 0 c-0.418 0 -0.634 -0.213 -0.634 -0.63 l0 -28.978 c0 -0.421 0.216 -0.63 0.634 -0.63 l16.756 0 c17.936 0 20.286 0.884 20.286 14.995 l0 0.25 c0 14.112 -2.35 14.993 -20.286 14.993 m64.91 -29.483 l-14.489 29.02 c-0.127 0.334 -0.38 0.463 -0.714 0.463 l-12.849 0 c-0.342 0 -0.592 -0.129 -0.717 -0.463 l-14.49 -29.02 c-0.213 -0.463 -0.039 -0.755 0.458 -0.755 l8.361 0 c0.333 0 0.589 0.125 0.712 0.463 l2.187 4.283 l19.824 0 l2.181 -4.283 c0.13 -0.338 0.379 -0.463 0.718 -0.463 l8.355 0 c0.505 0 0.673 0.292 0.463 0.755 m-97.761 14.574 l0 -0.421 c0 -8.485 -0.335 -8.61 -10.247 -8.61 c-9.912 0 -10.25 0.125 -10.25 8.61 l0 0.421 c0 8.483 0.338 8.608 10.25 8.608 c9.912 0 10.247 -0.125 10.247 -8.608 m43.605 0 l0 -0.421 c0 -7.769 -0.634 -8.022 -10.709 -8.022 l-8.316 0 l0 16.466 l8.316 0 c10.075 0 10.709 -0.254 10.709 -8.023 m39.245 -4.244 l-13.439 0 l6.175 12.226 l1.091 0 z M-9.95 -37.293 c4.453 -0.205 11.714 -0.414 15.909 -0.414 c18.315 0 20.5 0.038 20.5 9.991 c0 7.854 -2.307 8.483 -12.01 8.775 l-11.255 0.338 c-5.163 0.17 -5.25 0.713 -5.25 3.023 c0 2.394 0.63 2.394 13.019 2.394 c2.348 0 9.825 -0.125 13.777 -0.209 c0.414 0 0.63 0.209 0.63 0.63 l0 5.125 c0 0.417 -0.216 0.63 -0.592 0.668 c-3.907 0.215 -10.287 0.424 -14.866 0.424 c-17.973 0 -20.868 -0.338 -20.868 -9.616 c0 -7.94 1.76 -8.991 13.267 -9.37 l10.328 -0.334 c4.833 -0.167 4.92 -0.754 4.92 -2.56 c0 -2.481 -0.212 -2.606 -11.638 -2.606 c-5.333 0 -10.834 0.209 -15.83 0.379 c-0.42 0.042 -0.629 -0.17 -0.629 -0.588 l0 -5.375 c0 -0.421 0.209 -0.63 0.588 -0.675" id="path7660" fill-rule="nonzero" fill-opacity="1" inkscape:connector-curvature="0" sodipodi:nodetypes="ccssccssccccssccsssssccccssccsssssssscccssccssssssscccssccssccccssccsssssccssccscccccccssccsscsscssccsscssc" style="stroke:none;" />
    </g>
    <g transform="matrix(1.257664, 0, 0, -1.257597, -317.135, 445.1355)" id="g32">
      <g clip-path="url(#clipPath36)" id="g34">
        <g id="g40">
          <g transform="matrix(181.116, 0, 0, 181.116, 30.15332, 9.393768)" id="g42" />
        </g>
      </g>
    </g>
    <g transform="matrix(0.7066667, 0, 0, 0.7066587, 0.7333346, 131.4959)" id="g3942">
      <g id="g3935">
        <path d="m84.97111 285.6936 c0 75.89925 -61.14031 137.4277 -136.5607 137.4277 c-75.42039 0 -136.5607 -61.5285 -136.5607 -137.4277 c0 -75.89925 61.14031 -137.4277 136.5607 -137.4277 c75.42039 0 136.5607 61.5285 136.5607 137.4277 z" transform="matrix(-0.00406547, -1.178389, 1.170955, -0.00403982, -144.744, 226.4741)" id="path3112" fill-rule="nonzero" stroke-width="0.9704827" stroke-linecap="square" stroke-linejoin="miter" stroke-miterlimit="4" stroke-dasharray="none" fill-opacity="1" stroke-opacity="1" sodipodi:ry="137.42775" sodipodi:rx="136.5607" sodipodi:cy="285.69363" sodipodi:cx="-51.589596" sodipodi:type="arc" style="fill:url(&quot;#linearGradient3116&quot;);stroke:#141414;" />
        <g transform="matrix(1.779713, 0, 0, -1.779639, 190.0021, 430.606)" id="g24" fill-opacity="1" style="fill:#141414;">
          <path d="m0 0 c-21.688 0 -42.077 8.444 -57.412 23.781 c-15.336 15.334 -23.782 35.726 -23.782 57.411 c0 21.69 8.446 42.079 23.782 57.413 c15.335 15.337 35.724 23.782 57.412 23.782 c21.688 0 42.077 -8.445 57.412 -23.782 c15.336 -15.334 23.78 -35.723 23.78 -57.413 c0 -21.685 -8.444 -42.074 -23.78 -57.411 C42.077 8.444 21.688 0 0 0" id="path26" fill-rule="nonzero" fill-opacity="1" inkscape:connector-curvature="0" style="stroke:none;" />
        </g>
        <g transform="matrix(1.779713, 0, 0, -1.779639, 190.0021, 418.8786)" id="g28">
          <path d="m0 0 c-19.928 0 -38.662 7.76 -52.752 21.85 c-14.092 14.091 -21.852 32.826 -21.852 52.752 c0 19.928 7.76 38.663 21.852 52.754 c14.09 14.09 32.824 21.852 52.752 21.852 c19.928 0 38.662 -7.762 52.752 -21.852 C66.844 113.265 74.604 94.53 74.604 74.602 C74.604 54.676 66.844 35.941 52.752 21.85 C38.662 7.76 19.928 0 0 0" id="path30" fill-rule="nonzero" fill-opacity="1" inkscape:connector-curvature="0" style="fill:white;stroke:none;" />
        </g>
      </g>
      <g id="g4188">
        <path d="m290.7941 349.8963 c-9.8161 -9.21259 -22.19136 -15.37377 -35.6726 -17.52577 c-1.92312 -0.29783 -3.66514 1.18673 -3.66514 3.13372 c0 1.5848 0 3.30282 0 4.89362 c0 1.45462 -1.11197 3.10379 -2.57264 3.10379 c-1.05808 0 -2.11617 0.0289 -3.18023 0 c-3.75943 -0.0587 -4.44337 -4.67664 -3.68909 -7.39583 c8.01422 -28.73772 9.97325 -46.16921 9.88047 -58.86123 c-0.10024 -13.49116 -0.43851 -26.93143 -6.51914 -44.72509 c-5.85763 -17.11722 -11.20644 -33.87679 -39.49638 -59.49276 c-1.92311 -1.7315 -3.86419 -2.57253 -6.45328 -2.75961 c-2.78216 -0.19318 -5.05698 -0.29193 -7.887 -0.29193 c-11.74371 0 -23.07886 1.72401 -33.78991 4.93854 c-4.00935 1.2107 -3.40772 3.99872 -1.20326 5.89932 c10.67963 9.13625 25.16061 22.86836 35.15179 40.02001 c-6.32607 0.61356 -11.16003 -2.90476 -15.22327 -6.79872 c-13.35252 -12.70847 -27.25432 -21.76991 -38.29761 -27.97151 c-1.92311 -1.07599 -3.8178 -1.52646 -5.72294 -0.43248 c-12.17173 7.07853 -20.37302 13.73656 -30.03648 24.94404 c-1.64325 1.90506 -0.57917 3.38962 1.02816 4.24265 c10.5644 5.60146 27.10765 16.22828 42.27854 30.03071 c-3.09194 2.60096 -7.99176 1.74795 -15.09456 -1.9754 c-13.65036 -7.17283 -26.77392 -11.30025 -36.78907 -13.87875 c-2.144607 -0.54923 -4.443362 0.0524 -5.547843 1.9709 c-6.412871 11.14162 -10.83827 24.46965 -12.93125 37.98476 c-0.397658 2.59646 1.368627 4.89362 3.957719 5.34408 c23.34374 4.08551 64.9548 15.05803 71.86604 62.99314 c0.59563 4.19775 -3.22215 7.88668 -8.24919 5.52517 c-7.016 -3.28637 -14.0245 -6.56524 -21.03452 -9.8561 c-0.73631 -0.33971 -1.57291 -0.63154 -2.37956 -0.63154 c-11.28874 0 -21.78131 0 -33.06406 0 c-4.700774 0 -6.635857 4.49557 -3.578336 7.99743 c7.949864 9.15423 15.24123 19.03278 21.4775 29.50395 c0.55074 0.92934 1.1823 1.28551 2.26284 1.28551 c4.81152 0 9.62903 0 14.43457 0 c0.98176 0 1.82284 -0.22747 2.6714 -0.73031 c4.53615 -2.66081 9.0723 -5.31414 13.62042 -7.97346 c0.84259 -0.50284 1.68366 -0.49236 2.66692 -0.49236 c34.80758 0 72.15187 0 108.8003 0 c1.46066 0 2.64296 0.94131 2.64296 2.40342 c0 1.78234 0 3.56621 0 5.35455 c0 1.94698 1.74202 3.42555 3.66514 3.12774 c13.48124 -2.152 25.8565 -8.31318 35.6726 -17.5198 c1.56094 -1.45612 1.56094 -3.93436 0 -5.38449" id="path22-7" fill-rule="nonzero" stroke-width="1.138993" stroke-miterlimit="4" stroke-dasharray="none" fill-opacity="1" stroke-opacity="1" inkscape:connector-curvature="0" style="fill:url(&quot;#linearGradient3118&quot;);stroke:#141414;" />
        <path d="m209.7391 334.2292 c-10.71704 0 -19.39125 -8.67983 -19.39125 -19.37848 c0 -10.70911 8.67421 -19.38445 19.39125 -19.38445 c10.69162 0 19.37929 8.67534 19.37929 19.38445 c0 10.69865 -8.68767 19.37848 -19.37929 19.37848 z m71.25093 18.34439 c-7.36018 -6.00257 -15.11851 -9.88454 -24.54249 -11.8375 c-0.85306 -0.17511 -1.26761 0.15265 -1.26761 1.02959 c0 0.16315 0 0.30979 0 0.47292 c0 2.31511 -2.31522 5.01035 -4.64242 5.01035 c-2.03384 0 -4.09166 0 -6.12102 0 c-5.16771 0 -9.78017 -4.25611 -7.86755 -11.09074 c22.11504 -78.92361 -2.59658 -127.7237 -33.80188 -155.0413 c-8.47666 -7.40627 -9.23693 -7.81632 -17.68514 -7.4946 c-6.65831 0.25147 -14.46302 1.07003 -21.06295 2.67132 c-1.29754 0.31576 -2.37958 1.34535 -0.66598 2.78354 c16.01794 13.49713 37.4311 36.76357 47.67372 72.97793 c0.35171 1.25708 -0.3921 1.17028 -1.34991 1.22266 c-9.17257 0.5552 -12.26453 -5.06273 -15.13048 -8.63494 c-20.79356 -25.87937 -44.10737 -41.62129 -61.55756 -51.96376 c-1.73603 -1.0401 -2.0174 -1.02213 -3.33889 -0.24994 c-7.01449 4.0511 -14.88952 10.51609 -20.43736 16.39741 c-1.15686 1.24511 -0.86503 1.82876 0.41455 2.51267 c15.78449 8.45985 39.78822 25.12513 62.09632 53.38397 c1.38585 1.74793 1.48012 2.55457 0.69592 3.017 c-4.29072 2.55455 -11.45187 2.51865 -19.29697 -2.36752 c-21.26798 -13.26517 -42.86969 -22.65884 -59.77063 -27.52854 c-1.800393 -0.52527 -2.116173 -0.42052 -2.852493 1.12242 c-4.121595 8.66335 -8.611352 19.9232 -10.23066 29.68502 c-0.205033 1.27503 -0.315778 1.37381 0.865028 1.61325 c46.51088 9.44754 72.02916 34.95877 74.94002 69.06304 c0.50884 5.91575 -6.18389 11.61451 -12.84369 9.51039 c-7.2315 -2.29715 -14.25199 -4.87567 -21.48947 -7.16684 c-0.77674 -0.2574 -1.56094 -0.36815 -2.38557 -0.36815 c-9.99568 -0.006 -20.00485 -0.0114 -30.01252 -0.0114 c-1.333457 0 -2.116174 0.83656 -0.790197 2.51416 c7.553266 9.55231 11.94425 14.96523 17.26909 23.89798 c0.54476 0.92934 1.17482 1.28551 2.26883 1.28551 c3.67112 0 7.35422 -0.006 11.04331 -0.006 c1.46066 0 2.71181 -0.33822 3.98092 -1.08648 c4.00485 -2.34505 7.98577 -4.53148 11.99064 -6.88101 c1.27359 -0.74826 2.36161 -1.19872 3.83424 -1.19872 c36.31614 -0.0114 75.23934 0 111.548 -0.006 c2.31521 0 4.71274 2.7072 4.71274 5.03879 c0 0.26338 0 0.53276 0 0.80213 c0 0.87547 0.41455 1.20321 1.26761 1.03411 c9.42398 -1.95296 17.18231 -6.47696 24.54249 -12.48101 c0.66601 -0.54922 0.66601 -1.07599 0 -1.63121" id="path24" fill-rule="nonzero" fill-opacity="1" inkscape:connector-curvature="0" style="fill:#42BD3B;stroke:none;" />
        <g transform="matrix(1.423771, 0, 0, 1.423711, -24.95821, -18.7736)" id="g16866">
          <path d="m179.0345 232.781 c1.22834 8.39755 -4.58264 16.18987 -12.98021 17.41821 c-8.39029 1.22729 -16.18969 -4.57418 -17.41803 -12.97174 c-1.22835 -8.39756 4.58142 -16.1982 12.97171 -17.42548 c8.39756 -1.22834 16.19818 4.58145 17.42653 12.97901" id="path26-4" fill-rule="nonzero" fill-opacity="1" inkscape:connector-curvature="0" style="fill:url(&quot;#linearGradient3120&quot;);stroke:none;" />
          <path d="m166.298 219.8279 l-4.61824 30.3947 c6.61599 0.94214 13.32575 -2.5563 16.18492 -8.96818 c3.4564 -7.75121 -0.022 -16.82351 -7.76653 -20.27693 c-1.24435 -0.55487 -2.51598 -0.94123 -3.80015 -1.14959 z" id="path26-4-9" fill-rule="nonzero" fill-opacity="1" inkscape:connector-curvature="0" style="fill:url(&quot;#linearGradient3122&quot;);stroke:none;" />
        </g>
        <path d="m226.7672 315.2428 c0 8.08422 -6.56401 14.65546 -14.66653 14.65546 c-8.09652 0 -14.65007 -6.57124 -14.65007 -14.65546 c0 -8.10217 6.55355 -14.66743 14.65007 -14.66743 c8.10252 0 14.66653 6.56526 14.66653 14.66743" id="path28" fill-rule="nonzero" stroke-width="1.138993" stroke-miterlimit="4" stroke-dasharray="none" fill-opacity="1" stroke-opacity="1" inkscape:connector-curvature="0" style="fill:white;stroke:#141414;" />
      </g>
    </g>
  </g>
</svg>