<?xml version="1.0" encoding="utf-8"?>
<!DOCTYPE svg PUBLIC "-//W3C//DTD SVG 1.1//EN" "http://www.w3.org/Graphics/SVG/1.1/DTD/svg11.dtd">
<svg version="1.1" xmlns="http://www.w3.org/2000/svg" xmlns:xlink="http://www.w3.org/1999/xlink" xmlns:xml="http://www.w3.org/XML/1998/namespace" xmlns:a="http://ns.adobe.com/AdobeSVGViewerExtensions/3.0/" width="623" height="999" viewBox="0.38139996, -0.038, 342.89917, 549.45" xml:space="preserve" style="enable-background:new -0.169 -0.038 344 550;">
<defs>
</defs>
<polyline points="0,574.034 0,0 349.46,0.369 349.46,574.034" clip-rule="evenodd" fill-rule="evenodd" style="fill:none;" />
<path d="M325.738 0 c9.509 0 17.198 7.607 17.198 17.015 V532.42 c0 9.4 -7.689 17.015 -17.198 17.015 H17.753 c-9.5 0 -17.191 -7.614 -17.191 -17.015 V17.015 C0.562 7.607 8.253 0 17.753 0 H325.738" style="fill:white;" />
<path d="M7.246 76.404 h329.229 V531.39 c0 3.784 -0.646 6.123 -3.198 8.661 c-2.77 2.753 -5.2 3 -9.586 3 l-306.615 0.03 c-2.416 0 -4.269 -0.77 -6.269 -2.461 c-2.477 -2.123 -3.561 -4.769 -3.561 -7.569 V76.404" style="fill:#FFF200;" />
<rect x="7.246" y="53.513" width="329.229" height="23.375" style="fill:#ED1C24;" />
<rect x="7.246" y="30.091" width="329.229" height="23.376" style="fill:white;" />
<path d="M16.553 6.315 h310.4 c4.971 0 9.555 4.792 9.555 9.469 v14.922 H7.246 l0.03 -13.123 v-1.092 C7.276 11.2 11.353 6.838 16.553 6.315" style="fill:#009A4E;" />
<path d="M325.738 0 c9.509 0 17.198 7.607 17.198 17.015 V532.42 c0 9.4 -7.689 17.015 -17.198 17.015 H17.753 c-9.5 0 -17.191 -7.614 -17.191 -17.015 V17.015 C0.562 7.607 8.253 0 17.753 0 H325.738 M325.738 6.792 H17.753 c-5.708 0 -10.322 4.584 -10.322 10.223 V532.42 c0 5.646 4.615 10.199 10.322 10.199 h307.985 c5.709 0 10.323 -4.553 10.323 -10.199 V17.015 C336.061 11.377 331.447 6.792 325.738 6.792 z" />
<path d="M165.692 105.28 c0 0 -0.208 1.984 -0.661 3.146 c-0.446 1.076 -1.608 1.8 -1.531 2.522 c0.077 0.708 0.831 1.562 2 2.153 c1.146 0.6 1.607 1.062 2.784 1.362 c1.092 0.27 2.477 1.069 2.869 0.154 c0.393 -0.931 -0.199 -2.062 -0.861 -3.146 c-1.154 -1.892 -1.738 -2.354 -3.438 -4.954 C166.492 105.957 166.208 105.356 165.692 105.28" />
<path d="M157.069 309.693 c0.115 -0.339 2.838 1.385 4.253 2.216 c2.977 1.784 4.315 2.845 6.946 4.814 c2.085 1.585 3.092 2.4 5.185 4.2 c2.568 2.215 3.953 4.107 4.646 3.677 c1 -1.2 -1.638 -4.708 -3.97 -6.614 c-2.268 -1.878 -4.614 -3.4 -6.422 -4.585 c-2.331 -1.555 -2.539 -1.908 -6.023 -4.247 c-3.746 -2.507 -6.976 -5.66 -6.976 -5.66 l-3.639 -2.861 l-5.699 -4.808 l-6.338 -5.838 l-4.784 -5.331 c0 0 -3.723 -4.553 -4.315 -5.431 c-0.6 -0.869 -2.354 -3.685 -3.799 -6.068 c-1.293 -2.139 -3.8 -5.461 -4.031 -5.746 c-1.354 -1.639 -4.446 -0.977 -8.039 -3.092 c-4.361 -2.577 -5.415 -4.931 -5.415 -4.931 s-0.162 -0.345 -0.331 -0.53 c-0.162 -0.193 -0.492 -0.431 -0.492 -0.431 l-2.285 -1.592 l-1.308 -0.862 c0 0 -0.992 -0.823 -2.238 -1.354 c-1.254 -0.554 -4.046 -2.177 -4.046 -2.177 l-4.992 -3.184 c0 0 -1.954 -1.569 -2.6 -2.092 c-0.661 -0.5 -1.892 -1.215 -1.892 -1.215 s-0.785 -0.393 -1.023 -0.408 c-0.238 -0.016 -1.276 -0.108 -1.276 -0.108 s-0.962 -0.254 -1.939 0.893 c-0.977 1.154 -0.738 0.538 0.854 7.03 c0.63 2.553 0.569 11.561 1.246 14.306 c0.861 3.523 3.338 8.077 3.592 8.615 c0.247 0.531 0.423 2.5 0.423 2.5 s-0.107 1.593 0.062 2.601 c0.754 4.653 7.561 1.591 9.062 7.976 c1.477 6.3 -0.885 12.584 -0.885 12.584 s-1.462 3.124 -3.531 3.615 c-2.061 0.478 -5.261 -4.091 -7.576 -7.791 c-2.284 -3.639 -4.153 -8.408 -4.753 -9.923 c-0.6 -1.516 -0.916 -1.847 -1.608 -2.946 c-1.023 -1.639 -1.846 -1.338 -2.992 -3.923 c-1.154 -2.584 -0.131 -3.623 -0.646 -5.876 c-0.3 -1.246 -0.569 -1.385 -0.961 -3.17 c-0.377 -1.776 -0.885 -7.43 -0.885 -7.43 l-0.723 -5.261 c0 0 -0.254 -2.4 -0.584 -3.908 c-1.146 -5.261 -1.546 -10.353 -1.546 -10.353 l-0.215 -2.092 l-0.077 -2.161 c0 0 -0.069 -1.039 0.185 -2.108 c0.254 -1.068 0.77 -1.953 0.77 -1.953 s1.062 -1.777 1.246 -2.223 c0.177 -0.423 2.346 -2.946 2.346 -2.946 s1.138 -0.946 2.992 -2.077 c1.862 -1.131 3.531 -1.054 3.531 -1.054 s0.492 -0.046 3.785 0.362 c3.292 0.407 10.061 2.207 11.769 2.646 c1.684 0.455 3.7 1.162 5.007 1.892 c3.761 2.046 4.9 1.178 1.908 -1.168 c-2.016 -1.577 -2.584 -2.285 -4.208 -3.761 c-1.37 -1.262 -2.446 -2.101 -3.469 -3.262 c-1.023 -1.185 -3.938 -5.484 -3.938 -5.484 l-1.823 -2.692 c0 0 -0.977 -1.107 -1.139 -1.185 c-0.153 -0.092 -0.646 -0.469 -0.646 -0.469 s-1.207 0.061 -2.454 -0.177 c-1.261 -0.254 -1.846 1.516 -1.846 1.516 s-2.708 5.053 -5.461 8.146 c-4.461 5.022 -7.661 8.438 -9.299 11.114 c-2.3 3.708 -1.792 7.77 -2.977 9.646 c-0.692 1.1 -1.069 1.262 -1.446 2.223 c-1.154 2.916 3.038 4.515 2.077 7.745 c-1.531 5.124 -13.53 10.192 -15.123 9.346 c-1.654 -0.869 -0.3 -7.799 0.254 -10.038 c0.569 -2.253 2.253 -5.576 2.408 -5.745 c0.146 -0.162 0.554 -0.947 0.676 -1.608 c0.131 -0.661 0.177 -2.161 0.254 -2.992 c0.077 -0.839 0.423 -2.161 0.423 -2.161 s0.046 -0.285 1.107 -2.584 c1.069 -2.315 4.977 -7.7 7.777 -12.838 c1.846 -3.354 2.615 -5.384 4.461 -8.746 c1.7 -3.084 4.615 -7.792 4.615 -7.792 s1.23 -2.4 1.807 -3.292 c0.585 -0.916 1.815 -2.646 2.969 -4.354 c1.162 -1.7 1.446 -2.977 2.961 -4.377 c1.254 -1.169 2.108 -1.792 3.746 -2.315 c2.438 -0.808 4.108 -0.376 6.6 0.316 c2.584 0.707 4.361 1.892 6.054 3.292 c1.684 1.416 2.938 2.977 2.938 2.977 l0.823 1.215 l0.507 0.3 l1.57 1.008 l3.592 2.376 c0 0 8.523 5.8 9 6.115 c0.454 0.3 1.984 1.554 2.284 1.654 c0.316 0.092 2.585 -2.37 7.039 -5.438 c5.153 -3.577 6.976 -3.308 8.685 -4.238 c1.684 -0.931 2.376 -1.7 3.7 -3.023 c2 -2 2.015 -3.069 4.284 -5.861 c2.285 -2.784 4.423 -4.346 4.423 -4.346 s0.315 -0.315 4.385 -4.915 c4.061 -4.584 5.861 -8.054 5.861 -8.054 l2.231 -4.469 c0 0 3.23 -6.945 4.269 -9.692 c1.046 -2.753 1.046 -3.669 1.046 -3.669 s0.153 -0.723 -0.631 -2.123 c-0.808 -1.393 -1.639 -0.762 -3.185 -0.446 c-2.961 0.631 -4.761 -0.139 -7.753 -0.661 c-2.738 -0.455 -4.169 -1.277 -6.915 -1.731 c-2.784 -0.469 -4.407 -0.93 -7.2 -0.661 c-0.423 0.046 -1.276 0.223 -1.685 0.361 c-1.577 0.523 -2.015 0.646 -3.184 1.323 c-1.354 0.631 -2.246 0.831 -3.746 0.869 c-1.039 0.031 -1.669 0.062 -2.63 -0.315 c-0.662 -0.254 -1.039 -0.446 -1.562 -0.915 c-0.315 -0.285 -0.484 -0.47 -0.723 -0.839 c-0.03 -0.292 -0.123 -0.277 0.162 -0.753 c0.277 -0.485 0.623 -0.57 0.623 -0.57 l1.277 -0.315 c0 0 1.8 -0.469 1.969 -0.516 c0.162 -0.046 1.877 -0.6 2.63 -0.838 c0.762 -0.238 1.593 -0.677 1.593 -0.677 s0.461 -0.738 0.284 -1.161 c-0.223 -0.478 -1.246 -0.523 -1.246 -0.523 s-1.431 0.523 -1.592 0.569 c-0.154 0.031 -2.439 0.753 -2.439 0.753 s-1.792 0.393 -3.184 0.723 c-1.4 0.315 -3.4 0.477 -3.4 0.477 l-0.6 -0.162 c0 0 -0.677 -0.454 -0.784 -0.93 c-0.1 -0.423 -0.162 -0.739 -0.239 -1.223 c-0.3 -1.77 -0.661 -2.839 -0.238 -4.584 c0.162 -0.731 0.331 -1.139 0.646 -1.815 c0.269 -0.562 0.446 -0.885 0.792 -1.416 l1.101 -1.8 l2.077 -3.069 c0.715 -0.723 1.185 -1.084 2.084 -1.592 c1.323 -0.738 2.092 -0.946 3.746 -1.131 c1.623 -0.177 1.846 -0.161 4.146 -0.677 c2.315 -0.523 3.954 -1.438 3.954 -1.438 s5.531 -2.031 8.899 -3.685 c3.53 -1.73 5.069 -3.577 8.723 -5.007 c1.546 -0.6 2.446 -0.885 4.038 -1.292 c0.2 -0.131 0.3 -0.254 0.362 -0.493 c0.154 -0.577 -0.738 -0.846 -1.354 -0.785 c-0.554 0.046 -1.815 0.631 -2.1 0 c-0.216 -0.484 1.153 -0.769 1.153 -0.769 s0.646 -0.3 0.662 -0.661 c0.016 -0.554 -0.93 -0.193 -1.354 -0.239 c-2.146 -0.239 -2.315 -0.631 -3.8 -0.992 c-1.746 -0.438 -2.691 -0.977 -4.507 -1.054 c-1.6 -0.062 -3.1 0.277 -4.107 0.515 c-0.992 0.254 -1.023 -0.723 -0.631 -0.915 c2.808 -1.308 2.869 -1.416 4.854 -1.508 c1.084 -0.046 2.6 0.185 2.769 0.269 c0.162 0.092 2.331 -0.015 2.885 -0.584 c0.569 -0.554 -1.777 -0.523 -2.885 -0.962 c-1.022 -0.407 -2.584 -0.522 -2.553 -1.2 c0.054 -0.677 0.808 -0.3 1.346 -0.438 c0.676 -0.162 1.069 -0.146 1.761 -0.238 c1.247 -0.169 1.354 -0.285 3.2 -0.438 c1.823 -0.177 4.454 0.6 4.454 0.6 s2.761 1.224 4.115 1.87 c1.354 0.63 2.992 0.961 2.992 0.961 s1.922 0.269 3.385 -0.646 c1.484 -0.908 0.646 -1.508 0.13 -2.346 c-0.508 -0.785 -1.153 -1.923 -0.208 -4.077 c0.839 -1.877 1.277 -4.069 1.516 -4.269 c0.301 -0.238 1.462 1.446 2.215 2.139 c2.7 2.523 6.27 3.769 9.639 9.045 c0.262 0.423 1.508 -0.254 5.415 0.346 s7.323 4.784 8.185 5.785 c0.893 1.007 2.046 0.953 2.046 0.953 l1.877 0.254 l6.814 0.115 c0 0 3.093 -0.554 4.877 0.124 c1.246 0.469 5.4 3.246 3.508 4.299 c-1.323 0.739 -2.569 -0.884 -3.769 -0.961 c-1.416 -0.092 -2.031 0.177 -3.293 0.492 c-2.646 0.662 -8.322 2.377 -6.261 3.069 c0.153 0.061 0.446 0.107 0.446 0.107 l1.015 0.177 c0 0 2.493 0.569 4 1.161 c2.276 0.9 3.354 1.893 5.446 3.123 c1.199 0.692 1.723 1.385 3.03 1.777 c1.2 0.347 1.969 0 3.2 0.208 c1.615 0.285 2.522 0.616 4 1.323 c2.199 1.054 2.999 2.331 4.969 3.746 c0.984 0.715 1.814 0.823 2.553 1.785 c0.17 0.215 0.309 0.331 0.386 0.584 c0.262 0.877 -1.447 0.361 -2.354 0.216 c-1 -0.169 -1.415 -0.662 -2.338 -1.085 c-1.369 -0.646 -2.016 -1.354 -3.508 -1.623 c-1.077 -0.208 -1.723 -0.046 -2.83 0.015 c-1.077 0.046 -1.646 0.208 -2.724 0.223 c-1.83 0.031 -2.861 -0.13 -4.661 -0.508 c-2.016 -0.422 -3.016 -1.207 -5.015 -1.623 c-2.262 -0.469 -6.261 -2.407 -5.877 -0.469 c0.2 0.931 2.323 1.715 2.323 1.715 s1.461 0.785 2.846 1.4 c1.385 0.6 2.153 1.516 2.153 1.516 l0.954 0.708 c0 0 0.984 1.354 2.277 2.884 c1.261 1.508 3.507 1.461 3.507 1.461 s1.354 0 4.276 0.6 c2.908 0.6 5.908 2.399 5.908 2.399 s2.261 1.554 3.584 3.116 c1.308 1.562 0.554 2.346 0.385 2.507 c-0.153 0.169 -0.093 0.092 -0.277 0.169 c-0.153 0.077 -1.784 -1.969 -1.784 -1.969 l-1.169 -0.992 c0 0 -1.139 -0.8 -2.615 -1.277 c-1.477 -0.469 -1.97 -0.154 -1.97 -0.154 s-3.138 0.877 -5.876 0.8 c-2.708 -0.077 -4.123 -1.162 -4.123 -1.162 l-1.723 -1.154 c0 0 -2.585 -2.423 -2.678 -1.276 c-0.062 0.777 1.139 1.638 1.139 1.638 s0.831 0.838 1.385 1.37 c1.046 1.03 1.478 1.546 2.677 2.614 c1.2 1.078 1.938 1.078 1.938 1.078 s0.646 0.153 0.892 0.2 c0.247 0.046 0.678 0.162 0.678 0.162 s0.4 0.154 2.276 0.916 c1.861 0.753 3.877 2.392 3.877 2.392 s0.185 0.154 0.462 0.208 c0.276 0.031 0.83 0.308 0.984 0.354 c0.169 0.038 0.646 0.038 1.723 0.192 c1.093 0.162 0.677 0.854 0.677 0.854 l-0.185 0.261 l-0.893 0.6 c0 0 -1.153 0.331 -1.938 0.369 c-0.8 0.046 -1.938 -0.399 -1.938 -0.399 l-2.416 -0.908 c0 0 -2.445 -0.646 -2.969 -0.731 c-0.523 -0.077 -2.707 -0.515 -3.076 -0.592 c-0.354 -0.084 -1.446 -0.477 -1.738 -0.646 c-0.293 -0.161 -0.831 -0.269 -2.154 -0.915 c-1.308 -0.646 -1.831 -1.392 -3.461 -1.908 c-1.646 -0.523 -2.646 -0.63 -3.877 0.224 c-2.123 1.461 3.199 1.7 5.846 3.022 c3.908 1.923 6.107 3.338 7.03 5.416 c0.938 2.084 1.877 2.838 1.877 2.838 s2.754 1.385 3.984 2.838 c0.677 0.784 0.77 1.431 1.446 2.215 c1.507 1.769 4.431 1.669 5.016 3.169 c0.554 1.399 -2.37 0.769 -3.893 0.63 c-2.738 -0.269 -3.4 -2.777 -5.954 -3.784 c-1.445 -0.577 -2.368 -0.577 -3.846 -1.084 c-2.692 -0.885 -3.953 -2.046 -6.646 -2.884 c-1.631 -0.5 -4.585 -2.646 -4.215 -0.993 c0.061 0.4 0.307 0.708 0.414 0.947 c0.139 0.238 0.816 1.115 0.816 1.115 s0.907 1.2 1.322 1.516 c0.385 0.331 2.123 1.638 4.615 2.992 c2.462 1.354 4.615 3.954 4.615 3.954 s0.739 1.062 1.093 1.801 c0.369 0.831 0.107 1.084 0.692 2.238 c0.538 1.146 0.8 1.369 1.538 2.077 c1.815 1.746 3.723 1.399 6.03 2.346 c0.631 0.269 0.677 0.361 1.354 1.084 c0.677 0.715 -0.124 1.022 -0.124 1.022 s-2.568 0.662 -4.23 0.523 c-2.153 -0.169 -3.123 -0.831 -5.215 -1.877 c-2.123 -1.038 -3.23 -2.907 -3.445 -3.022 c-0.185 -0.124 -0.708 -0.677 -1.108 -0.962 c-0.399 -0.284 -1.431 -0.5 -2.354 -0.754 c-0.938 -0.253 -1.462 -0.3 -2.399 -0.554 c-1.277 -0.362 -2.601 -0.923 -3.201 -1.115 c-0.6 -0.208 -1.969 -0.454 -2.969 0.138 c-2 1.185 3.107 1.984 4.692 3.685 c0.815 0.854 1.153 1.454 1.923 2.354 c0.585 0.692 0.831 1.177 1.555 1.715 c0.491 0.361 1.399 0.753 1.399 0.753 s1.23 0.57 3.03 1.562 s3.907 3.799 3.907 3.799 l1.277 1.954 l0.754 1.115 l0.2 0.516 l0.276 0.63 c0 0 0.924 1.2 1.6 1.592 c0.678 0.408 0.554 0.762 0.554 0.762 s-0.076 0.247 -0.554 0.516 c-0.461 0.285 -0.723 0.046 -1.399 -0.154 c-0.677 -0.192 -1.123 -0.838 -1.707 -1.308 c-0.616 -0.492 -1.262 -1.684 -2.354 -2.361 c-0.969 -0.584 -2.23 -0.792 -2.723 -0.946 c-0.477 -0.176 -1.677 -0.93 -2.154 -1.138 c-0.461 -0.185 -1.707 -0.754 -1.707 -0.754 s-2.399 -1.338 -3.724 -1.699 c-1.322 -0.37 -0.477 0.438 -0.477 0.438 s1.186 1.846 2.323 2.584 c1.478 0.977 3.554 1.839 2.877 2.63 c-0.462 0.516 -1.077 0.331 -1.754 0.254 c-1.107 -0.13 -2.446 -1.454 -2.446 -1.454 s-0.553 -0.361 -3.03 -1.146 c-2.462 -0.808 -1.554 0.546 -0.985 1.277 c0.555 0.708 1.309 1.115 1.309 1.115 l1.677 0.754 l0.769 0.238 c0 0 0.678 0.123 2.908 0.646 c2.23 0.508 3.462 1.593 3.462 1.593 s1.199 1.115 2.86 2.346 c1.692 1.246 3.354 1.562 4.277 1.685 c0.923 0.115 0.892 0.761 0.892 0.761 s0.123 0.593 0.063 0.785 c-0.031 0.2 -0.231 0.362 -0.432 0.362 c-0.185 0 -0.276 0.077 -0.522 0.208 c-0.246 0.123 -1.2 0.277 -1.2 0.277 s-2.492 -0.077 -4.461 -0.562 c-1.938 -0.477 -3.662 -1.831 -3.847 -1.907 c-0.153 -0.077 -1.969 -1.084 -3.23 -1.484 c-1.215 -0.408 -3.169 -0.231 -3.385 -0.154 c-0.199 0.077 -0.877 0.185 -2.03 0.523 c-1.169 0.308 0.292 0.753 0.292 0.753 l0.831 0.077 l1.984 0.154 c0 0 2.062 0.238 3.8 0.884 c1.738 0.631 2.877 1.908 4.031 3.077 c1.153 1.146 2.431 1.9 2.431 1.9 l0.923 0.6 l0.477 0.361 l0.123 0.315 c0 0 -0.046 0.162 -0.123 0.361 c-0.077 0.208 -0.369 0.361 -0.369 0.361 s-0.431 -0.077 -0.615 -0.077 c-0.216 0 -1.523 -0.692 -2.492 -1.115 c-1 -0.438 -1.508 -0.854 -2.585 -1.116 c-0.923 -0.223 -2.153 -0.323 -2.431 -0.238 c-0.276 0.077 -2.308 0.362 -3.877 0.469 c-1.568 0.123 -2.923 0.146 -4.769 -0.077 c-2.63 -0.315 -6.122 -2.393 -6.569 -1.815 c-0.907 1.215 1.862 1.561 3.216 2.338 c1.846 1.069 5.046 2.031 5.046 2.031 s2.338 0.515 3.707 1.161 c3 1.393 3.908 3.454 6.323 5.623 c1.323 1.215 2.4 1.738 4.184 2 c1.539 0.224 1.508 0.039 3.938 -0.438 c2.446 -0.484 3.924 -2.8 4.631 -1.953 c0.139 0.162 0.077 0.315 0.046 0.554 c-0.046 0.238 -0.245 0.677 -0.245 0.677 s-0.277 0.392 -0.708 0.838 c-0.446 0.438 -2.123 1.354 -3 1.715 c-0.877 0.362 -3.03 0.962 -5.738 0.877 c-2.708 -0.077 -6.522 -2.154 -6.522 -2.154 l-2.738 -1.154 c0 0 -1.262 -0.592 -2.123 -0.915 c-2.277 -0.862 -3.723 -0.785 -6.062 -1.4 c-1.446 -0.392 -2.399 -0.8 -3.707 -1.069 c-1.323 -0.284 -0.569 0.239 -0.446 0.423 c0.615 0.838 1.445 1.107 2.492 1.592 c1.385 0.677 2.354 0.539 3.769 1.139 c1.585 0.639 2.97 1.539 3.847 2.108 c0.861 0.554 1.508 1.185 2.354 2.062 l2.907 2.492 c0 0 0.677 0.554 0.754 0.785 c0.076 0.239 0.399 0.838 0.246 1.8 c-0.17 0.962 -0.954 0.285 -0.954 0.285 l-0.769 -0.492 l-0.77 -0.708 l-1.216 -1.007 c0 0 -1.045 -0.947 -2.846 -1.862 c-1.784 -0.931 -3.938 -1.162 -3.938 -1.162 s-1.908 -0.284 -1.846 0.316 c0.092 0.592 0.521 0.646 2.029 1.038 c1.523 0.393 2.523 1.162 2.523 1.162 s1.555 1.154 2.677 2.43 c1.107 1.278 1.431 2.516 1.431 2.516 s0.569 1.046 2 2.43 c1.431 1.4 2.185 0.915 2.107 1.593 c-0.077 0.677 -0.708 0.8 -0.708 0.8 s-0.369 -0.032 -0.522 -0.032 c-0.154 0 -0.523 -0.207 -0.923 -0.361 c-0.4 -0.154 -1.908 -1.2 -1.908 -1.2 s-2.368 -1.922 -2.63 -2.107 c-0.293 -0.208 -2.523 -1.877 -2.523 -1.877 s-1.323 -0.846 -2.262 -1.323 c-0.969 -0.469 -2.246 -0.961 -2.969 -1.2 c-0.707 -0.231 -2.031 -0.308 -2.031 -0.308 s-1.584 -0.238 -2.553 -0.6 c-1.523 -0.585 -3.293 -2.208 -3.492 -2.285 c-0.216 -0.084 -1.631 -0.569 -1.908 -0.523 c-0.276 0.031 -0.923 2.708 -1.076 4.254 c-0.646 6.477 1.076 10.776 3.753 16.715 c3.861 8.63 14.614 19.36 14.614 19.36 s2.708 1.531 3.847 2.446 c3.215 2.516 8.538 6.077 13.261 10.784 c4.03 4.038 9.385 11.199 9.385 11.199 s3.106 4.323 4.553 7.384 c1.754 3.754 3.17 9.478 3.17 9.478 s0.123 0.984 0.215 1.2 c0.123 0.199 0.399 0.461 0.585 0.461 l1.876 0.062 c0.185 0 2.323 -0.153 3.739 -0.508 c1.4 -0.354 4.723 -1.877 6.938 -3.03 c2.184 -1.17 4.815 -3.385 4.815 -3.385 s0.507 -0.431 3.062 -3.292 c2.585 -2.861 4.246 -7.153 4.876 -8.776 c0.616 -1.607 1.124 -4.707 1.493 -10 c0.399 -5.314 -0.323 -10.915 -0.323 -10.915 s-0.969 -7.815 -1.555 -10.477 c-0.584 -2.645 -1.999 -6.984 -1.999 -6.984 s-0.984 -3.86 -1.292 -6.298 c-0.324 -2.439 -0.369 -6.408 -0.369 -6.408 s0 -2.43 0.783 -6.922 c0.816 -4.469 3.555 -8.977 3.555 -8.977 s0.769 -1.516 3.724 -5.054 c3.03 -3.623 3.998 -4.192 6.983 -6.354 c2.37 -1.7 5.43 -4.438 6.432 -3.792 c1.107 0.692 -1.079 2.077 -1.817 2.8 c-1.861 1.846 -5.337 5.107 -8.153 10.022 c-2.461 4.254 -3.384 7.069 -3.998 9.846 c-0.617 2.77 -0.354 5.815 -0.277 6.854 c0.093 1.039 0.661 0.662 0.661 0.662 s5.984 -4.808 9.23 -8.446 c3.523 -3.938 6.661 -10.946 7.891 -11.007 c0.831 -0.054 1.216 1.823 1.016 2.692 c-0.768 3.638 -1.029 4.092 -2.216 6.507 c-1.353 2.769 -2.613 4 -4.491 6.554 c-1.97 2.677 -2.938 3.7 -4.522 7.245 c-2.291 5.1 -0.954 9.039 -0.954 9.039 s0.277 2.392 1.353 2.361 c1.802 -0.062 5.754 -5.054 8.339 -9.139 c1.909 -2.992 2.6 -6.453 3.847 -8.269 c1.138 -1.607 2.139 2.616 1.646 5.108 c-0.57 2.961 -2.031 5.623 -5.246 9.815 c-3.138 4.091 -3.046 7.984 -3.046 7.984 s-0.323 1.777 -0.585 5.654 c-0.245 3.86 0.862 9.723 0.862 9.723 s0.983 4.899 1.185 8.614 c0.185 3.738 0.061 12.223 -3.432 18.83 c-1.384 2.646 -4.354 6.308 -4.354 6.308 s-2.292 2.354 -4.169 3.722 c-1.878 1.37 -6.385 3.509 -6.385 3.509 s-3.122 1.076 -3.553 1.169 c-0.462 0.123 -0.738 0.507 -0.738 0.507 s0.276 0.601 0.399 0.847 c0.107 0.247 0.984 2.399 0.984 2.399 s0.938 3.046 1.292 5.462 c0.354 2.415 -0.062 2.969 -0.399 4.815 c-0.339 1.77 -1.107 0.953 -1.308 4.43 c-0.169 3.078 1.216 4.615 0.969 8.062 c-0.106 1.508 -1.815 -1.907 -2.646 -3.353 c-1.754 -3.14 -1.339 -7.97 -1.369 -9.169 c-0.047 -1.2 -0.14 -2.524 -0.585 -4.031 c-0.538 -1.97 -1.354 -3.492 -2.261 -4.692 c-0.924 -1.185 -1.893 -1.861 -2.216 -1.738 c-0.323 0.108 -0.354 0.738 -0.354 1.046 c-0.016 0.339 0.63 1.477 0.769 1.724 c0.169 0.23 1.323 2.338 1.323 2.338 s0.507 1.631 0.707 4.801 c0.201 3.138 -0.769 7.045 -0.769 7.045 s-1.262 4.385 -2.584 6.97 c-1.479 2.845 -4.754 6.722 -4.754 6.722 s-2.354 2.154 -4.124 5.692 c-1.737 3.538 -0.245 5.077 -0.892 5.538 c-0.677 0.446 -2.062 -2.046 -2.431 -3.723 c-0.354 -1.569 -0.185 -2.308 0.462 -4.062 c0.6 -1.692 2.016 -4.139 2.016 -4.139 l2.107 -3.584 c0 0 2.554 -4.861 3.354 -8.4 c0.8 -3.507 -0.123 -7.414 -0.123 -7.414 s-0.107 -1.292 -0.984 -1.231 c-0.893 0.046 -1.507 0.816 -1.877 1.754 c-0.724 1.938 0.308 1.585 -0.801 4.815 c-0.86 2.538 -1.107 2.2 -1.569 3.707 c-0.554 1.8 -0.846 3.646 -0.814 4.77 c0.046 1.107 -0.569 0.646 -0.569 0.646 s-1.077 -2.001 -1.077 -4.492 c0 -1.354 0.062 -2.123 0.216 -3.478 c0.246 -2.169 1.138 -5.491 1.138 -5.491 s0.954 -3.277 0.754 -6.262 c-0.229 -3.015 -1.276 -3.568 -1.276 -3.568 s-0.276 -0.4 -1.446 -0.339 c-1.153 0.093 -1.092 2.169 -1.092 2.169 s-0.354 2.97 -0.815 4.815 c-1.277 5.092 -2.984 7.769 -6 12.061 c-2.738 3.877 -6.445 7.293 -8.308 8.893 c-1.846 1.631 -7.538 5.769 -7.538 5.769 l-6.676 4.445 c0 0 -2.646 2.585 -3.847 5.662 c-1.23 3.062 -1.169 5.461 -0.462 8.276 c0.709 2.831 1.724 4.123 2.262 4.922 c0.523 0.771 1.555 2.154 1.893 3.786 c0.215 0.999 0.062 1.599 0.123 2.614 c0.063 0.893 0.185 1.385 0.154 2.293 c-0.031 1.415 0.23 2.414 -0.585 3.568 c-0.585 0.877 -2.185 1.646 -2.185 1.646 s-1.814 0.799 -2.893 1.461 c-11.354 6.846 -15.383 11.292 -21.783 18.922 c-2.031 2.446 -0.538 2.293 -2.707 5.185 c-1.316 1.724 -4.354 1.724 -5.454 3.784 c-1.53 2.815 3.446 5.585 -2.3 8.062 c-7.407 3.2 -20.153 0.907 -20.407 -0.092 c-0.692 -2.739 2.492 -5.907 3.623 -7.169 c5.184 -5.662 9.815 -5.801 11.515 -10.492 c0.369 -1 0.223 -1.861 4.353 -4.923 c2.9 -2.139 14.484 -10.861 19.546 -16.676 c1.738 -2 3.23 -3.322 3.984 -5.477 c0.77 -2.186 -0.754 -3.554 -0.754 -3.554 l-2.077 -3.385 l-3.984 -7.123 c0 0 -1.676 -3.784 -2.584 -5.969 c-0.938 -2.185 -2.677 -8.062 -2.677 -8.062 s-1.276 -5.291 -1.493 -8.738 c-0.384 -6.184 0.462 -9.783 2.094 -15.783 c2.107 -7.784 6.891 -11.046 8.799 -18.769 c0.555 -2.245 0.677 -6.092 -0.462 -5.907 c-1.077 0.2 -1.169 3.23 -1.999 5.262 c-3.077 7.661 -7.139 11.015 -9.369 18.952 c-1.492 5.369 -2.107 8.555 -2.093 14.123 c0.017 3.184 -0.107 2.6 0.708 8.123 c0.323 2.03 0.815 3.122 1.416 5.106 c0.43 1.416 1.584 4.062 1.584 4.062 s1.585 3.492 2.139 5.938 c0.168 0.847 0.385 1.322 0.322 2.169 c-0.107 1.461 0.154 1.77 -0.553 3.092 c-0.877 1.647 -0.34 2.616 -3.139 3.23 c-2.492 0.523 -7.584 -1.138 -7.584 -1.138 s-20.93 -6.338 -34.291 -4.508 c-2.646 0.354 -4.069 1.323 -6.73 1.277 c-2.423 -0.031 -3.654 -1.924 -6.077 -1.2 c-0.492 0.139 -0.646 0.492 -1.092 0.785 c-3.538 2.461 -0.831 6.553 -10.153 4.43 c-5.723 -1.308 -12.653 -4.814 -11.454 -7.015 c1.607 -2.923 3.761 -3.4 8.285 -5.262 c4.838 -1.969 12.099 -1.415 13.53 -1.507 c1.746 -0.139 4.254 -1.354 7.376 -1.431 c5.4 -0.093 6.361 0.554 6.361 0.554 l9.168 0.814 l17.546 0.217 c0 0 3.138 -0.231 4.384 -0.478 c1.262 -0.247 2.254 -2.723 2.945 -3.908 c0.678 -1.168 -0.03 -2.892 -0.03 -2.892 l-0.522 -0.815 l-1.67 -2.692 l-3.084 -5.2 l-3.423 -6.83 c0 0 -2.238 -4.753 -3.43 -7.876 c-1.185 -3.108 -1.877 -4.862 -2.662 -8.076 c-0.823 -3.309 -1.331 -5.985 -1.438 -8.646 C156.254 315.785 156 312.816 157.069 309.693" />
<path d="M270.971 303.355 c3.691 -4.738 4.047 -9.139 4.261 -15.338 c0.169 -4.507 -1.537 -11.453 -1.537 -11.453 l-0.232 -0.508 c0 0 -0.646 -0.839 -1.044 0.269 c0.061 0.978 0.185 1.762 0.185 1.762 l0.214 8.946 c0 0 -0.277 4.507 -1.814 9.153 c-2.585 7.846 -9.446 11.338 -10.445 14.169 C258.848 315.046 266.556 309.062 270.971 303.355" style="fill:white;" />
<path d="M232.266 317.832 c0 0 -1.508 0.431 -1.539 1.922 c-0.03 1.493 0.369 2.785 0.323 4.585 c-0.03 2.293 -2.138 4.938 -0.784 5.8 c2.323 1.477 4.322 -8.923 3.615 -10.461 C233.173 318.138 232.481 317.815 232.266 317.832" style="fill:white;" />
<path d="M206.206 389.935 c0 0 -0.432 -0.23 -1.277 0.093 c-0.83 0.322 -0.77 1.185 -0.77 1.185 s-0.169 0.923 0.508 1.016 c0.678 0.123 1.785 -1.539 1.785 -1.724 S206.206 389.935 206.206 389.935" style="fill:white;" />
<path d="M181.684 407.365 c0 0 -0.247 0.247 -0.031 0.415 c0.23 0.201 0.554 -0.046 0.554 -0.046 s4.23 -3.307 6.738 -5.63 c2.646 -2.492 6.462 -6.784 6.462 -6.784 s0.261 -0.323 -0.031 -0.6 c-0.309 -0.277 -1.031 0.153 -1.631 0.43 c-0.523 0.277 -0.831 0.569 -1.23 0.893 c-0.369 0.339 -1.631 1.631 -1.631 1.631 l-3.262 3.169 l-2.062 1.938 l-1.999 1.907 l-0.831 0.955 c0 0 -0.216 0.369 -0.276 0.461 c-0.063 0.107 -0.277 0.384 -0.277 0.384 s-0.309 0.293 -0.309 0.385 c0 0.077 -0.092 0.154 -0.092 0.247 C181.745 407.242 181.684 407.365 181.684 407.365" style="fill:white;" />
<path d="M174.369 412.166 c0 0 -0.454 -0.369 -1.169 -0.016 c-0.723 0.385 -1.492 1.368 -1.555 1.477 c-0.068 0.139 -0.461 0.662 -0.191 1.123 c0.269 0.462 1.184 -0.216 1.322 -0.246 c0.131 0 1.324 -0.953 1.324 -0.953 S174.792 413.119 174.369 412.166" style="fill:white;" />
<path d="M160.362 426.349 c0 0 -0.6 -1.107 -1.385 -0.646 c-0.785 0.462 -1.215 0.616 -1.938 1.615 c-0.123 0.169 -0.9 1.17 -1.039 1.431 c-0.138 0.247 -0.915 1.724 0.662 1.831 c2.708 0.153 0.93 -1.584 1.861 -2.262 c0.754 -0.522 2.169 -0.384 2.185 -0.938 C160.723 426.827 160.362 426.349 160.362 426.349" style="fill:white;" />
<path d="M112.364 369.674 c0 0 -1.623 0.401 -1.746 0.955 c-0.131 0.584 0.946 1.138 1.115 1.168 c0.192 0.031 0.554 0.462 1.638 -0.277 c1.069 -0.722 1.023 -1.338 1.023 -1.338 S115.025 369.444 112.364 369.674" style="fill:white;" />
<path d="M138.763 368.813 c0 0 -0.016 -0.6 -1.162 -0.522 c-1.169 0.062 -1.415 0.276 -1.446 0.461 c-0.038 0.169 0.062 0.462 1.1 0.554 C138.309 369.368 138.732 369.305 138.763 368.813" style="fill:white;" />
<path d="M163.723 369.536 c-2.1 -0.016 -1.438 0.047 -2.73 0.108 c-2.346 0.123 -3.623 0.03 -5.938 -0.124 c-3.247 -0.215 -8.269 -1.015 -8.269 -1.015 s-0.631 -0.153 -0.885 0.262 c-0.231 0.384 0.615 1.276 1.369 1.508 c4.115 1.277 4.338 1.062 7.138 1.107 c1.562 0.016 2.431 -0.139 3.985 -0.231 c1.969 -0.152 2.884 0.154 5.03 -0.415 C163.984 370.597 164.523 369.552 163.723 369.536" style="fill:white;" />
<path d="M177.784 365.367 c0 0 -0.423 -0.491 -1.293 -0.061 c-0.86 0.415 -1.384 1.353 -1.384 1.353 s-0.407 0.646 0.462 0.555 c0.846 -0.123 1.607 -0.492 1.807 -0.615 C177.599 366.474 178.23 365.89 177.784 365.367" style="fill:white;" />
<path d="M165.546 196.598 c0 0 5.938 -5.561 10.191 -12.914 c2.522 -4.385 3.622 -14.592 1.454 -12.054 c-0.978 1.162 -2.162 6.454 -4.039 10.376 c-2.677 5.584 -8.392 13.492 -8.392 13.492 S163.531 198.129 165.546 196.598" style="fill:white;" />
<path d="M141.809 210.729 c0 0 -0.631 0.492 -0.346 1.277 c0.3 0.8 1.508 0.2 1.508 0.2 s2.746 -1.038 5.623 -1.146 c2.884 -0.123 6.884 0.738 6.884 0.738 s1.907 0.523 2.223 0.646 c0.315 0.131 1.354 0.631 1.531 0.692 c0.154 0.069 1.146 0.554 1.7 0.054 c0.554 -0.508 -3.469 -4.161 -7.576 -4.715 c-6.839 -0.931 -11.33 2.015 -11.33 2.015 L141.809 210.729" style="fill:white;" />
<path d="M113.641 234.812 c0.484 0.416 2.769 -3.938 4.676 -6.692 c1.4 -2.015 3.955 -5.384 3.955 -5.384 s1.153 -1.546 -0.8 -0.684 c-0.792 0.354 -2.961 2.007 -4.492 5.046 C115.687 229.682 113.133 234.404 113.641 234.812" style="fill:white;" />
<path d="M97.842 215.897 c0 0 -0.493 1.685 1.477 3.792 c1.984 2.116 2.492 3.861 3.754 2.6 c0.346 -0.346 -1.231 -3.192 -2.031 -3.984 c-0.823 -0.785 -1.408 -1.431 -1.408 -1.431 l-0.515 -0.423 l-0.662 -0.369 l-0.377 -0.153 C98.08 215.929 97.98 215.836 97.842 215.897" style="fill:white;" />
<path d="M91.441 199.744 c0 0 -2.138 0.4 -2.661 1.438 c-0.531 1.039 2.461 0.408 2.461 0.408 s1.984 0.107 2.031 -0.646 C93.318 200.175 93.019 200.098 91.441 199.744" style="fill:white;" />
<path d="M57.466 256.049 c-1.092 -0.315 -1.276 1.832 -1.423 2.523 c-0.123 0.692 0.493 2.077 0.746 2.077 c0.246 -0.016 1.115 -1.369 1.161 -2.03 C57.997 257.942 58.428 256.35 57.466 256.049" style="fill:white;" />
<path d="M92.75 297.986 c0 0 -1.954 -1.547 -2.254 -0.931 c-0.292 0.615 1.608 3.33 1.608 3.33 s0.584 0.893 1.484 0.492 c0.884 -0.43 0.569 -1.415 0.569 -1.415 S93.557 298.201 92.75 297.986" style="fill:white;" />
<path d="M78.02 252.634 c0 0 -0.5 -0.13 -0.677 0.469 c-0.185 0.6 -0.169 1.577 -0.3 2.761 c-0.107 0.924 0.239 3.385 0.239 3.385 s0.192 1.954 0.584 3.116 c0.423 1.276 1.546 3.092 1.546 3.092 s0.423 0.931 0.946 0.885 c0.515 -0.054 0.392 -0.662 0.392 -0.662 s-1.638 -6.491 -1.684 -7.153 c-0.193 -2.161 -0.193 -4.792 -0.193 -4.792 l-0.015 -0.393 C78.858 253.342 78.842 252.649 78.02 252.634" style="fill:white;" />
<path d="M80.573 232.828 c0 0 -0.9 -0.169 -1.73 1.561 c-0.838 1.754 -0.661 2.462 -0.585 2.539 c0.062 0.077 0.723 0.062 1.785 -1.561 c1.054 -1.608 0.815 -2.224 0.815 -2.224 S80.796 232.828 80.573 232.828" style="fill:white;" />
<path d="M105.326 250.773 c0 0 1.084 1.622 -0.992 1.246 c-2.084 -0.377 -6.461 -3.831 -8.246 -4.761 c-1.762 -0.931 -4.662 -1.224 -3.446 -2.315 c0.223 -0.185 0.284 -0.363 0.63 -0.377 c0.362 -0.016 1.562 0.453 1.638 0.507 c0.062 0.03 3.146 1.307 3.261 1.338 c0.108 0.046 1.839 0.785 3.069 1.507 c1.231 0.73 3.23 2.13 3.23 2.13 L105.326 250.773" style="fill:white;" />
<path d="M163.023 300.448 c0.569 1.784 -6.569 -3.77 -10.392 -6.716 c-10.13 -7.8 -22.53 -23.791 -20.984 -25.206 c1.277 -1.162 6.361 6.161 13.815 14.229 C153.431 291.355 162.692 299.386 163.023 300.448" style="fill:white;" />
<path d="M192.821 292.801 c-2.215 2.361 -2.999 5.385 -1.723 7.646 c1.246 2.199 1.631 -3.216 3.016 -4.808 c1.2 -1.393 1.938 -1.169 3.907 -2.569 C201.375 290.709 195.622 289.794 192.821 292.801" style="fill:white;" />
<path d="M180.145 242.327 c-1.523 -0.246 -1.477 2.069 -1.262 3.708 c1.016 7.337 4.309 12.991 8.707 18.314 c2.678 3.246 10.016 9.03 10.861 8.1 c0.309 -0.331 -6.984 -5.969 -11.63 -13.214 c-3.292 -5.138 -5.046 -9.484 -5.461 -13.723 C181.315 244.973 181.437 242.535 180.145 242.327" style="fill:white;" />
<path d="M151.731 133.57 c-3.308 1.792 -9.046 3.37 -9.046 3.37 s-0.262 0.569 0.477 0.508 c4.916 -0.393 6.792 -1.008 9.408 -2.162 c2.615 -1.13 4.515 -4.269 4.515 -4.269 s1.062 -1.954 -0.907 -0.346 C155.562 131.163 153.546 132.578 151.731 133.57" style="fill:white;" />
<path d="M191.637 120.964 c0 0 -1.123 -0.247 -1.877 0.223 c-0.754 0.477 -0.539 0.854 -0.539 0.854 s1.17 0.892 2 1.039 c0.831 0.123 2.615 0.9 2.555 0.3 c-0.078 -0.615 -1.077 -1.715 -1.432 -2.015 C192.022 121.048 191.637 120.964 191.637 120.964" style="fill:white;" />
<path d="M172.854 155.424 c0.191 0.392 3.545 -0.523 4.838 -1.247 c1.008 -0.569 1.407 -2.477 1.407 -2.477 s0.277 -1.846 -0.153 -1.131 C177.03 153.701 172.668 155.023 172.854 155.424" style="fill:white;" />
<path d="M172.746 146.816 c1.354 -2.6 -3.716 2.7 -6.3 4.069 c-1.577 0.831 -4.146 1.938 -4.146 1.938 s-0.677 0.846 0.269 0.769 c0.946 -0.062 3.354 0.754 5.308 -0.754 c0.462 -0.369 2.492 -3.323 2.492 -3.323 S172.099 148.046 172.746 146.816" style="fill:white;" />
<path d="M171.961 157.877 c0.107 0.423 5.791 0.284 7.215 -0.146 c1.123 -0.308 1.738 -2.292 1.738 -2.292 s0.677 -1.738 0.092 -1.154 C178.43 156.916 171.862 157.454 171.961 157.877" style="fill:white;" />
<path d="M80.665 209.944 c0 0 -0.861 -0.315 -1.93 1.292 c-1.062 1.6 -5.846 8.869 -5 9.938 c1.007 1.261 5.153 -6.492 6.416 -7.938 c1.276 -1.469 0.753 -2.946 0.753 -2.946 S80.889 209.959 80.665 209.944" style="fill:white;" />
<path d="M184.883 341 c-0.523 2.415 0.092 7.354 0.924 8.322 c2.03 2.446 0.784 -3.83 1.076 -6.031 c0.246 -2.045 0.492 -2.753 1.508 -4.938 C190.206 334.415 185.946 335.861 184.883 341" style="fill:white;" />
<path d="M167.422 130.956 c0 0 -1.576 0.046 -2.807 0.723 c-1.246 0.677 -1.554 1.639 -1.554 1.639 s-0.254 0.692 -0.084 1.069 c0.361 0.823 2.069 -0.423 3.261 -0.016 c0.961 0.346 1.423 0.631 2.161 1.515 c0.646 0.77 1.777 1.877 2.485 1.246 c0.73 -0.615 0.462 -2.192 0.462 -2.192 s-0.839 -2.569 -1.938 -3.292 C168.299 130.91 167.422 130.956 167.422 130.956" style="fill:white;" />
<path d="M141.224 149.024 c0 0 -0.885 0.138 -0.677 1.215 c0.208 1.054 0.785 0.892 0.785 0.892 s1.831 -0.785 1.723 -1.884 C142.924 148.139 141.224 149.024 141.224 149.024" style="fill:white;" />
<path d="M128.432 143.286 c0 0 -0.961 0.039 -1.638 1.23 c-0.661 1.185 -1.054 2.416 -1.054 2.416 s-0.315 1.554 0.238 2.046 c0.562 0.484 1.177 -1.007 1.984 -1.592 c0.484 -0.346 0.785 -0.5 1.285 -0.854 c0.685 -0.47 1.8 0.13 1.723 -1.254 C130.871 143.885 129.394 143.224 128.432 143.286" style="fill:white;" />
<path d="M169.768 128.402 c0 0 -2.176 -0.315 -2.092 0.523 c0.077 0.784 1.178 0.315 1.885 0.631 c0.692 0.315 1.154 0.438 1.707 0.946 c0.408 0.361 0.361 1.069 0.862 1.084 c0.692 0.016 0.554 -0.269 0.554 -0.269 s-0.631 -1.877 -1.453 -2.407 C170.415 128.371 169.768 128.402 169.768 128.402" style="fill:white;" />
<path d="M194.052 137.178 c-0.308 1.185 -0.493 1.592 -0.493 1.592 s-0.614 2.408 1.816 1.523 c2.431 -0.893 1.169 -0.516 2.922 -1.369 c1.724 -0.846 1.693 -0.377 2.955 -0.315 c0.43 0.015 0.707 0.03 1.354 -0.092 c0.553 -0.124 0.322 -0.77 -0.908 -1.101 c-1.322 -0.346 -2.938 -0.269 -4.814 -0.285 C195.776 137.117 194.375 135.994 194.052 137.178" style="fill:white;" />
<path d="M195.129 128.279 c0 0 -1.108 -0.254 -1.877 0.223 c-0.754 0.469 -0.523 0.846 -0.523 0.846 s1.154 0.916 2 1.039 c0.831 0.146 2.615 0.915 2.554 0.3 c-0.093 -0.6 -1.077 -1.715 -1.431 -2.015 C195.499 128.371 195.129 128.279 195.129 128.279" style="fill:white;" />
<path d="M199.407 144.994 c0 0 -1.186 -0.239 -2.001 0.215 c-0.8 0.446 -0.585 0.808 -0.585 0.808 s1.262 0.847 2.154 0.977 c0.893 0.123 2.8 0.846 2.723 0.269 c-0.076 -0.569 -1.154 -1.623 -1.508 -1.907 C199.836 145.07 199.407 144.994 199.407 144.994" style="fill:white;" />
<path d="M199.776 151.054 c0 0 -1.263 -0.284 -2.124 0.239 c-0.861 0.515 -0.601 0.931 -0.601 0.931 s1.309 0.992 2.263 1.131 c0.938 0.146 2.969 0.977 2.876 0.315 c-0.076 -0.661 -1.215 -1.861 -1.615 -2.184 C200.206 151.146 199.776 151.054 199.776 151.054" style="fill:white;" />
<path d="M200.344 156.962 c0 0 -1.369 -0.315 -2.293 0.269 c-0.938 0.584 -0.646 1.054 -0.646 1.054 s1.415 1.107 2.431 1.277 c1.031 0.162 3.23 1.107 3.139 0.361 c-0.093 -0.738 -1.324 -2.108 -1.754 -2.469 C200.821 157.069 200.344 156.962 200.344 156.962" style="fill:white;" />
<path d="M200.221 164.269 c0 0 -1.369 -0.292 -2.293 0.285 c-0.938 0.569 -0.676 1.038 -0.676 1.038 s1.445 1.107 2.461 1.277 c1.016 0.162 3.215 1.108 3.123 0.369 c-0.107 -0.746 -1.323 -2.115 -1.738 -2.477 C200.667 164.385 200.221 164.269 200.221 164.269" style="fill:white;" />
<path d="M199.221 178.515 c0 0 -1.385 -0.3 -2.308 0.285 c-0.923 0.577 -0.646 1.039 -0.646 1.039 s1.415 1.115 2.431 1.277 c1.031 0.154 3.231 1.115 3.139 0.361 c-0.093 -0.738 -1.322 -2.1 -1.754 -2.477 C199.667 178.623 199.221 178.515 199.221 178.515" style="fill:white;" />
<path d="M200.145 171.392 c0 0 -1.57 -0.361 -2.678 0.315 c-1.062 0.661 -0.738 1.2 -0.738 1.2 s1.646 1.292 2.83 1.477 c1.17 0.192 3.724 1.277 3.631 0.431 c-0.123 -0.869 -1.539 -2.446 -2.03 -2.869 C200.667 171.515 200.145 171.392 200.145 171.392" style="fill:white;" />
<path d="M198.544 184.961 c0 0 -1.139 -0.27 -1.907 0.215 c-0.77 0.477 -0.523 0.854 -0.523 0.854 s1.169 0.931 2 1.054 c0.846 0.139 2.646 0.915 2.584 0.3 c-0.092 -0.616 -1.092 -1.731 -1.445 -2.031 C198.914 185.038 198.544 184.961 198.544 184.961" style="fill:white;" />
<path d="M197.467 191.129 c0 0 -0.923 -0.2 -1.569 0.193 c-0.614 0.392 -0.431 0.707 -0.431 0.707 s0.969 0.754 1.662 0.869 c0.691 0.108 2.215 0.77 2.153 0.247 c-0.062 -0.5 -0.923 -1.431 -1.2 -1.685 C197.79 191.206 197.467 191.129 197.467 191.129" style="fill:white;" />
<path d="M196.145 196.76 c0 0 -0.831 -0.192 -1.416 0.169 c-0.554 0.346 -0.4 0.646 -0.4 0.646 s0.877 0.677 1.508 0.77 c0.631 0.115 1.984 0.692 1.924 0.238 c-0.047 -0.454 -0.801 -1.308 -1.063 -1.531 C196.436 196.822 196.145 196.76 196.145 196.76" style="fill:white;" />
<path d="M194.821 201.375 c0 0 -0.861 -0.193 -1.414 0.153 c-0.586 0.362 -0.416 0.646 -0.416 0.646 s0.877 0.692 1.508 0.785 c0.631 0.1 1.984 0.692 1.923 0.224 c-0.046 -0.454 -0.8 -1.292 -1.077 -1.516 C195.098 201.437 194.821 201.375 194.821 201.375" style="fill:white;" />
<path d="M193.207 206.729 c0 0 -0.677 -0.162 -1.154 0.123 c-0.462 0.3 -0.308 0.523 -0.308 0.523 s0.707 0.555 1.215 0.647 c0.508 0.076 1.615 0.554 1.555 0.168 c-0.047 -0.361 -0.662 -1.038 -0.862 -1.23 C193.437 206.775 193.207 206.729 193.207 206.729" style="fill:white;" />
<path d="M191.284 211.736 c0 0 -0.585 -0.139 -0.985 0.107 c-0.399 0.254 -0.276 0.461 -0.276 0.461 s0.615 0.469 1.046 0.531 c0.431 0.085 1.384 0.493 1.338 0.162 c-0.03 -0.315 -0.569 -0.9 -0.738 -1.054 C191.467 211.782 191.284 211.736 191.284 211.736" style="fill:white;" />
<path d="M189.299 216.498 c0 0 -0.601 -0.131 -1 0.123 c-0.386 0.238 -0.247 0.438 -0.247 0.438 s0.585 0.477 1.031 0.554 c0.446 0.062 1.384 0.469 1.338 0.162 c-0.03 -0.339 -0.569 -0.916 -0.738 -1.077 C189.499 216.543 189.299 216.498 189.299 216.498" style="fill:white;" />
<path d="M60.52 240.72 c0 0 -0.992 1.922 -0.5 2.977 c0.485 1.062 1.823 -1.685 1.823 -1.685 s1.384 -2.739 0.823 -3.238 C62.097 238.266 61.767 239.681 60.52 240.72" style="fill:white;" />
<path d="M200.543 487.684 v-3.737 c0 -8.493 4.293 -10.154 16.831 -10.215 c11.538 0.061 15.614 1.507 15.614 8.83 v28.26 h4.261 v6.369 h-28.183 c-5.938 0 -9.814 -4.077 -9.814 -9.092 v-5.724 c0 -4.938 2.522 -9.245 11.353 -9.292 h11.015 v-8.6 c0 -4.492 -0.308 -5.03 -4.814 -5.03 h-0.047 c-5.399 0 -5.753 0.708 -5.753 5.03 v3.2 H200.543 M213.621 497.823 c-2.215 0 -3.523 1.784 -3.523 3.999 v5.461 c0 2.201 0.939 3.954 3.523 3.985 h3.969 c2.185 0 3.97 -0.677 3.97 -3.985 l0.03 -9.46 h-3.754 C217.744 497.823 213.621 497.823 213.621 497.823 z" />
<path d="M173.738 484.377 V474.5 h-15.722 v5.877 h4.192 v30.429 h-4.192 v6.385 h19.692 v-6.385 h-3.97 V494.5 c0 -1.522 9.269 -13.229 9.269 -11.877 v16.199 h10.893 v-18.229 c0 -4.169 -2.724 -6.86 -7.693 -6.86 C180.299 473.732 176.307 481.162 173.738 484.377" />
<polyline points="299.063,510.776 299.063,474.5 283.017,474.5 283.017,480.377 287.51,480.377 287.51,510.776 283.017,510.776 283.017,517.191 303.278,517.191 303.278,510.776 299.063,510.776" />
<path d="M133.286 484.377 V474.5 h-15.722 v5.877 h4.192 v30.429 h-4.192 v6.385 h19.676 v-6.385 h-3.954 V494.5 c0 -1.522 9.261 -13.229 9.261 -11.877 v16.199 h10.884 v-18.229 c0 -4.169 -2.708 -6.86 -7.684 -6.86 C139.854 473.732 135.855 481.162 133.286 484.377" />
<path d="M111.548 503.207 h-11.03 v3.2 c0 4.339 -0.723 4.523 -6.1 4.584 h-0.077 c-6.162 0.031 -5.815 -0.584 -5.746 -4.584 v-7.585 h22.952 v-16.476 c0 -5.97 -4.507 -8.477 -16.399 -8.522 h-1.707 c-12.838 0.061 -16.253 2.984 -16.253 10.369 v24.121 c0 8.122 4.799 9.492 16.491 9.815 h1.276 c12.762 -0.293 16.592 -1.17 16.592 -8.754 V503.207 M88.719 482.961 c0 -2.245 0.677 -3.354 3.246 -3.385 h4.838 c2 0 3.115 0.893 3.115 2.492 v12.354 h-11.2 V482.961 z" clip-rule="evenodd" fill-rule="evenodd" />
<line x1="293.249" y1="465.732" x2="293.249" y2="458.009" stroke-width="0.74" stroke-miterlimit="10" style="stroke:black;" />
<path d="M257.25 484.377 V474.5 h-15.738 v5.877 h4.185 v30.429 h-4.185 v6.385 h19.691 v-6.385 h-3.953 V494.5 c0 -1.522 9.246 -13.229 9.246 -11.877 v16.199 h10.907 v-18.229 c0 -4.169 -2.74 -6.86 -7.725 -6.86 C263.803 473.732 259.802 481.162 257.25 484.377" />
<polyline points="63.435,496.438 63.435,490.746 57.305,490.746 57.305,510.822 67.927,510.822 67.927,517.191 36.783,517.191 36.783,510.822 45.067,510.822 45.067,465.732 38.56,465.732 38.56,457.978 281.139,457.978 281.139,465.732 57.305,465.732 57.305,483.838 63.435,483.838 63.435,478.485 70.489,478.485 70.489,496.438 63.435,496.438" />
<rect x="287.339" y="457.701" width="11.568" height="7.631" clip-rule="evenodd" fill-rule="evenodd" />
</svg>