<?xml version="1.0" encoding="utf-8"?>
<!DOCTYPE svg PUBLIC "-//W3C//DTD SVG 1.1//EN" "http://www.w3.org/Graphics/SVG/1.1/DTD/svg11.dtd">
<svg version="1.1" xmlns="http://www.w3.org/2000/svg" xmlns:xlink="http://www.w3.org/1999/xlink" xmlns:xml="http://www.w3.org/XML/1998/namespace" x="0" y="0" width="1000" height="194" viewBox="0, 0, 144, 28" id="レイヤー_1" xml:space="preserve" style="enable-background:new 0 0 144 28;">
<polygon points="84.8,18 94,9.2 94,8.8 94,6 75,6 75,10 84.3,10 75,18.8 75,19.6 75,22 94,22 94,18" style="fill:#003399;" />
<rect x="138" y="6" width="6" height="16" style="fill:#003399;" />
<polygon points="136.6,6 128.5,6 122,11.7 122,6 116,6 116,22 122,22 122,15.7 128.3,22 136.4,22 127.4,13.6" style="fill:#003399;" />
<path d="M108 6 v9.7 c0 1.4 -0.4 3.1 -3.6 3.1 c-3.2 0 -3.4 -1.7 -3.4 -3.1 V6 h-6 v10.2 c0 4.8 1.3 6.8 9.2 6.8 c7.9 0 9.8 -2 9.8 -6.8 V6 H108 z" style="fill:#003399;" />
<path d="M68 6 v9.7 c0 1.4 -0.4 3.1 -3.6 3.1 c-3.2 0 -3.4 -1.7 -3.4 -3.1 V6 h-6 v10.2 c0 4.8 1.9 6.8 9.8 6.8 s9.2 -2 9.2 -6.8 V6 H68 z" style="fill:#003399;" />
<path d="M41.5 17 c0.3 1.1 1 1.8 3 1.8 c1.5 0 2.2 -0.3 2.2 -0.8 c0 -1.3 -0.9 -1.3 -7 -2.1 c-6 -0.8 -5.8 -4.6 -5.8 -5.2 c0 -5.1 7.2 -5.1 9.7 -5.1 c4.5 0 9.4 1.4 9.4 5.3 h-7 c-0.2 -0.8 -1.2 -1.6 -3 -1.6 c-1.5 0 -2.3 0.3 -2.3 0.9 c0 1.1 0.5 1 6.4 1.9 c6 0.9 6.6 3.8 6.6 5.4 c0 5.3 -7.4 5 -9.9 5 c-6 0 -9.8 -1.3 -10 -5.6 H41.5 z" style="fill:#003399;" />
<path d="M27.5 9.7 c-1.7 1.4 -6.8 3.4 -9.9 1.4 l-7.2 -5 L9.2 6.8 l18.3 12.7 c-4.6 1.8 -9.9 5.4 -13.7 8.6 L0.2 18.4 c2 -1.5 6.7 -3.3 9.8 -1.3 l7.3 5.1 l1 -0.7 L0 8.7 C3.9 7.3 11 2.9 13.7 0 L27.5 9.7 z" style="fill:#E20A17;" />
</svg>