<?xml version="1.0" encoding="UTF-8"?><svg id="Calque_2" xmlns="http://www.w3.org/2000/svg" width="141.76" height="66.73" viewBox="0 0 141.76 66.73"><defs><style>.cls-1{fill:#34ad5c;}.cls-1,.cls-2,.cls-3{stroke-width:0px;}.cls-4,.cls-3{isolation:isolate;}.cls-2{fill:#fff;}.cls-3{fill:#000;mix-blend-mode:multiply;opacity:.5;}</style></defs><g id="Calque_1-2"><g class="cls-4"><g id="Layer_1"><path class="cls-1" d="M133.12,31.1c2.73,0,5.05-1.99,5.47-4.69l3.1-20.02c.52-3.36-2.08-6.39-5.47-6.39H26l7.39,15.55-7.39,15.55h107.12,0Z"/><path class="cls-1" d="M136.22,35.63H0l7.39,15.55-7.39,15.55h133.12c2.73,0,5.05-1.99,5.47-4.69l3.1-20.02c.52-3.36-2.08-6.39-5.47-6.39h0Z"/><path class="cls-3" d="M0,35.63l7.39,15.55-7.39,15.55h133.12c2.73,0,5.05-1.99,5.47-4.69l3.1-20.02c.52-3.36-2.08-6.39-5.47-6.39H0Z"/><polygon class="cls-2" points="45.5 17.74 52 17.74 52.72 14.38 46.22 14.38 47.06 10.46 54.22 10.46 54.98 6.93 43.26 6.93 39.59 24.17 44.14 24.17 45.5 17.74"/><path class="cls-2" d="M69.23,9.36c-.43-.75-1.07-1.34-1.89-1.77-.83-.43-1.83-.65-3.01-.65h-7.34l-3.67,17.23h4.39l1.28-6.03h2.39l1.77,6.03h4.57l-2.03-6.46c.9-.31,1.66-.76,2.28-1.35.62-.59,1.1-1.26,1.42-2.03.33-.76.49-1.56.49-2.39,0-.97-.22-1.83-.65-2.58h0ZM65.08,13.73c-.25.41-.62.74-1.09.97-.47.23-1.02.35-1.65.35h-2.71l1.04-4.8h2.45c.75,0,1.32.18,1.73.53.41.35.61.86.61,1.54,0,.53-.13,1.01-.38,1.42h0Z"/><polygon class="cls-2" points="82.17 20.64 74.75 20.64 75.51 17.12 82.48 17.12 83.16 13.89 76.19 13.89 76.92 10.46 84.33 10.46 85.09 6.93 73.28 6.93 69.62 24.17 81.43 24.17 82.17 20.64"/><polygon class="cls-2" points="95.66 24.17 96.4 20.64 88.98 20.64 89.73 17.12 96.7 17.12 97.39 13.89 90.41 13.89 91.14 10.46 98.56 10.46 99.31 6.93 87.51 6.93 83.84 24.17 95.66 24.17"/><path class="cls-2" d="M106.9,22.02h.79c.12,1.23,1.18,2.14,2.65,2.14s2.92-.91,3.57-2.14h6.24c.12,1.23,1.18,2.14,2.65,2.14s2.91-.91,3.57-2.14h.86c1.77,0,2.95-.91,3.29-2.53l.59-2.77c.18-.87.12-1.28-.3-1.82l-2.25-2.99c-.45-.58-1.04-.8-1.99-.8h-2.2l.34-1.61c.34-1.61-.44-2.53-2.22-2.53h-12.39c-1.77,0-2.95.91-3.29,2.53l-2.13,10c-.34,1.61.45,2.53,2.22,2.53h0ZM112.47,21.21c-.16.75-.96,1.38-1.79,1.38s-1.37-.63-1.21-1.38c.16-.75.97-1.38,1.8-1.38s1.37.62,1.2,1.38h0ZM124.93,21.21c-.16.75-.96,1.38-1.79,1.38s-1.37-.63-1.21-1.38c.16-.75.97-1.38,1.8-1.38s1.37.62,1.2,1.38h0ZM123.96,13.03h1.96c.43,0,.72.1.95.4l1.94,2.54c.18.25.24.55.16.91l-.52,2.46c-.11.52-.44.75-.99.75h-.8c-.25-1.08-1.24-1.84-2.6-1.84-.43,0-.85.07-1.26.21l1.16-5.44h0ZM106.81,19.34l2.06-9.69c.11-.53.44-.76,1-.76h12.04c.55,0,.78.23.66.76l-2.22,10.45h-6.15c-.25-1.08-1.25-1.84-2.6-1.84s-2.68.76-3.39,1.84h-.72c-.56,0-.79-.23-.67-.75h0Z"/><path class="cls-2" d="M124.75,16.8h3.27c.04-.17,0-.27-.11-.39l-1.74-2.29c-.16-.21-.34-.31-.64-.31h-.95l-.48,2.24c-.1.45.15.74.64.74h0Z"/><path class="cls-2" d="M28.64,43.36c-1.05-.53-2.26-.79-3.64-.79h-6.65l-3.67,17.23h8.15c1.36,0,2.6-.26,3.73-.78,1.12-.52,2.09-1.25,2.9-2.19.81-.94,1.43-2.06,1.86-3.34.44-1.28.65-2.69.65-4.24,0-1.41-.29-2.61-.88-3.61-.58-1-1.4-1.76-2.45-2.29h0ZM27.08,52.49c-.26.8-.62,1.48-1.09,2.04-.46.57-1.02,1-1.65,1.3-.64.3-1.34.45-2.1.45h-2.38l2.16-10.21h1.98c.74,0,1.37.15,1.88.45.51.3.91.73,1.18,1.28.27.56.41,1.22.41,2,0,1-.13,1.89-.39,2.69Z"/><polygon class="cls-2" points="39.58 46.08 46.99 46.08 47.75 42.56 35.95 42.56 32.28 59.79 44.09 59.79 44.83 56.27 37.42 56.27 38.17 52.75 45.14 52.75 45.83 49.52 38.85 49.52 39.58 46.08"/><polygon class="cls-2" points="54.55 42.56 50.17 42.56 46.51 59.79 58.21 59.79 58.97 56.18 51.66 56.18 54.55 42.56"/><polygon class="cls-2" points="60.07 59.79 64.46 59.79 68.12 42.56 63.74 42.56 60.07 59.79"/><polygon class="cls-2" points="81.21 42.56 75.24 55.23 75.16 55.23 74.48 42.56 69.66 42.56 71.64 59.79 77.01 59.79 86.17 42.56 81.21 42.56"/><polygon class="cls-2" points="91.34 46.08 98.76 46.08 99.51 42.56 87.71 42.56 84.04 59.79 95.85 59.79 96.59 56.27 89.18 56.27 89.93 52.75 96.91 52.75 97.59 49.52 90.61 49.52 91.34 46.08"/><path class="cls-2" d="M112.29,43.21c-.83-.43-1.83-.65-3.01-.65h-7.34l-3.67,17.23h4.39l1.28-6.03h2.39l1.77,6.03h4.57l-2.03-6.46c.9-.31,1.66-.76,2.28-1.35.62-.59,1.1-1.26,1.42-2.03.33-.76.49-1.56.49-2.39,0-.97-.22-1.83-.65-2.58s-1.07-1.34-1.89-1.77h0ZM110.03,49.36c-.26.41-.62.74-1.09.97-.47.23-1.02.35-1.65.35h-2.71l1.04-4.8h2.45c.75,0,1.32.18,1.73.53s.61.86.61,1.54c0,.53-.13,1.01-.38,1.42h0Z"/><polygon class="cls-2" points="127.53 42.56 122.63 49.75 122.55 49.75 120.58 42.56 116.04 42.56 119.57 53.85 118.32 59.79 122.71 59.79 123.96 53.92 132.3 42.56 127.53 42.56"/></g></g></g></svg>