<?xml version="1.0" encoding="UTF-8"?><svg id="Calque_2" xmlns="http://www.w3.org/2000/svg" width="158.96" height="49.59" viewBox="0 0 158.96 49.59"><defs><style>.cls-1{fill:#000;}.cls-1,.cls-2{stroke-width:0px;}.cls-2{fill:#fcca22;}</style></defs><g id="Layer_1"><path class="cls-2" d="M134.17,2c12.59,0,22.79,10.21,22.79,22.79h0c0,12.59-10.21,22.79-22.79,22.79H24.79c-12.59,0-22.79-10.21-22.79-22.79h0C2,12.21,12.2,2,24.79,2h109.37M134.17,0H24.79C11.12,0,0,11.12,0,24.79s11.12,24.79,24.79,24.79h109.37c13.67,0,24.79-11.12,24.79-24.79S147.84,0,134.17,0h0Z"/><rect class="cls-2" x="7.13" y="6.35" width="144.7" height="36.88" rx="18.44" ry="18.44"/><path class="cls-1" d="M32.84,27.18c0-2.16.05-4.93.11-6.57h-.11c-.58,2.96-1.51,7.05-2.51,11.07h-3.24c-.79-3.9-1.7-8-2.24-11.07h-.12c.11,1.62.19,4.31.19,6.68v4.39h-3.6v-13.79h5.82c.68,2.79,1.47,6.84,1.78,8.88h.07c.35-2.22,1.27-5.88,2.08-8.88h5.65v13.79h-3.88s0-4.5,0-4.5Z"/><path class="cls-1" d="M49.74,26.1h-6.28v2.59h7.01l-.45,3h-10.45v-13.79h10.44v3h-6.55v2.22h6.28v3h0Z"/><path class="cls-1" d="M65.26,31.68h-2.71c-.11-.38-.21-.94-.25-1.26-.78,1.03-2.12,1.54-4.04,1.54-4.22,0-6.35-3.19-6.35-7.02,0-4.23,2.46-7.31,7.06-7.31,4.17,0,6.08,2.38,6.33,4.5h-4c-.2-.73-.71-1.65-2.34-1.65-2.31,0-2.88,2.12-2.88,4.32s.66,4.29,2.89,4.29c2.04,0,2.39-1.49,2.39-2.4v-.09h-2.53v-2.83h6.44v7.91h0Z"/><path class="cls-1" d="M71.51,28.99l-.8,2.68h-3.94l4.36-13.79h5.23l4.53,13.79h-4.22l-.84-2.68h-4.33ZM75.13,26c-.65-2.17-1.18-4.09-1.49-5.44h-.06c-.32,1.49-.85,3.46-1.4,5.44h2.95Z"/><path class="cls-1" d="M89.89,27.5c.23,1.2,1.07,1.71,2.38,1.71,1.22,0,1.79-.43,1.79-1.23,0-.91-.61-1.25-2.79-1.77-4.07-.99-4.88-2.47-4.88-4.33,0-2.31,1.7-4.25,5.54-4.25s5.62,2.03,5.81,4.2h-3.9c-.11-.74-.49-1.49-1.92-1.49-.93,0-1.5.35-1.5,1.1s.51,1.04,2.63,1.56c4.25,1.06,5.09,2.59,5.09,4.55,0,2.59-2,4.39-6.05,4.39-3.81,0-5.83-1.78-6.14-4.43h3.93,0Z"/><path class="cls-1" d="M103.77,28.99l-.8,2.68h-3.94l4.36-13.79h5.23l4.53,13.79h-4.22l-.84-2.68h-4.33ZM107.39,26c-.65-2.17-1.18-4.09-1.49-5.44h-.06c-.32,1.49-.85,3.46-1.4,5.44h2.95Z"/><path class="cls-1" d="M114.6,17.88h4.05v10.8h6.5l-.44,3h-10.12v-13.79h0Z"/><path class="cls-1" d="M136.91,26.1h-6.28v2.59h7.01l-.45,3h-10.45v-13.79h10.44v3h-6.55v2.22h6.28v3h0Z"/></g></svg>