<?xml version="1.0" encoding="UTF-8"?><svg id="Calque_2" xmlns="http://www.w3.org/2000/svg" width="107.8" height="104.83" viewBox="0 0 107.8 104.83"><defs><style>.cls-1,.cls-2{font-family:ArialMT, Arial;font-size:17.9px;}.cls-1,.cls-2,.cls-3,.cls-4{isolation:isolate;}.cls-1,.cls-5{fill:#fff;}.cls-2{letter-spacing:.02em;}.cls-2,.cls-6{fill:#34ad5c;}.cls-7{letter-spacing:.02em;}.cls-6,.cls-5,.cls-4{stroke-width:0px;}.cls-8{letter-spacing:0em;}.cls-4{fill:#000;mix-blend-mode:multiply;opacity:.5;}</style></defs><g id="Calque_1-2"><g class="cls-3"><g id="Layer_1"><path class="cls-6" d="M54.26,104.77l-51.19-2.29,2.3-51.19C6.64,23.02,30.58,1.13,58.85,2.4h0c28.27,1.27,50.16,25.21,48.89,53.48h0c-1.27,28.27-25.21,50.16-53.48,48.89Z"/><path class="cls-4" d="M54.26,104.77l-51.19-2.29,2.3-51.19C6.64,23.02,30.58,1.13,58.85,2.4h0c28.27,1.27,50.16,25.21,48.89,53.48h0c-1.27,28.27-25.21,50.16-53.48,48.89Z"/><path class="cls-6" d="M51.24,102.48H0v-51.24C0,22.94,22.94,0,51.24,0h0c28.3,0,51.24,22.94,51.24,51.24h0c0,28.3-22.94,51.24-51.24,51.24Z"/><g class="cls-3"><text class="cls-1" transform="translate(28.69 43.91)"><tspan class="cls-7" x="0" y="0">BU</tspan><tspan class="cls-8" x="25.58" y="0">Y</tspan></text></g><rect class="cls-5" x="18.74" y="54.35" width="65" height="28.9" rx="7.01" ry="7.01"/><g class="cls-3"><text class="cls-2" transform="translate(25.51 73.67)"><tspan x="0" y="0">NOW</tspan></text></g><path class="cls-5" d="M8.38,43.52c3.49-14.73,13.73-27.85,27.47-34.26l2.65-1.23c-2.77,1.7-5.85,3.71-8.26,5.9-8.74,7.71-14.64,18.78-15.92,30.36l-5.95-.77h0Z"/></g></g></g></svg>