<?xml version="1.0" encoding="utf-8"?>
<!DOCTYPE svg PUBLIC "-//W3C//DTD SVG 1.1//EN" "http://www.w3.org/Graphics/SVG/1.1/DTD/svg11.dtd">
<svg version="1.1" xmlns="http://www.w3.org/2000/svg" xmlns:xlink="http://www.w3.org/1999/xlink" xmlns:xml="http://www.w3.org/XML/1998/namespace" width="760" height="1000" viewBox="0.79999995, 0, 30.4, 40" id="Layer_1" data-name="Layer 1">
  <defs>
    <style>.cls-1{fill-rule:evenodd;}</style>
  </defs>
  <title>RR_Monogram_RGB_POS_</title>
  <path d="M1.83 34.26 V2.59 S1.94 0.82 1 0.22 V0 H13.2 a18 18 0 0 1 3.17 0.28 A8.46 8.46 0 0 1 23 6.19 a10.36 10.36 0 0 1 -1.54 9.15 a16.19 16.19 0 0 1 -3.21 3.13 c-0.27 0.19 -0.43 0.29 -0.71 0.47 a36.19 36.19 0 0 1 3.91 7.82 a45 45 0 0 1 1.89 7.39 c0.26 2.08 0.88 2.29 1 2.33 v0.23 h-7.3 v-0.23 c0.22 -0.12 2.2 -1 2.21 -4.07 a22.73 22.73 0 0 0 -1.56 -7.58 A38.53 38.53 0 0 0 15.56 20 l0 0 a24.12 24.12 0 0 1 -4.35 1.29 c-0.95 0.18 -1.91 0.33 -3.1 0.46 s-2 0.19 -2.65 0.23 v12.3 c0 0.27 0.07 1.72 1 2.22 v0.23 H0.83 v-0.23 c0.91 -0.48 1 -1.95 1 -2.22 M13.36 2.08 H5.43 V19.7 a26.81 26.81 0 0 0 5.09 -0.77 c5.78 -1.71 8.54 -5.74 8.58 -10.49 c0 -2.76 -1 -4.45 -2 -5.35 a4.61 4.61 0 0 0 -2.23 -0.92 a9.57 9.57 0 0 0 -1.47 -0.09 M12.6 21.52 v1.86 a31.09 31.09 0 0 0 3.76 -0.46 c0.34 0.78 0.64 1.52 0.85 2.09 l0 0.08 c-0.63 0.11 -1.3 0.2 -2 0.28 c-1 0.12 -2 0.18 -2.59 0.22 v12 c0 0.26 0.06 1.68 1 2.17 V40 H8.09 v-0.22 c0.89 -0.47 1 -1.91 1 -2.17 V22.16 a34.53 34.53 0 0 0 3.53 -0.64 m7.27 0.24 A10.17 10.17 0 0 0 26 12.35 C26 9.64 25.07 8 24 7.1 L23.81 7 c-0.08 -0.32 -0.16 -0.63 -0.26 -0.93 a11.37 11.37 0 0 0 -0.76 -1.76 c0.19 0 0.37 0.06 0.54 0.09 a8.34 8.34 0 0 1 6.51 5.79 a10.17 10.17 0 0 1 -1.51 9 a15.87 15.87 0 0 1 -3.15 3.06 c-0.26 0.19 -0.42 0.29 -0.69 0.47 a35.13 35.13 0 0 1 3.82 7.66 a45.68 45.68 0 0 1 1.87 7.24 c0.24 2 0.85 2.2 1 2.24 V40 H24 v-0.22 c0.22 -0.11 2.16 -0.91 2.17 -3.94 a22 22 0 0 0 -1.52 -7.43 a40.15 40.15 0 0 0 -2.13 -4.72 l0 0 c-0.36 0.16 -0.88 0.34 -1.45 0.53 c-0.37 -0.86 -0.75 -1.64 -1.18 -2.43 M18.27 6.11 H12.6 V17.55 a15.83 15.83 0 0 1 -2.24 0.85 a12.88 12.88 0 0 1 -1.29 0.31 V6.61 s0.1 -1.73 -0.87 -2.32 V4.07 h9.07 a5.47 5.47 0 0 1 1 2" fill-rule="evenodd" class="cls-1" />
</svg>