<?xml version="1.0" encoding="UTF-8"?><svg id="Calque_2" xmlns="http://www.w3.org/2000/svg" width="135.92" height="106.7" viewBox="0 0 135.92 106.7"><defs><style>.cls-1{fill:#e62e2e;}.cls-1,.cls-2{stroke-width:0px;}.cls-2{fill:#fff;}</style></defs><g id="Layer_1"><path class="cls-1" d="M135.92,38.07l-7.02,4.22c-6.48,3.9-9.17,13.38-5.85,20.54l3.64,7.84-4.3-1.21c-7.86-2.21-15.77,5.59-15.61,15.4l.09,5.31-2.57-2.06c-6.9-5.53-16.77-.5-18.9,9.62l-.79,3.76-1.85-2.46c-5.6-7.46-16.14-5.08-20.03,4.51l-1.28,3.17-1.49-3.25c-4-8.74-14.43-9.21-19.94-.89l-2.06,3.11-.96-5.12c-1.76-9.45-10.85-13.43-17.93-7.85l-3.88,3.05,1.94-9.09c1.78-8.32-2.65-16.19-9.61-17.07l-7.53-.95,7.02-4.22c6.48-3.9,9.17-13.38,5.85-20.54l-3.64-7.84,4.3,1.21c7.86,2.21,15.77-5.59,15.61-15.4l-.09-5.31,2.57,2.06c6.9,5.53,16.77.5,18.9-9.62l.79-3.76,1.85,2.46c5.6,7.46,16.14,5.08,20.03-4.51l1.28-3.17,1.49,3.25c4,8.74,14.43,9.21,19.94.89l2.06-3.11.96,5.12c1.76,9.45,10.85,13.43,17.93,7.85l3.88-3.05-1.95,9.09c-1.78,8.32,2.65,16.19,9.61,17.07l7.53.95h0Z"/><path class="cls-2" d="M37.98,50.51c2.52-1.14,4.03-1.82,5.64-2.14.71-.16,1-.56,1.13-.87.15-.37.12-.8-.07-1.16-.83-1.71-2.24-2.36-4.17-1.93-.89.2-2.09.63-3.58,1.28-1.65.71-3.33,1.4-5.61,1.91-.35.08-.85.24-1.1.73-.15.31-.17.68-.04,1.08.28.92.81,1.65,1.53,2.09-2.84,7.52-5.66,16.64-6.35,20.54h0c-.2,1.26-.26,2.32-.19,3.07.13,1.29.66,2.31,1.39,2.68.3.15.61.19.89.13.12-.03.23-.07.34-.14.33-.19.57-.54.69-.98.96-3.54,1.78-6.61,2.86-10.18,1.93-1.03,4.47-2,6.25-2.59.34-.11.82-.32,1.03-.83.2-.47.07-.94-.05-1.26-.45-1.26-1.57-2.57-4.32-1.72-.31.1-.63.19-.98.32,1.26-3.82,2.31-6.89,3.2-9.35l1.51-.68h0Z"/><path class="cls-2" d="M52.7,61.61c3.98-2.34,7.38-5.89,8.99-9.39,1.52-3.38,1.65-6.18.4-8.8-1.21-2.57-3.23-3.63-5.76-2.93-1.5.44-2.86,1.24-4.25,2.11-1.1.71-2.57,1.61-4.19,2.28-.38.15-.9.42-1.07.99-.11.38-.03.78.24,1.18.52.79,1.1,1.36,2.14,1.51-2.57,6.68-5.07,15.39-5.66,19.76-.11.83-.12,1.71-.04,2.5.11,1.14.48,1.99,1.15,2.61.46.39.88.51,1.24.32.36-.18.6-.6.73-1.23.7-3.11,1.36-5.71,2.06-8.11,1.54,1.57,3.39,3.72,5.68,6.37l.46.53c.35.41.7.57,1.06.5.01,0,.02,0,.03,0,.38-.1.69-.47.96-1.13.23-.64.33-1.32.27-1.93-.08-.83-.39-1.74-.85-2.49-.78-1.33-2.09-3.02-3.57-4.62h0ZM50.88,57.54c.49-1.39,1.08-3.07,1.69-4.98.7-2.22,1.03-3.89,1.01-5.22l1.17-.76c1.06-.7,2.51-1.66,3.33-1.84.45-.1.68.01.87.44.33.71.31,1.79-.07,3.04-.78,2.58-3.33,6.45-8.01,9.32Z"/><path class="cls-2" d="M74.94,42.06c1.56-.72,3.69-1.71,5.65-2.15.7-.16,1-.54,1.12-.84.15-.34.14-.73-.01-1.09-.76-1.71-2-2.34-3.79-1.94-.92.21-1.86.57-2.95,1.03l-.62.25c-2.11.91-4.03,1.56-5.88,1.97-.52.12-.9.39-1.1.78-.11.23-.22.6-.07,1.11.29.85.8,1.49,1.6,1.99-2.67,6.86-5.39,15.67-6.53,21.14h0c-.27,1.45-.31,2.26.18,2.97.24.34.44.67.62.96.21.34.39.64.56.85.5.64,1.04.76,1.59.64.34-.08.69-.25,1.02-.45,2.64-1.5,6.07-3.22,7.88-3.62.41-.09.93-.22,1.18-.77.23-.52,0-1.06-.08-1.24-.74-1.68-2.11-2.19-4.33-1.58-1.06.32-2.86,1.09-4.33,1.84.46-1.73.98-3.43,1.66-5.59,2.19-1.19,4.63-2.18,6.25-2.54.57-.13.94-.39,1.11-.79.23-.55-.01-1.08-.08-1.24-.71-1.7-2.08-2.22-4.27-1.66l-.2.06c-.28.09-.59.18-.94.3,1.22-3.69,2.46-7.38,3.42-9.78.47-.19.82-.36,1.33-.6h0Z"/><path class="cls-2" d="M92.03,38.22c1.56-.72,3.69-1.71,5.65-2.15.7-.16,1-.54,1.12-.84.15-.34.14-.73-.01-1.09-.76-1.71-2-2.34-3.79-1.94-.91.21-1.86.57-2.95,1.03l-.62.25c-2.11.91-4.03,1.56-5.88,1.97-.52.12-.9.39-1.1.78-.11.23-.22.6-.07,1.11.29.85.8,1.49,1.6,1.99-2.67,6.86-5.39,15.67-6.53,21.14h0c-.27,1.45-.32,2.26.18,2.97.24.34.44.67.62.96.21.34.39.64.56.85.5.64,1.04.76,1.59.64.34-.08.69-.25,1.02-.45,2.64-1.5,6.07-3.22,7.88-3.62.41-.09.94-.22,1.18-.77.23-.52,0-1.06-.08-1.24-.73-1.68-2.11-2.18-4.33-1.58-1.06.32-2.86,1.09-4.33,1.84.46-1.73.98-3.43,1.66-5.59,2.19-1.19,4.63-2.18,6.25-2.54.57-.13.94-.39,1.11-.79.23-.55-.01-1.08-.08-1.24-.71-1.7-2.09-2.22-4.27-1.66l-.2.06c-.28.09-.59.18-.94.3,1.22-3.69,2.46-7.38,3.42-9.78.47-.19.82-.36,1.33-.6h0Z"/><path class="cls-2" d="M108.26,29.64c-.42-.79-.88-.9-1.18-.86-.31.05-.8.3-1.2,1.27-2.5,5.89-5.35,15.62-6.35,20.66-.25,1.2-.35,2.35-.27,3.16.07.69.24,1.27.51,1.75.53,1.09,1.32,1.24,1.54,1.22.1,0,.2-.02.3-.06.44-.19.65-.72.79-1.23,1.38-5.21,3.77-12.76,5.55-18.09.76-2.31,1.08-4.35.93-5.9-.08-.79-.36-1.41-.63-1.91h0Z"/><path class="cls-2" d="M100.45,59.33c1.68,4.09-3.85,6.52-4.34,1.98-.29-2.72,3.03-5.16,4.34-1.98Z"/></g></svg>