<?xml version="1.0" encoding="UTF-8"?><svg id="Calque_2" xmlns="http://www.w3.org/2000/svg" width="145.43" height="43.85" viewBox="0 0 145.43 43.85"><defs><style>.cls-1{fill:#34ad5c;}.cls-1,.cls-2{stroke-width:0px;}.cls-2{fill:#fff;}</style></defs><g id="Layer_1"><path class="cls-1" d="M35.98,0v.04c-1.12,0-2.24-.01-3.37,0-.91.01-1.2.46-1.2,1.68,0,1.15.3,1.54,1.22,1.57.52.01,1.03.01,1.55.01,0,.78,0,1.94,0,2.81-1.04.07-1.82.19-2.12.25-10.49,2.09-17.12,12.27-14.79,22.69,2.04,9.13,10.26,14.73,18.69,14.67v.13h101.02c4.65,0,8.43-3.77,8.43-8.43V8.43c0-4.65-3.77-8.43-8.43-8.43H35.98ZM35.08,39.89c-8.77-.41-14.82-7.78-14.43-15.9.38-7.86,7.25-14.24,15.33-14.13.11,0,.22,0,.33,0,8.16.29,14.68,7.32,14.38,15.5-.29,8.04-6.79,14.42-14.71,14.53-.3,0-.6.02-.9,0h0Z"/><path class="cls-1" d="M12.76,25.67c.99,0,1.64-.54,1.67-1.35.03-.82-.66-1.42-1.69-1.42-3.67-.01-7.33-.01-11,0-1.11,0-1.72.5-1.74,1.35-.02.91.59,1.42,1.75,1.42,1.81,0,3.61,0,5.42,0s3.73,0,5.6,0h0Z"/><path class="cls-1" d="M14.1,32.61c.91,0,1.55-.57,1.57-1.34.02-.77-.6-1.4-1.51-1.41-3.2-.02-6.4-.03-9.6,0-1.03,0-1.57.57-1.54,1.44.03.84.62,1.31,1.66,1.31,1.54,0,3.08,0,4.62,0s3.2,0,4.8,0Z"/><path class="cls-1" d="M4.65,18.75c1.57.01,3.14,0,4.71,0s3.14,0,4.71,0c.97,0,1.62-.58,1.61-1.39,0-.78-.61-1.33-1.56-1.34-3.17-.01-6.34-.02-9.51,0-1.05,0-1.6.52-1.59,1.38.01.85.59,1.34,1.63,1.35h0Z"/><path class="cls-1" d="M17.79,36.55c-2.66-.01-5.33-.01-7.99,0-1.01,0-1.6.53-1.6,1.38,0,.84.58,1.34,1.61,1.35,1.3.02,2.6,0,3.9,0s2.72.01,4.08,0c.96-.01,1.56-.54,1.57-1.32.01-.83-.61-1.4-1.59-1.41h0Z"/><path class="cls-1" d="M9.77,11.99c2.67,0,5.34,0,8.01,0,.95,0,1.56-.53,1.59-1.32.03-.84-.57-1.39-1.58-1.4-1.33-.01-2.67,0-4.01,0v.02c-1.34,0-2.67,0-4.01,0-.99,0-1.57.49-1.58,1.29-.02.86.58,1.41,1.58,1.41Z"/><path class="cls-1" d="M36.81,23.55c-.44-.25-.63-.5-.62-1.02.03-1.75.01-3.5.01-5.24v-4.33c-.09-.03-.15-.03-.22-.04-.5-.1-.58.21-.58.67.01,2.96,0,5.92.01,8.89,0,.47-.05.79-.55,1.05-.83.42-1.13,1.26-.91,2.1.23.83.95,1.41,1.81,1.45.07,0,.14-.02.21-.03.72-.07,1.42-.61,1.65-1.35.26-.83-.02-1.68-.82-2.14h0Z"/><path class="cls-1" d="M37.81,21.98c.38.38.78.8,1.17,1.19.84-.82,1.89-1.85,2.96-2.9-.43-.41-.87-.83-1.22-1.16-1.06,1.04-2.13,2.09-2.92,2.86Z"/><path class="cls-2" d="M57.11,6.95h3.89v9.18h6.41l-.46,2.76h-9.84V6.95h0Z"/><path class="cls-2" d="M72.68,6.95v11.94h-3.88V6.95h3.88Z"/><path class="cls-2" d="M86.7,14.87c0-1.89.04-4.19.12-5.59h-.04c-.58,2.31-1.34,5.39-2.53,9.61h-3.19c-.94-3.93-1.71-7.22-2.3-9.64h-.03c.07,1.39.21,3.7.21,5.74v3.89h-3.47V6.95h5.56c.77,2.69,1.53,5.62,1.86,7.63h.02c.46-2.11,1.22-4.9,2.02-7.63h5.54v11.94h-3.78v-4.02h0Z"/><path class="cls-2" d="M97.17,6.95v11.94h-3.88V6.95h3.88Z"/><path class="cls-2" d="M102.76,9.71h-3.94v-2.75h11.74v2.75h-3.92v9.19h-3.88v-9.19h0Z"/><path class="cls-2" d="M122.45,14.14h-6.38v1.99h7.13l-.45,2.76h-10.51V6.95h10.54v2.76h-6.72v1.66h6.38v2.76Z"/><path class="cls-2" d="M125.06,6.95h6.05c4.31,0,6.49,2.64,6.49,5.78,0,3.69-2.7,6.16-6.53,6.16h-6.01V6.95h0ZM128.94,16.21h1.68c1.92,0,2.88-1.16,2.88-3.39,0-1.83-.76-3.17-2.88-3.2h-1.68v6.58h0Z"/><path class="cls-2" d="M59.79,27.71h-3.94v-2.75h11.74v2.75h-3.92v9.19h-3.88v-9.19Z"/><path class="cls-2" d="M73.16,24.96v11.94h-3.88v-11.94s3.88,0,3.88,0Z"/><path class="cls-2" d="M87.18,32.88c0-1.89.04-4.19.12-5.59h-.04c-.58,2.31-1.34,5.39-2.53,9.61h-3.19c-.94-3.93-1.71-7.22-2.3-9.64h-.03c.07,1.39.21,3.7.21,5.74v3.89h-3.47v-11.94h5.56c.77,2.69,1.53,5.62,1.86,7.63h.02c.46-2.11,1.22-4.9,2.02-7.63h5.54v11.94h-3.78v-4.02h0Z"/><path class="cls-2" d="M103.97,32.15h-6.38v1.99h7.13l-.45,2.76h-10.51v-11.94h10.54v2.76h-6.72v1.66h6.38v2.76Z"/></g></svg>