<?xml version="1.0" encoding="UTF-8"?>
<svg id="Calque_2" data-name="Calque 2" xmlns="http://www.w3.org/2000/svg" viewBox="0 0 366.69 326.63">
  <defs>
    <style>
      .cls-1 {
        fill: #ffad29;
      }

      .cls-1, .cls-2, .cls-3 {
        stroke-width: 0px;
      }

      .cls-3 {
        fill: #fff;
      }
    </style>
  </defs>
  <g id="Calque_1-2" data-name="Calque 1">
    <g>
      <g>
        <g>
          <g>
            <path class="cls-1" d="m79.36,136.56c0-57.3,46.62-103.92,103.92-103.92s103.92,46.62,103.92,103.92c0,5.19-.39,10.29-1.12,15.27h4.95c.7-4.99,1.08-10.09,1.08-15.27,0-60-48.82-108.82-108.82-108.82s-108.82,48.82-108.82,108.82c0,5.18.37,10.28,1.08,15.27h4.95c-.74-4.99-1.12-10.09-1.12-15.27Z"/>
            <path class="cls-1" d="m248.6,216H117.97c17.78,14.64,40.54,23.45,65.31,23.45s47.53-8.8,65.31-23.45Z"/>
            <path class="cls-1" d="m51.06,151.83h21.28c-.68-5-1.05-10.09-1.05-15.27,0-61.75,50.24-111.99,111.99-111.99s111.99,50.24,111.99,111.99c0,5.18-.36,10.28-1.05,15.27h21.54l1.88-2.74-11.19-27.04,5.32-28.78-21.22-20.15-6.85-28.45-27.58-9.78-17.83-23.21-29.18,2.28L183.41,0l-25.73,13.95-29.18-2.28-17.83,23.21-27.58,9.78-6.85,28.45-21.22,20.15,5.32,28.78-11.19,27.04,1.88,2.74Z"/>
            <path class="cls-1" d="m262.14,216c-20.26,20.11-48.13,32.55-78.86,32.55s-58.6-12.44-78.86-32.55h-15.85l2.89,1.77,12.61,26.41,29.01,3.83,22.26,19,28.06-8.3,28.06,8.3,22.26-19,29.01-3.83,12.61-26.41,2.89-1.77h-16.11Z"/>
            <path class="cls-1" d="m183.28,33.67c-56.73,0-102.89,46.16-102.89,102.89,0,5.19.39,10.29,1.14,15.27h203.51c.75-4.99,1.14-10.08,1.14-15.27,0-56.73-46.16-102.89-102.89-102.89Z"/>
            <path class="cls-1" d="m257.57,216h-7.37c-18.09,15.26-41.45,24.48-66.92,24.48s-48.82-9.22-66.92-24.48h-7.37c19.46,18.21,45.59,29.38,74.28,29.38s54.82-11.17,74.28-29.38Z"/>
          </g>
          <polygon class="cls-1" points="366.69 164.48 324.19 164.48 315.27 216 356.65 216 335.63 193.95 366.69 164.48"/>
          <polygon class="cls-1" points="0 164.48 31.06 193.95 10.04 216 51.27 216 42.35 164.48 0 164.48"/>
        </g>
        <g>
          <path class="cls-2" d="m152.33,137.11v-17.34h-21.14v-10.79l16.39-40.9h16.91v40.38h7.33v11.3h-7.33v17.34h-12.17Zm-8.8-28.64h8.8l1.73-15.88,1.47-13.11h-2.42l-4.05,13.11-5.52,15.88Z"/>
          <path class="cls-2" d="m176.14,137.11v-11.99h14.67v11.99h-14.67Z"/>
          <path class="cls-2" d="m216.09,137.97c-5.72,0-10.15-1.5-13.29-4.51-3.14-3-4.77-7.28-4.92-12.83-.09-3.88-.14-7.87-.17-11.95-.03-4.08-.03-8.17,0-12.25.03-4.08.09-8.07.17-11.95.14-5.58,1.78-9.85,4.92-12.81,3.13-2.96,7.56-4.44,13.29-4.44s10.06,1.48,13.18,4.44c3.12,2.96,4.77,7.23,4.94,12.81.11,2.93.2,5.92.26,8.97.06,3.05.09,6.1.09,9.17s-.03,6.1-.09,9.12c-.06,3.02-.14,5.98-.26,8.89-.17,5.55-1.82,9.83-4.94,12.83-3.12,3.01-7.51,4.51-13.18,4.51Zm0-10.53c3.28,0,5-1.47,5.18-4.4.2-4.4.34-8.92.41-13.55.07-4.63.07-9.26,0-13.89-.07-4.63-.21-9.15-.41-13.55-.09-2.88-1.81-4.31-5.18-4.31s-5.18,1.44-5.26,4.31c-.12,3.31-.21,6.68-.28,10.12-.07,3.44-.11,6.9-.11,10.38s.04,6.94.11,10.38c.07,3.44.17,6.81.28,10.12.09,2.93,1.84,4.4,5.26,4.4Z"/>
        </g>
        <g>
          <path class="cls-3" d="m40.16,151.83l11.11,64.17h264l11.11-64.17H40.16Zm270.05,58.17H56.33l-9.28-52h272.43l-9.27,52Z"/>
          <g>
            <path class="cls-3" d="m75.54,151.83c-.7-4.99-1.08-10.09-1.08-15.27,0-60,48.82-108.82,108.82-108.82s108.82,48.82,108.82,108.82c0,5.18-.37,10.28-1.08,15.27h3.2c.68-5,1.05-10.09,1.05-15.27,0-61.75-50.24-111.99-111.99-111.99s-111.99,50.24-111.99,111.99c0,5.18.36,10.28,1.05,15.27h3.2Z"/>
            <path class="cls-3" d="m257.57,216c-19.46,18.21-45.59,29.38-74.28,29.38s-54.82-11.17-74.28-29.38h-4.57c20.26,20.11,48.13,32.55,78.86,32.55s58.6-12.44,78.86-32.55h-4.57Z"/>
          </g>
          <g>
            <path class="cls-3" d="m81.53,151.83c-.75-4.99-1.14-10.08-1.14-15.27,0-56.73,46.16-102.89,102.89-102.89s102.89,46.16,102.89,102.89c0,5.19-.39,10.29-1.14,15.27h1.04c.74-4.99,1.12-10.09,1.12-15.27,0-57.3-46.62-103.92-103.92-103.92s-103.92,46.62-103.92,103.92c0,5.19.39,10.29,1.12,15.27h1.04Z"/>
            <path class="cls-3" d="m248.6,216c-17.78,14.64-40.54,23.45-65.31,23.45s-47.53-8.8-65.31-23.45h-1.61c18.09,15.26,41.45,24.48,66.92,24.48s48.82-9.22,66.92-24.48h-1.61Z"/>
          </g>
        </g>
        <polygon class="cls-1" points="310.21 210 56.33 210 47.05 158 319.48 158 310.21 210"/>
        <g>
          <path class="cls-2" d="m96.15,170.16l-8.39,26.9h-9.37l-7.96-26.9h7.62c.45,1.42.94,3.04,1.45,4.85s1.01,3.67,1.51,5.55c.5,1.89.94,3.65,1.32,5.28s.67,2.99.87,4.06h.17c.2-1.08.49-2.43.87-4.06.38-1.63.82-3.38,1.32-5.26.5-1.87,1-3.72,1.51-5.53.51-1.82.99-3.45,1.45-4.9h7.62Z"/>
          <path class="cls-2" d="m100.07,197.06v-26.95h20.01v5.53h-13.2v5.11h11.45v5.53h-11.45v5.24h13.2v5.53h-20.01Z"/>
          <path class="cls-2" d="m130.29,197.06h-6.81v-26.95h12.86c3.38,0,5.84.76,7.39,2.28,1.55,1.52,2.32,3.75,2.32,6.7,0,2.21-.55,4.11-1.66,5.68-1.11,1.58-2.57,2.56-4.38,2.96l-.04.13c.71.45,1.49,1.21,2.34,2.26.85,1.05,1.7,2.19,2.53,3.43.84,1.24,1.58,2.39,2.24,3.47v.04h-7.92l-4.6-6.81c-.4-.6-.72-1.02-.96-1.28-.24-.25-.53-.41-.85-.47-.33-.06-.84-.08-1.55-.08h-.89v8.64Zm4.94-21.41h-4.94v7.24h4.94c1.42,0,2.41-.28,2.96-.85.55-.57.83-1.49.83-2.77s-.28-2.2-.83-2.77c-.55-.57-1.54-.85-2.96-.85Z"/>
          <path class="cls-2" d="m157.11,197.06v-8.34l-8.73-18.47v-.13h7.45c.88,2.3,1.58,4.14,2.11,5.51.52,1.38.94,2.46,1.23,3.24s.53,1.41.7,1.89c.17.48.35.99.55,1.53h.17c.2-.54.38-1.05.55-1.53.17-.48.4-1.11.7-1.89.3-.78.71-1.86,1.24-3.24.52-1.38,1.23-3.21,2.11-5.51h7.45v.13l-8.73,18.47v8.34h-6.81Z"/>
          <path class="cls-2" d="m205.21,189.1c0-.94.04-1.79.13-2.55l-.08-.13c-.79.11-1.66.19-2.6.23-.94.04-1.8.05-2.6.02v-5.53l11.11-.04v14.47c-1.31.6-2.79,1.06-4.45,1.38s-3.77.49-6.32.49c-3.41,0-6.07-.46-8-1.38-1.93-.92-3.29-2.41-4.09-4.47-.79-2.06-1.19-4.8-1.19-8.24,0-2.78.32-5.07.96-6.85.64-1.79,1.58-3.17,2.81-4.15,1.24-.98,2.75-1.66,4.53-2.04s3.83-.57,6.13-.57c1.36,0,2.73.06,4.11.17,1.38.11,2.75.33,4.11.64v5.62l-.13.08c-1.19-.28-2.38-.48-3.55-.6s-2.36-.17-3.55-.17c-1.73,0-3.24.18-4.53.53-1.29.36-2.29,1.09-3,2.19-.71,1.11-1.06,2.82-1.06,5.15s.19,4.05.58,5.26c.38,1.21,1.11,2.03,2.17,2.47,1.06.44,2.59.66,4.58.66.25,0,.65,0,1.19-.02.54-.01,1.08-.04,1.62-.06.54-.03.92-.07,1.15-.13v-2.43Z"/>
          <path class="cls-2" d="m215,183.57c0-3.43.39-6.16,1.17-8.17.78-2.01,2.13-3.46,4.04-4.34,1.92-.88,4.59-1.32,8.02-1.32,2.58,0,4.73.24,6.43.72,1.7.48,3.05,1.26,4.04,2.34.99,1.08,1.7,2.5,2.11,4.28s.62,3.94.62,6.49-.21,4.76-.62,6.54-1.11,3.2-2.11,4.28c-.99,1.08-2.34,1.86-4.04,2.34-1.7.48-3.85.72-6.43.72s-4.72-.24-6.43-.72-3.05-1.26-4.04-2.34c-.99-1.08-1.7-2.5-2.13-4.28-.42-1.77-.64-3.95-.64-6.54Zm13.24,7.92c1.82,0,3.18-.23,4.09-.68s1.52-1.26,1.83-2.41.47-2.76.47-4.83-.16-3.63-.47-4.77c-.31-1.13-.92-1.94-1.83-2.41-.91-.47-2.27-.7-4.09-.7s-3.14.23-4.07.7c-.92.47-1.55,1.27-1.87,2.41-.33,1.14-.49,2.72-.49,4.77s.16,3.68.49,4.83.95,1.95,1.87,2.41,2.28.68,4.07.68Z"/>
          <path class="cls-2" d="m244.84,183.57c0-3.43.39-6.16,1.17-8.17.78-2.01,2.13-3.46,4.04-4.34,1.92-.88,4.59-1.32,8.02-1.32,2.58,0,4.73.24,6.43.72,1.7.48,3.05,1.26,4.04,2.34.99,1.08,1.7,2.5,2.11,4.28s.62,3.94.62,6.49-.21,4.76-.62,6.54-1.11,3.2-2.11,4.28c-.99,1.08-2.34,1.86-4.04,2.34-1.7.48-3.85.72-6.43.72s-4.72-.24-6.43-.72-3.05-1.26-4.04-2.34c-.99-1.08-1.7-2.5-2.13-4.28-.42-1.77-.64-3.95-.64-6.54Zm13.24,7.92c1.82,0,3.18-.23,4.09-.68s1.52-1.26,1.83-2.41.47-2.76.47-4.83-.16-3.63-.47-4.77c-.31-1.13-.92-1.94-1.83-2.41-.91-.47-2.27-.7-4.09-.7s-3.14.23-4.07.7c-.92.47-1.55,1.27-1.87,2.41-.33,1.14-.49,2.72-.49,4.77s.16,3.68.49,4.83.95,1.95,1.87,2.41,2.28.68,4.07.68Z"/>
          <path class="cls-2" d="m275.53,197.06v-26.95h11.79c2.36,0,4.33.19,5.92.57,1.59.38,2.87,1.06,3.83,2.02s1.66,2.31,2.09,4.02c.43,1.72.64,3.92.64,6.62s-.21,5.11-.64,6.9-1.12,3.18-2.09,4.17c-.96.99-2.24,1.68-3.83,2.06-1.59.38-3.56.58-5.92.58h-11.79Zm10.81-21.2h-4v15.45h4c1.65,0,2.94-.18,3.9-.55.95-.37,1.63-1.12,2.04-2.26.41-1.13.62-2.85.62-5.15s-.21-3.81-.62-4.88c-.41-1.06-1.09-1.77-2.04-2.11-.95-.34-2.25-.51-3.9-.51Z"/>
        </g>
      </g>
      <g>
        <polygon class="cls-1" points="99.34 291.07 85.61 300.63 90.46 284.62 77.13 274.51 93.85 274.17 99.34 258.37 104.84 274.17 121.56 274.51 108.23 284.62 113.08 300.63 99.34 291.07"/>
        <polygon class="cls-1" points="155.34 317.07 141.61 326.63 146.46 310.62 133.13 300.51 149.85 300.17 155.34 284.37 160.84 300.17 177.56 300.51 164.23 310.62 169.08 326.63 155.34 317.07"/>
        <polygon class="cls-1" points="211.34 317.07 197.61 326.63 202.46 310.62 189.13 300.51 205.85 300.17 211.34 284.37 216.84 300.17 233.56 300.51 220.23 310.62 225.08 326.63 211.34 317.07"/>
        <polygon class="cls-1" points="267.34 291.07 253.61 300.63 258.46 284.62 245.13 274.51 261.85 274.17 267.34 258.37 272.84 274.17 289.56 274.51 276.23 284.62 281.08 300.63 267.34 291.07"/>
      </g>
    </g>
  </g>
</svg>