<?xml version="1.0" encoding="UTF-8"?><svg width="384" height="100" id="Calque_2" xmlns="http://www.w3.org/2000/svg" viewBox="0 0 192 50"><defs><style>.cls-1{opacity:0;}.cls-1,.cls-2{stroke-width:0px;}.cls-2{fill:#0d1f49;fill-rule:evenodd;}</style></defs><g id="_08_Lines"><rect class="cls-1" width="192" height="50"/><path class="cls-2" d="m96,20.59c2.43,0,4.49,1.35,5.12,3.2,2.75-.36,4.62-1.76,5.24-4.09,6.24,3.11,18.16,4.77,28.3,4.77h57.34v1.08h-57.34c-10.14,0-22.06,1.65-28.3,4.77-.62-2.33-2.49-3.73-5.24-4.09-.64,1.84-2.69,3.19-5.12,3.19s-4.48-1.35-5.12-3.19c-2.75.36-4.62,1.76-5.24,4.09-6.24-3.11-18.16-4.77-28.3-4.77H0v-1.08h57.34c10.14,0,22.06-1.65,28.3-4.77.62,2.33,2.49,3.73,5.24,4.09.64-1.84,2.69-3.2,5.12-3.2Z"/></g></svg>
