<?xml version="1.0" encoding="UTF-8"?><svg id="Calque_2" xmlns="http://www.w3.org/2000/svg" width="152.64" height="39.54" viewBox="0 0 152.64 39.54"><defs><style>.cls-1{fill:#1c1c1c;}.cls-1,.cls-2{stroke-width:0px;}.cls-2{fill:#fff;}</style></defs><g id="Layer_1"><path class="cls-1" d="M134.54,0H18.1C8.1,0,0,8.85,0,19.77s8.1,19.77,18.1,19.77h116.44c9.99,0,18.1-8.85,18.1-19.77S144.53,0,134.54,0h0Z"/><circle class="cls-2" cx="20.99" cy="19.77" r="12.97"/><path class="cls-1" d="M26.23,14.99c-.45,0-.91,0-1.35,0-.37-2.44-1.77-3.84-3.84-3.86-2.12-.02-3.51,1.33-3.95,3.86h-1.35c-1.08,0-1.7.63-1.7,1.71v8.91c0,1.13.62,1.75,1.75,1.75,3.48,0,6.95,0,10.43,0,1.11,0,1.74-.62,1.74-1.72,0-2.98,0-5.97,0-8.95,0-1.08-.63-1.7-1.71-1.71h0ZM20.89,12.68c1.31-.05,2.4.97,2.41,2.3h-4.6c-.07-1.18.96-2.25,2.19-2.3h0ZM26.37,25.79h-10.78v-9.24h10.78v9.24Z"/><path class="cls-1" d="M21.12,21.17c2.53-.08,3.84-2.37,3.69-3.83h-1.49c-.17,1.35-.99,2.21-2.15,2.29-.55.04-1.06-.09-1.51-.4-.66-.46-.96-1.11-1.02-1.88h-1.5c-.1,2.09,1.78,3.9,3.97,3.83h0Z"/><path class="cls-2" d="M50.22,19.08c2.18.39,3.72,1.43,3.72,3.4,0,1.29-.81,2.49-1.99,3.16-1.06.58-2.41.87-3.94.87h-5.81v-.77c1.6-.17,1.76-.27,1.76-2.01v-7.91c0-1.74-.27-1.93-1.74-2.04v-.77h6.31c1.58,0,2.57.21,3.4.73.77.5,1.27,1.29,1.27,2.31,0,1.72-1.62,2.76-2.97,3.03h0ZM47.58,18.8c1.97,0,2.7-.85,2.7-2.39,0-1.81-1.18-2.49-2.33-2.49-.5,0-.81.06-.98.17-.23.15-.21.33-.21.77v3.94h.81ZM46.77,23.69c0,1.5.69,1.95,1.81,1.93,1.14-.02,2.26-1.02,2.26-2.95s-1.02-2.97-3.34-2.97h-.73v3.99Z"/><path class="cls-2" d="M69.82,13.78c-1.33.12-1.68.52-1.77,1.27-.06.62-.1,1.33-.1,2.78v2.72c0,1.79-.29,3.59-1.47,4.84-.96,1-2.43,1.43-3.9,1.43-1.37,0-2.74-.29-3.72-1.08-1.21-.91-1.79-2.18-1.79-4.51v-5.25c0-1.91-.19-2.06-1.77-2.2v-.77h6.42v.77c-1.56.15-1.74.29-1.74,2.2v5.52c0,2.33,1.14,3.86,3.36,3.86,2.47,0,3.55-1.83,3.55-4.94v-2.6c0-1.43-.06-2.18-.1-2.8-.08-.96-.66-1.16-2.12-1.25v-.77h5.15v.77h0Z"/><path class="cls-2" d="M84.18,13.78c-1.33.15-1.81.44-2.56,1.7-.75,1.29-1.39,2.43-2.41,4.51-.17.33-.23.58-.23,1.1v2.57c0,1.81.17,1.87,1.87,2.08v.77h-6.56v-.77c1.64-.21,1.79-.27,1.79-2.08v-2.39c0-.46-.08-.66-.23-.96-.6-1.23-1.37-2.62-2.62-4.8-.77-1.35-1.08-1.62-2.28-1.74v-.77h6.08v.77c-1.39.19-1.35.46-1,1.18.69,1.35,1.58,3.01,2.37,4.53.62-1.16,1.62-3.16,2.2-4.42.39-.83.23-1.1-1.27-1.29v-.77h4.84v.77h0Z"/><path class="cls-2" d="M103.95,13.78c-1.27.17-1.66.44-1.72,1.37-.06.81-.12,1.52-.12,3.32v8.27h-1.16l-8.66-10.38v4.69c0,1.81.04,2.62.1,3.22.08.91.52,1.39,2.06,1.47v.77h-5.15v-.77c1.18-.1,1.7-.42,1.83-1.39.08-.75.12-1.5.12-3.3v-4.92c0-.69-.04-1.14-.44-1.68-.37-.52-.87-.58-1.75-.67v-.77h4.05l7.91,9.2v-3.74c0-1.81-.02-2.49-.08-3.26-.06-.89-.39-1.33-2.12-1.43v-.77h5.13v.77h0Z"/><path class="cls-2" d="M113.02,12.72c3.84,0,6.98,2.8,6.98,6.89,0,4.42-3.16,7.21-7.08,7.21-4.15,0-7.16-3.03-7.16-7.04,0-3.55,2.53-7.06,7.27-7.06h0ZM112.71,13.63c-2.12,0-3.68,2.08-3.68,5.75s1.39,6.52,4.2,6.52c1.97,0,3.51-1.91,3.51-5.71,0-4.11-1.62-6.56-4.03-6.56h0Z"/><path class="cls-2" d="M141.32,13.78c-1.49.19-1.77.5-2.35,2.2-.54,1.6-2.1,6.52-3.41,10.76h-1.16c-1.06-2.99-2.24-6.06-3.43-9.18-1.08,3.14-2.12,6.17-3.1,9.18h-1.2c-.83-2.93-2.16-7.23-3.32-10.9-.52-1.58-.83-1.93-2.1-2.06v-.77h6.27v.77c-1.56.15-1.6.46-1.31,1.54.69,2.39,1.41,4.82,2.1,7.08,1.06-2.93,2.06-6.06,3.01-9.28h1.1c1.14,3.18,2.33,6.27,3.47,9.3.77-2.24,1.76-5.71,2.06-6.9.29-1.22.08-1.6-1.7-1.74v-.77h5.07v.77h0Z"/></g></svg>