<?xml version="1.0" encoding="utf-8"?>
<!DOCTYPE svg PUBLIC "-//W3C//DTD SVG 1.1//EN" "http://www.w3.org/Graphics/SVG/1.1/DTD/svg11.dtd">
<svg version="1.1" xmlns="http://www.w3.org/2000/svg" xmlns:xlink="http://www.w3.org/1999/xlink" xmlns:xml="http://www.w3.org/XML/1998/namespace" xmlns:cc="http://creativecommons.org/ns#" xmlns:dc="http://purl.org/dc/elements/1.1/" xmlns:rdf="http://www.w3.org/1999/02/22-rdf-syntax-ns#" width="773" height="999" viewBox="0.3595768, 0, 277.95285, 360.438" xml:space="preserve">
  
  <g style="fill:#E82127;"><path d="m28.524 388.986 c0.812 3.167 3.554 6.404 7.316 7.215 h11.37 l0.58 0.229 v28.691 h7.1 v-28.691 l0.645 -0.229 h11.38 c3.804 -0.98 6.487 -4.048 7.285 -7.215 v-0.07 h-45.676 v0.07" transform="translate(-28.524, -64.797)" /><path d="m98.795 425.202 h27.011 c3.758 -0.747 6.551 -4.058 7.334 -7.263 h-41.679 c0.778 3.206 3.612 6.516 7.334 7.263" transform="translate(-28.524, -64.797)" /><path d="m98.795 410.485 h27.011 c3.758 -0.741 6.551 -4.053 7.334 -7.262 h-41.679 c0.778 3.21 3.612 6.521 7.334 7.262" transform="translate(-28.524, -64.797)" /><path d="m98.795 396.163 h27.011 c3.758 -0.749 6.551 -4.058 7.334 -7.265 h-41.679 c0.778 3.207 3.612 6.516 7.334 7.265" transform="translate(-28.524, -64.797)" /><path d="m160.398 396.094 h24.954 c3.762 -1.093 6.921 -3.959 7.691 -7.136 h-39.64 v21.415 h32.444 v7.515 l-25.449 0.02 c-3.988 1.112 -7.37 3.79 -9.057 7.327 l2.062 -0.038 h39.415 v-21.944 h-32.42 v-7.159" transform="translate(-28.524, -64.797)" /><path d="m245.319 425.206 c3.543 -1.502 5.449 -4.1 6.179 -7.14 h-31.517 l0.02 -29.118 l-7.065 0.02 v36.238 h32.383" transform="translate(-28.524, -64.797)" /><path d="m272.845 396.192 h27.02 c3.753 -0.746 6.544 -4.058 7.331 -7.262 h-41.681 c0.779 3.205 3.611 6.516 7.33 7.262" transform="translate(-28.524, -64.797)" /><path d="m266.601 403.28 v21.912 h7.027 v-14.589 h25.575 v14.589 h7.022 v-21.874 l-39.624 -0.038" transform="translate(-28.524, -64.797)" />
    
  </g>
  <g style="fill:#E82127;">
    <path d="m173.146 317.299 l35.476 -199.519 c33.815 0 44.481 3.708 46.021 18.843 c0 0 22.684 -8.458 34.125 -25.636 c-44.646 -20.688 -89.505 -21.621 -89.505 -21.621 l-26.176 31.882 l0.059 -0.004 l-26.176 -31.883 s-44.86 0.934 -89.5 21.622 c11.431 17.178 34.124 25.636 34.124 25.636 c1.549 -15.136 12.202 -18.844 45.79 -18.868 l35.762 199.548" transform="translate(-33.796, -64.797)" />
    <path d="m173.132 80.157 c36.09 -0.276 77.399 5.583 119.687 24.014 c5.652 -10.173 7.105 -14.669 7.105 -14.669 c-46.227 -18.289 -89.518 -24.548 -126.797 -24.705 c-37.277 0.157 -80.566 6.417 -126.787 24.705 c0 0 2.062 5.538 7.1 14.669 c42.28 -18.431 83.596 -24.29 119.687 -24.014 h0.005" transform="translate(-33.796, -64.797)" />
  </g>
<metadata /></svg>