<?xml version="1.0" encoding="utf-8"?>
<!DOCTYPE svg PUBLIC "-//W3C//DTD SVG 1.1//EN" "http://www.w3.org/Graphics/SVG/1.1/DTD/svg11.dtd">
<svg version="1.1" xmlns="http://www.w3.org/2000/svg" xmlns:xlink="http://www.w3.org/1999/xlink" xmlns:xml="http://www.w3.org/XML/1998/namespace" width="1000" height="491" overflow="hidden" viewBox="0, 0, 2414, 1187" xml:space="preserve">
  <defs>
    <clipPath id="clip0">
      <rect x="0" y="150" width="2414" height="1187" />
    </clipPath>
  </defs>
  <g clip-path="url(#clip0)" transform="matrix(1, 0, 0, 1, 0, -150)">
    <path d="M0 743.5 C-1.53667E-13 415.719 540.392 150 1207 150 C1873.61 150 2414 415.719 2414 743.5 C2414 1071.28 1873.61 1337 1207 1337 C540.392 1337 -7.68336E-13 1071.28 0 743.5 Z" fill-rule="evenodd" style="fill:#DB1C30;" />
    <path d="M1289.35 1241.44 C1271.55 1241.44 1257.12 1255.87 1257.12 1273.67 C1257.12 1291.47 1271.55 1305.9 1289.35 1305.9 C1307.16 1305.9 1321.59 1291.47 1321.59 1273.67 C1321.59 1255.87 1307.16 1241.44 1289.35 1241.44 Z M1207.08 1241.44 C1189.28 1241.44 1174.85 1255.87 1174.85 1273.67 C1174.85 1291.47 1189.28 1305.9 1207.08 1305.9 C1224.88 1305.9 1239.31 1291.47 1239.31 1273.67 C1239.31 1255.87 1224.88 1241.44 1207.08 1241.44 Z M1123.64 1241.44 C1105.84 1241.44 1091.41 1255.87 1091.41 1273.67 C1091.41 1291.47 1105.84 1305.9 1123.64 1305.9 C1141.44 1305.9 1155.88 1291.47 1155.88 1273.67 C1155.88 1255.87 1141.44 1241.44 1123.64 1241.44 Z M1371.63 1236.83 C1353.83 1236.83 1339.4 1251.26 1339.4 1269.06 C1339.4 1286.86 1353.83 1301.29 1371.63 1301.29 C1389.43 1301.29 1403.86 1286.86 1403.86 1269.06 C1403.86 1251.26 1389.43 1236.83 1371.63 1236.83 Z M1041.37 1236.83 C1023.57 1236.83 1009.14 1251.26 1009.14 1269.06 C1009.14 1286.86 1023.57 1301.29 1041.37 1301.29 C1059.17 1301.29 1073.6 1286.86 1073.6 1269.06 C1073.6 1251.26 1059.17 1236.83 1041.37 1236.83 Z M1455.49 1228.63 C1437.69 1228.63 1423.26 1243.06 1423.26 1260.86 C1423.26 1278.66 1437.69 1293.09 1455.49 1293.09 C1473.29 1293.09 1487.72 1278.66 1487.72 1260.86 C1487.72 1243.06 1473.29 1228.63 1455.49 1228.63 Z M957.511 1228.63 C939.711 1228.63 925.28 1243.06 925.28 1260.86 C925.28 1278.66 939.711 1293.09 957.511 1293.09 C975.311 1293.09 989.742 1278.66 989.742 1260.86 C989.742 1243.06 975.311 1228.63 957.511 1228.63 Z M1542.4 1218.94 C1524.6 1218.94 1510.17 1233.37 1510.17 1251.17 C1510.17 1268.97 1524.6 1283.4 1542.4 1283.4 C1560.2 1283.4 1574.63 1268.97 1574.63 1251.17 C1574.63 1233.37 1560.2 1218.94 1542.4 1218.94 Z M870.602 1218.94 C852.801 1218.94 838.371 1233.37 838.371 1251.17 C838.371 1268.97 852.801 1283.4 870.602 1283.4 C888.402 1283.4 902.833 1268.97 902.833 1251.17 C902.833 1233.37 888.402 1218.94 870.602 1218.94 Z M1629.31 1204.6 C1611.51 1204.6 1597.08 1219.03 1597.08 1236.83 C1597.08 1254.63 1611.51 1269.06 1629.31 1269.06 C1647.11 1269.06 1661.54 1254.63 1661.54 1236.83 C1661.54 1219.03 1647.11 1204.6 1629.31 1204.6 Z M783.693 1204.6 C765.892 1204.6 751.462 1219.03 751.462 1236.83 C751.462 1254.63 765.892 1269.06 783.693 1269.06 C801.493 1269.06 815.924 1254.63 815.924 1236.83 C815.924 1219.03 801.493 1204.6 783.693 1204.6 Z M1716 1185.59 C1698.19 1185.59 1683.76 1200.02 1683.76 1217.82 C1683.76 1235.62 1698.19 1250.05 1716 1250.05 C1733.8 1250.05 1748.23 1235.62 1748.23 1217.82 C1748.23 1200.02 1733.8 1185.59 1716 1185.59 Z M697.004 1185.59 C679.203 1185.59 664.773 1200.02 664.773 1217.82 C664.773 1235.62 679.203 1250.05 697.004 1250.05 C714.804 1250.05 729.234 1235.62 729.234 1217.82 C729.234 1200.02 714.804 1185.59 697.004 1185.59 Z M1805.32 1164.17 C1787.51 1164.17 1773.08 1178.6 1773.08 1196.4 C1773.08 1214.2 1787.51 1228.63 1805.32 1228.63 C1823.12 1228.63 1837.55 1214.2 1837.55 1196.4 C1837.55 1178.6 1823.12 1164.17 1805.32 1164.17 Z M607.684 1164.17 C589.883 1164.17 575.453 1178.6 575.453 1196.4 C575.453 1214.2 589.883 1228.63 607.684 1228.63 C625.484 1228.63 639.915 1214.2 639.915 1196.4 C639.915 1178.6 625.484 1164.17 607.684 1164.17 Z M1889.16 1137.34 C1871.36 1137.34 1856.93 1151.77 1856.93 1169.57 C1856.93 1187.37 1871.36 1201.8 1889.16 1201.8 C1906.96 1201.8 1921.39 1187.37 1921.39 1169.57 C1921.39 1151.77 1906.96 1137.34 1889.16 1137.34 Z M523.842 1137.34 C506.041 1137.34 491.611 1151.77 491.611 1169.57 C491.611 1187.37 506.041 1201.8 523.842 1201.8 C541.642 1201.8 556.073 1187.37 556.073 1169.57 C556.073 1151.77 541.642 1137.34 523.842 1137.34 Z M1976.16 1103.53 C1958.36 1103.53 1943.93 1117.96 1943.93 1135.76 C1943.93 1153.56 1958.36 1167.99 1976.16 1167.99 C1993.96 1167.99 2008.39 1153.56 2008.39 1135.76 C2008.39 1117.96 1993.96 1103.53 1976.16 1103.53 Z M436.836 1103.53 C419.036 1103.53 404.605 1117.96 404.605 1135.76 C404.605 1153.56 419.036 1167.99 436.836 1167.99 C454.637 1167.99 469.067 1153.56 469.067 1135.76 C469.067 1117.96 454.637 1103.53 436.836 1103.53 Z M2060.54 1063.86 C2042.74 1063.86 2028.31 1078.29 2028.31 1096.09 C2028.31 1113.89 2042.74 1128.32 2060.54 1128.32 C2078.35 1128.32 2092.78 1113.89 2092.78 1096.09 C2092.78 1078.29 2078.35 1063.86 2060.54 1063.86 Z M352.454 1063.86 C334.653 1063.86 320.223 1078.29 320.223 1096.09 C320.223 1113.89 334.653 1128.32 352.454 1128.32 C370.255 1128.32 384.685 1113.89 384.685 1096.09 C384.685 1078.29 370.255 1063.86 352.454 1063.86 Z M2144.18 1014.97 C2126.38 1014.97 2111.95 1029.4 2111.95 1047.2 C2111.95 1065 2126.38 1079.43 2144.18 1079.43 C2161.98 1079.43 2176.41 1065 2176.41 1047.2 C2176.41 1029.4 2161.98 1014.97 2144.18 1014.97 Z M268.819 1014.97 C251.019 1014.97 236.589 1029.4 236.589 1047.2 C236.589 1065 251.019 1079.43 268.819 1079.43 C286.62 1079.43 301.05 1065 301.05 1047.2 C301.05 1029.4 286.62 1014.97 268.819 1014.97 Z M2223.74 955.276 C2205.94 955.276 2191.51 969.706 2191.51 987.506 C2191.51 1005.31 2205.94 1019.74 2223.74 1019.74 C2241.54 1019.74 2255.97 1005.31 2255.97 987.506 C2255.97 969.706 2241.54 955.276 2223.74 955.276 Z M189.256 955.276 C171.456 955.276 157.025 969.706 157.025 987.506 C157.025 1005.31 171.456 1019.74 189.256 1019.74 C207.057 1019.74 221.487 1005.31 221.487 987.506 C221.487 969.706 207.057 955.276 189.256 955.276 Z M2291.33 880.69 C2273.53 880.69 2259.1 895.12 2259.1 912.919 C2259.1 930.719 2273.53 945.149 2291.33 945.149 C2309.13 945.149 2323.56 930.719 2323.56 912.919 C2323.56 895.12 2309.13 880.69 2291.33 880.69 Z M121.668 880.69 C103.868 880.69 89.4376 895.12 89.4376 912.919 C89.4376 930.719 103.868 945.149 121.668 945.149 C139.469 945.149 153.899 930.719 153.899 912.919 C153.899 895.12 139.469 880.69 121.668 880.69 Z M2333.5 800.565 C2315.7 800.565 2301.27 814.994 2301.27 832.794 C2301.27 850.594 2315.7 865.024 2333.5 865.024 C2351.31 865.024 2365.74 850.594 2365.74 832.794 C2365.74 814.994 2351.31 800.565 2333.5 800.565 Z M79.4959 800.565 C61.6954 800.565 47.2651 814.994 47.2651 832.794 C47.2651 850.594 61.6954 865.024 79.4959 865.024 C97.2967 865.024 111.727 850.594 111.727 832.794 C111.727 814.994 97.2967 800.565 79.4959 800.565 Z M2351.05 711.27 C2333.25 711.27 2318.82 725.7 2318.82 743.5 C2318.82 761.3 2333.25 775.729 2351.05 775.729 C2368.85 775.729 2383.28 761.3 2383.28 743.5 C2383.28 725.7 2368.85 711.27 2351.05 711.27 Z M61.9534 711.27 C44.1528 711.27 29.7225 725.7 29.7225 743.5 C29.7225 761.3 44.1528 775.729 61.9534 775.729 C79.754 775.729 94.1843 761.3 94.1843 743.5 C94.1843 725.7 79.754 711.27 61.9534 711.27 Z M2333.5 621.976 C2315.7 621.976 2301.27 636.406 2301.27 654.205 C2301.27 672.005 2315.7 686.435 2333.5 686.435 C2351.31 686.435 2365.74 672.005 2365.74 654.205 C2365.74 636.406 2351.31 621.976 2333.5 621.976 Z M79.4951 621.976 C61.6946 621.976 47.2643 636.406 47.2643 654.205 C47.2643 672.005 61.6946 686.435 79.4951 686.435 C97.2957 686.435 111.726 672.005 111.726 654.205 C111.726 636.406 97.2957 621.976 79.4951 621.976 Z M2291.33 541.851 C2273.53 541.851 2259.1 556.28 2259.1 574.08 C2259.1 591.88 2273.53 606.31 2291.33 606.31 C2309.13 606.31 2323.56 591.88 2323.56 574.08 C2323.56 556.28 2309.13 541.851 2291.33 541.851 Z M121.669 541.851 C103.869 541.851 89.4386 556.28 89.4386 574.08 C89.4386 591.88 103.869 606.31 121.669 606.31 C139.47 606.31 153.9 591.88 153.9 574.08 C153.9 556.28 139.47 541.851 121.669 541.851 Z M2223.74 467.265 C2205.94 467.265 2191.51 481.695 2191.51 499.494 C2191.51 517.294 2205.94 531.723 2223.74 531.723 C2241.54 531.723 2255.97 517.294 2255.97 499.494 C2255.97 481.695 2241.54 467.265 2223.74 467.265 Z M189.257 467.265 C171.457 467.265 157.026 481.695 157.026 499.494 C157.026 517.294 171.457 531.723 189.257 531.723 C207.058 531.723 221.488 517.294 221.488 499.494 C221.488 481.695 207.058 467.265 189.257 467.265 Z M2144.18 407.571 C2126.38 407.571 2111.95 422.001 2111.95 439.801 C2111.95 457.601 2126.38 472.03 2144.18 472.03 C2161.98 472.03 2176.41 457.601 2176.41 439.801 C2176.41 422.001 2161.98 407.571 2144.18 407.571 Z M268.82 407.571 C251.02 407.571 236.589 422.001 236.589 439.801 C236.589 457.6 251.02 472.03 268.82 472.03 C286.621 472.03 301.051 457.6 301.051 439.801 C301.051 422.001 286.621 407.571 268.82 407.571 Z M2060.54 358.677 C2042.74 358.677 2028.31 373.107 2028.31 390.907 C2028.31 408.707 2042.74 423.136 2060.54 423.136 C2078.35 423.136 2092.78 408.707 2092.78 390.907 C2092.78 373.107 2078.35 358.677 2060.54 358.677 Z M352.455 358.677 C334.654 358.677 320.224 373.107 320.224 390.907 C320.224 408.707 334.654 423.136 352.455 423.136 C370.255 423.136 384.686 408.707 384.686 390.907 C384.686 373.107 370.255 358.677 352.455 358.677 Z M1976.16 319.014 C1958.36 319.014 1943.93 333.444 1943.93 351.243 C1943.93 369.044 1958.36 383.473 1976.16 383.473 C1993.96 383.473 2008.39 369.044 2008.39 351.243 C2008.39 333.444 1993.96 319.014 1976.16 319.014 Z M436.837 319.014 C419.037 319.014 404.606 333.444 404.606 351.243 C404.606 369.044 419.037 383.473 436.837 383.473 C454.638 383.473 469.068 369.044 469.068 351.243 C469.068 333.444 454.638 319.014 436.837 319.014 Z M1889.16 285.203 C1871.36 285.203 1856.93 299.632 1856.93 317.432 C1856.93 335.232 1871.36 349.662 1889.16 349.662 C1906.96 349.662 1921.39 335.232 1921.39 317.432 C1921.39 299.632 1906.96 285.203 1889.16 285.203 Z M523.843 285.203 C506.043 285.203 491.612 299.632 491.612 317.432 C491.612 335.232 506.043 349.662 523.843 349.662 C541.644 349.662 556.074 335.232 556.074 317.432 C556.074 299.632 541.644 285.203 523.843 285.203 Z M1206.5 270.866 C606.923 270.866 120.87 482.471 120.87 743.5 C120.87 1004.53 606.923 1216.13 1206.5 1216.13 C1806.08 1216.13 2292.13 1004.53 2292.13 743.5 C2292.13 482.471 1806.08 270.866 1206.5 270.866 Z M1805.32 258.373 C1787.51 258.373 1773.08 272.803 1773.08 290.603 C1773.08 308.402 1787.51 322.832 1805.32 322.832 C1823.12 322.832 1837.55 308.402 1837.55 290.603 C1837.55 272.803 1823.12 258.373 1805.32 258.373 Z M607.685 258.373 C589.885 258.373 575.454 272.802 575.454 290.602 C575.454 308.402 589.885 322.832 607.685 322.832 C625.485 322.832 639.916 308.402 639.916 290.602 C639.916 272.802 625.485 258.373 607.685 258.373 Z M1716 236.947 C1698.19 236.947 1683.76 251.376 1683.76 269.177 C1683.76 286.976 1698.19 301.406 1716 301.406 C1733.8 301.406 1748.23 286.976 1748.23 269.177 C1748.23 251.376 1733.8 236.947 1716 236.947 Z M697.005 236.947 C679.204 236.947 664.773 251.376 664.773 269.176 C664.773 286.976 679.204 301.406 697.005 301.406 C714.805 301.406 729.236 286.976 729.236 269.176 C729.236 251.376 714.805 236.947 697.005 236.947 Z M1629.31 217.94 C1611.51 217.94 1597.08 232.369 1597.08 250.169 C1597.08 267.969 1611.51 282.399 1629.31 282.399 C1647.11 282.399 1661.54 267.969 1661.54 250.169 C1661.54 232.369 1647.11 217.94 1629.31 217.94 Z M783.694 217.939 C765.893 217.939 751.463 232.369 751.463 250.169 C751.463 267.969 765.893 282.399 783.694 282.399 C801.494 282.399 815.924 267.969 815.924 250.169 C815.924 232.369 801.494 217.939 783.694 217.939 Z M1542.4 203.599 C1524.6 203.599 1510.17 218.029 1510.17 235.828 C1510.17 253.628 1524.6 268.058 1542.4 268.058 C1560.2 268.058 1574.63 253.628 1574.63 235.828 C1574.63 218.029 1560.2 203.599 1542.4 203.599 Z M870.602 203.599 C852.801 203.599 838.371 218.028 838.371 235.828 C838.371 253.628 852.801 268.058 870.602 268.058 C888.402 268.058 902.833 253.628 902.833 235.828 C902.833 218.028 888.402 203.599 870.602 203.599 Z M1455.49 193.914 C1437.69 193.914 1423.26 208.344 1423.26 226.143 C1423.26 243.943 1437.69 258.373 1455.49 258.373 C1473.29 258.373 1487.72 243.943 1487.72 226.143 C1487.72 208.344 1473.29 193.914 1455.49 193.914 Z M957.511 193.914 C939.711 193.914 925.281 208.343 925.281 226.143 C925.281 243.943 939.711 258.373 957.511 258.373 C975.312 258.373 989.742 243.943 989.742 226.143 C989.742 208.343 975.312 193.914 957.511 193.914 Z M1371.63 185.71 C1353.83 185.71 1339.4 200.14 1339.4 217.94 C1339.4 235.74 1353.83 250.169 1371.63 250.169 C1389.43 250.169 1403.86 235.74 1403.86 217.94 C1403.86 200.14 1389.43 185.71 1371.63 185.71 Z M1041.37 185.71 C1023.57 185.71 1009.14 200.14 1009.14 217.939 C1009.14 235.739 1023.57 250.169 1041.37 250.169 C1059.17 250.169 1073.6 235.739 1073.6 217.939 C1073.6 200.14 1059.17 185.71 1041.37 185.71 Z M1289.35 181.104 C1271.55 181.104 1257.12 195.534 1257.12 213.334 C1257.12 231.134 1271.55 245.564 1289.35 245.564 C1307.16 245.564 1321.59 231.134 1321.59 213.334 C1321.59 195.534 1307.16 181.104 1289.35 181.104 Z M1207.08 181.104 C1189.28 181.104 1174.85 195.534 1174.85 213.334 C1174.85 231.134 1189.28 245.564 1207.08 245.564 C1224.88 245.564 1239.31 231.134 1239.31 213.334 C1239.31 195.534 1224.88 181.104 1207.08 181.104 Z M1123.64 181.104 C1105.84 181.104 1091.41 195.534 1091.41 213.334 C1091.41 231.134 1105.84 245.563 1123.64 245.563 C1141.45 245.563 1155.88 231.134 1155.88 213.334 C1155.88 195.534 1141.45 181.104 1123.64 181.104 Z M1206.5 156 C1869.52 156 2407 419.033 2407 743.5 C2407 1067.97 1869.52 1331 1206.5 1331 C543.482 1331 5.99984 1067.97 5.99984 743.5 C5.99984 419.033 543.482 156 1206.5 156 Z" fill-rule="evenodd" style="fill:white;" />
    <path d="M1357.55 761.152 L1338.41 828.461 L1377.93 828.461 L1357.55 761.152 Z M1298.28 577 L1366.99 577 L1409.72 619.75 L1512 988 L1444.9 988 L1402.17 945.25 L1397.05 927.096 L1314.33 927.096 L1299.63 988 L1238.73 988 L1196 945.25 L1298.28 577 Z" fill-rule="evenodd" />
    <path d="M977.629 577 L1109.63 577 C1122.51 577.72 1129.91 579.807 1143.28 589.864 L1184.81 632.332 C1189.86 639.946 1192.97 655.803 1195 669.327 L1191.99 718.487 L1126.03 718.487 L1083.48 676.047 L1041.82 676.015 C1041.46 745.29 1041.1 814.565 1040.74 883.839 L1066.25 883.839 C1075.65 883.839 1083.27 876.229 1083.27 866.842 L1083.27 791.124 L1056.49 791.124 L1056.49 740.909 L1159.26 740.91 L1193 776.643 C1193 828.549 1191.99 876.449 1191.99 928.355 C1191.99 955.739 1156.75 987.954 1129.34 987.954 L1020.39 987.954 C1006.92 988.627 993.54 981.744 986.08 974.899 L938.588 926.948 C933.536 919.334 927.867 906.283 928.002 895.627 L928.002 626.582 C928.002 599.199 950.221 577 977.629 577 Z" fill-rule="evenodd" />
    <path d="M1725 577 L1973 577 L1993 604.866 L1993 680.794 L1929.6 680.794 C1929.72 783.196 1929.85 885.598 1929.97 988 L1854.13 988 L1811.08 945.25 L1811.08 680.794 L1760.25 680.794 L1725 652.928 L1725 577 Z" fill-rule="evenodd" />
    <path d="M610 577 L689.216 577 L731.927 619.75 L731.91 883.872 L751.391 883.872 C760.776 883.872 768.385 876.261 768.385 866.873 L768.385 699.747 L768.385 577 L844.288 577 L887 619.75 L887 938.412 C887 965.799 864.806 988 837.428 988 L702.284 988 C688.301 987.356 679.436 982.019 669.071 974.193 L620.216 926.124 C615.17 918.509 611.703 908.411 610 895.663 L610 849.632 L610 699.747 L610 577 Z" fill-rule="evenodd" />
    <path d="M2012 577 L2088.15 577 L2131 619.75 L2131 988 L2054.85 988 L2012 945.25 L2012 577 Z" fill-rule="evenodd" />
    <path d="M1445 577 L1693 577 L1713 604.866 L1713 680.794 L1649.6 680.794 C1649.73 783.196 1648.63 885.598 1648.76 988 L1574.16 988 L1531.08 945.25 L1531.08 680.794 L1480.25 680.794 L1445 652.928 L1445 577 Z" fill-rule="evenodd" />
    <path d="M401.316 823.444 L401.316 883.872 L426.776 883.872 C444.398 883.872 458.684 869.545 458.684 851.872 L458.684 823.444 L401.316 823.444 Z M401.316 681.13 L401.316 719.317 L421.593 719.317 C435.416 719.317 446.623 708.079 446.623 694.216 L446.623 681.13 L401.316 681.13 Z M283 577 L475.707 577.001 C487.324 578.348 494.242 580.602 507.2 587.983 C519.579 596.526 543.83 622.135 553.453 635.224 C558.199 642.405 563.025 648.05 564.939 666.512 L564.939 745.993 C564.939 765.363 553.197 781.981 536.461 789.08 C559.885 807.762 576.702 820.641 577 860.042 L577 920.713 C577 957.874 546.96 988 509.904 988 L325.604 988 L283 945.25 L283 577 Z" fill-rule="evenodd" />
    <path d="M610 577 L689.118 577 L689.099 866.676 C689.099 876.058 696.698 883.663 706.072 883.663 L751.217 883.663 C760.591 883.663 768.19 876.058 768.19 866.676 L768.19 699.664 L768.19 577 L844 577 L844 895.446 C844 922.814 821.833 945 794.489 945 L659.511 945 C632.167 945 610 922.814 610 895.446 L610 849.447 L610 699.664 L610 577 Z" fill-rule="evenodd" style="fill:white;" />
    <path d="M977.573 577 L1109.43 577 C1136.81 577 1159 599.186 1159 626.554 L1159 675.686 L1083.09 675.686 L1083.09 655.325 C1083.09 645.943 1075.49 638.337 1066.1 638.337 L1020.9 638.337 C1011.51 638.337 1003.9 645.943 1003.9 655.325 L1003.9 866.676 C1003.9 876.059 1011.51 883.664 1020.9 883.664 L1066.1 883.664 C1075.49 883.664 1083.09 876.059 1083.09 866.676 L1083.09 791.002 L1056.34 791.002 L1056.34 740.816 L1149.82 740.816 L1149.82 740.816 L1159 740.816 L1159 895.446 C1159 922.814 1136.81 945 1109.43 945 L977.573 945 C950.195 945 928 922.814 928 895.446 L928 626.554 C928 599.186 950.195 577 977.573 577 Z" fill-rule="evenodd" style="fill:white;" />
    <rect x="2012" y="577" width="76" height="368" style="fill:white;" />
    <path d="M1725 577 L1973 577 L1973 652.876 L1886.92 652.876 L1886.92 945 L1811.08 945 L1811.08 652.876 L1725 652.876 L1725 577 Z" fill-rule="evenodd" style="fill:white;" />
    <path d="M1445 577 L1693 577 L1693 652.876 L1606.92 652.876 L1606.92 945 L1531.08 945 L1531.08 652.876 L1445 652.876 L1445 577 Z" fill-rule="evenodd" style="fill:white;" />
    <path d="M1332.5 698.685 L1298.4 819.613 L1366.6 819.613 L1332.5 698.685 Z M1298.18 577 L1366.82 577 L1469 945 L1401.97 945 L1384.8 884.138 L1280.2 884.138 L1263.03 945 L1196 945 L1298.18 577 Z" fill-rule="evenodd" style="fill:white;" />
    <path d="M358.593 780.556 L358.593 883.663 L426.549 883.663 C444.144 883.663 458.407 869.346 458.407 851.686 L458.407 812.534 C458.407 794.873 444.144 780.556 426.549 780.556 Z M358.593 638.338 L358.593 719.221 L421.374 719.221 C435.176 719.221 446.365 707.99 446.365 694.136 L446.365 663.423 C446.365 649.569 435.176 638.338 421.374 638.338 Z M283 577 C347.134 577 411.269 577 475.403 577.001 C501.115 577.001 521.958 597.922 521.958 623.73 L521.958 703.158 C521.958 728.966 501.115 749.888 475.403 749.888 L480.51 751.253 C511.037 757.523 534 784.635 534 817.129 L534 877.758 C534 914.895 504.007 945 467.009 945 C405.673 945 344.336 945 283 945 Z" fill-rule="evenodd" style="fill:white;" />
    <path d="M1225.82 433.015 L1225.82 477.69 L1270.55 477.69 C1282.91 477.69 1292.93 467.689 1292.93 455.352 C1292.93 443.016 1282.91 433.015 1270.55 433.015 L1225.82 433.015 Z M1277.3 366.142 L1225.82 366.253 L1225.82 396.762 L1277.3 396.762 C1285.93 396.762 1292.93 389.203 1292.93 381.158 C1292.93 373.112 1285.93 366.142 1277.3 366.142 Z M1069 330 L1296.86 330 C1323.4 330 1344.91 351.47 1344.91 377.955 C1344.91 391.197 1339.54 403.186 1330.84 411.865 L1322.72 417.329 L1329.14 421.648 C1338.88 431.376 1345.87 440.065 1344.91 459.658 C1344.91 489.345 1320.8 514 1291.05 514 L1069 513.943 L1069 451.448 L1101.42 451.448 L1101.42 477.69 L1179.25 477.69 L1179.25 433.014 L1151.82 433.014 L1151.82 446.039 L1119.41 446.039 L1119.41 383.545 L1151.82 383.545 L1151.82 396.762 L1179.25 396.762 L1179.25 366.253 L1101.42 366.253 L1101.42 392.495 L1069 392.495 L1069 330 Z" fill-rule="evenodd" />
  </g>
</svg>