<?xml version="1.0" encoding="UTF-8"?><svg id="Calque_2" xmlns="http://www.w3.org/2000/svg" width="103.65" height="116.24" viewBox="0 0 103.65 116.24"><defs><style>.cls-1{fill:#000;}.cls-1,.cls-2,.cls-3{stroke-width:0px;}.cls-2{fill:#027cf5;}.cls-4{opacity:.5;}.cls-3{fill:#fff;}</style></defs><g id="Layer_1"><path class="cls-2" d="M103.52,93.54l-10.9-70.29c-.62-4-3.42-7.31-7.26-8.59L49.31.55c-1.65-.55-3.39-.68-5.06-.42h0c-1.69,0-3.39.4-4.93,1.19L5.86,20.79c-3.6,1.85-5.86,5.56-5.86,9.6v71.13c0,5.96,4.83,10.79,10.79,10.79h7.61c2.35,2.84,6.07,4.41,9.97,3.8l24.52-3.8h24.81c3.95,0,7.39-2.12,9.27-5.29l7.52-1.17c5.89-.91,9.93-6.43,9.01-12.32h0ZM45.03,10.18c3.32.38,5.89,3.2,5.89,6.62,0,3.06-2.07,5.64-4.89,6.42-2.9-.34-5.35-2.57-5.82-5.6-.52-3.38,1.59-6.56,4.81-7.44h0Z"/><path class="cls-3" d="M16.61,61.83v-19.44h7.52c1.4,0,3.06.2,4.26,1.52.67.73,1.2,1.93,1.2,3.64,0,.85-.15,1.57-.55,2.39-.41.76-.85,1.2-1.57,1.52,1.02.12,2.04.58,2.65,1.17.79.76,1.31,2.01,1.31,3.56,0,1.84-.7,3.09-1.43,3.82-1.05,1.08-2.89,1.84-5.28,1.84,0,0-8.1,0-8.1,0ZM21.65,50.05h.93c.52,0,1.4-.06,1.92-.61.32-.32.47-.85.47-1.28,0-.5-.17-.99-.47-1.31-.32-.32-.93-.58-1.92-.58h-.93v3.79h0ZM21.65,57.9h1.14c1.4,0,2.57-.15,3.12-.79.23-.26.41-.7.41-1.25,0-.61-.2-1.11-.5-1.4-.61-.61-1.87-.64-3.12-.64h-1.05v4.08h0Z"/><path class="cls-3" d="M39.61,42.39v11.08c0,.82.03,2.07.99,3,.58.55,1.52.93,2.39.93s1.78-.35,2.33-.85c1.17-1.02,1.14-2.45,1.14-3.53v-10.64h5.04v10.73c0,2.04-.09,4.17-2.19,6.3-1.63,1.66-3.67,2.42-6.41,2.42-3.06,0-5.25-1.05-6.44-2.33-1.69-1.84-1.89-4.31-1.89-6.38v-10.73h5.04Z"/><path class="cls-3" d="M61.45,52.5l-7.03-10.12h6.04l3.67,5.31,3.53-5.31h6.12l-7.26,10.12v9.33h-5.07v-9.33Z"/><path class="cls-3" d="M10.21,90.45v-19.44h5.04l9.3,11.89v-11.89h5.04v19.44h-5.04l-9.3-11.89v11.89h-5.04Z"/><path class="cls-3" d="M47.45,88.31c-1.47,1.4-3.54,2.13-5.67,2.13s-4.21-.73-5.67-2.13c-1.53-1.47-2.26-3.47-2.26-5.37s.73-3.94,2.26-5.39c1.47-1.4,3.54-2.14,5.67-2.14s4.21.73,5.67,2.14c1.53,1.44,2.26,3.47,2.26,5.39s-.73,3.9-2.26,5.37ZM39.53,80.8c-.6.58-.89,1.4-.89,2.19,0,.99.47,1.67.89,2.07.54.52,1.29.89,2.26.89s1.72-.35,2.24-.87c.52-.52.9-1.29.9-2.14s-.39-1.64-.9-2.14c-.62-.58-1.47-.89-2.24-.89s-1.65.28-2.26.89h0Z"/><path class="cls-3" d="M55.89,68.26l3.38,15.32,4.11-10.93h4.02l3.82,10.93,2.64-10.93h5.23l-5.13,17.81h-5.16l-3.53-10.5-3.73,10.5h-5.13l-4.58-18.38h-8.99v-3.81h13.04Z"/><path class="cls-3" d="M58.95,92.77c1.59,0,2.85,1.27,2.85,2.84s-1.26,2.85-2.85,2.85-2.84-1.26-2.84-2.85,1.28-2.84,2.84-2.84Z"/><path class="cls-3" d="M71.41,92.77c1.57,0,2.84,1.27,2.84,2.84s-1.26,2.85-2.84,2.85-2.85-1.26-2.85-2.85,1.28-2.84,2.85-2.84Z"/><g class="cls-4"><path class="cls-1" d="M44.26,23.47c.62,0,1.21-.09,1.78-.25-2.9-.34-5.35-2.57-5.82-5.6-.52-3.38,1.59-6.56,4.81-7.44-.25-.03-.51-.05-.78-.05-3.68,0-6.67,2.99-6.67,6.67s2.99,6.67,6.67,6.67h0Z"/><path class="cls-1" d="M103.52,93.54l-10.9-70.29c-.62-4-3.42-7.31-7.26-8.59L49.31.55c-1.65-.55-3.39-.68-5.06-.42,1.69,0,3.39.4,4.93,1.19l33.46,19.47c3.6,1.85,5.86,5.56,5.86,9.6v71.13c0,2.01-.56,3.9-1.52,5.51l7.52-1.17c5.89-.91,9.93-6.43,9.01-12.32h0Z"/><path class="cls-1" d="M28.38,116.11l24.52-3.8H18.41c2.35,2.84,6.07,4.41,9.97,3.8Z"/></g></g></svg>