<?xml version="1.0" encoding="utf-8"?>
<!DOCTYPE svg PUBLIC "-//W3C//DTD SVG 1.1//EN" "http://www.w3.org/Graphics/SVG/1.1/DTD/svg11.dtd">
<svg version="1.1" xmlns="http://www.w3.org/2000/svg" xmlns:xlink="http://www.w3.org/1999/xlink" xmlns:xml="http://www.w3.org/XML/1998/namespace" width="988" height="121" viewBox="1.8000001, 0.9106464, 296.40002, 36.7294">
  <g transform="translate(-387.7628, -542.4384) matrix(2.333708, 0, 0, -2.333708, -444.6, 1300.954)" style="fill:#CC0000;">
    <path d="M0 0 L5.622 0 L2.785 4.457 L0 0 Z m-9.282 -6.986 l0 1.939 l1.96 0.223 c0.678 0.086 0.965 0.707 1.049 0.849 l4.884 7.95 C-0.992 4.6 -1.38 5.149 -1.891 5.206 l-2.566 0.302 l0 1.959 l11.132 0 c0.625 0 1.021 -0.425 1.276 -0.794 l6.502 -9.939 c0.512 -0.793 0.909 -1.419 1.562 -1.505 L18.061 -5 l0 -1.986 l-12.522 0 l0 1.959 l1.59 0.199 c0.767 0.084 1.392 0.426 0.767 1.363 l-0.596 0.91 l-8.89 0 l-0.681 -1.109 c-0.424 -0.68 0 -1.08 0.654 -1.164 l1.59 -0.199 l0 -1.959 l-9.255 0 z" transform="translate(466.731, 316.5616)" />
    <path d="m0 0 l-3.691 0 l0 8.915 l3.691 0 C3.52 8.915 4.998 8.09 4.998 4.457 C4.998 0.793 3.52 0 0 0 m2.213 11.668 l-14.317 0 l-0.003 -1.959 l1.794 -0.185 C-9.641 9.426 -9.37 8.943 -9.37 8.292 l0 -7.782 c0 -0.539 -0.228 -1.053 -0.823 -1.137 l-1.922 -0.25 l0 -1.902 l14.328 -0.006 c6.588 0 9.428 3.209 9.428 7.439 c0 3.805 -2.84 7.014 -9.428 7.014" transform="translate(446.9439, 312.3605)" />
    <path d="m0 0 l11.583 0 l0 1.932 l-1.985 0.226 c-0.456 0.057 -0.91 0.34 -0.91 1.309 l0 2.326 l8.916 0 l0 -2.215 c0 -0.65 -0.114 -1.277 -0.88 -1.363 l-2.017 -0.229 l0 -1.986 l11.585 0 l0 1.986 l-2.045 0.229 C23.851 2.27 23.396 2.584 23.396 3.408 l0 7.525 c0 0.767 0.283 1.278 0.879 1.334 l2.017 0.227 l0 1.959 l-11.585 0 l0 -1.931 l2.017 -0.255 c0.681 -0.085 0.88 -0.625 0.88 -1.334 l0 -2.243 l-8.916 0 l0 2.271 c0 0.852 0.341 1.25 0.937 1.306 l1.958 0.227 l0 1.959 l-11.556 0 l0 -1.959 l1.932 -0.227 c0.768 -0.085 0.965 -0.653 0.937 -1.392 l0 -7.324 C2.896 2.727 2.669 2.242 1.931 2.158 L0 1.932 L0 0 Z" transform="translate(357.0982, 309.5753)" />
    <path d="m0 0 c-3.292 0 -5.167 -1.222 -5.167 -4.969 c0 -3.804 1.875 -5.029 5.167 -5.029 c3.294 0 5.169 1.225 5.169 5.029 C5.169 -1.222 3.294 0 0 0 m-11.81 -4.941 c0 4.542 3.663 7.723 11.839 7.723 c8.122 0 11.785 -3.181 11.785 -7.723 c0 -4.657 -3.663 -7.809 -11.785 -7.809 c-8.176 0 -11.839 3.152 -11.839 7.809" transform="translate(395.7701, 321.8155)" />
    <path d="m0 0 l9.257 0 l0 1.932 l-1.989 0.226 C6.699 2.215 6.359 2.693 6.359 3.352 l0 7.354 l7.697 -10.138 C14.309 0.227 14.792 0 15.246 0 l7.269 0 l0 10.961 c0 0.514 0.137 1.218 0.881 1.306 l2.014 0.227 l0 1.959 l-9.255 0 l0 -1.931 l2.017 -0.255 c0.712 -0.086 0.879 -0.681 0.879 -1.362 l0 -7.157 l-7.638 10.081 c-0.283 0.369 -0.652 0.624 -1.192 0.624 L0 14.453 L0 12.494 L1.93 12.267 C2.61 12.166 2.867 11.82 2.867 10.875 l0 -7.324 C2.867 2.682 2.63 2.264 1.901 2.158 L0 1.932 L0 0 Z" transform="translate(408.2291, 309.5753)" />
  </g>
</svg>