<?xml version="1.0" encoding="UTF-8"?><svg id="Calque_2" xmlns="http://www.w3.org/2000/svg" width="157.88" height="87.62" viewBox="0 0 157.88 87.62"><defs><style>.cls-1{fill:#027cf5;}.cls-1,.cls-2,.cls-3{stroke-width:0px;}.cls-4,.cls-3{isolation:isolate;}.cls-2{fill:#fff;}.cls-3{fill:#000;mix-blend-mode:multiply;opacity:.5;}</style></defs><g id="Calque_1-2"><g class="cls-4"><g id="Layer_1"><path class="cls-1" d="M156.01,35.04c-2.66-4.8-5.17-9.69-8.05-14.36-1.2-1.95-3.02-3.65-4.86-5.07-3.56-2.74-7.8-3.51-12.21-3.48-3.02.02-6.04,0-9.04,0-.13-.48-.22-.72-.27-.96-1.09-6.41-5.2-10.22-11.67-10.62-4.56-.28-9.14-.49-13.71-.49C69.53,0,42.85,0,16.18,0c-3.42,0-5.74,2.17-5.73,5.29,0,3.14,2.27,5.2,5.77,5.23,3.29.02,6.58-.02,9.87.01,3.05.03,5.35,2.28,5.37,5.2.03,2.96-2.15,5.2-5.24,5.31-1.74.06-3.51-.11-5.24.06-1.18.12-2.46.43-3.46,1.04-1.9,1.17-2.61,3.59-1.97,5.71.66,2.18,2.5,3.62,4.94,3.73,2,.09,4.01-.01,6.01.08,2.28.11,3.86,1.32,4.64,3.46,1.31,3.56-1.29,7.01-5.36,7.04-6.42.05-12.85.12-19.27-.03-3.09-.07-5.27.95-6.52,3.8v3.08c1.42,2.9,3.78,3.79,6.92,3.72,6.37-.14,12.74-.06,19.12-.04,3.16.01,5.44,2.27,5.42,5.28-.02,2.92-2.3,5.16-5.35,5.21-1.95.04-3.91,0-5.86.01-3.44.01-5.77,2.14-5.77,5.25,0,3.13,2.3,5.25,5.75,5.26,6.01,0,12.03-.08,18.04.05,1.75.04,2.49-.52,3.07-2.11,2.38-6.49,7.12-10.57,13.62-12.57,9.15-2.81,17.95,1.86,20.1,10.59.41,1.66.45,3.42.67,5.16h31.09c.08-.26.14-.46.2-.65,2.69-8.93,8.58-14.29,17.82-15.74,8.16-1.29,15.55,4.04,17.11,12.17.2,1.04.26,2.11.39,3.22,2.98.07,5.39-1.02,7.38-3.04,2.71-2.75,4.31-6.14,5.06-9.87,1.02-5.08,1.8-10.21,2.78-15.3.72-3.73.3-7.25-1.55-10.58h0ZM144.46,41.11c-4.73.06-9.46.02-14.18.02-3.34,0-6.68,0-10.02,0-.55,0-1.1-.05-1.77-.08.92-7.27,1.82-14.39,2.76-21.8,4.25.18,8.47.11,12.62.62,3.33.4,6.01,2.39,7.78,5.3,2.1,3.46,4.12,6.98,6.05,10.54,1.5,2.77-.07,5.36-3.24,5.4h0Z"/><path class="cls-1" d="M59.27,64.4c-6.62,0-12.74,5.61-13.29,12.2-.52,6.21,3.88,10.99,10.11,10.99,6.18,0,11.79-4.7,13.1-10.99,1.36-6.58-3.2-12.2-9.91-12.2Z"/><path class="cls-1" d="M126.16,64.41c-6.94-.05-13.07,5.66-13.54,12.6-.36,5.26,3.37,9.85,8.54,10.52,7.56.98,14.91-5.5,14.9-13.15,0-5.7-4.21-9.93-9.9-9.97h0Z"/><path class="cls-1" d="M6.93,31.72c2.89,0,5.28-2.41,5.26-5.32-.02-2.93-2.37-5.22-5.34-5.19-2.87.03-5.16,2.32-5.19,5.19-.03,2.89,2.37,5.31,5.26,5.32h0Z"/><path class="cls-3" d="M59.27,64.4c-6.62,0-12.74,5.61-13.29,12.2-.52,6.21,3.88,10.99,10.11,10.99,6.18,0,11.79-4.7,13.1-10.99,1.36-6.58-3.2-12.2-9.91-12.2Z"/><path class="cls-3" d="M126.16,64.41c-6.94-.05-13.07,5.66-13.54,12.6-.36,5.26,3.37,9.85,8.54,10.52,7.56.98,14.91-5.5,14.9-13.15,0-5.7-4.21-9.93-9.9-9.97h0Z"/><path class="cls-2" d="M41.11,24.37h13.96l-.76,3.5h-9.77l-1.09,5.33h9.13l-.76,3.47h-9.13l-1.8,8.58h-4.22l4.43-20.89Z"/><path class="cls-2" d="M60.81,36.74l-1.8,8.51h-4.24l4.43-20.89h7.95c3.99,0,6.36,2.03,6.36,5.46,0,2.88-1.73,4.77-4.29,5.46.84.4,2.46,1.43,1.73,4.98-.51,2.44-.86,4.01-.72,4.99h-4.07c-.12-.91.05-2.42.6-5,.49-2.28.08-3.51-2.21-3.51,0,0-3.76,0-3.76,0ZM61.51,33.32h3.51c2.44,0,4.14-.86,4.14-3.07,0-1.58-.89-2.47-3.02-2.47h-3.46s-1.17,5.54-1.17,5.54Z"/><path class="cls-2" d="M90.6,36.12h-9.4l-1.19,5.63h10.7l-1.24,3.5h-14.4l4.43-20.89h14.03l-.75,3.5h-9.82l-1,4.75h9.4l-.76,3.5h0Z"/><path class="cls-2" d="M109.29,36.12h-9.4l-1.19,5.63h10.7l-1.24,3.5h-14.4l4.43-20.89h14.03l-.75,3.5h-9.82l-1,4.75h9.4l-.76,3.5h0Z"/></g></g></g></svg>