<?xml version="1.0" encoding="UTF-8"?>
<svg id="Calque_2" data-name="Calque 2" xmlns="http://www.w3.org/2000/svg" viewBox="0 0 587.2 165.57">
  <defs>
    <style>
      .cls-1 {
        fill: #3f3f3f;
      }

      .cls-1, .cls-2, .cls-3 {
        stroke-width: 0px;
      }

      .cls-2 {
        fill: #ffad29;
      }

      .cls-3 {
        fill: #fff;
      }
    </style>
  </defs>
  <g id="Calque_1-2" data-name="Calque 1">
    <g>
      <path class="cls-3" d="m103.75,4.26h379.75c9.08,0,16.44,7.37,16.44,16.44v59.56H87.3V20.71c0-9.08,7.37-16.44,16.44-16.44Z"/>
      <g>
        <path class="cls-1" d="m191.49,61.65h-23.56V27.28h23.56v6.88h-16.68v6.88h11.29v6.88h-11.29v6.86h16.68v6.88Z"/>
        <path class="cls-1" d="m223.01,61.65h-8.34l-6.62-11.1-6.64,11.1h-8.29l10.55-17.19-10.55-17.19h8.29l6.64,11.1,6.62-11.1h8.34l-10.55,17.19,10.55,17.19Z"/>
        <path class="cls-1" d="m252.62,58.13c-1.6,1.37-3.39,2.43-5.37,3.16-1.98.73-4.04,1.1-6.16,1.1-1.63,0-3.2-.21-4.71-.64-1.51-.42-2.92-1.02-4.24-1.8-1.32-.78-2.52-1.71-3.61-2.79-1.09-1.09-2.02-2.29-2.79-3.61s-1.37-2.73-1.8-4.24c-.42-1.51-.63-3.08-.63-4.71s.21-3.2.63-4.72c.42-1.52,1.02-2.94,1.8-4.25s1.71-2.52,2.79-3.61,2.29-2.02,3.61-2.79,2.73-1.37,4.24-1.8c1.51-.42,3.08-.64,4.71-.64,2.13,0,4.18.36,6.16,1.09,1.98.73,3.77,1.79,5.37,3.18l-3.64,5.99c-1.01-1.09-2.2-1.92-3.57-2.5-1.38-.58-2.81-.88-4.32-.88s-2.94.29-4.27.86-2.48,1.35-3.48,2.34c-.99.98-1.77,2.14-2.35,3.48s-.86,2.75-.86,4.25.29,2.91.86,4.23,1.36,2.47,2.35,3.46,2.15,1.77,3.48,2.35,2.75.86,4.27.86,2.94-.29,4.32-.87c1.37-.58,2.56-1.42,3.57-2.5l3.64,5.99Z"/>
        <path class="cls-1" d="m280.16,61.65h-23.56V27.28h23.56v6.88h-16.68v6.88h11.29v6.88h-11.29v6.86h16.68v6.88Z"/>
        <path class="cls-1" d="m309.04,61.65h-24.07V27.28h6.88v27.49h17.19v6.88Z"/>
        <path class="cls-1" d="m336.68,61.65h-24.07V27.28h6.88v27.49h17.19v6.88Z"/>
        <path class="cls-1" d="m363.81,61.65h-23.56V27.28h23.56v6.88h-16.68v6.88h11.29v6.88h-11.29v6.86h16.68v6.88Z"/>
        <path class="cls-1" d="m396.12,61.65h-7.36l-13.25-22.63v22.63h-6.88V27.28h7.36l13.25,22.65v-22.65h6.88v34.37Z"/>
        <path class="cls-1" d="m416.93,61.65h-6.86v-27.49h-10.33v-6.88h27.49v6.88h-10.31v27.49Z"/>
      </g>
      <path class="cls-1" d="m547.88,94.36l38-42.13h-81.68l-.04,28.07-420.99-.08.03-27.97-81.26-.06,36.84,43.13L0,138.01h81.78v27.56h423.73v-27.79h81.68l-39.32-43.41Z"/>
      <path class="cls-2" d="m83.2,80.26h4.1V20.71c0-9.08,7.35-16.44,16.42-16.44h379.81c9.07,0,16.42,7.36,16.42,16.44v59.56h4.25V20.71c0-11.42-9.27-20.71-20.67-20.71H103.72c-11.4,0-20.67,9.29-20.67,20.71l.15,59.55Z"/>
      <polygon class="cls-2" points="141.21 138.3 122.84 151.08 129.32 129.66 111.49 116.14 133.86 115.69 141.21 94.55 148.55 115.69 170.93 116.14 153.1 129.66 159.58 151.08 141.21 138.3"/>
      <polygon class="cls-2" points="217.21 138.3 198.84 151.08 205.32 129.66 187.49 116.14 209.86 115.69 217.21 94.55 224.55 115.69 246.93 116.14 229.1 129.66 235.58 151.08 217.21 138.3"/>
      <polygon class="cls-2" points="293.21 138.3 274.84 151.08 281.32 129.66 263.49 116.14 285.86 115.69 293.21 94.55 300.55 115.69 322.93 116.14 305.1 129.66 311.58 151.08 293.21 138.3"/>
      <polygon class="cls-2" points="369.21 138.3 350.84 151.08 357.32 129.66 339.49 116.14 361.86 115.69 369.21 94.55 376.55 115.69 398.93 116.14 381.1 129.66 387.58 151.08 369.21 138.3"/>
      <path class="cls-2" d="m445.21,103.69l4.51,12.98.69,1.97,2.09.04,13.74.28-10.95,8.3-1.66,1.26.6,2,3.98,13.16-11.28-7.85-1.71-1.19-1.71,1.19-11.28,7.85,3.98-13.16.6-2-1.66-1.26-10.95-8.3,13.74-.28,2.09-.04.69-1.97,4.51-12.98m0-9.14l-7.35,21.14-22.37.46,17.83,13.52-6.48,21.42,18.37-12.78,18.37,12.78-6.48-21.42,17.83-13.52-22.37-.46-7.35-21.14h0Z"/>
      <polygon class="cls-2" points="445.21 138.3 445.21 94.55 437.86 115.69 415.49 116.14 433.32 129.66 426.84 151.08 445.21 138.3"/>
    </g>
  </g>
</svg>