<?xml version="1.0" encoding="UTF-8"?><svg width="188" height="114" id="Calque_2" xmlns="http://www.w3.org/2000/svg" viewBox="0 0 94.74 57.7"><defs><style>.cls-1,.cls-2,.cls-3{stroke-width:0px;}.cls-2{fill:#f440af;}.cls-3{fill:#fff;}</style></defs><g id="_05_Bubble"><path class="cls-1" d="m38.82,47.91c-2.69-.16-5.35-.43-7.92-.78-5.87-.83-13.92-1.95-19.73-5.67-1.74-1.11-3.3-2.49-4.63-4.07.99.97,2.09,1.85,3.3,2.62,5.6,3.58,13.2,4.74,19.68,5.65,3.17.44,6.36.73,9.57.88-.05.47-.15.92-.27,1.37Z"/><path class="cls-1" d="m93.31,30.11c-5.45,12.37-23.38,16.39-37.47,17.58-1.04.09-2.11.17-3.26.23-.95,3.25-3.35,6.14-6.62,7.96-2.16,1.2-4.53,1.82-6.83,1.82-1.14,0-2.27-.15-3.34-.46-.23-.06-.4-.24-.46-.47-.06-.22,0-.45.17-.62.03-.03.06-.06.1-.1,6.61,1.18,13.71-3.35,15.47-9.59,1.12-.07,2.24-.14,3.35-.24,12.58-1.06,31.69-4.64,37.36-17.5,3.27-7.43.65-17.7-5.53-23.38,2.61,1.92,4.82,4.68,6.35,8.02,2.59,5.63,2.85,11.89.71,16.75Z"/><path class="cls-2" d="m91.78,28.72c-5.67,12.86-24.78,16.44-37.36,17.5-1.11.1-2.23.17-3.35.24-1.76,6.24-8.86,10.77-15.47,9.59-.39-.07-.79-.17-1.18-.28-.38-.1-.51-.57-.23-.85,2.07-2.06,3.9-4.37,4.63-7.01.12-.45.22-.9.27-1.37-3.21-.15-6.4-.44-9.57-.88-6.48-.91-14.08-2.07-19.68-5.65-1.21-.77-2.31-1.65-3.3-2.62-.03-.03-.06-.05-.08-.08C-1.25,29.7-2.24,16.68,4.5,7.88,9.06,1.93,15.3-.81,22.91.21c7.78,1.04,15.17,2.93,22.86,3.18,4.34-.03,8.7-.42,13.04-.92,6.7-.78,14.67-2.72,21.32-.7,2.29.7,4.35,1.95,6.12,3.57,6.18,5.68,8.8,15.95,5.53,23.38Z"/><path class="cls-3" d="m19.56,4.42c-4.55-1.47-12.58,1.47-13.9,6.49-.02.09.1.17.17.09,3.64-4.42,8.07-5.98,13.69-6.29.17,0,.2-.24.04-.29Z"/><path class="cls-3" d="m22.07,4.74c.23-.05.23-.36.05-.47-.4-.25-1.02-.18-1.29.2-.04.06,0,.18.08.19.37.05.78.16,1.16.08Z"/><path class="cls-3" d="m89.22,27.78c-3.31,4.48-6.49,7.82-11.46,10.46-4.12,2.2-8.69,3.21-12.88,5.18-.09.04-.02.16.06.14,8.74-1.59,21.34-6.49,24.49-15.69.05-.14-.14-.18-.21-.09Z"/><path class="cls-3" d="m31.33,43.34c-3.63-.99-7.45-1.17-11.13-1.96-4.47-.96-8.38-2.88-12.19-5.33-.05-.04-.11.04-.07.09,5.57,5.71,15.65,7.7,23.37,7.41.11,0,.13-.17.02-.2Z"/><path class="cls-3" d="m49.27,46.76c-.73.87-1.39,1.79-2.14,2.64-.82.93-1.86,1.58-2.75,2.42-.05.05-.01.16.07.15,1.2-.12,2.19-.98,3.02-1.79.96-.93,1.74-2,1.98-3.32.02-.1-.11-.2-.19-.11Z"/><path class="cls-3" d="m43.39,52.4c-.35,0-.7.21-.83.55-.03.07.03.15.1.17.32.08.68-.06.92-.27.17-.16.03-.44-.19-.44Z"/></g></svg>
