<?xml version="1.0" encoding="UTF-8"?><svg id="Calque_2" xmlns="http://www.w3.org/2000/svg" width="140.99" height="42.29" viewBox="0 0 140.99 42.29"><defs><style>.cls-1{fill:#e62e2e;}.cls-1,.cls-2{stroke-width:0px;}.cls-2{fill:#fff;}</style></defs><g id="Layer_1"><polygon class="cls-1" points="127.99 42.29 0 42.29 0 0 127.99 0 140.99 21.15 127.99 42.29"/><path class="cls-2" d="M15.98,27.14v-13.45h2.71l3.83,8.73h.09l3.83-8.73h2.69v13.45h-2.4v-8.95h-.13l-3.18,7.26h-1.74l-3.2-7.26h-.13v8.95h-2.38Z"/><path class="cls-2" d="M41.2,27.14h-8.66v-13.45h8.66v2.18h-6.02v3.45h5.67v2.04h-5.67v3.61h6.02s0,2.18,0,2.18Z"/><path class="cls-2" d="M52.03,17.72c-.07-.31-.17-.59-.32-.84s-.34-.46-.57-.65-.49-.32-.8-.42-.64-.15-1.01-.15c-.96,0-1.7.34-2.23,1.01s-.79,1.63-.79,2.86v1.68c0,.79.11,1.48.33,2.07s.56,1.05,1.02,1.39,1.04.5,1.75.5c.62,0,1.13-.11,1.54-.33s.71-.51.92-.88.31-.78.31-1.22v-.86h-2.77v-1.98h5.3v2.68c0,.65-.11,1.27-.32,1.85s-.54,1.1-.99,1.54-.99.8-1.66,1.05-1.45.38-2.35.38c-.97,0-1.81-.15-2.53-.45s-1.32-.72-1.8-1.27-.84-1.2-1.07-1.95-.36-1.59-.36-2.5v-1.71c0-1.22.22-2.28.68-3.19.45-.91,1.1-1.62,1.96-2.13.86-.51,1.89-.76,3.11-.76.8,0,1.52.11,2.14.33s1.17.53,1.61.93.8.85,1.06,1.36.41,1.07.47,1.66h-2.61Z"/><path class="cls-2" d="M56.25,27.14l4.51-13.45h3.11l4.5,13.45h-2.83l-1.06-3.46h-4.5l-1.06,3.46h-2.69,0ZM62.2,16.26l-1.65,5.44h3.41l-1.65-5.44h-.12Z"/><path class="cls-2" d="M87.64,24.24c-.25-.46-.63-.88-1.13-1.25-.5-.37-1.06-.67-1.69-.89s-1.28-.39-1.96-.5c-2.02-.3-3.91-.96-5.66-1.97-.15-.08-.31-.25-.48-.51-.17-.26-.25-.51-.25-.75,0-.88.15-1.76.44-2.65.29-.89.67-1.58,1.13-2.08.74-.83,2.08-1.56,4-2.18,1.93-.62,4.1-.93,6.51-.93,1.44,0,2.56.11,3.34.33s1.18.56,1.18,1.02c0,.75-.1,1.33-.31,1.74-.21.41-.43.68-.66.82-.24.14-.65.32-1.24.55-.63.22-1.18.45-1.64.69-.47.24-.86.47-1.19.69-.33.22-.54.33-.61.33-.1,0-.15-.04-.15-.12,0-.17.18-.43.53-.78.35-.35.79-.65,1.31-.91.55-.29.83-.48.83-.56,0-.13-.31-.2-.92-.2-1.85,0-3.57.17-5.14.5-1.57.33-2.81.77-3.72,1.31-.91.54-1.36,1.09-1.36,1.65,0,.35.19.6.56.74.38.14,1.2.39,2.49.73s2.43.73,3.44,1.17c1.45.62,2.53,1.27,3.23,1.94.7.67,1.05,1.42,1.05,2.25,0,.57-.14,1.14-.41,1.72s-.68,1.1-1.21,1.58c-.53.48-1.14.88-1.83,1.19-.59.25-1.33.49-2.23.71-.9.22-1.87.39-2.91.52-1.05.12-2.05.19-3,.19-1.75,0-3.16-.17-4.23-.5-1.07-.33-1.6-.83-1.6-1.5,0-.3.18-.77.54-1.4s.79-1.06,1.28-1.28c.43-.17.85-.27,1.25-.29.4-.03.6.02.6.14,0,.03-.02.06-.05.09s-.07.06-.11.07-.08.04-.12.06c-.2.08-.36.14-.49.19-.12.04-.23.09-.3.14-.07.04-.11.11-.11.19,0,.21,1.04.32,3.11.32,1.8,0,3.28-.07,4.43-.2,1.15-.13,2.17-.36,3.05-.71s1.68-.81,2.4-1.41h0Z"/><path class="cls-2" d="M93.72,21.15c1.52-1.38,3-2.41,4.43-3.08,1.43-.67,2.54-1.01,3.32-1.01.21,0,.41.09.59.26s.32.38.43.61c.11.23.16.4.16.51,0,.18-.07.31-.21.4-.14.09-.39.19-.74.31.07.16.16.37.27.61.11.25.2.45.26.61.06.15.09.29.09.41,0,.24-.24.69-.73,1.35-.49.65-.83,1.14-1.02,1.45-.2.31-.29.69-.29,1.14,0,.74.34,1.11,1.02,1.11s1.8-.65,3.29-1.97v.92c-2.54,2.81-4.35,4.22-5.44,4.22-.39,0-.67-.13-.83-.38s-.25-.63-.25-1.14c0-.79.29-1.94.86-3.44-1.46,1.62-2.55,2.78-3.26,3.46s-1.3,1.03-1.76,1.03c-.22,0-.5-.19-.83-.57s-.62-.87-.88-1.48-.38-1.23-.38-1.89c0-.47.05-.86.14-1.18s.26-.64.53-.97c.26-.33.68-.77,1.25-1.31h0ZM100.91,19.5c-2.6,1.19-4.46,2.2-5.56,3.03-1.11.83-1.66,1.69-1.66,2.57,0,.32.06.58.17.79.11.21.26.31.45.31.11,0,.31-.07.59-.21,1.05-.62,2.01-1.43,2.89-2.43.87-1,1.92-2.35,3.14-4.06h0Z"/><path class="cls-2" d="M111.62,23.68v1.11c-2.09,2.77-3.79,4.16-5.11,4.16-.71,0-1.27-.39-1.68-1.16s-.61-1.8-.61-3.06c0-1.02.24-2.24.72-3.64.48-1.41,1.12-2.83,1.93-4.28.81-1.45,1.64-2.71,2.51-3.79.87-1.08,1.67-1.83,2.41-2.26.3-.18.54-.27.71-.27.21,0,.35.09.42.28.07.19.1.5.1.95,0,1.39-.57,3.1-1.7,5.13s-2.71,4.1-4.73,6.21c-.1.52-.15.92-.15,1.2,0,.64.14,1.16.41,1.56s.66.6,1.15.6c.25,0,.52-.1.81-.29.29-.2.6-.44.92-.73.32-.29.95-.87,1.88-1.73h0ZM107.13,20.98c.52-.51,1.02-1.09,1.51-1.74.49-.65.94-1.35,1.38-2.09.43-.74.77-1.41,1.01-2,.24-.59.37-1.04.37-1.34,0-.23-.08-.35-.24-.35-.06,0-.18.06-.35.17-.61.5-1.3,1.48-2.06,2.94-.76,1.46-1.3,2.93-1.62,4.41h0Z"/><path class="cls-2" d="M113.89,24.38v.38c0,.59.15,1.05.43,1.38s.67.5,1.14.5,1-.11,1.52-.35,1.05-.54,1.57-.92,1.16-.89,1.91-1.53v.92c-1.13,1.36-2.19,2.41-3.18,3.13-.99.73-2,1.09-3.02,1.09-.89,0-1.6-.35-2.12-1.04-.52-.69-.78-1.64-.78-2.84,0-1.05.25-2,.74-2.86.49-.86,1.29-1.76,2.4-2.71.76-.65,1.52-1.14,2.27-1.47s1.42-.5,2.01-.5c.47,0,.84.11,1.12.32s.41.54.41.97c0,.63-.24,1.26-.71,1.89-.47.63-1.19,1.25-2.16,1.86-.97.62-2.16,1.21-3.57,1.78h0ZM114.04,23.41c.9-.35,1.67-.79,2.31-1.31.64-.52,1.11-1.02,1.42-1.5.3-.47.46-.82.46-1.04s-.1-.35-.32-.35c-.18,0-.47.11-.88.35-.41.23-.82.53-1.23.9-.42.37-.79.81-1.12,1.31-.33.5-.55,1.05-.65,1.64h0Z"/></g></svg>