<?xml version="1.0" encoding="UTF-8"?><svg id="Calque_2" xmlns="http://www.w3.org/2000/svg" width="116.45" height="116.45" viewBox="0 0 116.45 116.45"><defs><style>.cls-1{fill:#027cf5;}.cls-1,.cls-2{stroke-width:0px;}.cls-2{fill:#fff;}</style></defs><g id="Layer_1"><path class="cls-1" d="M60.39,1.23l3.87,6.49c.81,1.35,2.64,1.64,3.83.61l5.68-4.97c1.44-1.26,3.7-.52,4.12,1.34l1.68,7.37c.35,1.54,2.01,2.38,3.46,1.76l6.94-2.97c1.76-.75,3.68.65,3.51,2.55l-.68,7.52c-.14,1.57,1.17,2.88,2.74,2.74l7.52-.68c1.9-.17,3.3,1.75,2.55,3.51l-2.98,6.94c-.62,1.45.22,3.11,1.76,3.46l7.37,1.68c1.86.42,2.6,2.68,1.34,4.12l-4.98,5.68c-1.04,1.19-.75,3.02.61,3.83l6.49,3.87c1.64.98,1.64,3.36,0,4.33l-6.49,3.87c-1.35.81-1.64,2.64-.61,3.83l4.98,5.68c1.26,1.44.52,3.7-1.34,4.12l-7.37,1.68c-1.54.35-2.38,2.01-1.76,3.46l2.98,6.94c.75,1.76-.65,3.68-2.55,3.51l-7.52-.68c-1.57-.14-2.88,1.17-2.74,2.74l.68,7.52c.17,1.9-1.75,3.3-3.51,2.55l-6.94-2.98c-1.45-.62-3.11.22-3.46,1.76l-1.68,7.37c-.42,1.86-2.68,2.6-4.12,1.34l-5.68-4.98c-1.19-1.04-3.02-.75-3.83.61l-3.87,6.49c-.98,1.64-3.36,1.64-4.33,0l-3.87-6.49c-.81-1.35-2.64-1.64-3.83-.61l-5.68,4.98c-1.44,1.26-3.7.52-4.12-1.34l-1.68-7.37c-.35-1.54-2.01-2.38-3.46-1.76l-6.94,2.98c-1.76.75-3.68-.65-3.51-2.55l.68-7.52c.14-1.57-1.17-2.88-2.74-2.74l-7.52.68c-1.9.17-3.3-1.75-2.55-3.51l2.97-6.94c.62-1.45-.22-3.11-1.76-3.46l-7.37-1.68c-1.86-.42-2.6-2.68-1.34-4.12l4.97-5.68c1.04-1.19.75-3.02-.61-3.83l-6.49-3.87c-1.64-.98-1.64-3.36,0-4.33l6.49-3.87c1.35-.81,1.64-2.64.61-3.83l-4.97-5.68c-1.26-1.44-.52-3.7,1.34-4.12l7.37-1.68c1.54-.35,2.38-2.01,1.76-3.46l-2.97-6.94c-.75-1.76.65-3.68,2.55-3.51l7.52.68c1.57.14,2.88-1.17,2.74-2.74l-.68-7.52c-.17-1.9,1.75-3.3,3.51-2.55l6.94,2.97c1.45.62,3.11-.22,3.46-1.76l1.68-7.37c.42-1.86,2.68-2.6,4.12-1.34l5.68,4.97c1.19,1.04,3.02.75,3.83-.61l3.87-6.49c.98-1.64,3.36-1.64,4.33,0Z"/><polygon class="cls-2" points="30.71 39.18 27.45 39.18 27.45 50.25 35.05 50.25 35.05 47.67 30.71 47.67 30.71 39.18"/><rect class="cls-2" x="36.27" y="39.18" width="3.25" height="11.07"/><polygon class="cls-2" points="47.32 45.77 47.26 45.77 44.82 39.18 41.06 39.18 41.06 50.25 43.9 50.25 43.9 43.84 43.95 43.84 46.42 50.25 48.16 50.25 50.63 43.84 50.68 43.84 50.68 50.25 53.52 50.25 53.52 39.18 49.76 39.18 47.32 45.77"/><rect class="cls-2" x="55.06" y="39.18" width="3.25" height="11.07"/><polygon class="cls-2" points="62.33 50.25 65.59 50.25 65.59 41.76 68.5 41.76 68.5 39.18 59.42 39.18 59.42 41.76 62.33 41.76 62.33 50.25"/><polygon class="cls-2" points="69.61 50.25 77.42 50.25 77.42 47.67 72.86 47.67 72.86 45.92 77.14 45.92 77.14 43.52 72.86 43.52 72.86 41.76 77.42 41.76 77.42 39.18 69.61 39.18 69.61 50.25"/><path class="cls-2" d="M88.37,41.64c-.42-.81-1.03-1.42-1.82-1.83-.8-.41-1.75-.62-2.87-.62h-4.73v11.07h4.73c1.12,0,2.08-.22,2.87-.66s1.4-1.08,1.82-1.92c.42-.84.63-1.85.63-3.03h0c0-1.2-.21-2.19-.63-3ZM85.69,44.64c0,.68-.09,1.24-.28,1.69s-.46.78-.83,1c-.37.22-.82.33-1.36.33h-1.02v-5.9h1.02c.52,0,.96.11,1.33.33s.65.54.85.96c.2.42.3.95.3,1.57v.02Z"/><polygon class="cls-2" points="21.76 62.43 27.53 62.43 27.53 79.27 33.98 79.27 33.98 62.43 39.76 62.43 39.76 57.32 21.76 57.32 21.76 62.43"/><rect class="cls-2" x="41.97" y="57.32" width="6.45" height="21.95"/><polygon class="cls-2" points="63.87 70.39 63.76 70.39 58.91 57.32 51.46 57.32 51.46 79.27 57.09 79.27 57.09 66.55 57.19 66.55 62.09 79.27 65.54 79.27 70.45 66.55 70.55 66.55 70.55 79.27 76.17 79.27 76.17 57.32 68.72 57.32 63.87 70.39"/><polygon class="cls-2" points="79.22 79.27 94.7 79.27 94.7 74.16 85.66 74.16 85.66 70.67 94.14 70.67 94.14 65.93 85.66 65.93 85.66 62.43 94.7 62.43 94.7 57.32 79.22 57.32 79.22 79.27"/></g></svg>