<?xml version="1.0" encoding="UTF-8"?><svg id="Calque_2" xmlns="http://www.w3.org/2000/svg" width="143.61" height="112.51" viewBox="0 0 143.61 112.51"><defs><style>.cls-1{fill:#087534;}.cls-1,.cls-2,.cls-3,.cls-4{stroke-width:0px;}.cls-2{fill:#1c1c1c;}.cls-3{fill:#fcca22;}.cls-4{fill:#fff;}</style></defs><g id="Layer_1"><path class="cls-1" d="M143.6,17.22c-.23,3.56-3.41,6.29-6.87,6.07l-14.11-.93-10.89,50.84c-1.84,8.3-6.76,13.1-15.25,12.54l-59.62-3.92c-3.14-.21-5.78-2.65-5.54-6.15.23-3.45,3.16-5.53,6.3-5.33l58.03,3.82c1.75.11,2.92-1.05,3.29-2.89l1.11-5.15-62.82-4.13c-8.44-.56-12.74-5.91-13.42-14.54l-1.9-23.75c-.05-.73-.15-1.72-.1-2.44.25-3.81,2.95-6.32,7.64-6.01l80.12,5.27.89-4.03c1.12-5.2,3.71-7.72,10.2-7.3l16.94,1.11c3.46.23,6.24,3.36,6.01,6.91h0ZM100.92,103.15c-.37,5.56-5.14,9.7-10.59,9.34-5.57-.37-9.7-5.09-9.33-10.65.36-5.51,5.08-9.65,10.65-9.28,5.45.36,9.64,5.09,9.28,10.59h0ZM54.27,100.08c-.37,5.56-5.14,9.7-10.64,9.34-5.51-.36-9.65-5.09-9.28-10.65.36-5.51,5.08-9.65,10.59-9.29,5.51.36,9.69,5.09,9.33,10.6h0Z"/><path class="cls-3" d="M85.24,6.35L15.27,0C11-.17,7.14,2.54,5.83,6.61L.46,23.43c-2,6.26,2.81,12.61,9.37,12.39l75.34-6.06c5.12-.17,9.18-4.37,9.18-9.5v-4.41c0-5.1-4.02-9.29-9.12-9.49h0Z"/><path class="cls-2" d="M17.38,7.33c1.24.06,1.85.09,3.09.15,1.74,8,2.62,11.92,4.37,19.59-1.11.05-1.66.08-2.77.14-.37-1.89-.56-2.84-.93-4.74-1.77.04-2.66.07-4.43.11-.37,1.97-.56,2.95-.93,4.94-1.1.05-1.65.08-2.76.14,1.74-8.3,2.61-12.36,4.36-20.32h0ZM17.31,19.41l3.23-.03c-.61-3.17-.92-4.77-1.53-7.99-.06,0-.09,0-.16,0-.62,3.19-.92,4.79-1.54,8.02h0Z"/><path class="cls-2" d="M27.33,7.82c1.98.1,2.96.15,4.94.24,3.73.18,5.89,3.53,5.89,9.19v.03c0,5.84-2.13,9.24-5.89,9.43-1.98.1-2.96.15-4.94.24V7.82h0ZM31.85,23.5c2.32-.08,3.63-2.25,3.63-6.16v-.03c0-3.77-1.35-5.98-3.63-6.05-.76-.02-1.14-.04-1.9-.06v12.36l1.9-.06Z"/><path class="cls-2" d="M41.01,8.49c1.98.1,2.96.15,4.94.24,3.73.18,5.89,3.29,5.89,8.53v.02c0,5.4-2.13,8.57-5.89,8.75-1.98.1-2.96.14-4.94.24V8.49h0ZM45.53,23.06c2.32-.08,3.63-2.1,3.63-5.72v-.02c0-3.5-1.35-5.54-3.63-5.62-.76-.02-1.14-.04-1.9-.06v11.48c.76-.02,1.14-.04,1.9-.06Z"/><path class="cls-2" d="M62.69,12.26c-1.51-.05-2.26-.07-3.77-.12v-2.77c4.06.2,6.1.3,10.16.5v2.59c-1.51-.05-2.26-.07-3.77-.12v12.75c-1.05.05-1.58.08-2.63.13v-12.96h0Z"/><path class="cls-2" d="M70.77,17.39v-.02c0-4.81,2.35-7.68,6.04-7.49,3.7.19,6.04,3.07,6.04,7.49v.02c0,4.42-2.33,7.31-6.04,7.5-3.73.19-6.04-2.7-6.04-7.5ZM80.18,17.39v-.02c0-2.96-1.32-4.89-3.36-4.96-2.04-.07-3.37,1.86-3.37,4.96v.02c0,3.09,1.3,5.04,3.37,4.97,2.04-.07,3.36-2.02,3.36-4.97Z"/><path class="cls-4" d="M40.4,44.92v-.02c0-4.44,2.71-7.34,7.11-7.61,3.59-.22,6.28,1.92,6.58,5.13v.13c-1.24.02-1.85.03-3.09.06v-.07c-.33-1.67-1.68-2.74-3.49-2.67-2.38.1-3.87,2.01-3.87,5.03v.02c0,3.02,1.48,4.95,3.88,5.05,1.82.07,3.13-.91,3.47-2.5,0-.03.01-.05.02-.08,1.24.02,1.85.04,3.09.06,0,.05,0,.07-.01.12-.33,3.18-2.92,5.2-6.58,4.98-4.39-.26-7.11-3.18-7.11-7.62h0Z"/><path class="cls-4" d="M61.16,36.88c1.49-.09,2.24-.13,3.73-.21,2.11,6.48,3.16,9.84,5.27,16.8-1.34-.08-2-.11-3.34-.19-.45-1.65-.67-2.47-1.12-4.09-2.14-.06-3.21-.1-5.35-.16-.45,1.54-.68,2.3-1.12,3.81l-3.33-.19c2.1-6.07,3.16-9.22,5.26-15.77ZM61.08,46.53c1.56.02,2.34.03,3.9.04-.74-2.66-1.11-3.97-1.85-6.56-.08,0-.11,0-.19,0-.74,2.64-1.12,3.94-1.86,6.51h0Z"/><path class="cls-4" d="M73.18,36.19c2.53-.14,3.79-.22,6.31-.36,3.44-.2,5.42,1.97,5.42,5.67v.03c0,2.41-1.01,4.48-2.74,5.29,1.28,2.95,1.92,4.46,3.19,7.53-1.44-.08-2.15-.12-3.59-.21-1.13-2.76-1.7-4.12-2.83-6.79-1.04-.02-1.56-.02-2.6-.04v6.52c-1.27-.07-1.9-.11-3.17-.18v-17.45h0ZM79.14,44.58c1.59,0,2.52-1.1,2.52-2.92v-.03c0-1.77-.98-2.89-2.56-2.82-1.1.04-1.65.06-2.75.11v5.67c1.12,0,1.68,0,2.79,0h0Z"/><path class="cls-4" d="M92.23,38.48c-1.82.07-2.73.1-4.55.17v-3.3c4.91-.28,7.36-.42,12.27-.71v3.54c-1.82.07-2.73.1-4.55.17v16.56c-1.27-.07-1.9-.11-3.17-.18,0-6.5,0-9.75,0-16.25Z"/></g></svg>