<?xml version="1.0" encoding="UTF-8"?><svg id="Calque_2" xmlns="http://www.w3.org/2000/svg" width="135.19" height="77.32" viewBox="0 0 135.19 77.32"><defs><style>.cls-1{fill:#34ad5c;}.cls-1,.cls-2,.cls-3{stroke-width:0px;}.cls-4,.cls-3{isolation:isolate;}.cls-2{fill:#fff;}.cls-3{fill:#000;mix-blend-mode:multiply;opacity:.5;}</style></defs><g id="Calque_1-2"><g class="cls-4"><g id="Layer_1"><path class="cls-1" d="M127.35,12.42h0c-4.58-7.45-12.8-12.42-22.19-12.42H26.03C11.66,0,0,11.65,0,26.03v20.26c0,7.3,3.01,13.89,7.85,18.62,4.58,7.45,12.8,12.41,22.19,12.41h79.13c14.38,0,26.03-11.65,26.03-26.03v-20.26c0-7.3-3.01-13.89-7.85-18.62h0Z"/><path class="cls-2" d="M31.46,48.01c.02.46-.08.82-.29,1.08-.21.26-.57.4-1.08.42l-3.12.14c-.51.02-.88-.08-1.12-.32-.23-.24-.36-.59-.38-1.05l-.91-20.67c-.02-.46.08-.82.29-1.08.21-.26.57-.4,1.08-.42l14.22-.62c.15,0,.29.03.42.1s.19.21.2.41l.07,1.49c0,.21-.05.35-.17.43-.12.08-.25.13-.39.13l-9.65.42.33,7.48,9.4-.41c.15,0,.29.03.41.1.12.07.19.21.2.42l.07,1.49c0,.2-.05.35-.17.43s-.25.13-.39.13l-9.4.41.42,9.5h0Z"/><path class="cls-2" d="M52.47,41.45l.25,5.64c.02.46-.08.82-.29,1.08-.21.26-.57.4-1.08.42l-3.12.14c-.51.02-.88-.08-1.12-.32-.23-.24-.36-.59-.38-1.05l-.91-20.67c-.02-.46.08-.82.29-1.08.21-.26.57-.4,1.08-.42l3.12-.14h.15s3.31-.15,3.31-.15c1.74-.08,3.21.08,4.39.46,1.19.38,2.15.93,2.89,1.64.74.71,1.28,1.55,1.61,2.52.33.97.53,2,.57,3.09.04.82-.02,1.62-.15,2.41s-.38,1.52-.74,2.21c-.35.69-.83,1.32-1.42,1.88s-1.32,1.03-2.2,1.39l6.25,6.68c.18.18.24.36.18.53-.06.17-.22.27-.47.28l-2.05.09c-.15,0-.28,0-.36-.04-.08-.03-.18-.11-.29-.24l-6.12-6.56c-.22.04-.44.07-.66.08l-.69.03-2.05.09h0ZM51.86,27.54l.5,11.35.61-.03c.87-.04,1.59-.2,2.16-.49.57-.29,1.02-.69,1.35-1.21.33-.52.55-1.14.68-1.85s.17-1.52.13-2.41c-.04-.87-.15-1.65-.33-2.33-.18-.68-.46-1.26-.85-1.72-.38-.46-.86-.81-1.46-1.04-.59-.23-1.32-.33-2.19-.29l-.59.03h0Z"/><path class="cls-2" d="M69.52,47.41c-.24-.24-.36-.59-.38-1.05l-.91-20.67c-.02-.46.07-.82.29-1.08.21-.26.57-.4,1.08-.42l14.22-.62c.15,0,.29.03.42.1.12.07.19.21.2.41l.07,1.49c0,.21-.05.35-.17.43-.12.08-.25.13-.39.13l-9.66.42.33,7.48,9.4-.41c.15,0,.29.03.42.1s.19.21.2.42l.07,1.49c0,.2-.05.35-.17.43-.12.08-.25.13-.39.13l-9.4.41.37,8.38,9.66-.42c.15,0,.29.03.42.1.12.07.19.21.2.42l.07,1.49c0,.2-.05.35-.17.43s-.25.13-.39.13l-10.94.48h-.15s-3.12.14-3.12.14c-.51.02-.89-.08-1.12-.32h0Z"/><path class="cls-2" d="M90.78,46.48c-.24-.24-.36-.59-.38-1.05l-.91-20.67c-.02-.46.07-.82.29-1.08.21-.26.57-.4,1.08-.42l14.22-.62c.15,0,.29.03.42.1.12.07.19.21.2.41l.07,1.49c0,.21-.05.35-.17.43-.12.08-.26.13-.39.13l-9.66.42.33,7.48,9.4-.41c.15,0,.29.03.42.1s.19.21.2.42l.07,1.49c0,.2-.05.35-.17.43-.12.08-.26.13-.39.13l-9.4.41.37,8.38,9.66-.42c.15,0,.29.03.42.1.12.07.19.21.2.42l.07,1.49c0,.2-.05.35-.17.43s-.26.13-.39.13l-10.94.48h-.15s-3.12.14-3.12.14c-.51.02-.89-.08-1.12-.32h0Z"/><path class="cls-2" d="M9.22,24.62c2.21-8,8.43-14.76,16.24-17.48-6.03,3.67-10.26,10-11.18,16.97-.06.41-.1.9-.1,1.19l-4.95-.69h0Z"/><path class="cls-2" d="M121.98,47.7c-2.21,8-8.43,14.76-16.24,17.48,6.03-3.67,10.26-10,11.18-16.97.06-.41.1-.9.1-1.19l4.95.69h0Z"/><path class="cls-3" d="M127.35,12.41c2.44,3.96,3.85,8.62,3.85,13.62v20.26c0,14.38-11.65,26.03-26.03,26.03H26.03c-7.08,0-13.49-2.83-18.19-7.41,4.58,7.45,12.8,12.41,22.19,12.41h79.13c14.38,0,26.03-11.65,26.03-26.03v-20.26c0-7.3-3.01-13.89-7.85-18.62h0Z"/></g></g></g></svg>