<?xml version="1.0" encoding="UTF-8"?><svg width="190" height="146" id="Calque_2" xmlns="http://www.w3.org/2000/svg" viewBox="0 0 95.7 73.35"><defs><style>.cls-1,.cls-2{stroke-width:0px;}.cls-2{fill:#e74c3d;}</style></defs><g id="_08_Bubble"><path class="cls-2" d="m94.69,29.64s-.04.05-.05.07c-.3.38-.59.73-.76.93-.29.35-.53.62-.67.85-.02.03-.05.04-.05.06-.28.43-.74,1.02-1.31,1.71-.13.17-.27.34-.41.52-1.18,1.47-2.76,3.34-3.9,4.79-.17.21-.33.41-.47.6-.17.23-.32.45-.43.61-2.56,3.96-4.88,7.52-7.36,11.1-.03.05-.08.09-.12.13-.02,0-.04.04-.07.06-1.43,1.02-2.86,2.14-4.26,3.24-1.24.99-2.52,2-3.83,2.94,0,0-.03.02-.08.02-.35,0-.94-.29-1.32-.48-.19-.08-.35-.16-.46-.19l-7.93-2.99c-.06-.03-.13-.05-.21-.05-.14,0-.3.07-.39.18-.16.16-.21.41-.13.62.02.03.03.06.03.09-.13-.04-.24-.09-.36-.14,1.53,3.71,3.13,8.58,4.76,12.53.01.02.01.03.02.04l.78,2.2h0s-1.35.87-1.35.87c-1.27.8-2.56,1.61-3.86,2.39-.04.01-.07.03-.1.03-.06,0-.14-.03-.17-.08-1.8-1.75-3.6-3.69-5.38-5.69-.03-.03-.04-.07-.08-.08-.23-.27-.49-.56-.74-.84-3.23-3.68-6.41-7.49-9.52-10.72-.23-.22-.37-.35-.45-.43-.11-.11-.27-.17-.41-.17-.02,0-.05,0-.07.02l-5.8.79c-2.18.3-4.34.59-6.5.89-4.97.67-10.11,1.37-15.16,2.1-.03.01-.07.01-.1.01-.09,0-.19-.01-.2-.06-.15-.32-.29-.62-.43-.94-2.13-4.58-4.14-9.3-6.08-13.86-.7-1.65-1.39-3.29-2.09-4.93l-.05-.09c-1.42-3.31-2.88-6.71-4.42-10.03-.25-.57-.54-1.08-.78-1.53-.87-1.54-1.3-2.32-.27-3.86,1.22-1.83,2.42-3.67,3.62-5.51,1.16-1.8,2.34-3.6,3.52-5.38.36-.54.74-1.19,1.13-1.87,1-1.75,2.11-3.72,3.44-4.53L21.97.32s.04-.04.08-.04h.17c.14,0,.29.02.43.04.08,0,.17.01.25.01h31.36s30.63.02,30.63.02c.05.06.08.14.12.22,3.27,9.16,6.74,18.23,10.31,27.28.18.43-.16,1.11-.63,1.79Z"/><path class="cls-1" d="m13.65,16.86s-.06-.07-.1-.04c-.87.66-2.08,2.02-2.41,3.06-.48,1.42-.1,2.83.65,4.07.05.1.19.05.19-.04.06-1.45-.64-2.75.08-4.14.51-1,1.45-1.74,1.59-2.91ZM53.96,5.15c-.59-.32-1.37-.3-2-.17-.16.01-.15.27,0,.3.63.14,1.41.41,2,.01.05-.03.05-.11,0-.14Zm-2.77-.11c-9.25-1.18-18.66-1.54-27.96-2.1-.08,0-.09.11-.01.13,9.06,1.64,18.77,2,27.97,2.13.11,0,.1-.15,0-.16Zm35.21,5.91c-.13-.24-.27-.51-.52-.6-.05-.03-.12.03-.12.08,0,.27.16.55.28.81.09.24.15.49.41.6.06.03.16.02.17-.08.08-.3-.09-.55-.22-.81Zm-2.3-5.74c-.18-.49-.4-1.49-.89-1.79-.58-.35-1.43-.37-2.09-.45-1.09-.14-2.43-.49-3.51-.19-.06.02-.06.1-.02.11,1.37.83,3.42.61,4.96.97.72.16.97,1.72,1.18,2.31.46,1.25.91,2.48,1.7,3.54.06.08.18.05.16-.06-.33-1.53-.94-2.97-1.49-4.44Zm-2.04,36.71c-.33.15-.49.39-.68.71-.16.27-.32.46-.24.78,0,.03.05.06.08.06.32,0,.46-.17.63-.41.26-.33.45-.6.4-1.03-.01-.1-.09-.16-.19-.11Zm-1.33,2.13c-1.23,1.31-2.23,2.81-3.39,4.19-.6.72-2.48.29-3.26.26-.82-.05-1.65-.08-2.48.03-.06.01-.05.09,0,.11,1,.35,2.07.4,3.12.51.7.06,1.81.44,2.51.06,1.67-.92,2.84-3.42,3.67-5.04.06-.11-.08-.24-.17-.12Zm-39.31,3.06c-.3,0-.81.05-.97.32-.03.03-.03.1,0,.13.22.33.81.24,1.11.06.24-.14.13-.49-.14-.51Zm-1.77.32c-4.64.32-9.22.91-13.82,1.53-1.02.14-2.02.27-3.04.41-1.8.24-2.08.16-2.69-1.7-.87-2.67-1.83-5.39-3.08-7.9-.05-.08-.16-.02-.14.06.76,3.52,2.17,6.9,3.22,10.33.05.15.19.29.37.27,6.42-.84,12.83-1.63,19.22-2.67.19-.03.14-.35-.04-.33ZM86.4,10.95c-.13-.24-.27-.51-.52-.6-.05-.03-.12.03-.12.08,0,.27.16.55.28.81.09.24.15.49.41.6.06.03.16.02.17-.08.08-.3-.09-.55-.22-.81Zm-2.3-5.74c-.18-.49-.4-1.49-.89-1.79-.58-.35-1.43-.37-2.09-.45-1.09-.14-2.43-.49-3.51-.19-.06.02-.06.1-.02.11,1.37.83,3.42.61,4.96.97.72.16.97,1.72,1.18,2.31.46,1.25.91,2.48,1.7,3.54.06.08.18.05.16-.06-.33-1.53-.94-2.97-1.49-4.44Zm-2.04,36.71c-.33.15-.49.39-.68.71-.16.27-.32.46-.24.78,0,.03.05.06.08.06.32,0,.46-.17.63-.41.26-.33.45-.6.4-1.03-.01-.1-.09-.16-.19-.11Zm-1.33,2.13c-1.23,1.31-2.23,2.81-3.39,4.19-.6.72-2.48.29-3.26.26-.82-.05-1.65-.08-2.48.03-.06.01-.05.09,0,.11,1,.35,2.07.4,3.12.51.7.06,1.81.44,2.51.06,1.67-.92,2.84-3.42,3.67-5.04.06-.11-.08-.24-.17-.12ZM53.96,5.15c-.59-.32-1.37-.3-2-.17-.16.01-.15.27,0,.3.63.14,1.41.41,2,.01.05-.03.05-.11,0-.14Zm-2.77-.11c-9.25-1.18-18.66-1.54-27.96-2.1-.08,0-.09.11-.01.13,9.06,1.64,18.77,2,27.97,2.13.11,0,.1-.15,0-.16Zm-9.77,42.07c-.3,0-.81.05-.97.32-.03.03-.03.1,0,.13.22.33.81.24,1.11.06.24-.14.13-.49-.14-.51Zm-1.77.32c-4.64.32-9.22.91-13.82,1.53-1.02.14-2.02.27-3.04.41-1.8.24-2.08.16-2.69-1.7-.87-2.67-1.83-5.39-3.08-7.9-.05-.08-.16-.02-.14.06.76,3.52,2.17,6.9,3.22,10.33.05.15.19.29.37.27,6.42-.84,12.83-1.63,19.22-2.67.19-.03.14-.35-.04-.33ZM13.65,16.86s-.06-.07-.1-.04c-.87.66-2.08,2.02-2.41,3.06-.48,1.42-.1,2.83.65,4.07.05.1.19.05.19-.04.06-1.45-.64-2.75.08-4.14.51-1,1.45-1.74,1.59-2.91Zm0,0s-.06-.07-.1-.04c-.87.66-2.08,2.02-2.41,3.06-.48,1.42-.1,2.83.65,4.07.05.1.19.05.19-.04.06-1.45-.64-2.75.08-4.14.51-1,1.45-1.74,1.59-2.91Zm26,30.57c-4.64.32-9.22.91-13.82,1.53-1.02.14-2.02.27-3.04.41-1.8.24-2.08.16-2.69-1.7-.87-2.67-1.83-5.39-3.08-7.9-.05-.08-.16-.02-.14.06.76,3.52,2.17,6.9,3.22,10.33.05.15.19.29.37.27,6.42-.84,12.83-1.63,19.22-2.67.19-.03.14-.35-.04-.33Zm1.77-.32c-.3,0-.81.05-.97.32-.03.03-.03.1,0,.13.22.33.81.24,1.11.06.24-.14.13-.49-.14-.51ZM51.19,5.04c-9.25-1.18-18.66-1.54-27.96-2.1-.08,0-.09.11-.01.13,9.06,1.64,18.77,2,27.97,2.13.11,0,.1-.15,0-.16Zm2.77.11c-.59-.32-1.37-.3-2-.17-.16.01-.15.27,0,.3.63.14,1.41.41,2,.01.05-.03.05-.11,0-.14Zm26.77,38.9c-1.23,1.31-2.23,2.81-3.39,4.19-.6.72-2.48.29-3.26.26-.82-.05-1.65-.08-2.48.03-.06.01-.05.09,0,.11,1,.35,2.07.4,3.12.51.7.06,1.81.44,2.51.06,1.67-.92,2.84-3.42,3.67-5.04.06-.11-.08-.24-.17-.12Zm1.33-2.13c-.33.15-.49.39-.68.71-.16.27-.32.46-.24.78,0,.03.05.06.08.06.32,0,.46-.17.63-.41.26-.33.45-.6.4-1.03-.01-.1-.09-.16-.19-.11Zm2.04-36.71c-.18-.49-.4-1.49-.89-1.79-.58-.35-1.43-.37-2.09-.45-1.09-.14-2.43-.49-3.51-.19-.06.02-.06.1-.02.11,1.37.83,3.42.61,4.96.97.72.16.97,1.72,1.18,2.31.46,1.25.91,2.48,1.7,3.54.06.08.18.05.16-.06-.33-1.53-.94-2.97-1.49-4.44Zm2.3,5.74c-.13-.24-.27-.51-.52-.6-.05-.03-.12.03-.12.08,0,.27.16.55.28.81.09.24.15.49.41.6.06.03.16.02.17-.08.08-.3-.09-.55-.22-.81Zm0,0c-.13-.24-.27-.51-.52-.6-.05-.03-.12.03-.12.08,0,.27.16.55.28.81.09.24.15.49.41.6.06.03.16.02.17-.08.08-.3-.09-.55-.22-.81Zm-3.19-7.53c-.58-.35-1.43-.37-2.09-.45-1.09-.14-2.43-.49-3.51-.19-.06.02-.06.1-.02.11,1.37.83,3.42.61,4.96.97.72.16.97,1.72,1.18,2.31.46,1.25.91,2.48,1.7,3.54.06.08.18.05.16-.06-.33-1.53-.94-2.97-1.49-4.44-.18-.49-.4-1.49-.89-1.79Zm-1.15,38.5c-.33.15-.49.39-.68.71-.16.27-.32.46-.24.78,0,.03.05.06.08.06.32,0,.46-.17.63-.41.26-.33.45-.6.4-1.03-.01-.1-.09-.16-.19-.11Zm-1.33,2.13c-1.23,1.31-2.23,2.81-3.39,4.19-.6.72-2.48.29-3.26.26-.82-.05-1.65-.08-2.48.03-.06.01-.05.09,0,.11,1,.35,2.07.4,3.12.51.7.06,1.81.44,2.51.06,1.67-.92,2.84-3.42,3.67-5.04.06-.11-.08-.24-.17-.12ZM51.96,4.98c-.16.01-.15.27,0,.3.63.14,1.41.41,2,.01.05-.03.05-.11,0-.14-.59-.32-1.37-.3-2-.17Zm-28.73-2.04c-.08,0-.09.11-.01.13,9.06,1.64,18.77,2,27.97,2.13.11,0,.1-.15,0-.16-9.25-1.18-18.66-1.54-27.96-2.1Zm18.19,44.17c-.3,0-.81.05-.97.32-.03.03-.03.1,0,.13.22.33.81.24,1.11.06.24-.14.13-.49-.14-.51Zm-1.77.32c-4.64.32-9.22.91-13.82,1.53-1.02.14-2.02.27-3.04.41-1.8.24-2.08.16-2.69-1.7-.87-2.67-1.83-5.39-3.08-7.9-.05-.08-.16-.02-.14.06.76,3.52,2.17,6.9,3.22,10.33.05.15.19.29.37.27,6.42-.84,12.83-1.63,19.22-2.67.19-.03.14-.35-.04-.33ZM13.55,16.82c-.87.66-2.08,2.02-2.41,3.06-.48,1.42-.1,2.83.65,4.07.05.1.19.05.19-.04.06-1.45-.64-2.75.08-4.14.51-1,1.45-1.74,1.59-2.91,0-.04-.06-.07-.1-.04Zm82.1,11.27c-3.57-9.05-7.04-18.12-10.31-27.28-.04-.08-.07-.16-.12-.22-.14-.22-.38-.35-.66-.37-9.36-.51-19.73-.01-29.97.36-7.95.29-15.82.5-23.09.1-.67-.04-1.33-.07-2-.11-2.37-.13-4.73-.26-7.09-.38-.24-.01-.56-.06-.84-.05-.15,0-.29.02-.45.11-2.85,1.75-5.69,3.5-8.55,5.27-1.99,1.22-3.45,4.65-4.74,6.58-2.4,3.6-4.73,7.28-7.13,10.88-1.58,2.34-.15,3.44,1.01,5.95,1.54,3.34,2.99,6.71,4.44,10.09,2.84,6.6,5.58,13.26,8.61,19.76.16.35.57.41.91.37,7.21-1.05,14.43-2.01,21.65-2.99,1.65-.24,3.29-.46,4.94-.69.29-.04.57-.08.86-.12.08.08.22.2.44.43,5.17,5.32,10.41,12.17,15.72,17.34.26.25.67.31.97.12,1.83-1.09,3.63-2.24,5.42-3.38.16-.1.24-.22.31-.35.01-.05.03-.08.04-.13,0-.01.02-.01.02-.05h0c.05-.17.03-.36-.06-.54-.02,0,0-.01-.02-.03-.24-.52-.47-1.07-.7-1.64-.01-.01-.01-.02-.02-.04-1.63-3.95-3.23-8.82-4.76-12.53.12.05.23.1.36.14,2.51.96,5.06,1.91,7.57,2.85.49.19,1.83,1.02,2.4.59,2.75-2,5.35-4.23,8.12-6.22,0,0,.02-.01.03-.01.1-.08.19-.18.26-.27.08-.11.14-.21.2-.32.03-.02.05-.05.07-.06,2.44-3.53,4.76-7.13,7.1-10.75.19-.28.46-.66.81-1.09.14-.19.3-.39.47-.6,1.14-1.45,2.72-3.32,3.9-4.79.14-.18.28-.35.41-.52.39-.5.71-.92.93-1.23.08-.13.2-.29.38-.48,0-.02.03-.03.05-.06.39-.48.97-1.13,1.43-1.78.01-.02.03-.05.05-.07.47-.68.81-1.36.63-1.79ZM15.29,56.13c-.19-.43-.38-.86-.58-1.29.51-.72.88-1.66,1.34-2.34.43-.62,1.05-1.29,1.43-2,.3.73.6,1.46.92,2.19l.02.02c-.75.76-1.42,1.81-1.97,2.53-.3.38-.67.82-1,1.28-.04-.12-.08-.25-.16-.39Zm.22-3.93c-.35.49-.86,1.14-1.16,1.81-.29-.63-.57-1.29-.86-1.94.64-.6,1.11-1.56,1.57-2.21.42-.57.97-1.21,1.4-1.87.26.63.51,1.28.77,1.92-.67.64-1.21,1.56-1.72,2.29Zm-.76-3.02c-.43.62-1.15,1.33-1.61,2.08-.05-.09-.09-.19-.14-.3-.3-.7-.61-1.42-.91-2.11.61-.97,1.29-1.88,2.02-2.77.33-.41.76-.86,1.11-1.34.31.82.61,1.63.93,2.42-.55.62-.97,1.4-1.4,2.02Zm-1.34-3.24c-.57.7-1.14,1.41-1.64,2.16-.38-.86-.74-1.72-1.11-2.58.18-.16.29-.36.48-.65.47-.68.98-1.37,1.52-2.02.37-.44.94-.95,1.34-1.52l.95,2.67c-.55.6-1.05,1.35-1.54,1.94Zm-.17-4.57c-.46.55-.97,1.04-1.42,1.61-.41.52-1.1,1.21-1.43,1.92-.32-.74-.63-1.47-.95-2.22.82-.76,1.48-1.8,2.17-2.61.39-.43.99-.92,1.44-1.48.23.7.49,1.4.73,2.1-.18.24-.35.48-.54.68Zm-.78-3.11c-.5.56-1.02,1.08-1.5,1.64-.58.68-1.24,1.36-1.82,2.08-.37-.88-.74-1.73-1.1-2.59.7-.84,1.4-1.67,2.18-2.45.54-.56,1.19-1.14,1.65-1.83.3.92.62,1.83.92,2.75-.09.13-.21.27-.33.4Zm-2.94-1.49c-.61.62-1.24,1.25-1.78,1.93-.37-.85-.73-1.73-1.12-2.59.8-.71,1.48-1.68,2.18-2.41.59-.62,1.34-1.24,1.94-1.94.3.92.62,1.84.92,2.76-.78.66-1.44,1.53-2.14,2.25ZM1.7,25.13c-.34-.68.71-2.34,1.76-3.78,1.4-.42,2.69-1.2,4.01-1.78.2-.08.41-.18.63-.26-.4.57-.73,1.16-.87,1.7-.03.11-.05.23-.05.35-.79.62-1.49,1.5-2.16,2.16-.89.89-1.99,1.77-2.8,2.75-.17-.38-.35-.76-.52-1.14Zm3.4-.86c.67-.68,1.52-1.38,2.22-2.14.24.79.73,1.7.93,2.24,0,.01,0,.03.01.04-.89.58-1.6,1.63-2.3,2.33-.59.6-1.2,1.22-1.8,1.82-.21.21-.41.38-.59.58-.36-.77-.73-1.55-1.09-2.31.98-.7,1.79-1.73,2.62-2.56Zm3.27,8.98c-.63.65-1.44,1.37-2.05,2.15-.32-.73-.63-1.45-.95-2.18.75-.7,1.4-1.57,2.08-2.29.7-.73,1.59-1.41,2.26-2.19.25.73.51,1.48.76,2.22,0,.02.02.05.03.08-.79.65-1.48,1.53-2.13,2.21Zm-1.05-3.03c-.71.7-1.59,1.46-2.27,2.3-.4-.9-.79-1.81-1.19-2.72.87-.52,1.67-1.63,2.29-2.29.68-.7,1.7-1.51,2.33-2.4.37,1.04.7,2.07,1.05,3.1-.82.53-1.54,1.34-2.21,2.01Zm-.11-11.1c-1.08.49-2.19,1.02-3.26,1.58.59-.78,1.12-1.44,1.32-1.75.3-.48.62-.96.92-1.42.74-.22,1.44-.65,2.07-.98.83-.42,1.77-.75,2.66-1.16-.24.36-.5.74-.74,1.11-.33.51-.81,1.1-1.28,1.72-.56.31-1.12.63-1.69.9Zm1.69-3.59c-.65.3-1.32.6-1.99.91.76-1.18,1.54-2.36,2.3-3.53.08-.11.15-.23.21-.34.8-.27,1.56-.63,2.31-.97.74-.33,1.57-.63,2.33-1.03-.03.05-.06.1-.09.14-.73,1.13-1.48,2.26-2.21,3.4-.99.39-1.94.97-2.86,1.42Zm3.06-4.69c-.66.32-1.35.59-2.05.87.56-.98,1.2-2.19,1.86-3.16,1.07-.24,2.17-.86,3.14-1.22.54-.19,1.11-.35,1.65-.54-.61.9-1.19,1.79-1.78,2.7-.99.35-1.91.92-2.82,1.35Zm2.29-3.88c-.57.21-1.16.42-1.73.64.22-.24.46-.45.68-.59,1.82-1.11,3.64-2.24,5.47-3.35-.03.03-.06.08-.09.12-.46.69-.92,1.39-1.4,2.09-.99.3-1.97.73-2.93,1.09Zm1.56,50.28c.45-.78,1-1.51,1.56-2.23.48-.59,1.18-1.24,1.65-1.94.02,0,.05.02.08.02.84-.1,1.7-.19,2.54-.29-.44.61-.85,1.26-1.27,1.88-.47.68-1.22,1.56-1.68,2.43-.65.08-1.31.18-1.96.27-.66.1-.92.13-1.01.03.03-.06.06-.11.09-.17Zm36.97,5.58c.75-.58,1.42-1.43,2.09-2.07.3-.3.85-.76,1.25-1.27.3.33.62.65.94.97-.48.44-.91,1-1.29,1.4-1.08,1.08-1.78,2.03-1.97,2.27.02-.03.05-.1.1-.17-.39-.39-.75-.75-1.12-1.13Zm2.83-3.77c-.41.52-.9,1-1.38,1.48-.57.55-1.38,1.21-1.78,1.95l-1.19-1.19c.57-.54,1.06-1.35,1.54-1.91.4-.44.79-.89,1.19-1.32l.4-.39c.43.44.84.89,1.27,1.33l-.05.05Zm-3.21-.06c-.46.52-1.16,1.19-1.57,1.87-.4-.4-.8-.78-1.18-1.17.67-.62,1.26-1.53,1.83-2.15.33-.38.94-.92,1.38-1.49.35.38.72.76,1.08,1.14-.58.51-1.11,1.3-1.54,1.8Zm-.21-3.26c-.46.55-.93,1.08-1.41,1.6-.49.54-1.18,1.21-1.56,1.93l-1.19-1.2c.72-.65,1.29-1.55,1.91-2.25.39-.43.95-.89,1.4-1.39.33.37.66.74,1.01,1.1-.06.06-.11.13-.16.21Zm-2.68-.35c-.59.65-1.42,1.44-1.85,2.29-.34-.38-.71-.83-1.08-1.27.7-.64,1.28-1.45,1.86-2.13.34-.4.91-.96,1.32-1.55.35.39.7.77,1.05,1.15-.48.47-.9,1.06-1.3,1.51Zm-1.75-1.29c-.49.59-1.13,1.18-1.54,1.86-.34-.4-.69-.76-1.07-1.1.51-.57.91-1.28,1.34-1.87.44-.61.9-1.19,1.37-1.78.09-.11.15-.19.22-.27.08.06.14.14.22.22.32.35.64.7.95,1.05-.44.67-.97,1.29-1.49,1.89Zm-1.37-2.07c-.54.74-1.3,1.55-1.73,2.44-.49-.35-1.02-.58-1.59-.64.61-.62,1.1-1.46,1.54-2.13.32-.46.77-1.02,1.05-1.59.38-.05.76-.08,1.15-.13.19-.01.3-.03.38-.03.14.16.28.3.43.46-.48.46-.86,1.15-1.23,1.62Zm-2.37-.68c-.52.76-1.28,1.59-1.6,2.5-.84.12-1.7.23-2.56.35.49-.66.94-1.37,1.43-1.99.4-.53.95-1.11,1.24-1.75.72-.08,1.43-.16,2.13-.24-.22.4-.43.81-.64,1.13Zm-3.65.95c-.48.61-1.03,1.28-1.34,2.02-.63.08-1.27.18-1.89.26.35-.45.65-.92.96-1.32.52-.7,1.24-1.58,1.51-2.47.68-.08,1.35-.15,2.01-.23-.44.57-.84,1.22-1.25,1.74Zm-2.53.39c-.46.62-1.19,1.28-1.65,2.01-.68.1-1.37.2-2.05.29.52-.56.86-1.32,1.25-1.94.37-.59.96-1.25,1.32-1.94.77-.08,1.53-.17,2.28-.25-.39.6-.72,1.25-1.15,1.83Zm-2.78-.24c-.51.78-1.26,1.67-1.46,2.62-.73.1-1.46.19-2.21.3.49-.55.84-1.33,1.21-1.87.41-.62.98-1.32,1.25-2.07.65-.06,1.31-.14,1.97-.21-.28.42-.54.86-.76,1.23Zm-2.94.76c-.45.67-1.21,1.45-1.43,2.26-.81.11-1.61.22-2.42.33.45-.54.86-1.14,1.27-1.68.54-.75,1.07-1.51,1.43-2.36.75-.08,1.48-.17,2.23-.25-.41.54-.73,1.19-1.08,1.7Zm-2.78.33c-.57.8-1.26,1.55-1.8,2.36-.59.08-1.19.16-1.78.25.27-.52.51-1.1.75-1.57.41-.83,1.13-1.62,1.56-2.5.84-.09,1.67-.17,2.51-.27-.43.57-.83,1.16-1.24,1.73Zm-3.15.4c-.41.7-.87,1.51-1.24,2.32-.91.11-1.81.24-2.72.37.3-.48.58-.99.88-1.45.57-.9,1.14-1.79,1.65-2.72.81-.09,1.62-.19,2.43-.27-.36.58-.68,1.21-1,1.75Zm-3.24.64c-.43.67-.99,1.38-1.34,2.13-.65.09-1.3.19-1.95.27.35-.56.63-1.18.95-1.66.53-.81,1.26-1.66,1.69-2.59.7-.08,1.4-.16,2.11-.23-.51.68-1,1.36-1.46,2.08Zm32.15,12.19c-.25-.27-.52-.54-.79-.8l.05-.04c.62-.5,1.11-1.24,1.62-1.77.49-.52,1.01-2.62,1.52-3.13.02-.02.04-.03.07-.05.52.54,1.05,2.67,1.59,3.21-.13.12-.24.24-.37.37-.48.48-.95.94-1.41,1.41-.4.4-1.1.97-1.48,1.58-.24-.24-.48-.48-.72-.7-.03-.03-.04-.07-.08-.08Zm2.74,2.88c.6-.51,1.14-1.2,1.67-1.7.47-.48,1.19-1.07,1.63-1.74.43.45.88.88,1.31,1.31-.08.08-.18.17-.27.27-.46.44-.96.87-1.45,1.3-.38.35-1.19.97-1.61,1.59-.46-.24-.87-.6-1.28-1.03Zm2.62-3.36c-.4.48-.84.91-1.29,1.32-.49.48-1.21,1.03-1.7,1.65-.38-.42-.75-.85-1.11-1.24.03-.04.08-.09.13-.14.46-.48.89-.97,1.35-1.44.46-.48.94-.94,1.41-1.42.13-.13.24-.24.35-.37.4.42.8.82,1.19,1.21-.11.15-.22.3-.33.43Zm3.53,2.75c-.81.51-1.62,1.04-2.42,1.54-.7.43-1.32.5-1.89.34.03-.03.05-.07.08-.1.45-.44.92-.89,1.38-1.32.42-.38.85-.74,1.26-1.13.16-.14.33-.28.48-.42.38.36.74.73,1.11,1.09Zm-4.45-16.75c.35-.54.7-1.1,1.06-1.64.1-.13.21-.27.32-.43.59.07,1.19.13,1.78.19-.28.3-.52.65-.76.97-.3.4-.84,1.02-1.13,1.61-.38-.16-.78-.3-1.18-.45-.03-.08-.06-.16-.09-.24h0Zm-.27-.65c-.22-.56-.45-1.1-.67-1.66.54.07,1.1.12,1.65.18h-.01c-.35.48-.67.97-.97,1.48Zm11.63,4.45c.45-.56.85-1.19,1.29-1.7.8-.93,1.8-1.75,2.51-2.75.56.06,1.13.12,1.7.17-1.83,1.4-3.59,2.85-5.4,4.21-.03.04-.07.05-.1.07Zm.91-2.08c-.64.68-1.37,1.51-1.86,2.36-.43-.01-.86-.19-1.35-.41.6-.64,1.11-1.38,1.64-2,.65-.77,1.54-1.62,2.06-2.56.64.06,1.27.13,1.93.19-.88.73-1.67,1.6-2.42,2.42Zm-1.97-.47c-.59.69-1.35,1.37-1.89,2.13-.1-.03-.19-.08-.29-.11-.6-.22-1.22-.46-1.84-.7.51-.54.93-1.24,1.38-1.73.6-.67,1.49-1.27,2.02-2.05.81.08,1.6.16,2.41.24-.66.7-1.22,1.54-1.79,2.22Zm-3.02-.81c-.53.51-1.21,1.18-1.66,1.9-.65-.26-1.28-.5-1.93-.74.3-.33.62-.68.92-1.01.54-.61,1.3-1.35,1.68-2.15.89.1,1.8.19,2.69.27-.61.54-1.18,1.21-1.7,1.73Zm-3.05-.23c-.32.33-.8.73-1.2,1.16-.38-.16-.76-.31-1.14-.45.24-.37.44-.83.65-1.13.37-.55.86-1.06,1.27-1.6.64.06,1.29.12,1.93.19-.53.59-1.01,1.27-1.51,1.83Zm25.24-16.93c-1.45,2.21-6.06,7.63-7.5,9.84-.51.77-2.85,4.99-3.33,4.99-1.19-.13-2.38-.26-3.57-.37-5.76-.6-11.51-1.19-17.25-1.78-.49-.05-.97.56-.78,1.02,1.97,4.94,4.07,11.44,6.22,16.32-5.03-5.02-9.92-11.76-14.69-17-.51-.56-1.69-.16-2.29-.1-2.62.29-5.24.59-7.87.87-5.72.66-11.44,1.29-17.16,1.94-.53.05-1.05.11-1.58.18.5-.07-1.32-4.25-1.6-4.98-1.86-4.88-3.53-9.85-5.2-14.8-.76-2.24-1.51-4.48-2.27-6.7-.99-2.94-1.07-3.9.7-6.55,3.3-4.99,6.51-10.03,9.88-14.96,1.23-1.78.46-1.75,2.43-1.65,1.82.11,3.63.2,5.46.3,12.25.67,24.51,1.34,36.78,2,4.96.27,13.11-2.64,18.07-2.37.35.02.7.04,1.05.07-.59-.03,1.7,6.09,1.95,6.74,2.32,6.31,4.74,12.59,7.2,18.85.72,1.84-3.65,6.6-4.65,8.14Zm-3.13-25.21s-.12.03-.12.08c0,.27.16.55.28.81.09.24.15.49.41.6.06.03.16.02.17-.08.08-.3-.09-.55-.22-.81-.13-.24-.27-.51-.52-.6Zm-2.67-6.93c-.58-.35-1.43-.37-2.09-.45-1.09-.14-2.43-.49-3.51-.19-.06.02-.06.1-.02.11,1.37.83,3.42.61,4.96.97.72.16.97,1.72,1.18,2.31.46,1.25.91,2.48,1.7,3.54.06.08.18.05.16-.06-.33-1.53-.94-2.97-1.49-4.44-.18-.49-.4-1.49-.89-1.79Zm-1.15,38.5c-.33.15-.49.39-.68.71-.16.27-.32.46-.24.78,0,.03.05.06.08.06.32,0,.46-.17.63-.41.26-.33.45-.6.4-1.03-.01-.1-.09-.16-.19-.11Zm-1.33,2.13c-1.23,1.31-2.23,2.81-3.39,4.19-.6.72-2.48.29-3.26.26-.82-.05-1.65-.08-2.48.03-.06.01-.05.09,0,.11,1,.35,2.07.4,3.12.51.7.06,1.81.44,2.51.06,1.67-.92,2.84-3.42,3.67-5.04.06-.11-.08-.24-.17-.12ZM51.96,4.98c-.16.01-.15.27,0,.3.63.14,1.41.41,2,.01.05-.03.05-.11,0-.14-.59-.32-1.37-.3-2-.17Zm-28.73-2.04c-.08,0-.09.11-.01.13,9.06,1.64,18.77,2,27.97,2.13.11,0,.1-.15,0-.16-9.25-1.18-18.66-1.54-27.96-2.1Zm18.19,44.17c-.3,0-.81.05-.97.32-.03.03-.03.1,0,.13.22.33.81.24,1.11.06.24-.14.13-.49-.14-.51Zm-1.77.32c-4.64.32-9.22.91-13.82,1.53-1.02.14-2.02.27-3.04.41-1.8.24-2.08.16-2.69-1.7-.87-2.67-1.83-5.39-3.08-7.9-.05-.08-.16-.02-.14.06.76,3.52,2.17,6.9,3.22,10.33.05.15.19.29.37.27,6.42-.84,12.83-1.63,19.22-2.67.19-.03.14-.35-.04-.33ZM13.55,16.82c-.87.66-2.08,2.02-2.41,3.06-.48,1.42-.1,2.83.65,4.07.05.1.19.05.19-.04.06-1.45-.64-2.75.08-4.14.51-1,1.45-1.74,1.59-2.91,0-.04-.06-.07-.1-.04Zm.1.04s-.06-.07-.1-.04c-.87.66-2.08,2.02-2.41,3.06-.48,1.42-.1,2.83.65,4.07.05.1.19.05.19-.04.06-1.45-.64-2.75.08-4.14.51-1,1.45-1.74,1.59-2.91Zm26,30.57c-4.64.32-9.22.91-13.82,1.53-1.02.14-2.02.27-3.04.41-1.8.24-2.08.16-2.69-1.7-.87-2.67-1.83-5.39-3.08-7.9-.05-.08-.16-.02-.14.06.76,3.52,2.17,6.9,3.22,10.33.05.15.19.29.37.27,6.42-.84,12.83-1.63,19.22-2.67.19-.03.14-.35-.04-.33Zm1.77-.32c-.3,0-.81.05-.97.32-.03.03-.03.1,0,.13.22.33.81.24,1.11.06.24-.14.13-.49-.14-.51ZM51.19,5.04c-9.25-1.18-18.66-1.54-27.96-2.1-.08,0-.09.11-.01.13,9.06,1.64,18.77,2,27.97,2.13.11,0,.1-.15,0-.16Zm2.77.11c-.59-.32-1.37-.3-2-.17-.16.01-.15.27,0,.3.63.14,1.41.41,2,.01.05-.03.05-.11,0-.14Zm26.77,38.9c-1.23,1.31-2.23,2.81-3.39,4.19-.6.72-2.48.29-3.26.26-.82-.05-1.65-.08-2.48.03-.06.01-.05.09,0,.11,1,.35,2.07.4,3.12.51.7.06,1.81.44,2.51.06,1.67-.92,2.84-3.42,3.67-5.04.06-.11-.08-.24-.17-.12Zm1.33-2.13c-.33.15-.49.39-.68.71-.16.27-.32.46-.24.78,0,.03.05.06.08.06.32,0,.46-.17.63-.41.26-.33.45-.6.4-1.03-.01-.1-.09-.16-.19-.11Zm2.04-36.71c-.18-.49-.4-1.49-.89-1.79-.58-.35-1.43-.37-2.09-.45-1.09-.14-2.43-.49-3.51-.19-.06.02-.06.1-.02.11,1.37.83,3.42.61,4.96.97.72.16.97,1.72,1.18,2.31.46,1.25.91,2.48,1.7,3.54.06.08.18.05.16-.06-.33-1.53-.94-2.97-1.49-4.44Zm2.3,5.74c-.13-.24-.27-.51-.52-.6-.05-.03-.12.03-.12.08,0,.27.16.55.28.81.09.24.15.49.41.6.06.03.16.02.17-.08.08-.3-.09-.55-.22-.81Zm0,0c-.13-.24-.27-.51-.52-.6-.05-.03-.12.03-.12.08,0,.27.16.55.28.81.09.24.15.49.41.6.06.03.16.02.17-.08.08-.3-.09-.55-.22-.81Zm-2.3-5.74c-.18-.49-.4-1.49-.89-1.79-.58-.35-1.43-.37-2.09-.45-1.09-.14-2.43-.49-3.51-.19-.06.02-.06.1-.02.11,1.37.83,3.42.61,4.96.97.72.16.97,1.72,1.18,2.31.46,1.25.91,2.48,1.7,3.54.06.08.18.05.16-.06-.33-1.53-.94-2.97-1.49-4.44Zm-2.04,36.71c-.33.15-.49.39-.68.71-.16.27-.32.46-.24.78,0,.03.05.06.08.06.32,0,.46-.17.63-.41.26-.33.45-.6.4-1.03-.01-.1-.09-.16-.19-.11Zm-1.33,2.13c-1.23,1.31-2.23,2.81-3.39,4.19-.6.72-2.48.29-3.26.26-.82-.05-1.65-.08-2.48.03-.06.01-.05.09,0,.11,1,.35,2.07.4,3.12.51.7.06,1.81.44,2.51.06,1.67-.92,2.84-3.42,3.67-5.04.06-.11-.08-.24-.17-.12ZM53.96,5.15c-.59-.32-1.37-.3-2-.17-.16.01-.15.27,0,.3.63.14,1.41.41,2,.01.05-.03.05-.11,0-.14Zm-2.77-.11c-9.25-1.18-18.66-1.54-27.96-2.1-.08,0-.09.11-.01.13,9.06,1.64,18.77,2,27.97,2.13.11,0,.1-.15,0-.16Zm-9.77,42.07c-.3,0-.81.05-.97.32-.03.03-.03.1,0,.13.22.33.81.24,1.11.06.24-.14.13-.49-.14-.51Zm-1.77.32c-4.64.32-9.22.91-13.82,1.53-1.02.14-2.02.27-3.04.41-1.8.24-2.08.16-2.69-1.7-.87-2.67-1.83-5.39-3.08-7.9-.05-.08-.16-.02-.14.06.76,3.52,2.17,6.9,3.22,10.33.05.15.19.29.37.27,6.42-.84,12.83-1.63,19.22-2.67.19-.03.14-.35-.04-.33ZM13.65,16.86s-.06-.07-.1-.04c-.87.66-2.08,2.02-2.41,3.06-.48,1.42-.1,2.83.65,4.07.05.1.19.05.19-.04.06-1.45-.64-2.75.08-4.14.51-1,1.45-1.74,1.59-2.91Z"/></g></svg>
