<?xml version="1.0" encoding="UTF-8"?>
<svg id="Calque_2" data-name="Calque 2" xmlns="http://www.w3.org/2000/svg" viewBox="0 0 405.95 76.36">
  <defs>
    <style>
      .cls-1 {
        fill: #bfbfbf;
      }

      .cls-1, .cls-2 {
        stroke-width: 0px;
      }

      .cls-2 {
        fill: #ff9500;
      }
    </style>
  </defs>
  <g id="Calque_1-2" data-name="Calque 1">
    <g>
      <path class="cls-1" d="m367.76,0l-11.62,29.88h-26.56l21.99,16.19-8.71,30.3,24.9-19.92,24.9,19.92-8.72-30.3,22-16.19h-26.56L367.76,0Z"/>
      <path class="cls-2" d="m38.18,0l-11.62,29.88H0l21.99,16.19-8.71,30.3,24.9-19.92,24.9,19.92-8.72-30.3,22-16.19h-26.56L38.18,0Z"/>
      <path class="cls-2" d="m120.58,0l-11.62,29.88h-26.56l21.99,16.19-8.71,30.3,24.9-19.92,24.9,19.92-8.72-30.3,22-16.19h-26.56L120.58,0Z"/>
      <path class="cls-2" d="m202.97,0l-11.62,29.88h-26.56l21.99,16.19-8.71,30.3,24.9-19.92,24.9,19.92-8.72-30.3,22-16.19h-26.56L202.97,0Z"/>
      <path class="cls-2" d="m285.37,0l-11.62,29.88h-26.56l21.99,16.19-8.71,30.3,24.9-19.92,24.9,19.92-8.72-30.3,22-16.19h-26.56L285.37,0Z"/>
      <g>
        <polygon class="cls-2" points="405.81 29.88 405.81 29.98 405.95 29.88 405.81 29.88"/>
        <polygon class="cls-2" points="367.76 56.44 367.76 0 356.14 29.88 329.58 29.88 351.58 46.07 342.86 76.36 367.76 56.44"/>
      </g>
    </g>
  </g>
</svg>