<?xml version="1.0" encoding="UTF-8"?><svg width="384" height="100" id="Calque_2" xmlns="http://www.w3.org/2000/svg" viewBox="0 0 192 50"><defs><style>.cls-1{opacity:0;}.cls-1,.cls-2{stroke-width:0px;}.cls-2{fill:#0d1f49;}</style></defs><g id="_07_Lines"><rect class="cls-1" x=".17" width="191.65" height="50"/><g id="Calque_2-2"><g id="Line_10"><path class="cls-2" d="m94.8,30.8c.1.1.1.29.1.29,0,0-.19.1-.19,0-.68-.88-1.56-1.56-2.63-1.85-1.07-.39-2.24-.58-3.41-.68-1.36-.1-2.63,0-3.99.1-1.36.19-2.72.29-4.09.49s-2.63.39-3.89.49c-1.07.1-2.24.1-3.31,0h-.29c-.1,0-.19,0-.29-.1-.1.1-.29.1-.39.1-1.17.39-2.34.49-3.5.29s-2.43-.49-3.5-1.07c-1.46,1.17-3.11,2.04-4.86,2.53-1.65.39-3.41.58-5.16.39-1.85-.19-3.79-.58-5.55-1.26-1.85-.68-3.79-1.46-5.84-2.34s-3.99-1.75-6.13-2.72-4.48-1.75-6.71-2.53c-2.34-.78-4.67-1.36-7.01-1.85-2.43-.49-4.96-.58-7.49-.49-2.63.19-5.35.68-7.88,1.56-3.02.97-5.84,2.34-8.46,4.09-.1,0-.19,0-.29-.1s0-.19.19-.29c2.72-1.85,5.55-3.41,8.66-4.57,2.63-.97,5.25-1.56,8.08-1.85,2.53-.29,4.96-.19,7.49.19,2.34.39,4.77.97,7.01,1.65,2.24.68,4.38,1.56,6.52,2.53s4.09,1.85,6.03,2.82c1.95.88,3.89,1.75,5.74,2.53,1.75.68,3.5,1.26,5.35,1.56,1.65.29,3.41.29,5.06.1,1.75-.29,3.41-.97,4.77-2.04-.78-.49-1.46-1.07-1.95-1.85-.49-.68-.78-1.46-.88-2.24-.1-.78-.1-1.56,0-2.34s.39-1.46.78-2.14c.29-.58.68-1.07,1.26-1.56.49-.39.97-.58,1.56-.58s1.07.19,1.46.58c.39.49.68.97.78,1.56.19.68.19,1.46.19,2.24,0,.88-.19,1.65-.39,2.43-.19.78-.49,1.56-.88,2.24-.29.58-.78,1.17-1.26,1.65.97.49,2.04.88,3.21.97,1.07.19,2.24.1,3.31-.19-.58-.19-1.17-.58-1.56-1.07s-.58-1.07-.78-1.65c-.1-.58-.1-1.26,0-1.85s.29-1.17.58-1.75c.29-.49.68-.97,1.07-1.36s.97-.58,1.46-.58.97.1,1.26.39c.29.39.58.78.78,1.26s.39,1.07.39,1.65c.1.58,0,1.26-.1,1.85-.1.58-.39,1.17-.78,1.75s-.88.97-1.46,1.26h.1c1.07.1,2.24,0,3.31-.1,1.26-.19,2.53-.39,3.89-.58s2.72-.39,4.09-.58c1.36-.19,2.63-.19,3.99-.1,1.17.1,2.43.29,3.5.78,1.26.29,2.14.97,2.92,1.95Zm-29.67-2.24c.58-.49.97-.97,1.26-1.65.39-.68.68-1.46.88-2.14.19-.78.29-1.56.39-2.34.1-.68,0-1.36-.1-2.14-.1-.58-.29-1.07-.68-1.46-.29-.39-.78-.49-1.26-.39s-1.07.29-1.36.78c-.39.49-.78.97-.97,1.56-.29.68-.49,1.36-.58,2.04-.1.78-.1,1.46,0,2.24.1.68.39,1.46.78,2.04.39.58.97,1.07,1.65,1.46Zm7.39.68c.58-.29,1.17-.68,1.65-1.17.39-.49.68-1.07.78-1.65.19-.58.19-1.17.19-1.75s-.19-1.07-.39-1.65c-.19-.39-.39-.78-.78-1.07-.29-.29-.78-.39-1.17-.29-.49.1-.88.29-1.26.68s-.78.78-.97,1.26-.39,1.07-.49,1.65-.1,1.17,0,1.75.39,1.07.78,1.46c.49.39.97.68,1.65.78Z"/><path class="cls-2" d="m100.15,28.66c1.17-.49,2.34-.68,3.5-.78,1.36-.1,2.72,0,3.99.1,1.36.19,2.72.39,4.09.58s2.63.39,3.89.58c1.07.19,2.24.19,3.31.1h.1c-.58-.29-1.07-.78-1.46-1.26s-.58-1.07-.78-1.75c-.1-.58-.19-1.26-.1-1.85,0-.58.19-1.17.39-1.65.19-.49.49-.88.88-1.17s.78-.49,1.26-.39c.58,0,1.07.19,1.46.58.49.39.78.78,1.07,1.36.29.58.49,1.17.58,1.75s.1,1.26,0,1.85c-.1.58-.39,1.17-.78,1.65s-.97.88-1.56,1.07c1.07.29,2.14.39,3.31.19,1.07-.1,2.24-.49,3.21-.97-.49-.49-.97-1.07-1.26-1.65-.39-.68-.68-1.36-.88-2.14-.19-.78-.29-1.56-.39-2.43-.1-.78,0-1.46.19-2.24.1-.58.39-1.17.78-1.56.39-.39.88-.68,1.46-.58.58,0,1.17.19,1.56.58.49.39.97.97,1.26,1.56.39.68.58,1.36.78,2.14.1.78.1,1.56,0,2.34s-.39,1.56-.88,2.34-1.17,1.36-1.95,1.85c1.46,1.07,3.11,1.75,4.77,2.04s3.41.19,5.06-.1c1.85-.39,3.6-.88,5.35-1.56,1.85-.78,3.7-1.56,5.74-2.53,1.95-.97,3.99-1.85,6.03-2.82,2.14-.97,4.28-1.85,6.52-2.53,2.24-.78,4.57-1.26,7.01-1.65s4.96-.49,7.49-.19c2.72.29,5.45.97,7.98,1.85,3.02,1.17,5.93,2.63,8.66,4.48.19.1.19.19.19.29s-.1.1-.19,0c-2.63-1.75-5.45-3.02-8.46-4.09-2.53-.78-5.25-1.36-7.98-1.46-2.53-.1-4.96,0-7.49.49-2.34.49-4.67,1.07-7.01,1.85-2.24.78-4.48,1.65-6.52,2.63s-4.18,1.85-6.13,2.72c-1.95.88-3.89,1.65-5.84,2.34-1.75.68-3.6,1.07-5.45,1.26-1.75.19-3.5.1-5.16-.39-1.75-.49-3.5-1.36-4.86-2.53-1.07.58-2.24.88-3.41,1.07-1.17.19-2.34.1-3.5-.29-.1,0-.29-.1-.39-.1s-.19.1-.29.1h-.29c-1.07.1-2.24.1-3.31,0-1.26-.1-2.53-.29-3.89-.49s-2.72-.39-4.09-.49c-1.36-.19-2.63-.19-3.99-.1-1.17,0-2.34.29-3.5.68-1.07.39-1.95.97-2.63,1.85-.1.1-.19.1-.19,0s-.1-.19.1-.29c.68-1.07,1.56-1.75,2.63-2.24Zm28.51-1.65c.39-.58.68-1.36.78-2.04.1-.78.1-1.46,0-2.24-.1-.68-.29-1.36-.58-2.04-.19-.58-.58-1.07-.97-1.56-.39-.39-.78-.68-1.36-.78-.49-.1-.97.1-1.26.39-.39.39-.58.88-.68,1.46-.1.68-.19,1.36-.1,2.14s.19,1.56.39,2.34.49,1.46.88,2.14c.29.58.78,1.17,1.26,1.65.68-.29,1.26-.88,1.65-1.46Zm-7.39,1.36c.39-.39.68-.88.78-1.46.1-.58.19-1.17.1-1.75s-.29-1.17-.49-1.65-.58-.97-.97-1.26c-.39-.39-.78-.58-1.26-.68-.39-.1-.88.1-1.17.29-.39.29-.68.68-.88,1.17-.19.49-.39,1.07-.39,1.65s0,1.17.19,1.75.49,1.17.88,1.65.97.88,1.65,1.17c.58-.1,1.17-.39,1.56-.88Z"/></g></g></g></svg>
