<?xml version="1.0" encoding="UTF-8"?>
<svg id="Calque_2" data-name="Calque 2" xmlns="http://www.w3.org/2000/svg" viewBox="0 0 260.44 259.01">
  <defs>
    <style>
      .cls-1 {
        fill: #ffad29;
      }

      .cls-1, .cls-2, .cls-3 {
        stroke-width: 0px;
      }

      .cls-3 {
        fill: #fff;
      }
    </style>
  </defs>
  <g id="Calque_1-2" data-name="Calque 1">
    <g>
      <path class="cls-2" d="m26.68,132.56c0,9.5,1.29,18.7,3.69,27.44h199.44c2.4-8.74,3.69-17.94,3.69-27.44,0-11.01-1.73-21.61-4.91-31.56H31.59c-3.18,9.95-4.91,20.55-4.91,31.56Z"/>
      <g>
        <path class="cls-1" d="m26.68,132.56c0,1.07.02,2.13.05,3.2-.03-1.06-.05-2.13-.05-3.2h0Z"/>
        <path class="cls-1" d="m130.09,235.96c47.52,0,87.65-32.22,99.7-75.96H30.38c12.05,43.74,52.18,75.96,99.7,75.96Zm34.47-56.78l4.13-12.18,4.31,12.12,12.86.17-10.19,7.85,3.82,12.29-10.61-7.27-10.5,7.43,3.63-12.34-10.31-7.7,12.86-.36Zm-38.56,12.42l4.13-12.18,4.31,12.12,12.86.17-10.19,7.85,3.82,12.29-10.61-7.27-10.5,7.43,3.63-12.34-10.31-7.7,12.86-.36Zm-38.56-12.42l4.13-12.18,4.31,12.12,12.86.17-10.19,7.85,3.82,12.29-10.61-7.27-10.5,7.43,3.63-12.34-10.31-7.7,12.86-.36Z"/>
        <path class="cls-1" d="m130.09,29.15c-46.02,0-85.1,30.22-98.48,71.85h196.95c-13.37-41.63-52.46-71.85-98.48-71.85Z"/>
        <path class="cls-1" d="m233.5,132.56h0c0,1.07-.02,2.13-.05,3.2.03-1.06.05-2.13.05-3.2Z"/>
        <path class="cls-1" d="m249.58,118.39l5.16-27.92-20.58-19.55-6.64-27.6-26.76-9.49-17.29-22.51-28.3,2.21L130.22,0l-24.95,13.53-28.3-2.21-17.29,22.51-26.76,9.49-6.64,27.6-20.58,19.55,5.16,27.92L0,144.62l16.07,23.4.76,28.38,24.2,14.84,12.23,25.62,28.14,3.72,21.6,18.43,27.22-8.05,27.22,8.05,21.6-18.43,28.14-3.72,12.23-25.62,24.2-14.84.76-28.38,16.07-23.4-10.85-26.23Zm-119.5,124.57c-60.98,0-110.41-49.43-110.41-110.41S69.11,22.15,130.09,22.15s110.41,49.43,110.41,110.41-49.43,110.41-110.41,110.41Z"/>
      </g>
      <g>
        <path class="cls-2" d="m96.8,86.02h-5.75v-22.73h5.75v8.69h8.62v-8.69h5.74v22.73h-5.74v-9.37h-8.62v9.37Z"/>
        <path class="cls-2" d="m121.22,86.02h-5.75v-22.73h5.75v22.73Z"/>
        <path class="cls-2" d="m140.07,79.3c0-.79.04-1.51.11-2.15l-.07-.11c-.67.1-1.4.16-2.19.2-.79.04-1.52.04-2.19.02v-4.67l9.37-.04v12.21c-1.1.5-2.35.89-3.75,1.17-1.4.28-3.18.41-5.33.41-2.87,0-5.12-.39-6.75-1.17-1.63-.78-2.78-2.03-3.45-3.77s-1-4.05-1-6.95c0-2.35.27-4.27.81-5.78.54-1.51,1.33-2.67,2.37-3.5,1.04-.83,2.32-1.4,3.82-1.72s3.23-.48,5.17-.48c1.15,0,2.3.05,3.46.14,1.16.1,2.32.28,3.46.54v4.74l-.11.07c-1-.24-2-.41-3-.5-.99-.09-1.99-.14-3-.14-1.46,0-2.73.15-3.82.45-1.09.3-1.93.92-2.53,1.85-.6.93-.9,2.38-.9,4.34s.16,3.42.49,4.43.93,1.71,1.83,2.08c.9.37,2.18.56,3.86.56.22,0,.55,0,1.01-.02.45-.01.91-.03,1.36-.05.45-.02.78-.06.97-.11v-2.05Z"/>
        <path class="cls-2" d="m154.79,86.02h-5.75v-22.73h5.75v8.69h8.62v-8.69h5.74v22.73h-5.74v-9.37h-8.62v9.37Z"/>
      </g>
      <g>
        <path class="cls-3" d="m48.5,130.73c0-3.41.39-6.12,1.16-8.12.77-2,2.11-3.44,4.02-4.31,1.9-.87,4.56-1.31,7.97-1.31,2.56,0,4.69.24,6.38.72,1.69.48,3.03,1.25,4.02,2.33.99,1.07,1.68,2.49,2.09,4.25.41,1.76.61,3.91.61,6.45s-.21,4.77-.63,6.53-1.13,3.18-2.11,4.25c-.99,1.07-2.35,1.85-4.1,2.33v.21c.84.93,1.61,1.89,2.3,2.88.69.99,1.29,1.93,1.8,2.83v.13h-7.69l-3-5.37c-3.33-.03-5.92-.49-7.78-1.37s-3.16-2.33-3.91-4.33c-.75-2-1.12-4.69-1.12-8.08Zm13.15,7.86c1.8,0,3.16-.22,4.06-.68.9-.45,1.51-1.25,1.82-2.39.31-1.14.46-2.74.46-4.8s-.16-3.61-.46-4.73c-.31-1.13-.92-1.92-1.82-2.39-.9-.46-2.26-.7-4.06-.7s-3.12.23-4.04.7c-.92.46-1.54,1.26-1.86,2.39-.32,1.13-.49,2.71-.49,4.73s.16,3.66.49,4.8c.32,1.14.94,1.94,1.86,2.39.92.45,2.26.68,4.04.68Z"/>
        <path class="cls-3" d="m102.15,117.37v15.77c0,2.76-.33,4.97-.99,6.64s-1.81,2.87-3.45,3.61c-1.63.75-3.95,1.12-6.93,1.12s-5.5-.37-7.21-1.12-2.9-1.95-3.57-3.61c-.68-1.66-1.01-3.88-1.01-6.64v-15.77h6.76v15.64c0,1.44.14,2.57.42,3.38.28.82.79,1.39,1.52,1.71.73.32,1.76.49,3.09.49,1.24,0,2.19-.16,2.85-.49s1.12-.89,1.37-1.71c.25-.82.38-1.94.38-3.38v-15.64h6.76Z"/>
        <path class="cls-3" d="m131.74,144.01v.13h-7.19c-.2-.68-.43-1.45-.7-2.33-.27-.87-.56-1.8-.87-2.79h-9.13c-.56,1.97-1.08,3.68-1.56,5.12h-7.19v-.08l8.67-26.68h9.3l8.67,26.63Zm-13.4-21.81c-.28,1.44-.69,3.19-1.23,5.24-.54,2.06-1.1,4.16-1.69,6.3h6.04c-.62-2.14-1.2-4.24-1.73-6.3-.54-2.06-.94-3.8-1.23-5.24h-.17Z"/>
        <path class="cls-3" d="m154.15,138.38v5.75h-19.45v-26.76h6.76v21.01h12.68Z"/>
        <path class="cls-3" d="m163.87,144.13h-6.76v-26.76h6.76v26.76Z"/>
        <path class="cls-3" d="m174.44,144.13v-21.05h-7.61v-5.71h21.98v5.71h-7.61v21.05h-6.76Z"/>
        <path class="cls-3" d="m197.9,144.13v-8.29l-8.67-18.35v-.13h7.4c.87,2.28,1.57,4.11,2.09,5.47.52,1.37.93,2.44,1.23,3.21.3.78.53,1.4.7,1.88.17.48.35.99.55,1.52h.17c.2-.54.38-1.04.55-1.52.17-.48.4-1.11.7-1.88.3-.77.7-1.85,1.23-3.21.52-1.37,1.22-3.19,2.09-5.47h7.4v.13l-8.67,18.35v8.29h-6.76Z"/>
      </g>
      <path class="cls-3" d="m130.09,29.15c57.02,0,103.41,46.39,103.41,103.41s-46.39,103.41-103.41,103.41S26.68,189.58,26.68,132.56,73.07,29.15,130.09,29.15m0-7c-60.98,0-110.41,49.43-110.41,110.41s49.43,110.41,110.41,110.41,110.41-49.43,110.41-110.41S191.06,22.15,130.09,22.15h0Z"/>
      <g>
        <polygon class="cls-2" points="164.55 179.18 168.69 167 173 179.12 185.87 179.29 175.67 187.13 179.49 199.42 168.88 192.15 158.37 199.58 162 187.24 151.69 179.54 164.55 179.18"/>
        <polygon class="cls-2" points="87.43 179.18 91.56 167 95.88 179.12 108.74 179.29 98.55 187.13 102.37 199.42 91.75 192.15 81.25 199.58 84.88 187.24 74.57 179.54 87.43 179.18"/>
        <polygon class="cls-2" points="125.99 191.6 130.13 179.42 134.44 191.54 147.3 191.7 137.11 199.55 140.93 211.84 130.31 204.57 119.81 212 123.44 199.65 113.13 191.96 125.99 191.6"/>
      </g>
    </g>
  </g>
</svg>