<?xml version="1.0" encoding="utf-8"?>
<!DOCTYPE svg PUBLIC "-//W3C//DTD SVG 1.1//EN" "http://www.w3.org/Graphics/SVG/1.1/DTD/svg11.dtd">
<svg version="1.1" xmlns="http://www.w3.org/2000/svg" xmlns:xlink="http://www.w3.org/1999/xlink" xmlns:xml="http://www.w3.org/XML/1998/namespace" width="1000" height="313" viewBox="0, 0, 140.53, 44.046">
  <path d="M71.961 42.996 c0.795 1.498 3.107 1.073 3.437 -0.433 c0.951 1.386 3.153 0.739 3.363 -0.719 c0.921 1.004 2.748 0.602 3.162 -0.698 c0.006 -0.019 -0.006 0.019 0 0 C88.7 38.359 93.66 33.317 95.6 27.298 a2.58 2.58 0 0 0 1.045 -0.801 c2.096 0.493 4.438 1.479 5.301 -0.863 c1.85 0.493 5.729 1.784 6.903 -1.355 c2.712 0.37 6.656 0.616 7.15 -2.219 c2.342 0 6.409 -0.37 6.409 -3.082 c2.343 0 6.41 -1.603 5.917 -3.452 c2.096 -0.246 4.932 -2.465 4.932 -3.944 c2.095 -0.616 4.438 -2.219 3.944 -4.314 c1.232 -0.74 3.328 -1.603 3.328 -2.835 s-0.986 -2.219 -2.096 -2.219 s-5.301 0.254 -6.78 0.254 c-1.478 0 -19.353 -0.247 -23.544 0 c-4.191 0.246 -9.492 0.362 -12.081 0.116 c-1.907 -0.184 -8.404 -0.556 -12.305 0.487 c-8.262 -4.094 -18.653 -4.095 -26.917 0 c-3.9 -1.042 -10.398 -0.67 -12.306 -0.489 c-2.589 0.247 -7.889 0.13 -12.081 -0.116 c-4.191 -0.247 -22.066 0 -23.545 0 s-5.67 -0.254 -6.78 -0.254 S0 3.199 0 4.431 c0 1.233 2.096 2.096 3.329 2.835 c-0.494 2.096 1.849 3.698 3.944 4.314 c0 1.479 2.835 3.698 4.931 3.944 c-0.493 1.85 3.575 3.452 5.917 3.452 c0 2.711 4.068 3.082 6.41 3.082 c0.493 2.835 4.438 2.589 7.15 2.219 c1.174 3.14 5.054 1.849 6.903 1.355 c0.863 2.343 3.205 1.356 5.301 0.863 c0.286 0.372 0.646 0.63 1.045 0.801 c1.94 6.02 6.901 11.062 13.677 13.849 c0.005 0.019 -0.006 -0.019 0 0 c0.414 1.3 2.241 1.702 3.162 0.698 c0.21 1.458 2.412 2.104 3.363 0.719 c0.329 1.506 2.642 1.931 3.436 0.433 c0.189 1.401 3.204 1.401 3.393 0.001 z" />
  <path d="M48.939 26.99 c0.725 1.657 3.016 1.312 4.388 0.795 c1.83 2.784 4.874 5.05 8.622 6.419 l-2.977 5.046 c-5.787 -2.521 -10.071 -6.741 -11.959 -11.71 a5.99 5.99 0 0 0 1.926 -0.55 z" style="fill:white;" />
  <path d="M58.541 40.56 c-6.389 -2.698 -11.085 -7.418 -13.03 -13.076 c0.321 0.07 0.654 0.097 0.987 0.091 c1.905 5.147 6.304 9.521 12.254 12.118 a2.6 2.6 0 0 0 -0.211 0.867 z M61.884 40.711 a0.085 0.085 0 0 1 -0.003 0.009 c-0.947 2.33 -3.756 0.982 -2.485 -1.218 l3.027 -5.13 c0.555 0.188 1.124 0.356 1.706 0.506 c0.012 0.079 -2.212 5.727 -2.245 5.833 z M65.085 41.436 c-0.586 2.331 -3.396 1.62 -2.735 -0.562 l2.406 -5.846 c0.572 0.13 1.155 0.24 1.748 0.329 c0.006 0.022 -1.419 6.079 -1.419 6.079 z M68.384 41.804 c-0.209 2.508 -3.288 2.073 -2.736 -0.425 c0 0.002 1.375 -5.935 1.38 -5.948 c0.578 0.073 1.164 0.129 1.759 0.163 c0.021 0.054 -0.401 6.16 -0.403 6.21 z M68.92 41.766 c0 0.001 0.328 -6.071 0.333 -6.086 c0.576 0.024 1.427 0.041 2.02 -0.019 c0.028 0.052 0.41 6.042 0.416 6.091 c0.186 2.455 -2.916 2.505 -2.769 0.014 z M2.028 3.687 c0.276 -0.211 0.87 -0.2 1.621 -0.242 c3.821 0 12.697 0.247 14.423 0.247 s13.93 1.356 15.84 1.973 c0.863 0.247 1.048 1.109 0 1.171 c-1.048 0.062 -14.076 0.248 -15.925 0.248 c-1.434 0 -8.893 -0.025 -13.204 -0.88 c-2.332 -0.463 -3.584 -1.885 -2.755 -2.517 z M6.225 8.252 c2.219 0.062 13.313 0.124 14.608 0.062 c1.294 -0.062 11.341 -0.616 12.512 -0.678 c2.533 -0.133 3.353 0.995 0.678 1.603 c-1.356 0.309 -13.868 1.726 -23.36 1.541 c-1.788 0.062 -4.191 -0.863 -4.808 -1.726 c-0.616 -0.863 0.062 -0.802 0.37 -0.802 z M10.54 12.321 c1.541 0 19.723 -1.356 23.545 -2.157 c3.324 -0.506 2.574 1.202 1.232 1.479 c-1.128 0.233 -14.608 2.835 -21.449 2.958 c-2.281 -0.061 -4.931 -2.219 -3.328 -2.28 z M15.162 16.142 c2.158 -0.247 16.519 -2.527 20.402 -3.575 c3.512 -0.91 2.803 1.424 1.541 1.788 c-1.124 0.324 -13.363 3.303 -16.149 3.452 a14.781 14.781 0 0 1 -3.528 -0.238 c-3.936 -0.787 -2.266 -1.427 -2.266 -1.427 z M20.956 19.347 c1.541 -0.308 14.053 -3.144 17.628 -4.499 c1.742 -0.607 2.266 1.104 1.171 1.602 c-0.678 0.308 -10.293 4.314 -14.854 4.561 c-1.664 0 -4.742 -0.896 -3.945 -1.664 z M41.357 16.758 c-1.417 0.678 -10.046 4.315 -13.375 5.055 c-0.462 0.123 -0.95 0.327 -0.911 0.584 c0.296 1.968 6.422 0.294 6.847 0.158 c2.356 -0.755 7.159 -2.518 9.196 -4.503 c-0.493 -0.246 -1.633 -1.047 -1.757 -1.294 z M43.946 18.854 c-0.924 0.616 -6.965 3.761 -9.738 4.623 c-1.449 0.483 0.076 1.973 2.906 1.166 c3.128 -0.485 7.695 -4.186 8.435 -4.864 c-0.37 -0.185 -1.171 -0.678 -1.603 -0.925 z M46.782 20.519 c-1.117 0.764 -3.267 2.192 -4.632 3.103 c-0.563 0.376 -1.907 1.119 -1.878 1.713 c0.014 0.284 0.554 0.823 3.021 -0.073 c1.534 -0.628 3.391 -1.905 4.968 -4.188 c-0.308 -0.094 -1.11 -0.371 -1.479 -0.555 z M49.555 21.443 c-0.578 0.578 -1.325 1.368 -2.056 2.096 c-0.673 0.868 -2.173 1.493 -1.657 2.496 c0.559 1.086 2.319 -0.477 2.953 -1.075 c0.896 -0.847 1.761 -1.966 2.086 -3.086 c-0.432 -0.123 -0.925 -0.246 -1.326 -0.431 z" style="fill:white;" />
  <path d="M28.106 3.199 c1.603 0 7.026 0.37 8.999 0.37 c5.668 0 13.338 -1 18.61 0.083 c3.277 0.673 3.747 1.622 3.747 2.642 c0 1.327 -1.109 2.124 -1.895 2.7 c-0.924 0.678 -3.76 2.342 -3.883 6.657 c-0.739 -0.308 -1.787 -0.493 -1.047 -2.034 c1.291 -2.583 4.194 -5.729 -0.771 -7.069 c-0.783 -0.211 -1.748 -0.349 -2.927 -0.389 c-3.636 -0.123 -8.909 -0.15 -10.697 -0.458 c-1.787 -0.308 -8.534 -1.884 -9.951 -2.068 c-0.617 -0.065 -0.617 -0.373 -0.185 -0.434 z" style="fill:white;" />
  <path d="M42.355 6.947 c1.294 0 5.257 -0.027 6.586 0.036 c3.676 0.175 6.301 1.966 3.646 5.327 c-0.52 0.657 -1.91 2.034 -2.465 2.527 c-0.493 0.37 -1.418 -0.247 -0.617 -1.171 c-1.048 0.616 -2.342 0.493 -1.726 -0.924 c-0.925 0.74 -2.465 0.801 -1.541 -1.109 c-0.616 0.493 -2.342 0.432 -1.233 -1.048 c-0.924 0.308 -1.972 -0.247 -1.294 -1.171 c-1.171 0.186 -1.849 -0.678 -0.616 -1.355 c-1.171 0.305 -1.479 -1.051 -0.74 -1.112 z M38.739 6.292 c-0.499 -0.032 -2.664 -0.384 -2.612 0.783 c0.052 1.168 2.457 0.727 2.951 0.635 c0.91 -0.169 1.637 -0.447 1.616 -0.824 c-0.021 -0.387 -0.969 -0.532 -1.955 -0.594 z M38.827 8.293 c-0.526 0.04 -2.417 -0.053 -2.122 1.015 c0.093 0.336 0.788 1.016 3.113 0.451 c1.019 -0.248 1.547 -0.794 1.547 -1.228 c0 -0.379 -1.37 -0.327 -2.538 -0.238 z M40.32 10.027 c-0.374 0.062 -2.542 0.21 -2.179 1.303 c0.254 0.762 0.644 0.521 1.305 0.6 c0.436 0.052 3.666 -0.858 3.161 -1.894 c-0.15 -0.308 -1.1 -0.204 -2.287 -0.009 z M41.392 11.576 c-2.15 0.873 -2.122 1.464 -2.024 1.783 c0.097 0.32 1.083 0.715 3.123 -0.282 c1.033 -0.505 1.046 -1.079 0.792 -1.485 c-0.317 -0.509 -1.119 -0.33 -1.891 -0.016 z M42.897 13.044 c-2.238 0.78 -2.11 1.492 -1.933 1.91 c0.195 0.462 0.902 0.954 2.77 -0.236 c1.128 -0.718 1.862 -1.32 1.661 -1.798 c-0.182 -0.434 -1.249 -0.321 -2.498 0.124 z M43.773 15.286 c-0.587 0.356 -0.854 0.838 -0.484 1.387 c0.662 0.984 2.614 -0.752 3.104 -1.283 c0.364 -0.394 0.597 -0.808 0.391 -1.111 c-0.213 -0.312 -0.875 -0.288 -3.011 1.007 z M47.307 15.453 c-2.606 1.329 -2.356 1.973 -1.993 2.248 c0.401 0.304 1.346 0.623 2.926 -1.203 c0.693 -0.8 0.312 -1.676 -0.933 -1.045 z M48.608 16.847 c-0.55 0.615 -1.839 1.542 -0.841 2.233 c0.841 0.582 1.334 -0.057 1.748 -0.453 c2.394 -2.303 1.602 -3.761 -0.907 -1.78 z" style="fill:white;" />
  <path d="M56.472 4.775 c1.83 0.915 2.587 1.887 0.708 3.215 c-0.23 0.162 0.054 0.565 0.284 0.403 c2.068 -1.46 1.623 -2.975 -0.771 -4.059 c-0.252 -0.126 -0.472 0.315 -0.221 0.441 z" />
  <path d="M81.59 25.638 c0 -1.966 -2.025 -3.932 -4.274 -4.61 c-0.601 -0.136 -0.506 -0.67 -0.038 -0.881 c0.45 -0.204 3.075 -2.034 3.038 -4.339 c0 -2.237 -2.626 -5.627 -10.276 -5.627 c-4.5 0 -8.25 1.017 -10.5 2.916 c0.524 0.407 1.125 1.017 1.125 1.695 v12.407 c-0.075 0.746 -0.45 1.356 -1.051 2.034 c2.02 1.434 5.637 2.802 10.83 2.785 c5.55 -0.136 11.146 -1.77 11.146 -6.38 z" style="fill:white;" />
  <ellipse cx="70.42" cy="16.214" rx="4.322" ry="3.452" />
  <ellipse cx="70.977" cy="25.57" rx="4.845" ry="3.644" />
  <path d="M51.644 19.617 c0.169 -0.841 0.44 -1.658 0.802 -2.443 c-0.021 -0.031 -0.662 -0.851 -2.241 1.431 c-0.872 1.259 0.668 1.766 1.439 1.012 z M51.593 23.493 c-0.65 0.755 -1.263 1.389 -1.668 1.895 c-0.846 1.058 1.355 2.362 2.541 0.858 a10.977 10.977 0 0 1 -0.873 -2.753 z M81.929 3.771 a6.226 6.226 0 0 1 1.096 -0.488 c-7.892 -3.72 -17.629 -3.72 -25.52 0 c0.41 0.142 0.778 0.304 1.095 0.488 c7.308 -3.183 16.085 -3.155 23.329 0 z" style="fill:white;" />
  <path d="M85.562 13.558 c-0.886 -3.082 -3.098 -4.336 -3.956 -4.936 c-1.725 -1.205 -1.631 -2.986 -0.157 -4.521 c-7.043 -2.969 -15.408 -2.935 -22.368 0 c1.474 1.535 1.567 3.316 -0.157 4.521 c-0.858 0.6 -3.071 1.854 -3.956 4.936 c7.523 -7.753 23.071 -7.754 30.594 0 z M91.591 26.99 c-0.726 1.657 -3.017 1.312 -4.388 0.795 c-1.83 2.784 -4.874 5.05 -8.623 6.419 l2.978 5.046 c5.787 -2.521 10.07 -6.741 11.96 -11.71 a5.981 5.981 0 0 1 -1.927 -0.55 z" style="fill:white;" />
  <path d="M81.989 40.56 c6.389 -2.698 11.086 -7.418 13.03 -13.076 a4.28 4.28 0 0 1 -0.987 0.091 c-1.905 5.147 -6.304 9.521 -12.254 12.118 a2.6 2.6 0 0 1 0.211 0.867 z M78.645 40.711 l0.004 0.009 c0.947 2.33 3.756 0.982 2.485 -1.218 l-3.027 -5.13 c-0.555 0.188 -1.123 0.356 -1.706 0.506 c-0.012 0.079 2.212 5.727 2.244 5.833 z M75.444 41.436 c0.587 2.331 3.396 1.62 2.735 -0.562 c0 0 -2.28 -5.543 -2.406 -5.846 c-0.571 0.13 -1.154 0.24 -1.747 0.329 c-0.006 0.022 1.418 6.079 1.418 6.079 z M72.146 41.804 c0.209 2.508 3.287 2.073 2.735 -0.425 c0.001 0.002 -1.374 -5.935 -1.38 -5.948 c-0.578 0.073 -1.165 0.129 -1.759 0.163 c-0.02 0.054 0.402 6.16 0.404 6.21 z M138.502 3.687 c-0.276 -0.211 -0.87 -0.2 -1.621 -0.242 c-3.821 0 -12.697 0.247 -14.423 0.247 s-13.93 1.356 -15.84 1.973 c-0.863 0.247 -1.048 1.109 0 1.171 c1.048 0.062 14.075 0.248 15.924 0.248 c1.435 0 8.894 -0.025 13.204 -0.88 c2.334 -0.463 3.586 -1.885 2.756 -2.517 z M134.304 8.252 c-2.219 0.062 -13.312 0.124 -14.607 0.062 c-1.294 -0.062 -11.341 -0.616 -12.512 -0.678 c-2.533 -0.133 -3.354 0.995 -0.678 1.603 c1.355 0.309 13.868 1.726 23.359 1.541 c1.787 0.062 4.191 -0.863 4.808 -1.726 s-0.061 -0.802 -0.37 -0.802 z M129.99 12.321 c-1.541 0 -19.723 -1.356 -23.545 -2.157 c-3.324 -0.506 -2.574 1.202 -1.232 1.479 c1.128 0.233 14.607 2.835 21.449 2.958 c2.28 -0.061 4.93 -2.219 3.328 -2.28 z M125.368 16.142 c-2.157 -0.247 -16.519 -2.527 -20.401 -3.575 c-3.512 -0.91 -2.804 1.424 -1.541 1.788 c1.123 0.324 13.362 3.303 16.148 3.452 a14.781 14.781 0 0 0 3.528 -0.238 c3.936 -0.787 2.266 -1.427 2.266 -1.427 z M119.574 19.347 c-1.541 -0.308 -14.053 -3.144 -17.628 -4.499 c-1.741 -0.607 -2.266 1.104 -1.171 1.602 c0.678 0.308 10.293 4.314 14.854 4.561 c1.664 0 4.742 -0.896 3.945 -1.664 z M99.172 16.758 c1.417 0.678 10.047 4.315 13.375 5.055 c0.462 0.123 0.95 0.327 0.911 0.584 c-0.296 1.968 -6.422 0.294 -6.847 0.158 c-2.355 -0.755 -7.159 -2.518 -9.196 -4.503 c0.494 -0.246 1.634 -1.047 1.757 -1.294 z M96.583 18.854 c0.924 0.616 6.965 3.761 9.738 4.623 c1.449 0.483 -0.076 1.973 -2.906 1.166 c-3.128 -0.485 -7.695 -4.186 -8.435 -4.864 c0.371 -0.185 1.172 -0.678 1.603 -0.925 z M93.749 20.519 c1.116 0.764 3.267 2.192 4.632 3.103 c0.563 0.376 1.907 1.119 1.878 1.713 c-0.014 0.284 -0.554 0.823 -3.021 -0.073 c-1.534 -0.628 -3.391 -1.905 -4.968 -4.188 c0.307 -0.094 1.108 -0.371 1.479 -0.555 z M90.974 21.443 c0.578 0.578 1.326 1.368 2.057 2.096 c0.674 0.868 2.174 1.493 1.657 2.496 c-0.559 1.086 -2.319 -0.477 -2.952 -1.075 c-0.896 -0.847 -1.762 -1.966 -2.087 -3.086 c0.432 -0.123 0.925 -0.246 1.325 -0.431 z" style="fill:white;" />
  <path d="M112.424 3.199 c-1.603 0 -7.026 0.37 -8.999 0.37 c-5.669 0 -13.339 -1 -18.61 0.083 c-3.277 0.673 -3.747 1.622 -3.747 2.642 c0 1.327 1.108 2.124 1.894 2.7 c0.925 0.678 3.761 2.342 3.884 6.657 c0.739 -0.308 1.787 -0.493 1.048 -2.034 c-1.292 -2.583 -4.194 -5.729 0.771 -7.069 c0.783 -0.211 1.748 -0.349 2.928 -0.389 c3.636 -0.123 8.909 -0.15 10.696 -0.458 s8.534 -1.884 9.951 -2.068 c0.616 -0.065 0.616 -0.373 0.184 -0.434 z" style="fill:white;" />
  <path d="M98.174 6.947 c-1.294 0 -5.257 -0.027 -6.586 0.036 c-3.676 0.175 -6.301 1.966 -3.646 5.327 c0.52 0.657 1.91 2.034 2.465 2.527 c0.493 0.37 1.418 -0.247 0.616 -1.171 c1.049 0.616 2.343 0.493 1.727 -0.924 c0.924 0.74 2.465 0.801 1.541 -1.109 c0.616 0.493 2.342 0.432 1.232 -1.048 c0.925 0.308 1.973 -0.247 1.294 -1.171 c1.172 0.186 1.85 -0.678 0.616 -1.355 c1.173 0.305 1.481 -1.051 0.741 -1.112 z M101.791 6.292 c0.499 -0.032 2.664 -0.384 2.612 0.783 c-0.052 1.168 -2.457 0.727 -2.951 0.635 c-0.91 -0.169 -1.637 -0.447 -1.616 -0.824 c0.021 -0.387 0.969 -0.532 1.955 -0.594 z M101.704 8.293 c0.525 0.04 2.417 -0.053 2.121 1.015 c-0.093 0.336 -0.787 1.016 -3.112 0.451 c-1.02 -0.248 -1.547 -0.794 -1.547 -1.228 c0 -0.379 1.369 -0.327 2.538 -0.238 z M100.209 10.027 c0.374 0.062 2.542 0.21 2.179 1.303 c-0.254 0.762 -0.644 0.521 -1.305 0.6 c-0.436 0.052 -3.666 -0.858 -3.161 -1.894 c0.151 -0.308 1.101 -0.204 2.287 -0.009 z M99.138 11.576 c2.149 0.873 2.121 1.464 2.024 1.783 c-0.098 0.32 -1.083 0.715 -3.123 -0.282 c-1.033 -0.505 -1.047 -1.079 -0.793 -1.485 c0.318 -0.509 1.12 -0.33 1.892 -0.016 z M97.632 13.044 c2.238 0.78 2.11 1.492 1.933 1.91 c-0.195 0.462 -0.902 0.954 -2.771 -0.236 c-1.128 -0.718 -1.862 -1.32 -1.66 -1.798 c0.183 -0.434 1.249 -0.321 2.498 0.124 z M96.756 15.286 c0.587 0.356 0.854 0.838 0.484 1.387 c-0.661 0.984 -2.614 -0.752 -3.104 -1.283 c-0.363 -0.394 -0.597 -0.808 -0.391 -1.111 c0.213 -0.312 0.876 -0.288 3.011 1.007 z M93.223 15.453 c2.606 1.329 2.356 1.973 1.993 2.248 c-0.401 0.304 -1.346 0.623 -2.926 -1.203 c-0.693 -0.8 -0.312 -1.676 0.933 -1.045 z M91.921 16.847 c0.55 0.615 1.839 1.542 0.842 2.233 c-0.842 0.582 -1.335 -0.057 -1.748 -0.453 c-2.394 -2.303 -1.602 -3.761 0.906 -1.78 z" style="fill:white;" />
  <path d="M84.058 4.775 c-1.83 0.915 -2.587 1.887 -0.707 3.215 c0.229 0.162 -0.055 0.565 -0.285 0.403 c-2.067 -1.46 -1.622 -2.975 0.772 -4.059 c0.251 -0.126 0.471 0.315 0.22 0.441 z" />
  <path d="M88.886 19.617 c-0.17 -0.841 -0.44 -1.658 -0.803 -2.443 c0.021 -0.031 0.662 -0.851 2.241 1.431 c0.873 1.259 -0.667 1.766 -1.438 1.012 z M88.936 23.493 c0.65 0.755 1.264 1.389 1.669 1.895 c0.846 1.058 -1.355 2.362 -2.541 0.858 c0.411 -0.881 0.707 -1.803 0.872 -2.753 z" style="fill:white;" />
</svg>