<?xml version="1.0" encoding="UTF-8"?><svg id="Calque_2" xmlns="http://www.w3.org/2000/svg" width="118.67" height="117.74" viewBox="0 0 118.67 117.74"><defs><style>.cls-1{fill:#027cf5;}.cls-1,.cls-2{stroke-width:0px;}.cls-2{fill:#fff;}</style></defs><g id="Layer_1"><path class="cls-1" d="M118.52,49.44c-.55-3.8-2.56-7.14-5.67-9.39-3.41-2.47-5.31-6.62-4.94-10.82.33-3.83-.87-7.53-3.38-10.44s-6.01-4.62-9.85-4.83c-4.21-.24-8.04-2.7-10.01-6.43-1.79-3.4-4.8-5.87-8.49-6.95-3.68-1.08-7.56-.63-10.9,1.26-3.67,2.08-8.23,2.08-11.9,0-3.34-1.89-7.21-2.34-10.9-1.26-3.69,1.08-6.7,3.55-8.49,6.95-1.96,3.73-5.8,6.19-10.01,6.43-3.83.22-7.33,1.93-9.85,4.83s-3.72,6.61-3.38,10.44c.37,4.2-1.53,8.35-4.94,10.82-3.11,2.25-5.12,5.59-5.67,9.39-.55,3.8.44,7.57,2.79,10.61,2.58,3.34,3.23,7.85,1.69,11.77-1.4,3.58-1.29,7.47.31,10.97,1.6,3.49,4.47,6.13,8.09,7.41,3.97,1.41,6.96,4.86,7.79,8.99.76,3.77,2.96,6.98,6.19,9.06,3.23,2.08,7.07,2.74,10.81,1.87,4.1-.96,8.48.32,11.41,3.35,2.67,2.76,6.26,4.27,10.1,4.27s7.43-1.52,10.1-4.27c2.93-3.03,7.31-4.31,11.41-3.35,3.74.88,7.58.21,10.81-1.87,3.23-2.08,5.43-5.29,6.19-9.06.83-4.13,3.82-7.58,7.79-8.99,3.62-1.29,6.49-3.92,8.09-7.41,1.6-3.49,1.7-7.39.31-10.96-1.53-3.93-.88-8.44,1.69-11.78,2.35-3.04,3.34-6.81,2.79-10.61h0ZM112.17,72.55c1.2,3.07,1.1,6.41-.26,9.41s-3.83,5.26-6.94,6.36c-4.63,1.65-8.11,5.66-9.08,10.48-.65,3.23-2.54,5.99-5.31,7.77-2.77,1.78-6.07,2.35-9.27,1.6-4.79-1.12-9.88.38-13.3,3.91-2.29,2.37-5.37,3.67-8.67,3.67s-6.37-1.3-8.67-3.67c-2.67-2.76-6.36-4.27-10.13-4.27-1.06,0-2.12.12-3.17.36-3.21.75-6.5.18-9.27-1.6-2.77-1.78-4.66-4.54-5.31-7.77-.97-4.82-4.45-8.83-9.08-10.48-3.1-1.1-5.57-3.36-6.94-6.36-1.37-3-1.46-6.34-.26-9.41,1.79-4.58,1.03-9.84-1.97-13.72-2.01-2.61-2.87-5.84-2.4-9.1s2.2-6.12,4.86-8.06c3.98-2.88,6.19-7.72,5.76-12.61-.28-3.28.75-6.46,2.9-8.95,2.16-2.49,5.16-3.96,8.45-4.15,4.9-.28,9.38-3.15,11.66-7.5,1.54-2.92,4.12-5.03,7.28-5.96,3.16-.93,6.48-.54,9.35,1.08,4.28,2.42,9.59,2.42,13.87,0h0c2.87-1.62,6.19-2.01,9.35-1.08,3.16.93,5.75,3.05,7.28,5.96,2.29,4.35,6.76,7.22,11.66,7.5,3.29.19,6.29,1.66,8.45,4.15,2.16,2.49,3.19,5.67,2.9,8.95-.43,4.9,1.78,9.73,5.76,12.61,2.67,1.93,4.4,4.79,4.86,8.06.47,3.26-.38,6.49-2.4,9.1-3.01,3.89-3.76,9.15-1.97,13.72h0Z"/><path class="cls-1" d="M107.91,42.34h0c-3.41-2.47-5.28-6.56-4.91-10.75.59-6.75-4.52-12.64-11.28-13.02h0c-4.21-.24-7.98-2.66-9.95-6.39h0c-3.15-5.99-10.64-8.19-16.53-4.85-3.67,2.08-8.16,2.08-11.82,0-5.89-3.34-13.38-1.14-16.53,4.85h0c-1.96,3.73-5.74,6.16-9.95,6.39-6.76.38-11.87,6.27-11.28,13.02.37,4.2-1.5,8.28-4.91,10.75h0c-5.48,3.97-6.59,11.69-2.45,17.05h0c2.58,3.33,3.22,7.78,1.68,11.7h0c-2.46,6.31.78,13.4,7.16,15.67h0c3.97,1.41,6.91,4.8,7.74,8.94,1.34,6.64,7.9,10.85,14.49,9.31h0c4.1-.96,8.41.31,11.34,3.33,4.71,4.86,12.51,4.86,17.23,0,2.93-3.02,7.24-4.29,11.34-3.33,6.59,1.54,13.16-2.68,14.49-9.31.83-4.13,3.77-7.52,7.74-8.93,6.38-2.27,9.62-9.36,7.16-15.67h0c-1.53-3.93-.9-8.37,1.68-11.7h0c4.14-5.36,3.03-13.08-2.45-17.05h0Z"/><path class="cls-2" d="M47.51,38.42h-6.03v3.87h5.04c.47,0,.82.11,1.05.31.23.21.35.49.35.84s-.12.63-.35.84-.58.31-1.04.31h-5.04v4.98c0,.63-.14,1.1-.43,1.41-.29.31-.65.46-1.1.46s-.82-.15-1.11-.46c-.29-.31-.43-.78-.43-1.4v-11.64c0-.44.07-.8.2-1.08.13-.28.34-.48.61-.61.28-.13.64-.19,1.07-.19h7.22c.49,0,.85.11,1.09.33.24.21.36.5.36.85s-.12.64-.36.86c-.24.21-.6.32-1.09.32h0Z"/><path class="cls-2" d="M57.89,35.8c1.57,0,2.92.32,4.04.96,1.13.64,1.98,1.54,2.55,2.71.58,1.17.87,2.55.87,4.13,0,1.17-.16,2.23-.47,3.19s-.79,1.79-1.42,2.49-1.41,1.24-2.33,1.61-1.98.56-3.17.56-2.24-.19-3.18-.57c-.93-.38-1.72-.92-2.34-1.61s-1.1-1.53-1.42-2.51c-.32-.98-.48-2.03-.48-3.17s.17-2.23.5-3.2.82-1.79,1.45-2.48c.63-.68,1.4-1.2,2.31-1.56.91-.36,1.94-.54,3.1-.54h0ZM62.24,43.58c0-1.11-.18-2.07-.54-2.88-.36-.81-.87-1.43-1.53-1.84s-1.43-.62-2.28-.62c-.61,0-1.18.12-1.7.35-.52.23-.97.57-1.34,1.01s-.67,1-.89,1.69c-.21.68-.32,1.45-.32,2.31s.11,1.64.32,2.33c.22.69.52,1.27.92,1.73.39.46.85.8,1.36,1.03.51.23,1.07.34,1.69.34.78,0,1.5-.2,2.16-.59s1.18-1,1.57-1.82.58-1.83.58-3.02h0Z"/><path class="cls-2" d="M72.09,44.71h-1.07v4.86c0,.64-.14,1.11-.42,1.41s-.65.45-1.1.45c-.49,0-.87-.16-1.14-.47s-.4-.78-.4-1.39v-11.64c0-.66.15-1.14.44-1.43s.77-.44,1.43-.44h4.98c.69,0,1.28.03,1.76.09.49.06.93.18,1.32.36.47.2.89.49,1.26.86s.64.8.83,1.29.28,1.01.28,1.56c0,1.13-.32,2.03-.95,2.7-.64.67-1.6,1.15-2.89,1.43.54.29,1.06.71,1.56,1.28s.94,1.17,1.32,1.8c.39.64.69,1.21.91,1.72.22.51.33.86.33,1.06s-.06.4-.19.59c-.13.19-.3.35-.52.46-.22.11-.47.17-.76.17-.34,0-.63-.08-.87-.24-.23-.16-.44-.37-.6-.61s-.4-.61-.68-1.09l-1.23-2.04c-.44-.75-.83-1.32-1.18-1.71s-.7-.66-1.06-.81-.81-.22-1.35-.22h0ZM73.84,38.36h-2.83v4.16h2.74c.74,0,1.36-.06,1.86-.19s.89-.34,1.15-.65c.26-.31.4-.73.4-1.26,0-.42-.11-.79-.32-1.11-.21-.32-.51-.56-.89-.72-.36-.15-1.06-.23-2.12-.23Z"/><path class="cls-2" d="M37.6,73.05c0,1.32-.34,2.5-1.02,3.55-.68,1.05-1.67,1.87-2.98,2.46-1.31.59-2.86.89-4.65.89-2.15,0-3.92-.41-5.32-1.22-.99-.58-1.79-1.36-2.41-2.34-.62-.97-.93-1.92-.93-2.84,0-.53.19-.99.56-1.37.37-.38.85-.57,1.42-.57.47,0,.86.15,1.18.44.32.3.6.74.82,1.32.28.69.58,1.27.9,1.74.32.46.77.85,1.36,1.15.58.3,1.35.45,2.3.45,1.31,0,2.37-.31,3.18-.91.82-.61,1.23-1.37,1.23-2.28,0-.72-.22-1.31-.66-1.76s-1.01-.79-1.71-1.03c-.7-.24-1.63-.49-2.8-.76-1.56-.37-2.87-.79-3.93-1.29-1.05-.49-1.89-1.16-2.51-2-.62-.85-.93-1.9-.93-3.16s.33-2.26.98-3.19,1.6-1.64,2.84-2.14,2.69-.75,4.36-.75c1.34,0,2.49.17,3.47.5.97.33,1.78.77,2.43,1.32.64.55,1.11,1.12,1.41,1.73s.44,1.19.44,1.77c0,.53-.18,1-.56,1.42-.37.42-.83.63-1.39.63-.5,0-.89-.13-1.15-.38-.26-.25-.55-.67-.86-1.24-.4-.82-.87-1.46-1.43-1.92-.55-.46-1.44-.69-2.67-.69-1.14,0-2.06.25-2.75.75-.7.5-1.05,1.1-1.05,1.81,0,.44.12.81.36,1.13s.56.59.98.82.84.41,1.26.53,1.13.32,2.11.56c1.23.29,2.34.6,3.33.95.99.35,1.84.77,2.54,1.26.7.5,1.24,1.12,1.63,1.88.39.76.59,1.69.59,2.79h0Z"/><path class="cls-2" d="M55.27,77.12l-1.04-2.73h-8.85l-1.04,2.79c-.41,1.09-.75,1.82-1.04,2.2-.29.38-.76.57-1.41.57-.55,0-1.04-.2-1.47-.61s-.64-.87-.64-1.38c0-.3.05-.6.15-.92s.26-.76.49-1.32l5.57-14.13c.16-.41.35-.89.57-1.46.22-.57.46-1.04.71-1.42.25-.38.58-.68.99-.91.41-.23.92-.35,1.52-.35s1.12.12,1.54.35c.41.23.74.53,1,.9.25.37.46.76.64,1.18.17.42.39.98.66,1.69l5.69,14.04c.44,1.07.67,1.85.67,2.33s-.21.97-.63,1.39c-.42.42-.93.63-1.52.63-.35,0-.64-.06-.89-.19s-.46-.29-.62-.5c-.17-.21-.35-.54-.54-.98-.19-.44-.36-.83-.5-1.17h0ZM46.54,71.07h6.5l-3.28-8.98-3.22,8.98Z"/><path class="cls-2" d="M67.53,60.12v15.84h8.94c.71,0,1.26.17,1.64.52.38.35.57.78.57,1.31s-.19.97-.56,1.3c-.38.33-.93.5-1.65.5h-10.64c-.96,0-1.65-.21-2.07-.64s-.63-1.11-.63-2.06v-16.76c0-.89.2-1.56.6-2,.4-.44.93-.67,1.58-.67s1.2.22,1.61.66c.41.44.61,1.11.61,2.01h0Z"/><path class="cls-2" d="M95.92,61.22h-9.93v5.35h9.15c.67,0,1.18.15,1.51.45s.5.7.5,1.19-.16.9-.49,1.21c-.33.31-.83.47-1.51.47h-9.15v6.19h10.27c.69,0,1.21.16,1.57.48.35.32.53.75.53,1.29s-.18.93-.53,1.25-.87.48-1.57.48h-11.98c-.96,0-1.65-.21-2.07-.64s-.63-1.11-.63-2.06v-16.36c0-.63.09-1.15.28-1.55.19-.4.48-.69.88-.88.4-.18.91-.27,1.54-.27h11.64c.7,0,1.22.15,1.57.47.34.31.51.72.51,1.22s-.17.93-.51,1.24c-.34.31-.86.47-1.57.47h0Z"/></g></svg>