<?xml version="1.0" encoding="UTF-8"?>
<svg id="Layer_2" data-name="Layer 2" xmlns="http://www.w3.org/2000/svg" width="204" height="204" viewBox="0 0 102.69 102.87">
  <defs>
    <style>
      .cls-1 {
        fill: #333;
        fill-rule: evenodd;
        stroke-width: 0px;
      }
    </style>
  </defs>
  <g id="Layer_1-2" data-name="Layer 1">
    <path class="cls-1" d="m51.35,0c-14.15,0-27.03,5.8-36.29,15.06C5.62,24.31,0,37.19,0,51.34s5.62,27.03,15.06,36.47c9.25,9.26,22.14,15.07,36.29,15.07s27.03-5.81,36.28-15.07c9.26-9.43,15.06-22.13,15.06-36.47s-5.81-27.03-15.06-36.28C78.38,5.8,65.5,0,51.35,0h0Zm5.99,29.75l-21.23,21.23c-.18.18-.18.54,0,.91l21.23,21.23c.18.18.73.18.91,0l4.72-4.71-16.69-16.51c-.18-.37-.18-.73,0-.91l16.69-16.51-4.72-4.72c-.18-.18-.73-.18-.91,0h0Z"/>
  </g>
</svg>
