<?xml version="1.0" encoding="UTF-8"?><svg id="Calque_2" xmlns="http://www.w3.org/2000/svg" width="137.94" height="67.17" viewBox="0 0 137.94 67.17"><defs><style>.cls-1{fill:#000;}.cls-1,.cls-2{stroke-width:0px;}.cls-2{fill:#fff;}</style></defs><g id="Layer_1"><path class="cls-1" d="M129.65,14.75h-27.26V4h33.54c1.1,0,2-.9,2-2s-.9-2-2-2H2C.9,0,0,.9,0,2s.9,2,2,2h33.54v10.75H8.28C3.71,14.75,0,18.46,0,23.03v35.85c0,4.57,3.71,8.28,8.28,8.28h121.37c4.57,0,8.28-3.71,8.28-8.28V23.03c0-4.57-3.71-8.28-8.28-8.28h0ZM39.54,4h58.86v10.75h-58.86s0-10.75,0-10.75Z"/><path class="cls-2" d="M24.59,37.01c-.27-.94-.67-1.86-1.09-2.33-.52-.54-.84-.64-2.03-.64h-1.86c-.84,0-.94.05-.94.89v5.4h2.65c1.46,0,1.66-.37,2.03-2.11h.92v5.5h-.94c-.27-1.68-.65-2.11-2.01-2.11h-2.65v3.86c0,2.28.15,2.45,2.38,2.6v.92h-7.93v-.92c1.88-.17,2.11-.32,2.11-2.6v-9.12c0-2.21-.22-2.4-2.11-2.55v-.92h8.4c2.13,0,3.37-.03,3.77-.05.03.42.15,2.55.27,4.01l-.97.15h0Z"/><path class="cls-2" d="M36.08,32.55c4.58,0,8.33,3.35,8.33,8.23,0,5.28-3.77,8.6-8.45,8.6-4.96,0-8.55-3.62-8.55-8.4,0-4.24,3.02-8.42,8.67-8.42h0ZM35.71,33.64c-2.53,0-4.39,2.48-4.39,6.86s1.66,7.78,5.01,7.78c2.35,0,4.19-2.28,4.19-6.81,0-4.91-1.93-7.83-4.81-7.83Z"/><path class="cls-2" d="M62.15,49.15c-.15,0-.45,0-.74-.03-3.15-.15-4.06-.82-4.81-1.86-.99-1.36-1.71-2.87-2.55-4.36-.37-.67-.72-.82-1.51-.82l-.5-.02v3.62c0,2.01.25,2.18,2.11,2.4v.92h-7.58v-.92c1.88-.2,2.11-.4,2.11-2.4v-9.49c0-1.96-.25-2.23-2.11-2.38v-.92h7.19c2.21,0,3.47.25,4.49.94.99.67,1.66,1.76,1.66,3.29,0,2.21-1.46,3.37-3.1,4.01.37.74,1.34,2.36,2.08,3.49.87,1.36,1.41,2.03,1.88,2.58.57.64.84.84,1.56,1.09l-.17.84h0ZM52.71,41.05c1.07,0,1.88-.18,2.43-.64.82-.69,1.16-1.64,1.16-2.9,0-2.63-1.51-3.57-2.9-3.57-.67,0-.99.1-1.14.25-.17.15-.22.45-.22.94v5.92h.67Z"/><path class="cls-2" d="M77.45,36.98c-.5-1.59-1.19-3.39-3.47-3.39-1.44,0-2.38,1.02-2.38,2.4s.92,2.18,3.1,3.27c2.65,1.31,4.34,2.6,4.34,5.06,0,2.93-2.43,5.06-5.97,5.06-1.59,0-3-.42-4.16-.77-.15-.57-.57-3.15-.74-4.31l.97-.22c.5,1.56,1.88,4.26,4.31,4.26,1.51,0,2.43-.94,2.43-2.53,0-1.44-.89-2.28-2.97-3.39-2.58-1.39-4.26-2.63-4.26-5.2s2.03-4.66,5.75-4.66c1.71,0,3,.37,3.54.44.1.92.27,2.21.47,3.77l-.94.22h0Z"/><path class="cls-2" d="M88.85,49v-.92c1.56-.22,1.56-.5,1.21-1.56-.25-.74-.64-1.86-1.02-2.85h-4.83c-.27.77-.62,1.71-.87,2.48-.52,1.56.07,1.76,2.03,1.93v.92h-6.12v-.92c1.56-.2,1.96-.42,2.8-2.5l5.15-12.81,1.19-.22c1.59,4.31,3.27,8.72,4.88,12.86.92,2.3,1.14,2.48,2.75,2.68v.92h-7.19ZM86.67,37.16c-.72,1.78-1.41,3.44-2.03,5.25h3.94s-1.91-5.25-1.91-5.25Z"/><path class="cls-2" d="M110.05,44.64c-.2,1.07-.89,3.69-1.11,4.36h-12.29v-.92c2.18-.15,2.38-.32,2.38-2.4v-9.44c0-2.08-.25-2.28-2.11-2.43v-.92h7.73v.92c-1.93.17-2.18.35-2.18,2.43v9.61c0,1.36.05,1.98,1.41,2.01.05.02,1.19.02,1.29.02,1.41,0,1.79-.3,2.38-.97.47-.5,1.12-1.56,1.56-2.58l.94.3h0Z"/><path class="cls-2" d="M124.82,44.79c-.12.67-.82,3.52-1.04,4.21h-12.86v-.89c2.26-.22,2.4-.35,2.4-2.43v-9.47c0-2.11-.3-2.25-1.98-2.4v-.92h8.05c2.6,0,3.47-.03,3.82-.05.03.45.15,2.48.25,4.01l-.97.12c-.22-.84-.65-1.86-1.07-2.31-.45-.5-.77-.64-2.03-.64h-1.61c-.94,0-1.04.05-1.04.89v5.18h2.43c1.39,0,1.64-.37,2.01-2.13h.97v5.53h-.97c-.4-1.83-.59-2.13-2.03-2.13h-2.4v4.26c0,1.71.05,2.23,1.59,2.25h1.76c1.39,0,1.76-.17,2.3-.84.62-.72,1.11-1.63,1.51-2.48l.92.22h0Z"/></g></svg>