<?xml version="1.0" encoding="UTF-8"?><svg id="Calque_2" xmlns="http://www.w3.org/2000/svg" width="148.19" height="45.92" viewBox="0 0 148.19 45.92"><defs><style>.cls-1{fill:#e62e2e;}.cls-1,.cls-2,.cls-3{stroke-width:0px;}.cls-4,.cls-3{isolation:isolate;}.cls-2{fill:#fff;}.cls-3{fill:#000;mix-blend-mode:multiply;opacity:.5;}</style></defs><g id="Calque_1-2"><g class="cls-4"><g id="Layer_1"><polygon class="cls-1" points="142.52 25.08 142.52 25.08 148.19 7.2 139.45 6.89 139.45 6.89 138.29 0 42.09 3.37 3.37 1.97 6.82 18.75 0 37.08 10.73 37.73 10.73 37.73 11.78 42.84 76.98 41.74 146.03 45.92 142.52 25.08"/><polygon class="cls-2" points="19.86 16.59 16.63 16.59 16.63 29.32 25.13 29.32 25.13 26.72 19.86 26.72 19.86 16.59"/><rect class="cls-2" x="26.61" y="16.59" width="3.24" height="12.73"/><polygon class="cls-2" points="38.78 24.9 38.72 24.9 35.53 16.59 31.78 16.59 31.78 29.32 34.63 29.32 34.63 21.38 34.7 21.38 37.82 29.32 39.67 29.32 42.78 21.38 42.85 21.38 42.85 29.32 45.7 29.32 45.7 16.59 41.96 16.59 38.78 24.9"/><rect class="cls-2" x="47.62" y="16.59" width="3.24" height="12.73"/><polygon class="cls-2" points="52.24 19.2 55.75 19.2 55.75 29.32 58.99 29.32 58.99 19.2 62.49 19.2 62.49 16.59 52.24 16.59 52.24 19.2"/><polygon class="cls-2" points="63.86 29.32 72.58 29.32 72.58 26.72 67.09 26.72 67.09 24.14 72.25 24.14 72.25 21.71 67.09 21.71 67.09 19.2 72.58 19.2 72.58 16.59 63.86 16.59 63.86 29.32"/><path class="cls-2" d="M82.87,17.32c-.91-.48-2-.72-3.28-.72h-5.18v12.73h5.18c1.28,0,2.38-.25,3.29-.76s1.6-1.24,2.09-2.21c.48-.96.72-2.12.72-3.47v-.02c0-1.35-.24-2.5-.72-3.43-.48-.93-1.18-1.64-2.09-2.12ZM82.38,22.89c0,.85-.12,1.55-.36,2.12-.25.57-.61.99-1.09,1.27-.48.29-1.07.43-1.77.43h-1.51v-7.51h1.51c.68,0,1.26.14,1.74.42s.85.69,1.11,1.24c.25.55.38,1.22.38,2.01v.02h0Z"/><polygon class="cls-2" points="90.2 19.2 93.72 19.2 93.72 29.32 96.95 29.32 96.95 19.2 100.45 19.2 100.45 16.59 90.2 16.59 90.2 19.2"/><rect class="cls-2" x="101.82" y="16.59" width="3.24" height="12.73"/><polygon class="cls-2" points="113.99 24.9 113.93 24.9 110.74 16.59 106.99 16.59 106.99 29.32 109.84 29.32 109.84 21.38 109.91 21.38 113.03 29.32 114.88 29.32 117.99 21.38 118.06 21.38 118.06 29.32 120.91 29.32 120.91 16.59 117.17 16.59 113.99 24.9"/><polygon class="cls-2" points="131.56 19.2 131.56 16.59 122.84 16.59 122.84 29.32 131.56 29.32 131.56 26.72 126.07 26.72 126.07 24.14 131.23 24.14 131.23 21.71 126.07 21.71 126.07 19.2 131.56 19.2"/><polygon class="cls-3" points="0 37.08 10.73 37.73 6.82 18.75 0 37.08"/><polygon class="cls-3" points="138.29 0 42.09 3.37 139.45 6.89 138.29 0"/><polygon class="cls-3" points="142.52 25.08 137.56 40.71 76.98 41.74 146.03 45.92 142.52 25.08"/></g></g></g></svg>