<?xml version="1.0" encoding="UTF-8"?><svg id="Calque_2" xmlns="http://www.w3.org/2000/svg" width="122.91" height="106.05" viewBox="0 0 122.91 106.05"><defs><style>.cls-1{fill:#34ad5c;}.cls-1,.cls-2,.cls-3{stroke-width:0px;}.cls-4,.cls-3{isolation:isolate;}.cls-2{fill:#fff;}.cls-3{fill:#000;mix-blend-mode:multiply;opacity:.5;}</style></defs><g id="Calque_1-2"><g class="cls-4"><g id="Layer_1"><path class="cls-1" d="M64.53.27C-12.55-5.54-28.77,84.14,61.16,86.96c11.46.96,1.52,19.09,1.52,19.09,0,0,56.55-13.09,60.09-55.28C125.09,23.15,97.74,3.06,64.53.27h0Z"/><path class="cls-2" d="M14.77,30.28s0-.01,0-.02c1.5-4.97,5.47-8.42,9.38-8.93,3.28-.43,4.83,1.96,4.23,5.55-.02.08-.03.12-.04.2-1.35.1-2.03.15-3.39.27,0-.04,0-.06.02-.1.22-1.67-.5-2.74-1.98-2.58-1.88.2-3.75,2.2-4.57,5.25,0,0,0,.01,0,.02-.83,3.07.12,4.87,2.14,4.77,1.58-.08,2.85-1.23,3.41-2.91.02-.05.03-.07.04-.12,1.39-.08,2.09-.12,3.49-.2-.01.07-.02.11-.03.18-.84,3.66-3.63,6.27-7.38,6.4-4.38.15-6.81-2.8-5.32-7.78h0Z"/><path class="cls-2" d="M29.82,29.13s0-.01,0-.02c.96-5.34,4.5-8.93,8.42-9.22,3.91-.29,5.92,3.05,5.44,8.6,0,.01,0,.01,0,.02-.48,5.56-3.37,9.04-7.78,9.12-4.42.09-7.05-3.15-6.08-8.5h0ZM40.04,28.63s0-.01,0-.02c.36-3.26-.58-5.29-2.47-5.17-1.9.12-3.62,2.27-4.11,5.47v.02c-.5,3.21.66,5.22,2.71,5.16,2.02-.06,3.51-2.18,3.87-5.45h0Z"/><path class="cls-2" d="M47.07,19.84c1.52-.06,2.28-.08,3.79-.12.96,4.65,1.57,6.99,2.87,11.68.07,0,.11,0,.19,0,1.46-4.7,2.18-7.05,3.43-11.75,1.51,0,2.27,0,3.78.03.28,6.92.37,10.37.46,17.29-1.31,0-1.96,0-3.26,0-.01-4.41-.03-6.61-.06-11.02h-.2c-1.23,4.41-1.91,6.61-3.27,11.02-.85,0-1.27,0-2.12,0-1.27-4.4-1.88-6.59-2.9-10.96-.08,0-.11,0-.19,0-.24,4.39-.33,6.59-.43,10.98-1.31.01-1.96.02-3.27.03.23-6.87.46-10.3,1.18-17.17h0Z"/><path class="cls-2" d="M64.24,19.74c1.33.04,2,.06,3.33.11.73,6.87.97,10.3,1.2,17.17-1.49-.02-2.23-.02-3.72-.04-.16-6.9-.32-10.34-.82-17.24h0Z"/><path class="cls-2" d="M70.66,19.99c1.06.06,1.6.08,2.66.15,2.82,3.95,4.3,5.92,7.19,9.79.07,0,.11,0,.18,0-.53-3.76-.88-5.64-1.74-9.39,1.26.11,1.89.16,3.16.28,1.75,6.6,2.33,9.9,2.89,16.5-1.18-.03-1.77-.05-2.95-.08-2.73-3.85-4.17-5.81-6.98-9.76-.07,0-.1,0-.17,0,.47,3.85.64,5.78.85,9.63-1.41-.03-2.11-.04-3.53-.06-.3-6.83-.62-10.24-1.56-17.07h0Z"/><path class="cls-2" d="M86.57,29.23s0-.01,0-.02c-1.03-5.3.29-8.34,4.21-7.82,3.18.42,6.58,2.98,8.05,6.13.02.04.03.06.05.11-1.38-.15-2.07-.23-3.45-.37-.02-.04-.03-.06-.05-.1-.71-1.34-2.05-2.29-3.41-2.43-1.92-.21-2.46,1.57-1.77,4.69,0,0,0,.01,0,.02.71,3.18,2.32,5.2,4.42,5.31,1.67.09,2.65-.91,2.37-2.5-.02-.1-.03-.15-.05-.26-1.04-.08-1.56-.11-2.6-.19-.24-1.1-.37-1.65-.66-2.76,2.4.2,3.59.31,5.99.55.25.79.37,1.18.58,1.97,1.16,4.19-1.1,6.65-5.24,6.51-4.5-.16-7.39-3.47-8.43-8.84Z"/><path class="cls-2" d="M15.03,61.27c-.04-.11-.06-.17-.1-.28,1.97.2,2.95.29,4.91.47.02.06.03.09.05.14.54,1.42,2.23,2.58,4.26,2.78,1.96.19,2.98-.77,2.65-2.27,0,0,0-.01,0-.02-.29-1.32-1.31-2-3.83-2.7-.89-.25-1.34-.37-2.23-.61-4.57-1.25-7.11-3.6-7.57-7.06,0,0,0,0,0-.02-.57-4.35,3.15-7.17,8.09-7.18,5.39-.01,8.26,3.02,8.89,7.28.01.08.02.12.03.2-2.01-.05-3.01-.07-5.02-.13-.02-.08-.03-.12-.05-.2-.35-1.48-1.73-2.48-3.71-2.51-1.96-.04-3.06.87-2.92,2.24,0,0,0,.01,0,.02.14,1.3,1.22,2.05,3.57,2.65.9.22,1.35.33,2.24.56,4.61,1.16,6.82,3.3,7.49,7.18,0,0,0,.01,0,.02.86,4.92-1.24,7.81-6.23,7.19-4.72-.59-8.96-3.6-10.54-7.74h0Z"/><path class="cls-2" d="M34.12,57.32s0-.02,0-.03c-.87-7.88,3.47-12.79,9.93-12.8,6.45,0,10.57,5.06,10.66,13.22v.04c.1,8.17-3.4,13.24-9.1,12.98-5.72-.26-10.62-5.5-11.5-13.4h0ZM49.3,57.69s0-.02,0-.04c-.18-4.81-2.2-7.91-5.2-7.93-3.01-.02-4.98,3-4.58,7.73,0,.01,0,.02,0,.03.4,4.75,2.7,7.89,5.52,7.98,2.78.1,4.44-2.96,4.26-7.78h0Z"/><path class="cls-2" d="M57.67,57.74v-.04c.02-8.16,4.15-13.23,10.62-13.22,6.45,0,10.77,4.94,9.98,12.87,0,.01,0,.02,0,.03-.79,7.95-5.6,13.19-11.29,13.41-5.72.22-9.32-4.88-9.3-13.06h0ZM72.85,57.55s0-.02,0-.03c.35-4.75-1.61-7.79-4.61-7.77-3.01.02-5.05,3.12-5.18,7.94v.04c-.13,4.83,1.56,7.91,4.39,7.82,2.78-.08,5.05-3.22,5.4-7.99Z"/><path class="cls-2" d="M82.93,45.16h4.36c3.58,5.36,5.22,7.96,7.57,12.88.1,0,.15-.01.26-.02,1.12-5.14,1.4-7.72,1.41-12.86,2.07,0,3.11,0,5.18,0-.01,8.88-1.02,13.33-5.02,22.21-1.54.23-2.31.34-3.85.55-1.14-4.74-2.3-7.27-5.13-12.52-.1,0-.16,0-.26.01-.68,5.39-1.25,8.09-2.83,13.49-1.84.19-2.76.28-4.6.44,2.31-9.67,2.89-14.5,2.9-24.17h0Z"/><path class="cls-3" d="M64.53.27c-9.82-.74-18.65.08-26.41,2.06,5.39-1.16,11.25-1.83,17.58-1.88,33.33,0,62.26,17.74,62.26,45.46,0,42.33-55.26,60.1-55.26,60.1,0,0,0-.01,0-.02-.02.03-.03.05-.03.05,0,0,56.55-13.09,60.09-55.28C125.09,23.15,97.74,3.06,64.53.27h0Z"/></g></g></g></svg>