<?xml version="1.0" encoding="UTF-8"?><svg id="Calque_2" xmlns="http://www.w3.org/2000/svg" width="170.52" height="32" viewBox="0 0 170.52 32"><defs><style>.cls-1{fill:#e62e2e;}.cls-1,.cls-2,.cls-3{stroke-width:0px;}.cls-4,.cls-3{isolation:isolate;}.cls-2{fill:#fff;}.cls-3{fill:#000;mix-blend-mode:multiply;opacity:.5;}</style></defs><g id="Calque_1-2"><g class="cls-4"><g id="Layer_1"><path class="cls-1" d="M170.52,14.13c0-7.8-6.32-14.13-14.13-14.13H14.13C6.32,0,0,6.32,0,14.13c0,.64.06,1.26.14,1.88-.08.61-.14,1.24-.14,1.88,0,7.8,6.32,14.13,14.13,14.13h142.27c7.8,0,14.13-6.32,14.13-14.13,0-.64-.06-1.26-.14-1.88.08-.61.14-1.24.14-1.88h0Z"/><path class="cls-2" d="M11.26,9.05h6.85v1.81h-4.66v2.81h4.26v1.73h-4.26v4.12h-2.19v-10.46h0Z"/><path class="cls-2" d="M20.42,9.05h4.35c2.38,0,3.74,1.27,3.74,3.33h0c0,1.36-.69,2.51-1.89,2.98l2.2,4.15h-2.48l-1.95-3.83h-1.79v3.83h-2.19v-10.46h0ZM24.54,14.08c1.1,0,1.74-.62,1.74-1.65h0c0-1.02-.67-1.67-1.77-1.67h-1.9v3.33s1.93,0,1.93,0Z"/><path class="cls-2" d="M31.02,9.05h6.93v1.81h-4.74v2.52h4.47v1.68h-4.47v2.65h4.74v1.81h-6.93v-10.46h0Z"/><path class="cls-2" d="M40.54,9.05h6.93v1.81h-4.74v2.52h4.47v1.68h-4.47v2.65h4.74v1.81h-6.93v-10.46h0Z"/><path class="cls-2" d="M54.19,9.05h4.12c3.11,0,4.91,1.88,4.91,5.15h0c0,3.39-1.78,5.31-4.91,5.31h-4.12v-10.46ZM57.95,17.7c1.94,0,3.02-1.22,3.02-3.45h0c0-2.17-1.12-3.4-3.02-3.4h-1.58v6.85h1.58Z"/><path class="cls-2" d="M65.57,9.05h6.93v1.81h-4.74v2.52h4.47v1.68h-4.47v2.65h4.74v1.81h-6.93v-10.46h0Z"/><path class="cls-2" d="M75.09,9.05h2.19v8.65h4.65v1.81h-6.84v-10.46h0Z"/><path class="cls-2" d="M84.21,9.05h2.19v10.46h-2.19v-10.46Z"/><path class="cls-2" d="M88.48,9.05h2.46l2.31,8.02h.13l2.31-8.02h2.46l-3.49,10.46h-2.7l-3.49-10.46h0Z"/><path class="cls-2" d="M100.22,9.05h6.93v1.81h-4.74v2.52h4.47v1.68h-4.47v2.65h4.74v1.81h-6.93v-10.46h0Z"/><path class="cls-2" d="M109.75,9.05h4.35c2.38,0,3.74,1.27,3.74,3.33h0c0,1.36-.7,2.51-1.89,2.98l2.2,4.15h-2.48l-1.95-3.83h-1.79v3.83h-2.19v-10.46h0ZM113.86,14.08c1.1,0,1.74-.62,1.74-1.65h0c0-1.02-.68-1.67-1.77-1.67h-1.9v3.33h1.93Z"/><path class="cls-2" d="M122.91,15.6l-3.64-6.55h2.37l2.3,4.4h.13l2.3-4.4h2.37l-3.65,6.55v3.91h-2.19v-3.91Z"/><path class="cls-2" d="M149.01,20.14c0,.17.01.35.04.51h-4.24c.03-.17.04-.34.04-.51,0-1.89-1.54-3.44-3.44-3.44s-3.44,1.54-3.44,3.44c0,.17,0,.33.04.49h-.34c-1.4,0-2.16-.96-2.16-2.42v-9.7c0-1.57.88-2.45,2.44-2.45h9.89c1.57,0,2.44.88,2.44,2.45v9c-.8.6-1.29,1.55-1.29,2.62h0ZM138.95,20.14c0-1.36,1.1-2.46,2.46-2.46s2.46,1.1,2.46,2.46-1.1,2.47-2.46,2.47-2.46-1.11-2.46-2.47ZM149.97,20.14c0-1.36,1.11-2.47,2.47-2.47s2.46,1.11,2.46,2.47-1.1,2.47-2.46,2.47-2.47-1.11-2.47-2.47ZM153.32,10.08c.84,0,1.41.21,1.91.78l2.56,2.9c.48.53.61.93.61,1.77v2.69c0,1.5-.8,2.45-2.25,2.45h-.33c.03-.18.04-.35.04-.52,0-1.9-1.56-3.44-3.45-3.44-.38,0-.74.07-1.06.2v-6.83h1.96ZM156.51,15.14c-.01-.17-.09-.28-.2-.41l-2.07-2.33c-.25-.29-.46-.36-.8-.36h-.51v2.33c0,.47.3.77.77.77h2.81,0Z"/><path class="cls-3" d="M156.4,28.25H14.13C6.96,28.25,1.06,22.91.14,16c-.08.61-.14,1.24-.14,1.88h0c0,7.8,6.32,14.13,14.13,14.13h142.27c7.8,0,14.13-6.32,14.13-14.13h0c0-.64-.06-1.26-.14-1.88-.92,6.91-6.82,12.25-13.99,12.25h0Z"/></g></g></g></svg>