<?xml version="1.0" encoding="utf-8"?>
<!DOCTYPE svg PUBLIC "-//W3C//DTD SVG 1.1//EN" "http://www.w3.org/Graphics/SVG/1.1/DTD/svg11.dtd">
<svg version="1.1" xmlns="http://www.w3.org/2000/svg" xmlns:xlink="http://www.w3.org/1999/xlink" xmlns:xml="http://www.w3.org/XML/1998/namespace" width="1000" height="142" viewBox="0, 606.177, 1413, 200.646" id="Layer_1" xml:space="preserve" style="fill:black;">
<g id="_x23_ee2629ff">
	<path d="M1329 609.7 c11.9 -2.1 24 -2.4 36 -2.6 c12 -0.1 24.5 1.2 35.2 7.1 c9.8 4 15.2 16 11.6 26.1 c-4.7 15.5 -15.8 27.9 -27.1 39 c-28.6 29.5 -64.1 50.7 -98.2 73.1 c5.7 -8.3 10.4 -17.4 13.9 -26.8 c2.7 -7.4 5.3 -15.1 5.6 -23.1 c0.4 -8.2 -1.3 -17 -6.6 -23.5 c-5.3 -6 -12.9 -9.6 -20.5 -11.7 c-11 -3.1 -22.6 -3.4 -34 -3.4 c-25.9 0.2 -51.6 4.4 -76.9 9.6 c-8.9 1.6 -17.6 4.3 -26.7 4.7 c7.7 -2.5 14.5 -7 21.8 -10.6 c34.1 -17.3 69.4 -32.3 105.9 -43.7 C1288.6 617.7 1308.7 613.2 1329 609.7 z" />
</g>
<g id="_x23_010101ff">
	<path d="M146.1 689.7 c1.3 -1.4 3.2 -1.1 4.9 -1.2 c14.6 0.1 29.2 0.1 43.8 0 c0.3 20.7 0.7 41.4 1 62.1 c26.3 -20 50.9 -42.2 77.1 -62.3 c16 0.6 32 0 48 0.4 c-0.1 39.2 -0.1 78.5 0 117.7 c-20.8 0.2 -41.5 -0.2 -62.2 0.2 h-0.4 c-0.2 -18.4 -0.1 -36.8 -0.1 -55.1 c-21.5 17.8 -41.5 37.2 -62.9 55.1 h-3.1 c-19.6 -0.4 -39.1 0.1 -58.7 -0.2 c0.3 -18.4 -0.1 -36.9 0.2 -55.3 c-21.3 18.1 -41.7 37.3 -62.9 55.5 H0.8 c2 -2.1 4.3 -3.8 6.7 -5.5 c12 -8.9 23.1 -18.9 35 -28 C77.1 745.3 111.7 717.6 146.1 689.7 z" />
	<path d="M509.1 688.4 c20.6 0.2 41.3 0.1 61.9 0.1 c0.3 30.2 0.1 60.4 0.1 90.6 c13.9 0 27.9 0 41.8 0 c-0.2 9.1 -0.3 18.1 0 27.2 c-34.7 0 -69.4 0.2 -104.1 -0.1 C509 767 508.7 727.7 509.1 688.4 z" />
	<path d="M342.2 727.8 c5.5 -10.5 16.7 -18.4 28.8 -18.3 c41.2 0 82.5 0 123.7 0 c-0.2 9.2 0 18.3 0 27.5 c-27.2 0.3 -54.5 -0.2 -81.7 0.2 c-7 0.3 -12.6 6.2 -14.6 12.6 c-2.7 8.6 -1.2 19.2 5.8 25.4 c2.5 2 5.5 3.6 8.8 3.6 c27.2 0.7 54.5 0 81.8 0.3 c-0.2 9 -0.2 18 0.1 27 c-41.9 0.4 -83.9 0.1 -125.8 0.2 c-9.2 -0.3 -17.7 -5.4 -23.2 -12.6 C332.5 774.8 331.7 748.3 342.2 727.8 z" />
	<path d="M634 709.4 c40.7 0.2 81.3 0 122 0.1 c8.4 0 16.8 3.3 22.8 9.3 c10 9.7 14.6 23.9 14.7 37.7 c0.1 12.9 -2.6 26.4 -10.8 36.7 c-5.5 7.2 -13.8 12.1 -22.8 13.4 H643.2 c-8.7 -1.4 -13.6 -10.1 -15.2 -18 c-2 -9.7 -1.2 -20.3 3.8 -29.1 c2.8 -5 8.4 -8.2 14.1 -8.2 c28.4 0.2 56.8 -0.1 85.2 0.2 c0 -4.8 0 -9.6 0 -14.4 c-32.4 0.2 -64.8 0 -97.1 0.1 C633.7 727.9 633.8 718.6 634 709.4 M682.1 765.2 c0 4.7 0 9.3 0 14 c16.3 0 32.7 -0.2 49 0.2 c0.1 -4.8 0.2 -9.5 0.2 -14.3 C714.9 765 698.5 764.9 682.1 765.2 z" />
	<path d="M808 724.5 c-0.6 -7.9 7 -15.8 15 -14.9 c27.4 -0.4 54.8 0 82.1 -0.1 c-0.2 9.2 -0.1 18.3 -0.1 27.5 c-11.6 0.1 -23.3 0 -34.9 0.1 c0.1 23.1 0 46.2 0.1 69.2 c-20.7 0.1 -41.4 0 -62.2 0 C808 779.1 808 751.8 808 724.5 z" />
	<path d="M931.5 715.1 c5.9 -4.2 13.3 -5.6 20.5 -5.6 c37 0.1 74 0.1 111 0 c7.3 1.7 12.1 8.9 14.2 15.7 c2.7 9.6 2.5 20.4 -2.1 29.4 c-2.8 5.7 -8.4 10.7 -15.1 10.4 c-28.5 0 -57 0 -85.4 0 c0 4.7 0 9.4 0 14.1 c32.5 0.2 65 -0.1 97.5 0.1 c-0.1 9.1 0 18.2 -0.2 27.3 H946.3 c-9.8 -1.1 -18.9 -6.8 -24.3 -15 c-9 -13.5 -11.6 -30.8 -8.4 -46.5 C915.9 733.4 921.6 721.9 931.5 715.1 M974.6 737.2 c0 4.6 0.1 9.2 0 13.8 c16.2 0.5 32.4 0 48.6 0.3 c0 -4.7 0 -9.5 0.1 -14.2 C1007 737.2 990.8 737 974.6 737.2 z" />
	<path d="M1092.9 709.4 c41.7 0.1 83.4 0.1 125.1 0 c6.3 -0.3 12.7 0.9 18.3 3.7 c8.6 4.1 16 12.5 16.4 22.3 c0.6 23.6 -0.1 47.2 0.3 70.9 c-18.6 -0.1 -37.2 0.2 -55.8 -0.1 c0.2 -16.2 0.1 -32.5 0.1 -48.7 c0.1 -6.2 -3.7 -12.2 -9.3 -14.9 c-10 -4.9 -21.4 -5.2 -32.3 -5.8 c0 23.1 -0.3 46.1 0.1 69.2 c-3.8 0.1 -7.7 0.1 -11.5 0.5 h-35.7 c-5.2 -0.4 -10.5 -0.2 -15.8 -0.3 C1093 774 1092.9 741.7 1092.9 709.4 z" />
</g>
</svg>