<?xml version="1.0" encoding="UTF-8"?>
<svg id="Calque_2" data-name="Calque 2" xmlns="http://www.w3.org/2000/svg" viewBox="0 0 536 77.63">
  <defs>
    <style>
      .cls-1 {
        fill: #ffad29;
        stroke-width: 0px;
      }
    </style>
  </defs>
  <g id="Calque_1-2" data-name="Calque 1">
    <g>
      <path class="cls-1" d="m37.93,71.72l-15.37,5.47c-4.94,1.76-10.1-2-9.96-7.24l.45-16.31c.05-1.72-.5-3.4-1.55-4.76L1.55,35.96c-3.2-4.16-1.22-10.23,3.8-11.71l15.65-4.61c1.65-.49,3.08-1.52,4.05-2.94l9.22-13.46c2.96-4.33,9.35-4.33,12.31,0l9.22,13.46c.97,1.42,2.4,2.45,4.05,2.94l15.65,4.61c5.03,1.48,7,7.55,3.8,11.71l-9.95,12.93c-1.05,1.36-1.59,3.04-1.55,4.76l.45,16.31c.14,5.24-5.02,8.99-9.96,7.24l-15.37-5.47c-1.62-.58-3.38-.58-5,0Z"/>
      <path class="cls-1" d="m151.71,71.72l-15.37,5.47c-4.94,1.76-10.1-2-9.96-7.24l.45-16.31c.05-1.72-.5-3.4-1.55-4.76l-9.95-12.93c-3.2-4.16-1.22-10.23,3.8-11.71l15.65-4.61c1.65-.49,3.08-1.52,4.05-2.94l9.22-13.46c2.96-4.33,9.35-4.33,12.31,0l9.22,13.46c.97,1.42,2.4,2.45,4.05,2.94l15.65,4.61c5.03,1.48,7,7.55,3.8,11.71l-9.95,12.93c-1.05,1.36-1.59,3.04-1.55,4.76l.45,16.31c.14,5.24-5.02,8.99-9.96,7.24l-15.37-5.47c-1.62-.58-3.38-.58-5,0Z"/>
      <path class="cls-1" d="m265.5,71.72l-15.37,5.47c-4.94,1.76-10.1-2-9.96-7.24l.45-16.31c.05-1.72-.5-3.4-1.55-4.76l-9.95-12.93c-3.2-4.16-1.22-10.23,3.8-11.71l15.65-4.61c1.65-.49,3.08-1.52,4.05-2.94l9.22-13.46c2.96-4.33,9.35-4.33,12.31,0l9.22,13.46c.97,1.42,2.4,2.45,4.05,2.94l15.65,4.61c5.03,1.48,7,7.55,3.8,11.71l-9.95,12.93c-1.05,1.36-1.59,3.04-1.55,4.76l.45,16.31c.14,5.24-5.02,8.99-9.96,7.24l-15.37-5.47c-1.62-.58-3.38-.58-5,0Z"/>
      <path class="cls-1" d="m379.29,71.72l-15.37,5.47c-4.94,1.76-10.1-2-9.96-7.24l.45-16.31c.05-1.72-.5-3.4-1.55-4.76l-9.95-12.93c-3.2-4.16-1.22-10.23,3.8-11.71l15.65-4.61c1.65-.49,3.08-1.52,4.05-2.94l9.22-13.46c2.96-4.33,9.35-4.33,12.31,0l9.22,13.46c.97,1.42,2.4,2.45,4.05,2.94l15.65,4.61c5.03,1.48,7,7.55,3.8,11.71l-9.95,12.93c-1.05,1.36-1.59,3.04-1.55,4.76l.45,16.31c.14,5.24-5.02,8.99-9.96,7.24l-15.37-5.47c-1.62-.58-3.38-.58-5,0Z"/>
      <path class="cls-1" d="m493.07,71.72l-15.37,5.47c-4.94,1.76-10.1-2-9.96-7.24l.45-16.31c.05-1.72-.5-3.4-1.55-4.76l-9.95-12.93c-3.2-4.16-1.22-10.23,3.8-11.71l15.65-4.61c1.65-.49,3.08-1.52,4.05-2.94l9.22-13.46c2.96-4.33,9.35-4.33,12.31,0l9.22,13.46c.97,1.42,2.4,2.45,4.05,2.94l15.65,4.61c5.03,1.48,7,7.55,3.8,11.71l-9.95,12.93c-1.05,1.36-1.59,3.04-1.55,4.76l.45,16.31c.14,5.24-5.02,8.99-9.96,7.24l-15.37-5.47c-1.62-.58-3.38-.58-5,0Z"/>
    </g>
  </g>
</svg>