<?xml version="1.0" encoding="UTF-8"?><svg width="384" height="100" id="Calque_2" xmlns="http://www.w3.org/2000/svg" viewBox="0 0 192 50"><defs><style>.cls-1{opacity:0;}.cls-1,.cls-2{stroke-width:0px;}.cls-2{fill:#0d1f49;fill-rule:evenodd;}</style></defs><g id="_01_Lines"><rect class="cls-1" x=".17" width="191.65" height="50"/><path class="cls-2" d="m96,40.18c-4.19,0-7.99-1.7-10.73-4.45-1.12-1.12-2.07-2.42-2.79-3.84-.38,1.38-1,2.69-1.83,3.83-1.47,2.03-3.6,3.57-6.24,4.18-.79.18-1.62.28-2.48.28-2.96,0-5.26-1.16-6.81-2.87-.77-.85-1.36-1.84-1.75-2.88-.39-1.05-.59-2.15-.59-3.24,0-2.2.81-4.36,2.48-5.88.59-.54,1.3-.96,2.05-1.26,1.13-.44,2.39-.6,3.57-.43,1.24.18,2.4.72,3.27,1.67.4.44.74.97.98,1.59.78,1.97.26,3.72-.82,4.88-.43.46-.94.82-1.51,1.07-.57.25-1.18.38-1.8.36-1.48-.03-2.93-.82-3.75-2.65l2.22-.99c.38.84.98,1.2,1.57,1.21.27,0,.54-.05.79-.16.26-.11.5-.28.7-.49.49-.53.71-1.36.33-2.33-.13-.33-.3-.61-.51-.84-.46-.5-1.1-.79-1.81-.9-.77-.11-1.59,0-2.34.29-.48.19-.93.46-1.3.79-1.13,1.03-1.68,2.53-1.68,4.08,0,.81.15,1.62.43,2.38.29.76.71,1.48,1.28,2.1,1.12,1.23,2.8,2.07,5.01,2.07.69,0,1.34-.07,1.94-.21,2.02-.46,3.67-1.65,4.81-3.23,1.16-1.6,1.79-3.59,1.79-5.62,0-.72-.08-1.43-.24-2.13-.68-2.97-2.28-5.09-4.35-6.4-1.21-.76-2.57-1.24-4.02-1.45-1.46-.21-3-.15-4.51.2-3.29.75-6.48,2.83-8.6,6.21-.94,1.5-1.71,3.16-2.47,4.77-2.51,5.38-4.8,10.31-12.96,10.31-1.11,0-2.13-.22-3.05-.61-2.8-1.03-5.31-3-7.75-4.92-2.21-1.74-4.36-3.44-6.41-4.15-2.03-.7-4.62-.59-6.16,1.08-.45.48-.73,1.19-.86,1.97-.11.71-.08,1.47.09,2.15.16.63.44,1.18.84,1.55.26.24.58.41.97.47,1,.16,1.71-.19,2.08-.71.14-.19.23-.42.27-.65.04-.23.04-.45-.01-.66-.13-.49-.57-.93-1.39-1.08l.45-2.39c1.89.36,2.95,1.53,3.3,2.88.15.56.16,1.15.05,1.71-.11.56-.33,1.1-.67,1.58-.86,1.22-2.4,2.05-4.46,1.72-.89-.14-1.63-.53-2.24-1.09-.76-.71-1.28-1.67-1.55-2.73-.26-1-.3-2.1-.14-3.14v-.08c-.14.1-.29.19-.45.29-2.01,1.28-4,2.73-5.9,4.27-1,.81-1.94,1.44-2.89,1.86-1.02.45-2.03.68-3.15.68-.95,0-1.83-.29-2.54-.78-.53-.36-.96-.83-1.27-1.36-.32-.56-.5-1.18-.5-1.83,0-.69.2-1.4.66-2.07.46-.67,1.08-1.1,1.74-1.3,1.14-.35,2.37,0,3.14.93.44.53.72,1.24.75,2.1l-2.43.06c0-.27-.08-.47-.18-.6-.14-.17-.36-.22-.56-.16-.15.05-.3.16-.43.35-.16.24-.23.48-.23.7,0,.21.06.42.17.61.13.22.31.41.54.56.32.22.72.35,1.17.35.77,0,1.47-.16,2.16-.46.75-.33,1.51-.85,2.35-1.53,1.97-1.6,4.04-3.11,6.14-4.44,1.83-1.16,5.02-3.11,7.16-3.51,1.58-.3,3.26-.13,4.8.4,2.46.85,4.76,2.66,7.13,4.53.44.35.89.7,1.33,1.04-.28-.93-.42-1.91-.42-2.87,0-2.42.9-4.79,2.9-6.39,1.25-1,2.81-1.54,4.36-1.63,1.03-.06,2.07.09,3,.44.97.36,1.84.95,2.48,1.75.65.81,1.07,1.84,1.14,3.07.12,2.1-.87,3.65-2.21,4.55-.59.39-1.24.65-1.9.78-.67.13-1.36.11-2-.06-1.22-.33-2.2-1.19-2.55-2.65-.18-.75-.11-1.53.16-2.22.27-.71.75-1.33,1.38-1.75l1.36,2.02c-.21.15-.38.36-.47.61-.09.24-.12.51-.05.78.11.48.43.76.81.86.27.07.58.08.91.02.34-.06.68-.2.99-.41.69-.46,1.2-1.27,1.14-2.39-.04-.69-.26-1.24-.61-1.67-.36-.45-.86-.78-1.43-.99-.61-.23-1.31-.32-2.02-.28-1.06.06-2.13.42-2.97,1.09-1.36,1.09-1.98,2.76-1.98,4.49,0,.84.15,1.69.42,2.5.28.81.68,1.56,1.19,2.2,1.02,1.27,2.5,2.14,4.31,2.14,6.6,0,8.58-4.25,10.74-8.89.77-1.66,1.57-3.37,2.62-5.04,2.49-3.96,6.24-6.4,10.12-7.29,1.81-.41,3.64-.49,5.39-.24,1.77.26,3.47.86,4.97,1.81,1.56.98,2.91,2.33,3.91,4.04.58-3.04,2.07-5.76,4.17-7.86,2.75-2.75,6.54-4.45,10.73-4.45s7.99,1.7,10.74,4.45c2.1,2.1,3.59,4.82,4.17,7.86,1.01-1.71,2.35-3.06,3.91-4.04,1.5-.95,3.2-1.55,4.97-1.81,1.75-.26,3.59-.18,5.39.24,3.88.89,7.63,3.33,10.12,7.29,1.05,1.67,1.85,3.38,2.62,5.04,2.16,4.64,4.15,8.89,10.74,8.89,1.82,0,3.29-.86,4.31-2.14.51-.64.92-1.4,1.19-2.2.28-.81.42-1.66.42-2.5,0-1.73-.62-3.4-1.98-4.49-.83-.67-1.9-1.03-2.96-1.09-.71-.04-1.41.05-2.02.28-.57.21-1.07.54-1.43.99-.34.43-.57.99-.61,1.67-.06,1.12.45,1.93,1.14,2.39.31.21.65.34.99.41.32.06.64.06.91-.02.39-.1.7-.39.81-.86.06-.27.04-.54-.05-.78-.1-.25-.26-.46-.47-.61l1.36-2.02c.63.42,1.11,1.04,1.38,1.75.27.69.34,1.47.16,2.22-.35,1.45-1.34,2.31-2.55,2.65-.63.17-1.32.19-1.99.06-.66-.12-1.31-.39-1.9-.78-1.34-.9-2.33-2.45-2.21-4.55.07-1.23.49-2.25,1.14-3.07.64-.8,1.5-1.38,2.48-1.75.93-.35,1.97-.49,3-.44,1.54.09,3.11.63,4.36,1.63,1.99,1.6,2.9,3.97,2.9,6.39,0,.96-.14,1.94-.42,2.87.45-.35.89-.7,1.34-1.04,2.37-1.86,4.66-3.68,7.13-4.53,1.53-.53,3.22-.7,4.8-.4,2.14.4,5.33,2.35,7.16,3.51,2.1,1.33,4.17,2.84,6.14,4.44.84.68,1.6,1.19,2.35,1.53.69.31,1.39.46,2.16.46.44,0,.85-.13,1.17-.35.23-.15.41-.35.54-.56.11-.19.17-.4.17-.61,0-.23-.07-.46-.23-.7-.13-.19-.28-.3-.43-.35-.21-.06-.42-.01-.56.16-.11.13-.18.33-.18.6l-2.43-.06c.02-.86.31-1.57.75-2.1.77-.92,2-1.28,3.14-.93.66.2,1.28.63,1.74,1.3.46.67.66,1.38.66,2.07,0,.65-.18,1.27-.5,1.83-.31.53-.74,1-1.27,1.36-.71.49-1.59.78-2.54.78-1.11,0-2.13-.23-3.15-.68-.96-.43-1.89-1.05-2.89-1.86-1.9-1.54-3.88-2.99-5.9-4.27-.15-.1-.31-.19-.46-.29v.08c.18,1.04.13,2.14-.12,3.14-.27,1.06-.79,2.02-1.55,2.73-.6.56-1.35.95-2.24,1.09-2.06.33-3.6-.5-4.46-1.72-.34-.48-.57-1.03-.67-1.58-.11-.56-.09-1.15.05-1.71.35-1.35,1.41-2.52,3.3-2.88l.45,2.39c-.82.16-1.26.59-1.39,1.08-.05.21-.06.43-.01.66.04.23.14.46.27.65.37.52,1.08.87,2.08.71.39-.06.71-.23.97-.47.4-.37.68-.92.84-1.55.18-.68.21-1.43.09-2.15-.12-.78-.41-1.48-.86-1.97-1.54-1.67-4.13-1.78-6.16-1.08-2.05.71-4.2,2.4-6.41,4.15-2.44,1.92-4.95,3.9-7.75,4.92-.92.39-1.94.61-3.05.61-8.15,0-10.45-4.93-12.96-10.31-.75-1.61-1.53-3.28-2.47-4.77-2.13-3.38-5.31-5.45-8.6-6.21-1.51-.35-3.04-.41-4.51-.2-1.44.21-2.81.69-4.02,1.45-2.07,1.3-3.67,3.43-4.35,6.4-.16.7-.24,1.41-.24,2.13,0,2.04.64,4.03,1.8,5.62,1.14,1.58,2.78,2.77,4.81,3.23.6.14,1.25.21,1.94.21,2.21,0,3.89-.83,5.01-2.07.56-.62.99-1.34,1.28-2.1.29-.76.43-1.57.43-2.38,0-1.55-.55-3.04-1.68-4.08-.37-.34-.82-.6-1.3-.79-.75-.29-1.57-.4-2.34-.29-.7.1-1.35.39-1.81.9-.21.23-.38.51-.51.84-.38.97-.16,1.8.33,2.33.2.21.44.38.7.49.25.11.52.17.79.16.59-.01,1.19-.37,1.57-1.21l2.22.99c-.82,1.83-2.28,2.63-3.75,2.65-.62.01-1.24-.12-1.8-.36-.56-.25-1.08-.61-1.51-1.07-1.08-1.16-1.59-2.9-.82-4.88.24-.62.58-1.15.98-1.59.87-.95,2.03-1.49,3.27-1.67,1.18-.17,2.44-.01,3.57.43.76.3,1.46.72,2.05,1.26,1.67,1.52,2.48,3.68,2.48,5.88,0,1.09-.2,2.19-.59,3.24-.39,1.05-.98,2.03-1.75,2.88-1.56,1.71-3.85,2.87-6.81,2.87-.86,0-1.69-.1-2.48-.28-2.64-.61-4.77-2.14-6.24-4.18-.83-1.15-1.45-2.45-1.83-3.83-.73,1.42-1.67,2.72-2.79,3.84-2.75,2.75-6.54,4.45-10.74,4.45h0Zm0-27.92c-3.52,0-6.7,1.43-9.01,3.73s-3.73,5.49-3.73,9.01,1.43,6.7,3.73,9.01,5.49,3.73,9.01,3.73,6.7-1.43,9.01-3.73,3.73-5.49,3.73-9.01-1.43-6.7-3.73-9.01-5.49-3.73-9.01-3.73h0Zm0,19.47c1.86,0,3.54-.75,4.76-1.97,1.22-1.22,1.97-2.9,1.97-4.76s-.75-3.54-1.97-4.76c-1.22-1.22-2.9-1.97-4.76-1.97s-3.54.75-4.76,1.97c-1.22,1.22-1.97,2.9-1.97,4.76s.75,3.54,1.97,4.76c1.22,1.22,2.9,1.97,4.76,1.97h0Zm0-11.01c-1.18,0-2.25.48-3.03,1.25s-1.25,1.85-1.25,3.03.48,2.25,1.25,3.03c.78.78,1.85,1.25,3.03,1.25s2.25-.48,3.03-1.25c.77-.77,1.25-1.85,1.25-3.03s-.48-2.25-1.25-3.03c-.78-.78-1.85-1.25-3.03-1.25Z"/></g></svg>
