<?xml version="1.0" encoding="UTF-8"?><svg id="Calque_2" xmlns="http://www.w3.org/2000/svg" width="108.69" height="36.21" viewBox="0 0 108.69 36.21"><defs><style>.cls-1{fill:#e62e2e;}.cls-1,.cls-2{stroke-width:0px;}.cls-2{fill:#fff;}</style></defs><g id="Layer_1"><path class="cls-1" d="M107.9,5.03c-.03-.07-.07-.15-.11-.22-1.79-3.42-5.7-4.81-13.55-4.81h0l-2.13.03c-.93.02-1.76-.03-2.57.08l-.25.03c-.21.03-.41.07-.61.12-1.02.27-2.11.47-3.24.6-.04,0-.08.01-.12.02-1.45.21-2.66.42-3.91.68-.34.07-.67.18-.98.32-.08.04-.15.08-.23.12-.78-.68-1.69-1.24-2.75-1.6l-.29-.1c-.99-.35-2.06-.37-3.06-.08l-.28.08c-2.05.6-3.72,1.95-4.71,3.74-.85-1.68-2.37-3.01-4.33-3.66l-.19-.07c-.68-.23-1.4-.31-2.12-.24l-.15.02c-2.25.2-4.21,1.16-5.67,2.77-.26.29-.54.56-.78.79-5.22,4.07-9.68,7.4-13.26,9.89-.23.16-.48.31-.72.47.76-1.37.93-2.69.93-3.6,0-1.08-.2-2.09-.6-3-.15-.35-.35-.68-.57-.99l-.8-1.08c-1.42-2.12-3.3-3.64-5.62-4.52-.28-.11-.57-.19-.86-.24C31.49.06,28.73-.06,25.1.18c-.15.01-.3.03-.44.05l-1.04.16c-2.19.26-4.32.7-6.32,1.3-2,.47-4.72,1.8-6.82,5.37-.91,1.46-1.43,3.08-1.53,4.75-.48.21-.95.48-1.39.81-.05.04-.1.08-.15.12-1.17.96-2.35,2.01-3.65,3.28-2.4,2.4-3.77,5.49-3.77,8.47,0,.39.03.79.08,1.23.19,1.89,1.35,6.21,7.74,7.99.03,0,.09.03.12.03l.13.03c2.47.58,5.12.87,7.88.87,3.2,0,6.32-.32,9.27-.96,1.86-.4,3.48-.91,4.92-1.52,2.36,2.68,5.71,3.27,9.03,1.54.18-.1.36-.2.53-.32,1.11-.77,2.1-1.66,2.94-2.65.25-.29.53-.55.92-.86.15-.12.29-.24.43-.37.05-.05.1-.08.12-.1.97-.12,1.94-.21,2.91-.28.04,2.66,1.44,5,3.69,6.15,1.17.62,2.38.93,3.6.93.12,0,.24,0,.36-.01l.22-.02c.17-.01.34-.03.51-.06,1.45-.25,2.57-.94,3.43-1.71.59.16,1.21.24,1.82.24,2.51,0,4.92-.13,7.1-.37,2.17-.22,5.4-.48,8.31-.22.15.01.29.02.44.02.62,0,1.22-.1,1.79-.26,1,.54,2.11.84,3.27.84.47,0,.94-.05,1.4-.15,1.28-.12,2.48-.18,3.65-.18,1.55,0,3.03-.25,4.39-.75.16-.05.35-.09.56-.13,1.42-.2,2.73-.48,3.99-.85.63-.16,1.32-.35,2.13-.57.08-.02.16-.04.24-.07.79-.26,1.48-.55,2.14-.9,2.35-1.24,3.76-3.56,3.76-6.21,0-2.44-1.32-4.53-3.34-5.67,1.41-1.05,2.09-2.43,2.41-3.34.55-.13,1.07-.35,1.55-.66,1.74-.87,3.08-2.32,3.76-4.1.34-.85.51-1.75.51-2.69,0-1.13-.26-2.23-.78-3.36h0Z"/><path class="cls-2" d="M26.17,18.36c-1.23-.63-2.7-1.28-4.45-1.97-1-.45-2.38-1.08-2.92-1.46-.45-.29-.76-.66-.93-1.16,0-.56.19-1.04.57-1.45.46-.5.95-.86,1.44-1.08,3.25-1.24,6.73-1.86,10.35-1.86h.92c.42,0,.85.04,1.29.11-3.43,2.73-3.86,4.13-3.88,4.97v.92c0,1.14.74,1.65,1.46,1.65.58,0,1.45-.25,3.57-2.13,1.06-.95,1.8-1.55,2.15-1.77.62-.33,2.06-1.09,2.06-2.71,0-.4-.06-.73-.18-1.01l-.89-1.2c-.83-1.28-1.87-2.17-3.29-2.71-2.57-.47-5.03-.53-8-.32l-1.13.18c-2,.24-3.96.64-5.73,1.18-1.51.31-2.8,1.38-3.82,3.12-.54.86-.82,1.77-.82,2.73,0,1.91.63,3.53,1.88,4.84,2.04,2.11,4.57,3.33,6.8,4.31.57.24,1.12.48,1.75.81l.67.28c.53.22.98.44,1.37.67-.87.4-2.09.74-3.64.99-2.43.42-4.89.63-7.52.63-.83,0-1.7-.02-2.66-.09-.91-.06-1.69-.21-2.31-.43-.43-.15-.43-.29-.43-.39,0-.34.19-.71.56-1.1.26-.26.51-.49.77-.71,1.51-1.19,2.21-2.2,2.21-3.16,0-.41-.1-.84-.29-1.29-.19-.44-.64-1.46-1.63-1.46-.29,0-.59.1-.87.31-1.06.87-2.13,1.82-3.27,2.93-1.44,1.45-2.31,3.29-2.31,4.94,0,.25.03.5.05.68.16,1.75,1.54,3.01,4.11,3.73h.04c2.1.5,4.37.75,6.74.75,2.85,0,5.62-.29,8.22-.85,2.65-.57,4.7-1.36,6.18-2.43.64-.6.97-1.37.97-2.23,0-1.22-.49-2.29-1.44-3.15-1.17-1.1-2.39-1.96-3.71-2.64h0Z"/><path class="cls-2" d="M59.77,21.64c1.25-4.22,3.04-8.33,4.85-12.5l.1-.43-.06-.3c0-.09.01-.17,0-.17l.13-.5c.03-.19.05-.35.05-.55,0-.45-.17-1.56-1.71-2.08l-.19-.07-.2.02c-.99.09-1.8.47-2.41,1.14-.42.46-.86.88-1.21,1.22-5.37,4.19-9.97,7.63-13.69,10.21-1.36.95-2.78,1.81-4.13,2.55-.68.3-1.69.47-2.99.49-1.43.02-2.71.05-3.92.11-1.02.18-1.71,1.31-1.71,2.25,0,.72.46,1.59,1.86,1.64.19-.01.39-.03.58-.04-1.97,1.46-1.97,2.05-1.97,2.34,0,.62.22,1.22.63,1.74.77.95,1.61,1.3,3.08.53.75-.52,1.41-1.11,1.96-1.76.48-.56,1-1.06,1.68-1.58.77-.75,1.66-1.23,2.59-1.43,3.08-.41,6.02-.51,9.14-.61l1.67-.06c-.03.09-.08.19-.14.29-.25.43-.5.9-.66,1.38-.15.49-.34.95-.55,1.42-.35.78-.52,1.47-.52,2.1,0,1.16.64,1.65,1,1.83.46.25.89.37,1.29.37h.22c.72-.14,1.36-.74,2.07-1.99.52-.97,1.01-2.03,1.52-3.19.46-1.14.81-2.07,1.07-2.76l.6-1.62h0ZM55.42,19.97l-7.08.24c3.21-2.15,6.36-4.32,9.42-6.48-.82,2.25-1.58,4.29-2.33,6.25Z"/><path class="cls-2" d="M76.55,25l-1.28-.05-.32-.09h-.18c-.89.03-2.12.05-3.65.05-1.12,0-2.1,0-2.93.02.54-.91,1.05-1.8,1.54-2.71.66-1.2,1.34-2.38,2.05-3.56.76-1.32,1.5-2.66,2.22-3.97.97-1.78,2.02-3.57,3.03-5.2.47-.51.72-1.11.72-1.75,0-1.26-.7-2.19-1.97-2.62l-.29-.1-.3.09c-1.04.3-1.75,1.04-2.02,2.03-.13.33-.26.57-.51.87-1.16,1.84-2.21,3.71-3.14,5.54-.7,1.36-1.45,2.7-2.26,4.07-1.5,2.77-3.19,5.38-5,7.79-.32.08-.66.03-1.54-.09h-.25c-1.08-.01-1.78.73-1.78,1.86,0,2.29,1.45,2.47,1.9,2.47h.05c2.31,0,4.54-.12,6.6-.35,2.8-.28,6.13-.5,9.25-.22.77,0,1.39-.54,1.82-1.58.13-.3.19-.58.19-.85,0-.76-.51-1.6-1.93-1.64h0Z"/><path class="cls-2" d="M103.37,7.13c-.27-.53-1.12-2.13-9.06-2.13l-1.91.03c-.79.02-1.52.04-2.21.04l-.25.03c-1.25.33-2.57.57-3.93.74-1.14.16-2.28.35-3.59.62-1.25.55-1.43,1.37-1.43,1.75-.03.41-.03.61-.03.64,0,1.65,1.1,1.97,1.44,2.02l.14.02.14-.02c.77-.09,1.54-.21,2.42-.35.52-.14,1.05-.25,1.6-.31-.21.52-.43,1.01-.66,1.47-.03.06-.07.12-.1.18-1.56.1-2.65.48-3.3,1.16-.76.76-1.14,1.47-1.14,2.16,0,1.11.71,1.79,1.8,1.75-.79,1.65-1.54,3.49-2.3,5.55-.44,1.28-.86,2.28-1.26,3.06-.39.39-.6.89-.6,1.41,0,.64.24,1.25.69,1.78.49.6,1.06.9,1.69.9.19,0,.36-.03.54-.09,1.59-.16,3.07-.24,4.52-.24,1.01,0,1.96-.17,2.78-.48.46-.15.93-.25,1.35-.33,1.26-.18,2.41-.42,3.49-.73.62-.16,1.32-.35,2.13-.57.46-.15.93-.34,1.37-.57.71-.37,1.1-1.01,1.1-1.78,0-1.04-.99-1.6-1.92-1.6-.51,0-1.03.1-1.64.33-.31.13-.6.2-.93.2l-3.94.37c-1.77.23-3.58.42-5.41.56.42-.96.8-1.85,1.15-2.67.41-.93.81-1.86,1.23-2.7.43-.79.83-1.6,1.19-2.43.27-.63.65-.92,2.29-.92l2.01-.19c.86-.12,1.77-.18,2.69-.18.62,0,2.28,0,2.67-1.59l.07-.29-.1-.28c-.57-1.59-2.21-1.59-2.83-1.59-1.02,0-1.99.02-2.92.05h-1.52c.37-.89.82-1.68,1.36-2.4.59-.04,1.72-.08,3.86-.08.61,0,1.42.03,2.4.1.04.25.14.49.25.64.48.91,1.11,1.09,1.55,1.09l.94-.28.45-.05.12-.12c1.05-.38,1.51-1.09,1.69-1.6.12-.27.17-.55.17-.87,0-.39-.09-.78-.32-1.26h0Z"/></g></svg>