<?xml version="1.0" encoding="UTF-8"?><svg id="Calque_2" xmlns="http://www.w3.org/2000/svg" width="132.8" height="132.8" viewBox="0 0 132.8 132.8"><defs><style>.cls-1{fill:#e62e2e;}.cls-1,.cls-2{stroke-width:0px;}.cls-2{fill:#fff;}</style></defs><g id="Layer_1"><polygon class="cls-1" points="58.7 20.56 65.79 0 73.25 20.43 86.34 3.06 87.12 24.79 104.93 12.32 98.96 33.23 119.76 26.88 107.62 44.92 129.36 45.3 112.24 58.7 132.8 65.79 112.38 73.25 129.74 86.34 108.01 87.12 120.48 104.93 99.57 98.96 105.93 119.76 87.89 107.62 87.5 129.36 74.1 112.24 67.02 132.8 59.55 112.38 46.47 129.74 45.68 108.01 27.87 120.48 33.84 99.57 13.04 105.93 25.18 87.89 3.44 87.5 20.56 74.1 0 67.02 20.43 59.55 3.06 46.47 24.79 45.68 12.32 27.87 33.23 33.84 26.88 13.04 44.92 25.18 45.3 3.44 58.7 20.56"/><path class="cls-2" d="M38.27,69.2c-2.43-.61-2.86-.99-2.88-1.73-.02-1.03.61-1.63,1.93-1.83,1.63-.25,2.4.28,2.56,1.79l.07.65,5.55-.85v-.72c-.01-1.8-.67-3.26-1.92-4.23-1.43-1.11-3.56-1.49-6.16-1.09-4.73.73-7.86,3.83-7.8,7.72.05,3.16,2.16,4.31,6.03,5.31,2.61.69,2.89,1.22,2.91,2.28.03,1.65-1.35,2.2-2.5,2.38-1.85.28-2.78-.35-3.03-2.06l-.09-.63-5.59.86.04.74c.22,4.3,3.27,6.32,8.38,5.54,5.46-.84,8.8-4.08,8.73-8.45-.05-2.96-1.8-4.55-6.23-5.68h0Z"/><path class="cls-2" d="M56.28,58.55l-.21.43c-3.18,6.46-5.85,11.95-8.42,17.25l-2.61,5.39,6.08-.93,2.49-5.22,5.57-.86.61,4.74,5.72-.88-2.61-20.94-6.6,1.01h0ZM58.88,69.96l-3.07.47c.88-1.83,1.75-3.71,2.53-5.49.07.66.15,1.38.23,2.16.1.87.2,1.82.31,2.86Z"/><polygon class="cls-2" points="77.94 55.22 72.17 56.11 67.69 78.14 82.15 75.92 83.76 71 74.43 72.44 77.94 55.22"/><polygon class="cls-2" points="103.57 55.97 104.58 51.13 89.75 53.41 85.27 75.44 100.71 73.06 102.42 68.13 91.9 69.75 92.75 65.55 101.55 64.2 102.52 59.35 93.73 60.7 94.42 57.38 103.57 55.97"/></g></svg>