<?xml version="1.0" encoding="UTF-8"?><svg id="Calque_2" xmlns="http://www.w3.org/2000/svg" width="144.96" height="49.59" viewBox="0 0 144.96 49.59"><defs><style>.cls-1{fill:#1c1c1c;}.cls-1,.cls-2{stroke-width:0px;}.cls-2{fill:#fcca22;}</style></defs><g id="Layer_1"><path class="cls-2" d="M120.17,0H24.79C11.12,0,0,11.12,0,24.79s11.12,24.79,24.79,24.79h95.37c13.67,0,24.79-11.12,24.79-24.79S133.84,0,120.17,0ZM120.17,47.59H24.79c-12.59,0-22.79-10.21-22.79-22.79h0C2,12.21,12.2,2,24.79,2h95.37c12.59,0,22.79,10.21,22.79,22.79h0c0,12.59-10.21,22.79-22.79,22.79Z"/><path class="cls-2" d="M119.39,6.35H25.57C15.39,6.35,7.13,14.61,7.13,24.79s8.26,18.44,18.44,18.44h93.82c10.18,0,18.44-8.25,18.44-18.44s-8.26-18.44-18.44-18.44Z"/><path class="cls-1" d="M33.18,24.82c.58-.25,1.04-.6,1.38-1.07.41-.57.61-1.27.61-2.09,0-1.21-.4-2.16-1.21-2.86-.81-.7-1.92-1.05-3.34-1.05h-5.86v14.08h5.86c1.01,0,1.88-.15,2.58-.45.71-.3,1.24-.74,1.6-1.32s.54-1.29.54-2.11c0-.88-.22-1.59-.66-2.15-.36-.46-.87-.79-1.5-.99h0ZM30.29,20.46c.56,0,.98.13,1.28.38.29.25.44.63.44,1.12s-.15.89-.44,1.16c-.29.27-.72.4-1.28.4h-2.46v-3.06h2.46ZM31.74,28.75c-.29.26-.72.39-1.29.39h-2.61v-3.03h2.61c.56,0,.99.12,1.28.37.3.25.45.61.45,1.09,0,.52-.15.91-.44,1.17h0Z"/><path class="cls-1" d="M46.22,26.34c0,.86-.24,1.54-.71,2.02-.47.48-1.15.72-2.03.72s-1.53-.24-2-.71-.71-1.15-.71-2.04v-8.58h-3.08v8.79c0,1.12.24,2.09.71,2.92.47.83,1.15,1.47,2.02,1.92.87.45,1.89.68,3.05.68s2.21-.23,3.08-.68,1.55-1.1,2.03-1.92.71-1.8.71-2.91v-8.79h-3.08v8.58h0Z"/><path class="cls-1" d="M58.13,22.31c-.08.15-.15.29-.21.43s-.12.26-.17.38c-.05.12-.11.24-.17.35-.08-.18-.16-.36-.24-.54s-.18-.38-.29-.6l-2.36-4.57h-3.44l4.76,8.73v5.35h3.08v-5.35l4.76-8.73h-3.35s-2.36,4.55-2.36,4.55Z"/><polygon class="cls-1" points="80.28 26.72 74.34 17.76 71.3 17.76 71.3 31.84 74.34 31.84 74.34 22.9 80.28 31.84 83.33 31.84 83.33 17.76 80.28 17.76 80.28 26.72"/><path class="cls-1" d="M96.35,18.44c-1.03-.61-2.24-.92-3.61-.92s-2.55.31-3.59.92c-1.04.62-1.84,1.47-2.43,2.57-.58,1.1-.88,2.36-.88,3.8s.29,2.7.87,3.79c.58,1.09,1.38,1.94,2.42,2.56,1.03.62,2.23.92,3.59.92s2.57-.31,3.62-.92c1.04-.61,1.85-1.47,2.44-2.57.58-1.1.88-2.36.88-3.8s-.29-2.69-.88-3.79c-.58-1.09-1.39-1.94-2.43-2.56h0ZM95.96,27.09c-.29.65-.71,1.15-1.25,1.49-.54.35-1.19.52-1.95.52s-1.41-.17-1.96-.51c-.54-.34-.96-.84-1.26-1.48-.29-.65-.44-1.42-.44-2.32s.15-1.67.44-2.31c.29-.64.71-1.13,1.26-1.47.55-.34,1.2-.51,1.96-.51s1.41.17,1.95.51c.54.34.95.83,1.25,1.47.29.64.44,1.41.44,2.31s-.15,1.66-.44,2.3Z"/><path class="cls-1" d="M117.07,17.76l-1.88,6.15c-.13.41-.25.83-.36,1.29-.11.45-.24,1.03-.38,1.74-.13-.67-.25-1.24-.36-1.71-.11-.47-.23-.92-.34-1.35l-1.66-6.11h-3.45l-1.73,6.11c-.13.43-.25.88-.36,1.33-.12.46-.23,1.03-.34,1.73-.11-.7-.23-1.28-.34-1.74-.12-.46-.24-.9-.36-1.32l-1.85-6.11h-3.22l4.22,14.08h3.03l2.65-9.25,2.57,9.25h3.01l4.3-14.08h-3.14,0Z"/></g></svg>