<?xml version="1.0" encoding="UTF-8"?><svg id="Calque_2" xmlns="http://www.w3.org/2000/svg" width="179.6" height="49.44" viewBox="0 0 179.6 49.44"><defs><style>.cls-1{fill:#027cf5;}.cls-1,.cls-2,.cls-3{stroke-width:0px;}.cls-4,.cls-3{isolation:isolate;}.cls-2{fill:#fff;}.cls-3{fill:#000;mix-blend-mode:multiply;opacity:.5;}</style></defs><g id="Calque_1-2"><g class="cls-4"><g id="Layer_1"><path class="cls-1" d="M40.01,5.32C35.8,2,30.5,0,24.72,0,11.07,0,0,11.07,0,24.72s11.07,24.72,24.72,24.72c5.78,0,11.08-2,15.29-5.32,5.74-4.53,9.43-11.53,9.43-19.4s-3.69-14.87-9.43-19.4Z"/><path class="cls-1" d="M172.45,4.95H45.06c5.85,4.61,9.61,11.75,9.61,19.77s-3.76,15.16-9.61,19.77h127.39c3.95,0,7.15-3.2,7.15-7.15V12.1c0-3.95-3.2-7.15-7.15-7.15h0Z"/><path class="cls-2" d="M62.48,17.41h6.39c2.84,0,4.53,1.39,4.53,3.64v.02c0,1.54-1.14,2.89-2.64,3.11v.18c1.94.15,3.34,1.6,3.34,3.48v.02c0,2.56-1.94,4.18-5.06,4.18h-6.57v-14.62h0ZM65.54,19.68v3.81h2.3c1.65,0,2.55-.69,2.55-1.89v-.02c0-1.19-.84-1.89-2.3-1.89h-2.55ZM65.54,25.51v4.25h2.73c1.76,0,2.71-.75,2.71-2.14v-.02c0-1.36-.98-2.09-2.79-2.09h-2.65Z"/><path class="cls-2" d="M77.28,26.99v-9.57h3.06v9.3c0,1.89,1.1,3.1,3.07,3.1s3.06-1.21,3.06-3.1v-9.3h3.06v9.57c0,3.24-2.35,5.42-6.12,5.42s-6.13-2.17-6.13-5.42h0Z"/><path class="cls-2" d="M97.53,26.57l-5.09-9.16h3.31l3.22,6.15h.18l3.21-6.15h3.31l-5.1,9.16v5.46h-3.06v-5.46h0Z"/><path class="cls-2" d="M114.37,17.41h2.55l6.75,9.31h.16v-9.31h2.93v14.62h-2.53l-6.77-9.35h-.16v9.35h-2.93v-14.62h0Z"/><path class="cls-2" d="M130.08,24.73v-.02c0-4.73,2.74-7.67,7.04-7.67s7.03,2.95,7.03,7.67v.02c0,4.72-2.72,7.68-7.03,7.68s-7.04-2.96-7.04-7.68ZM141.03,24.73v-.02c0-3.1-1.54-5.08-3.91-5.08s-3.92,1.98-3.92,5.08v.02c0,3.09,1.51,5.09,3.92,5.09s3.91-2,3.91-5.09Z"/><path class="cls-2" d="M146.09,17.41h3.18l2.28,10.44h.16l2.66-10.44h2.58l2.72,10.44h.16l2.26-10.44h3.16l-3.88,14.62h-2.87l-2.77-9.85h-.16l-2.74,9.85h-2.89l-3.87-14.62Z"/><path class="cls-3" d="M40.01,5.32C35.8,2,30.5,0,24.72,0,11.07,0,0,11.07,0,24.72s11.07,24.72,24.72,24.72c5.78,0,11.08-2,15.29-5.32,5.74-4.53,9.43-11.53,9.43-19.4s-3.69-14.87-9.43-19.4Z"/><path class="cls-2" d="M11.27,13.98h3.85c1.48,0,2.02.61,2.2,1.8l.14.92h18.21c1.06,0,1.64.61,1.64,1.47,0,.16-.04.39-.06.55l-.78,5.35c-.28,1.94-1.33,3.09-3.25,3.09h-14.27l.17,1.18c.06.42.3.7.7.7h13.19c.71,0,1.35.52,1.35,1.3s-.63,1.31-1.35,1.31h-13.55c-1.93,0-2.97-1.16-3.26-3.07l-1.71-11.67h-3.21c-.78,0-1.46-.67-1.46-1.47s.68-1.47,1.46-1.47h0ZM20.44,33.27c1.26,0,2.27,1.01,2.27,2.26s-1.01,2.27-2.27,2.27-2.26-1.01-2.26-2.27,1.02-2.26,2.26-2.26ZM31.06,33.27c1.25,0,2.26,1.01,2.26,2.26s-1.01,2.27-2.26,2.27-2.27-1.01-2.27-2.27,1.02-2.26,2.27-2.26Z"/></g></g></g></svg>