<?xml version="1.0" encoding="UTF-8"?><svg id="Calque_2" xmlns="http://www.w3.org/2000/svg" width="118.51" height="113.07" viewBox="0 0 118.51 113.07"><defs><style>.cls-1{fill:#34ad5c;}.cls-1,.cls-2,.cls-3{stroke-width:0px;}.cls-4,.cls-3{isolation:isolate;}.cls-2{fill:#fff;}.cls-3{fill:#000;mix-blend-mode:multiply;opacity:.5;}</style></defs><g id="Calque_1-2"><g class="cls-4"><g id="Layer_1"><path class="cls-1" d="M118.45,106.7l-11.13-71.82c-.42-2.69-2.74-4.68-5.46-4.68h-60.56c-2.73,0-5.05,1.99-5.46,4.68l-.85,5.5H0l5.73,12.06-5.73,12.06h31.24l-1.01,6.54H1.6l7.39,15.55-7.39,15.55h23.81l-.4,2.61-.31,1.96c-.52,3.35,2.07,6.37,5.46,6.37h82.82c3.39,0,5.98-3.02,5.46-6.37h0Z"/><path class="cls-1" d="M51.85,26.23c1.42,0,2.57-1.15,2.57-2.57,0-9.62,6.85-17.46,15.54-18.35.54-.06,1.06-.18,1.62-.18,2.2,0,4.28.49,6.22,1.31,6.39,2.7,10.94,9.38,10.94,17.22,0,1.42,1.15,2.57,2.57,2.57s2.57-1.15,2.57-2.57c0-7.4-3.22-14.01-8.25-18.35-2.28-1.97-4.94-3.46-7.83-4.36-1.97-.61-4.06-.95-6.22-.95-12.29,0-22.3,10.62-22.3,23.66,0,1.42,1.15,2.57,2.57,2.57h0Z"/><path class="cls-3" d="M0,40.38l5.73,12.06L0,64.49h74.17c2.12,0,3.92-1.54,4.24-3.64l2.4-15.52c.4-2.6-1.61-4.95-4.24-4.95H0Z"/><path class="cls-3" d="M1.6,71.03l7.39,15.55-7.39,15.55h85.12c2.73,0,5.05-1.99,5.47-4.69l3.1-20.02c.52-3.36-2.08-6.39-5.47-6.39H1.6Z"/><path class="cls-2" d="M25.23,54.79c.44-2.12,1.08-4.94,1.47-6.54h-.09c-1.16,2.9-2.85,7.01-4.58,10.96h-3.06c.04-3.54,0-7.95.14-10.96h-.11c-.23,1.59-.74,4.33-1.23,6.65l-.91,4.31h-3.39l2.87-13.55h5.48c.02,2.57-.06,6.68-.17,8.67h.07c.81-2.22,2.31-5.54,3.67-8.67h5.42l-2.87,13.55h-3.64l.93-4.42h0Z"/><path class="cls-2" d="M41.42,53.66h-5.87l-.58,2.74h6.71l-1,2.81h-9.94l2.87-13.55h9.76l-.59,2.8h-6.11l-.51,2.39h5.87l-.61,2.81h0Z"/><path class="cls-2" d="M54.88,59.21h-2.7c-.04-.31-.01-.89.03-1.24-.86,1.06-2.02,1.49-3.74,1.49-3.28,0-4.88-2.37-4.88-5.51,0-4.1,2.45-8.54,7.73-8.54,3.62,0,5.44,1.97,5.47,4.43h-3.75c-.03-.75-.45-1.74-2.01-1.74-2.52,0-3.5,3.56-3.5,5.78,0,1.69.6,2.82,2.1,2.82,1.75,0,2.31-1.14,2.57-2.4l.02-.07h-2.49l.62-2.75h6.08l-1.53,7.73h0Z"/><path class="cls-2" d="M61.63,56.4l-1.32,2.81h-3.92l6.98-13.55h4.93l1.41,13.55h-3.78l-.24-2.81s-4.05,0-4.05,0ZM65.64,53.59c-.18-2.06-.3-4-.34-5.25h-.06c-.6,1.49-1.46,3.3-2.39,5.25h2.79,0Z"/><path class="cls-2" d="M21.65,89.99c.12,1.47,1.04,2.49,2.94,2.49,1.51,0,2.42-.52,2.42-1.84,0-1.18-.83-1.76-2.99-2.46-3.9-1.27-5.44-2.78-5.44-5.21,0-3.32,2.43-5.85,7.34-5.85,4.45,0,7.2,2.06,7.26,5.6h-4.97c-.03-.83-.39-2.02-2.38-2.02-1.2,0-2.08.51-2.08,1.62,0,.86.67,1.4,2.81,2.1,4.07,1.32,5.77,2.94,5.77,5.62,0,3.47-2.54,6-8.04,6-5.02,0-7.51-2.36-7.62-6.04h4.98Z"/><path class="cls-2" d="M39.74,91.91l-1.78,3.78h-5.28l9.39-18.23h6.64l1.89,18.23h-5.09l-.33-3.78h-5.46,0ZM45.14,88.14c-.24-2.77-.4-5.38-.46-7.06h-.07c-.81,2-1.96,4.44-3.22,7.06h3.75Z"/><path class="cls-2" d="M56.34,77.46h5.08l-3.06,14.46h8.29l-1.34,3.77h-12.84l3.87-18.23h0Z"/><path class="cls-2" d="M82.21,88.23h-7.89l-.79,3.69h9.03l-1.35,3.77h-13.38l3.87-18.23h13.14l-.8,3.77h-8.22l-.68,3.22h7.89l-.82,3.77h0Z"/></g></g></g></svg>