<?xml version="1.0" encoding="utf-8"?>
<!DOCTYPE svg PUBLIC "-//W3C//DTD SVG 1.1//EN" "http://www.w3.org/Graphics/SVG/1.1/DTD/svg11.dtd">
<svg version="1.1" xmlns="http://www.w3.org/2000/svg" xmlns:xlink="http://www.w3.org/1999/xlink" xmlns:xml="http://www.w3.org/XML/1998/namespace" x="0" y="0" width="778" height="124" viewBox="66.600006, 188.4, 466.80005, 74.4" id="katman_1" xml:space="preserve" style="enable-background:new 0 0 600 450;">
<path d="M531.6 228.7 c-6.7 1.6 -13.4 2.5 -20.3 2.7 c-0.2 0 -106.7 3.8 -109.9 4.1 c-5.1 0.1 -10.1 1.7 -14.3 4.5 c-7.6 4.8 -16 8.3 -24.8 10.5 c-10.9 2.4 -21.9 3.9 -33 4.3 c-0.8 0 3.9 -0.4 3.9 -0.4 c3.9 -0.3 7.8 -0.8 11.7 -1.5 c10.2 -1.4 20.1 -4.2 29.5 -8.4 l0.9 -0.5 l0 0 c4.7 0 4.4 -1.3 4.4 -1.3 l-5.7 0.2 c-4.2 0.1 -8.6 0.2 -9.7 0.2 c-0.2 -0.7 -9.9 -1.3 -9.9 -1.3 h24.2 h0.7 c1.6 -1 3.5 -2.1 5.3 -3.3 l0 0 c5.1 0 4.8 -1.4 4.8 -1.4 c-5.5 0.1 -15.7 0.3 -17.5 0.2 c-0.2 -0.7 -11.1 -1.4 -11.1 -1.4 h27.9 h0.2 c4.7 -1.8 9.7 -2.7 14.7 -2.6 l107.8 -2.2 c6.7 -0.3 13.3 -1.1 19.8 -2.4 l1.8 -0.4 c0 -0.4 -1.2 -0.5 -3.4 -0.5 l-31 -0.4 c-47.4 -0.4 -135.5 -1.2 -139.5 -1.2 h-1 c-4.6 -0.2 -9.3 0.4 -13.6 1.9 l-1.8 0.5 c-5 1.8 -10.2 2.9 -15.4 3.3 c-5.5 0.2 -26.5 0.2 -27.3 0.2 s-21.9 0 -27.3 -0.2 c-5.3 -0.5 -10.4 -1.6 -15.4 -3.3 l-1.8 -0.5 c-4.4 -1.5 -9 -2.1 -13.7 -1.9 h-0.9 c-4 0 -92.2 0.4 -139.5 0.8 l-31.1 0.4 c-2.1 0 -3.4 0.2 -3.3 0.5 l1.8 0.4 c6.5 1.3 13.1 2.2 19.8 2.4 c12.7 0.2 105.5 2.6 107.7 2.6 c5 -0.1 10 0.8 14.7 2.6 h29.1 c0 0 -11.7 0.7 -11.9 1.4 h-0.7 c-2.9 0 -11.8 0 -16.8 -0.2 c0 0 -0.4 1.4 4.7 1.4 l0 0 c1.8 1.2 3.7 2.3 5.4 3.3 c0.4 0 1 0 1.6 0 h23.4 c0 0 -9.8 0.6 -10 1.3 l0 0 c-1.2 0 -5.4 -0.1 -9.5 -0.2 l-5.7 -0.2 c0 0 -0.3 1.2 4.4 1.3 l0.8 0.5 c9.4 4.2 19.3 7 29.5 8.4 c3.9 0.7 7.8 1.3 11.7 1.5 c0 0 4.7 0.4 3.9 0.4 c-11.1 -0.4 -22.2 -1.9 -33 -4.3 c-8.8 -2.1 -17.1 -5.7 -24.8 -10.5 c-4.3 -2.8 -9.2 -4.4 -14.3 -4.5 c-3.3 -0.2 -109.7 -4.4 -109.9 -4.4 c-6.8 -0.2 -13.6 -1.2 -20.3 -2.7 l-1.5 -0.5 c0 0.3 0.7 1.1 1.4 1.6 c3.3 2.9 15.7 9 23 10.7 c12.6 3 90.2 12.9 104 14.5 l7.6 0.9 c20.8 2.2 47 5.1 60.4 6.5 c2.5 0.5 5.2 0.3 7.6 -0.4 c9.3 -3.5 19.2 -5.2 29.1 -5 c9.9 -0.1 19.8 1.6 29.2 5 c2.4 0.7 5 0.9 7.5 0.4 c13.3 -1.3 39.6 -4.2 60.3 -6.5 l7.7 -0.9 c13.8 -1.5 91.3 -11 103.9 -14.1 c7.3 -1.8 19.7 -7.8 23 -10.7 c0.6 -0.6 1.4 -1.3 1.4 -1.6 L531.6 228.7 z M305.2 247.5 H295 c-15.4 0 -30.7 -0.2 -35.1 -1.3 c-10.6 -2.6 -15.5 -7.5 -16.4 -8.9 c-0.8 -1.5 -0.6 -1.4 0.7 -1.4 H356 c1.3 0 1.4 0.1 0.7 1.4 c-0.7 1.3 -5.7 6.3 -16.3 8.9 C335.9 247.3 320.6 247.5 305.2 247.5 z" />
<polygon points="297,240.5 294.5,239 291.5,239 295.2,241.4 295.2,243.3 297.7,243.3 297.7,241.4 301.1,239 299.4,239" />
<polygon points="315.1,239 312.5,239 312.5,243.3 320.9,243.3 320.9,242.5 315.1,242.5" />
<polygon points="325.6,241.6 331.4,241.6 331.4,240.8 325.6,240.8 325.6,239.8 331.6,239.8 331.6,239 323.1,239 323.1,243.3 331.6,243.3 331.6,242.5 325.6,242.5" />
<path d="M276.5 240.7 h-5.4 V239 h-2.6 v4.3 h2.6 v-1.8 h5.4 v1.8 h2.6 V239 h-2.6 L276.5 240.7 z" />
<path d="M291 240.2 c0 -0.6 -0.9 -1.2 -3.8 -1.2 h-5.9 v4.3 h2.7 v-3.5 c2.3 -0.1 4.4 0.1 4.4 0.6 c0 0.4 -0.4 0.7 -3 0.6 c0.6 0.5 3.3 2.4 3.3 2.4 h2.9 l-3.3 -1.9 C289.9 241.3 291 240.8 291 240.2 z" />
<path d="M337.8 241 c0.6 0.5 3.3 2.4 3.3 2.4 h2.9 l-3.3 -1.9 c1.7 -0.1 2.8 -0.6 2.8 -1.2 s-0.9 -1.2 -3.8 -1.2 h-5.9 v4.3 h2.7 v-3.6 c2.3 -0.1 4.4 0.1 4.4 0.6 C340.9 240.8 340.4 241.1 337.8 241 z" />
<path d="M308.1 240.6 l-2.2 -0.2 c-0.8 0 -1.4 -0.2 -1.4 -0.5 c0 -0.3 0.4 -0.4 2 -0.4 c1.1 0 2.1 0.1 3.2 0.3 l0.2 -0.8 c-1.3 -0.2 -2.7 -0.3 -4 -0.3 c-1.5 0 -3.9 0.2 -3.9 1.3 c0 1.1 0.8 1.2 2.6 1.4 l1.9 0.2 c0.9 0 1.5 0.2 1.5 0.4 c0 0.3 -0.1 0.5 -2.2 0.5 c-1.2 0 -2.5 -0.1 -3.7 -0.3 l-0.3 0.9 c1.3 0.2 2.7 0.3 4 0.3 c2.5 0 4.9 -0.4 4.9 -1.5 C310.6 241.3 309.8 240.8 308.1 240.6 z" />
<path d="M263 239.6 c1.6 0 3.2 0.2 3.5 0.2 l-0.3 -0.9 c-0.4 0 -1.9 -0.2 -3.8 -0.2 c-3.3 0 -6.2 0.8 -6.2 2.4 s2.9 2.4 6.2 2.4 c1.8 0 3.4 -0.2 3.8 -0.2 l0.3 -0.9 c-0.4 0 -1.9 0.2 -3.5 0.2 s-4.1 -0.4 -4.1 -1.4 S261.3 239.6 263 239.6 z" />
<path d="M285.4 207 v-8 l0 0 v-0.4 l0.4 -0.4 c0 0 6.4 -6.2 9.9 -9.5 h-2.8 l-8.2 7.2 l0 0 l-0.8 0.7 l-0.8 -0.7 l-4.4 -3.8 l0 0 l-4.1 -3.4 h-7.1 l10.7 9.7 l0 0 l0.4 0.4 v8.3 H285.4 L285.4 207 z" />
<polygon points="382.6,207 382.6,204.8 360.3,204.8 360.3,188.7 354,188.7 354,207 382.6,207 382.6,207" />
<polygon points="396,206.9 425.1,206.9 425.1,204.7 402.1,204.7 402.1,199 424.3,199 424.3,196.7 402.1,196.7 402.1,191 424.7,191 424.7,188.7 396,188.7 396,206.9 396,206.9" />
<path d="M208.2 207 v-18.3 h-6.4 v7.3 l0 0 v0.8 H184 v-4.9 l0 0 v-3.2 h-6.5 V207 h6.5 v-7.3 l0 0 v-0.7 h17.8 v4.8 l0 0 v3.2 C201.8 207 208.2 207 208.2 207 z" />
<path d="M256.6 207 c-2 -1.9 -6.3 -6.2 -8.1 -7.6 l0 0 l-1.2 -1 l1.6 -0.2 c5.5 -0.6 7 -2.6 7 -4.7 l0 0 c-0.1 -1.4 -1 -2.7 -2.3 -3.3 l0 0 c-3 -1.3 -6.3 -1.9 -9.5 -1.7 h-17.2 v18.4 h6.4 v-11 l0 0 v-4.3 l0 0 v-0.6 h0.6 h4.5 l0 0 c4.2 0 7.8 0 9.3 1.3 l0 0 c0.6 0.4 1 1.1 1 1.8 l0 0 l0 0 c0 1.2 -0.8 2.2 -1.9 2.6 l0 0 c-2.5 0.5 -5.1 0.9 -7.6 0.9 c2.7 2.7 8.8 8.3 9.9 9.5 h7.5 L256.6 207 z" />
<path d="M320.7 207.5 c3.9 0.1 7.7 -0.4 11.4 -1.4 l0 0 c3.1 -1 4.8 -2.4 4.7 -4.3 l0 0 c0 -1.4 -0.7 -2.6 -1.9 -3.3 l0 0 c-2 -1.1 -4.2 -1.7 -6.4 -1.9 l0 0 c-2.7 -0.4 -5.5 -0.8 -7.5 -1 l0 0 c-1.2 -0.1 -2.4 -0.3 -3.6 -0.6 l0 0 c-0.9 -0.2 -1.6 -1 -1.7 -1.9 l0 0 c0 -0.9 0.7 -1.6 1.9 -1.9 l0 0 c1.9 -0.4 3.8 -0.5 5.7 -0.5 l0 0 c3.5 0 7 0.4 10.5 1 l0 0 l0.4 -2.2 c-4.5 -0.6 -9 -1 -13.6 -1 l0 0 c-2.9 -0.1 -5.8 0.3 -8.7 1 l0 0 c-2.7 0.8 -4.3 2 -4.3 3.9 l0 0 c-0.1 1.4 0.6 2.7 1.8 3.4 l0 0 c2.1 1.1 4.3 1.7 6.6 1.9 l0 0 c1.3 0.2 3.1 0.5 6.7 0.9 l0 0 c1.3 0.1 2.7 0.4 3.9 0.7 l0 0 c1 0.3 1.9 0.8 1.9 1.9 l0 0 c-0.1 0.9 -0.7 1.6 -1.5 1.9 l0 0 c-2.2 0.8 -4.5 1.1 -6.8 0.9 l0 0 c-4.1 0 -8.2 -0.4 -12.1 -1.3 l0 0 l-0.6 2.6 c4.3 0.6 8.7 1 13.1 1 L320.7 207.5 z" />
<path d="M134.3 191 c-3.4 1.6 -5.4 3.8 -5.4 6.9 l0 0 c0 3 1.9 5.3 5.4 6.9 l0 0 c4.1 1.7 8.6 2.5 13 2.4 l0 0 c3.7 0 7.4 -0.3 11.1 -0.8 l0 0 l0.7 -2.6 c-3.4 0.4 -6.7 0.6 -10.1 0.7 l0 0 c-2.9 0 -5.8 -0.5 -8.5 -1.5 l0 0 c-2.6 -1 -4.7 -2.7 -4.7 -5.2 l0 0 c0 -2.6 2.2 -4.2 4.7 -5.2 l0 0 c2.7 -1 5.6 -1.5 8.5 -1.5 l0 0 c3.4 0 6.8 0.3 10.1 0.7 l0 0 l-0.5 -2.5 c-3.7 -0.5 -7.4 -0.8 -11.1 -0.8 l0 0 C143 188.4 138.5 189.3 134.3 191 z" />
<path d="M471 207.1 c-2 -2 -6.3 -6.2 -8.1 -7.6 l0 0 l-1.2 -1 l1.6 -0.2 c5.5 -0.6 7 -2.6 7 -4.8 l0 0 c-0.1 -1.4 -1 -2.7 -2.3 -3.2 l0 0 c-3 -1.3 -6.3 -1.9 -9.5 -1.7 h-17.2 v18.4 h6.4 V196 l0 0 v-4.3 l0 0 V191 h0.6 h4.5 l0 0 c4.2 0 7.8 0 9.3 1.3 l0 0 c0.6 0.4 1 1.1 1 1.8 l0 0 l0 0 c0 1.2 -0.8 2.2 -1.9 2.5 l0 0 c-2.5 0.6 -5.1 0.9 -7.6 1 c2.6 2.7 8.8 8.3 9.9 9.5 h7.5 L471 207.1 z" />
</svg>