<?xml version="1.0" encoding="utf-8"?>
<!DOCTYPE svg PUBLIC "-//W3C//DTD SVG 1.1//EN" "http://www.w3.org/Graphics/SVG/1.1/DTD/svg11.dtd">
<svg version="1.1" xmlns="http://www.w3.org/2000/svg" xmlns:xlink="http://www.w3.org/1999/xlink" xmlns:xml="http://www.w3.org/XML/1998/namespace" width="1000" height="408" viewBox="0, 0, 2663.0042, 1090.031">
  <clipPath id="a">
    <path d="m0 817.523 h1997.254 v-817.523 h-1997.254 z" />
  </clipPath>
  <g clip-path="url(#a)" transform="matrix(1.333333, 0, 0, -1.333333, -0.000267, 1090.031)">
    <path d="m0 0 c-119.495 18.7 -359.687 67.086 -465.215 92.107 c-81.686 19.431 -91.253 46.094 -101.133 91.539 l-0.381 1.76 c-3.031 13.913 -28.649 152.023 -39.288 210.11 l-105.916 149.532 h1428.166 l-105.916 -149.532 c-10.084 -55.064 -36.252 -196.076 -39.285 -210.094 l-0.383 -1.776 c-9.879 -45.445 -19.447 -72.108 -101.125 -91.537 c-105.232 -24.953 -345.438 -73.321 -465.38 -92.109 l-2.074 -0.324 z" transform="translate(998.973, 272.4755)" style="fill:white;" />
    <path d="m0 0 l-92.664 -130.816 c-10.162 -55.556 -36.717 -198.658 -39.731 -212.587 c-8.72 -40.052 -12.901 -64.413 -91.519 -83.119 c-104.671 -24.817 -344.087 -73.067 -464.354 -91.906 c-120.223 18.816 -359.524 67.089 -464.194 91.906 c-78.619 18.706 -82.797 43.067 -91.521 83.119 c-3.013 13.838 -29.571 157.031 -39.732 212.587 l-92.659 130.816 z" transform="translate(1689.312, 804.1328)" />
    <path d="m0 0 h-1230.144 l73.07 -104.331 c18.266 -108.505 29.568 -178.264 34.25 -202.584 c8.129 -42.311 9.567 -60.556 53.274 -72.338 c86.905 -20.55 338.767 -72.338 454.513 -89.806 c115.745 17.468 367.629 69.186 454.582 89.806 c43.702 11.782 45.141 30.027 53.269 72.338 c4.57 24.32 15.984 94.079 34.255 202.584 z" transform="translate(1616.242, 779.54)" style="fill:white;" />
    <path d="m0 0 h-118.143 l-9.132 54.139 h507.28 v-54.139 h-13.699 v41.444 h-370.599 z" transform="translate(613.6624, 568.895)" />
    <path d="m0 0 h509.201 v39.684 h-515.801 z" transform="translate(484.3299, 635.3881)" />
    <path d="m0 0 h190.778 v28.427 h-190.709 z" transform="translate(802.8201, 502.2421)" />
    <path d="m0 0 h120.679 l-22.835 39.708 h409.394 v-39.547 h13.699 v53.271 h-558.318 z" transform="translate(472.7537, 687.7011)" />
    <path d="m0 0 h-192.468 v-79.76 h192.559 z" transform="translate(1201.162, 741.1323)" />
    <path d="m0 0 c3.128 -4.749 8.927 -10.277 28.178 -15.505 c9.316 -2.285 19.683 -4.569 34.023 -7.764 h204.295 v28.154 h-269.145 c0.712 -1.706 1.586 -3.343 2.604 -4.885 z" transform="translate(522.9886, 433.5805)" />
    <path d="m0 0 h278.166 v79.532 h-291.841 z" transform="translate(511.3196, 476.5995)" />
    <path d="m0 0 c71.243 -14.018 140.887 -26.965 190.893 -34.799 v133.465 h-190.893 z" transform="translate(802.8201, 365.0312)" />
    <path d="m0 0 h292.459 l13.359 79.784 h-305.818 z" transform="translate(1214.361, 568.895)" />
    <path d="m0 0 v-28.315 l314.561 0.115 l19.728 28.2 z" transform="translate(1214.361, 715.7646)" />
    <path d="m0 0 h13.699 v40.167 h363.931 c-0.48 -3.906 -3.881 -30.828 -5.639 -40.279 h114.924 l9.133 54.002 h-496.048 z" transform="translate(1008.694, 502.2421)" />
    <path d="m0 0 h477.235 l7.714 39.526 h-484.949 z" transform="translate(1008.694, 450.2255)" />
    <path d="m1201.254 623.011 h-192.56 v-28.473 h192.56 z" />
    <path d="m0 0 c-19.021 -3.632 -72.362 -12.925 -94.19 -16.876 v78.528 h337.238 c-16.146 -18.997 -49.369 -24.64 -243.048 -61.652 m-107.891 75.328 v-108.188 c121.32 19.843 356.898 66.561 442.617 87.888 c19.364 4.819 25.095 10.665 28.223 15.414 c1.031 1.53 1.892 3.166 2.559 4.886 z" transform="translate(1116.584, 363.1376)" />
    <path d="m0 0 c-18.453 7.42 -32.552 17.709 -42.3 30.871 c-9.752 13.158 -14.623 28.195 -14.623 45.105 c0 16.909 4.871 31.946 14.623 45.107 c9.748 13.161 23.847 23.45 42.3 30.868 c18.45 7.418 40.245 11.127 65.383 11.127 c42.862 0 78.956 -10.371 108.286 -31.106 v-5.744 l-11.602 -14.119 c-27.716 20.257 -59.944 30.39 -96.684 30.39 c-19.983 0 -37.307 -2.632 -51.968 -7.896 c-14.665 -5.265 -25.946 -12.921 -33.84 -22.973 c-7.897 -10.049 -11.844 -21.936 -11.844 -35.654 c0 -13.722 3.947 -25.604 11.844 -35.656 c7.894 -10.049 19.175 -17.707 33.84 -22.971 c14.661 -5.263 31.985 -7.897 51.968 -7.897 c18.37 0 35.248 2.55 50.639 7.658 c15.386 5.103 30.655 12.84 45.805 23.21 l11.842 -14.118 v-5.741 c-14.502 -10.211 -30.497 -18.029 -47.979 -23.451 c-17.486 -5.422 -37.586 -8.137 -60.307 -8.137 c-25.138 0 -46.933 3.709 -65.383 11.127" transform="translate(56.9232, 11.1269)" />
    <path d="m0 0 l-54.386 -84.23 h114.572 l-54.385 84.23 z m-12.569 20.103 h30.939 l107.803 -161.762 v-5.744 h-25.138 l-27.556 42.593 h-141.159 l-27.555 -42.593 h-25.139 v5.744 z" transform="translate(400.5159, 150.7538)" />
    <path d="m0 0 c34.964 0 60.79 5.024 77.468 15.076 c16.678 10.049 25.017 26.082 25.017 48.097 s-8.339 38.048 -25.017 48.099 c-16.678 10.049 -42.504 15.074 -77.468 15.074 h-65.263 v-126.346 z m-89.434 -20.579 v167.506 h94.267 c40.446 0 70.943 -7.023 91.489 -21.058 c20.545 -14.04 30.817 -34.937 30.817 -62.696 c0 -27.756 -10.272 -48.659 -30.817 -62.694 c-20.546 -14.041 -51.043 -21.058 -91.489 -21.058 z" transform="translate(676.3089, 23.9296)" />
    <path d="m896.505 3.35 h-24.171 v167.506 h24.171 z" />
    <path d="m0 0 v-146.927 h167.747 l-8.218 -20.579 h-183.7 v167.506 z" transform="translate(999.2308, 170.8564)" />
    <path d="m0 0 v-146.927 h167.746 l-8.218 -20.579 h-183.699 v167.506 z" transform="translate(1262.937, 170.8564)" />
    <path d="m0 0 l-54.385 -84.23 h114.571 l-54.385 84.23 z m-12.567 20.103 h30.938 l107.805 -161.762 v-5.744 h-25.141 l-27.555 42.593 h-141.16 l-27.554 -42.593 h-25.138 v5.744 z" transform="translate(1604.472, 150.7538)" />
    <path d="m0 0 c-18.455 7.42 -32.553 17.709 -42.301 30.871 c-9.751 13.158 -14.624 28.195 -14.624 45.105 c0 16.909 4.873 31.946 14.624 45.107 c9.748 13.161 23.846 23.45 42.301 30.868 c18.447 7.418 40.242 11.127 65.383 11.127 c42.86 0 78.955 -10.371 108.285 -31.106 v-5.744 l-11.603 -14.119 c-27.716 20.257 -59.942 30.39 -96.682 30.39 c-19.986 0 -37.308 -2.632 -51.968 -7.896 c-14.665 -5.265 -25.948 -12.921 -33.84 -22.973 c-7.898 -10.049 -11.846 -21.936 -11.846 -35.654 c0 -13.722 3.948 -25.604 11.846 -35.656 c7.892 -10.049 19.175 -17.707 33.84 -22.971 c14.66 -5.263 31.982 -7.897 51.968 -7.897 c18.369 0 35.247 2.55 50.637 7.658 c15.386 5.103 30.656 12.84 45.805 23.21 l11.843 -14.118 v-5.741 c-14.503 -10.211 -30.497 -18.029 -47.979 -23.451 c-17.487 -5.422 -37.587 -8.137 -60.306 -8.137 c-25.141 0 -46.936 3.709 -65.383 11.127" transform="translate(1823.585, 11.1269)" />
  </g>
</svg>