<?xml version="1.0" encoding="utf-8"?>
<!DOCTYPE svg PUBLIC "-//W3C//DTD SVG 1.1//EN" "http://www.w3.org/Graphics/SVG/1.1/DTD/svg11.dtd">
<svg version="1.1" xmlns="http://www.w3.org/2000/svg" xmlns:xlink="http://www.w3.org/1999/xlink" xmlns:xml="http://www.w3.org/XML/1998/namespace" x="0" y="0" width="1000" height="653" viewBox="0, 0, 311.741, 203.602" id="Livello_1" xml:space="preserve" style="enable-background:new 0 0 311.741 203.602;">
<g>
	<path d="M208.415 28.817 c-9.839 4.816 -19.677 9.632 -29.516 14.445 h-0.007 c5.999 2.295 11.995 4.599 17.988 6.911 c3.712 1.431 8.115 3.227 9.735 7.613 c1.665 4.503 -0.784 8.521 -2.948 11.909 c-3.275 5.129 -6.55 10.258 -9.825 15.384 c-11.651 18.246 -23.31 36.492 -35.006 54.711 c-0.021 -5.624 -0.034 -11.252 -0.045 -16.877 v-0.01 c4.472 -14.066 8.837 -28.164 13.048 -42.313 c1.194 -4.018 2.377 -8.039 3.543 -12.064 c0.702 -2.425 0.248 -3.877 -2.085 -5.033 c-5.958 -2.941 -11.92 -5.879 -17.885 -8.813 c-5.962 2.934 -11.923 5.872 -17.885 8.813 c-2.332 1.156 -2.786 2.608 -2.085 5.033 c1.17 4.025 2.35 8.046 3.547 12.064 c4.207 14.149 8.573 28.246 13.048 42.313 l-0.003 0.01 c-0.01 5.624 -0.024 11.252 -0.045 16.877 c-11.696 -18.219 -23.351 -36.465 -35.006 -54.711 c-3.275 -5.126 -6.55 -10.255 -9.821 -15.384 c-2.164 -3.388 -4.617 -7.406 -2.952 -11.909 c1.624 -4.386 6.024 -6.182 9.735 -7.613 c5.993 -2.312 11.989 -4.617 17.988 -6.911 h-0.003 c-9.842 -4.813 -19.681 -9.629 -29.519 -14.445 l-0.014 -0.014 c3.072 5.139 6.137 10.282 9.202 15.425 c-5.074 1.947 -10.145 3.894 -15.215 5.848 C85.732 33.393 75.072 16.712 64.456 0 c30.286 10.743 60.545 21.569 90.958 31.951 C185.831 21.569 216.086 10.743 246.376 0 c-10.616 16.712 -21.28 33.393 -31.934 50.077 c-5.067 -1.954 -10.141 -3.901 -15.215 -5.848 c3.065 -5.143 6.134 -10.286 9.202 -15.425" />
	<path d="M200.912 180.616 v6.904 h37.135 c0.784 0 1.424 -0.592 1.424 -1.321 v-4.266 c0 -0.729 -0.64 -1.318 -1.424 -1.318 H200.912 z M191.548 203.582 l-0.031 -29.409 h48.147 c4.472 0 8.098 2.738 8.098 6.88 v6.085 c0 4.245 -2.831 7.128 -5.693 7.128 l6.409 9.336 h-10.485 l-5.521 -8.968 h-31.559 v8.968 L191.548 203.582 z" clip-rule="evenodd" fill-rule="evenodd" />
	<path d="M56.245 203.6 H8.101 C3.626 203.6 0 200.246 0 196.104 V181.67 c0 -4.138 3.626 -7.496 8.101 -7.496 h48.144 v8.053 H9.718 c-0.788 0 -1.424 0.592 -1.424 1.318 v10.685 c0 0.729 0.636 1.318 1.424 1.318 h46.527 V203.6 z M120.116 174.174 v21.93 c0 4.142 -3.622 7.496 -8.098 7.496 H71.904 c-4.472 0 -8.098 -3.354 -8.098 -7.496 v-21.93 h9.677 v20.056 c0 0.729 0.636 1.318 1.424 1.318 h34.112 c0.784 0 1.424 -0.588 1.424 -1.318 v-20.056 H120.116 z M302.639 187.5 v-6.884 h-36.757 c-0.788 0 -1.424 0.588 -1.424 1.318 v5.563 C264.457 187.401 289.522 187.466 302.639 187.5 M311.741 203.6 h-9.102 v-8.965 H264.54 v8.965 h-9.102 l-0.079 -21.93 c0 -4.138 3.626 -7.496 8.098 -7.496 h48.147 c0.083 0.058 0.131 0.031 0.138 0 V203.6 z M136.711 187.521 h37.565 c0.784 0 1.424 -0.592 1.424 -1.321 v-4.266 c0 -0.729 -0.64 -1.318 -1.424 -1.318 h-37.565 V187.521 z M175.893 174.174 c5.948 0 8.098 2.738 8.098 6.88 v6.082 c0 4.142 -1.82 7.499 -8.098 7.499 h-39.182 v8.965 h-9.102 v-29.426 H175.893 z" />
</g>
</svg>