<?xml version="1.0" encoding="utf-8"?>
<!DOCTYPE svg PUBLIC "-//W3C//DTD SVG 1.1//EN" "http://www.w3.org/Graphics/SVG/1.1/DTD/svg11.dtd">
<svg version="1.1" xmlns="http://www.w3.org/2000/svg" xmlns:xlink="http://www.w3.org/1999/xlink" xmlns:xml="http://www.w3.org/XML/1998/namespace" xmlns:dc="http://purl.org/dc/elements/1.1/" xmlns:cc="http://creativecommons.org/ns#" xmlns:rdf="http://www.w3.org/1999/02/22-rdf-syntax-ns#" xmlns:sodipodi="http://sodipodi.sourceforge.net/DTD/sodipodi-0.dtd" xmlns:inkscape="http://www.inkscape.org/namespaces/inkscape" width="1000" height="129" overflow="visible" viewBox="0, 0, 1000, 128.62" id="Layer_1" xml:space="preserve" sodipodi:docname="Hyundai.svg" inkscape:version="0.92.2 (5c3e80d, 2017-08-06)" style="enable-background:new 0 0 371.549 47.788;">
  <metadata id="metadata839" />
  <defs id="defs837" />
  <sodipodi:namedview id="namedview835" pagecolor="#ffffff" bordercolor="#666666" borderopacity="1" objecttolerance="10" gridtolerance="10" guidetolerance="10" inkscape:pageopacity="0" inkscape:pageshadow="2" inkscape:window-width="1366" inkscape:window-height="705" showgrid="false" inkscape:zoom="0.59615285" inkscape:cx="561.61885" inkscape:cy="-53.207781" inkscape:window-x="-8" inkscape:window-y="-8" inkscape:window-maximized="1" inkscape:current-layer="Layer_1" />
  <g transform="matrix(2.691433, 0, 0, 2.691433, 0.0003928975, 0.00201068)" id="g832">
    <path d="m347.254 12.112 h-15.209 c-2.553 0.151 -3.266 0.784 -3.266 3.883 v8.543 h18.475 z m8.098 -6.841 v37.252 h-8.098 V31.815 h-18.475 v10.708 h-8.098 V13.319 c0 -5.16 2.09 -8.048 8.098 -8.048 z m-42.768 8.041 v20.16 c0 6.418 -3.605 9.044 -8.099 9.044 H278.942 V5.264 h25.543 c6.898 0 8.099 4.386 8.099 8.048 z m-8.195 2.242 c0 -2.041 -1.244 -3.449 -3.422 -3.449 h-13.926 v23.276 l13.926 -0.001 c3.172 -0.161 3.422 -2.063 3.422 -3.572 z M113.868 5.264 h8.098 v14.683 h18.118 V5.264 h8.098 v37.251 h-8.098 V27.313 h-18.118 v15.202 h-8.098 V5.264 Z m48.193 0 l10.152 15.229 l10.03 -15.229 h9.833 L176.258 29.08 v13.436 h-8.099 V29.078 L152.231 5.264 Z m75.472 0 h26.096 c3.719 0 7.32 0.522 7.215 8.048 v29.204 h-8.098 V15.988 c0 -3.208 -0.385 -3.883 -2.902 -3.883 h-14.211 v30.411 h-8.1 z m134.016 0.007 v37.252 h-8.1 V5.271 Z M196.126 42.516 h26.094 c5.188 0 7.321 -1.501 7.216 -8.981 V5.264 h-8.098 v26.593 c0 3.188 -0.385 3.575 -2.902 3.575 H204.225 L204.224 5.264 h-8.098 z" clip-rule="evenodd" id="path828" fill-rule="evenodd" inkscape:connector-curvature="0" style="fill:#003984;" />
    <path d="m56.707 29.416 c0.714 3.69 -1.22 6.755 -2.827 9.73 c-1.785 2.768 -4.731 5.147 -8.272 4.791 c-7.946 -0.119 -15.712 -1.339 -22.914 -3.512 c-0.327 -0.089 -0.654 -0.298 -0.833 -0.595 c-0.149 -0.417 0.06 -0.804 0.357 -1.071 c6.577 -5.327 14.403 -7.796 22.14 -10.386 c2.886 -0.833 5.952 -1.726 9.195 -1.309 c1.338 0.179 2.677 1.102 3.154 2.352 z M83.816 13.645 c3.69 3.035 7.023 7.172 5.892 12.171 c-1.845 7.38 -9.879 11.308 -16.277 13.807 c-3.482 1.161 -6.993 2.352 -10.802 2.709 c-0.238 -0.03 -0.625 0.029 -0.685 -0.328 l0.089 -0.416 c5.416 -6.101 9.522 -12.944 13.124 -19.878 c1.666 -3.125 3.214 -6.338 4.642 -9.493 c0.208 -0.238 0.417 -0.357 0.655 -0.446 c1.338 0.118 2.291 1.16 3.362 1.874 z M31.888 5.789 L31.769 6.235 C23.943 15.132 18.795 25.458 13.915 35.724 C12.963 36.617 12.04 35.426 11.177 35.039 C6.832 32.183 2.904 27.57 4.035 22.095 C5.85 14.954 13.2 11.145 19.331 8.557 c3.63 -1.369 7.41 -2.47 11.397 -3.095 c0.417 -0.001 0.952 -0.06 1.16 0.327 z m38.835 1.428 c0.446 0.238 0.982 0.327 1.25 0.773 c0.238 0.506 -0.238 0.833 -0.506 1.161 c-6.16 4.82 -13.212 7.499 -20.414 9.85 c-3.661 0.893 -7.351 2.5 -11.427 1.607 c-0.953 -0.238 -1.815 -0.863 -2.351 -1.786 c-1.012 -2.797 0.357 -5.713 1.547 -8.153 c1.577 -3.065 4.375 -6.666 8.243 -6.725 c8.332 -0.06 16.188 1.19 23.658 3.273 z M81.019 7.455 C87.328 10.907 94.47 16.977 93.726 25.071 C92.863 32.57 85.87 37.807 79.621 40.962 C61.379 49.681 35.758 49.948 16.921 42.331 C10.552 39.683 3.41 35.13 0.731 28.285 C-1.322 22.661 1.177 16.799 5.374 12.901 C14.152 4.926 25.341 2.189 36.858 0.611 c12.499 -1.518 25.651 -0.179 36.84 3.66 c2.5 0.923 4.97 1.935 7.321 3.184 z" clip-rule="evenodd" id="path830" fill-rule="evenodd" inkscape:connector-curvature="0" style="fill:#003984;" />
  </g>
</svg>