<?xml version="1.0" encoding="UTF-8"?><svg width="384" height="100" id="Calque_2" xmlns="http://www.w3.org/2000/svg" viewBox="0 0 192 50"><defs><style>.cls-1{opacity:0;}.cls-1,.cls-2{stroke-width:0px;}.cls-2{fill:#0d1f49;}</style></defs><g id="_03_Lines"><rect class="cls-1" width="191.65" height="50"/><path class="cls-2" d="m16.35,23.7h-.01s.01,0,.01,0Z"/><path class="cls-2" d="m10.57,19.69s-.04-.03-.04-.03c.02-.03.03-.03.03-.03,0,.01,0,.03.01.06Z"/><path class="cls-2" d="m16.35,23.7h-.01s.01,0,.01,0Z"/><path class="cls-2" d="m12.58,29.62s-.01,0-.01.01h0s0-.01.01-.01Z"/><path class="cls-2" d="m12.58,29.62s-.01,0-.01.01h0s0-.01.01-.01Z"/><path class="cls-2" d="m191.82,23.2c-1.59-3.79-7.94-1.32-10.37,1.07h-2.08c1.21-.5,2.31-1.24,3.16-2.11,1.44-1.46,2.13-3.78-.14-4.91-1.86-.93-3.95.96-5.09,2.19-1.31,1.4-2.72,3.05-3.49,4.83h-4.24c.58-.29,1.14-.66,1.6-.98.97-.68,1.77-1.45,2.3-2.51.78-1.6.71-3.8-1.4-4.22-3.35-.67-5.1,5.32-5.54,7.71H25.47c-.43-2.39-2.19-8.38-5.54-7.71-2.1.42-2.18,2.62-1.39,4.22.52,1.06,1.32,1.83,2.29,2.51.46.32,1.01.69,1.6.98h-4.24c-.77-1.78-2.18-3.43-3.49-4.83-1.14-1.23-3.23-3.12-5.09-2.19-2.27,1.13-1.59,3.45-.14,4.91.85.87,1.96,1.61,3.16,2.11h-2.07c-2.45-2.39-8.8-4.86-10.37-1.07-.85,2.03,1.45,3.15,3.07,3.45,2.19.4,5.08.34,7.26-.49h2.12c-2.62,1.16-5.09,3.25-3.92,5.65,1.03,2.13,3.42,1.41,4.86.27,1.62-1.28,3.67-3.83,4.18-5.92h3.94c-.69.71-1.27,1.56-1.66,2.14-.98,1.44-1.83,3.61-.08,4.8,1.76,1.19,3.46-.57,4.23-1.96.29-.51.73-1.42,1.04-2.37.33-.86.53-1.78.47-2.61h140.58c-.06.83.14,1.75.47,2.61.32.95.76,1.86,1.04,2.37.77,1.39,2.47,3.15,4.23,1.96,1.76-1.19.9-3.36-.08-4.8-.39-.58-.97-1.43-1.66-2.14h3.93c.52,2.09,2.57,4.64,4.19,5.92,1.45,1.14,3.84,1.86,4.87-.27,1.17-2.39-1.31-4.49-3.92-5.65h2.11c2.18.83,5.08.89,7.26.49,1.62-.3,3.93-1.42,3.08-3.45ZM10.53,19.66s.03-.03.03-.03c0,.01,0,.03.01.06-.03-.02-.04-.03-.04-.03Zm2.05,9.97h0s0-.01.01-.01t-.01.01Z"/></g></svg>
