<?xml version="1.0" encoding="UTF-8"?><svg id="Calque_2" xmlns="http://www.w3.org/2000/svg" width="123.38" height="101.75" viewBox="0 0 123.38 101.75"><defs><style>.cls-1{fill:#e62e2e;}.cls-1,.cls-2,.cls-3{stroke-width:0px;}.cls-4,.cls-3{isolation:isolate;}.cls-2{fill:#fff;}.cls-3{fill:#000;mix-blend-mode:multiply;opacity:.5;}</style></defs><g id="Calque_1-2"><g class="cls-4"><g id="Layer_1"><path class="cls-1" d="M112.29,42.91h-10.89L69.51,3.54c-1.97-2.25-4.82-3.54-7.82-3.54s-5.85,1.29-7.82,3.54l-31.89,39.37h-10.89c-6.12,0-11.09,4.96-11.09,11.09v36.66c0,6.12,4.97,11.09,11.09,11.09h101.2c6.12,0,11.09-4.96,11.09-11.09v-36.66c0-6.12-4.96-11.09-11.09-11.09h0ZM57.39,6.63c1.08-1.24,2.65-1.95,4.29-1.95s3.21.71,4.29,1.95l29.18,36.28H28.22L57.4,6.63h0Z"/><path class="cls-3" d="M57.39,6.63c1.08-1.24,2.65-1.95,4.29-1.95s3.21.71,4.29,1.95l29.18,36.28h6.24L69.51,3.54c-1.97-2.25-4.82-3.54-7.82-3.54s-5.85,1.29-7.82,3.54l-31.89,39.37h6.24L57.4,6.63h0Z"/><path class="cls-2" d="M18.43,60.15c0-4.54,2.51-7.26,6.85-7.26,2.06,0,3.88.62,5.02,1.72.76.74,1.23,1.64,1.23,2.36,0,.93-.64,1.54-1.56,1.54-.61,0-1.06-.23-1.66-.84-.87-1.06-1.68-1.55-2.79-1.55-2.08,0-3.26,1.54-3.26,4.21v1.36c0,2.84,1.16,4.38,3.26,4.38,1.12,0,2.02-.49,2.84-1.53.61-.64,1.03-.86,1.62-.86.94,0,1.57.62,1.57,1.54s-.62,1.93-1.63,2.68c-1.13.88-2.73,1.4-4.63,1.4-4.42,0-6.85-2.71-6.85-7.44v-1.71h0Z"/><path class="cls-2" d="M33.45,60.19c0-4.55,2.59-7.31,6.97-7.31s6.96,2.76,6.96,7.31v1.88c0,4.51-2.58,7.22-6.96,7.22s-6.97-2.73-6.97-7.22v-1.88ZM37.27,62.08c0,2.58,1.17,4.1,3.14,4.1s3.13-1.53,3.13-4.1v-1.91c0-2.61-1.18-4.16-3.13-4.16s-3.14,1.55-3.14,4.16v1.91Z"/><path class="cls-2" d="M49.93,67.08v-11.56c0-1.54.88-2.47,2.29-2.47,1.23,0,2.02.61,2.64,2.26l3.06,7.88h.13l3.05-7.89c.62-1.68,1.38-2.25,2.66-2.25,1.43,0,2.25.9,2.25,2.47v11.56c0,1.26-.64,1.99-1.75,1.99s-1.66-.69-1.66-1.99v-7.94h-.11l-2.75,7.03c-.45,1.18-.98,1.55-1.76,1.55s-1.33-.39-1.78-1.55l-2.76-7.03h-.09v7.94c0,1.26-.64,1.99-1.75,1.99s-1.68-.69-1.68-1.99h0Z"/><path class="cls-2" d="M69.08,67.01v-11.89c0-1.32.68-2.06,1.91-2.06s1.92.75,1.92,2.06v11.89c0,1.32-.68,2.06-1.89,2.06s-1.93-.75-1.93-2.06Z"/><path class="cls-2" d="M77.76,69.07c-1.12,0-1.78-.75-1.78-1.99v-11.78c0-1.48.64-2.24,1.9-2.24.84,0,1.33.42,2.09,1.53l5.32,7.93h.15v-7.47c0-1.25.65-1.99,1.76-1.99s1.79.74,1.79,1.99v11.89c0,1.39-.62,2.13-1.79,2.13-.86,0-1.38-.36-2.16-1.51l-5.36-8.03h-.15v7.56c0,1.25-.64,1.99-1.76,1.99Z"/><path class="cls-2" d="M91.47,60c0-4.37,2.61-7.11,6.87-7.11,1.79,0,3.38.49,4.53,1.35,1.04.75,1.72,1.75,1.72,2.66s-.64,1.54-1.55,1.54c-.45,0-.8-.15-1.13-.49-.94-.94-1.8-1.84-3.29-1.84-2.18,0-3.33,1.4-3.33,4.07v1.91c0,2.64,1.17,4.08,3.29,4.08,1.65,0,2.76-.97,2.76-2.42v-.67h-1.42c-1.01,0-1.56-.49-1.56-1.36s.54-1.34,1.56-1.34h2.83c1.52,0,2.2.66,2.2,2.13v.96c0,3.48-2.62,5.84-6.52,5.84-4.38,0-6.96-2.71-6.96-7.2v-2.1h0Z"/><path class="cls-2" d="M32.91,86.41c.56,0,1.03.21,1.66.77.95.89,2.09,1.38,3.26,1.38,1.65,0,2.54-.6,2.54-1.69,0-.88-.69-1.42-2.36-1.78l-2.17-.5c-2.84-.6-4.24-2.07-4.24-4.48,0-3.03,2.36-4.95,6.06-4.95,2.02,0,3.85.59,4.91,1.6.68.62,1.04,1.32,1.04,2.02,0,.84-.6,1.42-1.49,1.42-.5,0-.99-.22-1.48-.68-.81-.89-1.74-1.35-2.93-1.35-1.4,0-2.28.64-2.28,1.63,0,.87.67,1.48,2.14,1.77l2.2.47c2.94.59,4.36,2.03,4.36,4.43,0,3.11-2.53,5.11-6.49,5.11-2.17,0-4.1-.62-5.18-1.64-.67-.64-1.04-1.31-1.04-1.95,0-.93.67-1.57,1.49-1.57h0Z"/><path class="cls-2" d="M45.86,82.46c0-4.55,2.59-7.31,6.97-7.31s6.96,2.76,6.96,7.31v1.88c0,4.51-2.58,7.23-6.96,7.23s-6.97-2.73-6.97-7.23v-1.88ZM49.68,84.35c0,2.58,1.17,4.1,3.14,4.1s3.13-1.52,3.13-4.1v-1.91c0-2.61-1.18-4.16-3.13-4.16s-3.14,1.55-3.14,4.16v1.91Z"/><path class="cls-2" d="M61.73,82.46c0-4.55,2.59-7.31,6.97-7.31s6.96,2.76,6.96,7.31v1.88c0,4.51-2.58,7.23-6.96,7.23s-6.97-2.73-6.97-7.23v-1.88ZM65.55,84.35c0,2.58,1.17,4.1,3.14,4.1s3.13-1.52,3.13-4.1v-1.91c0-2.61-1.18-4.16-3.13-4.16s-3.14,1.55-3.14,4.16v1.91Z"/><path class="cls-2" d="M79.96,91.34c-1.12,0-1.78-.75-1.78-1.99v-11.78c0-1.48.64-2.24,1.9-2.24.84,0,1.33.42,2.09,1.53l5.32,7.93h.15v-7.47c0-1.25.65-1.99,1.76-1.99s1.79.74,1.79,1.99v11.89c0,1.39-.62,2.13-1.79,2.13-.86,0-1.38-.36-2.16-1.51l-5.36-8.03h-.15v7.56c0,1.25-.64,1.99-1.76,1.99Z"/></g></g></g></svg>