<?xml version="1.0" encoding="UTF-8"?>
<svg id="Layer_2" data-name="Layer 2" xmlns="http://www.w3.org/2000/svg" width="286" height="324" viewBox="0 0 143.62 162.34">
  <defs>
    <style>
      .cls-1 {
        fill: #333;
        stroke-width: 0px;
      }
    </style>
  </defs>
  <g id="Layer_1-2" data-name="Layer 1">
    <g>
      <path class="cls-1" d="m20.34,83.64c0-25.95,20.12-47.19,45.61-48.99v14l28.93-24.33L65.95,0v14.27C29.22,16.1,0,46.46,0,83.64c0,.08,0,.16,0,.23h20.34c0-.08,0-.16,0-.23Z"/>
      <path class="cls-1" d="m123.27,78.7c0,25.95-20.12,47.19-45.61,48.99v-14l-28.93,24.33,28.93,24.33v-14.27c36.73-1.82,65.95-32.18,65.95-69.37,0-.08,0-.16,0-.23h-20.34c0,.08,0,.16,0,.23Z"/>
    </g>
  </g>
</svg>
