<?xml version="1.0" encoding="utf-8"?>
<!DOCTYPE svg PUBLIC "-//W3C//DTD SVG 1.1//EN" "http://www.w3.org/Graphics/SVG/1.1/DTD/svg11.dtd">
<svg version="1.1" xmlns="http://www.w3.org/2000/svg" xmlns:xlink="http://www.w3.org/1999/xlink" xmlns:xml="http://www.w3.org/XML/1998/namespace" xmlns:dc="http://purl.org/dc/elements/1.1/" xmlns:cc="http://creativecommons.org/ns#" xmlns:rdf="http://www.w3.org/1999/02/22-rdf-syntax-ns#" xmlns:sodipodi="http://sodipodi.sourceforge.net/DTD/sodipodi-0.dtd" xmlns:inkscape="http://www.inkscape.org/namespaces/inkscape" width="1000" height="403" viewBox="0, 0, 1000.0001, 403.2098" id="svg2985" xml:space="preserve" inkscape:version="0.48.2 r9819" sodipodi:docname="2014_Jeep_Warranty.pdf">
  <metadata id="metadata2991" />
  <defs id="defs2989">
    <clipPath clipPathUnits="userSpaceOnUse" id="clipPath2999">
      <path d="m300.616 104.179 l39.3 0 l0 -28.022 l-39.3 0 l0 28.022 z" id="path3001" inkscape:connector-curvature="0" />
    </clipPath>
    <clipPath clipPathUnits="userSpaceOnUse" id="clipPath3019">
      <path d="m1189.5 352.5 l-1170 0 l0 -333 l1170 0 l0 333 z" id="path3021" inkscape:connector-curvature="0" />
    </clipPath>
    <clipPath clipPathUnits="userSpaceOnUse" id="clipPath3073">
      <path d="m438.12 246.84 l-234.24 0 l0 -85.68 l234.24 0 l0 85.68 z" id="path3075" inkscape:connector-curvature="0" />
    </clipPath>
  </defs>
  <sodipodi:namedview id="namedview2987" pagecolor="#ffffff" bordercolor="#666666" borderopacity="1" objecttolerance="10" gridtolerance="10" guidetolerance="10" inkscape:pageopacity="0" inkscape:pageshadow="2" inkscape:window-width="1049" inkscape:window-height="1020" showgrid="false" fit-margin-left="0.5" fit-margin-bottom="0.5" fit-margin-top="0.5" fit-margin-right="0.5" inkscape:zoom="0.6836626" inkscape:cx="407.31126" inkscape:cy="286.94632" inkscape:window-x="858" inkscape:window-y="-3" inkscape:window-maximized="0" inkscape:current-layer="g2993" />
  <g transform="matrix(1.25, 0, 0, -1.25, -1795.133, 711.6251)" id="g2993" inkscape:groupmode="layer" inkscape:label="2014_Jeep_Warranty">
    <g transform="matrix(5.420253, 0, 0, 5.420253, 2103.3, 397.0997)" id="g3045">
      <path d="m0 0 c-0.12 -6.621 1.31 -10.128 6.768 -10.128 c5.449 0 6.231 5.974 6.231 10.52 c0 4.549 -1.034 8.965 -6.759 8.965 C2.728 9.357 0.135 6.628 0 0 z m-11.042 -27.668 l0 44.818 l11.177 0 c0 0 0 -0.649 0 -1.818 c0 -2.425 0.978 -1.425 1.766 -0.48 c0.132 0.158 2.623 3.207 8.233 3.207 c5.593 0 14.294 -3.896 14.294 -17.667 c0 -10.652 -5.191 -18.445 -14.156 -18.445 c-4.94 0 -7.796 1.945 -8.449 2.73 c-0.654 0.774 -1.562 0.909 -1.562 0 c0 -0.911 0 -12.345 0 -12.345 l-11.303 0" id="path3047" fill-rule="nonzero" fill-opacity="1" inkscape:connector-curvature="0" style="fill:#231F20;stroke:none;" />
    </g>
    <g transform="matrix(5.420253, 0, 0, 5.420253, 1575.205, 568.9)" id="g3049">
      <path d="m0 0 l12.082 0 c0 0 0 -26.238 0 -31.696 c0 -5.452 -2.341 -16.887 -19.096 -16.887 c-16.757 0 -18.575 10.658 -18.575 16.629 l0 5.845 l11.692 0 c0 0 0 -2.208 0 -5.713 c0 -3.507 2.339 -6.753 6.753 -6.753 c4.416 0 7.144 2.467 7.144 6.621 C0 -27.797 0 0 0 0" id="path3051" fill-rule="nonzero" fill-opacity="1" inkscape:connector-curvature="0" style="fill:#231F20;stroke:none;" />
    </g>
    <g transform="matrix(5.420253, 0, 0, 5.420253, 1777.646, 423.1603)" id="g3053">
      <path d="M0 0 C0 3.251 -1.815 6.368 -5.972 6.368 C-9.999 6.368 -11.429 3.513 -11.429 0 L0 0 z m-7.137 13.641 c9.488 0 17.798 -3.636 17.798 -20.394 l-22.471 0 c0 -5.326 2.206 -7.535 6.103 -7.535 c3.898 0 5.196 3.12 5.196 3.12 l11.045 0 c0 -4.808 -6.626 -11.303 -16.631 -11.174 c-11.428 0 -17.015 8.444 -17.015 17.148 c0 8.707 4.933 18.835 15.975 18.835" id="path3055" fill-rule="nonzero" fill-opacity="1" inkscape:connector-curvature="0" style="fill:#231F20;stroke:none;" />
    </g>
    <g transform="matrix(5.420253, 0, 0, 5.420253, 1972.358, 423.1603)" id="g3057">
      <path d="M0 0 C0 3.251 -1.817 6.368 -5.974 6.368 C-9.999 6.368 -11.432 3.513 -11.432 0 L0 0 z m-7.137 13.641 c9.487 0 17.795 -3.636 17.795 -20.394 l-22.47 0 c0 -5.326 2.208 -7.535 6.108 -7.535 c3.894 0 5.194 3.12 5.194 3.12 l11.045 0 c0 -4.808 -6.627 -11.303 -16.629 -11.174 c-11.434 0 -17.021 8.444 -17.021 17.148 c0 8.707 4.939 18.835 15.978 18.835" id="path3059" fill-rule="nonzero" fill-opacity="1" inkscape:connector-curvature="0" style="fill:#231F20;stroke:none;" />
    </g>
    <g transform="matrix(5.420253, 0, 0, 5.420253, 2195.607, 276.2552)" id="g3061">
      <path d="M0 0 C0 1.775 1.445 3.217 3.226 3.217 C5.001 3.217 6.443 1.775 6.443 0 C6.443 -1.772 5.001 -3.223 3.226 -3.223 C1.445 -3.223 0 -1.772 0 0 z m-0.372 0 c0 -1.986 1.608 -3.598 3.598 -3.598 c1.977 0 3.594 1.612 3.594 3.598 c0 1.986 -1.617 3.598 -3.594 3.598 c-1.99 0 -3.598 -1.612 -3.598 -3.598" id="path3063" fill-rule="nonzero" fill-opacity="1" inkscape:connector-curvature="0" style="fill:#231F20;stroke:none;" />
    </g>
    <g transform="matrix(5.420253, 0, 0, 5.420253, 2220.903, 266.2819)" id="g3065">
      <path d="m0 0 l-0.747 1.764 c0.237 0.082 0.316 0.14 0.442 0.275 c0.164 0.176 0.267 0.454 0.267 0.706 c0 0.636 -0.489 1.069 -1.198 1.069 l-1.5 0 l0 -3.814 l0.445 0 l0 1.652 l1.084 0 L-0.495 0 L0 0 z m-2.303 2.039 l0 1.36 l1.058 0 c0.442 0 0.723 -0.252 0.723 -0.642 c0 -0.443 -0.298 -0.718 -0.785 -0.718 l-0.996 0" id="path3067" fill-rule="nonzero" fill-opacity="1" inkscape:connector-curvature="0" style="fill:#231F20;stroke:none;" />
    </g>
  </g>
</svg>