<?xml version="1.0" encoding="utf-8"?>
<!DOCTYPE svg PUBLIC "-//W3C//DTD SVG 1.1//EN" "http://www.w3.org/Graphics/SVG/1.1/DTD/svg11.dtd">
<svg version="1.1" xmlns="http://www.w3.org/2000/svg" xmlns:xlink="http://www.w3.org/1999/xlink" xmlns:xml="http://www.w3.org/XML/1998/namespace" xmlns:dc="http://purl.org/dc/elements/1.1/" xmlns:cc="http://creativecommons.org/ns#" xmlns:rdf="http://www.w3.org/1999/02/22-rdf-syntax-ns#" xmlns:sodipodi="http://sodipodi.sourceforge.net/DTD/sodipodi-0.dtd" xmlns:inkscape="http://www.inkscape.org/namespaces/inkscape" width="910" height="1000" viewBox="0, 0, 500, 548.7646" id="svg1506" inkscape:version="1.0 (4035a4fb49, 2020-05-01)" sodipodi:docname="Peugeot 2021 Logo.svg">
  <metadata id="metadata1510" />
  <sodipodi:namedview id="namedview1508" fit-margin-bottom="0" fit-margin-right="0" fit-margin-left="0" fit-margin-top="0" inkscape:document-rotation="0" inkscape:current-layer="svg1506" inkscape:window-maximized="1" inkscape:window-y="-11" inkscape:window-x="-11" inkscape:cy="255.62473" inkscape:cx="768.39232" inkscape:zoom="0.67841748" showgrid="false" inkscape:window-height="986" inkscape:window-width="1920" inkscape:pageshadow="2" inkscape:pageopacity="0" guidetolerance="10" gridtolerance="10" objecttolerance="10" borderopacity="1" bordercolor="#666666" pagecolor="#ffffff" />
  <defs id="defs1494">
    <polygon points="56.417,61.9999 0.0003747473,61.9999 0.0003747473,0.081 56.417,0.081" id="path-1" />
    <mask id="mask-2" style="fill:white;">
      <use xlink:href="#path-1" x="0" y="0" width="100%" height="100%" id="use1496" />
    </mask>
  </defs>
  <g transform="matrix(8.862636, 0, 0, 8.862636, -0.00332125, -0.7178735)" id="Clip-2" fill-rule="evenodd" stroke-width="1" style="fill:none;stroke:none;" />
  <path d="M26.945 61.4129 C19.057 57.7439 12.206 51.7309 7.653 44.4839 C3.111 37.2579 0.724 28.8889 0.14 18.1439 C-0.046 14.7159 -0.046 10.4399 0.139 5.0739 L0.223 2.6249 L2.64 2.2199 c8.505 -1.419 17.108 -2.139 25.569 -2.139 c8.461 0 17.063 0.72 25.567 2.139 l2.417 0.405 l0.085 2.449 c0.186 5.367 0.186 9.643 -0.001 13.07 c-0.585 10.745 -2.971 19.114 -7.513 26.34 c-4.552 7.247 -11.405 13.26 -19.292 16.929 l-1.263 0.587 z" transform="matrix(8.862636, 0, 0, 8.862636, -0.00332125, -0.7178735)" id="Fill-1" fill-rule="evenodd" stroke-width="1" style="mask:url(#mask-2);fill:black;stroke:none;" />
  <path d="M250.002 15.64648 C174.407 15.64648 95.93864 22.07862 16.29688 35.77539 C15.10787 67.58912 13.7526 116.7636 16.0293 158.4922 C21.09988 251.5291 41.65375 323.7415 80.71484 385.752 C119.6586 447.5815 179.9682 500.7459 250.002 532.3203 C320.0357 500.7459 380.3394 447.5815 419.2832 385.752 C458.3496 323.7415 478.8967 251.5291 483.9727 158.4922 C486.2387 116.7636 484.8902 67.58912 483.7012 35.77539 C404.0594 22.07862 325.5968 15.64648 250.002 15.64648 z M250.002 24.60938 C324.5198 24.60938 400.1844 30.92399 474.9902 43.38672 C476.6324 90.58338 476.6315 128.1356 475 158.0078 C470.0147 249.4597 449.8983 320.3163 411.6797 380.9863 C373.4663 441.651 316.1595 491.7628 250.002 522.4648 C183.8391 491.7628 126.5376 441.651 88.32422 380.9863 C50.10556 320.3163 29.98385 249.4597 25.00391 158.0078 C23.37236 128.1356 23.37146 90.58338 25.01367 43.38672 C99.81945 30.92399 175.4787 24.60938 250.002 24.60938 z" id="Combined-Shape" fill-rule="evenodd" stroke-width="5.336" style="fill:white;stroke:none;" />
  <path d="M93.6543 67.29883 C92.92052 67.28085 92.13894 67.31528 91.3125 67.40039 C80.24359 68.55464 69.19069 69.82513 58.14844 71.21875 L58.14844 103.8301 C60.06257 103.5854 61.98235 103.3512 63.89648 103.1172 L63.89648 93.02734 C73.0246 91.91032 82.16839 90.87791 91.3125 89.92578 C97.92399 89.23961 101.6191 86.48016 101.6191 79.65039 L101.6191 75.95898 C101.6191 70.11791 98.79072 67.42471 93.6543 67.29883 z M93.01953 72.48438 C94.50711 72.33012 96 73.45845 96 74.95312 L96 81.55859 C96 82.97881 94.50711 84.33651 93.01953 84.49609 C83.30491 85.49077 73.59511 86.58673 63.89648 87.76758 L63.89648 75.76172 C73.59511 74.57555 83.30491 73.48438 93.01953 72.48438 z" id="path75" fill-rule="evenodd" stroke-width="5.336" style="fill:white;stroke:none;" />
  <path d="m239.3949 59.21121 c10.34912 -0.07447 20.69823 -0.03729 31.04201 0.101045 v0 v5.255303 c-11.05825 -0.143603 -22.12183 -0.175509 -33.1854 -0.08512 c-1.49826 0.01598 -2.9965 1.308507 -2.9965 2.803186 v0 v16.34037 c0 1.494674 1.49824 2.973394 2.9965 2.957436 c9.92256 -0.08512 19.83979 -0.06914 29.76235 0.04261 v0 v-8.813802 c-5.75839 -0.06381 -11.51678 -0.09572 -17.26984 -0.09045 v0 v-5.260625 c7.6352 0 15.2704 0.05849 22.9056 0.170236 v0 v19.32441 c-10.72767 -0.159583 -21.45534 -0.202142 -32.18301 -0.138277 c-7.85381 0.05326 -11.84736 -1.297869 -11.84736 -8.904231 v0 v-14.21272 c0 -7.101044 3.567 -9.436144 10.77565 -9.489335 z" id="path89" fill-rule="evenodd" stroke-width="5.336" style="fill:white;stroke:none;" />
  <path d="M351.4785 62.62109 C345.2924 62.63862 342.5098 64.59065 342.5098 70.99023 L342.5098 85.55273 C342.5098 93.30271 346.502 94.81522 354.3398 95.3418 C361.5378 95.83115 368.7253 96.37247 375.918 96.96289 C383.6758 97.60119 387.7344 96.28148 387.7344 88.95703 L387.7344 74.39453 C387.7344 66.93179 383.036 64.93667 375.918 64.35156 C368.7253 63.75582 361.5378 63.21928 354.3398 62.72461 C353.3155 62.65546 352.3622 62.61859 351.4785 62.62109 z M351.1367 67.77148 C360.4728 68.38319 369.7976 69.08582 379.123 69.87305 C380.616 70.00071 382.1094 71.40921 382.1094 73.11133 L382.1094 89.24609 C382.1094 90.73545 380.616 92.10229 379.123 91.97461 C369.7976 91.18738 360.4728 90.48421 351.1367 89.86719 C349.4252 89.75017 348.1387 88.18218 348.1387 86.6875 L348.1387 70.55859 C348.1387 68.85115 349.4252 67.65446 351.1367 67.77148 z" id="path81" fill-rule="evenodd" stroke-width="5.336" style="fill:white;stroke:none;" />
  <path d="m214.4968 59.58564 v23.59036 c0 7.462743 -3.92957 9.101036 -11.84736 9.345716 c-6.89407 0.212742 -13.78815 0.468096 -20.68223 0.776593 c-7.34728 0.329765 -11.83669 -1.063827 -11.83669 -8.452104 v0 v-23.59035 v0 l5.63043 -0.287207 v24.58503 c0 1.494679 1.28497 2.712757 2.99116 2.63297 c9.03748 -0.42021 18.06963 -0.760634 27.1071 -1.021272 c1.71685 -0.04794 2.85787 -1.356376 2.85787 -2.851055 v0 v-24.58503 c1.9248 -0.05326 3.84959 -0.101044 5.77972 -0.143603 z" id="path85" fill-rule="evenodd" stroke-width="5.336" style="fill:white;stroke:none;" />
  <path d="m286.7428 59.6144 c13.88413 0.329766 27.76292 0.851064 41.64171 1.563823 v0 v5.255304 c-11.99665 -0.611699 -23.99863 -1.0851 -36.00595 -1.414888 v0 v8.026573 c10.67969 0.29786 21.35404 0.702123 32.02307 1.218077 v0 v5.260625 C313.7326 79.00793 303.0582 78.59839 292.3785 78.30584 v0 v8.808486 c12.00732 0.329766 24.0093 0.803189 36.00595 1.420204 v0 v5.255304 C314.5057 93.08238 300.6269 92.56111 286.7428 92.22601 v0 z" id="path83" fill-rule="evenodd" stroke-width="5.336" style="fill:white;stroke:none;" />
  <path d="m156.006 62.05642 v5.255303 c-11.99132 0.739361 -23.97731 1.617014 -35.95263 2.632971 v0 v8.031888 c10.65302 -0.90957 21.31138 -1.702121 31.97507 -2.382969 v0 v5.260619 c-10.66369 0.680849 -21.32205 1.4734 -31.97507 2.377654 v0 v8.813803 c11.97532 -1.021273 23.96131 -1.898932 35.95263 -2.632971 v0 v5.255304 c-13.86813 0.851058 -27.72559 1.89361 -41.57773 3.12233 v0 v-32.61692 c13.85214 -1.22872 27.7096 -2.265945 41.57773 -3.117008 z" id="path79" fill-rule="evenodd" stroke-width="5.336" style="fill:white;stroke:none;" />
  <path d="m398.1677 66.34258 c14.57726 1.414888 29.14386 3.042544 43.68381 4.872326 v0 v5.26062 c-6.28625 -0.792551 -12.58316 -1.547865 -18.8854 -2.26063 v0 v27.3563 c-1.91413 -0.21807 -3.82826 -0.43086 -5.75306 -0.64362 v0 v-27.35629 c-6.33957 -0.696806 -12.69513 -1.35106 -19.04535 -1.96808 v0 z" id="path77" fill-rule="evenodd" stroke-width="5.336" style="fill:white;stroke:none;" />
  <path d="m205.2941 128.7504 c26.76586 -2.34573 62.98508 -2.98403 97.58342 -0.37232 c1.96745 0.14893 3.88158 0.6117 5.69974 1.37766 c11.33551 4.7553 31.44722 15.15952 53.80898 27.92012 c0.98639 0.56383 1.91413 1.2234 2.76723 1.9734 c5.92368 5.20743 20.93282 20.52653 20.93282 20.52653 v0 l-4.68136 -0.92552 c-0.65582 -0.12768 -1.26898 -0.38298 -1.82349 -0.75532 c-9.46935 -6.34573 -23.29483 -14.60634 -34.88093 -20.43079 c-1.37561 -0.68617 -2.8632 -1.12766 -4.39344 -1.28723 c-5.63576 -0.60106 -13.25496 -1.12766 -18.24024 -1.32978 c-2.45798 -0.10105 -4.13218 -0.51066 -6.53684 -1.72872 c-4.59605 -2.32446 -15.72894 -7.36168 -21.27406 -9.47338 c-2.37267 -0.90425 -3.583 -1.11702 -5.90769 -1.07978 c-9.528 0.13827 -31.23394 0.82978 -42.31885 1.51595 c-0.38391 0.0213 -0.75179 0.005 -1.12502 -0.0533 v0 l-5.28385 -0.82447 c14.98248 -2.57446 52.01747 -5.86701 67.34653 -6.67019 v0 l-6.23826 -2.07978 c-1.205 -0.39896 -2.45798 -0.61171 -3.7323 -0.64362 c-3.32776 -0.0791 -10.72777 -0.22659 -20.3337 -0.23953 l-3.28113 0.00096 c-14.55003 0.0282 -33.26992 0.38426 -50.53513 1.68003 c-1.50891 0.1117 -2.9805 0.47343 -4.36678 1.08511 c-6.97406 3.05584 -23.98031 12.25428 -41.03605 21.70256 l-3.78692 2.10133 c-4.40956 2.45077 -8.77274 4.88899 -12.91558 7.21197 c0 0 2.1274 -2.72871 2.53796 -3.26063 c0.36258 -0.46276 0.47452 -0.54787 0.96506 -0.86702 c0.68532 -0.44822 3.02527 -1.9858 5.38432 -3.54598 l1.74732 -1.1577 c1.4165 -0.94051 2.68073 -1.78566 3.39343 -2.27502 c0.35189 -0.23937 0.57583 -0.40955 1.01837 -0.73936 c5.13457 -3.86169 13.23897 -10.67018 18.06963 -14.88825 c1.09303 -0.95212 2.02077 -2.0585 2.78322 -3.29254 c1.56223 -2.52127 3.26842 -5.25531 4.31879 -6.77126 c0.89576 -1.31382 2.426 -2.23404 4.3348 -2.40424 z" id="path73" fill-rule="evenodd" stroke-width="5.336" style="fill:white;stroke:none;" />
  <path d="m218.2611 154.5513 c0.61317 -0.005 0.99706 0.65428 0.69314 1.18088 v0 l-12.93505 22.21801 c-0.7198 1.30851 -1.9248 2.28191 -3.35373 2.71276 v0 l-24.25456 7.56913 c-2.81522 0.85105 -5.19322 1.3085 -8.12574 1.53191 c-5.37983 0.40423 -21.35937 0.90425 -21.35937 0.90425 v0 l0.35189 -0.75532 c0.16529 -0.35639 0.45854 -0.6383 0.82111 -0.79255 v0 l7.56055 -3.20212 c0.56518 -0.23937 1.06104 -0.60638 1.4396 -1.07978 v0 l11.67674 -14.34038 c0.62383 -0.76596 1.4396 -1.5 2.30869 -1.95744 c7.71518 -4.04786 21.43401 -10.12763 31.042 -13.32975 c0.90642 -0.30319 2.12741 -0.49467 3.08181 -0.50533 v0 z" id="path71" fill-rule="evenodd" stroke-width="5.336" style="fill:white;stroke:none;" />
  <path d="m157.8961 194.4709 c0.50653 -0.0426 0.98639 0.23937 1.18367 0.70212 c0.66648 1.54787 0.48521 3.27659 -0.15994 4.75531 c-0.25059 0.60106 -1.02371 1.18616 -1.6582 1.32446 v0 l-5.30519 1.17553 c-0.31992 0.0691 -0.61316 -0.18617 -0.59183 -0.51066 v0 l0.49584 -6.21275 c0.0374 -0.42021 0.36788 -0.75531 0.78912 -0.78723 v0 z" id="path69" fill-rule="evenodd" stroke-width="5.336" style="fill:white;stroke:none;" />
  <path d="m275.5443 168.2359 c0.79445 -0.13827 1.61022 -0.0266 2.34068 0.31917 v0 l5.53979 2.64361 c0.54385 0.26062 0.94374 0.75532 1.08769 1.35106 c0.75179 3.15956 1.6742 7.34572 2.2927 10.90422 c0.25059 1.47872 -0.0267 2.98935 -0.77845 4.29254 c-2.2927 3.97339 -7.00072 11.12231 -9.63464 14.96272 c-0.58651 0.8617 -0.65582 1.90425 -0.47452 2.93084 c1.19433 6.58509 6.17428 29.5797 6.17428 29.5797 v0 l-3.13512 -2.84574 c-0.62383 -0.57446 -1.03438 -1.18084 -1.30098 -1.97339 c-2.22871 -6.50531 -6.39821 -20.09569 -8.31767 -26.70737 c-0.30924 -1.09042 -0.0746 -2.25531 0.64515 -3.12233 c3.26842 -3.95743 8.02976 -10.2872 10.81298 -14.29783 c0.77845 -1.12766 1.03438 -2.37234 0.57584 -3.30318 c-0.63982 -1.30851 -1.71685 -3.29787 -2.75123 -5.10105 c-0.27727 -0.5 -0.74113 -0.87234 -1.29031 -1.05319 v0 l-3.75897 -1.20214 c-0.65582 -0.20747 -1.35962 -0.19682 -2.01011 0.0373 c-8.18971 2.96276 -19.2053 7.23403 -25.94475 10.02125 c-0.9864 0.40956 -1.39161 0.44147 -2.58595 0.26063 c-1.95145 -0.28721 -7.6352 -1.30319 -10.42376 -1.82447 c-0.50119 -0.0957 -0.75179 -0.65957 -0.49584 -1.10106 v0 l3.30574 -5.71274 c0.44789 -0.77128 1.189 -1.31915 2.06342 -1.51596 c10.6317 -2.41488 24.69178 -5.19147 38.06404 -7.54252 z" id="path67" fill-rule="evenodd" stroke-width="5.336" style="fill:white;stroke:none;" />
  <path d="m159.9489 174.2226 l-2.17539 2.67021 c-0.12263 0.11702 -0.23996 0.22872 -0.36259 0.35107 c-1.91413 1.40957 -9.97054 7.56381 -12.15127 9.28721 c-0.61849 0.48935 -0.86376 0.91489 -1.00772 1.68616 c-0.49055 2.7234 -1.3063 7.89892 -1.54624 10.76593 c-0.0693 0.84042 -0.43186 1.25531 -1.2903 1.60105 c-3.73762 1.51596 -8.16839 3.1117 -11.75139 4.54254 c-0.76778 0.30319 -0.98106 0.42021 -1.43426 0.76596 c-0.35724 0.27661 -5.11857 4.51594 -5.11857 4.51594 c0 0 10.34911 -2.54254 14.14538 -3.39892 c0.90641 -0.20215 1.29564 -0.14893 2.13274 0.2447 c0.78378 0.36172 2.09008 0.87766 2.77789 1.12766 c1.0557 0.3883 1.61555 0.37232 2.78322 0.11702 c4.27614 -0.95212 11.4688 -2.65424 15.29706 -3.64892 c1.98878 -0.51598 3.07648 -1.05319 4.76134 -2.22872 c1.83416 -1.27127 6.4782 -4.74466 6.4782 -4.74466 c0 0 -0.0853 0.6117 -0.1493 0.95212 c-0.0481 0.29253 -0.15465 0.45744 -0.34655 0.68617 c-0.94374 1.13297 -2.59661 2.97871 -3.41771 3.82446 c-1.88215 1.94148 -3.00717 2.63296 -5.36917 3.617 c-10.87697 4.52127 -29.46378 11.54252 -43.40655 16.35634 c-0.91175 0.31916 -1.3063 0.57978 -1.98345 1.27127 c-0.73579 0.74468 -1.71685 1.82978 -1.71685 1.82978 c0 0 11.36749 0.82447 14.83852 1.2234 c1.12502 0.12768 1.93013 0.49468 2.78856 1.23404 c2.85253 2.4468 12.29523 12.14358 15.12111 15.51059 c0 0 -26.84584 4.45211 -39.28503 7.5319 c-1.53557 0.37765 -2.30336 1.35106 -2.64993 2.57978 c-1.02905 3.60636 -3.45504 15.20208 -3.45504 15.20208 c0 0 -0.86375 -0.27661 -2.06875 -0.96809 c-0.826439 -0.47342 -1.247652 -0.86702 -2.154069 -1.82446 c-2.943178 -3.10106 -7.779158 -9.03721 -10.10384 -12.47868 c-0.682479 -1.01596 -0.970397 -2.30851 -0.11728 -3.34574 c2.521959 -3.09573 7.587212 -8.74465 10.3811 -11.6489 c0.298599 -0.31384 0.677144 -0.8617 1.077034 -1.64893 c0.940066 -1.86269 2.179326 -6.5802 2.610996 -8.28378 l0.13786 -0.5509 v0 l0.0182 -0.0749 c0 0 -0.0267 0.0165 -0.0748 0.0469 l-0.51028 0.32007 c-0.69156 0.43379 -1.808876 1.13475 -2.28874 1.43617 c-0.719801 0.45744 -0.917081 0.65425 -1.215663 1.28191 c-0.45319 0.9468 -1.247651 2.44148 -1.850151 3.47871 c-0.197301 0.34042 -0.72513 0.86702 -1.007719 1.0851 c-3.567 2.71808 -7.507238 5.63829 -10.31179 7.60636 c-0.191956 0.133 -0.437207 0.0745 -0.6025 -0.0851 c-0.357238 -0.3564 -1.85548 -2.05318 -2.122075 -2.45212 c-0.223922 -0.33509 -0.325539 -0.64893 -0.325539 -1.05319 c-0.005 -0.70744 0.06425 -1.95212 0.133583 -2.87765 c0.08531 -1.09574 0.399895 -1.61701 1.738184 -2.99999 c1.498247 -1.54787 3.129788 -3.17552 4.846644 -4.84573 c4.206828 -3.5319 14.82786 -12.12762 33.79323 -25.62758 c0.35724 -0.2553 0.68248 -0.55319 0.94374 -0.90957 c1.99411 -2.68084 7.65119 -9.99997 9.04814 -11.73933 c0.1973 -0.2447 0.41588 -0.47342 0.66648 -0.67021 c2.23404 -1.76063 3.33774 -2.52127 5.60377 -3.94679 c5.28386 -3.31914 15.51567 -9.37232 21.2474 -12.69678 z" id="path65" fill-rule="evenodd" stroke-width="5.336" style="fill:white;stroke:none;" />
  <path d="m117.0707 265.4393 l-2.34067 16.11165 l-7.96045 -9.31912 c1.45026 -3.13297 5.68908 -6.09041 10.30112 -6.79253 z" id="path63" fill-rule="evenodd" stroke-width="5.336" style="fill:white;stroke:none;" />
  <path d="m169.4987 273.9872 c-3.9669 6.51062 -8.70691 13.42549 -12.28991 17.74463 c-0.46922 0.56383 -1.09302 0.99999 -1.80216 1.26595 c-3.91891 1.46277 -10.45042 3.66488 -15.25974 5.12765 v0 z" id="path61" fill-rule="evenodd" stroke-width="5.336" style="fill:white;stroke:none;" />
  <path d="m338.7325 169.3832 c2.10075 -0.77128 4.4041 -0.71809 6.46753 0.14893 c16.00619 6.70211 42.92135 22.46801 57.8825 33.57436 c1.44493 1.07447 2.02077 1.81383 2.39933 3.54786 c3.51369 15.93612 4.84665 40.56903 2.63393 61.30833 c-0.15993 1.48935 -0.45853 2.38297 -1.23698 3.97339 c-9.48002 19.33505 -20.14904 37.5318 -31.37791 51.56899 v0 l0.0224 -0.22962 c0.14615 -1.49476 0.95212 -9.92316 0.99575 -14.48311 c0.005 -0.51598 0.24525 -0.98936 0.65581 -1.30319 c2.08476 -1.61701 4.94795 -3.91488 6.56884 -5.31381 c0.78911 -0.68085 1.22632 -1.19149 1.63687 -1.85106 c4.57472 -7.37232 12.75378 -22.80844 16.04886 -32.09564 c0.80511 -2.26596 1.12502 -4.66488 0.92774 -7.06381 c-1.05571 -12.94145 -3.09248 -30.87225 -6.1263 -42.57434 c-0.51717 -1.99468 -1.83948 -3.68084 -3.67897 -4.62233 c-2.61793 -1.34042 -7.7525 -3.67552 -19.44524 -8.35104 c-1.62087 -0.64893 -3.13512 -1.54786 -4.46808 -2.66488 c-7.66719 -6.42552 -19.65318 -16.05847 -27.11243 -21.601 c-2.18073 -1.62233 -4.96395 -2.21276 -7.61921 -1.6117 c-5.43315 1.22872 -12.34855 2.94148 -16.2408 3.99467 c-1.3223 0.3564 -1.84482 0.38831 -3.20977 0.22872 c-0.71091 -0.0822 -1.6296 -0.1721 -2.5947 -0.25961 l-1.46228 -0.12832 c-1.69953 -0.14477 -3.2941 -0.26728 -3.91887 -0.31458 l-0.27786 -0.0208 c12.68446 -5.94147 24.88905 -11.06911 32.52958 -13.85634 z" id="path59" fill-rule="evenodd" stroke-width="5.336" style="fill:white;stroke:none;" />
  <path d="m149.8749 251.1367 c1.25831 -0.40428 2.59661 -0.45211 3.87625 -0.1436 c5.76906 1.38298 17.97898 4.36701 27.2084 6.72339 c1.29565 0.32976 2.91119 1.53722 3.599 2.68084 v0 l2.01011 3.3351 c0.7038 1.1702 0.75179 2.60637 0.12797 3.81913 c-1.67776 3.24417 -4.07048 7.63697 -6.60014 12.16652 l-1.91388 3.40699 c-3.52272 6.23519 -7.03111 12.25062 -9.02242 15.41576 c-1.31164 2.09041 -2.0421 3.01595 -4.37744 3.84041 c-9.08014 3.18616 -20.35699 6.99466 -27.05912 9.15955 c-1.37028 0.44146 -1.83415 1.27127 -1.56756 2.78723 c0.47986 2.76062 2.0261 12.13293 2.61793 14.86697 c0.21863 1.01063 1.02905 1.81382 2.53263 1.52659 c3.96156 -0.75 14.50795 -3.32446 14.50795 -3.32446 c0 0 -3.10846 2.86702 -4.96928 4.5585 c-0.34125 0.31917 -0.73579 0.55319 -1.17833 0.69681 c-2.87387 0.95744 -9.89058 2.9202 -12.07664 3.39892 c-1.70618 0.367 -2.79388 -0.30318 -3.23109 -2.22872 c0 0 -2.99117 -12.70208 -4.07353 -17.02122 c-0.17063 -0.65957 -0.34126 -1.22872 -0.54918 -1.87765 c-0.81044 -2.5 -2.75657 -7.41488 -3.85493 -9.98934 c-0.12797 -0.29786 -0.19196 -0.61702 -0.18693 -0.9468 c0.0321 -2.94148 0.57615 -9.50529 0.57615 -9.50529 c0 0 6.45686 6.03722 9.58132 8.21806 c0.7038 0.49468 1.12502 0.59574 1.98878 0.37765 c4.29213 -1.10106 14.16138 -4.35637 19.57854 -6.37764 c1.23698 -0.46277 2.31934 -1.23936 3.16178 -2.25531 c5.60377 -6.74998 12.63114 -17.24995 16.68867 -25.17014 c0.55985 -1.09042 0.66649 -2.34041 0.31458 -3.51062 v0 l-0.87442 -2.87234 c-0.25594 -0.84042 -1.14635 -1.78722 -1.96745 -2.10105 c-9.54934 -3.62233 -17.0779 -6.31381 -25.92343 -9.31912 v0 z" id="path57" fill-rule="evenodd" stroke-width="5.336" style="fill:white;stroke:none;" />
  <path d="m320.9855 218.6474 l3.30041 1.43085 c0.97573 0.42021 1.86615 1.03723 2.60194 1.80318 c20.23436 21.06377 36.4165 42.90412 39.65827 48.65943 c0.62382 1.10637 1.05037 2.21275 1.20499 3.47871 c3.63632 30.71799 0.51183 63.26045 -6.9154 91.56887 c-0.67181 2.55318 -1.4236 3.86169 -3.88692 5.70743 c-7.92942 5.94896 -19.7661 15.43484 -31.53754 25.10622 l-3.71049 3.05637 c-14.17974 11.70977 -27.65113 23.17441 -33.36748 28.44894 c-1.43426 1.32978 -2.68724 2.82977 -3.71096 4.49467 c-2.68068 4.34573 -6.77365 11.82458 -8.78324 15.53665 l-0.56128 1.03897 c-0.40321 0.74806 -0.63669 1.18496 -0.63669 1.18496 c-2.66593 -5.80318 -8.47764 -19.96271 -10.47175 -25.68609 c-0.65048 -1.86702 -0.76778 -2.84574 -0.08 -5.34573 c3.25243 -11.86699 18.62414 -46.36688 21.6153 -52.60623 v0 l0.005 2.55319 c0 0.37232 -0.0586 0.73936 -0.17597 1.09042 c-1.34895 4.07978 -9.61332 31.27119 -11.29285 43.0637 c-0.37322 2.62233 -0.34125 3.32978 0 5.90424 c0.73579 5.5053 4.03621 15.60101 4.03621 15.60101 c0 0 1.95679 -4.07445 3.78028 -6.82976 c0.89575 -1.35106 1.43426 -2 2.89519 -3.4468 c7.39011 -7.29054 19.99731 -18.55926 33.12902 -29.89116 l4.64886 -3.99575 c10.08662 -8.63551 20.15711 -17.03864 28.11306 -23.45866 c2.06875 -1.67021 2.84187 -2.78723 3.30041 -5.95743 c2.28203 -15.61697 2.94318 -43.6488 1.56756 -64.04768 c-0.26123 -3.85105 -1.51424 -7.57444 -3.68964 -10.77124 c-4.9906 -7.35636 -10.95693 -14.31911 -20.00508 -23.26056 c-1.2903 -1.28192 -2.17006 -2.92021 -2.50063 -4.70744 c-2.63927 -14.04251 -8.53095 -39.72328 -8.53095 -39.72328 z" id="path55" fill-rule="evenodd" stroke-width="5.336" style="fill:white;stroke:none;" />
  <path d="m214.4531 228.8703 c0 0 1.83881 5.94054 3.61193 12.39178 l0.61998 2.28927 c1.12026 4.20345 2.1192 8.35328 2.48088 10.97845 c0.3466 2.52658 0.28791 3.20743 -0.61316 5.62764 c-2.18509 5.79721 -6.20596 15.12224 -10.4952 24.65524 l-1.85011 4.08863 c-5.26264 11.56568 -10.59083 22.73873 -13.17823 27.5751 c-1.27431 2.38298 -2.47398 3.93616 -4.87331 6.36701 c-5.4758 5.55849 -15.95821 16.06378 -22.44707 21.94142 c-2.35667 2.13829 -2.99116 3.96275 -3.47103 6.7287 c-0.77311 4.44148 -1.5409 12.02124 -1.75417 15.93613 c-0.18661 3.44148 0.37322 5.05317 2.29802 8.46274 c11.43681 20.34567 49.61815 67.15404 60.49511 76.9838 c0.78911 0.71276 1.36496 1.19148 3.02849 2.29255 c1.59956 1.06383 6.8141 4.43616 6.8141 4.43616 c0.20794 0.1436 0.38391 0.33509 0.51718 0.55318 v0 l1.88747 3.31382 c0 0 -0.17635 -0.0871 -0.49451 -0.24475 l-0.81505 -0.40402 c-0.65572 -0.32529 -1.5225 -0.75591 -2.51833 -1.25205 l-2.42381 -1.21016 c-3.71579 -1.85935 -8.14534 -4.09623 -10.47429 -5.34644 c-0.95973 -0.51595 -1.86081 -1.12234 -2.69791 -1.81914 c-12.73778 -10.55316 -51.77221 -56.11153 -63.25167 -75.13275 c-2.86321 -4.74999 -3.15646 -6.28722 -2.77257 -10.78188 c0.71981 -8.367 1.83416 -18.88824 2.80989 -23.49993 c0.59183 -2.78191 1.205 -4.41488 3.34307 -6.87232 c7.18483 -8.24879 15.94862 -19.13859 24.48837 -30.31232 l3.00179 -3.95162 c12.94201 -17.14154 24.86381 -34.29862 29.31531 -43.03901 c1.01838 -1.98936 1.10369 -2.68085 1.12502 -4.5585 c0.0586 -5.44679 -1.68487 -16.05315 -2.1434 -18.73399 c-0.0693 -0.42021 -0.0907 -0.84574 -0.0535 -1.27127 v0 z" id="path53" fill-rule="evenodd" stroke-width="5.336" style="fill:white;stroke:none;" />
  <path d="m249.35 296.2903 c0 0 1.47159 8.70741 1.91947 11.234 c0.25059 1.43085 0.30389 1.81383 -0.0586 3.21808 c-1.17586 4.51538 -6.60886 28.31609 -10.95794 52.67987 l-0.67691 3.84887 c-1.77692 10.26154 -3.31184 20.44823 -4.20606 29.16249 c-0.50654 4.95211 -0.34126 6.13828 0.9704 10.53188 c3.71629 12.41486 17.46179 44.85093 20.10105 50.7658 c0.29325 0.65425 0.46922 1.34042 0.55451 2.04787 v0 l0.99172 7.64891 c-4.4041 -6.63296 -28.33342 -50.49984 -37.73347 -74.79232 c-1.10902 -2.86169 -1.32229 -4.27127 -0.096 -9.53189 c6.53685 -27.90949 24.22257 -75.33488 29.19185 -86.81356 z" id="path51" fill-rule="evenodd" stroke-width="5.336" style="fill:white;stroke:none;" />
</svg>