<?xml version="1.0" encoding="UTF-8"?><svg id="Calque_2" xmlns="http://www.w3.org/2000/svg" width="133.42" height="75.88" viewBox="0 0 133.42 75.88"><defs><style>.cls-1{fill:#000;}.cls-1,.cls-2,.cls-3{stroke-width:0px;}.cls-2{fill:#027cf5;}.cls-4{opacity:.5;}.cls-3{fill:#fff;}</style></defs><g id="Layer_1"><path class="cls-2" d="M133.28,46.26l-1.09-5.25h0c.38-1.19.43-2.5.07-3.79l-3.31-11.84h0l-2.49-12.04c-.33-1.59-1.21-2.92-2.39-3.85.21.16.4.33.59.52l-1.44-5.17c-.98-3.52-4.63-5.58-8.15-4.59L12.15,28.99c-2.03.57-3.67,2.07-4.42,4.05L.42,52.53c-.51,1.35-.55,2.78-.18,4.1-.05-.23-.06-.46-.09-.69.16,1.6.88,3.13,2.13,4.26l15.44,13.97c1.57,1.42,3.71,2,5.78,1.57l104.63-21.67c3.58-.74,5.88-4.24,5.14-7.82h0ZM15.87,57.44c-2.54.71-5.15-.69-6.01-3.14h0c-.35-2.57,1.32-5.01,3.9-5.55,2.47-.51,4.87.91,5.68,3.22.33,2.43-1.15,4.79-3.57,5.47Z"/><g class="cls-4"><path class="cls-1" d="M133.28,46.26l-1.09-5.25c-.65,2.05-2.29,3.74-4.52,4.37l-102.91,28.74c-2.03.57-4.22.13-5.88-1.18L2.52,60.06c-1.13-.89-1.91-2.1-2.28-3.42.28,1.34.97,2.6,2.04,3.57l15.44,13.97c1.57,1.42,3.71,2,5.78,1.57l104.63-21.67c3.58-.74,5.88-4.24,5.14-7.82h0Z"/><path class="cls-1" d="M126.46,13.34c-.27-1.31-.92-2.45-1.8-3.33l4.29,15.38-2.49-12.04Z"/><path class="cls-1" d="M9.86,54.3c-.35-2.57,1.32-5.01,3.9-5.55,2.47-.51,4.87.91,5.68,3.22-.03-.22-.05-.44-.12-.67-.74-2.65-3.49-4.2-6.14-3.46-2.65.74-4.2,3.49-3.46,6.14.03.11.08.21.12.32Z"/></g><path class="cls-3" d="M49.43,43.87c-1.26-.74-2.95-1.03-5.07-.88l-3.58.24c-.84.06-1.49-.05-1.96-.31-.47-.26-.8-.74-.99-1.43-.21-.75-.07-1.43.41-2.02.48-.59,1.22-1.03,2.22-1.31.93-.26,1.74-.24,2.42.07.68.31,1.12.86,1.34,1.65l4.91-1.36c-.39-1.42-1.06-2.57-1.99-3.43-.93-.86-2.06-1.41-3.4-1.65s-2.82-.14-4.45.31c-1.61.44-2.95,1.14-4.04,2.09-1.08.95-1.84,2.04-2.26,3.29-.42,1.25-.44,2.55-.07,3.91.51,1.85,1.44,3.2,2.79,4.06,1.34.86,3.08,1.21,5.21,1.06l3.64-.25c.79-.07,1.39.03,1.81.29.41.26.71.7.88,1.33.2.71.03,1.37-.51,1.96-.53.6-1.36,1.05-2.48,1.36-1.1.3-2,.31-2.72.03-.71-.29-1.18-.83-1.41-1.65l-4.91,1.36c.39,1.4,1.07,2.54,2.04,3.39.97.86,2.16,1.4,3.57,1.62,1.41.22,2.95.1,4.62-.36,1.73-.48,3.16-1.19,4.29-2.14,1.13-.95,1.9-2.06,2.31-3.35.41-1.29.42-2.65.01-4.1-.5-1.79-1.37-3.05-2.63-3.79h0Z"/><path class="cls-3" d="M56.93,29.31l-1.8,24.82,5.16-1.43.3-5.21,7.29-2.02,2.91,4.32,5.25-1.46-14.29-20.36s-4.82,1.34-4.82,1.34ZM65.33,41.71l-4.46,1.24.28-5.27c.03-.44.04-.88.05-1.31,0-.43-.01-.78-.05-1.06.11.25.29.57.52.94.23.37.47.74.7,1.09l2.95,4.37h0Z"/><polygon class="cls-3" points="82.34 41.66 77.35 23.65 72.4 25.02 78.66 47.61 79.55 47.37 79.55 47.37 92.52 43.77 91.25 39.19 82.34 41.66"/><polygon class="cls-3" points="108.71 34.35 99.31 36.96 98.02 32.29 106.35 29.98 105.14 25.64 96.81 27.95 95.59 23.53 104.99 20.92 103.72 16.34 89.37 20.32 95.63 42.91 109.98 38.93 108.71 34.35"/></g></svg>