<?xml version="1.0" encoding="UTF-8"?>
<svg id="Calque_2" data-name="Calque 2" xmlns="http://www.w3.org/2000/svg" viewBox="0 0 685.03 162.31">
  <defs>
    <style>
      .cls-1 {
        stroke: #000;
        stroke-miterlimit: 10;
        stroke-width: .94px;
      }

      .cls-2, .cls-3 {
        stroke-width: 0px;
      }

      .cls-3 {
        fill: #fff;
      }
    </style>
  </defs>
  <g id="Calque_1-2" data-name="Calque 1">
    <g>
      <path class="cls-2" d="m673.03,124H141.03V0h532c6.6,0,12,5.4,12,12v100c0,6.6-5.4,12-12,12Z"/>
      <path class="cls-3" d="m12,.31C5.4.31,0,5.71,0,12.31v100c0,6.6,5.4,12,12,12h41.08l17.92,38,17.37-38h52.63V.31H12Z"/>
      <g>
        <path class="cls-1" d="m43.51,93.9v-15.11h-18.42v-9.4l14.29-35.64h14.74v35.19h6.39v9.85h-6.39v15.11h-10.6Zm-7.67-24.96h7.67l1.5-13.84,1.28-11.43h-2.11l-3.53,11.43-4.81,13.84Z"/>
        <path class="cls-1" d="m64.26,93.9v-10.45h12.78v10.45h-12.78Z"/>
        <path class="cls-1" d="m99.07,94.65c-4.99,0-8.85-1.31-11.58-3.93-2.73-2.62-4.16-6.35-4.29-11.19-.08-3.38-.13-6.85-.15-10.41-.03-3.56-.03-7.12,0-10.68.02-3.56.08-7.03.15-10.41.12-4.86,1.55-8.58,4.29-11.17,2.73-2.58,6.59-3.87,11.58-3.87s8.77,1.29,11.49,3.87c2.72,2.58,4.15,6.3,4.3,11.17.1,2.56.17,5.16.23,7.82.05,2.66.08,5.32.08,7.99s-.03,5.32-.08,7.95c-.05,2.63-.13,5.21-.23,7.74-.15,4.84-1.59,8.57-4.3,11.19-2.72,2.62-6.55,3.93-11.49,3.93Zm0-9.17c2.86,0,4.36-1.28,4.51-3.84.17-3.83.29-7.77.36-11.8s.06-8.07,0-12.11c-.06-4.04-.18-7.97-.36-11.81-.08-2.51-1.58-3.76-4.51-3.76s-4.51,1.25-4.59,3.76c-.1,2.88-.18,5.82-.25,8.82-.06,3-.09,6.01-.09,9.04s.03,6.05.09,9.04c.06,3,.14,5.93.25,8.82.08,2.56,1.6,3.84,4.59,3.84Z"/>
      </g>
      <path class="cls-3" d="m630.67,30.96l6.68,18.75c.97,2.72,3.55,4.57,6.44,4.6l19.9.26-15.77,12.14c-2.29,1.76-3.25,4.79-2.39,7.55l5.91,19.01-16.42-11.25c-1.16-.79-2.51-1.21-3.91-1.21s-2.82.44-4,1.27l-16.25,11.49,5.62-19.09c.81-2.77-.19-5.78-2.5-7.51l-15.95-11.91,19.9-.55c2.88-.08,5.44-1.97,6.37-4.7l6.39-18.85m-.02-6.19c-1.16,0-2.33.66-2.77,1.99l-7.38,21.77c-.39,1.16-1.47,1.95-2.69,1.99l-22.98.64c-2.78.08-3.9,3.61-1.67,5.27l18.42,13.75c.98.73,1.4,2,1.06,3.17l-6.49,22.05c-.6,2.03,1.01,3.77,2.82,3.77.56,0,1.14-.17,1.68-.55l18.77-13.27c.51-.36,1.1-.54,1.69-.54s1.16.17,1.65.51l18.96,12.99c.53.36,1.1.52,1.65.52,1.82,0,3.44-1.77,2.8-3.81l-6.82-21.95c-.36-1.17.04-2.44,1.01-3.19l18.21-14.02c2.2-1.69,1.03-5.21-1.75-5.25l-22.98-.3c-1.23-.02-2.31-.79-2.72-1.95l-7.71-21.65c-.46-1.3-1.61-1.95-2.76-1.95h0Z"/>
      <path class="cls-3" d="m192.49,48.52l7.38-21.77c.89-2.63,4.6-2.66,5.53-.04l7.71,21.65c.41,1.15,1.5,1.93,2.72,1.95l22.98.3c2.78.04,3.95,3.56,1.75,5.25l-18.21,14.02c-.97.75-1.37,2.02-1.01,3.19l6.82,21.95c.82,2.65-2.16,4.85-4.45,3.29l-18.96-12.99c-1.01-.69-2.35-.68-3.35.02l-18.77,13.27c-2.27,1.6-5.28-.55-4.5-3.22l6.49-22.05c.35-1.18-.08-2.44-1.06-3.17l-18.42-13.75c-2.23-1.66-1.11-5.2,1.67-5.27l22.98-.64c1.22-.03,2.3-.83,2.69-1.99Z"/>
      <path class="cls-3" d="m299.49,48.52l7.38-21.77c.89-2.63,4.6-2.66,5.53-.04l7.71,21.65c.41,1.15,1.5,1.93,2.72,1.95l22.98.3c2.78.04,3.95,3.56,1.75,5.25l-18.21,14.02c-.97.75-1.37,2.02-1.01,3.19l6.82,21.95c.82,2.65-2.16,4.85-4.45,3.29l-18.96-12.99c-1.01-.69-2.35-.68-3.35.02l-18.77,13.27c-2.27,1.6-5.28-.55-4.5-3.22l6.49-22.05c.35-1.18-.08-2.44-1.06-3.17l-18.42-13.75c-2.23-1.66-1.11-5.2,1.67-5.27l22.98-.64c1.22-.03,2.3-.83,2.69-1.99Z"/>
      <path class="cls-3" d="m406.49,48.52l7.38-21.77c.89-2.63,4.6-2.66,5.53-.04l7.71,21.65c.41,1.15,1.5,1.93,2.72,1.95l22.98.3c2.78.04,3.95,3.56,1.75,5.25l-18.21,14.02c-.97.75-1.37,2.02-1.01,3.19l6.82,21.95c.82,2.65-2.16,4.85-4.45,3.29l-18.96-12.99c-1.01-.69-2.35-.68-3.35.02l-18.77,13.27c-2.27,1.6-5.28-.55-4.5-3.22l6.49-22.05c.35-1.18-.08-2.44-1.06-3.17l-18.42-13.75c-2.23-1.66-1.11-5.2,1.67-5.27l22.98-.64c1.22-.03,2.3-.83,2.69-1.99Z"/>
      <path class="cls-3" d="m513.49,48.52l7.38-21.77c.89-2.63,4.6-2.66,5.53-.04l7.71,21.65c.41,1.15,1.5,1.93,2.72,1.95l22.98.3c2.78.04,3.95,3.56,1.75,5.25l-18.21,14.02c-.97.75-1.37,2.02-1.01,3.19l6.82,21.95c.82,2.65-2.16,4.85-4.45,3.29l-18.96-12.99c-1.01-.69-2.35-.68-3.35.02l-18.77,13.27c-2.27,1.6-5.28-.55-4.5-3.22l6.49-22.05c.35-1.18-.08-2.44-1.06-3.17l-18.42-13.75c-2.23-1.66-1.11-5.2,1.67-5.27l22.98-.64c1.22-.03,2.3-.83,2.69-1.99Z"/>
    </g>
  </g>
</svg>