<?xml version="1.0" encoding="utf-8"?>
<!DOCTYPE svg PUBLIC "-//W3C//DTD SVG 1.1//EN" "http://www.w3.org/Graphics/SVG/1.1/DTD/svg11.dtd">
<svg version="1.1" xmlns="http://www.w3.org/2000/svg" xmlns:xlink="http://www.w3.org/1999/xlink" xmlns:xml="http://www.w3.org/XML/1998/namespace" width="1000" height="837" viewBox="0, 0, 264.58, 221.38">
  <g transform="translate(170.24, 5.0558)">
    <g transform="matrix(0.52497, 0, 0, 0.52497, -170.24, -5.0558)" id="Layer_1_1_">
      <g id="Nissan_Badge_1_">
        <path d="m293.7 227.7 c-0.4 0.1 -2 0.1 -2.7 0.1 h-51.6 v12 h52.5 c0.4 0 3.5 0 4.1 -0.1 c10.7 -1 15.6 -9.9 15.6 -17.7 c0 -8 -5.1 -16.6 -14.8 -17.5 c-1.9 -0.2 -3.5 -0.2 -4.2 -0.2 h-34.3 c-1.5 0 -3.2 -0.1 -3.8 -0.3 c-2.7 -0.7 -3.7 -3.1 -3.7 -5.1 c0 -1.8 1 -4.2 3.8 -5 c0.8 -0.2 1.7 -0.3 3.6 -0.3 h49.5 v-11.8 h-50.3 c-2.1 0 -3.7 0.1 -5 0.3 c-8.6 1.2 -14.6 8.1 -14.6 16.9 c0 7.2 4.5 15.6 14.4 17 c1.8 0.2 4.3 0.2 5.4 0.2 h33.4 c0.6 0 2.1 0 2.4 0.1 c3.8 0.5 5.1 3.3 5.1 5.8 c0 2.4 -1.5 5 -4.8 5.6 z" class="st0" />
        <path d="m195.9 227.7 c-0.4 0.1 -2 0.1 -2.6 0.1 h-51.7 v12 h52.5 c0.4 0 3.5 0 4.1 -0.1 c10.7 -1 15.6 -9.9 15.6 -17.7 c0 -8 -5.1 -16.6 -14.8 -17.5 c-1.9 -0.2 -3.5 -0.2 -4.2 -0.2 h-34.3 c-1.5 0 -3.2 -0.1 -3.8 -0.3 c-2.7 -0.7 -3.7 -3.1 -3.7 -5.1 c0 -1.8 1 -4.2 3.8 -5 c0.8 -0.2 1.7 -0.3 3.6 -0.3 h49.5 v-11.8 h-50.3 c-2.1 0 -3.7 0.1 -5 0.3 c-8.6 1.2 -14.6 8.1 -14.6 16.9 c0 7.2 4.5 15.6 14.4 17 c1.8 0.2 4.3 0.2 5.4 0.2 h33.4 c0.6 0 2.1 0 2.4 0.1 c3.8 0.5 5.1 3.3 5.1 5.8 c0 2.4 -1.4 5 -4.8 5.6 z" class="st0" />
        <rect x="101.7" y="181.4" width="13" height="58.7" class="st0" />
        <polygon points="73,240.1 73,181.4 60,181.4 60,225.2 16.7,181.4 0,181.4 0,240.1 13,240.1 13,196.1 56.6,240.1" class="st0" />
        <polygon points="491.1,181.4 491.1,225.2 447.8,181.4 431.1,181.4 431.1,240.1 444.1,240.1 444.1,196.1 487.6,240.1 504,240.1 504,181.4" class="st0" />
        <path d="m363.4 181.4 l-36.6 58.7 h15.8 l6.5 -10.5 h42.7 l6.5 10.5 h15.7 l-36.6 -58.7 z m21.7 37.1 h-29.3 l14.7 -23.6 z" class="st0" />
        <path d="m72.3 148.1 c26.2 -76.5 98.4 -127.9 179.8 -127.9 s153.7 51.4 179.8 127.9 l0.2 0.6 h57.3 v-6.9 l-23.8 -2.8 c-14.7 -1.7 -17.8 -8.2 -21.8 -16.4 l-1 -2 c-34.4 -73.2 -109.3 -120.6 -190.7 -120.6 c-81.5 0 -156.3 47.4 -190.7 120.8 l-1 2 c-4 8.2 -7.1 14.7 -21.8 16.4 l-23.8 2.8 v6.9 h57.2 z" class="st0" />
        <path d="m432.1 272.9 l-0.2 0.6 c-26.2 76.5 -98.4 127.8 -179.8 127.8 s-153.7 -51.4 -179.8 -127.9 l-0.2 -0.6 h-57.2 v6.9 l23.8 2.8 c14.7 1.7 17.8 8.2 21.8 16.4 l1 2 c34.4 73.4 109.3 120.8 190.7 120.8 s156.3 -47.4 190.7 -120.7 l1 -2 c4 -8.2 7.1 -14.7 21.8 -16.4 l23.8 -2.8 v-6.9 z" class="st0" />
      </g>
    </g>
  </g>
</svg>