<?xml version="1.0" encoding="UTF-8"?>
<svg id="Calque_2" data-name="Calque 2" xmlns="http://www.w3.org/2000/svg" viewBox="0 0 587.2 165.57">
  <defs>
    <style>
      .cls-1 {
        fill: #3f3f3f;
      }

      .cls-1, .cls-2, .cls-3 {
        stroke-width: 0px;
      }

      .cls-2 {
        fill: #ffad29;
      }

      .cls-3 {
        fill: #fff;
      }
    </style>
  </defs>
  <g id="Calque_1-2" data-name="Calque 1">
    <g>
      <path class="cls-3" d="m103.75,4.26h379.75c9.08,0,16.44,7.37,16.44,16.44v59.56H87.3V20.71c0-9.08,7.37-16.44,16.44-16.44Z"/>
      <g>
        <path class="cls-1" d="m188.06,27.28l-11.29,34.37h-6.88l-11.24-34.37h7.81l6.86,22.94,6.88-22.94h7.86Z"/>
        <path class="cls-1" d="m214.91,61.65h-23.56V27.28h23.56v6.88h-16.68v6.88h11.29v6.88h-11.29v6.86h16.68v6.88Z"/>
        <path class="cls-1" d="m226.61,61.65h-6.88V27.28h13.76c1.26,0,2.48.16,3.64.49,1.17.33,2.26.79,3.27,1.39,1.01.6,1.94,1.32,2.78,2.16s1.56,1.77,2.16,2.79,1.06,2.12,1.39,3.28c.33,1.17.49,2.38.49,3.64,0,1.18-.15,2.33-.44,3.45-.3,1.12-.72,2.18-1.27,3.19-.55,1.01-1.23,1.93-2.03,2.78-.8.85-1.69,1.58-2.68,2.21l3.81,8.99h-7.31l-3-6.93-7.69.05v6.88Zm0-27.49v13.76h6.88c.94,0,1.83-.18,2.66-.54.83-.36,1.56-.85,2.18-1.47.62-.62,1.11-1.35,1.47-2.19s.54-1.73.54-2.67-.18-1.83-.54-2.67-.85-1.57-1.47-2.19c-.62-.62-1.35-1.11-2.18-1.47s-1.72-.54-2.66-.54h-6.88Z"/>
        <path class="cls-1" d="m267.19,61.65h-6.86v-10.76c-1.52-.38-2.91-1-4.18-1.85-1.27-.85-2.36-1.86-3.27-3.03-.91-1.17-1.62-2.48-2.12-3.91-.5-1.43-.75-2.94-.75-4.52v-10.31h6.88v10.31c0,.94.18,1.83.54,2.67.36.84.85,1.57,1.47,2.19.62.62,1.35,1.12,2.19,1.47s1.73.54,2.67.54,1.83-.18,2.67-.54,1.57-.85,2.19-1.47,1.11-1.35,1.47-2.19c.36-.84.54-1.73.54-2.67v-10.31h6.86v10.31c0,1.58-.25,3.09-.76,4.52-.5,1.43-1.21,2.73-2.12,3.91-.91,1.17-2,2.19-3.26,3.03-1.26.85-2.65,1.46-4.17,1.85v10.76Z"/>
        <path class="cls-1" d="m323.25,58.18c-1.6,1.36-3.38,2.4-5.35,3.13-1.97.73-4.01,1.09-6.14,1.09-1.63,0-3.2-.21-4.71-.64-1.51-.42-2.92-1.02-4.23-1.8-1.31-.78-2.51-1.7-3.6-2.78-1.09-1.08-2.01-2.28-2.78-3.59s-1.36-2.74-1.79-4.25c-.42-1.52-.63-3.09-.63-4.72s.21-3.2.63-4.7c.42-1.5,1.02-2.91,1.79-4.23s1.69-2.52,2.78-3.59c1.09-1.08,2.29-2,3.6-2.77,1.31-.77,2.72-1.36,4.23-1.79,1.51-.42,3.08-.63,4.71-.63,2.12,0,4.17.36,6.14,1.09,1.97.73,3.75,1.77,5.35,3.13l-3.6,5.99c-1.04-1.05-2.24-1.88-3.6-2.48-1.36-.6-2.79-.9-4.29-.9s-2.91.29-4.23.86c-1.32.58-2.47,1.35-3.46,2.34-.99.98-1.77,2.13-2.35,3.45s-.86,2.73-.86,4.23.29,2.94.86,4.27c.58,1.33,1.36,2.49,2.35,3.48s2.15,1.77,3.46,2.35,2.73.86,4.23.86c.86,0,1.7-.1,2.52-.31.81-.21,1.59-.5,2.33-.86v-9.78h6.64v13.57Z"/>
        <path class="cls-1" d="m362.23,44.61c0,1.63-.21,3.2-.63,4.71-.42,1.51-1.02,2.92-1.79,4.24-.77,1.32-1.69,2.52-2.78,3.61s-2.29,2.02-3.6,2.79c-1.31.77-2.72,1.37-4.24,1.8-1.52.42-3.09.64-4.72.64s-3.2-.21-4.71-.64c-1.51-.42-2.92-1.02-4.24-1.8-1.32-.78-2.52-1.71-3.61-2.79-1.09-1.09-2.02-2.29-2.79-3.61s-1.37-2.73-1.8-4.24c-.42-1.51-.63-3.08-.63-4.71s.21-3.2.63-4.72c.42-1.52,1.02-2.93,1.8-4.24.78-1.31,1.71-2.51,2.79-3.59,1.09-1.09,2.29-2.01,3.61-2.78,1.32-.77,2.73-1.36,4.24-1.79,1.51-.42,3.08-.64,4.71-.64s3.2.21,4.72.64c1.52.42,2.93,1.02,4.24,1.79,1.31.77,2.51,1.69,3.6,2.78s2.01,2.29,2.78,3.59c.77,1.31,1.36,2.73,1.79,4.24.42,1.52.63,3.09.63,4.72Zm-6.83,0c0-1.5-.29-2.92-.86-4.25-.58-1.33-1.35-2.49-2.34-3.48-.98-.98-2.14-1.76-3.48-2.34s-2.75-.86-4.25-.86-2.94.29-4.27.86-2.48,1.35-3.48,2.34c-.99.98-1.77,2.14-2.35,3.48s-.86,2.75-.86,4.25.29,2.91.86,4.23,1.36,2.47,2.35,3.46,2.15,1.77,3.48,2.35,2.75.86,4.27.86,2.92-.29,4.25-.86,2.49-1.36,3.48-2.35c.98-.99,1.76-2.14,2.34-3.46.58-1.32.86-2.73.86-4.23Z"/>
        <path class="cls-1" d="m400.41,44.61c0,1.63-.21,3.2-.63,4.71-.42,1.51-1.02,2.92-1.79,4.24-.77,1.32-1.69,2.52-2.78,3.61s-2.29,2.02-3.6,2.79c-1.31.77-2.72,1.37-4.24,1.8-1.52.42-3.09.64-4.72.64s-3.2-.21-4.71-.64c-1.51-.42-2.92-1.02-4.24-1.8-1.32-.78-2.52-1.71-3.61-2.79-1.09-1.09-2.02-2.29-2.79-3.61s-1.37-2.73-1.8-4.24c-.42-1.51-.63-3.08-.63-4.71s.21-3.2.63-4.72c.42-1.52,1.02-2.93,1.8-4.24.78-1.31,1.71-2.51,2.79-3.59,1.09-1.09,2.29-2.01,3.61-2.78,1.32-.77,2.73-1.36,4.24-1.79,1.51-.42,3.08-.64,4.71-.64s3.2.21,4.72.64c1.52.42,2.93,1.02,4.24,1.79,1.31.77,2.51,1.69,3.6,2.78s2.01,2.29,2.78,3.59c.77,1.31,1.36,2.73,1.79,4.24.42,1.52.63,3.09.63,4.72Zm-6.83,0c0-1.5-.29-2.92-.86-4.25-.58-1.33-1.35-2.49-2.34-3.48-.98-.98-2.14-1.76-3.48-2.34s-2.75-.86-4.25-.86-2.94.29-4.27.86-2.48,1.35-3.48,2.34c-.99.98-1.77,2.14-2.35,3.48s-.86,2.75-.86,4.25.29,2.91.86,4.23,1.36,2.47,2.35,3.46,2.15,1.77,3.48,2.35,2.75.86,4.27.86,2.92-.29,4.25-.86,2.49-1.36,3.48-2.35c.98-.99,1.76-2.14,2.34-3.46.58-1.32.86-2.73.86-4.23Z"/>
        <path class="cls-1" d="m432.46,44.47c0,1.58-.2,3.1-.61,4.57s-.99,2.83-1.74,4.1-1.65,2.43-2.68,3.48c-1.04,1.05-2.2,1.95-3.48,2.7s-2.65,1.33-4.11,1.74-2.98.61-4.57.61h-10.35V27.28h10.35c1.58,0,3.1.2,4.57.61s2.83.99,4.11,1.74,2.44,1.65,3.48,2.7c1.04,1.05,1.93,2.21,2.68,3.48s1.33,2.64,1.74,4.1c.41,1.46.61,2.98.61,4.57Zm-6.88,0c0-1.42-.27-2.76-.8-4s-1.27-2.34-2.21-3.27c-.93-.94-2.03-1.67-3.28-2.22-1.25-.54-2.59-.81-4.01-.81h-3.43v20.61h3.43c1.42,0,2.76-.27,4.01-.8,1.25-.54,2.35-1.27,3.28-2.21s1.67-2.03,2.21-3.28c.54-1.25.8-2.59.8-4.01Z"/>
      </g>
      <path class="cls-1" d="m547.88,94.36l38-42.13h-81.68l-.04,28.07-420.99-.08.03-27.97-81.26-.06,36.84,43.13L0,138.01h81.78v27.56h423.73v-27.79h81.68l-39.32-43.41Z"/>
      <path class="cls-2" d="m83.2,80.26h4.1V20.71c0-9.08,7.35-16.44,16.42-16.44h379.81c9.07,0,16.42,7.36,16.42,16.44v59.56h4.25V20.71c0-11.42-9.27-20.71-20.67-20.71H103.72c-11.4,0-20.67,9.29-20.67,20.71l.15,59.55Z"/>
      <polygon class="cls-2" points="141.21 138.3 122.84 151.08 129.32 129.66 111.49 116.14 133.86 115.69 141.21 94.55 148.55 115.69 170.93 116.14 153.1 129.66 159.58 151.08 141.21 138.3"/>
      <polygon class="cls-2" points="217.21 138.3 198.84 151.08 205.32 129.66 187.49 116.14 209.86 115.69 217.21 94.55 224.55 115.69 246.93 116.14 229.1 129.66 235.58 151.08 217.21 138.3"/>
      <polygon class="cls-2" points="293.21 138.3 274.84 151.08 281.32 129.66 263.49 116.14 285.86 115.69 293.21 94.55 300.55 115.69 322.93 116.14 305.1 129.66 311.58 151.08 293.21 138.3"/>
      <polygon class="cls-2" points="369.21 138.3 350.84 151.08 357.32 129.66 339.49 116.14 361.86 115.69 369.21 94.55 376.55 115.69 398.93 116.14 381.1 129.66 387.58 151.08 369.21 138.3"/>
      <path class="cls-2" d="m445.21,103.69l4.51,12.98.69,1.97,2.09.04,13.74.28-10.95,8.3-1.66,1.26.6,2,3.98,13.16-11.28-7.85-1.71-1.19-1.71,1.19-11.28,7.85,3.98-13.16.6-2-1.66-1.26-10.95-8.3,13.74-.28,2.09-.04.69-1.97,4.51-12.98m0-9.14l-7.35,21.14-22.37.46,17.83,13.52-6.48,21.42,18.37-12.78,18.37,12.78-6.48-21.42,17.83-13.52-22.37-.46-7.35-21.14h0Z"/>
    </g>
  </g>
</svg>