<?xml version="1.0" encoding="UTF-8"?><svg width="192" height="142" id="Calque_2" xmlns="http://www.w3.org/2000/svg" viewBox="0 0 96 71.93"><defs><style>.cls-1{fill:#0a0c06;}.cls-1,.cls-2{stroke-width:0px;}.cls-2{fill:#f1c410;}</style></defs><g id="_12_Bubble"><path class="cls-1" d="m11.51,53.91c-5.51-3.7-8.84-7.9-10.36-12.07-1.38-3.79-1.48-7.48-.5-10.8.83-2.82,2.55-5.36,4.98-7.39,3.54-2.96,8.62-4.89,14.75-5.1-.37-7.2,2.55-12.54,6.75-15.56,1.89-1.36,4.03-2.28,6.24-2.71,2.21-.43,4.49-.37,6.64.22,4.47,1.24,8.42,4.88,10.18,11.4,5.15-7.35,11.35-10.82,17.03-11.25,3-.23,5.86.39,8.35,1.73,2.52,1.35,4.68,3.44,6.26,6.16,3.02,5.19,4.05,12.34,1.78,20.69,6.61,1.69,10.49,6.28,11.79,11.24.72,2.74.79,5.5.22,8-.48,2.13-1.46,4.07-2.93,5.6-3.1,3.24-8.45,4.75-15.84,2.31-1.27,3.86-3.48,6.67-6.18,8.58-2.64,1.87-5.76,2.9-8.93,3.22-3.17.32-6.37-.06-9.18-1.02-3.11-1.06-5.75-2.83-7.35-5.14-2.29,2.84-6.38,6.09-10.93,8.06-3.19,1.38-6.62,2.14-9.84,1.71-3.24-.44-6.28-2.09-8.65-5.56-1.93-2.82-3.44-6.83-4.29-12.34h0Z"/><path class="cls-2" d="m1.6,41.08c1.5,3.84,4.85,7.74,10.43,11.24l.27.17.15.92c.81,4.98,2.25,8.61,4.09,11.16,2.34,3.25,5.31,4.76,8.47,5.1,3.18.35,6.56-.49,9.69-1.95,4.55-2.11,8.57-5.49,10.74-8.38l.12-.16.16.23c1.53,2.23,4.19,3.93,7.34,4.92,2.81.88,5.99,1.18,9.11.79,3.12-.4,6.18-1.49,8.75-3.42,2.63-1.96,4.73-4.78,5.82-8.58l.08-.28.14.04c7.43,2.28,12.7.69,15.68-2.58,1.33-1.46,2.19-3.22,2.57-5.1.3-1.5.25-3.03-.15-4.45-1.31-4.54-5.39-8.72-12.43-9.92l-1.17-.2.71-2.3c2.37-7.66,1.56-13.96-1.07-18.25-1.54-2.52-3.66-4.46-6.12-5.7-2.48-1.25-5.31-1.79-8.26-1.49-5.7.58-11.85,4.27-16.8,11.9l-.26.4-.27-1.07c-1.53-6.16-5.46-9.57-9.95-10.69-2.13-.53-4.38-.53-6.55-.06-2.17.48-4.26,1.44-6.09,2.82-4.05,3.07-6.78,8.07-5.95,14.28l.2,1.46-.4.02c-6.23.31-11.35,2.37-14.84,5.43-2.29,2.01-3.87,4.44-4.58,7.08-.58,2.13-.49,4.39.38,6.61h0Z"/></g></svg>
