<?xml version="1.0" encoding="UTF-8"?>
<svg xmlns="http://www.w3.org/2000/svg" viewBox="0 0 727.92 123.23">
  <defs>
    <style>
      .cls-1 {
        isolation: isolate;
      }

      .cls-2, .cls-3 {
        stroke-width: 0px;
      }

      .cls-4 {
        mix-blend-mode: overlay;
        opacity: .96;
      }

      .cls-5 {
        mix-blend-mode: multiply;
        opacity: .15;
      }

      .cls-3 {
        fill: #ffdb2b;
      }
    </style>
  </defs>
  <g class="cls-1">
    <g id="Calque_2" data-name="Calque 2">
      <g id="Calque_1-2" data-name="Calque 1">
        <g>
          <g>
            <polygon class="cls-3" points="213.68 0 194.37 41.25 150 47.03 181.84 78.62 174.07 123.23 213.68 101.89 252.94 123.23 245.51 78.73 277.92 48.28 233.8 40.86 213.68 0"/>
            <g class="cls-4">
              <polygon class="cls-2" points="213.68 0 213.96 64.67 233.8 40.86 213.68 0"/>
              <polygon class="cls-2" points="213.96 64.67 277.92 48.28 245.51 78.73 213.96 64.67"/>
              <polygon class="cls-2" points="213.96 64.67 252.94 123.23 213.68 101.89 213.96 64.67"/>
              <polygon class="cls-2" points="213.96 64.67 213.68 101.89 174.07 123.23 213.96 64.67"/>
              <polygon class="cls-2" points="213.96 64.67 181.84 78.62 150 47.03 213.96 64.67"/>
            </g>
          </g>
          <polygon class="cls-3" points="213.68 0 194.37 41.25 150 47.03 181.84 78.62 174.07 123.23 213.68 101.89 252.94 123.23 245.51 78.73 277.92 48.28 233.8 40.86 213.68 0"/>
          <g>
            <polygon class="cls-3" points="363.68 0 344.37 41.25 300 47.03 331.84 78.62 324.07 123.23 363.68 101.89 402.94 123.23 395.51 78.73 427.92 48.28 383.8 40.86 363.68 0"/>
            <g class="cls-4">
              <polygon class="cls-2" points="363.68 0 363.96 64.67 383.8 40.86 363.68 0"/>
              <polygon class="cls-2" points="363.96 64.67 427.92 48.28 395.51 78.73 363.96 64.67"/>
              <polygon class="cls-2" points="363.96 64.67 402.94 123.23 363.68 101.89 363.96 64.67"/>
              <polygon class="cls-2" points="363.96 64.67 363.68 101.89 324.07 123.23 363.96 64.67"/>
              <polygon class="cls-2" points="363.96 64.67 331.84 78.62 300 47.03 363.96 64.67"/>
            </g>
          </g>
          <polygon class="cls-3" points="363.68 0 344.37 41.25 300 47.03 331.84 78.62 324.07 123.23 363.68 101.89 402.94 123.23 395.51 78.73 427.92 48.28 383.8 40.86 363.68 0"/>
          <g>
            <polygon class="cls-3" points="513.68 0 494.37 41.25 450 47.03 481.84 78.62 474.07 123.23 513.68 101.89 552.94 123.23 545.51 78.73 577.92 48.28 533.8 40.86 513.68 0"/>
            <g class="cls-4">
              <polygon class="cls-2" points="513.68 0 513.96 64.67 533.8 40.86 513.68 0"/>
              <polygon class="cls-2" points="513.96 64.67 577.92 48.28 545.51 78.73 513.96 64.67"/>
              <polygon class="cls-2" points="513.96 64.67 552.94 123.23 513.68 101.89 513.96 64.67"/>
              <polygon class="cls-2" points="513.96 64.67 513.68 101.89 474.07 123.23 513.96 64.67"/>
              <polygon class="cls-2" points="513.96 64.67 481.84 78.62 450 47.03 513.96 64.67"/>
            </g>
          </g>
          <polygon class="cls-3" points="513.68 0 494.37 41.25 450 47.03 481.84 78.62 474.07 123.23 513.68 101.89 552.94 123.23 545.51 78.73 577.92 48.28 533.8 40.86 513.68 0"/>
          <g>
            <polygon class="cls-3" points="663.68 0 644.37 41.25 600 47.03 631.84 78.62 624.07 123.23 663.68 101.89 702.94 123.23 695.51 78.73 727.92 48.28 683.8 40.86 663.68 0"/>
            <g class="cls-4">
              <polygon class="cls-2" points="663.68 0 663.96 64.67 683.8 40.86 663.68 0"/>
              <polygon class="cls-2" points="663.96 64.67 727.92 48.28 695.51 78.73 663.96 64.67"/>
              <polygon class="cls-2" points="663.96 64.67 702.94 123.23 663.68 101.89 663.96 64.67"/>
              <polygon class="cls-2" points="663.96 64.67 663.68 101.89 624.07 123.23 663.96 64.67"/>
              <polygon class="cls-2" points="663.96 64.67 631.84 78.62 600 47.03 663.96 64.67"/>
            </g>
          </g>
          <polygon class="cls-3" points="663.68 0 644.37 41.25 600 47.03 631.84 78.62 624.07 123.23 663.68 101.89 702.94 123.23 695.51 78.73 727.92 48.28 683.8 40.86 663.68 0"/>
          <polygon class="cls-3" points="63.68 0 44.37 41.25 0 47.03 31.84 78.62 24.07 123.23 63.68 101.89 102.94 123.23 95.51 78.73 127.92 48.28 83.8 40.86 63.68 0"/>
          <g class="cls-5">
            <g>
              <polygon class="cls-2" points="213.68 0 213.96 64.67 233.8 40.86 213.68 0"/>
              <polygon class="cls-2" points="213.96 64.67 277.92 48.28 245.51 78.73 213.96 64.67"/>
              <polygon class="cls-2" points="213.96 64.67 252.94 123.23 213.68 101.89 213.96 64.67"/>
              <polygon class="cls-2" points="213.96 64.67 213.68 101.89 174.07 123.23 213.96 64.67"/>
              <polygon class="cls-2" points="213.96 64.67 181.84 78.62 150 47.03 213.96 64.67"/>
            </g>
            <g>
              <polygon class="cls-2" points="363.68 0 363.96 64.67 383.8 40.86 363.68 0"/>
              <polygon class="cls-2" points="363.96 64.67 427.92 48.28 395.51 78.73 363.96 64.67"/>
              <polygon class="cls-2" points="363.96 64.67 402.94 123.23 363.68 101.89 363.96 64.67"/>
              <polygon class="cls-2" points="363.96 64.67 363.68 101.89 324.07 123.23 363.96 64.67"/>
              <polygon class="cls-2" points="363.96 64.67 331.84 78.62 300 47.03 363.96 64.67"/>
            </g>
            <g>
              <polygon class="cls-2" points="513.68 0 513.96 64.67 533.8 40.86 513.68 0"/>
              <polygon class="cls-2" points="513.96 64.67 577.92 48.28 545.51 78.73 513.96 64.67"/>
              <polygon class="cls-2" points="513.96 64.67 552.94 123.23 513.68 101.89 513.96 64.67"/>
              <polygon class="cls-2" points="513.96 64.67 513.68 101.89 474.07 123.23 513.96 64.67"/>
              <polygon class="cls-2" points="513.96 64.67 481.84 78.62 450 47.03 513.96 64.67"/>
            </g>
            <g>
              <polygon class="cls-2" points="663.68 0 663.96 64.67 683.8 40.86 663.68 0"/>
              <polygon class="cls-2" points="663.96 64.67 727.92 48.28 695.51 78.73 663.96 64.67"/>
              <polygon class="cls-2" points="663.96 64.67 702.94 123.23 663.68 101.89 663.96 64.67"/>
              <polygon class="cls-2" points="663.96 64.67 663.68 101.89 624.07 123.23 663.96 64.67"/>
              <polygon class="cls-2" points="663.96 64.67 631.84 78.62 600 47.03 663.96 64.67"/>
            </g>
            <g>
              <polygon class="cls-2" points="63.68 0 63.96 64.67 83.8 40.86 63.68 0"/>
              <polygon class="cls-2" points="63.96 64.67 127.92 48.28 95.51 78.73 63.96 64.67"/>
              <polygon class="cls-2" points="63.96 64.67 102.94 123.23 63.68 101.89 63.96 64.67"/>
              <polygon class="cls-2" points="63.96 64.67 63.68 101.89 24.07 123.23 63.96 64.67"/>
              <polygon class="cls-2" points="63.96 64.67 31.84 78.62 0 47.03 63.96 64.67"/>
            </g>
          </g>
        </g>
      </g>
    </g>
  </g>
</svg>