<?xml version="1.0" encoding="UTF-8"?>
<svg id="Calque_2" data-name="Calque 2" xmlns="http://www.w3.org/2000/svg" viewBox="0 0 546 129">
  <defs>
    <style>
      .cls-1 {
        fill: #ffad29;
      }

      .cls-1, .cls-2, .cls-3 {
        stroke-width: 0px;
      }

      .cls-3 {
        fill: #fa7221;
      }
    </style>
  </defs>
  <g id="Calque_1-2" data-name="Calque 1">
    <g>
      <rect class="cls-2" x="7.5" y="7.5" width="531" height="114" rx="57" ry="57"/>
      <path class="cls-1" d="m481.5,0H64.5C28.93,0,0,28.93,0,64.5s28.93,64.5,64.5,64.5h417c35.57,0,64.5-28.93,64.5-64.5S517.07,0,481.5,0Zm0,121.5H64.5c-31.48,0-57-25.52-57-57h0c0-31.48,25.52-57,57-57h417c31.48,0,57,25.52,57,57h0c0,31.48-25.52,57-57,57Z"/>
      <polygon class="cls-3" points="91 84.41 67.38 100.85 75.71 73.31 52.78 55.92 81.55 55.33 91 28.15 100.45 55.33 129.22 55.92 106.29 73.31 114.62 100.85 91 84.41"/>
      <polygon class="cls-3" points="182 84.41 158.38 100.85 166.71 73.31 143.78 55.92 172.55 55.33 182 28.15 191.45 55.33 220.22 55.92 197.29 73.31 205.62 100.85 182 84.41"/>
      <polygon class="cls-3" points="273 84.41 249.38 100.85 257.71 73.31 234.78 55.92 263.55 55.33 273 28.15 282.45 55.33 311.22 55.92 288.29 73.31 296.62 100.85 273 84.41"/>
      <polygon class="cls-3" points="364 84.41 340.38 100.85 348.71 73.31 325.78 55.92 354.55 55.33 364 28.15 373.45 55.33 402.22 55.92 379.29 73.31 387.62 100.85 364 84.41"/>
      <path class="cls-3" d="m455,37.29l6.61,19.03.69,1.97,2.09.04,20.14.41-16.05,12.17-1.66,1.26.6,2,5.83,19.28-16.54-11.51-1.71-1.19-1.71,1.19-16.54,11.51,5.83-19.28.6-2-1.66-1.26-16.05-12.17,20.14-.41,2.09-.04.69-1.97,6.61-19.03m0-9.14l-9.45,27.18-28.77.59,22.93,17.39-8.33,27.54,23.62-16.44,23.62,16.44-8.33-27.54,22.93-17.39-28.77-.59-9.45-27.18h0Z"/>
    </g>
  </g>
</svg>