<?xml version="1.0" encoding="UTF-8"?><svg id="Calque_2" xmlns="http://www.w3.org/2000/svg" width="121.32" height="81.07" viewBox="0 0 121.32 81.07"><defs><style>.cls-1{fill:#e62e2e;}.cls-1,.cls-2,.cls-3{stroke-width:0px;}.cls-4,.cls-3{isolation:isolate;}.cls-2{fill:#fff;}.cls-3{fill:#000;mix-blend-mode:multiply;opacity:.5;}</style></defs><g id="Calque_1-2"><g class="cls-4"><g id="Layer_1"><path class="cls-1" d="M104.39,31.02l-2.64-21.39c-.33-2.68-2.54-4.74-5.23-4.89L10.65,0c-2.87-.16-5.39,1.88-5.83,4.72L.07,35.48c-.54,3.5,2.26,6.61,5.79,6.43l93.26-4.63c3.24-.16,5.66-3.04,5.26-6.26h0Z"/><path class="cls-1" d="M115.46,39.16l-93.26,4.63c-3.24.16-5.66,3.04-5.26,6.26l2.64,21.39c.33,2.68,2.54,4.74,5.23,4.89l85.86,4.73c2.87.16,5.38-1.88,5.82-4.72l4.76-30.75c.54-3.5-2.26-6.61-5.79-6.43h0Z"/><path class="cls-2" d="M24.04,27.86c-1.09-5-1.63-7.54-2.72-12.68v13.84c0,.77-.15,1.35-.44,1.74-.29.4-.67.61-1.15.64-.46.02-.84-.15-1.13-.52-.29-.37-.44-.95-.44-1.74V13.04c0-.89.19-1.48.58-1.77s.91-.42,1.56-.39c.43.02.64.03,1.06.05.64.03,1.11.12,1.39.27.29.15.5.4.64.76s.3.94.47,1.74c.99,4.37,1.48,6.53,2.47,10.8.99-4.3,1.48-6.42,2.47-10.62.18-.77.34-1.32.47-1.65.14-.33.35-.56.64-.68.29-.12.75-.16,1.39-.13.43.02.64.03,1.07.05.66.03,1.18.2,1.56.51.39.3.58.86.58,1.68v14.82c0,.72-.15,1.26-.43,1.63-.29.37-.68.57-1.16.6-.46.02-.83-.14-1.12-.49-.29-.35-.44-.89-.44-1.62v-13.15c-1.09,4.82-1.63,7.27-2.72,12.23-.18.81-.32,1.4-.43,1.78-.11.38-.32.73-.62,1.06s-.72.5-1.25.53c-.4.02-.74-.06-1.02-.25-.28-.19-.49-.43-.65-.74s-.28-.65-.37-1.03-.18-.77-.27-1.18h0Z"/><path class="cls-2" d="M49.24,15.02c-3.1-.11-4.65-.16-7.74-.26v4.43c2.85.03,4.28.04,7.13.07.53,0,.92.13,1.17.37.26.24.39.56.39.94s-.13.71-.38.96c-.25.25-.65.37-1.18.38-2.85.02-4.28.02-7.13.04v5.13c3.2-.11,4.81-.16,8.01-.27.54-.02.95.1,1.22.34.27.24.41.57.41.99s-.14.74-.41,1-.68.41-1.22.44c-3.74.19-5.61.28-9.34.47-.75.04-1.29-.11-1.61-.46-.33-.34-.49-.92-.49-1.72v-13.82c0-.54.07-.97.22-1.3.15-.33.38-.57.69-.71.31-.14.71-.19,1.2-.17,3.63.18,5.44.27,9.07.45.55.03.95.17,1.22.43.26.26.4.58.4.98s-.13.73-.4.96-.67.35-1.22.33h0Z"/><path class="cls-2" d="M69.37,22.38v2.93c0,.39-.04.7-.13.93-.08.24-.24.45-.47.65-.23.2-.52.39-.88.58-1.03.55-2.01.97-2.96,1.25s-1.98.46-3.1.51c-1.3.07-2.49-.06-3.57-.4-1.07-.34-1.99-.86-2.74-1.58s-1.34-1.62-1.74-2.69c-.4-1.07-.61-2.28-.61-3.61s.2-2.51.59-3.59c.39-1.08.97-1.98,1.74-2.7.76-.72,1.7-1.25,2.79-1.58,1.1-.34,2.34-.47,3.73-.39,1.14.06,2.15.25,3.03.58.88.32,1.59.71,2.14,1.16.55.44.96.9,1.24,1.38.28.48.42.89.42,1.26,0,.39-.16.72-.48.99s-.7.4-1.15.39c-.25,0-.49-.06-.71-.17-.23-.11-.42-.26-.57-.46-.42-.62-.78-1.09-1.08-1.42s-.69-.6-1.19-.83c-.5-.23-1.13-.36-1.9-.39-.79-.03-1.5.08-2.13.32-.62.24-1.16.61-1.6,1.1-.44.49-.78,1.11-1.02,1.83-.24.73-.35,1.55-.35,2.44,0,1.94.46,3.43,1.37,4.44.91,1.01,2.19,1.47,3.82,1.42.79-.03,1.54-.15,2.24-.37.7-.22,1.41-.52,2.12-.89v-2.53c-1.07.01-1.6.02-2.66.03-.64,0-1.12-.08-1.45-.25-.33-.18-.49-.49-.49-.92,0-.36.14-.65.41-.89s.65-.35,1.12-.35c1.56,0,2.34,0,3.9,0,.48,0,.88.04,1.21.12s.6.25.8.51.31.66.31,1.19h0Z"/><path class="cls-2" d="M82.6,26.35c-.32-.69-.49-1.03-.81-1.73-2.76.07-4.14.11-6.9.18-.32.76-.49,1.15-.81,1.92-.32.75-.59,1.27-.81,1.54-.22.27-.59.42-1.1.45-.43.02-.81-.1-1.15-.36s-.5-.58-.5-.94c0-.21.04-.42.12-.64s.21-.53.38-.93c1.74-3.98,2.6-5.91,4.34-9.66.12-.27.27-.59.45-.97.17-.37.36-.68.56-.93.19-.24.46-.43.77-.57.32-.14.72-.19,1.19-.17.48.03.88.12,1.2.29.32.17.58.38.78.62.2.25.36.51.5.79.14.28.31.65.51,1.11,1.77,3.69,2.66,5.48,4.43,8.94.35.66.52,1.14.52,1.44s-.17.61-.49.89c-.33.28-.72.43-1.19.46-.27.01-.5-.01-.69-.08s-.36-.17-.49-.3c-.13-.13-.27-.33-.42-.61-.15-.27-.28-.52-.39-.73h0ZM75.79,22.55c2.03-.02,3.04-.03,5.07-.06-1.02-2.32-1.54-3.5-2.56-5.9-1,2.34-1.51,3.53-2.51,5.96Z"/><path class="cls-3" d="M22.2,43.79l93.26-4.63c3.53-.18,6.34,2.94,5.79,6.43l-4.76,30.75c-.44,2.84-2.96,4.88-5.82,4.72l-85.86-4.73c-2.7-.15-4.9-2.21-5.23-4.89l-2.64-21.39c-.4-3.22,2.02-6.1,5.26-6.26h0Z"/><path class="cls-2" d="M52.17,63.12c0,.91-.26,1.73-.79,2.43-.53.7-1.3,1.23-2.32,1.57s-2.23.47-3.62.39c-1.68-.1-3.06-.44-4.14-1.01-.77-.41-1.4-.93-1.88-1.56-.48-.63-.72-1.23-.72-1.8,0-.33.15-.62.43-.85.29-.23.66-.35,1.11-.34.36,0,.67.1.92.3.25.19.46.48.64.86.21.45.45.83.7,1.13.25.31.61.57,1.06.78.46.21,1.05.34,1.79.37,1.02.04,1.85-.13,2.48-.51.64-.39.96-.89.96-1.5,0-.49-.17-.89-.52-1.2s-.79-.54-1.33-.71c-.54-.16-1.27-.34-2.18-.52-1.22-.25-2.24-.53-3.06-.84-.82-.31-1.47-.73-1.96-1.26-.48-.53-.72-1.18-.72-1.97s.25-1.42.76-2.03c.51-.61,1.25-1.1,2.21-1.47.96-.37,2.1-.6,3.4-.68,1.04-.06,1.94,0,2.7.18.76.18,1.39.45,1.89.8.5.35.87.73,1.1,1.14s.35.81.35,1.2c0,.36-.15.69-.43.99s-.65.45-1.08.46c-.39,0-.69-.07-.9-.24-.21-.17-.44-.44-.67-.82-.31-.53-.68-.96-1.11-1.25-.43-.29-1.13-.41-2.08-.37-.89.04-1.6.23-2.15.57-.54.34-.82.74-.82,1.19,0,.28.09.52.28.72.18.2.44.37.76.51s.65.25.98.33.88.2,1.64.35c.95.18,1.82.38,2.6.61.77.23,1.43.51,1.98.85.54.34.97.77,1.27,1.29.31.53.46,1.17.46,1.93h0Z"/><path class="cls-2" d="M65.94,66.53c-.32-.85-.49-1.27-.81-2.11-2.76-.08-4.14-.12-6.9-.2-.32.8-.49,1.2-.81,1.99-.32.77-.59,1.28-.81,1.54-.22.26-.59.38-1.1.35-.43-.03-.81-.19-1.15-.49s-.5-.64-.5-1c0-.21.04-.42.12-.64s.2-.52.38-.91c1.74-3.92,2.6-5.94,4.34-10.11.12-.3.27-.66.45-1.08.17-.42.36-.78.56-1.06.2-.28.45-.52.77-.71.32-.19.72-.3,1.19-.32.48-.03.88.04,1.2.19.32.16.58.37.78.63.2.26.36.55.5.86.14.31.31.73.52,1.25,1.77,4.19,2.66,6.34,4.43,10.79.35.85.52,1.46.52,1.84s-.17.75-.49,1.06c-.33.31-.72.45-1.19.42-.27-.02-.5-.08-.69-.18-.19-.11-.36-.24-.49-.42-.13-.17-.27-.43-.42-.77-.15-.34-.28-.65-.39-.91h0ZM59.14,61.84c2.03.02,3.04.04,5.07.06-1.02-2.72-1.54-4.06-2.56-6.69-1,2.7-1.51,4.02-2.51,6.63h0Z"/><path class="cls-2" d="M75.5,53.14c0,5.15,0,7.72,0,12.87,2.79.1,4.18.15,6.97.26.56.02.98.18,1.28.49.3.31.44.69.44,1.14s-.15.82-.44,1.09c-.29.27-.72.38-1.29.35-3.32-.19-4.98-.28-8.3-.46-.75-.04-1.29-.24-1.61-.6-.33-.36-.49-.91-.49-1.67,0-5.33,0-7.99,0-13.32,0-.71.16-1.25.47-1.62.31-.37.72-.57,1.23-.6.52-.03.94.12,1.26.46.32.34.48.88.48,1.61Z"/><path class="cls-2" d="M97.63,53.18c-3.1.12-4.65.18-7.74.3v4.74c2.85-.03,4.28-.05,7.13-.08.52,0,.92.13,1.18.41.26.28.39.65.39,1.11s-.13.84-.38,1.12c-.25.29-.65.43-1.18.43-2.85-.02-4.28-.03-7.13-.04v5.49c3.2.12,4.81.18,8.01.3.54.02.95.19,1.22.5.27.31.41.72.41,1.22s-.14.87-.41,1.15-.68.41-1.22.38c-3.74-.21-5.6-.31-9.34-.52-.75-.04-1.29-.26-1.61-.65-.33-.39-.49-.99-.49-1.82,0-5.68,0-8.53,0-14.21,0-.55.07-1,.22-1.36.15-.36.38-.62.69-.8.31-.18.71-.28,1.2-.31,3.63-.2,5.44-.3,9.08-.51.55-.03.95.09,1.22.37.26.28.4.65.4,1.12s-.13.88-.4,1.18-.67.46-1.22.48Z"/></g></g></g></svg>