<?xml version="1.0" encoding="UTF-8"?><svg id="Calque_2" xmlns="http://www.w3.org/2000/svg" width="118.99" height="94.36" viewBox="0 0 118.99 94.36"><defs><style>.cls-1{fill:#027cf5;}.cls-1,.cls-2,.cls-3{stroke-width:0px;}.cls-2{fill:#1c1c1c;}.cls-3{fill:#fff;}</style></defs><g id="Layer_1"><path class="cls-2" d="M86.75,78.15c.24.96.5,1.87.68,2.79.4,2.01.47,4.03-.2,5.99-.29.84-.64,1.69-1.16,2.39-2.31,3.13-5.39,4.91-9.32,5.03-1.22.04-2.42-.22-3.54-.73-3.33-1.52-5.79-3.85-6.76-7.49-.61-2.32-.24-4.59.49-6.83.09-.29.2-.58.32-.91h-17.15c.04.15.08.3.13.44.62,1.99,1,4,.77,6.09-.13,1.21-.43,2.37-1.03,3.42-4.3,7.54-13.73,7.75-18.51,1.38-1.4-1.87-1.89-4.04-1.74-6.32.1-1.54.42-3.06.64-4.59.02-.11.04-.22.07-.36-.14-.05-.26-.09-.39-.14-.56-.24-1.15-.44-1.68-.74-1.35-.77-1.82-1.85-1.41-3.35.2-.73.5-1.45.84-2.13,1.71-3.37,3.44-6.72,5.17-10.08.52-1,.6-2,.21-3.1-4.72-13.11-9.42-26.23-14.11-39.34-.26-.72-.47-1.46-.63-2.2-.78-3.54-2.9-5.92-6.27-7.21-.49-.19-1-.37-1.51-.49-2.99-.72-5.74-2.07-8.54-3.28C1.08,5.94.3,5.16.07,3.98-.4,1.56,1.63-.42,4.07.08c.27.06.54.13.8.23,4.88,1.92,9.75,3.85,14.63,5.76,1.32.51,2.26,1.42,2.78,2.68.74,1.79,1.42,3.6,2,5.45.72,2.25,1.34,2.76,3.71,2.76,22.25-.01,44.51-.03,66.77-.03.61,0,1.23.03,1.83.13,2.13.36,3.07,1.71,2.64,3.9-.21,1.09-.57,2.15-.9,3.21-3.98,12.49-7.96,24.98-11.94,37.47-.14.45-.32.89-.49,1.33-.53,1.37-1.57,2.05-3.01,2.14-.47.03-.95.05-1.42.05-13.12-.01-26.24-.03-39.36-.04-.65,0-1.31.03-1.96.14-.99.16-1.7.74-2.14,1.64-.71,1.45-1.4,2.91-2.1,4.37-.03.06-.04.13-.07.24h.49c17.1,0,34.19,0,51.29,0,.7,0,1.4-.03,2.09.06,1.93.23,2.98,1.48,2.93,3.41-.04,1.85-1.18,3.04-3.09,3.18-.76.06-1.53,0-2.3,0h-.5ZM47.24,38.22c0-.17.01-.3,0-.42-.43-4.23-.86-8.46-1.31-12.68-.1-1-.61-1.46-1.62-1.46-5.42-.02-10.85-.03-16.27-.04-.09,0-.18.02-.3.04.04.14.06.24.1.34,1.55,4.27,3.11,8.53,4.64,12.81.33.93,1.02,1.28,1.9,1.38.57.06,1.14.07,1.71.07,3.6,0,7.19,0,10.79,0,.11,0,.22-.01.36-.02h0ZM51.38,23.8c.49,4.78.98,9.5,1.47,14.27h.49c4.54,0,9.09,0,13.64,0,.37,0,.49-.1.53-.48.39-3.9.81-7.79,1.22-11.68.07-.7.14-1.4.21-2.12h-17.55ZM91.36,23.72c-.17,0-.31-.02-.44-.02-5.31,0-10.62,0-15.93,0-.33,0-.44.09-.48.43-.42,4-.86,8.01-1.3,12.01-.07.68-.14,1.37-.22,2.1h.48c4.01-.01,8.03-.03,12.04-.04.84,0,1.32-.35,1.58-1.15,1.39-4.31,2.78-8.61,4.17-12.92.04-.12.06-.24.1-.39h0ZM53.58,43.86c0,.08-.02.12-.02.16.39,4.27.79,8.54,1.19,12.81.09.97.61,1.44,1.58,1.45,2.84.03,5.68.03,8.53.06.29,0,.38-.09.4-.37.4-3.84.82-7.67,1.23-11.51.09-.85.18-1.71.27-2.6h-13.18,0ZM34.95,43.73c.01.1.01.14.03.18,1.66,4.48,3.31,8.96,4.98,13.44.2.54.6.82,1.22.82,2.55-.01,5.1,0,7.65.01.13,0,.27-.01.41-.02,0-.14,0-.24,0-.33-.41-4.17-.83-8.35-1.25-12.52-.09-.86-.82-1.54-1.69-1.54-3.65-.02-7.3-.04-10.96-.06-.12,0-.25.01-.4.02h0ZM72.42,43.97c-.53,4.79-1.07,9.57-1.6,14.37.17.01.26.03.36.03,2.52-.01,5.05-.01,7.57-.04,1.04,0,1.68-.48,2.03-1.47.13-.37.25-.74.36-1.11,1.21-3.84,2.42-7.68,3.63-11.52.02-.08.03-.16.05-.26h-12.39ZM76.99,78.2c-2.92,0-5.24,2.32-5.24,5.23,0,2.91,2.3,5.24,5.18,5.25,2.92,0,5.32-2.35,5.31-5.23,0-2.87-2.39-5.26-5.25-5.25h0ZM35.09,83.45c0,2.91,2.3,5.23,5.19,5.23,2.9,0,5.29-2.37,5.29-5.26,0-2.86-2.39-5.23-5.27-5.23s-5.22,2.34-5.21,5.26h0Z"/><rect class="cls-1" x="4.5" y="30.32" width="109.47" height="22.33" rx="3.18" ry="3.18"/><path class="cls-2" d="M116.36,46.62l-7.23-.35c-.28-.03-.51.21-.49.49l.35,7.23c.04.37.49.53.75.27l1.26-1.26c.17-.17.45-.17.63,0l3.48,3.29c.17.17.45.17.63,0l3.12-3.12c.17-.17.17-.45,0-.63l-3.48-3.29c-.17-.17-.17-.45,0-.63l1.26-1.26c.26-.26.1-.71-.27-.75h0Z"/><path class="cls-3" d="M13.83,43.89l-.77,2h-2.2l3.55-8.81h2.74l3.73,8.81h-2.31l-.82-2h-3.92ZM17.15,42.17c-.82-2.02-1.22-3.05-1.43-3.72h-.01c-.2.66-.66,2-1.33,3.72h2.77Z"/><path class="cls-3" d="M22.16,37.07h3.98c2.97,0,4.6,1.93,4.6,4.25,0,2.82-2.07,4.56-4.64,4.56h-3.94s0-8.81,0-8.81ZM24.29,44.23h1.52c1.72,0,2.66-.97,2.66-2.85,0-1.63-.85-2.64-2.63-2.66h-1.55v5.51h0Z"/><path class="cls-3" d="M32.62,37.07h3.98c2.97,0,4.6,1.93,4.6,4.25,0,2.82-2.07,4.56-4.64,4.56h-3.94s0-8.81,0-8.81ZM34.75,44.23h1.52c1.72,0,2.66-.97,2.66-2.85,0-1.63-.85-2.64-2.63-2.66h-1.55v5.51h0Z"/><path class="cls-3" d="M48.75,38.78h-3.1v-1.7h8.33v1.7h-3.09v7.11h-2.14v-7.11h0Z"/><path class="cls-3" d="M64.29,41.45c0,2.44-1.63,4.62-4.83,4.62-2.99,0-4.7-2.04-4.7-4.62,0-2.42,1.81-4.57,4.79-4.57s4.74,2.16,4.74,4.56h0ZM57.01,41.43c0,1.67.85,2.97,2.56,2.97s2.46-1.5,2.46-2.93c0-1.56-.76-2.92-2.54-2.92s-2.48,1.39-2.48,2.88Z"/><path class="cls-3" d="M78.33,43.09c-.41,1.55-1.64,2.99-4.4,2.99-3.15,0-4.67-2.18-4.67-4.59s1.67-4.6,4.78-4.6c2.7,0,4.04,1.5,4.3,2.97h-2.17c-.18-.5-.66-1.32-2.16-1.32-1.65,0-2.51,1.25-2.51,2.86s.78,3.02,2.52,3.02c1.25,0,1.8-.49,2.15-1.34h2.15Z"/><path class="cls-3" d="M81.89,43.89l-.77,2h-2.2l3.55-8.81h2.74l3.73,8.81h-2.31l-.82-2h-3.92ZM85.22,42.17c-.82-2.02-1.22-3.05-1.43-3.72h-.01c-.2.66-.66,2-1.33,3.72h2.77Z"/><path class="cls-3" d="M92.35,42.49v3.4h-2.12v-8.81h4.8c2.03,0,3.2,1,3.2,2.52,0,1.14-.66,1.81-1.53,2.08.36.14,1.31.49,1.31,2.07v.44c0,.6-.01,1.28.11,1.7h-2.2c-.15-.39-.17-.91-.17-1.84v-.29c0-.89-.33-1.26-1.61-1.26h-1.79,0ZM92.35,40.89h2.21c1.04,0,1.49-.38,1.49-1.12,0-.7-.46-1.09-1.47-1.09h-2.22v2.21Z"/><path class="cls-3" d="M102.38,38.78h-3.1v-1.7h8.33v1.7h-3.09v7.11h-2.14v-7.11h0Z"/></g></svg>