<?xml version="1.0" encoding="UTF-8"?><svg id="Calque_2" xmlns="http://www.w3.org/2000/svg" width="161.81" height="34.12" viewBox="0 0 161.81 34.12"><defs><style>.cls-1{fill:#e62e2e;}.cls-1,.cls-2,.cls-3{stroke-width:0px;}.cls-4,.cls-3{isolation:isolate;}.cls-2{fill:#fff;}.cls-3{fill:#000;mix-blend-mode:multiply;opacity:.5;}</style></defs><g id="Calque_1-2"><g class="cls-4"><g id="Layer_1"><path class="cls-1" d="M161.66,17.06c.09-.66.15-1.32.15-2,0-8.32-6.74-15.06-15.06-15.06H15.06C6.74,0,0,6.74,0,15.06c0,.68.06,1.34.15,2H.15c-.09.66-.15,1.32-.15,2,0,8.32,6.74,15.06,15.06,15.06h131.69c8.32,0,15.06-6.74,15.06-15.06,0-.68-.06-1.34-.15-2h0Z"/><path class="cls-2" d="M13.65,9.66h2.33v9.22h4.96v1.92h-7.29s0-11.14,0-11.14Z"/><path class="cls-2" d="M23.37,9.66h2.33v11.14h-2.33v-11.14Z"/><path class="cls-2" d="M28.72,9.66h2.67l3.08,8.15h.14l3.07-8.15h2.67v11.14h-2.08v-7.58h-.15l-2.86,7.58h-1.46l-2.86-7.58h-.15v7.58h-2.08v-11.14h0Z"/><path class="cls-2" d="M43.38,9.66h2.33v11.14h-2.33s0-11.14,0-11.14Z"/><path class="cls-2" d="M51.43,11.58h-3.34v-1.92h9.02v1.92h-3.34v9.22h-2.33s0-9.22,0-9.22Z"/><path class="cls-2" d="M59.48,9.66h7.38v1.92h-5.05v2.69h4.76v1.79h-4.76v2.82h5.05v1.92h-7.38s0-11.14,0-11.14Z"/><path class="cls-2" d="M69.64,9.66h4.39c3.31,0,5.23,2,5.23,5.49h0c0,3.61-1.89,5.65-5.23,5.65h-4.39v-11.14ZM73.65,18.88c2.06,0,3.22-1.3,3.22-3.68v-.02c0-2.29-1.2-3.61-3.22-3.61h-1.68v7.3s1.68,0,1.68,0Z"/><path class="cls-2" d="M88.87,11.58h-3.34v-1.92h9.02v1.92h-3.34v9.22h-2.33s0-9.22,0-9.22Z"/><path class="cls-2" d="M96.93,9.66h2.33v11.14h-2.33v-11.14Z"/><path class="cls-2" d="M102.28,9.66h2.67l3.08,8.15h.14l3.07-8.15h2.67v11.14h-2.08v-7.58h-.15l-2.86,7.58h-1.46l-2.86-7.58h-.15v7.58h-2.08v-11.14h0Z"/><path class="cls-2" d="M116.93,9.66h7.38v1.92h-5.05v2.69h4.76v1.79h-4.76v2.82h5.05v1.92h-7.38s0-11.14,0-11.14Z"/><path class="cls-2" d="M131.51,15.22c0-1.86.65-3.59,1.71-4.96.45-.62,1.16-.66,1.6-.25.45.43.35.94-.02,1.5-.79,1.03-1.25,2.33-1.26,3.71,0,3.38,2.72,6.12,6.12,6.12s6.12-2.74,6.12-6.12c0-3.17-2.35-5.78-5.42-6.13v1.49c0,.49-.34.86-.83.86s-.83-.37-.83-.86v-2.61c0-.56.38-.9.96-.9,4.52,0,8.15,3.64,8.15,8.15s-3.63,8.15-8.15,8.15-8.15-3.64-8.15-8.15h0ZM138.7,16.24l-2.46-3.67c-.38-.58.15-1.12.73-.74l3.68,2.46c.8.53.95,1.52.26,2.23-.7.68-1.69.53-2.22-.28Z"/><path class="cls-3" d="M146.75,30.12H15.06C7.42,30.12,1.13,24.43.15,17.06c-.09.66-.15,1.32-.15,2,0,8.32,6.74,15.06,15.06,15.06h131.69c8.32,0,15.06-6.74,15.06-15.06,0-.68-.06-1.34-.15-2-.98,7.37-7.27,13.06-14.91,13.06h0Z"/></g></g></g></svg>