<?xml version="1.0" encoding="UTF-8"?><svg width="190" height="182" id="Calque_2" xmlns="http://www.w3.org/2000/svg" viewBox="0 0 95.8 91.55"><defs><style>.cls-1,.cls-2{stroke-width:0px;}.cls-2{fill:#92c5e3;}</style></defs><g id="_09_Bubble"><path class="cls-2" d="m92.71,34.22c-1.79,29.05-37.21,47.82-63.53,38.6-3.97,4.38-8.37,7.88-12.06,12.69l4.53-16.27.3-.96C-16.86,45.92,9.78,6.74,45.49,3.26c19.42-1.86,46.6,8.48,47.22,30.96Z"/><path class="cls-1" d="m95.16,28.13C88.35,4.07,57.06-4.48,35.14,2.19,1.77,11.35-15.76,48.65,18.9,69.47c-.52,1.97-5.15,20.78-5.7,22.08,6.18-4.36,10.91-11.15,16.59-16.17,20,5.5,42.33-.5,55.74-16.66,7.16-8.26,12.09-19.55,9.63-30.59Zm-2.49,7.45c-3.07,28.34-37.48,46.3-63.49,37.24-3.97,4.38-8.37,7.88-12.06,12.69l4.53-16.27.3-.96C-16.86,45.93,9.78,6.74,45.49,3.26c19.78-1.97,47.9,9.11,47.18,32.32Z"/></g></svg>
