<?xml version="1.0" encoding="UTF-8"?>
<svg id="Calque_2" data-name="Calque 2" xmlns="http://www.w3.org/2000/svg" viewBox="0 0 366.69 337.63">
  <defs>
    <style>
      .cls-1 {
        fill: #ffad29;
      }

      .cls-1, .cls-2, .cls-3 {
        stroke-width: 0px;
      }

      .cls-3 {
        fill: #fff;
      }
    </style>
  </defs>
  <g id="Calque_1-2" data-name="Calque 1">
    <g>
      <g>
        <g>
          <g>
            <path class="cls-1" d="m79.36,136.56c0-57.3,46.62-103.92,103.92-103.92s103.92,46.62,103.92,103.92c0,5.19-.39,10.29-1.12,15.27h4.95c.7-4.99,1.08-10.09,1.08-15.27,0-60-48.82-108.82-108.82-108.82s-108.82,48.82-108.82,108.82c0,5.18.37,10.28,1.08,15.27h4.95c-.74-4.99-1.12-10.09-1.12-15.27Z"/>
            <path class="cls-1" d="m248.6,216H117.97c17.78,14.64,40.54,23.45,65.31,23.45s47.53-8.8,65.31-23.45Z"/>
            <path class="cls-1" d="m51.06,151.83h21.28c-.68-5-1.05-10.09-1.05-15.27,0-61.75,50.24-111.99,111.99-111.99s111.99,50.24,111.99,111.99c0,5.18-.36,10.28-1.05,15.27h21.54l1.88-2.74-11.19-27.04,5.32-28.78-21.22-20.15-6.85-28.45-27.58-9.78-17.83-23.21-29.18,2.28L183.41,0l-25.73,13.95-29.18-2.28-17.83,23.21-27.58,9.78-6.85,28.45-21.22,20.15,5.32,28.78-11.19,27.04,1.88,2.74Z"/>
            <path class="cls-1" d="m262.14,216c-20.26,20.11-48.13,32.55-78.86,32.55s-58.6-12.44-78.86-32.55h-15.85l2.89,1.77,12.61,26.41,29.01,3.83,22.26,19,28.06-8.3,28.06,8.3,22.26-19,29.01-3.83,12.61-26.41,2.89-1.77h-16.11Z"/>
            <path class="cls-1" d="m183.28,33.67c-56.73,0-102.89,46.16-102.89,102.89,0,5.19.39,10.29,1.14,15.27h203.51c.75-4.99,1.14-10.08,1.14-15.27,0-56.73-46.16-102.89-102.89-102.89Z"/>
            <path class="cls-1" d="m257.57,216h-7.37c-18.09,15.26-41.45,24.48-66.92,24.48s-48.82-9.22-66.92-24.48h-7.37c19.46,18.21,45.59,29.38,74.28,29.38s54.82-11.17,74.28-29.38Z"/>
          </g>
          <polygon class="cls-1" points="366.69 164.48 324.19 164.48 315.27 216 356.65 216 335.63 193.95 366.69 164.48"/>
          <polygon class="cls-1" points="0 164.48 31.06 193.95 10.04 216 51.27 216 42.35 164.48 0 164.48"/>
        </g>
        <g>
          <path class="cls-2" d="m150.86,137.97c-6.59,0-11.35-1.34-14.3-4.01-2.95-2.67-4.51-7.12-4.68-13.33-.03-1.38-.04-2.52-.04-3.43s.04-1.89.13-2.96h12.94c-.09.75-.14,1.65-.17,2.7-.03,1.05-.04,2.07-.02,3.06.01.99.05,1.78.11,2.35.17,1.64.71,2.9,1.62,3.78.91.88,2.26,1.32,4.08,1.32s3.19-.44,4.12-1.32,1.46-2.14,1.57-3.78c.23-2.56.36-5.08.39-7.55.03-2.47-.07-4.79-.3-6.95-.12-1.44-.62-2.53-1.51-3.28-.89-.75-2.14-1.12-3.75-1.12-1.18,0-2.2.17-3.06.52s-1.54.85-2.03,1.51c-.49.66-.75,1.45-.78,2.37h-12.25v-39.77h35.12v11.39h-22.17v18.29h1.9c.78-1.38,1.98-2.56,3.62-3.54,1.64-.98,3.59-1.47,5.87-1.47,3.85,0,6.75,1.34,8.69,4.01,1.94,2.67,3.04,6.28,3.3,10.83.09,1.5.14,3.01.17,4.55.03,1.54.02,3.03-.02,4.49-.04,1.45-.12,2.78-.24,3.99-.4,4.14-1.24,7.49-2.5,10.03-1.27,2.54-3.16,4.4-5.69,5.56-2.53,1.17-5.9,1.75-10.09,1.75Z"/>
          <path class="cls-2" d="m176.32,137.11v-11.99h14.67v11.99h-14.67Z"/>
          <path class="cls-2" d="m216.26,137.97c-5.72,0-10.15-1.5-13.29-4.51-3.14-3-4.77-7.28-4.92-12.83-.09-3.88-.14-7.87-.17-11.95-.03-4.08-.03-8.17,0-12.25.03-4.08.09-8.07.17-11.95.14-5.58,1.78-9.85,4.92-12.81,3.13-2.96,7.56-4.44,13.29-4.44s10.06,1.48,13.18,4.44c3.12,2.96,4.77,7.23,4.94,12.81.11,2.93.2,5.92.26,8.97.06,3.05.09,6.1.09,9.17s-.03,6.1-.09,9.12c-.06,3.02-.14,5.98-.26,8.89-.17,5.55-1.82,9.83-4.94,12.83-3.12,3.01-7.51,4.51-13.18,4.51Zm0-10.53c3.28,0,5-1.47,5.18-4.4.2-4.4.34-8.92.41-13.55.07-4.63.07-9.26,0-13.89-.07-4.63-.21-9.15-.41-13.55-.09-2.88-1.81-4.31-5.18-4.31s-5.18,1.44-5.26,4.31c-.12,3.31-.21,6.68-.28,10.12-.07,3.44-.11,6.9-.11,10.38s.04,6.94.11,10.38c.07,3.44.17,6.81.28,10.12.09,2.93,1.84,4.4,5.26,4.4Z"/>
        </g>
        <g>
          <path class="cls-3" d="m40.16,151.83l11.11,64.17h264l11.11-64.17H40.16Zm270.05,58.17H56.33l-9.28-52h272.43l-9.27,52Z"/>
          <g>
            <path class="cls-3" d="m75.54,151.83c-.7-4.99-1.08-10.09-1.08-15.27,0-60,48.82-108.82,108.82-108.82s108.82,48.82,108.82,108.82c0,5.18-.37,10.28-1.08,15.27h3.2c.68-5,1.05-10.09,1.05-15.27,0-61.75-50.24-111.99-111.99-111.99s-111.99,50.24-111.99,111.99c0,5.18.36,10.28,1.05,15.27h3.2Z"/>
            <path class="cls-3" d="m257.57,216c-19.46,18.21-45.59,29.38-74.28,29.38s-54.82-11.17-74.28-29.38h-4.57c20.26,20.11,48.13,32.55,78.86,32.55s58.6-12.44,78.86-32.55h-4.57Z"/>
          </g>
          <g>
            <path class="cls-3" d="m81.53,151.83c-.75-4.99-1.14-10.08-1.14-15.27,0-56.73,46.16-102.89,102.89-102.89s102.89,46.16,102.89,102.89c0,5.19-.39,10.29-1.14,15.27h1.04c.74-4.99,1.12-10.09,1.12-15.27,0-57.3-46.62-103.92-103.92-103.92s-103.92,46.62-103.92,103.92c0,5.19.39,10.29,1.12,15.27h1.04Z"/>
            <path class="cls-3" d="m248.6,216c-17.78,14.64-40.54,23.45-65.31,23.45s-47.53-8.8-65.31-23.45h-1.61c18.09,15.26,41.45,24.48,66.92,24.48s48.82-9.22,66.92-24.48h-1.61Z"/>
          </g>
        </g>
        <polygon class="cls-1" points="310.21 210 56.33 210 47.05 158 319.48 158 310.21 210"/>
        <g>
          <path class="cls-2" d="m77.8,197.06v-26.95h20.01v5.53h-13.2v5.11h11.45v5.53h-11.45v5.24h13.2v5.53h-20.01Z"/>
          <path class="cls-2" d="m118.58,183.31l7.88,13.75h-8.51l-4.9-9.54h-.13l-4.9,9.54h-8.51l7.88-13.75v-.21l-7.36-12.98h8.39l4.51,9.37h.13l4.51-9.37h8.39l-7.37,12.98v.21Z"/>
          <path class="cls-2" d="m149.91,191.23v5.36c-1.36.28-2.7.5-4,.64-1.31.14-2.85.21-4.64.21-2.3,0-4.24-.2-5.81-.6s-2.84-1.1-3.79-2.11c-.95-1.01-1.64-2.43-2.07-4.28-.42-1.84-.64-4.21-.64-7.11s.21-5.07.64-6.85c.43-1.79,1.11-3.17,2.07-4.15.95-.98,2.21-1.66,3.79-2.04s3.51-.57,5.81-.57c1.79,0,3.33.06,4.64.19,1.3.13,2.64.35,4,.66v5.53l-.13.08c-1.19-.28-2.34-.49-3.45-.62-1.11-.13-2.47-.19-4.09-.19-1.31,0-2.38.09-3.21.28-.84.19-1.5.55-1.98,1.09-.48.54-.82,1.33-1,2.38-.18,1.05-.28,2.46-.28,4.21s.09,3.33.28,4.45.52,1.96,1,2.53c.48.57,1.14.95,1.98,1.15.84.2,1.91.3,3.21.3,1.59,0,2.94-.05,4.07-.15,1.12-.1,2.25-.29,3.38-.58l.21.17Z"/>
          <path class="cls-2" d="m153.53,197.06v-26.95h20.01v5.53h-13.2v5.11h11.45v5.53h-11.45v5.24h13.2v5.53h-20.01Z"/>
          <path class="cls-2" d="m196.53,191.27v5.79h-19.58v-26.95h6.81v21.16h12.77Z"/>
          <path class="cls-2" d="m219.09,191.27v5.79h-19.58v-26.95h6.81v21.16h12.77Z"/>
          <path class="cls-2" d="m222.07,197.06v-26.95h20.01v5.53h-13.2v5.11h11.45v5.53h-11.45v5.24h13.2v5.53h-20.01Z"/>
          <path class="cls-2" d="m262.93,170.12h6.81v26.95h-6.77l-7.66-11.41c-.6-.91-1.09-1.67-1.49-2.3s-.77-1.25-1.11-1.87-.72-1.36-1.15-2.21l-.13.17c.4,1.36.64,2.63.72,3.81s.13,2.32.13,3.43v10.39h-6.81v-26.95h6.77l7.66,11.41c.6.88,1.09,1.64,1.49,2.28s.77,1.27,1.11,1.89c.34.62.72,1.36,1.15,2.21l.13-.17c-.28-1.19-.5-2.35-.64-3.47-.14-1.12-.21-2.24-.21-3.34v-10.81Z"/>
          <path class="cls-2" d="m280.39,197.06v-21.2h-7.66v-5.75h22.14v5.75h-7.66v21.2h-6.81Z"/>
        </g>
      </g>
      <g>
        <polygon class="cls-1" points="71.34 276.07 57.61 285.63 62.46 269.62 49.13 259.51 65.85 259.17 71.34 243.37 76.84 259.17 93.56 259.51 80.23 269.62 85.08 285.63 71.34 276.07"/>
        <polygon class="cls-1" points="127.34 308.07 113.61 317.63 118.46 301.62 105.13 291.51 121.85 291.17 127.34 275.37 132.84 291.17 149.56 291.51 136.23 301.62 141.08 317.63 127.34 308.07"/>
        <polygon class="cls-1" points="183.34 328.07 169.61 337.63 174.46 321.62 161.13 311.51 177.85 311.17 183.34 295.37 188.84 311.17 205.56 311.51 192.23 321.62 197.08 337.63 183.34 328.07"/>
        <polygon class="cls-1" points="239.34 308.07 225.61 317.63 230.46 301.62 217.13 291.51 233.85 291.17 239.34 275.37 244.84 291.17 261.56 291.51 248.23 301.62 253.08 317.63 239.34 308.07"/>
        <polygon class="cls-1" points="295.34 276.07 281.61 285.63 286.46 269.62 273.13 259.51 289.85 259.17 295.34 243.37 300.84 259.17 317.56 259.51 304.23 269.62 309.08 285.63 295.34 276.07"/>
      </g>
    </g>
  </g>
</svg>