<?xml version="1.0" encoding="utf-8"?>
<!DOCTYPE svg PUBLIC "-//W3C//DTD SVG 1.1//EN" "http://www.w3.org/Graphics/SVG/1.1/DTD/svg11.dtd">
<svg version="1.1" xmlns="http://www.w3.org/2000/svg" xmlns:xlink="http://www.w3.org/1999/xlink" xmlns:xml="http://www.w3.org/XML/1998/namespace" width="869" height="303" viewBox="133.70073, 87.26553, 767.8451, 300.6251">
  <path d="m393.86 321.23 l-59.53 -59.53 c-12.44 -12.44 -11.38 -12 -29 -12 h-111.64 c-17.63 0 -16.57 -0.43 -29 12 l-59.53 59.53 a161.13 161.13 0 0 0 60.35 65.93 l68.57 -68.57 c6.24 -6.24 9 -8.66 12.39 -9.7 a9.87 9.87 0 0 1 3 -0.56 a9.71 9.71 0 0 1 3 0.56 c3.39 1 6.15 3.46 12.39 9.7 l68.57 68.57 a161.09 161.09 0 0 0 60.43 -65.93 z" />
  <path d="m173.3 243.85 c4.5 -4.85 3.87 -9 8.27 -20.38 a72.83 72.83 0 0 1 135.87 0 c4.4 11.42 3.77 15.53 8.26 20.38 s9 5.84 23.28 5.84 h61.63 a161.11 161.11 0 1 0 -322.21 0 h61.6 c14.33 0 18.93 -1.12 23.3 -5.84 z m686.58 -82.54 c-49.28 0 -89.37 39.61 -89.37 88.3 s40.09 88.3 89.37 88.3 s89.38 -39.61 89.38 -88.3 s-40.09 -88.3 -89.38 -88.3 z m0.2 134.56 a46.26 46.26 0 1 1 46.25 -46.25 a46.31 46.31 0 0 1 -46.25 46.25 z m-156.86 -116.06 v153.19 h41.83 v-167.36 h-27.66 a19.87 19.87 0 0 0 -6.06 0.6 a11.34 11.34 0 0 0 -7.5 7.51 a19.81 19.81 0 0 0 -0.61 6.06 z m-204.35 -14.17 v167.36 h27.77 a19.87 19.87 0 0 0 6.06 -0.6 a11.32 11.32 0 0 0 7.51 -7.51 a20.08 20.08 0 0 0 0.6 -6.05 v-88.65 l82.84 94.46 c2.58 2.94 4.73 5.22 8.09 6.75 s6.49 1.63 10.41 1.63 h30.51 v-167.39 h-27.77 a19.87 19.87 0 0 0 -6.06 0.6 a11.28 11.28 0 0 0 -7.5 7.51 a19.81 19.81 0 0 0 -0.61 6.06 v88.67 l-82.83 -94.48 c-2.59 -2.95 -4.74 -5.23 -8.1 -6.75 s-6.49 -1.64 -10.41 -1.64 z" />
</svg>