<?xml version="1.0" encoding="UTF-8"?><svg id="Calque_2" xmlns="http://www.w3.org/2000/svg" width="108.53" height="83.99" viewBox="0 0 108.53 83.99"><defs><style>.cls-1{fill:#e62e2e;}.cls-1,.cls-2{stroke-width:0px;}.cls-2{fill:#fff;}</style></defs><g id="Layer_1"><polygon class="cls-1" points="108.53 52.66 108.53 0 0 0 0 52.66 54.26 83.99 108.53 52.66"/><path class="cls-2" d="M16.47,37.29c.18,1.6.98,2.78,2.9,2.78,1.59,0,2.52-.79,2.52-2.25,0-1.36-.68-1.99-3.05-3-3.93-1.68-5.53-3.18-5.53-5.99,0-3.53,2.57-6.4,7.69-6.4,5.39,0,7.79,2.95,7.76,6.32h-5.27c-.11-1.32-.67-2.51-2.52-2.51-1.44,0-2.05.78-2.05,1.84s.73,1.58,2.98,2.5c4.68,1.92,5.8,3.88,5.8,6.38,0,4.09-3,6.9-8.59,6.9s-7.91-2.96-7.96-6.57h5.32Z"/><path class="cls-2" d="M36.73,39.22l-1.95,4.27h-5.67c2.08-4.14,7.4-15.55,10.03-20.68h7.46l1.5,20.68h-5.51l-.24-4.27h-5.62ZM42.38,34.9c-.14-3.11-.29-6.27-.24-8.4h-.12c-.9,2.39-2.16,5.37-3.56,8.4h3.92Z"/><path class="cls-2" d="M55.49,22.8h5.55l-3.51,16.49h8.5l-1.43,4.19h-13.51l4.39-20.68h0Z"/><path class="cls-2" d="M83.73,34.95h-8.3l-.93,4.38h9.78l-1.41,4.14h-14.59l4.39-20.68h13.98l-.89,4.17h-8.63l-.82,3.8h8.3l-.88,4.17Z"/><path class="cls-2" d="M87.73,43.48l1.18-5.57h5.33l-1.18,5.57h-5.33ZM89.86,35.65l1.29-9.08.81-3.77h5.76l-.81,3.78-2.58,9.07h-4.46Z"/></g></svg>