<?xml version="1.0" encoding="UTF-8"?>
<svg id="Layer_2" data-name="Layer 2" xmlns="http://www.w3.org/2000/svg" width="204" height="204" viewBox="0 0 102.69 102.87">
  <defs>
    <style>
      .cls-1 {
        fill: #333;
        fill-rule: evenodd;
        stroke-width: 0px;
      }
    </style>
  </defs>
  <g id="Layer_1-2" data-name="Layer 1">
    <path class="cls-1" d="m102.69,51.34c0,14.33-5.81,27.03-15.06,36.47-9.26,9.26-22.13,15.07-36.29,15.07s-27.03-5.81-36.28-15.07C5.62,78.38,0,65.68,0,51.34S5.62,24.31,15.06,15.06C24.31,5.8,37.19,0,51.34,0s27.03,5.8,36.29,15.06c9.25,9.25,15.06,22.13,15.06,36.28h0Zm-29.75-5.99l-21.23,21.23c-.18.18-.55.18-.73,0l-21.22-21.23c-.36-.18-.36-.54,0-.91l4.53-4.54,16.69,16.51c.18.19.55.19.73,0l16.52-16.51,4.72,4.54c.18.36.18.72,0,.91h0Z"/>
  </g>
</svg>
