<?xml version="1.0" encoding="UTF-8"?><svg id="Calque_2" xmlns="http://www.w3.org/2000/svg" width="128.29" height="77.66" viewBox="0 0 128.29 77.66"><defs><style>.cls-1{fill:#1c1c1c;}.cls-1,.cls-2{stroke-width:0px;}.cls-2{fill:#fff;}</style></defs><g id="Layer_1"><path class="cls-1" d="M117.64,53.98H22.47l5.27,23.68L4.99,58.86c-1.27-1.05-2.41-2.29-3.23-3.72-1.15-2.02-1.77-4.33-1.77-6.69V10.65C0,4.77,4.77,0,10.65,0h106.99c5.88,0,10.65,4.77,10.65,10.65v32.68c0,5.88-4.77,10.65-10.65,10.65h0Z"/><path class="cls-2" d="M34.95,21.11c-.42-1.43-1.02-2.82-1.66-3.54-.79-.83-1.28-.98-3.09-.98h-2.82c-1.28,0-1.43.07-1.43,1.36v8.21h4.03c2.22,0,2.52-.56,3.08-3.2h1.39v8.36h-1.43c-.41-2.56-.98-3.2-3.05-3.2h-4.03v5.87c0,3.46.23,3.73,3.61,3.95v1.39h-12.05v-1.39c2.86-.26,3.2-.49,3.2-3.95v-13.85c0-3.35-.34-3.65-3.2-3.88v-1.39h12.76c3.24,0,5.12-.04,5.72-.07.04.64.23,3.88.42,6.1l-1.47.23h0Z"/><path class="cls-2" d="M63.75,39.56c-.23,0-.68,0-1.13-.04-4.78-.22-6.17-1.24-7.3-2.82-1.51-2.07-2.6-4.37-3.88-6.62-.56-1.02-1.09-1.24-2.3-1.24l-.75-.04v5.5c0,3.05.38,3.31,3.2,3.65v1.39h-11.52v-1.39c2.86-.3,3.2-.6,3.2-3.65v-14.42c0-2.97-.38-3.39-3.2-3.61v-1.39h10.92c3.35,0,5.27.38,6.82,1.43,1.5,1.02,2.52,2.67,2.52,5.01,0,3.35-2.22,5.12-4.71,6.1.57,1.13,2.03,3.58,3.16,5.31,1.32,2.07,2.14,3.09,2.86,3.92.87.98,1.28,1.28,2.37,1.66l-.26,1.28h0ZM49.41,27.25c1.62,0,2.86-.26,3.69-.98,1.24-1.05,1.77-2.49,1.77-4.4,0-3.99-2.3-5.42-4.4-5.42-1.02,0-1.51.15-1.73.38-.26.23-.34.68-.34,1.43v9h1.02,0Z"/><path class="cls-2" d="M86.94,32.93c-.19,1.02-1.24,5.35-1.58,6.4h-19.54v-1.36c3.43-.34,3.65-.53,3.65-3.69v-14.38c0-3.2-.45-3.43-3.01-3.65v-1.39h12.23c3.95,0,5.27-.04,5.8-.07.04.68.22,3.76.38,6.1l-1.47.19c-.34-1.28-.98-2.82-1.62-3.5-.68-.75-1.17-.98-3.09-.98h-2.45c-1.43,0-1.58.07-1.58,1.36v7.87h3.69c2.11,0,2.49-.56,3.05-3.24h1.47v8.39h-1.47c-.6-2.79-.9-3.24-3.09-3.24h-3.65v6.47c0,2.6.07,3.39,2.41,3.43h2.67c2.11,0,2.67-.26,3.5-1.28.94-1.09,1.69-2.49,2.3-3.76l1.39.34h0Z"/><path class="cls-2" d="M110.77,32.93c-.19,1.02-1.24,5.35-1.58,6.4h-19.54v-1.36c3.43-.34,3.65-.53,3.65-3.69v-14.38c0-3.2-.45-3.43-3.01-3.65v-1.39h12.23c3.95,0,5.27-.04,5.8-.07.04.68.23,3.76.38,6.1l-1.47.19c-.34-1.28-.98-2.82-1.62-3.5-.68-.75-1.17-.98-3.09-.98h-2.45c-1.43,0-1.58.07-1.58,1.36v7.87h3.69c2.11,0,2.49-.56,3.05-3.24h1.47v8.39h-1.47c-.6-2.79-.9-3.24-3.09-3.24h-3.65v6.47c0,2.6.07,3.39,2.41,3.43h2.67c2.11,0,2.67-.26,3.5-1.28.94-1.09,1.7-2.49,2.3-3.76,0,0,1.39.34,1.39.34Z"/></g></svg>