<?xml version="1.0" encoding="UTF-8"?>
<svg id="Layer_2" data-name="Layer 2" xmlns="http://www.w3.org/2000/svg" width="204" height="204" viewBox="0 0 102.87 102.87">
  <defs>
    <style>
      .cls-1 {
        fill: #333;
        fill-rule: evenodd;
        stroke-width: 0px;
      }
    </style>
  </defs>
  <g id="Layer_1-2" data-name="Layer 1">
    <path class="cls-1" d="m51.34,0c14.34,0,27.03,5.8,36.47,15.06,9.25,9.25,15.06,22.13,15.06,36.28s-5.81,27.03-15.06,36.47c-9.44,9.26-22.13,15.07-36.47,15.07s-27.03-5.81-36.28-15.07C5.81,78.38,0,65.68,0,51.34S5.81,24.31,15.06,15.06C24.31,5.8,37.19,0,51.34,0h0Zm-5.98,29.75l21.23,21.23c.18.18.18.54,0,.91l-21.23,21.23c-.18.18-.55.18-.91,0l-4.54-4.71,16.51-16.51c.18-.37.18-.73,0-.91l-16.51-16.51,4.54-4.72c.36-.18.73-.18.91,0h0Z"/>
  </g>
</svg>
