<?xml version="1.0" encoding="UTF-8"?><svg id="Calque_2" xmlns="http://www.w3.org/2000/svg" width="154.73" height="66.64" viewBox="0 0 154.73 66.64"><defs><style>.cls-1{fill:#e62e2e;}.cls-1,.cls-2{stroke-width:0px;}.cls-2{fill:#fff;}</style></defs><g id="Layer_1"><path class="cls-1" d="M153.64,36.99c-1.59-2.49-4.22-3.92-7.21-3.92-1.65,0-3.19.46-4.47,1.28-1.4-1.41-3.32-2.28-5.43-2.28-1.24,0-3.11.32-4.96,1.82-.26.21-.49.44-.71.69-2.48-.9-5.19-1.37-8.1-1.37-3.77,0-7.35.55-10.68,1.64-2.64-1.42-6.13-1.69-9.7-1.69h0l-1.77.03c-1.24.03-2.3-.02-3.37.26-.68.18-1.4.31-2.16.41-1.88-1.57-3.82-1.93-5.17-1.93-2.78,0-5.23,1.45-6.65,3.64-1.5-1.46-3.52-2.35-5.77-2.35-.74,0-1.46.11-2.13.31-.24-.05-.5-.08-.75-.12,1.07-.17,2.06-.55,2.92-1.09.89.35,1.84.55,2.83.55.5,0,.98-.05,1.46-.14.98-.09,1.89-.13,2.78-.13,1.49,0,2.92-.24,4.26-.71.06-.01.13-.03.23-.05,1.25-.18,2.4-.43,3.52-.75.39-.1.81-.21,1.26-.34,1.48,1.37,3.32,2.12,5.31,2.12.5,0,.98-.05,1.46-.14.98-.09,1.89-.13,2.78-.13,1.49,0,2.92-.24,4.26-.72.05-.01.13-.03.23-.05,1.25-.18,2.41-.43,3.52-.75.52-.14,1.09-.29,1.72-.46.11-.03.23-.06.34-.1.78-.25,1.47-.54,2.12-.89,2.59-1.38,4.14-3.95,4.14-6.87,0-1.91-.71-3.64-1.9-4.94.27-.38.49-.77.68-1.17,2.22-.88,3.93-2.58,4.77-4.79.36-.92.55-1.9.55-2.91,0-1.19-.27-2.39-.8-3.55-.05-.11-.1-.22-.16-.33-2.33-4.44-7.6-5.05-13.07-5.05h0l-1.43.02s-.12,0-.14,0c-1.33.03-2.45-.03-3.57.26-.76.2-1.57.35-2.42.45-.06,0-.12.02-.18.02-.85.12-1.68.26-2.5.41C97.12.2,94.09,0,91.01,0h0l-1.42.02s-.12,0-.15,0c-1.33.04-2.44-.03-3.56.26-.76.2-1.57.35-2.42.45-.06,0-.12.02-.18.02-1.06.15-2.1.32-3.1.51-.52.1-1.03.26-1.52.47-.01,0-.03.01-.04.02-2.71-1.13-5.72-1.71-8.98-1.71-3.74,0-7.3.54-10.61,1.61C55.94.03,51.95.02,49.21.02h-1.02c-.06,0-.12,0-.18,0-1.28.03-2.54-.06-3.74.26-.78.2-1.74.35-2.76.5-.95.14-2.02.31-3.13.54-.22.05-.44.11-.66.17-3.36,1.08-5.53,4.14-5.53,7.8,0,1.22.25,2.37.71,3.4-.19.72-.25,1.38-.25,1.94,0,.94.16,1.84.46,2.67-.13.33-.25.67-.38,1.02-.22.64-.45,1.24-.71,1.82-.88,1.27-1.36,2.78-1.36,4.38,0,2.01.72,3.95,2.03,5.48,1.58,1.84,3.73,2.86,6.06,2.86s4.37-1.01,5.89-2.83c.27-.32.5-.67.71-1.03,1.01-1.81,1.79-3.68,2.48-5.34l.36-.86c.23-.53.47-1.05.72-1.57.58-.05,1.07-.09,1.57-.09.42,0,.81-.04,1.19-.08.31.69.71,1.29,1.18,1.8-.08.5-.13,1.02-.13,1.54,0,4.81,3.43,8.43,8.03,8.43.51,0,1.02-.06,1.52-.17,1.65-.37,3.09-1.23,4.2-2.46.3.23.6.47.89.72,1.21,1.03,2.57,1.79,4.03,2.26.09.03.18.04.28.07-1.71.04-3.54.28-5.46.73-1.57.25-2.96.97-4.04,2.01-.95-1.05-2.17-1.89-3.61-2.39-1.35-.46-2.81-.5-4.17-.1-1.5.43-2.8,1.25-3.83,2.35-2.72-2.29-6.88-2.68-11.15-2.68h0l-1.77.03c-1.24.03-2.3-.02-3.37.26-.76.2-1.57.35-2.42.45-.06,0-.12.01-.17.02-1.06.15-2.1.32-3.1.51-.52.1-1.03.26-1.52.47-.44.2-.85.43-1.24.68-1.71-.87-3.5-1.51-5.34-1.88-1.34-.28-2.61-.42-3.89-.42l-1.38-.07c-.26-.02-.6,0-.87,0-.46.03-.9.06-1.26.1-4.01.44-6.93,3.57-6.93,7.45,0,1.02.22,2.05.64,3.06.02.04.03.08.05.12.23.52.51,1.01.81,1.46-.01.02-.03.04-.04.07-.94,1.47-1.73,2.8-2.39,4.03-.41.75-.75,1.32-1,1.76-2.51,1.17-4.21,3.74-4.21,6.8,0,1.51.43,2.95,1.27,4.3.01.02.03.05.05.07,1.46,2.27,3.95,3.57,6.82,3.57.08,0,.16,0,.23,0,3.35-.11,6.39-.56,9.05-1.32l.83-.2c1.55-.35,3.05-.81,4.49-1.35,1.57,1.85,3.71,2.87,6.03,2.87.5,0,.98-.05,1.46-.14.98-.09,1.89-.13,2.78-.13,1.49,0,2.92-.24,4.26-.72.05-.01.13-.03.23-.05.68-.1,1.33-.22,1.97-.36,1.31.92,2.86,1.4,4.37,1.4h.04c2.16,0,4.26-.11,6.15-.32,1.54-.16,3.26-.24,5.12-.24.72,0,1.08.02,1.26.04.23.02.53.04.76.04s.57-.02.99-.07c.98.35,2.03.54,3.13.57.06,0,.11,0,.17,0,2.07,0,4.41-.14,7.14-.42.13-.01.26-.03.39-.05,1.23-.2,2.53-.72,3.67-1.62.01,0,.02.02.04.03,0,0,0,0,0,0,2.08,1.68,4.1,2.04,5.42,2.04,1.99,0,3.84-.73,5.25-2.07.6-.56,1.15-1.12,1.68-1.7.19.29.39.57.61.83,1.58,1.89,3.73,2.93,6.09,2.93.5,0,.98-.05,1.46-.14.98-.09,1.89-.13,2.78-.13,1.49,0,2.92-.24,4.26-.72.05-.01.12-.03.22-.05,1.25-.18,2.4-.43,3.53-.75.52-.14,1.1-.29,1.73-.46.11-.03.22-.06.33-.1.59-.19,1.12-.42,1.62-.65,1.45,1.83,3.65,2.96,6.21,2.96.51,0,1.02-.06,1.52-.17,1.65-.37,3.09-1.23,4.2-2.47.3.23.6.47.89.72,1.21,1.03,2.56,1.79,4.03,2.26.69.22,1.4.33,2.12.33.32,0,.65-.02.96-.07,2.45-.35,4.46-1.77,5.58-3.74,1.11,1.24,2.59,2.2,4.31,2.71.88.31,1.78.47,2.69.47,4.34,0,7.74-3.42,7.74-7.78,0-.71-.09-1.4-.25-2.06.02-.05.04-.09.05-.13,0,0,.15-.36.67-1.38.2-.36.38-.73.57-1.1.12-.24.24-.47.35-.67.6-.69,1.22-1.45,1.92-2.35,1.2-1.56,2.07-3.35,2.59-5.34.04-.16.07-.29.1-.45.04-.16.09-.33.14-.49.22-.72.52-1.71.63-2.92.14-1.52-.24-3.05-1.06-4.34h0Z"/><path class="cls-2" d="M38.75,27c.52,0,.99-.24,1.38-.71l.11-.16c.85-1.52,1.53-3.15,2.19-4.73l.38-.92c.36-.85.77-1.68,1.17-2.51.28-.58.57-1.16.86-1.8.18-.44.38-.63,1.67-.63.54-.03,1.05-.08,1.55-.12.8-.07,1.55-.14,2.41-.14,1.43,0,2.26-.53,2.48-1.57l.06-.29-.09-.28c-.5-1.48-2.01-1.49-2.6-1.49h-.01c-1.09.01-2.19.02-3.33.02.25-.56.53-1.08.88-1.55.39-.03.86-.04,1.44-.04.66,0,2.35,0,3.48.06.05.19.13.37.23.51.35.59.8.91,1.33.97l.19.02.61-.16c.25-.06.48-.13.68-.21.05.55.26,1.04.62,1.4.29.32.74.73,1.36.73.37,0,.93-.12,1.5-.69.19-.18.36-.35.53-.49,1-.49,2.13-.89,3.38-1.2-.3.84-.61,1.66-.9,2.45-.22.5-.41,1.01-.59,1.55-.08.23-.19.42-.33.57-.07,0-.15.01-.24.01-.52,0-1.11.13-1.9.42-1.57.61-2.33,1.31-2.33,2.15,0,1.16,1.38,1.54,2.65,1.8.16.04.32.08.47.14-.14.54-.36,1.08-.59,1.65-.08.21-.17.42-.25.62-.43.6-.64,1.27-.64,2,0,1.54.86,2.58,2.18,2.58l.24-.03c.54-.12,1.28-.5,1.72-1.65.18-.53.38-1,.58-1.46.26-.59.45-1.17.57-1.75.02-.1.04-.2.07-.3,2.4,1.09,4.82,2.65,7.22,4.65.63.53,1.32.92,2.05,1.16l.23.07.24-.03c1.11-.16,1.51-.94,1.51-1.61,0-.59-.21-1.16-.65-1.76-.35-.47-.72-.82-1.11-1.05-1.67-1.37-3.37-2.61-5.01-3.65-.04-.03-.09-.06-.13-.1l1.79-.23c2.37-.26,4.68-.82,6.83-1.65,1.52-.54,2.64-1.39,3.31-2.45.16.66.63,1.11,1.3,1.21-.61,1.31-1.2,2.74-1.78,4.35-.36,1.04-.69,1.86-1.03,2.51-.36.37-.55.83-.55,1.33,0,.59.22,1.16.63,1.65.46.56,1,.84,1.61.84.17,0,.34-.03.5-.08,1.32-.13,2.54-.19,3.74-.19.88,0,1.71-.15,2.4-.42.34-.11.7-.2,1.1-.27,1.07-.15,2.05-.36,2.95-.62.52-.14,1.11-.29,1.8-.48.45-.15.84-.31,1.19-.49.67-.36,1.05-.97,1.05-1.71,0-1.03-.95-1.58-1.85-1.58-.46,0-.93.09-1.48.29-.28.12-.48.14-.7.15l-3.31.31c-1.34.17-2.72.32-4.12.44.29-.66.55-1.28.8-1.86l.06-.13c.32-.73.65-1.47.96-2.12.39-.72.72-1.39,1.01-2.06.16-.39.35-.62,1.72-.62l1.7-.16c.71-.1,1.46-.14,2.23-.14.52,0,2.1,0,2.47-1.52l.08-.31-.11-.3c-.54-1.49-2.09-1.49-2.6-1.49-.86,0-1.67.02-2.44.04h-.91c.26-.56.55-1.07.89-1.53.5-.03,1.44-.06,3.11-.06.37,0,.97.01,1.82.07.05.16.12.32.22.47.48.86,1.14.99,1.49.99h.17l.72-.24.38-.03.13-.13c.57-.21.92-.54,1.17-.86.33.69.96.86,1.2.9l.15.03.15-.02c.65-.08,1.3-.17,1.94-.28l.12-.03c.29-.08.59-.14.89-.2-.12.29-.25.56-.37.81,0,.01-.02.03-.02.04-1.3.1-2.22.44-2.79,1.03-.44.44-1.02,1.13-1.02,1.98,0,.93.54,1.59,1.38,1.7-.61,1.31-1.2,2.75-1.78,4.35-.36,1.04-.69,1.86-1.03,2.51-.36.37-.55.83-.55,1.33,0,.59.22,1.16.63,1.65.46.56,1,.84,1.61.84.17,0,.34-.03.5-.08,1.32-.13,2.54-.19,3.74-.19.88,0,1.71-.15,2.4-.42.34-.11.7-.19,1.09-.27,1.08-.15,2.05-.36,2.95-.62.52-.14,1.1-.29,1.8-.48.46-.15.84-.31,1.19-.49.67-.36,1.05-.97,1.05-1.71,0-1.03-.95-1.58-1.85-1.58-.46,0-.93.09-1.48.29-.29.12-.49.14-.7.15l-3.31.31c-1.34.17-2.72.32-4.12.44.29-.67.57-1.31.83-1.93.33-.75.66-1.51.99-2.18.39-.72.72-1.39,1.01-2.06.16-.39.35-.62,1.71-.62l1.7-.16c.71-.1,1.46-.14,2.23-.14.52,0,2.1,0,2.47-1.52l.08-.31-.11-.3c-.54-1.49-2.09-1.49-2.6-1.49-.85,0-1.67.02-2.44.04h-.91c.26-.56.55-1.07.9-1.53.5-.03,1.44-.06,3.11-.06.37,0,.97.01,1.82.07.05.16.12.32.22.47.48.86,1.13.99,1.49.99h.17l.72-.24.38-.03.13-.13c.93-.35,1.34-1,1.51-1.46.11-.25.16-.53.16-.82,0-.36-.09-.71-.3-1.17-.43-.82-1.71-1.92-7.81-1.92l-1.5.02c-.7.02-1.34.03-1.95.03l-.27.04c-1.03.27-2.12.48-3.27.61-.96.14-1.92.3-2.84.47l-.23.07c-.44.2-.75.43-.95.67-.43-.82-1.71-1.92-7.81-1.92l-1.51.02c-.7.02-1.34.03-1.94.03l-.27.04c-1.03.27-2.12.48-3.27.61-.96.14-1.92.3-2.84.47l-.23.07c-1.17.52-1.34,1.32-1.34,1.67-.02.36-.02.53-.02.55,0,.17.02.31.04.44-.61-.85-1.43-1.59-2.43-2.18-2.2-1.11-4.78-1.68-7.64-1.68-4.14,0-7.98.78-11.49,2.36-.23.13-.44.25-.64.37-.04-.26-.11-.54-.24-.83-.67-1.38-3.01-1.94-8.06-1.94h-1.05c-.72.02-1.44.04-2.15.04l-.27.03c-1.08.28-2.19.45-3.36.63-.91.14-1.85.28-2.88.51-.44.14-1.47.64-1.47,2.23,0,1.79,1.28,1.95,1.53,1.96h.08s.08,0,.08,0c.64-.07,1.26-.18,1.88-.29.36-.06.71-.13,1.06-.18-.12.28-.25.55-.37.81-1.3.11-2.19.45-2.79,1.05-.68.68-1.02,1.35-1.02,1.98,0,.91.55,1.57,1.37,1.68-.58,1.23-1.1,2.52-1.6,3.9-.36,1.06-.76,2.04-1.21,2.99-.35.35-.54.82-.54,1.31,0,.62.22,1.2.62,1.68.58.67,1.19.81,1.62.81h0ZM81.06,11.25l.15.03.15-.02c.65-.08,1.3-.17,1.94-.28l.12-.03c.29-.08.59-.14.89-.2-.12.29-.25.56-.37.81,0,.01-.02.03-.02.04-1.3.1-2.22.44-2.79,1.03-.08.08-.17.18-.26.29,0-.08.02-.15.02-.23l-.02-.18c-.09-.54-.26-1.05-.49-1.55.27.18.53.26.67.28h0ZM66.78,13.99c.21-.52.42-1.04.6-1.58.1-.23.15-.47.15-.75,0-.46-.11-.91-.31-1.32.43-.04.88-.08,1.33-.11.53-.06,1.02-.09,1.5-.09,2.04,0,4.01.37,5.92,1.13.15.05.42.17.76.45.14.13.19.22.21.29,0,0-.01.01-.02.02-1.32,1.39-3.31,2.03-5.02,2.46-2.18.44-4.07.7-5.61.77.15-.42.32-.83.49-1.26h0Z"/><path class="cls-2" d="M148.72,40.14c-.5-.79-1.31-1.22-2.28-1.22-1.18,0-1.71.61-1.94,1.04-1.41,2.04-2.59,4.27-3.52,6.69-.26.81-.96,1.4-2.16,1.81-.21.07-.46.11-.74.11-.17,0-.58-.02-.63-.12-.29-.73-.44-1.57-.44-2.49,0-.8.07-1.56.21-2.3.17-.8.44-1.59.82-2.43.35-.43.43-.87.43-1.17,0-1.16-.88-2.14-1.93-2.14-.43,0-.85.17-1.27.5l-.15.12-.1.16c-.69,1.16-1.14,2.11-1.37,2.88-.18.54-.31,1.21-.42,1.96-.64-1.1-1.6-2.07-2.83-2.81-2.2-1.11-4.77-1.68-7.64-1.68-4.14,0-7.98.78-11.49,2.36-.28.15-.51.3-.74.44-.03-.29-.1-.58-.27-.94-.43-.82-1.71-1.92-7.81-1.92l-1.71.03c-.62.01-1.19.03-1.74.03l-.27.04c-1.02.27-2.11.48-3.27.61-.96.14-1.92.3-2.84.47l-.23.07s-.01,0-.02.01c-.02-.45-.17-1.08-.79-1.7-.53-.53-1.09-.79-1.68-.79-1.06,0-1.94.82-2.07,1.88-1.11,2.43-2.43,4.74-3.93,6.88-1.52,2.17-3.05,4.22-4.54,6.09,0-.08,0-.15,0-.22.08-.54.11-1.06.13-1.57.02-.43.04-.86.09-1.27.16-1.03.25-1.97.26-2.85.04-1.35.1-2.98.19-3.69.02-.3.04-.6.04-.89,0-1.75-1.12-3.07-2.6-3.07-.61,0-1.23.31-1.49.98-.71-.65-1.99-.98-3.83-.98-1.48,0-3.12.22-4.89.66-.92.07-1.52.74-1.52,1.71,0,.56.21,1.1.62,1.62.32.39.91.85,1.92.85.21,0,.42-.02.63-.06-.11.26-.24.5-.36.74-1.62,2.92-3.17,5.99-4.57,9.08-.23.46-.42.93-.58,1.44-.05.14-.1.25-.15.32-.88.23-2.08.35-3.53.35-.5.02-.9.19-1.19.47-.29-.25-.71-.43-1.3-.44l-1.14-.07c-.09-.03-.22-.05-.38-.05h0c-.74.02-1.77.04-3.05.04-.79,0-1.46,0-2.03.01.38-.64.73-1.27,1.08-1.91.53-.97,1.11-1.97,1.72-2.98.64-1.11,1.26-2.23,1.86-3.34.8-1.48,1.65-2.91,2.57-4.39.39-.46.6-.99.6-1.55,0-1.15-.66-2.04-1.82-2.43l-.32-.11-.32.09c-.93.27-1.59.94-1.87,1.89-.09.23-.18.39-.28.49l-.12.15c-.99,1.58-1.86,3.11-2.64,4.66-.56,1.09-1.18,2.19-1.89,3.41-1.25,2.29-2.63,4.45-4.12,6.43-.14.02-.19.04-1.12-.1h-.25c-.1-.01-.18,0-.27.01,0-.05.02-.1.02-.15,0-1.03-.95-1.58-1.85-1.58-.46,0-.92.09-1.48.3-.28.12-.48.14-.7.15l-3.31.31c-1.34.17-2.72.32-4.12.44.29-.67.55-1.29.8-1.86l.07-.16c.32-.72.64-1.45.95-2.09.4-.72.72-1.39,1.01-2.06.16-.39.35-.62,1.72-.62l1.7-.16c.7-.1,1.45-.14,2.22-.14.52,0,2.1,0,2.47-1.52l.08-.31-.11-.3c-.54-1.49-2.03-1.49-2.6-1.49-.86,0-1.67.02-2.44.04h-.91c.26-.56.55-1.07.9-1.53.51-.03,1.44-.06,3.11-.06.37,0,.96.01,1.81.07.05.16.12.32.22.47.48.86,1.14.99,1.49.99h.17l.72-.24.37-.03.13-.13c.93-.35,1.35-1,1.51-1.46.11-.25.16-.53.16-.82,0-.36-.09-.71-.3-1.17-.43-.82-1.71-1.92-7.81-1.92l-1.71.03c-.62.01-1.19.03-1.74.03l-.27.04c-1.03.27-2.12.48-3.27.61-.96.14-1.92.3-2.84.47l-.23.07c-1.17.52-1.34,1.32-1.34,1.67-.02.35-.02.53-.02.55,0,1.58,1.08,1.88,1.41,1.93l.15.03.15-.02c.65-.08,1.3-.17,1.94-.28l.12-.03c.29-.08.59-.14.9-.2-.12.29-.25.56-.37.81,0,.01-.02.03-.02.04-1.3.1-2.22.44-2.79,1.03-.18.19-.39.42-.57.69-.41-.87-.94-1.7-1.61-2.48-.74-.91-1.67-1.72-2.78-2.42l-.21-.11c-1.58-1-3.31-1.69-5.11-2.06-.94-.2-1.81-.29-2.68-.29h-.25l-1.44-.08h-.21c-.34.03-.66.04-.97.08-1.27.14-1.72.94-1.72,1.64,0,.24.06.5.19.8.52,1.17,1.25,1.42,1.8,1.42h.13c.25-.02.51-.03.82-.03l.12.03h.57c.17-.02.33-.03.49-.03l-.07.12c-.73,1.36-1.9,3.21-3.5,5.54-.87,1.36-1.59,2.58-2.21,3.71-1.67,3.02-2.35,3.86-2.57,4.08-.15.02-.3.03-.49.03-.71,0-1.43.5-1.43,1.62,0,.53.21.93.38,1.18h0c.26.42.81.9,1.95.9h0c2.93-.1,5.55-.48,7.72-1.13l1.05-.25c2.48-.57,4.82-1.42,6.95-2.53.12-.04.25-.11.36-.18.98-.48,1.8-.96,2.49-1.44.7-.46,1.26-1.04,1.7-1.72-.12.31-.23.61-.35.93-.36,1.04-.69,1.86-1.03,2.51-.36.37-.55.83-.55,1.33,0,.59.22,1.16.63,1.65.46.56,1,.84,1.6.84.17,0,.34-.03.5-.08,1.32-.13,2.54-.19,3.74-.19.88,0,1.71-.15,2.4-.42.33-.11.69-.19,1.1-.27,1.07-.15,2.04-.36,2.95-.62.52-.14,1.11-.29,1.8-.48.28-.09.52-.19.75-.29,0,.01,0,.02,0,.03,0,2.2,1.53,2.32,1.83,2.32h.04c1.95,0,3.82-.1,5.56-.29,1.73-.18,3.65-.26,5.71-.26.8,0,1.39.02,1.86.07h.17c.57,0,1.05-.28,1.42-.85.12.16.26.32.43.48.6.55,1.43.85,2.43.87,1.87,0,4.01-.13,6.6-.4.84-.14,1.84-.75,1.84-2.88v-.11c-.08-.72-.53-1.49-1.52-1.73.03-.07.06-.14.08-.21.79-1.61,1.57-3.22,2.33-4.84.97-1.59,1.88-3.37,2.72-5.32.19-.47.29-.97.29-1.5v-.02c.45-.03.85.07,1.17.23l.83.42c0,.11-.01.24-.02.35-.08.91-.15,1.82-.21,2.75-.05.94-.13,1.87-.2,2.81-.14,1.75-.28,3.56-.28,5.36,0,1.12.04,1.98.14,2.65.15.62.53,1.19,1.14,1.68h0c.61.5,1.19.74,1.75.74.63,0,1.04-.27,1.24-.47,1.1-1.01,2.02-2.04,2.82-3.15,1.06-1.49,2.2-3,3.5-4.62.23-.3.45-.61.66-.93.29-.43.57-.84.88-1.17l.13-.16c.54-.82,1.09-1.65,1.64-2.46.75-1.08,1.4-2.25,1.98-3.29.09-.16.17-.31.26-.46.32.74.98.91,1.23.95l.15.03.15-.02c.65-.08,1.3-.17,1.94-.28l.12-.03c.29-.08.59-.14.89-.2-.12.29-.25.56-.37.81,0,.01-.02.03-.02.04-1.3.1-2.22.44-2.79,1.03-.44.44-1.02,1.13-1.02,1.98,0,.93.54,1.59,1.38,1.7-.61,1.31-1.2,2.74-1.78,4.35-.35,1.03-.69,1.86-1.03,2.51-.36.37-.55.83-.55,1.33,0,.59.22,1.16.63,1.65.46.56,1,.84,1.61.84.18,0,.34-.03.5-.08,1.32-.13,2.54-.19,3.74-.19.88,0,1.71-.15,2.4-.42.33-.11.69-.19,1.1-.27,1.07-.15,2.04-.36,2.95-.62.52-.14,1.11-.29,1.8-.48.46-.15.84-.31,1.19-.49.68-.36,1.05-.97,1.05-1.71,0-1.03-.95-1.58-1.85-1.58-.46,0-.93.09-1.48.3-.28.12-.48.14-.7.15l-3.31.31c-1.34.17-2.72.32-4.12.44.29-.66.55-1.28.8-1.86l.09-.2c.31-.71.62-1.41.93-2.05.39-.72.72-1.39,1.01-2.06.16-.39.35-.62,1.71-.62l1.7-.16c.7-.1,1.45-.14,2.23-.14.52,0,2.1,0,2.47-1.52l.08-.31-.11-.3c-.54-1.49-2.04-1.49-2.6-1.49-.86,0-1.68.02-2.44.04h-.91c.26-.56.55-1.07.89-1.53.51-.03,1.44-.06,3.11-.06.37,0,.96.01,1.81.07.05.16.12.32.22.47.48.86,1.14,1,1.49,1h.17l.72-.24.38-.03.13-.13s.04-.02.06-.03c.04.58.26,1.1.63,1.47.29.31.74.73,1.36.73.54,0,1.04-.24,1.5-.69.19-.19.36-.35.53-.49,1-.49,2.13-.89,3.38-1.2-.3.84-.61,1.66-.9,2.45-.22.5-.41,1.01-.59,1.55-.08.23-.19.42-.34.57-.07,0-.15.01-.24.01-.52,0-1.12.13-1.9.42-1.57.61-2.34,1.31-2.34,2.15,0,1.16,1.38,1.54,2.65,1.8.16.04.32.08.47.14-.14.54-.36,1.08-.59,1.65-.09.21-.17.42-.25.63-.43.6-.64,1.27-.64,2,0,1.54.86,2.58,2.18,2.58l.24-.03c.54-.12,1.28-.5,1.71-1.65.18-.53.38-1,.58-1.46.26-.6.45-1.17.57-1.75.02-.1.04-.2.07-.3,2.4,1.09,4.82,2.65,7.22,4.65.62.53,1.33.93,2.05,1.16l.23.07.24-.03c1.12-.16,1.51-.94,1.51-1.61,0-.59-.21-1.16-.66-1.76-.36-.47-.72-.82-1.11-1.05-1.67-1.37-3.37-2.61-5.01-3.65-.04-.03-.09-.06-.13-.1l1.79-.23c2.38-.26,4.69-.82,6.83-1.65,1.6-.56,2.76-1.47,3.42-2.6.31.96.86,1.88,1.83,2.64.95.78,2.08,1.21,3.37,1.3-.51,1.19-1.05,2.5-1.63,3.92-.12.33-.18.69-.18,1.06,0,1.36,1.02,2.54,2.5,2.92.3.12.59.19.88.19,1.1,0,1.89-.81,1.89-1.93,0-.58-.17-1.08-.51-1.5l-.31-.31h0c.05-.11.11-.23.16-.31.07-.13.13-.26.18-.37l.07-.17c.32-.87.53-1.46.66-1.77.07-.16.29-.67.89-1.86.18-.33.36-.68.53-1.02.27-.53.52-1.03.81-1.49.63-.71,1.28-1.49,2.04-2.46.72-.93,1.25-2.03,1.59-3.34.07-.36.18-.72.29-1.08.17-.56.35-1.13.4-1.74l.03-.36-.2-.31h0ZM23.66,51.67c-1.34.95-2.94,1.73-4.76,2.32-1.93.62-3.74,1.11-5.49,1.5.69-1.19,1.4-2.34,2.13-3.42.29-.4.56-.82.79-1.22.45-.72.93-1.42,1.37-2.05.78-1.04,1.4-2.04,1.91-3.05.35-.4.44-.81.44-1.11,0-.32-.07-.75-.38-1.23,1.63.49,3.08,1.38,4.37,2.69.94.83,1.3,1.54,1.3,2.52,0,1.15-.57,2.16-1.69,3.04h0ZM29.64,50.04c.01-.15.03-.31.03-.46,0-.06,0-.11,0-.16.08.02.14.06.22.07-.08.18-.17.37-.25.56h0ZM114.75,50.94h0s0,0,0,0ZM130.06,45.16c-1.32,1.39-3.3,2.03-5.02,2.46-2.18.44-4.07.7-5.61.77.15-.42.32-.83.49-1.26.21-.52.42-1.04.6-1.58.1-.23.15-.47.15-.75,0-.46-.11-.91-.31-1.32.43-.04.88-.08,1.33-.11.54-.06,1.03-.09,1.5-.09,2.04,0,4.01.37,5.91,1.13.23.07.5.24.77.45.14.13.2.22.21.29,0,0-.01.01-.02.02h0Z"/></g></svg>