<?xml version="1.0" encoding="UTF-8"?><svg id="Calque_2" xmlns="http://www.w3.org/2000/svg" width="132.81" height="85.01" viewBox="0 0 132.81 85.01"><defs><style>.cls-1{fill:#1c1c1c;}.cls-1,.cls-2,.cls-3{stroke-width:0px;}.cls-2{fill:#fcca22;}.cls-3{fill:#fff;}</style></defs><g id="Layer_1"><path class="cls-1" d="M129.52,79.3c-21.84-1.13-43.69-2.27-65.53-3.41-.86-.04-1.69.36-2.24,1.09-2.14,2.84-3.23,4.24-5.42,7-1.2,1.5-3.39,1.32-4.35-.33-1.76-3.02-2.65-4.51-4.48-7.46-.47-.76-1.25-1.23-2.11-1.27-4.61-.24-6.92-.36-11.54-.6-1.49-.08-2.64-1.35-2.57-2.84.56-12.87.39-25.78-.51-38.63-.11-1.49,1.01-2.79,2.49-2.91,31.83-2.5,63.67-5.01,95.5-7.52,1.49-.12,2.82,1.36,2.96,3.3,1.24,16.69,1.35,33.49.67,50.21-.09,1.94-1.38,3.45-2.87,3.37h0Z"/><path class="cls-2" d="M2.16,36.03c12.35-.64,24.7-1.28,37.05-1.93.56-.03,1.09.23,1.45.71,1.38,1.83,2.08,2.74,3.5,4.52.77.97,2.19.85,2.81-.21,1.14-1.95,1.71-2.91,2.89-4.81.3-.49.81-.79,1.37-.82,2.98-.15,4.47-.23,7.45-.39.96-.05,1.7-.87,1.66-1.83-.44-9.97-.38-14.97.33-24.93.07-.96-.65-1.8-1.61-1.88C40.24,2.96,21.44,1.48,2.64,0,1.68-.07.82.86.73,2.09-.08,12.58-.21,23.38.31,33.9c.05,1.23.89,2.18,1.85,2.14h0Z"/><path class="cls-1" d="M10.84,10.39c3.9.28,5.84.42,9.74.7v3.22c-2.37-.1-3.56-.15-5.93-.25v3.22c2.22.03,3.33.05,5.56.08v3.21c-2.22.04-3.33.05-5.56.09v6.35c-1.52.11-2.29.17-3.81.28V10.39h0Z"/><path class="cls-1" d="M35.83,18.77c0,3.88-1.94,7.11-6.76,7.47-4.58.34-6.51-3.06-6.51-7.49,0-3.96,1.97-7.63,6.73-7.27,4.55.34,6.54,3.7,6.54,7.3h0ZM26.6,18.73c0,2.81.79,4.71,2.62,4.63,1.97-.09,2.59-1.81,2.59-4.63,0-2.44-.59-4.3-2.64-4.39-1.87-.08-2.57,1.67-2.57,4.39Z"/><path class="cls-1" d="M42.4,20.27v4.74c-1.51.11-2.27.16-3.78.27v-12.88c2.57.19,3.85.28,6.42.46,3.09.22,4.78,1.65,4.78,3.43,0,1.51-.96,2.26-2.17,2.66,1.46.46,1.9,1.41,1.9,2.71v.35c0,.94.05,1.93.16,2.47-1.49.11-2.23.16-3.72.27-.21-.47-.28-1.23-.28-2.59v-.33c0-1.24-.48-1.6-1.98-1.58-.54,0-.81.01-1.34.02ZM42.4,17.85c.65,0,.98.01,1.63.02,1.15.01,1.97-.34,1.97-1.35,0-.93-.74-1.32-1.72-1.36-.75-.03-1.13-.05-1.88-.08v2.77h0Z"/><path class="cls-3" d="M49.25,55.72c.23,1.48,1.27,2.42,3.25,2.49,2.01.07,2.64-.63,2.64-1.65,0-1.36-1.05-2-4.02-2.71-5.42-1.29-7.07-2.91-7.07-5.37,0-3.53,3.58-5.56,8.15-5.82,5.4-.31,8.2,1.82,8.45,5.4-2.28.05-3.42.08-5.69.14-.18-1.17-.8-2.11-2.73-2.04-1.48.05-2.29.65-2.29,1.63,0,1.12.97,1.42,3.89,2.09,5.76,1.32,7.36,3.3,7.36,6.25,0,3.7-3.09,5.96-8.88,5.63-5.4-.31-8.57-2.67-8.82-6.16,2.3.05,3.45.07,5.75.12h0Z"/><path class="cls-3" d="M70.46,58.29c-.44,1.64-.66,2.46-1.1,4.08-2.36-.13-3.54-.2-5.9-.33,2.44-7.74,3.67-11.75,6.11-20.03,3.24-.18,4.86-.27,8.1-.45,2.56,8.37,3.84,12.69,6.39,21.63-2.5-.14-3.75-.21-6.26-.35-.49-1.75-.73-2.62-1.22-4.35l-6.12-.2h0ZM75.59,53.93c-.89-3.17-1.64-6.17-2.1-8.29-.04,0-.05,0-.09,0-.44,2.3-1.19,5.32-2,8.25,1.68.01,2.51.02,4.19.04h0Z"/><path class="cls-3" d="M87.31,41.02c2.41-.13,3.61-.2,6.02-.33v18.21c3.69.12,5.54.18,9.23.3-.24,2-.37,3-.61,4.99-5.86-.33-8.79-.49-14.64-.82v-22.35h0Z"/><path class="cls-3" d="M120.91,54.52c-3.66-.04-5.49-.05-9.15-.09v5.12c4.08.13,6.12.2,10.19.33-.27,2.16-.4,3.23-.67,5.38-6.13-.34-9.2-.51-15.32-.85v-24.42c6.13-.34,9.19-.51,15.33-.85v5.44c-3.81.12-5.71.19-9.52.31v4.33c3.66-.05,5.49-.07,9.15-.12v5.43h0Z"/></g></svg>