<?xml version="1.0" encoding="UTF-8"?><svg width="192" height="140" id="Calque_2" xmlns="http://www.w3.org/2000/svg" viewBox="0 0 96 70.34"><defs><style>.cls-1{fill:#0a0c06;}.cls-1,.cls-2{stroke-width:0px;}.cls-2{fill:#e74c3d;}</style></defs><g id="_01_Bubble"><path class="cls-1" d="m54.17,7.81c.93,1.69,2.45,2.83,4.29,3.56,1.88.74,4.09,1.05,6.39,1.07,6.42.05,16.07-2.73,18.65-3.86-4.06,4.37-14.94,10.15-13.48,16.48.85,3.69,8.61,7.76,17.78,10.26-3.21.76-4.57.76-7.6,1.69-3.69,1.14-6.13,3.09-7.56,5.5-1.36,2.28-1.79,4.9-1.52,7.56.26,2.6,1.29,5.08,1.87,7.64-1.43-2.33-4.91-5.4-7.93-6.46-1.34-.47-2.74-.73-4.12-.73-1.38,0-2.74.28-4.01.9-1.89.92-3.55,2.58-4.71,5.21l-.09.2-.13-.12c-5.58-4.82-9.85-3.88-13.03-.98-3.43,3.12-5.59,8.52-6.75,11.42-.34.85-1.38,2.88-1.56,3.21.33-3.29.77-6.59.15-9.89-.54-2.83-1.75-5.19-3.69-6.97-2.02-1.85-4.8-3.01-8.35-3.33-5.31-.48-6.8-.29-8.92-.38,3.35-1.21,7.8-3.89,9.27-5.54,1.11-1.26,1.63-2.47,1.52-3.58-.11-1.11-.87-2.39-2.33-3.8-3.63-3.51-12.11-6.58-15.35-8.53,6.4.43,12.9-.25,15.69-1.62,2.19-1.08,3.4-2.55,3.86-4.23.37-1.36.16-2.93-.44-4.53-.29-.78-8.6-12.26-8.45-12.14h0c3.47,3.08,9.24,6.29,14.1,7.13,1.86.32,3.54.28,4.88-.2,1.31-.48,2.27-1.37,2.74-2.76,1.15-3.4-1.24-6.76-1.85-9.97.37.9,9.11,16.9,19.93,1.33-.16,2.23-.4,4.4.76,6.48h0Z"/><path class="cls-2" d="m53.99,9.31c-.68-1.22-1.13-2.7-1.29-4.46-8.08,11.1-14.1,4.66-16.83.21.57,2.68.51,4.79-.04,6.4-.54,1.59-1.59,2.59-2.99,3.1-1.37.5-3.08.54-4.97.21-2.59-.45-5.54-1.59-8.4-3.19,1.22,1.64,2.24,3.4,2.91,5.16.93,2.47,1.25,4.93.65,7.14-.52,1.89-1.8,3.52-4.11,4.65-2,.98-4.78,1.61-8.52,1.74,3.54,1.51,6.16,3.16,7.91,4.85,1.76,1.7,2.72,3.59,2.91,5.57.19,1.98-.41,3.77-1.75,5.3-.7.79-1.61,1.54-2.72,2.24.63,0,1.24.04,1.83.09,3.62.32,6.45,1.51,8.53,3.41,2.17,1.98,3.56,4.78,4.21,8.25.33,1.75.47,3.63.42,5.63v-.03c1.19-2.95,3.4-8.45,6.9-11.64,3.23-2.95,7.57-3.92,13.22.89,1.22-2.65,2.9-4.32,4.81-5.24,1.29-.62,2.68-.91,4.09-.91,1.41,0,2.83.26,4.19.74,2.41.84,4.64,2.35,6.23,4.13-.3-1.15-.51-2.32-.63-3.48-.34-3.39.13-6.61,1.69-9.23,1.48-2.49,3.98-4.5,7.73-5.66.46-.14.95-.27,1.45-.39-6.92-2.37-11-5.3-11.86-9.04-.89-3.88,1.35-8.21,7.11-13.18-3.29.91-7.59,1.75-11.61,1.72-2.32-.02-4.56-.33-6.46-1.08-1.94-.77-3.55-2-4.59-3.88h0Z"/><polygon class="cls-1" points="75.6 21.82 91.18 20.44 91.39 22.28 75.6 21.82 75.6 21.82"/><polygon class="cls-1" points="17.31 22.61 2.89 15.35 2.8 13.53 17.31 22.61 17.31 22.61"/><polygon class="cls-1" points="15.48 63.76 15.15 61.97 23.72 54.36 15.48 63.76 15.48 63.76"/><polygon class="cls-1" points="44.83 62.95 44.23 62.78 43.84 57.59 44.83 62.95 44.83 62.95"/><polygon class="cls-1" points="30.8 9.3 26.9 2.04 27.1 .56 30.8 9.3 30.8 9.3"/><polygon class="cls-1" points="68.53 2.82 68.84 4.62 61.83 9.81 68.53 2.82 68.53 2.82"/><polygon class="cls-1" points=".24 44.41 0 42.58 13.25 38.77 .24 44.41 .24 44.41"/><polygon class="cls-1" points="60.8 57.33 60.21 57.33 59.82 53.52 60.8 57.33 60.8 57.33"/><polygon class="cls-1" points="77.22 44.32 95.92 54.35 96 56.16 77.22 44.32 77.22 44.32"/></g></svg>
