<?xml version="1.0" encoding="utf-8"?>
<!DOCTYPE svg PUBLIC "-//W3C//DTD SVG 1.1//EN" "http://www.w3.org/Graphics/SVG/1.1/DTD/svg11.dtd">
<svg version="1.1" xmlns="http://www.w3.org/2000/svg" xmlns:xlink="http://www.w3.org/1999/xlink" xmlns:xml="http://www.w3.org/XML/1998/namespace" xmlns:cc="http://creativecommons.org/ns#" xmlns:dc="http://purl.org/dc/elements/1.1/" xmlns:rdf="http://www.w3.org/1999/02/22-rdf-syntax-ns#" x="0" y="0" width="997" height="373" viewBox="0.3, 0, 299.1, 112.5" id="svg6096" xml:space="preserve" style="enable-background:new 0 0 300 112.5;">
<metadata>

   
      
         A faire
         2024-07-17T16:48:18+02:00
         xmp.iid:a48f32f5-1761-48c2-8879-902cf7c28176
         xmp.did:794bd895-69d5-4193-bc45-d9ace4147710
         xmp.did:794bd895-69d5-4193-bc45-d9ace4147710
         
            
               
                  
                     saved
                     xmp.iid:794bd895-69d5-4193-bc45-d9ace4147710
                     2024-07-17T16:37:35+02:00
                     Adobe Bridge 2024
                     /metadata
                  
               
               
                  
                     saved
                     xmp.iid:a48f32f5-1761-48c2-8879-902cf7c28176
                     2024-07-17T16:48:18+02:00
                     Adobe Bridge 2024
                     /metadata
                  
               
            
         
      
   

                                                                                                    
                                                                                                    
                                                                                                    
                                                                                                    
                                                                                                    
                                                                                                    
                                                                                                    
                                                                                                    
                                                                                                    
                                                                                                    
                                                                                                    
                                                                                                    
                                                                                                    
                                                                                                    
                                                                                                    
                                     
</metadata>
<style type="text/css">
	.st0{fill:#D3D2D2;}
	.st1{fill:url(#path3558_1_);}
	.st2{fill:url(#path3580_1_);}
	.st3{fill:url(#path3602_1_);}
	.st4{fill:url(#path3624_1_);}
	.st5{fill:url(#path3646_1_);}
	.st6{fill:url(#path3668_1_);}
	.st7{fill:url(#path3690_1_);}
	.st8{fill:url(#path3742_1_);}
	.st9{fill:url(#path3764_1_);}
	.st10{fill:url(#path3786_1_);}
	.st11{fill:url(#path3808_1_);}
	.st12{fill:url(#path3830_1_);}
	.st13{fill:url(#path3852_1_);}
	.st14{fill:url(#path3874_1_);}
	.st15{fill:url(#path3896_1_);}
	.st16{fill:url(#path3918_1_);}
	.st17{fill:url(#path3940_1_);}
	.st18{fill:url(#path3962_1_);}
	.st19{fill:url(#path3984_1_);}
	.st20{fill:url(#path4006_1_);}
	.st21{fill:url(#path4028_1_);}
	.st22{fill:url(#path4050_1_);}
	.st23{fill:url(#path4072_1_);}
	.st24{fill:url(#path4094_1_);}
	.st25{fill:#4F4C4D;}
	.st26{fill:url(#path4130_1_);}
	.st27{fill:url(#path4154_1_);}
	.st28{fill:url(#path4180_1_);}
	.st29{fill:url(#path4206_1_);}
	.st30{fill:url(#path4232_1_);}
</style>
<path d="M299.1 51.9 c0.1 0.3 0.1 0.5 0.1 0.8 C299.2 52.4 299.1 52.2 299.1 51.9 M150 0 C66.7 0 0 25 0 56.2 c0 31.1 67.3 56.2 150 56.2 c82.7 0 150 -25.2 150 -56.2 C300 25.2 232.7 0 150 0" id="path3532" class="st0" style="fill:#D3D2D2;" />
<radialGradient cx="-807.7537" cy="596.2383" r="1" gradientUnits="userSpaceOnUse" gradientTransform="matrix(647.6554, 0, 0, -631.5305, 523294.9, 377163.1)" id="path3558_1_">
	<stop offset="0%" stop-color="#00050D" />
	<stop offset="70%" stop-color="#051125" />
	<stop offset="90.45%" stop-color="#173E7E" />
	<stop offset="95.5%" stop-color="#4CA9E3" />
	<stop offset="100%" stop-color="#4CA9E3" />
</radialGradient>
<path d="M2.3 56.2 c0 29.8 66.1 54 147.7 54 l0 0 c81.6 0 147.7 -24.1 147.7 -54 l0 0 c0 -29.8 -66.1 -54 -147.7 -54 l0 0 C68.4 2.2 2.3 26.4 2.3 56.2" id="path3558" class="st1" style="fill:url(&quot;#path3558_1_&quot;);" />
<linearGradient x1="-813.2072" y1="589.9409" x2="-812.2072" y2="589.9409" gradientUnits="userSpaceOnUse" gradientTransform="matrix(0, -114.3202, -114.3202, 0, 67591.91, -92852.28)" id="path3580_1_">
	<stop offset="0%" stop-color="#08142E" />
	<stop offset="80.9%" stop-color="#17326E" />
	<stop offset="100%" stop-color="#0D69A9" />
</linearGradient>
<path d="M13.4 56.2 c0 2 0.4 4 1.2 6 l0 0 c-0.3 -1.3 -0.5 -2.6 -0.5 -3.9 l0 0 c0 -24.7 61.1 -44.7 136.6 -44.7 l0 0 c69.4 0 126.7 16.9 135.4 38.9 l0 0 c-5.8 -23.1 -64.5 -41.2 -136.1 -41.2 l0 0 C74.6 11.2 13.4 31.4 13.4 56.2" id="path3580" class="st2" style="fill:url(&quot;#path3580_1_&quot;);" />
<linearGradient x1="-813.2068" y1="589.9415" x2="-812.2068" y2="589.9415" gradientUnits="userSpaceOnUse" gradientTransform="matrix(0, -114.3306, -114.3306, 0, 67599.97, -92860.68)" id="path3602_1_">
	<stop offset="0%" stop-color="#08142E" />
	<stop offset="80.9%" stop-color="#17326E" />
	<stop offset="100%" stop-color="#0D69A9" />
</linearGradient>
<path d="M291.5 56.2 c0 27.2 -63.4 49.3 -141.5 49.3 l0 0 C80.4 105.5 22.6 88 10.7 65 l0 0 c9.1 24 68.4 42.5 140.3 42.5 l0 0 c78.2 0 141.5 -21.9 141.5 -48.8 l0 0 c0 -2.7 -0.7 -5.4 -1.9 -8 l0 0 C291.2 52.4 291.5 54.3 291.5 56.2" id="path3602" class="st3" style="fill:url(&quot;#path3602_1_&quot;);" />
<linearGradient x1="-815.0721" y1="586.8118" x2="-814.0721" y2="586.8118" gradientUnits="userSpaceOnUse" gradientTransform="matrix(0, -79.21, -79.21, 0, 46656.98, -64467.79)" id="path3624_1_">
	<stop offset="0%" stop-color="#08142E" />
	<stop offset="80.9%" stop-color="#17326E" />
	<stop offset="100%" stop-color="#0D69A9" />
</linearGradient>
<path d="M176.4 61 c-3.2 3.3 -3.4 7.6 -1.3 9.5 l0 0 c0.7 0.7 1.6 1 2.5 1.1 l0 0 c-1.4 -1.7 -2 -5.1 -0.3 -7.7 l0 0 c-0.3 -0.8 -0.4 -1.7 -0.2 -2.6 l0 0 c0 -0.2 -0.1 -0.4 -0.3 -0.4 l0 0 C176.6 60.8 176.5 60.9 176.4 61" id="path3624" class="st4" style="fill:url(&quot;#path3624_1_&quot;);" />
<linearGradient x1="-814.9923" y1="586.9459" x2="-813.9923" y2="586.9459" gradientUnits="userSpaceOnUse" gradientTransform="matrix(0, -80.2656, -80.2656, 0, 47321.02, -65321.43)" id="path3646_1_">
	<stop offset="0%" stop-color="#08142E" />
	<stop offset="80.9%" stop-color="#17326E" />
	<stop offset="100%" stop-color="#0D69A9" />
</linearGradient>
<path d="M209.1 68 c0 0.5 0.2 1.4 0.3 2.1 l0 0 c0.2 -0.3 0.3 -0.6 0.5 -1 l0 0 c0.1 -0.3 0.1 -0.3 -0.1 -0.4 l0 0 c-0.3 -0.1 -0.7 -0.4 -0.7 -0.6 l0 0 C209 68.1 209 68.1 209.1 68 L209.1 68 L209.1 68 L209.1 68 z" id="path3646" class="st5" style="fill:url(&quot;#path3646_1_&quot;);" />
<linearGradient x1="-815.5414" y1="586.0245" x2="-814.5414" y2="586.0245" gradientUnits="userSpaceOnUse" gradientTransform="matrix(0, -73.5277, -73.5277, 0, 43303.43, -59873.6)" id="path3668_1_">
	<stop offset="0%" stop-color="#08142E" />
	<stop offset="80.9%" stop-color="#17326E" />
	<stop offset="100%" stop-color="#0D69A9" />
</linearGradient>
<path d="M212.9 57.2 c1.1 1 1.7 2.2 1.8 3.4 l0 0 c0 0.5 0.5 0.6 0.8 0.1 l0 0 c0.1 -0.1 0.2 -0.3 0.3 -0.5 l0 0 c-0.1 -0.1 -0.2 -0.2 -0.3 -0.4 l0 0 C215.1 59.3 214 58.2 212.9 57.2 L212.9 57.2 z" id="path3668" class="st6" style="fill:url(&quot;#path3668_1_&quot;);" />
<linearGradient x1="-815.3283" y1="586.3821" x2="-814.3283" y2="586.3821" gradientUnits="userSpaceOnUse" gradientTransform="matrix(0, -76.0038, -76.0038, 0, 44737.42, -61875.71)" id="path3690_1_">
	<stop offset="0%" stop-color="#08142E" />
	<stop offset="80.9%" stop-color="#17326E" />
	<stop offset="100%" stop-color="#0D69A9" />
</linearGradient>
<path d="M169 55.2 c0.8 1.2 1.2 2.8 1.2 4.9 l0 0 c0 0.5 0.4 0.5 0.6 0.1 l0 0 c0.1 -0.2 0.3 -0.4 0.4 -0.6 l0 0 C170.7 57.7 169.7 55.9 169 55.2 z" id="path3690" class="st7" style="fill:url(&quot;#path3690_1_&quot;);" />
<linearGradient x1="-815.002" y1="586.9297" x2="-814.002" y2="586.9297" gradientUnits="userSpaceOnUse" gradientTransform="matrix(0, -80.1365, -80.1365, 0, 47236.44, -65217.03)" id="path3742_1_">
	<stop offset="0%" stop-color="#08142E" />
	<stop offset="80.9%" stop-color="#17326E" />
	<stop offset="100%" stop-color="#0D69A9" />
</linearGradient>
<path d="M198.3 66.2 c-3 3.6 -4.6 7.3 -4.6 10.9 l0 0 c0 1.3 0.5 2.9 1.6 3.4 l0 0 c0.4 0.2 0.7 0.3 1.1 0.4 l0 0 c-0.1 -0.5 -0.2 -1 -0.2 -1.4 l0 0 c0 -3.7 1.1 -7.4 4.1 -11.1 l0 0 c3.6 -4.4 7.4 -6.6 10 -5.4 l0 0 c-0.1 -1 -0.6 -1.8 -1.7 -2.3 l0 0 c-0.5 -0.2 -1 -0.3 -1.6 -0.3 l0 0 C204.4 60.4 201.2 62.6 198.3 66.2" id="path3742" class="st8" style="fill:url(&quot;#path3742_1_&quot;);" />
<linearGradient x1="-815.0032" y1="586.9276" x2="-814.0032" y2="586.9276" gradientUnits="userSpaceOnUse" gradientTransform="matrix(0, -80.1195, -80.1195, 0, 47156.97, -65203.33)" id="path3764_1_">
	<stop offset="0%" stop-color="#08142E" />
	<stop offset="80.9%" stop-color="#17326E" />
	<stop offset="100%" stop-color="#0D69A9" />
</linearGradient>
<path d="M138.9 58.5 c-4 1.5 -8 3.9 -10.8 7.6 l0 0 c-3.2 4.2 -4 9.3 -1.9 12.3 l0 0 c0.5 0.7 1.1 1.2 1.8 1.5 l0 0 c-1.1 -3.5 -0.3 -8.2 2.4 -11.8 l0 0 c2.8 -3.7 5.9 -5.1 9.4 -6.7 l0 0 c0.5 -0.2 0.5 -0.5 0.4 -0.9 l0 0 c-0.2 -0.7 -0.6 -2.5 -0.8 -2.9 l0 0 l0 0 C139.5 58.1 139.4 58.4 138.9 58.5" id="path3764" class="st9" style="fill:url(&quot;#path3764_1_&quot;);" />
<linearGradient x1="-815.0446" y1="586.8582" x2="-814.0446" y2="586.8582" gradientUnits="userSpaceOnUse" gradientTransform="matrix(0, -79.5717, -79.5717, 0, 46864.56, -64760.16)" id="path3786_1_">
	<stop offset="0%" stop-color="#08142E" />
	<stop offset="80.9%" stop-color="#17326E" />
	<stop offset="100%" stop-color="#0D69A9" />
</linearGradient>
<path d="M168.9 69.8 c-3.7 5.7 -7.2 11.2 -10.9 17 l0 0 c-0.2 0.3 -0.4 0.4 -0.7 0.5 l0 0 c-2.3 0 -4.8 0 -7.3 0 l0 0 c-0.3 0 -0.4 -0.1 -0.5 -0.3 l0 0 c0.2 0.9 0.5 2.5 0.6 2.9 l0 0 c0.1 0.3 0.3 0.4 0.5 0.4 l0 0 c2.7 0 6 0 8.3 0 l0 0 c0.3 0 0.6 -0.2 0.7 -0.5 l0 0 c3.4 -5.3 7 -11 10.4 -16.3 l0 0 c0.8 2.7 1.1 3.9 2.6 5.2 l0 0 c1.4 1.3 2.7 1.6 4.7 1.6 l0 0 c1.8 0 3.5 -0.7 5.6 -1.6 l0 0 c0.8 -0.3 1.4 -0.7 2 -1.1 l0 0 c0 -1 0.1 -2 0.3 -2.9 l0 0 c0 -0.1 -0.1 -0.7 -0.6 -0.4 l0 0 c-1 0.7 -2.2 1.4 -3.8 2 l0 0 c-1.9 0.7 -2.8 1 -4.6 1 l0 0 c-2.2 0 -4.2 -1 -5.6 -3.2 l0 0 c-0.8 -1.2 -1.1 -3 -1.2 -4.3 l0 0 c0 -0.1 -0.1 -0.2 -0.2 -0.2 l0 0 C169.1 69.7 169 69.7 168.9 69.8" id="path3786" class="st10" style="fill:url(&quot;#path3786_1_&quot;);" />
<linearGradient x1="-815.0006" y1="586.9321" x2="-814.0006" y2="586.9321" gradientUnits="userSpaceOnUse" gradientTransform="matrix(0, -80.1548, -80.1548, 0, 47255.04, -65231.86)" id="path3808_1_">
	<stop offset="0%" stop-color="#08142E" />
	<stop offset="80.9%" stop-color="#17326E" />
	<stop offset="100%" stop-color="#0D69A9" />
</linearGradient>
<path d="M233.3 72.8 c-3.6 4.4 -7.5 8.5 -11.3 11.4 l0 0 c-5.9 4.6 -11.7 5.7 -14.6 2.8 l0 0 c-1.1 -1.1 -1.7 -2.6 -1.7 -4 l0 0 c0 -0.7 -0.4 -0.7 -0.7 -0.4 l0 0 c-3.5 3.4 -9.5 7.2 -15 4.5 l0 0 c-2.7 -1.4 -4.2 -3.9 -4.8 -6.7 l0 0 c0.3 2 0.8 4.9 1.7 6.7 l0 0 c0.6 1.2 2 2.6 2.9 3 l0 0 c4.9 2.4 11.8 -0.3 16.3 -4.6 l0 0 c0 -0.1 0.1 -0.1 0.1 -0.1 l0 0 c0.2 0.8 0.5 1.7 0.5 1.8 l0 0 c0.3 1 0.8 1.9 1.2 2.4 l0 0 c3.1 3.5 9.5 1.9 16.3 -3.3 l0 0 c3.8 -2.9 6.6 -5.8 10 -9.8 l0 0 c0.1 -0.2 0.1 -0.4 0.1 -0.8 l0 0 c-0.2 -0.9 -0.5 -2.4 -0.7 -3.2 l0 0 C233.4 72.5 233.4 72.7 233.3 72.8 M185.1 80.2 c0 0.1 0 0.2 0 0.2 l0 0 C185.1 80.4 185.1 80.3 185.1 80.2 L185.1 80.2 C185.1 80.3 185.1 80.2 185.1 80.2 L185.1 80.2 z" id="path3808" class="st11" style="fill:url(&quot;#path3808_1_&quot;);" />
<linearGradient x1="-814.9968" y1="586.9384" x2="-813.9968" y2="586.9384" gradientUnits="userSpaceOnUse" gradientTransform="matrix(0, -80.2057, -80.2057, 0, 47258.25, -65273)" id="path3830_1_">
	<stop offset="0%" stop-color="#08142E" />
	<stop offset="80.9%" stop-color="#17326E" />
	<stop offset="100%" stop-color="#0D69A9" />
</linearGradient>
<path d="M186.8 60.7 c-0.3 2.2 -1.5 4.1 -3.5 5.1 l0 0 c-1.7 0.8 -3.7 0.7 -5.1 -0.6 l0 0 c-0.4 -0.4 -0.7 -0.9 -1 -1.4 l0 0 c0.4 1.6 0.7 2.8 1.1 3.5 l0 0 c1.3 2 3.6 2.5 6.1 1.1 l0 0 c1.8 -1 3.4 -3.1 3.2 -6.4 l0 0 c-0.1 -1.7 -0.6 -3.4 -1.4 -4.8 l0 0 C186.8 58.3 187 59.5 186.8 60.7" id="path3830" class="st12" style="fill:url(&quot;#path3830_1_&quot;);" />
<linearGradient x1="-815.0021" y1="586.9295" x2="-814.0021" y2="586.9295" gradientUnits="userSpaceOnUse" gradientTransform="matrix(0, -80.1351, -80.1351, 0, 47259.83, -65215.95)" id="path3852_1_">
	<stop offset="0%" stop-color="#08142E" />
	<stop offset="80.9%" stop-color="#17326E" />
	<stop offset="100%" stop-color="#0D69A9" />
</linearGradient>
<path d="M238.1 40.1 c-1.1 2 -23.1 35.4 -24.5 38.9 l0 0 c-0.4 1.1 -0.5 1.9 0 2.5 l0 0 c0.5 0.6 1.1 0.8 1.9 0.8 l0 0 c0.1 -0.4 0.2 -0.9 0.4 -1.4 l0 0 c1.4 -3.5 22 -34.7 23.1 -36.7 l0 0 c0.1 -0.2 0.1 -0.4 0 -0.5 l0 0 c-0.1 -0.3 -0.8 -3.6 -0.8 -3.9 l0 0 C238.2 39.9 238.2 40 238.1 40.1" id="path3852" class="st13" style="fill:url(&quot;#path3852_1_&quot;);" />
<linearGradient x1="-815.1439" y1="586.6916" x2="-814.1439" y2="586.6916" gradientUnits="userSpaceOnUse" gradientTransform="matrix(0, -78.2857, -78.2857, 0, 46078.32, -63720.62)" id="path3874_1_">
	<stop offset="0%" stop-color="#08142E" />
	<stop offset="80.9%" stop-color="#17326E" />
	<stop offset="100%" stop-color="#0D69A9" />
</linearGradient>
<path d="M146.9 55.7 c0.1 0.1 0.1 0.1 0.2 0.2 l0 0 c1.3 2 2 4.7 2.1 7.6 l0 0 c0.1 0.6 0.3 0.6 0.6 0.3 l0 0 c0.3 -0.3 0.5 -0.6 0.8 -0.8 l0 0 c-0.4 -1.5 -1 -2.9 -1.6 -4.2 l0 0 C148.8 58.2 147.8 56.5 146.9 55.7 z" id="path3874" class="st14" style="fill:url(&quot;#path3874_1_&quot;);" />
<linearGradient x1="-815.0427" y1="586.8613" x2="-814.0427" y2="586.8613" gradientUnits="userSpaceOnUse" gradientTransform="matrix(0, -79.5963, -79.5963, 0, 46848.24, -64780.05)" id="path3896_1_">
	<stop offset="0%" stop-color="#08142E" />
	<stop offset="80.9%" stop-color="#17326E" />
	<stop offset="100%" stop-color="#0D69A9" />
</linearGradient>
<path d="M158.1 62.3 c-4.7 3.6 -8.7 9.2 -10.7 11.7 l0 0 c-1.2 1.5 -2.3 3.6 -5.4 7 l0 0 c-4.9 5.3 -11.4 8.4 -17.6 6.2 l0 0 c-3.4 -1.1 -5.9 -3.9 -6.8 -7.3 l0 0 c-0.2 -0.7 -0.6 -0.8 -0.9 -0.4 l0 0 c-1 1.3 -3.1 3.1 -4.8 4.3 l0 0 c-0.2 0.1 -0.7 0.4 -1.1 0.2 l0 0 c-0.4 -0.2 -1.6 -2 -1.9 -2.5 l0 0 c0 -0.1 -0.1 -0.1 -0.1 -0.2 l0 0 v0 c0.4 2.2 0.5 2.5 1.1 3.5 l0 0 c0.7 1.1 1.4 1.9 1.5 2 l0 0 c0.4 0.2 0.8 0 1 -0.1 l0 0 c1.3 -0.7 3.9 -2.7 5.1 -4.1 l0 0 c0.3 -0.3 0.7 -0.1 0.8 0.2 l0 0 c0.5 1.5 1.2 2.6 1.9 3.9 l0 0 c0.8 1.4 2.5 2.8 4.7 3.4 l0 0 c2.8 0.8 5.9 0.9 9.9 -0.6 l0 0 c3.2 -1.2 6.6 -3.7 9.2 -6.6 l0 0 c3.1 -3.4 4.2 -5.5 5.4 -7 l0 0 c2 -2.5 5.2 -6.9 9.6 -10.7 l0 0 c1.5 -1.3 3.2 -2.2 4.3 -1.8 l0 0 c0.6 -1.6 0.3 -2.5 -0.3 -3 l0 0 c-0.2 -0.1 -0.5 -0.2 -0.8 -0.2 l0 0 C161 60.4 159.5 61.3 158.1 62.3" id="path3896" class="st15" style="fill:url(&quot;#path3896_1_&quot;);" />
<linearGradient x1="-815.0023" y1="586.9291" x2="-814.0023" y2="586.9291" gradientUnits="userSpaceOnUse" gradientTransform="matrix(0, -80.1316, -80.1316, 0, 47107.4, -65213.12)" id="path3918_1_">
	<stop offset="0%" stop-color="#08142E" />
	<stop offset="80.9%" stop-color="#17326E" />
	<stop offset="100%" stop-color="#0D69A9" />
</linearGradient>
<path d="M79.3 57.8 c-2.7 1.4 -5.9 3.7 -7.5 6.9 l0 0 c-1.3 2.6 -1.5 5.7 0.4 8.7 l0 0 c0.2 0.2 0.3 0.5 0.5 0.7 l0 0 c-0.6 -2.5 0.1 -5.1 1 -7.1 l0 0 c1.6 -3.2 3.8 -4.7 6 -6.1 l0 0 c0.9 -0.6 1.4 -1.2 0.8 -2.7 l0 0 c-0.2 -0.4 -0.3 -1.2 -0.4 -1.9 l0 0 C80.2 56.9 79.9 57.5 79.3 57.8" id="path3918" class="st16" style="fill:url(&quot;#path3918_1_&quot;);" />
<linearGradient x1="-815.0036" y1="586.9269" x2="-814.0036" y2="586.9269" gradientUnits="userSpaceOnUse" gradientTransform="matrix(0, -80.1145, -80.1145, 0, 47133.03, -65199.25)" id="path3940_1_">
	<stop offset="0%" stop-color="#08142E" />
	<stop offset="80.9%" stop-color="#17326E" />
	<stop offset="100%" stop-color="#0D69A9" />
</linearGradient>
<path d="M99.4 25.9 c-7.7 2.9 -11.1 9 -9.5 13.1 l0 0 c0.3 0.8 0.8 1.4 1.5 1.8 l0 0 c-0.5 -3.8 2.3 -9.9 9.7 -12.4 l0 0 c9.7 -3.2 20.5 -1.2 29.2 0.7 l0 0 c1.2 -0.8 2.3 -1.3 3.3 -1.9 l0 0 c0.5 -0.3 -0.1 -0.6 -0.2 -0.6 l0 0 c-6.9 -1.3 -14.1 -2.9 -21.1 -2.9 l0 0 C107.9 23.7 103.6 24.3 99.4 25.9" id="path3940" class="st17" style="fill:url(&quot;#path3940_1_&quot;);" />
<linearGradient x1="-815.0021" y1="586.9294" x2="-814.0021" y2="586.9294" gradientUnits="userSpaceOnUse" gradientTransform="matrix(0, -80.1344, -80.1344, 0, 47134.48, -65215.37)" id="path3962_1_">
	<stop offset="0%" stop-color="#08142E" />
	<stop offset="80.9%" stop-color="#17326E" />
	<stop offset="100%" stop-color="#0D69A9" />
</linearGradient>
<path d="M131.7 48.8 c-3.5 0.2 -8.9 0.7 -12.6 1.2 l0 0 c-0.9 0.1 -1 0.3 -1.2 0.6 l0 0 c-5.9 9.7 -12.1 20.1 -19 27.1 l0 0 c-7.4 7.5 -13.5 9.5 -20 9.5 l0 0 c-7.5 0.1 -14.2 -4.2 -15.9 -11.7 l0 0 c0.9 4.2 3.6 9.2 6.7 11.4 l0 0 c3.2 2.2 6.3 3 9.9 3 l0 0 c7.4 0.1 14.2 -2.9 21.4 -10.2 l0 0 c6.9 -7 12.9 -16.8 18.7 -26.5 l0 0 c0.2 -0.3 0.4 -0.5 1.4 -0.6 l0 0 c3.7 -0.5 7 -0.7 10.3 -1 l0 0 c1 -0.1 1.7 -0.2 2.1 0.2 l0 0 c1.2 1.2 2.5 2.3 3.5 2.8 l0 0 c0.6 0 1.1 0.1 1.5 0.5 l0 0 c0.4 -0.1 0.7 -0.3 1 -0.5 l0 0 c0.4 -0.4 0.4 -0.9 0.4 -1.3 l0 0 c-0.1 -0.8 -0.4 -2.4 -0.6 -2.8 l0 0 c0.2 0.3 0.1 0.8 -0.3 1.2 l0 0 c-0.3 0.3 -0.7 0.6 -1.2 0.6 l0 0 c-0.4 0 -0.7 -0.2 -1.2 -0.4 l0 0 c-1.1 -0.6 -2.5 -1.6 -3.4 -2.7 l0 0 c-0.2 -0.3 -0.4 -0.4 -0.8 -0.4 l0 0 C132 48.7 131.9 48.8 131.7 48.8" id="path3962" class="st18" style="fill:url(&quot;#path3962_1_&quot;);" />
<linearGradient x1="-814.9991" y1="586.9344" x2="-813.9991" y2="586.9344" gradientUnits="userSpaceOnUse" gradientTransform="matrix(0, -80.1746, -80.1746, 0, 47160.36, -65247.84)" id="path3984_1_">
	<stop offset="0%" stop-color="#08142E" />
	<stop offset="80.9%" stop-color="#17326E" />
	<stop offset="100%" stop-color="#0D69A9" />
</linearGradient>
<path d="M99.9 54.6 c-0.8 0.6 -2 0.5 -2.5 -0.3 l0 0 c-0.2 -0.3 -0.3 -0.6 -0.3 -0.8 l0 0 c-0.1 1.3 0.4 3.1 0.8 3.7 l0 0 c0.4 0.7 1.7 1 2.7 0.3 l0 0 c2.2 -1.7 4.3 -2.6 6.5 -3.1 l0 0 c0.6 -0.8 1.2 -1.7 1.9 -2.7 l0 0 c0.1 -0.1 0.1 -0.2 0 -0.2 l0 0 c0 -0.1 -0.1 -0.1 -0.3 -0.1 l0 0 C105.6 51.5 102.7 52.5 99.9 54.6" id="path3984" class="st19" style="fill:url(&quot;#path3984_1_&quot;);" />
<linearGradient x1="-815.1325" y1="586.7106" x2="-814.1325" y2="586.7106" gradientUnits="userSpaceOnUse" gradientTransform="matrix(0, -78.4306, -78.4306, 0, 46209.64, -63838.47)" id="path4006_1_">
	<stop offset="0%" stop-color="#08142E" />
	<stop offset="80.9%" stop-color="#17326E" />
	<stop offset="100%" stop-color="#0D69A9" />
</linearGradient>
<path d="M193.5 23.8 c0 0.1 0.1 0.1 0.1 0.2 l0 0 C193.6 23.9 193.6 23.8 193.5 23.8 z" id="path4006" class="st20" style="fill:url(&quot;#path4006_1_&quot;);" />
<linearGradient x1="-815.0028" y1="586.9283" x2="-814.0028" y2="586.9283" gradientUnits="userSpaceOnUse" gradientTransform="matrix(0, -80.1255, -80.1255, 0, 47185.61, -65208.18)" id="path4028_1_">
	<stop offset="0%" stop-color="#08142E" />
	<stop offset="80.9%" stop-color="#17326E" />
	<stop offset="100%" stop-color="#0D69A9" />
</linearGradient>
<path d="M193.9 25.2 c-0.1 2.1 -1.8 4.2 -5.9 6.4 l0 0 c-4.7 2.6 -9.5 3.3 -14.6 3.4 l0 0 c-12.3 0.1 -23.8 -4.7 -35.6 -7.3 l0 0 c0 0.5 0.1 1.1 -0.3 1.5 l0 0 C130.9 34.1 125 39 121 45.9 l0 0 c-0.1 0.2 -0.1 0.3 0.2 0.3 l0 0 c1.1 -0.1 2.1 -0.1 3.1 -0.2 l0 0 c3.6 -5.7 7.5 -8.9 13.4 -13.3 l0 0 c0.4 -0.3 0.9 -0.6 0.7 -1.8 l0 0 c11.9 2.6 20.9 7 36.3 7.1 l0 0 c4.6 0 11 -1.5 14.5 -3.6 l0 0 c4 -2.4 5.1 -4.2 5.2 -6 l0 0 c0 -0.6 -0.1 -1.5 -0.2 -1.9 l0 0 c-0.1 -0.6 -0.2 -1.4 -0.4 -2 l0 0 C193.9 24.6 193.9 24.9 193.9 25.2" id="path4028" class="st21" style="fill:url(&quot;#path4028_1_&quot;);" />
<linearGradient x1="-815.3537" y1="586.3395" x2="-814.3537" y2="586.3395" gradientUnits="userSpaceOnUse" gradientTransform="matrix(0, -75.7006, -75.7006, 0, 44523.12, -61631.16)" id="path4050_1_">
	<stop offset="0%" stop-color="#08142E" />
	<stop offset="80.9%" stop-color="#17326E" />
	<stop offset="100%" stop-color="#0D69A9" />
</linearGradient>
<path d="M136.6 39.7 c-0.1 0.1 -0.3 0.3 -0.5 0.4 l0 0 c-1.2 1.2 -1.5 2.8 -1.4 4 l0 0 c0.1 0.5 0.3 0.6 0.5 0.5 l0 0 c0.2 0 0.5 -0.1 0.7 -0.2 l0 0 c0.1 -0.7 0.4 -1.3 1 -1.9 l0 0 c0.5 -0.4 1.1 -0.6 1.6 -0.5 l0 0 c0.5 -0.9 0.6 -2 0 -2.5 l0 0 c-0.2 -0.2 -0.5 -0.3 -0.9 -0.3 l0 0 C137.4 39.3 137 39.4 136.6 39.7" id="path4050" class="st22" style="fill:url(&quot;#path4050_1_&quot;);" />
<linearGradient x1="-815.0021" y1="586.9294" x2="-814.0021" y2="586.9294" gradientUnits="userSpaceOnUse" gradientTransform="matrix(0, -80.1342, -80.1342, 0, 47172.55, -65215.19)" id="path4072_1_">
	<stop offset="0%" stop-color="#08142E" />
	<stop offset="80.9%" stop-color="#17326E" />
	<stop offset="100%" stop-color="#0D69A9" />
</linearGradient>
<path d="M141.3 43.9 c-1.1 2.2 -3 3.3 -4.8 3.9 l0 0 c0 0 -0.4 0.1 -0.3 0.4 l0 0 c0 0.4 1.3 1.2 2.1 1.7 l0 0 c0.1 0 0.3 -0.1 0.3 -0.1 l0 0 c0.9 -0.4 2.4 -1.3 3.3 -3.2 l0 0 c0.6 -1.2 0.9 -2.2 0.6 -4.4 l0 0 c-0.2 -1.5 -0.5 -2.9 -0.9 -3.5 l0 0 C142.5 40.3 142.2 42.3 141.3 43.9" id="path4072" class="st23" style="fill:url(&quot;#path4072_1_&quot;);" />
<linearGradient x1="-815.0019" y1="586.9297" x2="-814.0019" y2="586.9297" gradientUnits="userSpaceOnUse" gradientTransform="matrix(0, -80.1372, -80.1372, 0, 47130.42, -65217.61)" id="path4094_1_">
	<stop offset="0%" stop-color="#08142E" />
	<stop offset="80.9%" stop-color="#17326E" />
	<stop offset="100%" stop-color="#0D69A9" />
</linearGradient>
<path d="M108.5 33.8 c0.2 0.5 0.2 1.4 -0.2 2.4 l0 0 c-3.3 7.7 -9.5 13.7 -17.1 14 l0 0 c-4.6 0.1 -8 -2.2 -9.6 -5.6 l0 0 c1.2 2.6 3.6 4.9 5.7 6.2 l0 0 c1.6 1 3.7 1.6 6 1.5 l0 0 c7.9 -0.3 13.9 -6.8 15.9 -12.3 l0 0 c0.5 -1.5 0.1 -3.1 -0.1 -4.1 l0 0 C108.9 35.4 108.8 34.5 108.5 33.8 L108.5 33.8 L108.5 33.8 z" id="path4094" class="st24" style="fill:url(&quot;#path4094_1_&quot;);" />
<path d="M299.1 51.9 c0.1 0.3 0.1 0.5 0.1 0.8 C299.2 52.4 299.1 52.2 299.1 51.9 M1 56.9 c0 -6.6 2.9 -13.1 9 -19.3 C31.5 15.9 87.7 1.3 149.7 1 C231.9 0.7 298.8 25.2 299 55.6 c0 6.6 -3 13 -9.1 19.2 c-21.5 21.7 -77.6 36.4 -139.6 36.6 C68.1 111.8 1.2 87.3 1 56.9 M150 0 C66.7 0 0 25 0 56.2 c0 31.1 67.3 56.2 150 56.2 c82.7 0 150 -25.2 150 -56.2 C300 25.2 232.7 0 150 0" id="path4106" class="st25" style="fill:#4F4C4D;" />
<linearGradient x1="-814.0291" y1="592.1085" x2="-813.0291" y2="592.1085" gradientUnits="userSpaceOnUse" gradientTransform="matrix(-34.6579, -129.3445, -129.3445, 34.6579, 48490.48, -125672.1)" id="path4130_1_">
	<stop offset="0%" stop-color="#B2B1B1" />
	<stop offset="35%" stop-color="#DEDDDE" />
	<stop offset="65%" stop-color="#DEDDDE" />
	<stop offset="100%" stop-color="#B2B1B1" />
</linearGradient>
<path d="M0.5 56.2 c0 1.5 0.2 2.9 0.5 4.4 l0 0 c-0.2 -1.2 -0.4 -2.5 -0.4 -3.7 l0 0 c0 -6.7 3 -13.4 9.1 -19.6 l0 0 C31.3 15.5 87.6 0.8 149.7 0.6 l0 0 c8.6 0 17.1 0.2 25.3 0.7 l0 0 c-8.1 -0.5 -16.5 -0.8 -25 -0.8 l0 0 C67.1 0.5 0.5 25.3 0.5 56.2" id="path4130" class="st26" style="fill:url(&quot;#path4130_1_&quot;);" />
<linearGradient x1="-814.0526" y1="592.0857" x2="-813.0526" y2="592.0857" gradientUnits="userSpaceOnUse" gradientTransform="matrix(-34.497, -128.7448, -128.7448, 34.497, 48353.83, -125161.7)" id="path4154_1_">
	<stop offset="0%" stop-color="#B2B1B1" />
	<stop offset="35%" stop-color="#DEDDDE" />
	<stop offset="65%" stop-color="#DEDDDE" />
	<stop offset="100%" stop-color="#B2B1B1" />
</linearGradient>
<path d="M299.4 55.6 c0 6.7 -3.1 13.3 -9.3 19.5 l0 0 c-21.5 21.7 -77.8 36.5 -139.9 36.8 l0 0 c-8.8 0 -17.4 -0.2 -25.8 -0.7 l0 0 c8.3 0.5 16.8 0.8 25.5 0.8 l0 0 c82.5 0 149.5 -25.2 149.5 -55.8 l0 0 c0 -1.2 -0.1 -2.3 -0.3 -3.5 l0 0 C299.4 53.7 299.4 54.7 299.4 55.6" id="path4154" class="st27" style="fill:url(&quot;#path4154_1_&quot;);" />
<linearGradient x1="-804.8138" y1="604.0229" x2="-803.8138" y2="604.0229" gradientUnits="userSpaceOnUse" gradientTransform="matrix(0, 114.9095, 114.9095, 0, -69257.97, 92479.39)" id="path4180_1_">
	<stop offset="0%" stop-color="white" />
	<stop offset="55.22%" stop-color="white" />
	<stop offset="69.1%" stop-color="#FAFAFA" />
	<stop offset="80%" stop-color="#D3D2D2" />
	<stop offset="100%" stop-color="#BDBCBC" />
</linearGradient>
<path d="M8.4 56.2 c0 27.2 63.4 49.3 141.5 49.3 l0 0 c78.2 0 141.5 -22.1 141.5 -49.3 l0 0 C291.5 29 228.2 7 150 7 l0 0 C71.8 7 8.4 29 8.4 56.2 M13.4 56.2 c0 -24.9 61.1 -45 136.6 -45 l0 0 c75.4 0 136.6 20.1 136.6 45 l0 0 c0 24.9 -61.1 45 -136.6 45 l0 0 C74.6 101.2 13.4 81.1 13.4 56.2" id="path4180" class="st28" style="fill:url(&quot;#path4180_1_&quot;);" />
<linearGradient x1="-800.5593" y1="611.1607" x2="-799.5593" y2="611.1607" gradientUnits="userSpaceOnUse" gradientTransform="matrix(0, 56.9881, 56.9881, 0, -34655.38, 45657.75)" id="path4206_1_">
	<stop offset="0%" stop-color="white" />
	<stop offset="55.22%" stop-color="white" />
	<stop offset="69.1%" stop-color="#EFEEEE" />
	<stop offset="80%" stop-color="#E9E9E9" />
	<stop offset="100%" stop-color="#D3D2D2" />
</linearGradient>
<path d="M230.1 39.5 c-0.6 0 -0.8 0.1 -1.1 0.6 l0 0 c-0.9 1.7 -11.5 17.5 -13.4 20.6 l0 0 c-0.3 0.5 -0.7 0.4 -0.8 -0.1 l0 0 c-0.2 -1.8 -1.8 -3.9 -4.3 -4.9 l0 0 c-1.9 -0.8 -3.8 -0.9 -5.7 -0.7 l0 0 c-3.5 0.5 -6.6 2.3 -9.3 4.4 l0 0 c-4.1 3.1 -7.7 7.2 -12.2 10.2 l0 0 c-2.5 1.6 -5.9 3.1 -8.2 0.9 l0 0 c-2.1 -1.9 -1.8 -6.2 1.3 -9.5 l0 0 c0.3 -0.3 0.7 -0.1 0.7 0.3 l0 0 c-0.3 1.5 0.1 3 1.2 4 l0 0 c1.4 1.2 3.4 1.4 5.1 0.6 l0 0 c2 -1 3.2 -2.9 3.5 -5.1 l0 0 c0.5 -3.4 -2.1 -6.3 -5.3 -6.6 l0 0 c-2.6 -0.2 -5.2 0.7 -7.6 2.8 l0 0 c-1.2 1 -1.9 1.8 -3 3.3 l0 0 c-0.3 0.4 -0.7 0.4 -0.6 -0.1 l0 0 c0.1 -4.3 -1.7 -6.7 -5.2 -6.8 l0 0 c-2.8 -0.1 -5.7 1.4 -8 3.3 l0 0 c-2.5 2 -4.7 4.7 -7.1 7.2 l0 0 c-0.3 0.3 -0.6 0.3 -0.6 -0.3 l0 0 c-0.1 -2.9 -0.8 -5.6 -2.1 -7.6 l0 0 c-0.5 -0.7 -1.5 -1 -2.3 -0.6 l0 0 c-0.4 0.2 -1.7 0.8 -2.7 1.6 l0 0 c-0.5 0.4 -0.7 1 -0.5 1.7 l0 0 c1.3 4.3 1 9.1 -0.7 13.2 l0 0 c-1.6 3.8 -4.7 7.1 -8.3 8.3 l0 0 c-2.4 0.8 -4.9 0.4 -6.4 -1.7 l0 0 c-2.1 -2.9 -1.3 -8 1.9 -12.3 l0 0 c2.8 -3.7 6.8 -6.1 10.8 -7.6 l0 0 c0.5 -0.2 0.6 -0.5 0.4 -0.9 l0 0 c-0.2 -0.7 -0.6 -1.6 -0.7 -2 l0 0 c-0.4 -1 -1.4 -1.1 -2.7 -1 l0 0 c-2.9 0.3 -5.5 1.3 -8.2 2.7 l0 0 c-6.8 3.6 -10.2 10.7 -11.7 14.5 l0 0 c-0.7 1.8 -1.3 2.9 -2.1 3.9 l0 0 c-1.1 1.4 -2.4 2.6 -4.9 4.7 l0 0 c-0.2 0.2 -0.4 0.6 -0.2 1 l0 0 c0.3 0.5 1.5 2.3 1.9 2.5 l0 0 c0.4 0.2 0.9 -0.1 1.1 -0.2 l0 0 c1.7 -1.2 3.8 -3 4.8 -4.3 l0 0 c0.3 -0.4 0.7 -0.2 0.9 0.4 l0 0 c0.9 3.4 3.4 6.1 6.8 7.3 l0 0 c6.2 2.1 12.7 -0.9 17.6 -6.2 l0 0 c3.1 -3.4 4.2 -5.5 5.4 -7 l0 0 c2 -2.5 6 -8.1 10.7 -11.7 l0 0 c1.7 -1.3 3.8 -2.3 4.8 -1.7 l0 0 c0.8 0.5 1.1 1.8 -0.2 4.2 l0 0 c-4.8 8.8 -11.9 19.2 -13.2 21.7 l0 0 c-0.2 0.4 0 0.8 0.4 0.8 l0 0 c2.5 0 5 0 7.3 0 l0 0 c0.4 0 0.6 -0.2 0.7 -0.5 l0 0 c3.7 -5.8 7.2 -11.3 10.9 -17 l0 0 c0.2 -0.3 0.4 -0.1 0.4 0.1 l0 0 c0.1 1.3 0.4 3.1 1.2 4.3 l0 0 c1.4 2.2 3.4 3.1 5.6 3.2 l0 0 c1.8 0 2.7 -0.2 4.6 -1 l0 0 c1.6 -0.6 2.8 -1.3 3.8 -2 l0 0 c0.6 -0.4 0.7 0.3 0.6 0.4 l0 0 c-0.9 4.6 0.2 10.1 4.8 12.3 l0 0 c5.5 2.7 11.5 -1.1 15 -4.5 l0 0 c0.3 -0.3 0.7 -0.3 0.7 0.4 l0 0 c0.1 1.3 0.7 2.9 1.7 4 l0 0 c2.9 2.9 8.8 1.8 14.6 -2.8 l0 0 c3.8 -2.9 7.7 -7 11.3 -11.4 l0 0 c0.1 -0.2 0.2 -0.4 0 -0.7 l0 0 c-0.5 -0.6 -1.3 -1.2 -1.9 -1.7 l0 0 c-0.2 -0.2 -0.6 -0.1 -0.8 0 l0 0 c-3.7 3.5 -6.9 7.4 -11.7 10.7 l0 0 c-1.6 1.1 -4.2 2 -5.3 0.5 l0 0 c-0.4 -0.6 -0.4 -1.4 0 -2.5 l0 0 c1.4 -3.5 23.4 -36.9 24.5 -38.9 l0 0 c0.2 -0.3 0 -0.6 -0.4 -0.6 l0 0 C235.4 39.5 232.4 39.5 230.1 39.5 M195.3 80.6 c-1.1 -0.6 -1.6 -2.2 -1.6 -3.4 l0 0 c0.1 -3.6 1.7 -7.3 4.6 -10.9 l0 0 c3.6 -4.4 7.6 -6.7 10.2 -5.5 l0 0 c2.7 1.3 1.8 4.4 0.6 6.9 l0 0 c-0.1 0.2 -0.1 0.4 0 0.5 l0 0 c0 0.3 0.4 0.5 0.7 0.6 l0 0 c0.1 0 0.2 0.1 0.1 0.4 l0 0 c-0.9 2 -1.8 3.2 -3 4.9 l0 0 c-1.1 1.6 -2.3 2.9 -3.8 4.1 l0 0 c-1.7 1.4 -3.9 2.9 -6 2.9 l0 0 C196.5 81.1 195.8 80.9 195.3 80.6" id="path4206" class="st29" style="fill:url(&quot;#path4206_1_&quot;);" />
<linearGradient x1="-802.9152" y1="607.2083" x2="-801.9152" y2="607.2083" gradientUnits="userSpaceOnUse" gradientTransform="matrix(0, 79.0529, 79.0529, 0, -47873.43, 63486.49)" id="path4232_1_">
	<stop offset="0%" stop-color="white" />
	<stop offset="55.22%" stop-color="white" />
	<stop offset="69.1%" stop-color="#EFEEEE" />
	<stop offset="80%" stop-color="#E9E9E9" />
	<stop offset="100%" stop-color="#D3D2D2" />
</linearGradient>
<path d="M113.3 19.2 c-2.1 0 -4.2 0.1 -6.3 0.3 l0 0 c-13.5 1.1 -26.3 8.7 -26.4 20.3 l0 0 c0 5.9 4.2 10.6 10.6 10.4 l0 0 c7.6 -0.3 13.8 -6.3 17.1 -14 l0 0 c1.2 -2.9 -1.1 -4.1 -2.1 -2.4 l0 0 c-1.9 3 -4.7 5.3 -7.6 6.8 l0 0 c-3.6 1.7 -7.4 1.3 -8.5 -1.6 l0 0 c-1.6 -4.1 1.8 -10.2 9.5 -13.1 l0 0 c11.1 -4.1 22.8 -1.4 34 0.7 l0 0 c0.2 0 0.8 0.3 0.2 0.6 l0 0 c-2 1.1 -4 2 -7.1 4.6 l0 0 c-2.2 1.9 -5.1 4.4 -7.3 7.1 l0 0 c-2.2 2.7 -3.8 5.1 -5.9 7.8 l0 0 c-0.3 0.4 -0.6 0.4 -0.6 0.4 l0 0 c-5.1 0.9 -10 1.4 -14.6 4.6 l0 0 c-0.9 0.6 -1.3 1.8 -0.8 2.7 l0 0 c0.5 0.8 1.7 0.9 2.5 0.3 l0 0 c2.8 -2.1 5.7 -3.1 9.1 -3.2 l0 0 c0.1 0 0.2 0 0.3 0.1 l0 0 c0 0.1 0 0.2 0 0.2 l0 0 c-5 6.9 -6.2 8.5 -10 12.8 l0 0 c-1.9 2.2 -3.8 4.1 -5.9 6 l0 0 c-8.5 7.9 -17.7 7.8 -21 2.8 l0 0 c-2 -3 -1.7 -6.1 -0.4 -8.7 l0 0 c1.6 -3.2 4.8 -5.5 7.5 -6.9 l0 0 c1 -0.5 1.3 -1.8 0.3 -2.9 l0 0 c-0.6 -0.8 -2.2 -0.9 -3.3 -0.7 l0 0 c-3.5 0.6 -7.6 3.3 -10.1 6.5 l0 0 c-2.7 3.6 -4.1 7.9 -3.7 12.7 l0 0 c0.8 8.8 8 13.8 16.2 13.8 l0 0 c6.5 -0.1 12.7 -2 20 -9.5 l0 0 c6.9 -7 13.2 -17.4 19 -27.1 l0 0 c0.2 -0.3 0.3 -0.5 1.2 -0.6 l0 0 c3.7 -0.5 9.1 -1 12.6 -1.2 l0 0 c0.8 0 0.9 0 1.2 0.4 l0 0 c0.9 1.1 2.3 2.1 3.4 2.7 l0 0 c0.5 0.3 0.8 0.4 1.2 0.4 l0 0 c0.5 0 0.9 -0.3 1.2 -0.6 l0 0 c0.4 -0.4 0.5 -0.9 0.3 -1.3 l0 0 c-0.2 -0.4 -2.6 -1.7 -2.7 -2.2 l0 0 c-0.1 -0.3 0.3 -0.4 0.3 -0.4 l0 0 c1.8 -0.6 3.6 -1.7 4.8 -3.9 l0 0 c1.1 -2.1 1.3 -5 -0.7 -6.5 l0 0 c-1.8 -1.4 -4.5 -1.2 -6.6 0.8 l0 0 c-2.1 1.9 -2.8 4.6 -2.5 7 l0 0 c0 0.4 0 0.6 -0.5 0.6 l0 0 c-3.2 0.3 -6.3 0.3 -9.8 0.5 l0 0 c-0.2 0 -0.3 -0.1 -0.2 -0.3 l0 0 c4 -6.9 9.9 -11.8 16.5 -16.7 l0 0 c0.4 -0.3 0.3 -0.9 0.3 -1.5 l0 0 c11.9 2.6 23.3 7.4 35.6 7.3 l0 0 c5.1 0 10 -0.8 14.6 -3.4 l0 0 c4.1 -2.2 5.8 -4.3 5.9 -6.4 l0 0 c0.1 -1.5 -0.9 -2.4 -2.4 -2.1 l0 0 c-12.4 2.9 -24.3 2.8 -36.7 1.3 l0 0 C140.8 22.7 127.3 19.2 113.3 19.2 L113.3 19.2 C113.3 19.2 113.3 19.2 113.3 19.2 M134.7 44.1 c-0.2 -1.3 0.2 -3.1 1.7 -4.3 l0 0 c0.7 -0.6 1.7 -0.8 2.2 -0.3 l0 0 c0.7 0.6 0.3 2 -0.3 2.9 l0 0 c-0.7 1.1 -2 2 -3.1 2.2 l0 0 c0 0 -0.1 0 -0.1 0 l0 0 C135 44.7 134.8 44.6 134.7 44.1" id="path4232" class="st30" style="fill:url(&quot;#path4232_1_&quot;);" />
</svg>