<?xml version="1.0" encoding="UTF-8"?><svg width="384" height="100" id="Calque_2" xmlns="http://www.w3.org/2000/svg" viewBox="0 0 192 50"><defs><style>.cls-1{opacity:0;}.cls-1,.cls-2{stroke-width:0px;}.cls-2{fill:#0d1f49;}</style></defs><g id="_02_Lines"><rect class="cls-1" width="191.65" height="50"/><g id="Calque_2-2"><g id="Line_10"><polygon class="cls-2" points="182.01 19.34 172.98 26.95 163.95 19.34 154.91 26.95 145.78 19.34 136.75 26.95 127.71 19.34 118.68 26.95 109.55 19.34 100.52 26.95 91.48 19.34 82.45 26.95 73.32 19.34 64.29 26.95 55.25 19.34 46.22 26.95 37.09 19.34 28.05 26.95 19.02 19.34 9.99 26.95 1.81 20.1 0 22.29 9.99 30.66 19.02 23.05 28.05 30.66 37.09 23.05 46.22 30.66 55.25 23.05 64.29 30.66 73.32 23.05 82.45 30.66 91.48 23.05 100.52 30.66 109.55 23.05 118.68 30.66 127.71 23.05 136.75 30.66 145.78 23.05 154.91 30.66 163.95 23.05 172.98 30.66 182.01 23.05 190.19 29.9 192 27.71 182.01 19.34"/></g></g></g></svg>
