<?xml version="1.0" encoding="UTF-8"?><svg id="Calque_2" xmlns="http://www.w3.org/2000/svg" width="127.24" height="47.63" viewBox="0 0 127.24 47.63"><defs><style>.cls-1{fill:#1c1c1c;}.cls-1,.cls-2{stroke-width:0px;}.cls-2{fill:#fff;}</style></defs><g id="Layer_1"><path class="cls-1" d="M21.8,0h83.64c12.04,0,21.8,10.66,21.8,23.82h0c0,13.15-9.76,23.82-21.8,23.82H21.8C9.76,47.63,0,36.97,0,23.82h0C0,10.66,9.76,0,21.8,0Z"/><circle class="cls-2" cx="25.28" cy="23.82" r="15.62"/><path class="cls-2" d="M60.71,19.97c-.51-1.62-1.22-3.47-3.55-3.47-1.47,0-2.43,1.04-2.43,2.46s.94,2.23,3.17,3.35c2.71,1.34,4.43,2.66,4.43,5.17,0,2.99-2.48,5.17-6.11,5.17-1.62,0-3.07-.43-4.26-.79-.15-.58-.58-3.22-.76-4.41l.99-.23c.51,1.6,1.93,4.36,4.41,4.36,1.55,0,2.48-.96,2.48-2.58,0-1.47-.91-2.33-3.04-3.47-2.64-1.42-4.36-2.69-4.36-5.32s2.08-4.76,5.88-4.76c1.75,0,3.07.38,3.62.46.1.94.28,2.26.48,3.85l-.96.23h0Z"/><path class="cls-2" d="M72.36,32.26v-.94c1.6-.23,1.6-.51,1.24-1.6-.25-.76-.66-1.9-1.04-2.91h-4.94c-.28.79-.63,1.75-.89,2.54-.53,1.6.08,1.8,2.08,1.98v.94h-6.26v-.94c1.6-.2,2-.43,2.86-2.56l5.27-13.1,1.22-.23c1.62,4.41,3.35,8.92,4.99,13.15.94,2.36,1.17,2.53,2.81,2.74v.94h-7.35,0ZM70.13,20.15c-.74,1.82-1.44,3.52-2.08,5.37h4.03l-1.95-5.37h0Z"/><path class="cls-2" d="M95.25,27.8c-.2,1.09-.91,3.78-1.14,4.46h-12.57v-.94c2.23-.15,2.43-.33,2.43-2.46v-9.65c0-2.13-.25-2.33-2.15-2.48v-.94h7.91v.94c-1.98.18-2.23.36-2.23,2.48v9.83c0,1.39.05,2.03,1.44,2.05.05.03,1.22.03,1.32.03,1.44,0,1.82-.3,2.43-.99.48-.51,1.14-1.6,1.6-2.64l.96.3h0Z"/><path class="cls-2" d="M110.35,27.96c-.13.68-.84,3.6-1.07,4.31h-13.15v-.91c2.31-.23,2.46-.36,2.46-2.48v-9.68c0-2.15-.3-2.31-2.03-2.46v-.94h8.24c2.66,0,3.55-.03,3.9-.05.03.46.15,2.53.25,4.11l-.99.13c-.23-.86-.66-1.9-1.09-2.36-.46-.51-.79-.66-2.08-.66h-1.65c-.96,0-1.06.05-1.06.91v5.3h2.48c1.42,0,1.67-.38,2.05-2.18h.99v5.65h-.99c-.4-1.88-.61-2.18-2.08-2.18h-2.46v4.36c0,1.75.05,2.28,1.62,2.31h1.8c1.42,0,1.8-.18,2.36-.86.63-.73,1.14-1.67,1.55-2.53l.94.23h0Z"/><path class="cls-1" d="M19.39,31.27s-.03-.02-.04-.03c-.83-.61-1-1.77-.38-2.59l8.94-11.92c.61-.81,1.76-.98,2.57-.37l.04.03c.82.61.98,1.76.37,2.58l-8.94,11.92c-.6.81-1.75.98-2.56.38h0Z"/><path class="cls-1" d="M20.26,14.53c1.7-.02,3.06,1.48,2.78,3.25-.14.89-.75,1.69-1.58,2.07-1.95.9-3.98-.64-3.98-2.54,0-1.49,1.28-2.76,2.78-2.78h0Z"/><path class="cls-1" d="M29.46,27.53c1.13-.05,2.22.64,2.68,1.68.86,1.91-.72,3.92-2.61,3.89-1.51-.02-2.74-1.28-2.75-2.8,0-1.52,1.16-2.71,2.67-2.77h0Z"/></g></svg>