<?xml version="1.0" encoding="utf-8"?>
<!DOCTYPE svg PUBLIC "-//W3C//DTD SVG 1.1//EN" "http://www.w3.org/Graphics/SVG/1.1/DTD/svg11.dtd">
<svg version="1.1" xmlns="http://www.w3.org/2000/svg" xmlns:xlink="http://www.w3.org/1999/xlink" xmlns:xml="http://www.w3.org/XML/1998/namespace" xmlns:dc="http://purl.org/dc/elements/1.1/" xmlns:cc="http://creativecommons.org/ns#" xmlns:rdf="http://www.w3.org/1999/02/22-rdf-syntax-ns#" xmlns:sodipodi="http://sodipodi.sourceforge.net/DTD/sodipodi-0.dtd" xmlns:inkscape="http://www.inkscape.org/namespaces/inkscape" width="1000" height="406" viewBox="0, 0, 264.58002, 107.3484" id="svg32" inkscape:version="1.0 (4035a4fb49, 2020-05-01)" sodipodi:docname="Maserati 2020 Logo.svg">
  <metadata id="metadata38" />
  <defs id="defs36" />
  <sodipodi:namedview id="namedview34" inkscape:current-layer="svg32" inkscape:window-maximized="1" inkscape:window-y="-11" inkscape:window-x="-11" inkscape:cy="563.42541" inkscape:cx="1252.0446" inkscape:zoom="0.40847613" fit-margin-bottom="0" fit-margin-right="0" fit-margin-left="0" fit-margin-top="0" showgrid="false" inkscape:window-height="986" inkscape:window-width="1920" inkscape:pageshadow="2" inkscape:pageopacity="0" guidetolerance="10" gridtolerance="10" objecttolerance="10" borderopacity="1" bordercolor="#666666" pagecolor="#ffffff" />
  <g id="g80">
    <path d="m250.8485 91.41641 c-1.88903 0.0013 -3.77807 0.0022 -5.66732 0.0031 c0.13344 -0.267736 0.26658 -0.535768 0.3997 -0.803805 c0.92408 -1.860732 1.89544 -2.458385 3.99822 -2.459257 c0.96321 -0.000436 1.92641 -0.0013 2.88931 -0.0017 c-0.53982 1.08728 -1.08 2.17456 -1.62013 3.261884 z" id="path2" stroke-width="0.436116" class="st0" />
    <path d="m244.7298 104.0158 c1.73604 -3.49224 3.47209 -6.984834 5.20809 -10.47681 c-1.88903 0.000872 -3.77807 0.0013 -5.66732 0.0022 c-1.49837 3.014564 -2.99647 6.029301 -4.49505 9.043293 c-0.50624 1.01838 -1.19853 1.43417 -2.38887 1.43504 c-4.59055 0.002 -9.18111 0.004 -13.77166 0.006 c1.85663 -3.73515 3.71322 -7.470225 5.57007 -11.20512 c0.7851 -1.578085 1.08174 -1.690778 2.91587 -1.690778 c0.5489 -0.000301 1.09784 -0.000436 1.64673 -0.000436 c1.607 -0.000872 2.36405 -0.43298 2.99995 -1.71267 c0.25634 -0.516492 0.51296 -1.033289 0.76962 -1.549781 c-1.95738 0.000872 -3.91501 0.0022 -5.8723 0.0031 c0.84201 -1.695749 1.68406 -3.391237 2.52611 -5.086855 c-1.23442 0.000436 -2.46889 0.0013 -3.70332 0.0017 c-1.6131 0.000436 -2.3699 0.428893 -3 1.697493 c-0.56115 1.129932 -1.1223 2.259865 -1.68349 3.389448 c-1.02775 0.000437 -2.05546 0.000873 -3.08316 0.0013 c-0.54013 1.08728 -1.08026 2.174299 -1.62044 3.261274 c1.02802 -0.000288 2.05603 -0.000436 3.08404 -0.0013 c-0.63298 1.273546 -5.06461 10.18898 -5.69785 11.46243 c-0.50568 1.01724 -1.19592 1.43212 -2.38276 1.43299 c-4.07878 0.002 -8.15799 0.003 -12.23654 0.005 c2.16845 -3.96434 4.33717 -7.928583 6.50554 -11.89287 c-1.4981 -0.0013 -2.99411 0 -4.49243 0 c-1.04903 -0.000288 -1.49867 0.341313 -2.15415 1.125571 c-0.004 -0.856924 -0.3121 -1.125833 -1.13486 -1.126444 c-1.03852 -0.0013 -2.07591 -0.0035 -3.11587 -0.0026 c-5.11259 0.0035 -7.96958 1.581268 -10.18985 5.639849 c-0.88261 1.612844 -1.76496 3.225689 -2.64757 4.838269 c-0.553 1.0114 -1.24263 1.42392 -2.37954 1.42392 c-2.62773 0.00087 -5.25563 0.001 -7.88323 0.002 c-2.85603 0.00087 -3.9734 -0.41021 -4.28959 -1.90713 c-0.34073 -1.61254 0.38276 -2.921458 4.20521 -5.455815 c0.72116 -0.478549 1.44262 -0.95675 2.16409 -1.434995 c1.00699 -0.668042 1.41341 -1.015757 1.27882 -1.73984 c-0.12029 -0.647283 -0.51213 -1.361161 -3.63559 -1.360856 c-4.9425 0.000872 -9.885 0.0013 -14.8275 0.0022 c-1.56875 0 -2.29955 0.41605 -3.00846 1.712714 c-1.5988 2.923458 -3.1979 5.847004 -4.79684 8.770292 c-0.55064 1.00612 -1.23996 1.41663 -2.37984 1.41663 c-7.93294 0.00029 -15.86545 0.00044 -23.79753 0.00088 c0.3387 -0.99531 0.67738 -1.99065 1.01576 -2.98626 c3.96141 0 7.92292 0 11.88416 -0.0003 c2.34421 0 3.31674 -0.60642 4.16172 -2.596466 c0.37838 -0.890766 0.75679 -1.781577 1.13486 -2.672387 c0.28496 -0.670964 0.52321 -1.623353 0.0417 -2.350925 c-0.55997 -0.846109 -1.99675 -1.293127 -4.15496 -1.292866 c-3.80345 0 -7.60717 0.000306 -11.41097 0.000306 c-3.64784 0 -5.31232 1.016934 -6.59276 4.031759 c-0.78976 1.859554 -1.57987 3.71937 -2.36963 5.579229 c-0.80878 1.90452 -2.09227 2.28726 -3.90215 2.28726 c-2.72088 -0.00029 -5.44185 -0.00029 -8.16234 -0.00044 c0.17108 -0.25723 0.34218 -0.51444 0.51326 -0.77166 c1.61489 -2.42655 1.30482 -5.126547 -0.85021 -7.407433 c-2.11621 -2.239672 -4.92505 -3.031528 -7.4144 -3.720852 c-2.115905 -0.000306 -4.231808 -0.000436 -6.347231 -0.000873 c-1.455449 2.661005 -2.910942 5.321921 -4.365955 7.982228 c-1.821001 3.32844 -3.799659 3.9144 -7.290548 3.91414 c-2.560872 0 -5.121307 -0.00087 -7.682179 -0.001 c2.169589 -3.96582 4.338916 -7.931637 6.508156 -11.89724 c-1.50364 -0.0013 -3.005231 0 -4.509001 0 c-1.049033 -0.000288 -1.498669 0.341313 -2.154151 1.125571 c-0.0044 -0.856924 -0.312119 -1.125833 -1.13486 -1.126443 c-1.032984 -0.0013 -2.064791 -0.0035 -3.099257 -0.0026 c-5.112149 0.0035 -7.969144 1.581269 -10.18985 5.639849 c-0.882611 1.612844 -1.76496 3.225681 -2.647571 4.838261 c-0.557095 1.01899 -1.223916 1.41664 -2.380102 1.41603 c-3.902452 -0.001 -7.804728 -0.003 -11.70709 -0.004 c3.308288 -6.048919 6.616749 -12.09785 9.924687 -18.14721 c0.580994 -1.062204 -0.187734 -2.358819 -1.398536 -2.358819 H6.203311 c-3.154992 0 -4.715284 0.799705 -6.208981 3.340123 c6.699175 0.0031 13.39791 0.0064 20.09752 0.0096 c-3.734547 6.825649 -7.468919 13.6513 -11.20338 20.47695 h5.785512 c3.73398 -6.82478 7.468047 -13.64956 11.20207 -20.47434 c2.682636 0.0013 5.365097 0.0026 8.047645 0.0039 c-3.733107 6.823468 -7.466302 13.64694 -11.19945 20.47041 h5.785512 c3.73254 -6.8226 7.464994 -13.64563 11.19771 -20.46823 c2.682592 0.000872 5.365096 0.0022 8.048081 0.0031 c-3.081158 5.632436 -6.162753 11.26531 -9.243911 16.89819 c-0.422182 0.77196 -0.83237 1.85048 -0.386272 2.6023 c0.374013 0.63097 1.314453 0.96469 2.718833 0.96469 h15.2453 c0.748287 0 1.068614 -0.24409 1.534604 -0.80115 c0.0031 0.61083 0.51562 0.80115 1.100713 0.80115 h26.21754 c5.20068 0 7.965218 -1.51969 10.20118 -5.60714 c1.151259 -2.104788 2.302779 -4.209613 3.454299 -6.314526 c0.03943 0.0076 0.315612 0.06014 0.355015 0.06774 c4.131066 0.786273 6.226426 2.317956 6.404356 4.682136 c0.073 0.96761 -0.23034 1.84817 -0.87646 2.54744 c-0.77079 0.83355 -1.95502 1.31472 -3.24932 1.31938 c-2.640857 0.01 -3.699223 1.03447 -4.725752 3.30506 h22.19698 c0.74833 0 1.06862 -0.24408 1.53461 -0.80114 c0.003 0.61082 0.51531 0.80114 1.1004 0.80114 h32.83167 c2.21517 0 3.17545 -0.58452 4.28144 -2.60579 c1.28144 -2.34273 2.56288 -4.68563 3.84462 -7.02844 c0.87738 -1.60351 1.96523 -2.22829 3.88056 -2.22829 c1.92872 -0.000436 3.85775 -0.000872 5.78638 -0.0013 c-0.97341 0.679686 -2.06771 1.548603 -2.90012 2.397633 c-1.09779 1.126444 -2.15764 2.683207 -2.35006 4.697407 c-0.1343 1.40612 0.20993 2.6067 0.99592 3.47122 c0.77136 0.84877 1.90452 1.29722 3.27645 1.29722 h13.4956 c0.74829 0 1.06862 -0.24408 1.53456 -0.80114 c0.003 0.61082 0.51562 0.80114 1.10041 0.80114 h28.39855 c0.74803 0 1.06862 -0.24408 1.53461 -0.80114 c0.003 0.61082 0.51531 0.80114 1.1004 0.80114 h41.99883 c2.52986 0 3.8137 -0.82308 4.2919 -2.75123 c0.0488 -0.1965 0.0975 -0.39328 0.14629 -0.58976 c-6.61849 0.003 -13.23655 0.006 -19.85504 0.009 z M129.6824 96.97166 c0.57201 -1.639403 1.89606 -1.776605 3.0911 -1.776605 h6.47327 c-0.14921 0.438515 -0.29811 0.876768 -0.44732 1.31502 c-0.52465 1.54276 -1.71355 1.672112 -2.78683 1.672112 h-6.75238 c0.14073 -0.40349 0.28147 -0.806989 0.42218 -1.210483 z m-58.85818 4.820826 c-0.894561 1.635 -1.945382 2.24408 -3.880558 2.2429 c-1.06687 -0.00087 -2.13374 -0.001 -3.200567 -0.002 c1.153875 -2.10888 2.307707 -4.218071 3.461582 -6.326734 c0.876506 -1.602595 1.963786 -2.227418 3.876764 -2.227418 H74.2785 c-1.15152 2.104782 -2.30304 4.209302 -3.454298 6.313652 z m128.3707 0 c-0.89461 1.635 -1.94569 2.24408 -3.88056 2.2429 c-1.06687 -0.00087 -2.1337 -0.001 -3.20057 -0.002 c1.15388 -2.10888 2.30771 -4.218071 3.46158 -6.326734 c0.87682 -1.602595 1.9641 -2.227418 3.87677 -2.227418 h3.19708 c-1.15152 2.104782 -2.30304 4.209302 -3.45426 6.313652 z" id="path4" stroke-width="0.436116" class="st0" />
    <path d="m127.0745 70.82302 v-2.907497 h7.44624 h0.00029 h7.44624 v2.907497 h-7.44624 h-0.00029 z" id="path6" stroke-width="0.436116" class="st0" />
    <path d="m134.5233 76.84578 h4.69435 v-4.51816 h-4.69435 h-0.00029 h-4.69436 v4.51816 h4.69436" id="path8" stroke-width="0.436116" class="st0" />
    <path d="m129.8264 66.41389 c-0.0137 -2.494626 -0.66311 -4.929417 -2.65786 -6.587093 h7.35204 h0.00029 h7.35247 c-1.99475 1.657676 -2.6443 4.092554 -2.65786 6.587093 h-4.69435 h-0.00029 h-4.69435 z" id="path10" stroke-width="0.436116" class="st0" />
    <path d="m117.3927 55.02691 v-2.146519 h17.13019 h0.00029 h17.1302 v2.146519 h-17.1302 h-0.00029 z" id="path12" stroke-width="0.436116" class="st0" />
    <path d="m118.9235 62.76796 c2.00011 -0.428527 4.15853 -1.550566 5.58969 -2.940293 h-5.95734 c0.12259 0.980083 0.24517 1.960166 0.36776 2.940293 z" id="path14" stroke-width="0.436116" class="st0" />
    <path d="m150.1188 62.76796 c-2.00012 -0.428527 -4.15854 -1.550566 -5.5897 -2.940293 h5.95734 c-0.12259 0.980083 -0.24516 1.960166 -0.36776 2.940293 z" id="path16" stroke-width="0.436116" class="st0" />
    <path d="M116.8127 48.17553 C114.935 37.05458 111.3106 25.47527 107.3206 17.85851 c4.28248 2.324803 8.88585 6.012729 13.81004 11.06426 c-2.04273 -0.550989 -4.0854 -0.983528 -6.1283 -1.297793 c2.84792 6.734064 5.20068 13.60769 7.33939 20.55065 c-1.84311 -4E-06 -3.68635 -4E-06 -5.52951 -4E-06 z" id="path18" stroke-width="0.436116" class="st0" />
    <path d="m152.2296 48.17553 c1.87765 -11.12095 5.50204 -22.70026 9.49206 -30.31703 c-4.28248 2.324803 -8.88586 6.012729 -13.81004 11.06426 c2.04272 -0.550989 4.0854 -0.983528 6.1283 -1.297793 c-2.84793 6.734064 -5.20069 13.60769 -7.3394 20.55065 c1.84312 -4E-06 3.68636 -4E-06 5.52951 -4E-06 z" id="path20" stroke-width="0.436116" class="st0" />
    <path d="m115.5741 51.76476 v-2.174212 h18.94617 h0.0003 h18.94618 v2.174212 h-18.94618 h-0.0003 z" id="path22" stroke-width="0.436116" class="st0" />
    <path d="M128.1386 16.68143 C131.0638 11.64778 133.5743 5.926377 134.5233 0 c0.94912 5.926377 3.45983 11.64778 6.38473 16.68143 c-1.04144 -0.47022 -2.14516 -0.965953 -3.36777 -1.508699 c-1.05889 -0.470089 -1.509 -0.192741 -1.47311 0.898617 c0.35212 10.69051 1.92383 22.84549 7.50337 32.10248 h-6.57314 c-1.02967 -2.462615 -1.85445 -4.893219 -2.47452 -7.29142 c-0.61994 2.398375 -1.44481 4.82911 -2.47452 7.29142 h-6.5727 c5.57966 -9.256994 7.15143 -21.41198 7.50337 -32.10248 c0.036 -1.091337 -0.41423 -1.368706 -1.47311 -0.898617 c-1.22243 0.54279 -2.32615 1.038479 -3.36777 1.508699 z" id="path24" stroke-width="0.436116" class="st0" />
    <path d="m115.5741 58.31958 v-2.174212 h18.94617 h0.0003 h18.94618 v2.174212 h-18.94618 h-0.0003 z" id="path26" stroke-width="0.436116" class="st0" />
  </g>
</svg>