<?xml version="1.0" encoding="utf-8"?>
<!DOCTYPE svg PUBLIC "-//W3C//DTD SVG 1.1//EN" "http://www.w3.org/Graphics/SVG/1.1/DTD/svg11.dtd">
<svg version="1.1" xmlns="http://www.w3.org/2000/svg" xmlns:xlink="http://www.w3.org/1999/xlink" xmlns:xml="http://www.w3.org/XML/1998/namespace" xmlns:dc="http://purl.org/dc/elements/1.1/" xmlns:cc="http://creativecommons.org/ns#" xmlns:rdf="http://www.w3.org/1999/02/22-rdf-syntax-ns#" xmlns:sodipodi="http://sodipodi.sourceforge.net/DTD/sodipodi-0.dtd" xmlns:inkscape="http://www.inkscape.org/namespaces/inkscape" width="984" height="984" viewBox="2.4, 2.4, 295.2, 295.2" id="svg2" xml:space="preserve" inkscape:version="0.48.1 " sodipodi:docname="Logo_Fiat.svg">
  <sodipodi:namedview id="namedview80" pagecolor="#ffffff" bordercolor="#666666" borderopacity="1" objecttolerance="10" gridtolerance="10" guidetolerance="10" inkscape:pageopacity="0" inkscape:pageshadow="2" inkscape:window-width="1280" inkscape:window-height="738" showgrid="false" inkscape:zoom="1.73" inkscape:cx="150" inkscape:cy="150" inkscape:window-x="-8" inkscape:window-y="-8" inkscape:window-maximized="1" inkscape:current-layer="svg2" />
  <metadata id="metadata8" />
  <defs id="defs6">
    <linearGradient id="linearGradient4029">
      <stop offset="0%" stop-color="#E60A47" stop-opacity="1" id="stop4031" />
      <stop offset="100%" stop-color="#7C0626" stop-opacity="1" id="stop4037" />
    </linearGradient>
    <linearGradient id="linearGradient3829">
      <stop offset="0%" stop-color="#8C8C8C" stop-opacity="1" id="stop3831" />
      <stop offset="50%" stop-color="#464646" stop-opacity="1" id="stop3837" />
      <stop offset="75%" stop-color="white" stop-opacity="1" id="stop3839" />
      <stop offset="100%" stop-color="white" stop-opacity="1" id="stop3833" />
    </linearGradient>
    <radialGradient cx="0" cy="0" r="1" fx="0" fy="0" spreadMethod="pad" gradientUnits="userSpaceOnUse" gradientTransform="matrix(-51, -42, -42, 51, 201.892, 161.326)" id="radialGradient3954">
      <stop offset="0%" stop-color="#505050" stop-opacity="1" id="stop3956" />
      <stop offset="50%" stop-color="#505050" stop-opacity="1" id="stop3958" />
      <stop offset="69.952%" stop-color="white" stop-opacity="1" id="stop3960" />
      <stop offset="100%" stop-color="white" stop-opacity="1" id="stop3962" />
    </radialGradient>
    <linearGradient id="linearGradient3920">
      <stop offset="0%" stop-color="black" stop-opacity="1" id="stop3922" />
      <stop offset="100%" stop-color="black" stop-opacity="0" id="stop3924" />
    </linearGradient>
    <linearGradient id="linearGradient3904">
      <stop offset="0%" stop-color="#D3D1D2" stop-opacity="1" id="stop3906" />
      <stop offset="50%" stop-color="#C9C7C8" stop-opacity="1" id="stop3914" />
      <stop offset="100%" stop-color="#8D8B8C" stop-opacity="1" id="stop3908" />
    </linearGradient>
    <clipPath id="clipPath18">
      <path d="M1660.88 0 L0 0 l0 1261.58 l1660.88 0 l0 -1261.58" id="path20" />
    </clipPath>
    <radialGradient cx="0" cy="0" r="1" fx="0" fy="0" spreadMethod="pad" gradientUnits="userSpaceOnUse" gradientTransform="matrix(-337.502, -218.055, -218.055, 337.502, 362.891, 276.112)" id="radialGradient22">
      <stop offset="0%" stop-color="#ED1C24" stop-opacity="1" id="stop24" />
      <stop offset="100%" stop-color="#681318" stop-opacity="1" id="stop26" />
    </radialGradient>
    <clipPath id="clipPath40">
      <path d="m1094.29 667.164 c0.1 -1.012 0.22 -1.965 0.33 -2.984 c3.27 -32.551 4.77 -23.84 -0.33 2.984 z M607.449 803.75 c0 0 25.906 23.891 44.403 41.492 c0 0 -24.668 -13.828 -44.403 -41.492 z m-6.894 -317.059 c14.668 -29.589 29.101 -48.843 29.101 -48.843 c0 0 -13.754 20.746 -29.101 48.843 z m480.495 284.368 l-4.82 14.046 l43.05 -15.304 l-41.65 21.347 l42.3 25.102 l-46.49 -19.059 l7.44 46.485 l-15.09 -44.903 l-10.94 3.09 c-22.94 34.106 -54.46 51.176 -94.12 70.2 c-73.718 35.371 -171.976 25.992 -171.976 25.992 c0 0 116 -1.477 204.73 -54.071 c18.326 -10.863 33.606 -25.925 46.286 -42.949 l-19.15 -1.055 l21.95 -2.8 c2.07 -2.918 4.07 -5.883 5.99 -8.891 l-25.48 -14.719 l27.49 11.539 c2.83 -4.586 5.52 -9.254 8.05 -13.976 l-10.87 -34.028 l12.85 30.286 c19.04 -36.828 29.07 -75.95 33.69 -100.227 c-5.33 50.816 -14.63 87.039 -27.77 114.211 l0.96 2.254 c0 0 48.1 -62.867 39.47 -165.977 c-8.63 -103.109 -33.3 -139.574 -57.97 -164.722 l-1.23 12.578 c0 0 -35.76 -106.887 -213.363 -104.367 c-177.602 2.519 -191.168 60.351 -191.168 60.351 l-9.867 5.039 c0 0 -41.93 32.684 -67.832 119.449 c-25.903 86.762 -1.235 157.176 -1.235 157.176 c0 0 -13.566 -57.84 -3.699 -116.937 c5.113 -30.625 23.461 -69.324 39.969 -99.528 c-12.117 24.43 -24.403 55.907 -28.867 89.469 c-9.872 74.188 -7.403 124.485 4.929 162.203 c12.332 37.719 19.735 54.071 19.735 54.071 c0 0 -51.797 -60.36 -53.032 -188.614 c-1.234 -128.257 107.297 -216.273 155.395 -235.136 c48.101 -18.86 199.801 -44.004 291.066 20.117 c91.269 64.129 85.099 80.472 114.699 139.578 c29.61 59.098 17.27 178.551 -23.43 242.68 z m-21.6 23.519 c-0.1 0.164 -0.19 0.328 -0.29 0.485 l0.92 -0.118 l-0.63 -0.367 z m4.24 -7.57 c-0.52 0.984 -1.04 1.988 -1.57 2.949 l2.9 1.219 l-1.33 -4.168 z m-434.034 5.426 c7.395 12.574 45.629 35.207 45.629 35.207 c0 0 -20.969 -12.578 -44.398 -40.239 c-23.438 -27.66 8.633 2.516 51.801 31.438 c43.164 28.918 103.597 26.402 103.597 26.402 c0 0 -19.73 15.09 -94.965 -8.804 l72.766 31.437 c0 0 -110.996 -23.891 -143.066 -69.156 c-32.071 -45.266 1.23 -18.86 8.636 -6.285 z m371.254 3.976 c13.61 -14.133 23.41 -26.609 23.41 -26.609 c0 0 -4.01 12.711 -23.41 26.609 z M579.086 611.363 c13.566 -133.285 70.301 -189.871 70.301 -189.871 c0 0 43.164 -42.75 177.597 -49.035 c134.43 -6.285 177.606 46.523 181.306 55.324 c3.7 8.801 -17.274 -5.027 -23.438 -2.511 c-6.168 2.511 19.738 49.039 19.738 49.039 c-13.57 -50.297 7.4 7.543 20.96 1.254 c13.57 -6.282 -27.132 -22.633 -13.56 -35.208 c13.56 -12.574 41.92 76.704 60.43 116.942 c18.5 40.234 12.33 81.73 11.1 108.137 c-1.23 26.406 -7.4 37.722 -7.4 37.722 l-3.7 -62.875 c0 0 2.47 -8.797 -17.27 35.215 l-16.03 42.75 c-11.1 -196.16 -55.507 -270.351 -55.507 -270.351 c0 0 -16.031 -49.032 -145.531 -50.293 c-129.496 -1.25 -148 32.699 -148 32.699 c-41.93 55.324 -66.598 173.519 -60.426 251.476 c6.164 77.961 0 99.34 55.496 123.231 c55.5 23.887 139.364 26.406 139.364 26.406 c100.734 2.832 151.375 -17.074 176.394 -35.004 c-3.121 3.238 -6.441 6.574 -9.894 9.852 c-18.5 17.601 -189.934 54.07 -279.965 18.863 c-90.031 -35.207 -96.199 -69.156 -90.031 -172.266 c6.168 -103.109 38.234 -188.609 60.433 -221.304 c22.199 -32.692 101.133 -42.754 101.133 -42.754 c-107.301 2.519 -119.633 59.094 -125.801 69.164 c-6.168 10.058 -24.668 30.18 -28.367 13.828 c-3.699 -16.344 -36.859 83.609 -30.691 88.641 c6.164 5.031 44.257 -50.922 44.257 -50.922 c0 0 -13.566 27.668 -27.132 105.625 c-13.567 77.957 7.398 116.937 -6.168 119.453 c-13.567 2.515 16.871 -115.035 -21.985 -120.262 c-11.07 -1.492 -1.883 103.965 3.055 125.34 c4.93 21.379 10.301 27.617 10.301 27.617 c0 0 -34.535 -22.637 -20.969 -155.922" id="path42" />
    </clipPath>
    <radialGradient cx="0" cy="0" r="1" fx="0" fy="0" spreadMethod="pad" gradientUnits="userSpaceOnUse" gradientTransform="matrix(67.763, 0, 0, -67.763, 199.694, 149.613)" id="radialGradient44">
      <stop offset="0%" stop-color="#231F20" stop-opacity="1" id="stop46" />
      <stop offset="78.7%" stop-color="#5A5758" stop-opacity="1" id="stop48" />
      <stop offset="100%" stop-color="white" stop-opacity="1" id="stop50" />
    </radialGradient>
    <clipPath id="clipPath60">
      <path d="m945.227 428.563 c2.253 0.941 4.445 1.937 6.57 2.996 l2.922 384.324 c-2.703 0.742 -5.489 1.437 -8.34 2.086 l-1.152 -389.406 z m-49.946 396.085 c-0.422 -58.207 -2.008 -261.89 -4.715 -408.027 c6.297 0.59 12.282 1.324 17.993 2.215 c-2.614 149.793 -3.793 354.957 -4.055 405.168 c-3.02 0.242 -6.098 0.453 -9.223 0.644 z m13.465 -1.023 l4.434 -404.02 c2.105 0.368 4.179 0.762 6.199 1.184 c-1.52 148.469 -2.149 350.082 -2.293 402.012 c-2.719 0.308 -5.523 0.566 -8.34 0.824 z m25.77 -398.934 c2.23 0.696 4.414 1.438 6.539 2.231 l1.16 391.965 c-2.719 0.558 -5.52 1.062 -8.363 1.543 c0.105 -60.285 0.488 -287.075 0.664 -395.739 z m-98.067 401.231 c-1.328 -0.012 -2.597 -0.035 -3.914 -0.047 l4.512 -411.605 c2.101 0.023 4.168 0.054 6.215 0.085 c-1.59 147.356 -2.254 354.817 -2.414 411.579 c-1.477 -0.012 -2.903 0 -4.399 -0.012 z m8.625 0.016 l2.602 -411.5 c2.144 0.039 4.265 0.093 6.355 0.148 c-0.504 147.324 -0.597 354.594 -0.609 411.34 c-2.742 0.019 -5.551 0.015 -8.348 0.012 z M956.266 433.934 c2.175 1.23 4.293 2.535 6.336 3.925 l4.582 374.059 c-2.668 0.984 -5.403 1.926 -8.243 2.785 c-0.285 -60.379 -1.218 -240.765 -2.675 -380.769 z m28.886 369.644 l3.711 -338.426 c2.18 3.379 4.246 6.981 6.215 10.813 c-1.004 122.539 -1.504 260.89 -1.691 322.082 c-2.61 1.957 -5.328 3.824 -8.235 5.531 z M1010.6 518.25 c2.58 9.715 4.92 20.324 7.08 31.926 l0.64 216.652 c-2.39 5.129 -5.11 9.828 -8.16 14.098 c0.1 -61.852 0.29 -171.059 0.44 -262.676 z M882.719 825.285 c-0.27 -57.457 -1.301 -262.805 -2.953 -409.531 c2.113 0.144 4.211 0.297 6.265 0.465 l4.996 408.679 c-2.726 0.145 -5.5 0.274 -8.308 0.387 z m139.741 -68.664 l-0.54 -180.828 c2.03 13.73 3.9 28.59 5.65 44.734 c0.86 7.805 1.53 15.207 2.12 22.426 l0.58 75.906 c-1.47 14.469 -4.06 26.965 -7.81 37.762 z m-17.88 31.336 c-2.14 2.359 -4.46 4.539 -6.889 6.633 l1.954 -308.91 c2.355 5.492 4.555 11.402 6.605 17.758 c-0.22 107.746 -0.3 222.187 -0.33 282.882 c-0.46 0.532 -0.87 1.114 -1.34 1.637 z M716.445 429.746 c2.09 -1.066 4.243 -2.07 6.457 -3 l2.973 390.688 c-2.82 -0.594 -5.605 -1.2 -8.285 -1.871 l-1.145 -385.817 z m141.852 -15.035 c2.183 0.07 4.336 0.148 6.461 0.234 l1.215 410.844 c-2.727 0.051 -5.567 0.066 -8.368 0.094 c0.106 -63.117 0.524 -310.133 0.692 -411.172 z m10.629 0.422 c2.183 0.105 4.344 0.215 6.465 0.34 l3.117 409.98 c-2.742 0.094 -5.555 0.16 -8.371 0.227 l-1.211 -410.547 z m52.379 407.14 l2.535 -400.5 c2.18 0.512 4.305 1.071 6.394 1.653 c-0.468 146.625 -0.554 343.562 -0.57 397.73 c-2.715 0.414 -5.539 0.762 -8.359 1.117 z M652.195 555.258 c1.938 -11.199 3.996 -21.531 6.223 -31.047 l3.195 260.93 c-2.937 -3.411 -5.597 -7.09 -7.968 -11.102 c-0.313 -57.91 -0.801 -138.891 -1.45 -218.781 z m-11.379 88.222 c0.848 -9.32 1.879 -19.152 3.106 -29.605 c1.258 -10.672 2.547 -20.762 3.887 -30.34 l1.382 181.84 c-3.574 -8.027 -6.257 -17.238 -8.093 -27.934 l-0.282 -93.961 z m25.336 146.356 c-0.566 -69.316 -1.609 -181.477 -3.105 -283.414 c4.637 -15.977 9.961 -29.262 16.262 -40.274 c-1.813 116.977 -2.84 256.911 -3.297 331.793 c-3.571 -2.476 -6.848 -5.183 -9.86 -8.105 z m305.305 20.402 c-0.465 -63.258 -1.848 -233.394 -4.117 -368.953 c6.172 4.789 11.723 10.43 16.742 17.031 c-1.949 132.102 -2.937 288.493 -3.262 347.559 c-2.984 1.563 -6.097 3.023 -9.363 4.363 z m-291.019 -9.394 l3.757 -342.477 c2.016 -2.933 4.114 -5.691 6.321 -8.258 c-1.203 123.786 -1.817 279.094 -2.063 355.129 c-2.801 -1.371 -5.465 -2.84 -8.015 -4.394 z m12.328 6.351 l2.293 -361.976 c2.066 -2.059 4.207 -3.996 6.437 -5.801 c-0.406 128.258 -0.527 295.016 -0.558 371.055 c-2.829 -1.024 -5.547 -2.118 -8.172 -3.278 z m126.238 18.496 c-0.473 -64.55 -2.098 -268.281 -4.828 -411.496 c5.883 -0.043 11.984 -0.027 18.312 0.028 c-2.679 147.273 -3.91 354.668 -4.207 411.597 c-3.113 -0.035 -6.238 -0.07 -9.277 -0.129 z m-62.613 -3.554 l4.441 -404.93 c2.039 -0.273 4.106 -0.527 6.223 -0.758 c-1.551 141.145 -2.235 339.547 -2.43 406.543 c-2.812 -0.254 -5.516 -0.558 -8.234 -0.855 z M705.789 436.172 c2.094 -1.481 4.258 -2.871 6.5 -4.164 l1.129 382.406 c-2.828 -0.773 -5.594 -1.59 -8.262 -2.469 c0.141 -83.961 0.473 -280.222 0.633 -375.773 z m100.66 389.211 c-0.308 -64.86 -1.355 -268.067 -3.004 -411.043 c2.051 -0.043 4.137 -0.078 6.246 -0.102 l5.036 411.348 c-2.774 -0.063 -5.567 -0.117 -8.278 -0.203 z m-76.304 -7.098 c-0.368 -74.461 -1.364 -258.851 -2.883 -393.246 c2.027 -0.75 4.093 -1.461 6.226 -2.113 l4.86 396.828 c-2.805 -0.449 -5.516 -0.949 -8.203 -1.469 z m12.539 2.106 c-0.559 -73.664 -2.141 -262.809 -4.715 -398.746 c5.722 -1.54 11.82 -2.786 18.308 -3.786 c-2.574 140.133 -3.816 335.786 -4.191 403.813 c-3.219 -0.387 -6.324 -0.832 -9.402 -1.281 z m49.98 -405.735 c2.109 -0.082 4.258 -0.152 6.43 -0.207 l3.125 410.785 c-2.817 -0.101 -5.598 -0.207 -8.344 -0.328 l-1.211 -410.25 z m-10.601 0.535 c2.105 -0.132 4.257 -0.246 6.437 -0.347 l1.211 409.875 c-2.836 -0.137 -5.582 -0.313 -8.34 -0.481 c0.125 -73.836 0.531 -314.586 0.692 -409.047 z m-13.188 408.145 l2.578 -407.328 c2.082 -0.192 4.199 -0.367 6.352 -0.524 c-0.5 141.883 -0.61 342.332 -0.629 408.512 c-2.836 -0.191 -5.555 -0.433 -8.301 -0.66" id="path62" />
    </clipPath>
    <radialGradient cx="0" cy="0" r="1" fx="0" fy="0" spreadMethod="pad" gradientUnits="userSpaceOnUse" gradientTransform="matrix(-21.51, -25.362, -25.362, 21.51, 209.613, 164.228)" id="radialGradient64">
      <stop offset="0%" stop-color="#ED1C24" stop-opacity="1" id="stop66" />
      <stop offset="100%" stop-color="#961A1F" stop-opacity="1" id="stop68" />
    </radialGradient>
    <clipPath id="clipPath76">
      <path d="m757.344 501.234 l38.242 0 l0 236.043 l-38.242 0 l0 -236.043 z m-83.078 0 l38.242 0 l0 106.813 l27.691 0 l0 30.328 l-27.691 0 l0 68.574 l31.648 0 l0 30.328 l-69.89 0 l0 -236.043 z m232.086 236.043 l0 -30.328 l23.746 0 l0 -205.715 l38.242 0 l0 205.715 l26.359 0 l0 30.328 l-88.347 0 z m-22.418 0 l-72.524 0 l0 -236.043 l38.242 0 l0 106.813 l29.973 0 c0 0 1.582 -7.551 1.66 -18.469 c0.09 -10.922 0 -88.344 0 -88.344 l33.856 0 l0 88.344 c0 0 0 40.567 -7.805 78.867 c-7.805 38.301 -23.402 68.832 -23.402 68.832 z m-7.032 -98.902 l-27.25 0 l0 68.574 l7.578 0 c0 0 10.848 -14.148 15.391 -36.847 c4.539 -22.7 4.281 -31.727 4.281 -31.727" id="path78" />
    </clipPath>
    <radialGradient cx="0" cy="0" r="1" fx="0" fy="0" spreadMethod="pad" gradientUnits="userSpaceOnUse" gradientTransform="matrix(-51, -42, -42, 51, 201.892, 161.326)" id="radialGradient80">
      <stop offset="0%" stop-color="#505050" stop-opacity="1" id="stop82" />
      <stop offset="50%" stop-color="#505050" stop-opacity="1" id="stop3930" />
      <stop offset="75%" stop-color="white" stop-opacity="1" id="stop3950" />
      <stop offset="100%" stop-color="white" stop-opacity="1" id="stop3928" />
    </radialGradient>
    <radialGradient cx="834.4825" cy="619.2555" r="160.2165" fx="834.4825" fy="619.2555" gradientUnits="userSpaceOnUse" xlink:href="#linearGradient3904" gradientTransform="matrix(1, 0, 0, 0.7366376, 0, 163.0886)" id="radialGradient3912" />
    <linearGradient x1="555.9094" y1="356.2735" x2="1120.81" y2="623.3889" gradientUnits="userSpaceOnUse" xlink:href="#radialGradient80" id="linearGradient3926" />
    <linearGradient x1="555.9094" y1="356.2735" x2="1113.25" y2="893.0242" gradientUnits="userSpaceOnUse" xlink:href="#radialGradient3954" id="linearGradient3952" />
    <radialGradient cx="0" cy="0" r="1" fx="0" fy="0" spreadMethod="pad" gradientUnits="userSpaceOnUse" gradientTransform="matrix(-21.51, -25.362, -25.362, 21.51, 209.613, 164.228)" id="radialGradient64-315">
      <stop offset="0%" stop-color="#FF1F28" stop-opacity="1" id="stop4255" />
      <stop offset="100%" stop-color="#A71D22" stop-opacity="1" id="stop4257" />
    </radialGradient>
    <linearGradient x1="555.9094" y1="356.2735" x2="1113.25" y2="893.0242" gradientUnits="userSpaceOnUse" xlink:href="#radialGradient3954" id="linearGradient4360" />
    <linearGradient x1="555.9094" y1="356.2735" x2="1120.81" y2="623.3889" gradientUnits="userSpaceOnUse" xlink:href="#radialGradient80" id="linearGradient4362" />
    <linearGradient x1="555.9094" y1="356.2735" x2="1120.81" y2="623.3889" gradientUnits="userSpaceOnUse" xlink:href="#radialGradient80" id="linearGradient4364" />
    <radialGradient cx="0" cy="0" r="1" fx="0" fy="0" spreadMethod="pad" gradientUnits="userSpaceOnUse" xlink:href="#radialGradient64-315" gradientTransform="matrix(-21.51, -25.362, -25.362, 21.51, 209.613, 164.228)" id="radialGradient4366" />
    <radialGradient cx="834.4825" cy="619.2555" r="160.2165" fx="834.4825" fy="619.2555" gradientUnits="userSpaceOnUse" xlink:href="#linearGradient3904" gradientTransform="matrix(1, 0, 0, 0.7366376, 0, 163.0886)" id="radialGradient4368" />
    <radialGradient cx="834.4825" cy="619.2555" r="160.2165" fx="834.4825" fy="619.2555" gradientUnits="userSpaceOnUse" xlink:href="#linearGradient3904" gradientTransform="matrix(1, 0, 0, 0.7366376, 0, 163.0886)" id="radialGradient4370" />
    <radialGradient cx="834.4825" cy="619.2555" r="160.2165" fx="834.4825" fy="619.2555" gradientUnits="userSpaceOnUse" xlink:href="#linearGradient3904" gradientTransform="matrix(1, 0, 0, 0.7366376, 0, 163.0886)" id="radialGradient4372" />
    <linearGradient x1="555.9094" y1="356.2735" x2="1113.25" y2="893.0242" gradientUnits="userSpaceOnUse" xlink:href="#radialGradient3954" id="linearGradient4414" />
    <linearGradient x1="555.9094" y1="356.2735" x2="1120.81" y2="623.3889" gradientUnits="userSpaceOnUse" xlink:href="#radialGradient80" id="linearGradient4416" />
    <linearGradient x1="555.9094" y1="356.2735" x2="1120.81" y2="623.3889" gradientUnits="userSpaceOnUse" xlink:href="#radialGradient80" id="linearGradient4418" />
    <radialGradient cx="0" cy="0" r="1" fx="0" fy="0" spreadMethod="pad" gradientUnits="userSpaceOnUse" xlink:href="#radialGradient64-315" gradientTransform="matrix(-21.51, -25.362, -25.362, 21.51, 209.613, 164.228)" id="radialGradient4420" />
    <radialGradient cx="834.4825" cy="619.2555" r="160.2165" fx="834.4825" fy="619.2555" gradientUnits="userSpaceOnUse" xlink:href="#linearGradient3904" gradientTransform="matrix(1, 0, 0, 0.7366376, 0, 163.0886)" id="radialGradient4422" />
    <radialGradient cx="834.4825" cy="619.2555" r="160.2165" fx="834.4825" fy="619.2555" gradientUnits="userSpaceOnUse" xlink:href="#linearGradient3904" gradientTransform="matrix(1, 0, 0, 0.7366376, 0, 163.0886)" id="radialGradient4424" />
    <radialGradient cx="834.4825" cy="619.2555" r="160.2165" fx="834.4825" fy="619.2555" gradientUnits="userSpaceOnUse" xlink:href="#linearGradient3904" gradientTransform="matrix(1, 0, 0, 0.7366376, 0, 163.0886)" id="radialGradient4426" />
    <linearGradient x1="555.9094" y1="356.2735" x2="1113.25" y2="893.0242" gradientUnits="userSpaceOnUse" xlink:href="#radialGradient3954" id="linearGradient3076" inkscape:collect="always" />
    <linearGradient x1="555.9094" y1="356.2735" x2="1120.81" y2="623.3889" gradientUnits="userSpaceOnUse" xlink:href="#radialGradient80" id="linearGradient3078" inkscape:collect="always" />
    <linearGradient x1="555.9094" y1="356.2735" x2="1120.81" y2="623.3889" gradientUnits="userSpaceOnUse" xlink:href="#radialGradient80" id="linearGradient3080" inkscape:collect="always" />
    <radialGradient cx="834.4825" cy="619.2555" r="160.2165" fx="834.4825" fy="619.2555" gradientUnits="userSpaceOnUse" xlink:href="#linearGradient3904" gradientTransform="matrix(1, 0, 0, 0.7366376, 0, 163.0886)" id="radialGradient3086" inkscape:collect="always" />
    <radialGradient cx="834.4825" cy="619.2555" r="160.2165" fx="834.4825" fy="619.2555" gradientUnits="userSpaceOnUse" xlink:href="#linearGradient3904" gradientTransform="matrix(1, 0, 0, 0.7366376, 0, 163.0886)" id="radialGradient3088" inkscape:collect="always" />
    <linearGradient x1="547.9819" y1="353.5577" x2="1114.97" y2="895.5562" gradientUnits="userSpaceOnUse" xlink:href="#linearGradient3829" id="linearGradient3843" inkscape:collect="always" />
    <linearGradient x1="547.9819" y1="353.5577" x2="1114.97" y2="895.5562" gradientUnits="userSpaceOnUse" xlink:href="#linearGradient3829" id="linearGradient3068" inkscape:collect="always" />
    <linearGradient x1="547.9819" y1="353.5577" x2="1114.97" y2="895.5562" gradientUnits="userSpaceOnUse" xlink:href="#linearGradient3829" id="linearGradient3070" inkscape:collect="always" />
    <radialGradient cx="834.4825" cy="619.2555" r="160.2165" fx="834.4825" fy="619.2555" gradientUnits="userSpaceOnUse" xlink:href="#linearGradient3904" gradientTransform="matrix(1, 0, 0, 0.7366376, 0, 163.0886)" id="radialGradient3107" inkscape:collect="always" />
    <radialGradient cx="834.4825" cy="619.2555" r="160.2165" fx="834.4825" fy="619.2555" gradientUnits="userSpaceOnUse" xlink:href="#linearGradient3904" gradientTransform="matrix(1, 0, 0, 0.7366376, 0, 163.0886)" id="radialGradient3109" inkscape:collect="always" />
    <radialGradient cx="834.4825" cy="619.2555" r="160.2165" fx="834.4825" fy="619.2555" gradientUnits="userSpaceOnUse" xlink:href="#linearGradient3904" gradientTransform="matrix(1, 0, 0, 0.7366376, 0, 163.0886)" id="radialGradient3111" inkscape:collect="always" />
    <linearGradient x1="547.9819" y1="353.5577" x2="1114.97" y2="895.5562" gradientUnits="userSpaceOnUse" xlink:href="#linearGradient3829" id="linearGradient3134" inkscape:collect="always" />
    <linearGradient x1="547.9819" y1="353.5577" x2="1114.97" y2="895.5562" gradientUnits="userSpaceOnUse" xlink:href="#linearGradient3829" id="linearGradient3136" inkscape:collect="always" />
    <linearGradient x1="547.9819" y1="353.5577" x2="1114.97" y2="895.5562" gradientUnits="userSpaceOnUse" xlink:href="#linearGradient3829" id="linearGradient3138" inkscape:collect="always" />
    <radialGradient cx="834.4825" cy="619.2555" r="160.2165" fx="834.4825" fy="619.2555" gradientUnits="userSpaceOnUse" xlink:href="#linearGradient3904" gradientTransform="matrix(1, 0, 0, 0.7366376, 0, 163.0886)" id="radialGradient3140" inkscape:collect="always" />
    <radialGradient cx="834.4825" cy="619.2555" r="160.2165" fx="834.4825" fy="619.2555" gradientUnits="userSpaceOnUse" xlink:href="#linearGradient3904" gradientTransform="matrix(1, 0, 0, 0.7366376, 0, 163.0886)" id="radialGradient3142" inkscape:collect="always" />
    <radialGradient cx="834.4825" cy="619.2555" r="160.2165" fx="834.4825" fy="619.2555" gradientUnits="userSpaceOnUse" xlink:href="#linearGradient3904" gradientTransform="matrix(1, 0, 0, 0.7366376, 0, 163.0886)" id="radialGradient3144" inkscape:collect="always" />
    <radialGradient cx="55" cy="33.8455" r="55" fx="55" fy="33.8455" gradientUnits="userSpaceOnUse" xlink:href="#linearGradient3904" gradientTransform="matrix(1, 0, 0, 0.6153764, 0, 13.01778)" id="radialGradient3894" inkscape:collect="always" />
    <radialGradient cx="55" cy="33.8455" r="55" fx="55" fy="33.8455" gradientUnits="userSpaceOnUse" xlink:href="#linearGradient3904" gradientTransform="matrix(1, 0, 0, 0.6153764, 0, 13.01778)" id="radialGradient3941" inkscape:collect="always" />
    <radialGradient cx="55" cy="33.8455" r="55" fx="55" fy="33.8455" gradientUnits="userSpaceOnUse" xlink:href="#linearGradient3904" gradientTransform="matrix(1, 0, 0, 0.6153764, 0, 13.01778)" id="radialGradient3943" inkscape:collect="always" />
    <radialGradient cx="55" cy="33.8455" r="55" fx="55" fy="33.8455" gradientUnits="userSpaceOnUse" xlink:href="#linearGradient3904" gradientTransform="matrix(1, 0, 0, 0.6153764, 0, 13.01778)" id="radialGradient3945" inkscape:collect="always" />
    <radialGradient cx="55" cy="33.8455" r="55" fx="55" fy="33.8455" gradientUnits="userSpaceOnUse" xlink:href="#linearGradient3904" gradientTransform="matrix(1, 0, 0, 0.6153764, 0, 13.01778)" id="radialGradient3947" inkscape:collect="always" />
    <radialGradient cx="55" cy="33.8455" r="55" fx="55" fy="33.8455" gradientUnits="userSpaceOnUse" xlink:href="#linearGradient3904" gradientTransform="matrix(1, 0, 0, 0.6153764, 0, 13.01778)" id="radialGradient3949" inkscape:collect="always" />
    <radialGradient cx="55" cy="33.8455" r="55" fx="55" fy="33.8455" gradientUnits="userSpaceOnUse" xlink:href="#linearGradient3904" gradientTransform="matrix(1, 0, 0, 0.6153764, 0, 13.01778)" id="radialGradient3112" inkscape:collect="always" />
    <radialGradient cx="55" cy="33.8455" r="55" fx="55" fy="33.8455" gradientUnits="userSpaceOnUse" xlink:href="#linearGradient3904" gradientTransform="matrix(1, 0, 0, 0.6153764, 0, 13.01778)" id="radialGradient3114" inkscape:collect="always" />
    <radialGradient cx="55" cy="33.8455" r="55" fx="55" fy="33.8455" gradientUnits="userSpaceOnUse" xlink:href="#linearGradient3904" gradientTransform="matrix(1, 0, 0, 0.6153764, 0, 13.01778)" id="radialGradient3116" inkscape:collect="always" />
    <radialGradient cx="55" cy="33.8455" r="55" fx="55" fy="33.8455" gradientUnits="userSpaceOnUse" xlink:href="#linearGradient3904" gradientTransform="matrix(1, 0, 0, 0.6153764, 0, 13.01778)" id="radialGradient3118" inkscape:collect="always" />
    <radialGradient cx="55" cy="33.8455" r="55" fx="55" fy="33.8455" gradientUnits="userSpaceOnUse" xlink:href="#linearGradient3904" gradientTransform="matrix(1, 0, 0, 0.6153764, 0, 13.01778)" id="radialGradient3120" inkscape:collect="always" />
    <radialGradient cx="55" cy="33.8455" r="55" fx="55" fy="33.8455" gradientUnits="userSpaceOnUse" xlink:href="#linearGradient3904" gradientTransform="matrix(1, 0, 0, 0.6153764, 0, 13.01778)" id="radialGradient3122" inkscape:collect="always" />
    <radialGradient cx="55" cy="33.8455" r="55" fx="55" fy="33.8455" gradientUnits="userSpaceOnUse" xlink:href="#linearGradient3904" gradientTransform="matrix(1, 0, 0, 0.6153764, 0, 13.01778)" id="radialGradient3139" inkscape:collect="always" />
    <radialGradient cx="55" cy="33.8455" r="55" fx="55" fy="33.8455" gradientUnits="userSpaceOnUse" xlink:href="#linearGradient3904" gradientTransform="matrix(1, 0, 0, 0.6153764, 0, 13.01778)" id="radialGradient3141" inkscape:collect="always" />
    <radialGradient cx="55" cy="33.8455" r="55" fx="55" fy="33.8455" gradientUnits="userSpaceOnUse" xlink:href="#linearGradient3904" gradientTransform="matrix(1, 0, 0, 0.6153764, 0, 13.01778)" id="radialGradient3143" inkscape:collect="always" />
    <radialGradient cx="100.7881" cy="104.5234" r="83.8749" gradientUnits="userSpaceOnUse" xlink:href="#XMLID_6_" gradientTransform="translate(6.196532, -0.7745665)" id="radialGradient3189" inkscape:collect="always" />
    <radialGradient cx="100.7881" cy="104.5234" r="83.8749" gradientUnits="userSpaceOnUse" id="XMLID_6_">
      <stop offset="0.56%" stop-color="#C4513D" id="stop3434" />
      <stop offset="100%" stop-color="#991F22" id="stop3436" />
    </radialGradient>
    <radialGradient cx="100.7881" cy="104.5234" r="83.8749" gradientUnits="userSpaceOnUse" id="XMLID_6_-7">
      <stop offset="0.56%" stop-color="#C4513D" id="stop3434-4" />
      <stop offset="100%" stop-color="#991F22" id="stop3436-0" />
    </radialGradient>
    <radialGradient cx="100.7881" cy="104.5234" r="83.8749" gradientUnits="userSpaceOnUse" xlink:href="#XMLID_6_-7" gradientTransform="translate(6.196532, -0.7745665)" id="radialGradient3425" inkscape:collect="always" />
    <clipPath id="clipPath60-4">
      <path d="m945.227 428.563 c2.253 0.941 4.445 1.937 6.57 2.996 l2.922 384.324 c-2.703 0.742 -5.489 1.437 -8.34 2.086 l-1.152 -389.406 z m-49.946 396.085 c-0.422 -58.207 -2.008 -261.89 -4.715 -408.027 c6.297 0.59 12.282 1.324 17.993 2.215 c-2.614 149.793 -3.793 354.957 -4.055 405.168 c-3.02 0.242 -6.098 0.453 -9.223 0.644 z m13.465 -1.023 l4.434 -404.02 c2.105 0.368 4.179 0.762 6.199 1.184 c-1.52 148.469 -2.149 350.082 -2.293 402.012 c-2.719 0.308 -5.523 0.566 -8.34 0.824 z m25.77 -398.934 c2.23 0.696 4.414 1.438 6.539 2.231 l1.16 391.965 c-2.719 0.558 -5.52 1.062 -8.363 1.543 c0.105 -60.285 0.488 -287.075 0.664 -395.739 z m-98.067 401.231 c-1.328 -0.012 -2.597 -0.035 -3.914 -0.047 l4.512 -411.605 c2.101 0.023 4.168 0.054 6.215 0.085 c-1.59 147.356 -2.254 354.817 -2.414 411.579 c-1.477 -0.012 -2.903 0 -4.399 -0.012 z m8.625 0.016 l2.602 -411.5 c2.144 0.039 4.265 0.093 6.355 0.148 c-0.504 147.324 -0.597 354.594 -0.609 411.34 c-2.742 0.019 -5.551 0.015 -8.348 0.012 z M956.266 433.934 c2.175 1.23 4.293 2.535 6.336 3.925 l4.582 374.059 c-2.668 0.984 -5.403 1.926 -8.243 2.785 c-0.285 -60.379 -1.218 -240.765 -2.675 -380.769 z m28.886 369.644 l3.711 -338.426 c2.18 3.379 4.246 6.981 6.215 10.813 c-1.004 122.539 -1.504 260.89 -1.691 322.082 c-2.61 1.957 -5.328 3.824 -8.235 5.531 z M1010.6 518.25 c2.58 9.715 4.92 20.324 7.08 31.926 l0.64 216.652 c-2.39 5.129 -5.11 9.828 -8.16 14.098 c0.1 -61.852 0.29 -171.059 0.44 -262.676 z M882.719 825.285 c-0.27 -57.457 -1.301 -262.805 -2.953 -409.531 c2.113 0.144 4.211 0.297 6.265 0.465 l4.996 408.679 c-2.726 0.145 -5.5 0.274 -8.308 0.387 z m139.741 -68.664 l-0.54 -180.828 c2.03 13.73 3.9 28.59 5.65 44.734 c0.86 7.805 1.53 15.207 2.12 22.426 l0.58 75.906 c-1.47 14.469 -4.06 26.965 -7.81 37.762 z m-17.88 31.336 c-2.14 2.359 -4.46 4.539 -6.889 6.633 l1.954 -308.91 c2.355 5.492 4.555 11.402 6.605 17.758 c-0.22 107.746 -0.3 222.187 -0.33 282.882 c-0.46 0.532 -0.87 1.114 -1.34 1.637 z M716.445 429.746 c2.09 -1.066 4.243 -2.07 6.457 -3 l2.973 390.688 c-2.82 -0.594 -5.605 -1.2 -8.285 -1.871 l-1.145 -385.817 z m141.852 -15.035 c2.183 0.07 4.336 0.148 6.461 0.234 l1.215 410.844 c-2.727 0.051 -5.567 0.066 -8.368 0.094 c0.106 -63.117 0.524 -310.133 0.692 -411.172 z m10.629 0.422 c2.183 0.105 4.344 0.215 6.465 0.34 l3.117 409.98 c-2.742 0.094 -5.555 0.16 -8.371 0.227 l-1.211 -410.547 z m52.379 407.14 l2.535 -400.5 c2.18 0.512 4.305 1.071 6.394 1.653 c-0.468 146.625 -0.554 343.562 -0.57 397.73 c-2.715 0.414 -5.539 0.762 -8.359 1.117 z M652.195 555.258 c1.938 -11.199 3.996 -21.531 6.223 -31.047 l3.195 260.93 c-2.937 -3.411 -5.597 -7.09 -7.968 -11.102 c-0.313 -57.91 -0.801 -138.891 -1.45 -218.781 z m-11.379 88.222 c0.848 -9.32 1.879 -19.152 3.106 -29.605 c1.258 -10.672 2.547 -20.762 3.887 -30.34 l1.382 181.84 c-3.574 -8.027 -6.257 -17.238 -8.093 -27.934 l-0.282 -93.961 z m25.336 146.356 c-0.566 -69.316 -1.609 -181.477 -3.105 -283.414 c4.637 -15.977 9.961 -29.262 16.262 -40.274 c-1.813 116.977 -2.84 256.911 -3.297 331.793 c-3.571 -2.476 -6.848 -5.183 -9.86 -8.105 z m305.305 20.402 c-0.465 -63.258 -1.848 -233.394 -4.117 -368.953 c6.172 4.789 11.723 10.43 16.742 17.031 c-1.949 132.102 -2.937 288.493 -3.262 347.559 c-2.984 1.563 -6.097 3.023 -9.363 4.363 z m-291.019 -9.394 l3.757 -342.477 c2.016 -2.933 4.114 -5.691 6.321 -8.258 c-1.203 123.786 -1.817 279.094 -2.063 355.129 c-2.801 -1.371 -5.465 -2.84 -8.015 -4.394 z m12.328 6.351 l2.293 -361.976 c2.066 -2.059 4.207 -3.996 6.437 -5.801 c-0.406 128.258 -0.527 295.016 -0.558 371.055 c-2.829 -1.024 -5.547 -2.118 -8.172 -3.278 z m126.238 18.496 c-0.473 -64.55 -2.098 -268.281 -4.828 -411.496 c5.883 -0.043 11.984 -0.027 18.312 0.028 c-2.679 147.273 -3.91 354.668 -4.207 411.597 c-3.113 -0.035 -6.238 -0.07 -9.277 -0.129 z m-62.613 -3.554 l4.441 -404.93 c2.039 -0.273 4.106 -0.527 6.223 -0.758 c-1.551 141.145 -2.235 339.547 -2.43 406.543 c-2.812 -0.254 -5.516 -0.558 -8.234 -0.855 z M705.789 436.172 c2.094 -1.481 4.258 -2.871 6.5 -4.164 l1.129 382.406 c-2.828 -0.773 -5.594 -1.59 -8.262 -2.469 c0.141 -83.961 0.473 -280.222 0.633 -375.773 z m100.66 389.211 c-0.308 -64.86 -1.355 -268.067 -3.004 -411.043 c2.051 -0.043 4.137 -0.078 6.246 -0.102 l5.036 411.348 c-2.774 -0.063 -5.567 -0.117 -8.278 -0.203 z m-76.304 -7.098 c-0.368 -74.461 -1.364 -258.851 -2.883 -393.246 c2.027 -0.75 4.093 -1.461 6.226 -2.113 l4.86 396.828 c-2.805 -0.449 -5.516 -0.949 -8.203 -1.469 z m12.539 2.106 c-0.559 -73.664 -2.141 -262.809 -4.715 -398.746 c5.722 -1.54 11.82 -2.786 18.308 -3.786 c-2.574 140.133 -3.816 335.786 -4.191 403.813 c-3.219 -0.387 -6.324 -0.832 -9.402 -1.281 z m49.98 -405.735 c2.109 -0.082 4.258 -0.152 6.43 -0.207 l3.125 410.785 c-2.817 -0.101 -5.598 -0.207 -8.344 -0.328 l-1.211 -410.25 z m-10.601 0.535 c2.105 -0.132 4.257 -0.246 6.437 -0.347 l1.211 409.875 c-2.836 -0.137 -5.582 -0.313 -8.34 -0.481 c0.125 -73.836 0.531 -314.586 0.692 -409.047 z m-13.188 408.145 l2.578 -407.328 c2.082 -0.192 4.199 -0.367 6.352 -0.524 c-0.5 141.883 -0.61 342.332 -0.629 408.512 c-2.836 -0.191 -5.555 -0.433 -8.301 -0.66" id="path62-8" inkscape:connector-curvature="0" />
    </clipPath>
    <radialGradient cx="55" cy="33.8455" r="55" fx="55" fy="33.8455" gradientUnits="userSpaceOnUse" xlink:href="#linearGradient3904" gradientTransform="matrix(1, 0, 0, 0.6153764, 0, 13.01778)" id="radialGradient3532" inkscape:collect="always" />
    <radialGradient cx="55" cy="33.8455" r="55" fx="55" fy="33.8455" gradientUnits="userSpaceOnUse" xlink:href="#linearGradient3904" gradientTransform="matrix(1, 0, 0, 0.6153764, 0, 13.01778)" id="radialGradient3534" inkscape:collect="always" />
    <radialGradient cx="55" cy="33.8455" r="55" fx="55" fy="33.8455" gradientUnits="userSpaceOnUse" xlink:href="#linearGradient3904" gradientTransform="matrix(1, 0, 0, 0.6153764, 0, 13.01778)" id="radialGradient3194" inkscape:collect="always" />
    <radialGradient cx="55" cy="33.8455" r="55" fx="55" fy="33.8455" gradientUnits="userSpaceOnUse" xlink:href="#linearGradient3904" gradientTransform="matrix(1, 0, 0, 0.6153764, 0, 13.01778)" id="radialGradient3196" inkscape:collect="always" />
    <radialGradient cx="55" cy="33.8455" r="55" fx="55" fy="33.8455" gradientUnits="userSpaceOnUse" xlink:href="#linearGradient3904" gradientTransform="matrix(1, 0, 0, 0.6153764, 0, 13.01778)" id="radialGradient3198" inkscape:collect="always" />
    <radialGradient cx="55" cy="33.8455" r="55" fx="55" fy="33.8455" gradientUnits="userSpaceOnUse" xlink:href="#linearGradient3904" gradientTransform="matrix(1, 0, 0, 0.6153764, 0, 13.01778)" id="radialGradient3200" inkscape:collect="always" />
    <radialGradient cx="55" cy="33.8455" r="55" fx="55" fy="33.8455" gradientUnits="userSpaceOnUse" xlink:href="#linearGradient3904" gradientTransform="matrix(1, 0, 0, 0.6153764, 0, 13.01778)" id="radialGradient3202" inkscape:collect="always" />
    <radialGradient cx="55" cy="33.8455" r="55" fx="55" fy="33.8455" gradientUnits="userSpaceOnUse" xlink:href="#linearGradient3904" gradientTransform="matrix(1, 0, 0, 0.6153764, 0, 13.01778)" id="radialGradient3204" inkscape:collect="always" />
    <radialGradient cx="55" cy="33.8455" r="55" fx="55" fy="33.8455" gradientUnits="userSpaceOnUse" xlink:href="#linearGradient3904" gradientTransform="matrix(1, 0, 0, 0.6153764, 0, 13.01778)" id="radialGradient3209" inkscape:collect="always" />
    <radialGradient cx="55" cy="33.8455" r="55" fx="55" fy="33.8455" gradientUnits="userSpaceOnUse" xlink:href="#linearGradient3904" gradientTransform="matrix(1, 0, 0, 0.6153764, 0, 13.01778)" id="radialGradient3211" inkscape:collect="always" />
    <radialGradient cx="55" cy="33.8455" r="55" fx="55" fy="33.8455" gradientUnits="userSpaceOnUse" xlink:href="#linearGradient3904-7" gradientTransform="matrix(1, 0, 0, 0.6153764, 0, 13.01778)" id="radialGradient3216-1" inkscape:collect="always" />
    <linearGradient id="linearGradient3904-7">
      <stop offset="0%" stop-color="#D3D1D2" stop-opacity="1" id="stop3906-4" />
      <stop offset="50%" stop-color="#C9C7C8" stop-opacity="1" id="stop3914-0" />
      <stop offset="100%" stop-color="#8D8B8C" stop-opacity="1" id="stop3908-9" />
    </linearGradient>
    <radialGradient cx="55" cy="33.8455" r="55" fx="55" fy="33.8455" gradientUnits="userSpaceOnUse" xlink:href="#linearGradient3904-7" gradientTransform="matrix(1, 0, 0, 0.6153764, 0, 13.01778)" id="radialGradient3214-4" inkscape:collect="always" />
    <linearGradient id="linearGradient3234">
      <stop offset="0%" stop-color="#D3D1D2" stop-opacity="1" id="stop3236" />
      <stop offset="50%" stop-color="#C9C7C8" stop-opacity="1" id="stop3238" />
      <stop offset="100%" stop-color="#8D8B8C" stop-opacity="1" id="stop3240" />
    </linearGradient>
    <radialGradient cx="55" cy="33.8455" r="55" fx="55" fy="33.8455" gradientUnits="userSpaceOnUse" xlink:href="#linearGradient3904-7" gradientTransform="matrix(1, 0, 0, 0.6153764, 0, 13.01778)" id="radialGradient3206-8" inkscape:collect="always" />
    <linearGradient id="linearGradient3243">
      <stop offset="0%" stop-color="#D3D1D2" stop-opacity="1" id="stop3245" />
      <stop offset="50%" stop-color="#C9C7C8" stop-opacity="1" id="stop3247" />
      <stop offset="100%" stop-color="#8D8B8C" stop-opacity="1" id="stop3249" />
    </linearGradient>
    <radialGradient cx="55" cy="33.8455" r="55" fx="55" fy="33.8455" gradientUnits="userSpaceOnUse" xlink:href="#linearGradient3904-7" gradientTransform="matrix(1, 0, 0, 0.6153764, 0, 13.01778)" id="radialGradient3208-8" inkscape:collect="always" />
    <linearGradient id="linearGradient3252">
      <stop offset="0%" stop-color="#D3D1D2" stop-opacity="1" id="stop3254" />
      <stop offset="50%" stop-color="#C9C7C8" stop-opacity="1" id="stop3256" />
      <stop offset="100%" stop-color="#8D8B8C" stop-opacity="1" id="stop3258" />
    </linearGradient>
    <radialGradient cx="55" cy="33.8455" r="55" fx="55" fy="33.8455" gradientUnits="userSpaceOnUse" xlink:href="#linearGradient3904-7" gradientTransform="matrix(1, 0, 0, 0.6153764, 0, 13.01778)" id="radialGradient3210-2" inkscape:collect="always" />
    <linearGradient id="linearGradient3261">
      <stop offset="0%" stop-color="#D3D1D2" stop-opacity="1" id="stop3263" />
      <stop offset="50%" stop-color="#C9C7C8" stop-opacity="1" id="stop3265" />
      <stop offset="100%" stop-color="#8D8B8C" stop-opacity="1" id="stop3267" />
    </linearGradient>
    <radialGradient cx="55" cy="33.8455" r="55" fx="55" fy="33.8455" gradientUnits="userSpaceOnUse" xlink:href="#linearGradient3904-7" gradientTransform="matrix(1, 0, 0, 0.6153764, 0, 13.01778)" id="radialGradient3212-4" inkscape:collect="always" />
    <linearGradient id="linearGradient3270">
      <stop offset="0%" stop-color="#D3D1D2" stop-opacity="1" id="stop3272" />
      <stop offset="50%" stop-color="#C9C7C8" stop-opacity="1" id="stop3274" />
      <stop offset="100%" stop-color="#8D8B8C" stop-opacity="1" id="stop3276" />
    </linearGradient>
    <radialGradient cx="55" cy="33.8455" r="55" fx="55" fy="33.8455" gradientUnits="userSpaceOnUse" xlink:href="#linearGradient3904-7" gradientTransform="matrix(1, 0, 0, 0.6153764, 0, 13.01778)" id="radialGradient3285" inkscape:collect="always" />
    <radialGradient cx="55" cy="33.8455" r="55" fx="55" fy="33.8455" gradientUnits="userSpaceOnUse" xlink:href="#linearGradient3904-7" gradientTransform="matrix(1, 0, 0, 0.6153764, 0, 13.01778)" id="radialGradient4144" inkscape:collect="always" />
    <radialGradient cx="55" cy="33.8455" r="55" fx="55" fy="33.8455" gradientUnits="userSpaceOnUse" xlink:href="#linearGradient3904-7" gradientTransform="matrix(1, 0, 0, 0.6153764, 0, 13.01778)" id="radialGradient4146" inkscape:collect="always" />
    <radialGradient cx="55" cy="33.8455" r="55" fx="55" fy="33.8455" gradientUnits="userSpaceOnUse" xlink:href="#linearGradient3904-7" gradientTransform="matrix(1, 0, 0, 0.6153764, 0, 13.01778)" id="radialGradient3253" inkscape:collect="always" />
    <radialGradient cx="55" cy="33.8455" r="55" fx="55" fy="33.8455" gradientUnits="userSpaceOnUse" xlink:href="#linearGradient3904-7" gradientTransform="matrix(1, 0, 0, 0.6153764, 0, 13.01778)" id="radialGradient3255" inkscape:collect="always" />
    <radialGradient cx="55" cy="33.8455" r="55" fx="55" fy="33.8455" gradientUnits="userSpaceOnUse" xlink:href="#linearGradient3904-7" gradientTransform="matrix(1, 0, 0, 0.6153764, 0, 13.01778)" id="radialGradient3257" inkscape:collect="always" />
    <radialGradient cx="55" cy="33.8455" r="55" fx="55" fy="33.8455" gradientUnits="userSpaceOnUse" xlink:href="#linearGradient3904-7" gradientTransform="matrix(1, 0, 0, 0.6153764, 0, 13.01778)" id="radialGradient3259" inkscape:collect="always" />
    <radialGradient cx="55" cy="33.8455" r="55" fx="55" fy="33.8455" gradientUnits="userSpaceOnUse" xlink:href="#linearGradient3904-7" gradientTransform="matrix(1, 0, 0, 0.6153764, 0, 13.01778)" id="radialGradient3261" inkscape:collect="always" />
    <radialGradient cx="55" cy="33.8455" r="55" fx="55" fy="33.8455" gradientUnits="userSpaceOnUse" xlink:href="#linearGradient3904-7" gradientTransform="matrix(1, 0, 0, 0.6153764, 0, 13.01778)" id="radialGradient3263" inkscape:collect="always" />
    <radialGradient cx="55" cy="33.8455" r="55" fx="55" fy="33.8455" gradientUnits="userSpaceOnUse" xlink:href="#linearGradient3904-7" gradientTransform="matrix(1, 0, 0, 0.6153764, 0, 13.01778)" id="radialGradient3268" inkscape:collect="always" />
    <radialGradient cx="55" cy="33.8455" r="55" fx="55" fy="33.8455" gradientUnits="userSpaceOnUse" xlink:href="#linearGradient3904-7" gradientTransform="matrix(1, 0, 0, 0.6153764, 0, 13.01778)" id="radialGradient3270" inkscape:collect="always" />
    <radialGradient cx="55" cy="33.8455" r="55" fx="55" fy="33.8455" gradientUnits="userSpaceOnUse" xlink:href="#linearGradient3904-7" gradientTransform="matrix(1, 0, 0, 0.6153764, 0, 13.01778)" id="radialGradient3272" inkscape:collect="always" />
    <radialGradient cx="55" cy="33.8455" r="55" fx="55" fy="33.8455" gradientUnits="userSpaceOnUse" xlink:href="#linearGradient3904-7" gradientTransform="matrix(1, 0, 0, 0.6153764, 0, 13.01778)" id="radialGradient3274" inkscape:collect="always" />
    <radialGradient cx="55" cy="33.8455" r="55" fx="55" fy="33.8455" gradientUnits="userSpaceOnUse" xlink:href="#linearGradient3904-7" gradientTransform="matrix(1, 0, 0, 0.6153764, 0, 13.01778)" id="radialGradient3276" inkscape:collect="always" />
    <radialGradient cx="55" cy="33.8455" r="55" fx="55" fy="33.8455" gradientUnits="userSpaceOnUse" xlink:href="#linearGradient3904-7" gradientTransform="matrix(1, 0, 0, 0.6153764, 0, 13.01778)" id="radialGradient3278" inkscape:collect="always" />
    <radialGradient cx="150.0001" cy="153.4287" r="98.00017" fx="150.0001" fy="153.4287" gradientUnits="userSpaceOnUse" xlink:href="#linearGradient4029" gradientTransform="matrix(1, 0, 0, 1.068878, 0, -10.56781)" id="radialGradient3972" inkscape:collect="always" />
    <radialGradient cx="150.0001" cy="153.4287" r="98.00017" fx="150.0001" fy="153.4287" gradientUnits="userSpaceOnUse" xlink:href="#linearGradient4029" gradientTransform="matrix(1, 0, 0, 1.068878, 0, -10.56781)" id="radialGradient3260" inkscape:collect="always" />
    <radialGradient cx="55" cy="33.8455" r="55" fx="55" fy="33.8455" gradientUnits="userSpaceOnUse" xlink:href="#linearGradient3904-7" gradientTransform="matrix(1, 0, 0, 0.6153764, 0, 13.01778)" id="radialGradient3281" inkscape:collect="always" />
    <radialGradient cx="55" cy="33.8455" r="55" fx="55" fy="33.8455" gradientUnits="userSpaceOnUse" xlink:href="#linearGradient3904-7" gradientTransform="matrix(1, 0, 0, 0.6153764, 0, 13.01778)" id="radialGradient3283" inkscape:collect="always" />
    <radialGradient cx="55" cy="33.8455" r="55" fx="55" fy="33.8455" gradientUnits="userSpaceOnUse" xlink:href="#linearGradient3904-7" gradientTransform="matrix(1, 0, 0, 0.6153764, 0, 13.01778)" id="radialGradient3286" inkscape:collect="always" />
    <radialGradient cx="55" cy="33.8455" r="55" fx="55" fy="33.8455" gradientUnits="userSpaceOnUse" xlink:href="#linearGradient3904-7" gradientTransform="matrix(1, 0, 0, 0.6153764, 0, 13.01778)" id="radialGradient3288" inkscape:collect="always" />
    <radialGradient cx="55" cy="33.8455" r="55" fx="55" fy="33.8455" gradientUnits="userSpaceOnUse" xlink:href="#linearGradient3904-7" gradientTransform="matrix(1, 0, 0, 0.6153764, 0, 13.01778)" id="radialGradient3290" inkscape:collect="always" />
    <radialGradient cx="55" cy="33.8455" r="55" fx="55" fy="33.8455" gradientUnits="userSpaceOnUse" xlink:href="#linearGradient3904-7" gradientTransform="matrix(1, 0, 0, 0.6153764, 0, 13.01778)" id="radialGradient3292" inkscape:collect="always" />
  </defs>
  <g id="g3294">
    <path d="M297.5 149.998 C297.5 231.4627 231.4607 297.5 149.9993 297.5 C68.53783 297.5 2.500008 231.4627 2.500008 149.998 C2.500008 68.53925 68.53783 2.500006 149.9993 2.500006 c81.46144 0 147.5007 66.03925 147.5007 147.498" id="path30" fill-rule="nonzero" fill-opacity="1" inkscape:connector-curvature="0" style="fill:#231F20;stroke:none;" />
    <path d="m292.3239 149.998 c0 78.60794 -63.71993 142.3273 -142.3246 142.3273 c-78.60464 0 -142.3266 -63.71939 -142.3266 -142.3273 c0 -78.602 63.7219 -142.3234 142.3266 -142.3234 c78.60465 0 142.3246 63.72137 142.3246 142.3234" id="path32" fill-rule="nonzero" fill-opacity="1" inkscape:connector-curvature="0" style="fill:#BDBCBC;stroke:none;" />
    <path d="m35.53154 78.31453 c0 0.117753 -15.79081 2.518787 -15.77547 2.593999 c0.07707 0.39242 -0.817986 81.23262 13.60256 77.16397 c9.495264 -4.4675 4.385901 -57.14184 4.385901 -50.05756 c0 9.87573 0.95902 26.07266 4.747631 51.51093 c4.270101 28.6548 2.470306 32.22514 4.461605 38.39542 c-4.631832 -4.49818 -11.83791 -6.52212 -11.83791 -6.52212 l10.21776 34.53708 l7.525253 -0.077 c0 0 0.108413 -2.32003 0.206844 -2.42988 c0.202887 -0.002 7.43271 0.53542 12.40056 9.62631 c28.74411 52.60703 104.4202 32.37805 84.6102 33.51818 l31.18375 -3.75393 C89.93237 278.4448 72.80001 236.336 68.20727 227.9295 C65.33022 223.7137 57.05946 219.2965 51.85975 221.8112 c0 0 12.69245 0.50686 12.12789 -2.85876 c3.966251 3.85241 -9.862452 -6.23412 -9.862452 -6.23412 l0.696149 2.18632 c2.144515 0.21715 1.178679 -2.09779 3.438452 -2.47628 L55.4553 211.1447 c-0.359261 -0.44091 1.5583 -2.7296 -5.288515 -48.67892 c-3.761877 -25.24725 -3.003764 -44.90221 -3.003764 -54.68293 c0 -9.475882 -0.618565 -10.1464 -0.601246 -10.21618 L40.99665 93.93252 L39.92924 93.71627 c-1.534541 -0.311271 -3.053742 -0.80216 -3.712895 -1.167858 c0.341955 -0.508207 0.538904 -1.18664 0.538904 -2.305996 c0 -1.082235 -0.11591 -2.493552 -0.266729 -4.316084 C36.28954 83.48871 36.3881 74.75509 36.05156 77.67223 C18.31846 231.5726 42.86571 60.44699 39.85007 63.73527 l1.724557 -1.954161 c8.352655 -9.642154 37.53322 -32.15982 112.8248 -33.9205 c79.62108 -1.865577 79.98233 27.21676 80.25449 27.64184 l20.62553 10.21618 C255.0073 65.28168 228.2179 20.81841 147.3592 22.71121 C71.16346 24.49514 48.54516 50.59651 40.03019 60.42374 l-1.683983 1.9121 c-3.500606 3.817772 -7.517338 3.852409 -7.517338 9.477373 c0 3.003738 -3.367487 7.005097 -3.162609 9.489246 c9.828987 17.26805 6.43648 8.732452 7.86572 -2.988398 z m217.7334 -7.403454 c-1.73694 0.746233 -1.47467 3.564405 -1.11342 7.461347 c0.26722 2.905271 0.57402 6.198992 0 8.497563 l1.98931 0.500795 c0.65816 -2.638543 0.33155 -6.118334 0.0495 -9.189861 c-0.17814 -1.952182 -0.45526 -4.905943 -0.0396 -5.429502 c0.0495 0.06723 0.62352 21.99363 5.14155 27.22023 c7.18528 8.317934 3.60254 3.531744 3.60254 18.02738 c0 7.14466 5.34443 15.47199 5.13163 18.38863 c-2.66231 -3.37091 -3.41944 -12.04267 -4.09739 -19.82072 c-0.79177 -9.05625 -1.46971 -16.87538 -4.69122 -19.47335 c3.96966 -3.481214 -9.82467 -21.72025 -8.88264 -9.36949 c0.64827 4.320534 -1.46476 -9.699555 -4.53286 -14.47238 C236.4252 58.62691 216.9576 41.53875 149.3075 39.19019 C87.29386 37.03709 56.55896 62.4907 48.6586 70.25588 c0.0098 -0.01647 1.026329 -1.770563 1.026329 -1.770563 l-10.07698 -5.194451 l-2.851084 30.16947 l4.312736 -6.806227 c0 0 6.962521 -12.62499 7.090195 -12.92091 c1.086694 -1.281666 30.47214 -34.93346 101.076 -32.48246 c75.26041 2.61181 89.00054 23.99083 94.86952 33.12032 c2.82562 4.401695 3.5679 9.321 4.22606 13.66083 c0.86104 5.715528 1.68249 11.11285 8.10076 10.25033 c0.58888 -0.07707 1.07384 0.05445 1.52415 0.419634 c2.54355 2.049176 3.24624 10.18106 3.93409 18.04274 c0.90063 10.40323 1.76169 20.227 6.54198 22.63544 l1.33115 0.67101 l0.14352 -1.49444 c0.17814 -1.90963 4.30027 -46.87716 -8.43232 -61.62023 c-5.01289 -5.805096 -6.85869 -6.607243 -8.20964 -6.025299 z m27.22193 37.27409 c-1.1629 -5.42602 -3.01861 -11.34295 -5.77 -17.36231 c1.44498 3.332821 3.75595 9.274489 5.77 17.36231 z m-5.77 -17.36231 c-0.35135 -0.815508 -0.66805 -1.519188 -0.90064 -2.008097 c0.33156 0.672496 0.59878 1.33758 0.90064 2.008097 z m-6.41331 -14.88806 c16.82505 16.22366 13.80644 58.08699 13.80644 58.08699 l-8.1849 -9.50854 l0 40.56238 l-5.66608 11.40679 C258.1838 230.3553 234.2626 277.8901 140.456 275.354 C46.65191 272.8193 32.17395 222.7509 23.35911 175.2161 C14.54476 127.6833 27.13633 75.7126 27.13633 75.7126 c-27.70244 82.39058 5.037617 144.5022 5.037617 144.5022 c0 0 15.73637 58.3072 112.6912 57.67528 c96.9489 -0.63242 112.0618 -54.50528 112.0618 -54.50528 l1.76168 13.597 c0 0 22.52082 -20.60012 29.44384 -63.6986 c3.50852 -21.81992 -10.05049 -87.92102 -19.82882 -97.3484 z m5.51267 12.87996 c-0.3266 -0.684382 -0.52453 -1.061462 -0.52453 -1.061462 c0.1831 0.355804 0.35134 0.709616 0.52453 1.061462" id="path34" fill-rule="nonzero" fill-opacity="1" inkscape:connector-curvature="0" sodipodi:nodetypes="cccsccccccccccccccccssccccscccccccsccsccccccccccscccccsccccccccccccccccccccccccccccccsccsccccccc" style="fill:#231F20;stroke:none;" />
    <g transform="matrix(0.4948544, 0, 0, -0.4948502, -261.4083, 458.0056)" id="g36" fill-opacity="1" style="fill:url(&quot;#linearGradient3138&quot;);">
      <g clip-path="url(#clipPath40)" id="g38" fill-opacity="1" style="fill:url(&quot;#linearGradient3136&quot;);">
        <path d="m1094.29 667.164 c0.2272 -0.33346 0 0 0 0 z M607.449 803.75 c0 0 25.906 23.891 44.403 41.492 c0 0 -24.668 -13.828 -44.403 -41.492 z m-6.894 -317.059 c14.668 -29.589 29.101 -48.843 29.101 -48.843 c0 0 -13.754 20.746 -29.101 48.843 z m480.495 284.368 l-4.82 14.046 l43.05 -15.304 l-41.65 21.347 l42.3 25.102 l-46.49 -19.059 l7.44 46.485 l-15.09 -44.903 l-10.94 3.09 c-22.94 34.106 -54.46 51.176 -94.12 70.2 c-73.718 35.371 -171.976 25.992 -171.976 25.992 c0 0 116 -1.477 204.73 -54.071 c18.326 -10.863 33.606 -25.925 46.286 -42.949 l-19.15 -1.055 l21.95 -2.8 c2.07 -2.918 4.07 -5.883 5.99 -8.891 l-25.48 -14.719 l27.49 11.539 c2.83 -4.586 5.52 -9.254 8.05 -13.976 l-10.87 -34.028 l12.85 30.286 c19.04 -36.828 29.07 -75.95 33.69 -100.227 c-5.33 50.816 -14.63 87.039 -27.77 114.211 l0.96 2.254 c0 0 48.1 -62.867 39.47 -165.977 c-8.63 -103.109 -33.3 -139.574 -57.97 -164.722 l-1.23 12.578 c0 0 -35.76 -106.887 -213.363 -104.367 c-177.602 2.519 -191.168 60.351 -191.168 60.351 l-9.867 5.039 c0 0 -41.93 32.684 -67.832 119.449 c-25.903 86.762 -1.235 157.176 -1.235 157.176 c0 0 -13.566 -57.84 -3.699 -116.937 c5.113 -30.625 23.461 -69.324 39.969 -99.528 c-12.117 24.43 -24.403 55.907 -28.867 89.469 c-9.872 74.188 -7.403 124.485 4.929 162.203 c12.332 37.719 19.735 54.071 19.735 54.071 c0 0 -51.797 -60.36 -53.032 -188.614 c-1.234 -128.257 107.297 -216.273 155.395 -235.136 c48.101 -18.86 199.801 -44.004 291.066 20.117 c91.269 64.129 85.099 80.472 114.699 139.578 c29.61 59.098 17.27 178.551 -23.43 242.68 z m-21.6 23.519 c-0.1 0.164 -0.19 0.328 -0.29 0.485 l0.92 -0.118 z m4.24 -7.57 c-0.52 0.984 -1.04 1.988 -1.57 2.949 l2.9 1.219 z m-434.034 5.426 c7.395 12.574 45.629 35.207 45.629 35.207 c0 0 -20.969 -12.578 -44.398 -40.239 c-23.438 -27.66 8.633 2.516 51.801 31.438 c43.164 28.918 103.597 26.402 103.597 26.402 c0 0 -19.73 15.09 -94.965 -8.804 l72.766 31.437 c0 0 -110.996 -23.891 -143.066 -69.156 c-32.071 -45.266 1.23 -18.86 8.636 -6.285 z m371.254 3.976 c13.61 -14.133 23.41 -26.609 23.41 -26.609 c0 0 -4.01 12.711 -23.41 26.609 z M579.086 611.363 c13.566 -133.285 70.301 -189.871 70.301 -189.871 c0 0 43.164 -42.75 177.597 -49.035 c134.43 -6.285 177.606 46.523 181.306 55.324 c3.7 8.801 -17.274 -5.027 -23.438 -2.511 c-6.168 2.511 19.738 49.039 19.738 49.039 c-13.57 -50.297 7.4 7.543 20.96 1.254 c13.57 -6.282 -27.132 -22.633 -13.56 -35.208 c13.56 -12.574 41.92 76.704 60.43 116.942 c18.5 40.234 12.33 81.73 11.1 108.137 c-1.23 26.406 -7.4 37.722 -7.4 37.722 l-3.7 -62.875 c0 0 2.47 -8.797 -17.27 35.215 l-16.03 42.75 c-11.1 -196.16 -55.507 -270.351 -55.507 -270.351 c0 0 -16.031 -49.032 -145.531 -50.293 c-129.496 -1.25 -148 32.699 -148 32.699 c-41.93 55.324 -66.598 173.519 -60.426 251.476 c6.164 77.961 0 99.34 55.496 123.231 c55.5 23.887 139.364 26.406 139.364 26.406 c100.734 2.832 151.375 -17.074 176.394 -35.004 c-3.121 3.238 -6.441 6.574 -9.894 9.852 c-18.5 17.601 -189.934 54.07 -279.965 18.863 c-90.031 -35.207 -96.199 -69.156 -90.031 -172.266 c6.168 -103.109 38.234 -188.609 60.433 -221.304 c22.199 -32.692 101.133 -42.754 101.133 -42.754 c-107.301 2.519 -119.633 59.094 -125.801 69.164 c-6.168 10.058 -24.668 30.18 -28.367 13.828 c-3.699 -16.344 -36.859 83.609 -30.691 88.641 c6.164 5.031 44.257 -50.922 44.257 -50.922 c0 0 -13.566 27.668 -27.132 105.625 c-13.567 77.957 7.398 116.937 -6.168 119.453 c-13.567 2.515 16.871 -115.035 -21.985 -120.262 c-11.07 -1.492 -1.883 103.965 3.055 125.34 c4.93 21.379 10.301 27.617 10.301 27.617 c0 0 -34.535 -22.637 -20.969 -155.922" id="path52" fill-rule="nonzero" fill-opacity="1" inkscape:connector-curvature="0" sodipodi:nodetypes="ccccccccccccccccccccccccccccccccsccsccccsccscscccccccccccccccccccsccccccsscccccsccccccccccccsscccccccccccc" style="fill:url(&quot;#linearGradient3134&quot;);stroke:none;" />
      </g>
    </g>
    <path d="m159.0606 257.1568 c0.10421 -0.005 15.29417 -0.75009 28.54548 -3.73578 c11.51282 -2.5927 21.70232 -7.54655 21.80322 -7.59547 l0.038 -0.0196 l0.0413 -0.0179 c0.0562 -0.0245 5.73325 -2.4753 9.22514 -5.81157 c3.53986 -3.38519 5.14934 -7.81398 5.16588 -7.85801 c0.0711 -0.19241 6.26919 -16.7107 10.95702 -34.35575 c4.314 -16.23782 7.27325 -34.18781 7.30303 -34.36718 c0.0463 -0.23644 3.62091 -18.37394 4.62332 -37.66756 c0.84361 -16.21499 -0.83204 -34.62481 -0.85023 -34.80907 c-0.01 -0.138603 -0.87339 -11.041 -5.24859 -18.17012 c-3.93189 -6.405117 -11.52439 -9.550604 -11.60048 -9.583216 l-0.0662 -0.02609 l-0.0645 -0.03424 c-0.0877 -0.04403 -8.90258 -4.459775 -25.62262 -8.097713 c-13.33568 -2.900892 -31.87197 -4.971793 -47.22073 -5.271829 c-17.54711 -0.344063 -36.38446 0.87891 -50.3851 3.272676 l0 0 c-16.79117 2.86991 -27.70022 7.13401 -27.8094 7.176406 l-0.091 0.03424 l-0.0943 0.02609 c-0.10917 0.02935 -10.98845 3.011775 -16.70847 10.2746 c-5.81099 7.376974 -6.75219 19.49582 -6.76046 19.61812 l-0.007 0.07338 c-0.0165 0.122297 -1.23399 10.57463 -1.23399 23.38487 c0 2.29593 0.038 4.66849 0.13233 7.07204 c0.65504 17.06129 3.63746 35.97171 3.66723 36.16086 c0.0347 0.1859 4.0758 22.38693 8.68423 41.09679 c3.41415 13.87014 7.86048 26.14064 7.90514 26.26131 l0.0298 0.0881 l0.0232 0.0897 c0.0165 0.062 1.53173 6.28771 3.9964 10.63334 c2.14542 3.7798 5.30483 6.00235 5.33791 6.02192 l0.0513 0.0359 l0.0513 0.0424 c0.0232 0.0163 2.17354 1.75293 5.47355 3.5613 c3.79956 2.08068 8.891 4.31138 9.10769 4.4027 c0.35895 0.14023 11.58394 4.43694 26.38188 6.39044 c15.45297 2.03992 35.02144 1.70727 35.21829 1.70401 z" enable-background="new    " id="path3438" stroke-width="2" stroke-miterlimit="4" stroke-dasharray="none" fill-opacity="1" stroke-opacity="1" inkscape:connector-curvature="0" style="fill:url(&quot;#radialGradient3260&quot;);stroke:#6D0115;" />
    <g transform="matrix(1.65414, 0, 0, 1.630631, -18.69956, -13.2751)" id="g3442" fill-opacity="1" style="fill:#6D0115;">
      <path d="m66.921 158.554 c-0.405 -0.188 -0.626 -0.297 -0.626 -0.297 c-0.023 -0.01 -0.138 -0.061 -0.325 -0.148 l-0.068 -0.408 C64.3 148.74 61.855 132.368 61.055 112.404 C60.066 88.927 60.104 60.154 60.198 46.217 l0 -1.008 c0.27 -0.092 0.55 -0.185 0.839 -0.279 l0.004 1.01 c-0.095 13.818 -0.14 42.809 0.855 66.429 c0.813 20.312 3.333 36.889 4.926 45.696 l0.099 0.489 z" id="path3444" fill-opacity="1" inkscape:connector-curvature="0" />
      <path d="m69.566 159.703 c-0.324 -0.133 -0.629 -0.261 -0.912 -0.381 l-0.078 -0.629 C67.409 150.254 65.344 133.05 64.363 111.042 C63.321 87.646 63.509 58.238 63.672 44.869 l0.002 -0.751 c0.274 -0.08 0.554 -0.16 0.84 -0.24 l0.002 0.829 c-0.163 13.277 -0.357 42.82 0.688 66.298 c1.003 22.506 3.141 39.974 4.288 48.161 l0.074 0.537 z" id="path3446" fill-opacity="1" inkscape:connector-curvature="0" />
      <path d="m89.348 40.495 c0.212 25.916 0.823 100.676 1.001 122.333 l0.016 1.829 c-0.273 -0.029 -0.553 -0.061 -0.836 -0.094 l-0.021 -1.738 C89.33 141.184 88.72 66.618 88.508 40.608 L88.487 39.85 c0.283 -0.024 0.566 -0.048 0.849 -0.07 l0.012 0.715 z" id="path3448" fill-opacity="1" inkscape:connector-curvature="0" />
      <path d="m100.301 40.158 c0.073 22.71 0.317 97.882 0.399 123.286 l0.006 1.729 c-0.295 0.004 -0.578 0.007 -0.848 0.008 v-1.962 C99.774 137.489 99.53 62.174 99.458 39.878 l-0.004 -0.58 c0.273 -0.004 0.547 -0.007 0.822 -0.01 l0.025 0.87 z" id="path3450" fill-opacity="1" inkscape:connector-curvature="0" />
      <path d="m104.506 40.271 c-0.124 25.219 -0.494 100.904 -0.603 123.175 l-0.002 1.668 c-0.291 0.008 -0.574 0.015 -0.854 0.021 l0.012 -1.354 c0.106 -21.879 0.481 -98.496 0.605 -123.678 l-0.02 -0.813 c0.293 0.003 0.585 0.006 0.877 0.011 l-0.015 0.97 z" id="path3452" fill-opacity="1" inkscape:connector-curvature="0" />
      <path d="m115.874 163.003 c0.604 -10.136 1.744 -31.624 2.212 -55.938 c0.478 -24.781 0.265 -52.982 0.118 -66.227 l-0.048 -0.852 c0.341 0.03 0.679 0.061 1.016 0.093 l0.046 1.092 c0.146 13.391 0.352 41.332 -0.121 65.913 c-0.465 24.112 -1.59 45.448 -2.197 55.704 l-0.088 1.465 c-0.354 0.043 -0.66 0.084 -1.02 0.123 l0.082 -1.373 z" id="path3454" fill-opacity="1" inkscape:connector-curvature="0" />
      <path d="m144.603 152.957 c-0.45 0.622 -0.922 1.14 -1.324 1.535 l0.404 -2.175 c1.758 -9.238 4.031 -23.528 5.166 -40.308 c1.348 -19.948 1.521 -47.224 1.492 -62.723 l0.018 -1.485 c0.328 0.184 0.66 0.379 0.992 0.589 l0.002 1.979 c0.019 15.677 -0.177 42.19 -1.496 61.709 c-1.113 16.473 -3.322 30.559 -5.071 39.844 l-0.183 1.035 z" id="path3456" fill-opacity="1" inkscape:connector-curvature="0" />
      <path d="m154.321 119.493 c0.728 -5.839 1.4 -12.392 1.863 -19.314 c1.017 -15.213 1.043 -32.448 0.914 -43.416 l-0.023 -1.831 c0.424 0.96 0.766 1.944 1.042 2.889 l0.02 1.701 c0.091 10.982 -0.007 26.708 -0.944 40.725 c-0.196 2.951 -0.432 5.835 -0.693 8.626 l-0.309 3.083 c-0.648 3.296 -1.471 7.315 -2.375 11.394 l0.505 -3.857 z" id="path3458" fill-opacity="1" inkscape:connector-curvature="0" />
      <path d="m141.024 156.292 c-0.32 0.221 -0.703 0.472 -1.135 0.737 l0.307 -1.75 c1.686 -9.41 4.309 -26.49 5.34 -46.338 c1.131 -21.803 1.135 -47.72 1.04 -60.988 l-0.039 -1.879 c0.288 0.103 0.628 0.23 1.005 0.383 l0.047 1.75 c0.093 13.357 0.082 39.103 -1.044 60.787 c-1.002 19.301 -3.508 35.996 -5.2 45.598 l-0.321 1.7 z" id="path3460" fill-opacity="1" inkscape:connector-curvature="0" />
      <path d="m128.614 160.607 c0.797 -8.768 2.258 -26.919 2.96 -48.816 c0.788 -24.582 0.791 -53.712 0.733 -67.784 l-0.031 -2.001 c0.352 0.073 0.699 0.147 1.039 0.222 l0.004 1.937 c0.057 14.141 0.051 43.156 -0.735 67.659 c-0.697 21.753 -2.143 39.816 -2.944 48.675 l-0.103 1.076 c-0.335 0.1 -0.669 0.203 -1.04 0.308 l0.117 -1.276 z" id="path3462" fill-opacity="1" inkscape:connector-curvature="0" />
      <path d="m125.124 161.435 c0.875 -7.446 2.309 -21.879 2.9 -40.651 c0.862 -27.313 0.756 -61.757 0.643 -77.696 l-0.019 -1.773 c0.335 0.058 0.665 0.116 0.992 0.177 l0.038 1.853 c0.112 16.06 0.214 50.293 -0.645 77.473 c-0.583 18.483 -1.98 32.772 -2.862 40.351 l-0.163 1.372 c-0.336 0.083 -0.695 0.175 -1.049 0.258 l0.165 -1.364 z" id="path3464" fill-opacity="1" inkscape:connector-curvature="0" />
      <path d="m122.292 162.039 c0.684 -7.873 1.865 -23.467 2.42 -42.438 c0.775 -26.513 0.575 -60.086 0.389 -77.59 l-0.02 -1.251 c0.344 0.047 0.684 0.096 1.02 0.146 l0.018 1.673 c0.184 17.666 0.371 50.813 -0.396 77.052 c-0.546 18.678 -1.699 34.088 -2.388 42.098 l-0.126 1.453 c-0.348 0.073 -0.676 0.141 -1.035 0.211 l0.118 -1.354 z" id="path3466" fill-opacity="1" inkscape:connector-curvature="0" />
      <path d="m119.007 162.708 c0.58 -9.196 1.677 -28.41 2.156 -49.02 c0.637 -27.397 0.668 -57.958 0.64 -72.264 l-0.029 -1.077 c0.343 0.039 0.683 0.078 1.02 0.118 l0.021 1.214 c0.027 14.417 -0.007 44.788 -0.641 72.032 c-0.474 20.364 -1.549 39.367 -2.135 48.706 l-0.088 1.378 c-0.361 0.061 -0.652 0.113 -1.023 0.17 l0.079 -1.257 z" id="path3468" fill-opacity="1" inkscape:connector-curvature="0" />
      <path d="m115.532 40.945 c-0.043 14.641 -0.188 47.856 -0.656 76.188 c-0.324 19.612 -0.939 36.755 -1.297 45.646 l-0.078 1.814 c-0.285 0.024 -0.572 0.049 -0.857 0.072 l0.082 -1.612 c0.355 -8.793 0.98 -26.1 1.309 -45.934 c0.471 -28.471 0.615 -61.876 0.657 -76.398 l0.006 -1.005 c0.284 0.02 0.567 0.039 0.849 0.06 l-0.015 1.169 z" id="path3470" fill-opacity="1" inkscape:connector-curvature="0" />
      <path d="m111.372 40.271 c0.117 12.921 0.291 38.208 0.136 62.037 c-0.169 25.795 -0.72 50.424 -0.981 61.028 l-0.031 1.484 c-0.287 0.019 -0.572 0.036 -0.857 0.053 l0.039 -1.259 c0.259 -10.431 0.818 -35.277 0.988 -61.313 c0.155 -23.689 -0.016 -48.823 -0.133 -61.806 l-0.01 -1.017 c0.281 0.013 0.561 0.026 0.841 0.04 l0.008 0.753 z" id="path3472" fill-opacity="1" inkscape:connector-curvature="0" />
      <path d="m108.068 40.215 c0.173 14.819 0.413 41.343 0.296 66.358 c-0.109 23.273 -0.6 45.563 -0.896 57.209 l-0.025 1.205 c-0.285 0.013 -0.567 0.025 -0.848 0.037 l0.035 -1.411 c0.296 -11.683 0.782 -33.876 0.892 -57.044 c0.116 -24.89 -0.121 -51.273 -0.294 -66.13 l-0.019 -1.082 c0.283 0.008 0.566 0.017 0.848 0.025 l0.011 0.833 z" id="path3474" fill-opacity="1" inkscape:connector-curvature="0" />
      <path d="m78.317 162.636 c-0.293 -0.074 -0.584 -0.15 -0.873 -0.229 l-0.05 -0.554 C76.687 154.115 75.265 136.714 74.677 116.288 C73.926 90.231 74.176 57.664 74.36 42.329 l-0.007 -0.672 c0.281 -0.049 0.563 -0.098 0.849 -0.146 l0.002 0.68 c-0.184 15.265 -0.438 47.946 0.315 74.073 c0.596 20.69 2.048 38.27 2.743 45.829 l0.055 0.543 z" id="path3476" fill-opacity="1" inkscape:connector-curvature="0" />
      <path d="m72.612 160.877 c-0.304 -0.11 -0.601 -0.219 -0.89 -0.327 l-0.069 -0.64 C70.366 149.018 67.877 125.49 67.088 100.529 C66.42 79.411 66.997 55.841 67.386 43.987 l0.015 -0.869 c0.279 -0.069 0.562 -0.138 0.849 -0.206 l-0.011 0.749 c-0.388 11.722 -0.984 35.532 -0.31 56.842 c0.8 25.313 3.351 49.151 4.618 59.797 l0.065 0.577 z" id="path3478" fill-opacity="1" inkscape:connector-curvature="0" />
      <g id="g3480" fill-opacity="1">
        <g id="g3482" fill-opacity="1">
          <path d="m48.65 117.465 c-1.028 -5.078 -1.629 -8.787 -1.64 -8.852 l-0.144 -2.224 C46.273 98.791 45.74 90.279 45.616 83.021 C45.469 74.439 45.531 65.858 45.629 59.44 l-0.035 -0.818 c0.247 -0.974 0.555 -1.995 0.938 -2.987 l-0.072 4.563 c-0.091 6.322 -0.143 14.564 -0.001 22.81 c0.157 9.182 0.97 20.38 1.731 29.18 l0.46 5.277 z" id="path3484" fill-opacity="1" inkscape:connector-curvature="0" />
        </g>
      </g>
      <g id="g3486" fill-opacity="1">
        <g id="g3488" fill-opacity="1">
          <path d="m55.968 144.563 c-0.583 -1.735 -1.251 -3.782 -1.944 -6.018 l-0.513 -3.002 C52.199 127.674 51.035 119.316 50.705 112.896 C48.989 91.555 48.902 66.92 49.01 53.807 l0.021 -2.413 c0.267 -0.296 0.543 -0.575 0.824 -0.838 l0.005 2.282 c-0.12 12.82 -0.073 38.141 1.685 60.002 c0.384 7.485 1.908 17.617 3.474 26.525 l0.949 5.198 z" id="path3490" fill-opacity="1" inkscape:connector-curvature="0" />
        </g>
      </g>
      <g id="g3492" fill-opacity="1">
        <g id="g3494" fill-opacity="1">
          <path d="m60.106 149.053 c-1.73 -8.651 -3.864 -21.41 -4.968 -35.999 C53.424 90.416 53.483 63.777 53.652 50.598 l0.02 -2.722 c-0.246 0.128 -0.539 0.289 -0.864 0.482 l0.001 2.269 c-0.168 13.209 -0.225 39.846 1.489 62.491 c1.1 14.532 3.22 27.256 4.949 35.933 l1.076 5.148 c0.186 0.213 0.383 0.423 0.592 0.626 c0.152 0.146 0.311 0.291 0.475 0.433 l-1.284 -6.205 z" id="path3496" fill-opacity="1" inkscape:connector-curvature="0" />
        </g>
      </g>
      <path d="M75.338 161.324 C74.555 154.188 73.172 139.736 72.599 122.294 C71.656 93.597 71.589 57.779 71.608 42.901 L71.6 42.176 c-0.287 0.058 -0.571 0.116 -0.851 0.175 l0.017 0.632 c-0.019 14.934 0.05 50.683 0.991 79.339 c0.561 17.055 1.895 31.258 2.688 38.577 l0.066 0.63 c0.288 0.095 0.58 0.188 0.876 0.279 l-0.049 -0.484 z" id="path3498" fill-opacity="1" inkscape:connector-curvature="0" />
      <path d="m57.445 46.209 c-0.311 0.121 -0.597 0.235 -0.858 0.342 l-0.016 1.283 c-0.282 13.393 -0.652 40.171 0.397 57.767 c1.488 24.952 4.571 42.639 6.095 50.236 l0.142 0.748 c0.323 0.206 0.691 0.426 0.994 0.6 L64.01 156.267 C62.541 149.065 59.336 131.144 57.809 105.551 C56.753 87.838 57.138 60.79 57.42 47.524 l0.025 -1.348" id="path3500" fill-opacity="1" inkscape:connector-curvature="0" />
      <path d="m78.826 40.946 c-0.285 0.041 -0.568 0.083 -0.851 0.124 l0.014 0.717 c-0.146 13.95 -0.333 41.538 0.112 65.691 c0.423 22.967 1.812 43.91 2.595 54.279 l0.1 1.442 c0.287 0.059 0.574 0.117 0.862 0.173 l-0.092 -1.273 C80.79 151.89 79.371 130.714 78.942 107.462 C78.496 83.281 78.685 55.655 78.831 41.731 l-0.005 -0.785 z" id="path3502" fill-opacity="1" inkscape:connector-curvature="0" />
      <path d="m82.401 40.476 c-0.288 0.035 -0.574 0.07 -0.86 0.106 l-0.002 0.699 c-0.218 11.374 -0.541 34.907 -0.069 58.338 c0.51 26.646 1.885 51.803 2.549 62.854 l0.076 1.337 c0.29 0.047 0.577 0.094 0.864 0.138 l-0.095 -1.461 C84.201 151.478 82.822 126.288 82.312 99.602 C81.84 76.135 82.165 52.565 82.383 41.226 l0.018 -0.75 z" id="path3504" fill-opacity="1" inkscape:connector-curvature="0" />
      <path d="m85.845 40.096 c-0.28 0.027 -0.561 0.057 -0.841 0.086 l-0.006 0.708 c-0.094 12.207 -0.224 37.87 0.065 62.769 c0.281 24.145 0.999 48.016 1.359 58.948 l0.051 1.567 c0.285 0.04 0.568 0.079 0.847 0.116 l-0.056 -1.688 c-0.36 -10.919 -1.079 -34.8 -1.359 -58.954 C85.614 78.635 85.747 52.85 85.841 40.719 l0.004 -0.623 z" id="path3506" fill-opacity="1" inkscape:connector-curvature="0" />
      <path d="m93.149 39.519 c-0.293 0.017 -0.586 0.034 -0.879 0.052 l0.021 0.477 c0.146 22.377 0.645 98.671 0.806 123.397 l0.014 1.48 c0.298 0.026 0.581 0.05 0.847 0.071 L93.94 163.501 C93.778 138.821 93.279 62.322 93.133 39.99 l0.016 -0.471 z" id="path3508" fill-opacity="1" inkscape:connector-curvature="0" />
      <path d="m96.694 39.359 c-0.285 0.009 -0.572 0.02 -0.859 0.03 l0.021 0.825 c0.043 23.682 0.179 99.978 0.22 122.892 l-0.013 2.038 c0.219 0.014 0.378 0.022 0.469 0.027 c0.048 0 0.179 0.003 0.385 0.005 l0.002 -2.125 C96.877 140.072 96.741 63.882 96.698 40.215 l-0.004 -0.856 z" id="path3510" fill-opacity="1" inkscape:connector-curvature="0" />
      <path d="m131.472 159.445 c1.217 -10.387 3.426 -31.854 4.361 -57.596 c0.697 -19.163 0.144 -44.87 -0.22 -57.725 l-0.065 -1.384 c0.354 0.085 0.697 0.17 1.033 0.255 l0.051 1.422 c0.363 12.971 0.903 38.438 0.211 57.469 c-0.934 25.709 -3.137 47.163 -4.358 57.6 l-0.146 1.19 c-0.301 0.104 -0.655 0.224 -1.062 0.355 l0.195 -1.586 z" id="path3512" fill-opacity="1" inkscape:connector-curvature="0" />
      <path d="m135.694 157.961 c0.984 -9.042 2.711 -26.914 3.752 -49.206 c0.999 -21.405 0.947 -49.041 0.826 -63.693 l-0.021 -1.066 c-0.326 -0.096 -0.666 -0.193 -1.02 -0.293 l0.029 1.264 c0.122 14.613 0.176 42.309 -0.824 63.741 c-1.053 22.562 -2.809 40.587 -3.785 49.495 l-0.188 1.615 c0.303 -0.14 0.66 -0.307 1.049 -0.491 l0.182 -1.366 z" id="path3514" fill-opacity="1" inkscape:connector-curvature="0" />
      <path d="m138.79 155.977 c1.191 -8.092 2.813 -21.325 3.732 -38.227 c1.368 -25.141 1.615 -57.214 1.654 -71.552 l-0.02 -0.952 c-0.285 -0.101 -0.619 -0.215 -1.001 -0.343 l0.011 0.962 c-0.036 14.161 -0.276 46.516 -1.654 71.83 c-0.957 17.59 -2.674 31.19 -3.872 39.139 l-0.233 1.563 c0.373 -0.189 0.746 -0.384 1.105 -0.577 l0.278 -1.843 z" id="path3516" fill-opacity="1" inkscape:connector-curvature="0" />
      <path d="m147.633 145.489 c0 0 0.907 -2.535 2.026 -6.161 l0.424 -2.818 c1.378 -9.352 2.832 -21.017 3.797 -33.656 c1.283 -16.825 1.003 -37.319 0.646 -49.656 l-0.078 -2.328 c-0.336 -0.35 -0.689 -0.681 -1.057 -0.991 l0.082 1.895 c0.373 12.105 0.73 33.542 -0.602 51.004 c-1.12 14.677 -2.901 28.035 -4.455 37.972 l-0.783 4.739 z" id="path3518" fill-opacity="1" inkscape:connector-curvature="0" />
    </g>
    <g transform="matrix(0.964783, 0, 0, 1.00479, 5.845508, 0.2682941)" id="g3265">
      <g transform="matrix(1.440544, 0, 0, 1.646588, 74.27007, 97.69907)" id="Warstwa_x0020_1" fill-rule="evenodd" fill-opacity="1" style="fill:#1A1A1A;stroke:none;">
        <metadata id="CorelCorpID_0Corel-Layer" />
        <g id="_217956912" fill-opacity="1">
          <polygon points="21.5469,39.6206 21.5469,30.8704 12.6127,30.8704 12.646,8.8448 24.3103,8.8448 24.2474,0.0003 0,0.0003 2.1917,67.6912 12.8464,67.6912 12.6127,39.6206" id="_217961256" fill-opacity="1" class="fil0" />
          <polygon points="28.4587,0.0003 29.8066,67.6912 40.8086,67.6912 41.032,0.0003" id="_217958256" fill-opacity="1" class="fil0" />
          <polygon points="99.1204,67.6912 101.381,8.5285 110,8.5285 109.934,0.0003 80.0356,0.0003 80.0356,8.5383 88.7262,8.5383 88.4761,67.6912" id="_217960584" fill-opacity="1" class="fil0" />
          <path d="m57.6233 31.329 l0.1206 -22.9925 l6.1426 0 c2.785 5.1209 4.5745 11.8928 5.9774 22.9925 l-12.2406 0 z m-9.8151 36.3603 l1.079 0 l7.9406 0 l1.1653 0 l0.1136 -27.9908 l12.204 0 c0.9593 4.9406 1.1944 20.191 1.2517 27.9908 l1.009 0 l7.9711 0 l0.9002 0 C82.3748 33.1316 79.479 13.5982 71.4779 -0.0002 l-24.6018 0 l0.9321 67.6895 z" id="_217960752" fill-opacity="1" inkscape:connector-curvature="0" class="fil0" />
        </g>
      </g>
      <g transform="matrix(1.444163, 0, 0, 1.64656, 76.07, 95.70238)" id="Warstwa_x0020_1-5" fill-rule="evenodd" fill-opacity="1" style="fill:url(&quot;#radialGradient3292&quot;);stroke:none;">
        <metadata id="CorelCorpID_0Corel-Layer-5" />
        <g id="_217956912-1" fill-opacity="1" style="fill:url(&quot;#radialGradient3290&quot;);">
          <polygon points="21.5469,30.8704 12.6127,30.8704 12.646,8.8448 24.3103,8.8448 24.2474,0.0003 0,0.0003 2.1917,67.6912 12.8464,67.6912 12.6127,39.6206 21.5469,39.6206" id="_217961256-7" fill-opacity="1" class="fil0" style="fill:url(&quot;#radialGradient3281&quot;);" />
          <polygon points="41.032,0.0003 28.4587,0.0003 29.8066,67.6912 40.8086,67.6912" id="_217958256-1" fill-opacity="1" class="fil0" style="fill:url(&quot;#radialGradient3283&quot;);" />
          <polygon points="88.4761,67.6912 99.1204,67.6912 101.381,8.5285 110,8.5285 109.934,0.0003 80.0356,0.0003 80.0356,8.5383 88.7262,8.5383" id="_217960584-1" fill-opacity="1" class="fil0" style="fill:url(&quot;#radialGradient3286&quot;);" />
          <path d="m57.6233 31.329 l0.1206 -22.9925 l6.1426 0 c2.785 5.1209 4.5745 11.8928 5.9774 22.9925 l-12.2406 0 z m-9.8151 36.3603 l1.079 0 l7.9406 0 l1.1653 0 l0.1136 -27.9908 l12.204 0 c0.9593 4.9406 1.1944 20.191 1.2517 27.9908 l1.009 0 l7.9711 0 l0.9002 0 C82.3748 33.1316 79.479 13.5982 71.4779 -0.0002 l-24.6018 0 l0.9321 67.6895 z" id="_217960752-5" fill-opacity="1" inkscape:connector-curvature="0" class="fil0" style="fill:url(&quot;#radialGradient3288&quot;);" />
        </g>
      </g>
    </g>
  </g>
</svg>