<?xml version="1.0" encoding="UTF-8"?><svg id="Calque_2" xmlns="http://www.w3.org/2000/svg" width="120.29" height="77.66" viewBox="0 0 120.29 77.66"><defs><style>.cls-1{fill:#1c1c1c;}.cls-1,.cls-2{stroke-width:0px;}.cls-2{fill:#fff;}</style></defs><g id="Layer_1"><path class="cls-1" d="M109.64,53.98H22.47l5.27,23.68L4.99,58.86c-1.27-1.05-2.41-2.29-3.23-3.72-1.15-2.02-1.77-4.33-1.77-6.69V10.65C0,4.77,4.77,0,10.65,0h98.99c5.88,0,10.65,4.77,10.65,10.65v32.68c0,5.88-4.77,10.65-10.65,10.65h0Z"/><path class="cls-2" d="M40.66,14.07c-.29-1-.71-1.98-1.16-2.48-.56-.58-.9-.69-2.17-.69h-1.98c-.9,0-1,.05-1,.95v5.76h2.82c1.56,0,1.77-.39,2.17-2.25h.98v5.86h-1c-.29-1.8-.69-2.25-2.14-2.25h-2.82v4.12c0,2.43.16,2.61,2.54,2.77v.98h-8.45v-.98c2.01-.18,2.24-.34,2.24-2.77v-9.72c0-2.35-.24-2.56-2.24-2.72v-.98h8.95c2.27,0,3.59-.03,4.01-.05.03.45.16,2.72.29,4.28l-1.03.16h0Z"/><path class="cls-2" d="M60.2,27c-.16,0-.47,0-.79-.03-3.35-.16-4.33-.87-5.12-1.98-1.06-1.45-1.82-3.06-2.72-4.65-.4-.71-.76-.87-1.61-.87l-.53-.03v3.86c0,2.14.26,2.32,2.25,2.56v.98h-8.08v-.98c2.01-.21,2.24-.42,2.24-2.56v-10.11c0-2.09-.26-2.38-2.24-2.54v-.98h7.66c2.35,0,3.7.26,4.78,1,1.06.71,1.77,1.88,1.77,3.51,0,2.35-1.56,3.59-3.3,4.28.4.79,1.43,2.51,2.22,3.72.92,1.45,1.5,2.17,2.01,2.75.61.68.9.9,1.66,1.16l-.19.9h0ZM50.14,18.37c1.14,0,2.01-.18,2.59-.69.87-.74,1.24-1.74,1.24-3.09,0-2.8-1.61-3.8-3.09-3.8-.71,0-1.06.11-1.21.26-.19.16-.24.47-.24,1v6.31h.71Z"/><path class="cls-2" d="M75.8,22.36c-.13.71-.87,3.75-1.11,4.49h-13.71v-.95c2.4-.24,2.56-.37,2.56-2.59v-10.09c0-2.25-.32-2.4-2.11-2.56v-.98h8.58c2.77,0,3.7-.03,4.07-.05.03.47.16,2.64.26,4.28l-1.03.13c-.24-.9-.69-1.98-1.14-2.46-.48-.53-.82-.69-2.17-.69h-1.72c-1,0-1.11.05-1.11.95v5.52h2.59c1.48,0,1.74-.4,2.14-2.27h1.03v5.89h-1.03c-.42-1.95-.64-2.27-2.17-2.27h-2.56v4.54c0,1.82.05,2.38,1.69,2.4h1.88c1.48,0,1.87-.19,2.46-.9.66-.76,1.19-1.74,1.61-2.64l.97.24h0Z"/><path class="cls-2" d="M91.86,22.36c-.13.71-.87,3.75-1.11,4.49h-13.71v-.95c2.4-.24,2.56-.37,2.56-2.59v-10.09c0-2.25-.32-2.4-2.11-2.56v-.98h8.58c2.77,0,3.7-.03,4.07-.05.03.47.16,2.64.26,4.28l-1.03.13c-.24-.9-.69-1.98-1.13-2.46-.48-.53-.82-.69-2.17-.69h-1.72c-1,0-1.11.05-1.11.95v5.52h2.59c1.48,0,1.74-.4,2.14-2.27h1.03v5.89h-1.03c-.42-1.95-.64-2.27-2.17-2.27h-2.56v4.54c0,1.82.05,2.38,1.69,2.4h1.88c1.48,0,1.87-.19,2.45-.9.66-.76,1.19-1.74,1.61-2.64l.98.24h0Z"/><path class="cls-2" d="M20.06,32.25c2.4,0,4.16.51,5.36,1.63.96.88,1.69,2.19,1.69,4.09,0,2.16-.9,3.81-2.34,4.89-1.39,1.05-3.17,1.57-5.31,1.57h-5.16v-.69c1.43-.11,1.59-.28,1.59-1.84v-7.12c0-1.57-.21-1.72-1.59-1.84v-.69h5.76ZM18.51,41.78c0,1.33.34,1.78,1.71,1.78,2.53,0,3.99-1.76,3.99-5.31,0-1.78-.49-3.34-1.35-4.14-.79-.79-1.76-1.05-3.02-1.05-.69,0-1.01.15-1.12.26-.17.17-.21.49-.21,1.03v7.42h0Z"/><path class="cls-2" d="M39.03,41.25c-.09.51-.62,2.66-.79,3.19h-9.73v-.68c1.71-.17,1.82-.26,1.82-1.84v-7.16c0-1.59-.22-1.71-1.5-1.82v-.69h6.09c1.97,0,2.62-.02,2.89-.04.02.34.11,1.88.19,3.04l-.73.09c-.17-.64-.49-1.41-.81-1.74-.34-.38-.58-.49-1.54-.49h-1.22c-.71,0-.79.04-.79.67v3.92h1.84c1.05,0,1.24-.28,1.52-1.61h.73v4.18h-.73c-.3-1.39-.45-1.61-1.54-1.61h-1.82v3.22c0,1.29.04,1.69,1.2,1.71h1.33c1.05,0,1.33-.13,1.74-.64.47-.54.84-1.24,1.14-1.88l.69.17h0Z"/><path class="cls-2" d="M50.08,41.14c-.15.81-.68,2.79-.84,3.3h-9.3v-.69c1.65-.11,1.8-.24,1.8-1.82v-7.14c0-1.57-.19-1.72-1.59-1.84v-.69h5.85v.69c-1.46.13-1.65.26-1.65,1.84v7.27c0,1.03.04,1.5,1.07,1.52.04.02.9.02.97.02,1.07,0,1.35-.23,1.8-.73.36-.37.84-1.18,1.18-1.95l.71.22Z"/><path class="cls-2" d="M50.96,44.44v-.69c1.42-.13,1.59-.24,1.59-1.82v-7.14c0-1.57-.19-1.72-1.59-1.84v-.69h5.79v.69c-1.41.13-1.59.26-1.59,1.84v7.14c0,1.56.17,1.67,1.59,1.82v.69h-5.79Z"/><path class="cls-2" d="M70.59,32.94c-1.24.13-1.61.3-2.32,2.08-.58,1.44-2.51,6.09-3.9,9.62h-1.03c-.53-1.46-2.96-7.89-3.75-9.88-.58-1.41-.83-1.71-2.04-1.82v-.69h5.72l-.02.69c-1.37.19-1.37.32-1.07,1.11.58,1.57,1.99,5.44,2.62,7.09,1.12-2.68,2.14-5.23,2.57-6.45.47-1.29.34-1.57-1.24-1.74v-.69h4.46s0,.69,0,.69Z"/><path class="cls-2" d="M81.67,41.25c-.09.51-.62,2.66-.79,3.19h-9.73v-.68c1.71-.17,1.82-.26,1.82-1.84v-7.16c0-1.59-.22-1.71-1.5-1.82v-.69h6.09c1.97,0,2.62-.02,2.89-.04.02.34.11,1.88.19,3.04l-.73.09c-.17-.64-.49-1.41-.81-1.74-.34-.38-.58-.49-1.54-.49h-1.22c-.71,0-.79.04-.79.67v3.92h1.84c1.05,0,1.24-.28,1.52-1.61h.73v4.18h-.73c-.3-1.39-.45-1.61-1.54-1.61h-1.82v3.22c0,1.29.04,1.69,1.2,1.71h1.33c1.05,0,1.33-.13,1.74-.64.47-.54.84-1.24,1.14-1.88l.69.17h0Z"/><path class="cls-2" d="M94.56,44.55c-.11,0-.34,0-.56-.02-2.38-.11-3.07-.62-3.64-1.41-.75-1.03-1.29-2.18-1.93-3.3-.28-.51-.54-.62-1.14-.62l-.38-.02v2.74c0,1.52.19,1.65,1.59,1.82v.69h-5.74v-.69c1.43-.15,1.59-.3,1.59-1.82v-7.18c0-1.48-.19-1.69-1.59-1.8v-.69h5.44c1.67,0,2.62.19,3.39.71.75.51,1.26,1.33,1.26,2.49,0,1.67-1.11,2.55-2.34,3.04.28.56,1.01,1.78,1.57,2.64.65,1.03,1.07,1.54,1.42,1.95.43.49.64.64,1.18.82l-.13.64h0ZM87.42,38.42c.81,0,1.42-.13,1.84-.49.62-.53.88-1.24.88-2.19,0-1.99-1.14-2.7-2.19-2.7-.51,0-.75.07-.86.19-.13.11-.17.34-.17.71v4.48h.51Z"/><path class="cls-2" d="M105.98,32.94c-1.2.13-1.63.39-2.31,1.54-.68,1.16-1.26,2.19-2.18,4.07-.15.3-.21.53-.21.99v2.32c0,1.63.15,1.69,1.69,1.88v.69h-5.93v-.69c1.48-.19,1.61-.24,1.61-1.88v-2.15c0-.41-.07-.6-.21-.86-.54-1.11-1.24-2.36-2.36-4.33-.69-1.22-.98-1.46-2.06-1.57v-.69h5.49v.69c-1.26.17-1.22.41-.9,1.07.62,1.22,1.42,2.72,2.14,4.09.56-1.05,1.46-2.85,1.99-3.99.36-.75.21-.99-1.14-1.16v-.69h4.37v.69h0Z"/></g></svg>