<?xml version="1.0" encoding="UTF-8"?><svg id="Calque_2" xmlns="http://www.w3.org/2000/svg" width="95.47" height="38.88" viewBox="0 0 95.47 38.88"><defs><style>.cls-1{fill:#e62e2e;}.cls-1,.cls-2,.cls-3{stroke-width:0px;}.cls-4,.cls-3{isolation:isolate;}.cls-2{fill:#fff;}.cls-3{fill:#000;mix-blend-mode:multiply;opacity:.5;}</style></defs><g id="Calque_1-2"><g class="cls-4"><g id="Layer_1"><path class="cls-1" d="M95.31,19.44c.09-.75.16-1.5.16-2.28,0-9.48-7.24-17.16-16.18-17.16H16.18C7.24,0,0,7.68,0,17.16c0,.77.06,1.53.16,2.28-.09.75-.16,1.5-.16,2.28,0,9.48,7.24,17.16,16.18,17.16h63.11c8.94,0,16.18-7.68,16.18-17.16,0-.78-.07-1.53-.16-2.28h0Z"/><path class="cls-2" d="M33.35,20.32v-.14s2.55,0,2.55,0v.09c.11.95,1.14,1.59,2.62,1.59s2.39-.68,2.39-1.65h0c0-.85-.62-1.31-2.2-1.64l-1.34-.27c-2.64-.54-3.78-1.77-3.78-3.7h0c0-2.37,2.03-3.93,4.84-3.93,2.97,0,4.71,1.57,4.88,3.69v.11s-2.49,0-2.49,0l-.02-.11c-.15-.91-1.03-1.54-2.37-1.54-1.31,0-2.18.61-2.18,1.56h0c0,.84.62,1.33,2.11,1.64l1.35.27c2.69.56,3.86,1.63,3.86,3.61h0c0,2.53-1.96,4.12-5.12,4.12s-4.96-1.45-5.11-3.71h0Z"/><path class="cls-2" d="M49.94,10.99h3.12l4.42,12.71h-2.8l-.94-3.08h-4.48l-.94,3.08h-2.79l4.41-12.71h0ZM49.87,18.63h3.27l-1.55-5.1h-.16l-1.56,5.1Z"/><path class="cls-2" d="M60,10.99h2.66v10.51h5.65v2.19h-8.31v-12.71h0Z"/><path class="cls-2" d="M71.07,10.99h8.42v2.19h-5.76v3.06h5.43v2.04h-5.43v3.21h5.76v2.19h-8.42v-12.71h0Z"/><path class="cls-2" d="M15.24,23.44s-.02-.01-.03-.02c-.67-.49-.8-1.42-.31-2.08l7.19-9.59c.49-.65,1.42-.79,2.07-.3l.03.02c.66.49.79,1.42.3,2.08l-7.19,9.59c-.49.65-1.41.79-2.06.31h0Z"/><path class="cls-2" d="M15.94,9.96c1.37-.02,2.46,1.19,2.24,2.62-.11.72-.61,1.36-1.27,1.66-1.57.72-3.2-.52-3.2-2.04,0-1.19,1.03-2.22,2.23-2.24h0Z"/><path class="cls-2" d="M23.34,20.43c.91-.04,1.78.52,2.16,1.35.69,1.54-.58,3.15-2.1,3.13-1.21-.01-2.21-1.03-2.21-2.25,0-1.22.93-2.18,2.15-2.23h0Z"/><path class="cls-3" d="M79.29,34.32H16.18C7.97,34.32,1.21,27.84.16,19.44.07,20.19,0,20.94,0,21.72,0,31.19,7.25,38.88,16.18,38.88h63.11c8.94,0,16.18-7.68,16.18-17.16,0-.77-.07-1.53-.16-2.28-1.05,8.4-7.82,14.88-16.02,14.88h0Z"/></g></g></g></svg>