<?xml version="1.0" encoding="UTF-8"?><svg id="Calque_2" xmlns="http://www.w3.org/2000/svg" width="123.38" height="101.75" viewBox="0 0 123.38 101.75"><defs><style>.cls-1{fill:#e62e2e;}.cls-1,.cls-2,.cls-3{stroke-width:0px;}.cls-4,.cls-3{isolation:isolate;}.cls-2{fill:#fff;}.cls-3{fill:#000;mix-blend-mode:multiply;opacity:.5;}</style></defs><g id="Calque_1-2"><g class="cls-4"><g id="Layer_1"><path class="cls-1" d="M112.29,42.91h-10.89L69.51,3.54C67.53,1.29,64.68,0,61.69,0s-5.85,1.29-7.82,3.54l-31.89,39.37h-10.89c-6.12,0-11.09,4.97-11.09,11.09v36.66c0,6.12,4.97,11.09,11.09,11.09h101.2c6.12,0,11.09-4.96,11.09-11.09v-36.66c0-6.12-4.96-11.09-11.09-11.09h0ZM57.39,6.63c1.08-1.24,2.65-1.95,4.29-1.95s3.21.71,4.29,1.95l29.18,36.28H28.22L57.4,6.63h0Z"/><path class="cls-2" d="M19.36,82.86v-20.53c0-2.24,1.15-3.36,3.5-3.36h11.53c1.32,0,2.24.89,2.24,2.18s-.91,2.16-2.24,2.16h-9.78v7.41h8.79c1.36,0,2.24.84,2.24,2.12s-.89,2.12-2.24,2.12h-8.79v7.91c0,1.81-.93,2.84-2.59,2.84s-2.66-1.05-2.66-2.84h0Z"/><path class="cls-2" d="M42.75,85.7c-1.67,0-2.64-1.05-2.64-2.84v-19.89c0-2.76,1.21-4,3.97-4h6.79c5.68,0,9.2,3.11,9.2,8.13,0,3.36-1.73,6.05-4.69,7.29l3.85,7.06c.29.52.47,1.19.47,1.75,0,1.42-1.11,2.43-2.61,2.43-1.38,0-2.12-.58-2.99-2.29l-3.91-7.7h-4.82v7.23c0,1.79-.95,2.84-2.61,2.84ZM50.1,71.7c2.97,0,4.69-1.48,4.69-4.2s-1.73-4.24-4.63-4.24h-4.8v8.44s4.74,0,4.74,0Z"/><path class="cls-2" d="M64.64,62.33c0-2.24,1.15-3.36,3.5-3.36h11.75c1.32,0,2.22.88,2.22,2.16s-.89,2.14-2.22,2.14h-10.03v6.81h9.49c1.24,0,2.08.8,2.08,2.02s-.84,2-2.08,2h-9.49v7.12h9.97c1.38,0,2.28.86,2.28,2.16s-.89,2.14-2.28,2.14h-11.69c-2.35,0-3.5-1.11-3.5-3.36v-19.81h0Z"/><path class="cls-2" d="M86.55,62.33c0-2.24,1.15-3.36,3.5-3.36h11.74c1.32,0,2.22.88,2.22,2.16s-.89,2.14-2.22,2.14h-10.03v6.81h9.49c1.24,0,2.08.8,2.08,2.02s-.84,2-2.08,2h-9.49v7.12h9.98c1.38,0,2.27.86,2.27,2.16s-.89,2.14-2.27,2.14h-11.69c-2.35,0-3.5-1.11-3.5-3.36v-19.81h0Z"/><path class="cls-3" d="M57.39,6.63c1.08-1.24,2.65-1.95,4.29-1.95s3.21.71,4.29,1.95l29.18,36.28h6.24L69.51,3.54c-1.97-2.25-4.82-3.54-7.82-3.54s-5.85,1.29-7.82,3.54l-31.89,39.37h6.24L57.4,6.63h0Z"/></g></g></g></svg>