<?xml version="1.0" encoding="UTF-8"?>
<svg id="Calque_2" data-name="Calque 2" xmlns="http://www.w3.org/2000/svg" viewBox="0 0 533 150">
  <defs>
    <style>
      .cls-1 {
        fill: #fa7221;
      }

      .cls-1, .cls-2, .cls-3 {
        stroke-width: 0px;
      }

      .cls-2 {
        fill: #2c37ff;
      }

      .cls-3 {
        fill: #fff;
      }
    </style>
  </defs>
  <g id="Calque_1-2" data-name="Calque 1">
    <g>
      <rect class="cls-3" x="0" width="533" height="150" rx="28.61" ry="28.61"/>
      <path class="cls-2" d="m63.02,88.29c-.01.37-.02.73-.04,1.1-.37.21-.32.57-.3.9.02.39-.15.85.3,1.13,0,.11.01.21.02.32,0,.15-.01.31-.02.46-.1.31-.21.62-.31.92-.47.53-.93,1.05-1.4,1.58-.1.1-.21.21-.31.31-.31.07-.52.28-.71.53-.18.24-.37.48-.55.71-.34.11-.57.35-.77.63-.62.16-1.06.6-1.56.94-.38.11-.77.2-1.09.46-.16.05-.32.11-.47.16-.16.05-.31.1-.47.15-.16.05-.32.11-.47.16-.15.05-.31.1-.46.15-.16.05-.32.11-.47.16-.1,0-.2.02-.3.03-1.01.33-2.04.61-3.03,1-1.02.4-1.99.9-2.89,1.53-.21.15-.43.29-.5.57h0c-.17.06-.37.08-.5.18-.85.65-1.63,1.37-2.16,2.32-.15.21-.31.41-.46.62-.11.16-.21.32-.32.48-.05.1-.11.2-.16.3-.34.3-.5.69-.62,1.1-.32.36-.43.83-.6,1.26h-.01c-.1,0-.2,0-.3-.01-.32-.46-.63-.93-1.11-1.24h0c-.26-.41-.52-.82-.93-1.11-.05-.05-.09-.1-.14-.15-.24-.48-.53-.92-.95-1.25h0c-.16-.44-.4-.82-.78-1.09h0c-.08-.19-.14-.39-.25-.56-.38-.64-.78-1.28-1.18-1.91-.08-.13-.2-.23-.3-.35-.05-.1-.1-.2-.15-.3-.47-.94-.94-1.88-1.41-2.82-.06-.15-.11-.31-.17-.46-.08-.35-.23-.67-.45-.95-.11-.31-.22-.62-.33-.93-.1-.26-.2-.52-.31-.79-.02-.39-.1-.76-.33-1.09-.1-.26-.19-.53-.29-.79-.11-.47-.22-.93-.33-1.4-.1-.32-.19-.63-.29-.95-.05-.26-.11-.52-.16-.78-.02-.37.03-.75-.17-1.09-.05-.21-.1-.42-.15-.63-.05-.21-.09-.43-.14-.64-.04-.57.05-1.15-.17-1.71,0-.26-.02-.52-.02-.78-.05-.57-.09-1.15-.14-1.72,0-.36,0-.73,0-1.09,0-.37,0-.73,0-1.1,0-.36,0-.73,0-1.09.05-.57.09-1.15.14-1.72,0-.26.01-.52.02-.78.23-.55.14-1.14.17-1.71.05-.26.1-.53.15-.79.1-.42.19-.84.29-1.26.1-.47.21-.93.31-1.4.06-.31.12-.62.18-.94.05-.16.1-.31.15-.47.06-.26.11-.51.17-.77.05-.16.1-.32.15-.48.05-.15.1-.31.16-.46.26-.44.39-.91.48-1.41.35-.59.6-1.22.76-1.88.21-.22.3-.48.33-.78.29-.25.36-.6.46-.94.16-.31.31-.63.47-.94.1-.21.21-.41.31-.62.28-.43.58-.86.84-1.31.36-.6.69-1.22,1.03-1.82h0c.08-.07.16-.13.23-.21.76-1.02,1.51-2.05,2.27-3.08h0c.15-.14.3-.28.44-.44.81-.88,1.6-1.78,2.43-2.64.32-.34.72-.6,1.05-.93.83-.84,1.77-1.54,2.68-2.26,1.45-1.15,3.02-2.13,4.63-3.04,1.56-.89,3.18-1.67,4.86-2.31,1.46-.55,2.96-.99,4.44-1.48.15-.05.29-.11.43-.17.1,0,.2-.01.31-.02.37-.1.73-.2,1.1-.3.21-.05.42-.1.63-.14.26-.05.53-.11.79-.16.42-.03.85.05,1.24-.17l.62-.03c.26-.05.52-.09.79-.14.1,0,.21,0,.31,0,.58.04,1.15-.05,1.72-.15.31,0,.62,0,.94-.01.94,0,1.88,0,2.82,0,.47.04.94.08,1.41.13.31.01.63.02.94.03.21.04.41.08.62.12.16,0,.32.02.48.02.26.05.52.09.78.14.41.02.83.04,1.24.07.29.17.61.26.95.27.1,0,.21.01.31.02.31.09.62.19.94.28.16.01.31.02.47.03.26.09.52.19.78.28.11,0,.21.02.32.03.26.1.52.19.78.29.15.01.31.03.46.04.25.12.5.26.76.36.65.25,1.3.49,1.95.73.56.21,1.11.41,1.67.62.15.06.31.11.46.17.55.47,1.18.77,1.88.94.16.1.32.2.47.3.23.16.46.33.7.49,1.2.78,2.4,1.56,3.6,2.33.17.11.36.21.54.31h0c.4.45.87.82,1.41,1.1.16.15.32.3.48.45.16.17.3.36.47.51,1.18,1.01,2.27,2.1,3.28,3.28.23.27.52.5.78.75h0c.33.59.75,1.11,1.25,1.56h0c.05.2.15.35.32.46.05.05.1.11.15.16l.32.46c.05.06.1.11.14.17.54.85,1.07,1.71,1.61,2.56.03.04.08.07.11.1.05.1.1.2.16.3.1.16.21.32.31.48.1.2.21.41.31.61.18.56.44,1.09.79,1.56.15.31.31.63.46.94.05.11.1.21.16.32.13.42.18.88.48,1.24.05.11.1.21.15.32.17.52.33,1.04.5,1.56.09.21.19.42.28.63.16.63.33,1.25.48,1.88.12.48.21.96.33,1.44.09.35.2.7.3,1.04.04.11.09.22.13.33.02.31.02.62.05.93.09.84.2,1.69.31,2.53.02.15.08.29.13.44,0,.21.01.41.02.62,0,.11-.01.21-.02.32-.22.15-.22.17,0,.31h.03c0,.15-.02.3,0,.45.18,1.28.17,2.57,0,3.85,0,.08,0,.15,0,.23,0,.26-.01.52-.02.78,0,.26-.01.52-.02.78-.05.23-.11.45-.14.68-.04.26-.05.52-.09.77-.12.82-.25,1.64-.37,2.46-.16.73-.32,1.46-.48,2.19,0,.1-.01.2-.02.3-.14.36-.28.73-.41,1.09-.5,1.39-.99,2.79-1.5,4.19-.19.54-.4,1.07-.6,1.61-.29.24-.42.57-.46.93-.36.55-.77,1.07-.94,1.73-.05.1-.11.2-.16.3-.22.32-.45.63-.66.95-.51.78-1.01,1.56-1.52,2.34-.1.15-.21.31-.31.46-.79.74-1.37,1.66-2.03,2.51-.1.11-.2.21-.31.32-.15.11-.3.21-.45.32h-.48c-.23-.48-.44-.95-.68-1.41-.98-1.8-2.23-3.38-3.88-4.63-1.17-.88-2.4-1.64-3.8-2.11-1.73-.57-3.45-1.16-5.18-1.72-1.05-.34-2.02-.83-2.9-1.49-.22-.17-.5-.27-.75-.4h0c-.09-.15-.15-.34-.27-.46-.53-.53-1.06-1.06-1.62-1.55-.31-.28-.6-.57-.81-.92-.16-.26-.3-.54-.45-.81-.1-.73-.2-1.46-.29-2.19,0-.36,0-.73,0-1.09,0-.18.01-.36,0-.54-.04-.74.15-1.41.54-2.04.23-.36.37-.78.54-1.18.33-.42.57-.87.62-1.41.23-.39.15-.82.18-1.24.05-.26.1-.52.15-.79.1-.37.2-.73.3-1.1.82-.25,1.34-.82,1.7-1.57.11-.47.22-.93.34-1.4.06-.21.11-.42.17-.63.05-.16.1-.31.14-.47.18-.29.15-.62.15-.94v-1.41c.03-.39-.05-.75-.32-1.05-.13-.15-.22-.34-.33-.51,0-.63,0-1.26,0-1.88,0-.31.01-.62.02-.94,0-.21,0-.42,0-.63,0-.05,0-.1,0-.15,0-.21,0-.42,0-.63-.05-.26-.09-.53-.14-.79-.03-.42.04-.85-.17-1.24l-.15-.63c-.11-.69-.13-1.39-.47-2.03-.06-.78-.27-1.53-.61-2.23-.36-.74-.76-1.47-1.43-2-.15-.15-.31-.31-.46-.46-.97-1.1-2.21-1.76-3.6-2.17-.21-.06-.42-.11-.63-.17-.28-.19-.6-.28-.94-.29-.1,0-.21-.01-.31-.02-.37-.09-.73-.18-1.1-.27-.26-.01-.52-.02-.78-.03-.16,0-.31,0-.47,0-.26,0-.52,0-.78,0-.21,0-.42,0-.63,0-.26,0-.52,0-.78,0-.16,0-.31,0-.47.01-.26.05-.52.09-.78.14-.32,0-.65-.02-.94.16-.21.05-.42.1-.63.15-.27.01-.54.01-.77.18-.39.09-.78.18-1.11.44-.59.12-1.13.35-1.57.79-.16.1-.31.21-.47.31-.51.26-.99.57-1.25,1.11h0c-.21.19-.46.36-.63.58-.29.37-.52.78-.78,1.17-.25.37-.42.78-.46,1.23-.25.6-.47,1.21-.48,1.87-.05.21-.1.43-.15.64-.06.26-.11.51-.17.77-.05.16-.1.32-.14.48-.1.47-.2.94-.29,1.41,0,.16-.01.31-.02.47-.05.31-.1.63-.16.94-.29.21-.29.25,0,.47.02.42-.02.85.16,1.25,0,.21,0,.42,0,.62,0,.16-.01.31-.02.47-.37.35-.37.43,0,.78h.03c-.13.24-.25.48-.38.72-.09.18-.19.35-.28.52-.15.25-.14.51-.11.78,0,.26,0,.52,0,.78.04.21.07.42.11.62-.1.25-.06.47.15.64,0,.1.02.2.02.3,0,.3.1.56.29.8.06.26.11.51.17.77.07.9.55,1.53,1.31,1.98.2.12.4.24.59.36.1.59.18,1.18.3,1.77.09.46.21.91.32,1.36.05.62.46,1.07.77,1.57.14.32.26.66.43.97.23.43.39.88.4,1.37Z"/>
      <polygon class="cls-1" points="171 96.94 152.46 103.53 153 83.86 141 68.26 159.88 62.7 171 46.47 182.12 62.7 201 68.26 189 83.86 189.54 103.53 171 96.94"/>
      <polygon class="cls-1" points="246 96.94 227.46 103.53 228 83.86 216 68.26 234.88 62.7 246 46.47 257.12 62.7 276 68.26 264 83.86 264.54 103.53 246 96.94"/>
      <polygon class="cls-1" points="321 96.94 302.46 103.53 303 83.86 291 68.26 309.88 62.7 321 46.47 332.12 62.7 351 68.26 339 83.86 339.54 103.53 321 96.94"/>
      <polygon class="cls-1" points="396 96.94 377.46 103.53 378 83.86 366 68.26 384.88 62.7 396 46.47 407.12 62.7 426 68.26 414 83.86 414.54 103.53 396 96.94"/>
      <polygon class="cls-1" points="471 96.94 452.46 103.53 453 83.86 441 68.26 459.88 62.7 471 46.47 482.12 62.7 501 68.26 489 83.86 489.54 103.53 471 96.94"/>
    </g>
  </g>
</svg>