<?xml version="1.0" encoding="utf-8"?>
<!DOCTYPE svg PUBLIC "-//W3C//DTD SVG 1.1//EN" "http://www.w3.org/Graphics/SVG/1.1/DTD/svg11.dtd">
<svg version="1.1" xmlns="http://www.w3.org/2000/svg" xmlns:xlink="http://www.w3.org/1999/xlink" xmlns:xml="http://www.w3.org/XML/1998/namespace" xmlns:dc="http://purl.org/dc/elements/1.1/" xmlns:cc="http://creativecommons.org/ns#" xmlns:rdf="http://www.w3.org/1999/02/22-rdf-syntax-ns#" width="1000" height="1000" viewBox="0, 0, 90.85714, 90.85714" id="svg2">
  <metadata id="metadata27" />
  <defs id="defs25" />
  <desc id="desc6">Created with Sketch.</desc>
  <g transform="scale(1.714286)" id="BMW-logo-grey-fallback-53px" fill-rule="evenodd" stroke-width="1" style="fill:none;stroke:none;">
    <g id="BMW-logo">
      <g id="BMW-logo-fallback">
        <g id="BMW_Grey-Colour_RGB-2">
          <g id="BMW_Grey-Colour_RGB" fill-rule="nonzero">
            <g id="g3375">
              <g transform="translate(45.93334, 1.766667)" id="g3381">
                <g transform="translate(-45.93334, -1.766667)" id="g3355" fill-rule="nonzero" stroke-width="1">
                  <path d="m42.2037 26.5 c0 8.678608 -7.025096 15.7037 -15.7037 15.7037 L26.5 26.5 l15.7037 0 z M26.5 10.7963 L26.5 26.5 l-15.7037 0 c0 -8.678608 7.025095 -15.7037 15.7037 -15.7037 z" id="path21" style="fill:#0166B1;" />
                </g>
                <path d="m-19.43334 9.029632 c8.678608 0 15.7037 7.025095 15.7037 15.7037 l-15.7037 0 l0 -15.7037 z m-15.7037 15.7037 l15.7037 0 l0 15.7037 c-8.678609 0 -15.7037 -7.025095 -15.7037 -15.7037 z" id="path21-3" fill-rule="nonzero" stroke-width="1" style="fill:white;" />
              </g>
            </g>
            <g id="g3393">
              <path d="m26.5 10.7963 l0 0.86101 l0 0 c8.183489 0 14.84269 6.657648 14.84269 14.84269 l0.86101 0 c0 -8.672381 -7.031321 -15.7037 -15.7037 -15.7037 l0 0 m0 30.5464 c-8.183489 0 -14.84269 -6.657648 -14.84269 -14.84269 l-0.86101 0 c0 8.672381 7.031323 15.7037 15.7037 15.7037 m0 -42.2037 C11.86486 1.847299E-07 1.03473E-06 11.86486 1.03473E-06 26.5 C1.03473E-06 41.13514 11.86486 53 26.5 53 C41.13514 53 53 41.13514 53 26.5 C53 11.86486 41.13514 1.847299E-07 26.5 1.847299E-07 l0 0 z M51.27675 26.5 c0 13.68315 -11.09204 24.77675 -24.77675 24.77675 c-13.68471 0 -24.77675 -11.0936 -24.77675 -24.77675 c0 -13.68315 11.09361 -24.77675 24.77675 -24.77675 c13.68315 0 24.77675 11.0936 24.77675 24.77675 z" id="path14" style="fill:#6F6F6F;" />
            </g>
            <g id="g3386">
              <g transform="translate(7.197531, 3.271605)" id="Group" style="fill:#6F6F6F;">
                <path d="M7.977835 10.44426 C8.824653 9.558443 9.304101 8.535042 8.457284 7.558019 C7.996515 7.027767 7.222859 6.911823 6.581519 7.173084 l-0.063823 0.024735 l0.020237 -0.055653 C6.632889 6.89018 6.693598 6.0863 6.004002 5.531313 C5.667765 5.260777 5.245913 5.160292 4.819391 5.203578 C4.023942 5.283966 3.412179 5.823493 1.746562 7.667779 C1.243764 8.224312 0.5121381 9.102396 0.07316258 9.671295 c0 0 4.574996 4.310033 4.574996 4.310033 c1.516178 -1.666505 2.134168 -2.28642 3.329676 -3.537072 z M2.00808 9.389937 C2.929617 8.270689 3.90875 7.255018 4.352396 6.853077 C4.492494 6.726312 4.645046 6.599546 4.830287 6.550076 C5.130721 6.468143 5.440495 6.679934 5.510544 6.986027 C5.580593 7.293666 5.386012 7.585845 5.169637 7.827009 C4.682405 8.37272 2.89537 10.22937 2.89537 10.22937 c0 0 -0.8872909 -0.8394364 -0.8872909 -0.8394364 z m1.791705 1.688148 c0 0 1.740335 -1.827281 2.308513 -2.41164 C6.334012 8.434557 6.47878 8.293878 6.634445 8.218128 C6.835253 8.120734 7.054741 8.100637 7.250879 8.230495 C7.443904 8.358807 7.532633 8.579874 7.484377 8.799395 C7.426781 9.060656 7.211963 9.309549 7.034505 9.499698 C6.794781 9.754775 4.730661 11.94844 4.727548 11.95153 L3.799784 11.07809 Z m16.02572 -5.774024 l1.464808 -3.258806 l0.0934 -0.2890876 l-0.02646 0.301455 l0.154109 4.354866 c0.513694 0.047924 1.044512 0.1190361 1.567547 0.2056078 L22.84074 0.1685056 C22.10911 0.08811762 21.3806 0.03091846 20.65208 0 L19.20907 3.557169 L19.1577 3.821522 L19.10633 3.557169 L17.66487 0 C16.93636 0.03091846 16.20785 0.08811762 15.47622 0.1685056 L15.23805 6.618097 c0.523035 -0.086572 1.053853 -0.1561383 1.567547 -0.2056078 l0.154109 -4.354866 l-0.02646 -0.301455 l0.0934 0.2890876 l1.464808 3.258806 l1.33405 0 z m12.16523 6.741772 c0.359587 0.383389 0.877951 1.001758 1.169045 1.377417 l5.361105 -3.379388 C38.25314 9.696031 37.82661 9.167325 37.5075 8.794757 l-3.395056 2.229221 l-0.231941 0.197879 l0.172788 -0.25044 L35.55235 8.000153 L34.49227 6.947379 L31.49883 8.436103 L31.24665 8.6077 L31.44746 8.377357 L33.69371 5.007245 C33.29832 4.673326 32.91849 4.367233 32.43438 3.996212 l-3.402839 5.319522 c0.431192 0.3292816 0.99937 0.8131557 1.36207 1.142438 L33.59719 8.807124 L33.80267 8.65717 L33.65168 8.861232 L31.99073 12.04583 Z" id="B_x5F_22d_61_" />
              </g>
            </g>
          </g>
        </g>
      </g>
    </g>
  </g>
</svg>