<?xml version="1.0" encoding="utf-8"?>
<!DOCTYPE svg PUBLIC "-//W3C//DTD SVG 1.1//EN" "http://www.w3.org/Graphics/SVG/1.1/DTD/svg11.dtd">
<svg version="1.1" xmlns="http://www.w3.org/2000/svg" xmlns:xlink="http://www.w3.org/1999/xlink" xmlns:xml="http://www.w3.org/XML/1998/namespace" width="960" height="337" viewBox="15.488001, 57.1766, 929.2801, 326.585" preserveAspectRatio="xMidYMid">
  <metadata>
Created by potrace 1.16, written by Peter Selinger 2001-2019
</metadata>
  <g transform="translate(0, 439) scale(0.1, -0.1)" style="fill:black;stroke:none;">
    <path d="M4588 3795 c-110 -23 -366 -98 -698 -204 l-145 -46 l-270 1 c-283 2 -692 18 -2145 84 c-1267 58 -1185 56 -1175 39 c52 -88 155 -159 261 -178 c108 -21 485 -57 1709 -166 c341 -31 701 -64 800 -75 c518 -57 625 -107 772 -359 c148 -255 218 -358 339 -495 c149 -169 420 -374 657 -496 l107 -55 l107 55 c234 120 508 327 657 496 c121 137 191 240 339 495 c147 252 254 302 772 359 c99 11 459 44 800 75 c1224 109 1601 145 1709 166 c106 19 209 90 261 178 c10 17 92 19 -1175 -39 c-1175 -53 -1793 -79 -2100 -86 c-300 -7 -255 -15 -693 120 c-390 121 -508 148 -657 152 c-94 3 -137 -1 -232 -21 z m474 -186 c211 -53 473 -140 585 -194 c112 -55 139 -86 136 -160 c-3 -120 -157 -471 -281 -644 c-76 -107 -229 -265 -347 -360 c-95 -77 -310 -219 -343 -228 c-41 -10 -270 142 -444 294 c-177 155 -311 330 -414 540 c-56 115 -129 317 -139 388 c-13 86 49 140 245 216 c167 65 509 162 680 193 c53 9 171 -7 322 -45 z" />
    <path d="M4079 3197 c-47 -31 -66 -91 -47 -149 c23 -75 108 -108 197 -77 c30 11 31 13 31 70 l0 59 l-45 0 c-44 0 -60 -15 -30 -26 c9 -4 15 -19 15 -40 c0 -31 -2 -34 -30 -34 c-71 0 -106 94 -59 155 c19 23 28 26 63 23 c23 -3 49 -8 59 -12 c14 -7 17 -3 17 17 c0 28 -20 37 -91 37 c-31 0 -57 -7 -80 -23 z" />
    <path d="M4297 3213 c-4 -3 -3 -11 3 -18 c5 -6 11 -60 12 -121 l3 -109 l88 -3 c82 -3 87 -2 87 18 c0 18 -6 20 -61 20 l-60 0 l3 38 c3 37 3 37 51 40 c33 2 47 7 47 18 c0 10 -13 14 -50 14 l-50 0 l0 35 l0 35 l61 0 c52 0 60 2 55 16 c-3 9 -6 18 -6 20 c0 7 -176 4 -183 -3 z" />
    <path d="M4524 3208 c-4 -6 -2 -14 4 -16 c8 -2 12 -39 12 -119 c0 -113 0 -114 23 -111 c20 3 22 10 27 72 l5 70 l58 -73 c45 -55 64 -71 80 -69 c21 3 22 8 22 128 c0 121 -1 125 -22 128 c-21 3 -22 -1 -25 -77 l-3 -81 l-63 80 c-47 61 -68 80 -86 80 c-14 0 -28 -5 -32 -12 z" />
    <path d="M4800 3206 c0 -8 5 -18 10 -21 c6 -4 10 -53 10 -116 l0 -109 l85 0 c78 0 85 2 85 20 c0 18 -7 20 -55 20 l-55 0 l0 40 l0 40 l50 0 c38 0 50 4 50 15 c0 11 -12 15 -50 15 l-50 0 l0 35 l0 35 l56 0 c47 0 55 3 52 18 c-3 14 -17 17 -96 20 c-76 2 -92 0 -92 -12 z" />
    <path d="M5062 3210 c-12 -5 -27 -21 -32 -36 c-15 -39 7 -74 65 -106 c58 -31 67 -61 22 -66 c-16 -2 -42 1 -58 7 c-29 10 -30 9 -27 -17 c3 -26 6 -27 64 -30 c49 -2 65 1 87 18 c51 40 33 97 -43 135 c-36 18 -50 31 -50 47 c0 19 4 20 55 15 c49 -5 55 -3 55 13 c0 10 -7 21 -16 24 c-23 9 -95 6 -122 -4 z" />
    <path d="M5244 3208 c-4 -6 -2 -14 4 -16 c8 -2 12 -39 12 -118 l0 -114 l30 0 l30 0 l0 130 l0 130 l-34 0 c-19 0 -38 -5 -42 -12 z" />
    <path d="M5409 3205 c-58 -32 -41 -94 36 -134 c34 -18 50 -33 50 -46 c0 -24 -41 -32 -86 -16 c-29 10 -30 9 -27 -17 c3 -26 6 -27 64 -30 c76 -4 114 21 114 72 c0 36 -13 51 -77 86 c-28 15 -43 31 -43 43 c0 18 5 19 55 14 c49 -5 55 -3 55 13 c0 10 -7 21 -16 24 c-28 11 -98 6 -125 -9 z" />
    <path d="M442 3362 c2 -5 37 -39 78 -77 c296 -270 512 -352 1060 -399 c250 -22 591 -43 1005 -61 c198 -9 384 -21 414 -27 c37 -7 64 -20 90 -43 c20 -18 33 -36 30 -39 c-6 -6 -727 6 -1134 19 c-128 4 -187 3 -180 -4 c23 -23 523 -163 799 -224 l141 -31 l390 -1 c423 -1 420 -1 474 -58 l23 -25 l-43 -6 c-49 -6 -324 -26 -360 -26 c-14 0 -19 -4 -13 -9 c11 -12 366 -109 524 -145 c147 -32 400 -79 405 -74 c2 2 -21 24 -52 48 c-129 103 -275 280 -464 560 c-98 146 -198 255 -267 293 c-93 50 -304 87 -752 132 c-1162 114 -2112 205 -2155 205 c-9 0 -15 -4 -13 -8 z" />
    <path d="M8730 3334 c-195 -18 -587 -56 -870 -84 c-283 -28 -652 -64 -820 -81 c-497 -48 -706 -84 -802 -136 c-69 -38 -169 -147 -267 -293 c-189 -280 -335 -457 -464 -560 c-31 -24 -54 -46 -52 -48 c5 -5 258 42 405 74 c158 36 513 133 524 145 c6 5 1 9 -13 9 c-36 0 -311 20 -360 26 l-43 6 l23 25 c54 57 51 57 474 58 l390 1 l141 31 c275 61 776 201 799 224 c7 7 -51 8 -175 4 c-392 -12 -1133 -25 -1139 -19 c-3 3 10 21 30 39 c26 23 53 36 90 43 c30 6 216 18 414 27 c414 18 754 39 1005 61 c547 47 764 129 1060 399 c41 38 77 72 78 77 c5 12 -38 9 -428 -28 z" />
    <path d="M3139 1220 c-165 -28 -280 -182 -266 -356 c9 -118 80 -224 185 -275 c40 -20 62 -24 147 -24 c88 0 107 3 157 27 c32 15 74 39 93 54 l35 26 l0 124 l0 124 l-110 0 l-110 0 l0 -40 l0 -40 l65 0 l65 0 l0 -58 c0 -44 -5 -63 -17 -74 c-38 -33 -91 -51 -160 -56 c-64 -4 -79 -1 -126 22 c-86 42 -127 115 -127 226 c1 139 94 233 230 233 c77 0 131 -24 179 -78 l32 -37 l34 24 c19 12 35 26 35 29 c0 3 -16 24 -35 47 c-66 77 -196 120 -306 102 z" />
    <path d="M5609 1221 c-121 -24 -187 -139 -141 -244 c25 -56 72 -89 162 -113 c117 -31 140 -51 140 -119 c0 -27 -8 -44 -30 -67 c-29 -28 -35 -30 -93 -26 c-72 4 -105 24 -137 80 l-21 37 l-34 -21 c-19 -11 -35 -26 -35 -32 c0 -24 59 -95 102 -123 c34 -23 54 -29 117 -31 c64 -3 83 1 120 20 c67 34 103 86 109 153 c9 107 -45 169 -185 210 c-96 29 -133 57 -133 103 c0 94 139 118 216 37 l31 -33 l31 20 c37 23 38 24 14 61 c-46 68 -143 105 -233 88 z" />
    <path d="M6461 1219 c-56 -11 -109 -51 -132 -103 c-52 -115 9 -212 158 -252 c119 -31 143 -50 143 -118 c0 -56 -35 -88 -102 -94 c-72 -6 -122 17 -158 74 l-26 42 l-32 -20 c-18 -11 -32 -24 -32 -29 c0 -42 85 -129 145 -149 c21 -7 67 -10 105 -8 c85 5 143 40 178 108 c62 123 0 226 -165 276 c-101 30 -133 54 -133 99 c0 43 24 73 70 85 c51 14 116 -8 148 -49 l24 -30 l34 22 c18 12 34 25 34 29 c0 4 -14 23 -32 43 c-56 64 -138 91 -227 74 z" />
    <path d="M3670 890 l0 -320 l170 0 l170 0 l0 40 l0 40 l-125 0 l-125 0 l0 100 l0 100 l116 0 l115 0 l-3 43 l-3 42 l-112 3 l-113 3 l0 94 l0 95 l125 0 l125 0 l0 40 l0 40 l-170 0 l-170 0 l0 -320 z" />
    <path d="M4190 890 l0 -320 l45 0 l45 0 l2 221 l3 221 l213 -226 c117 -124 219 -226 227 -226 c13 0 15 47 15 325 l0 325 l-45 0 l-45 0 l0 -222 l-1 -223 l-217 223 c-119 122 -223 223 -229 222 c-10 0 -13 -71 -13 -320 z" />
    <path d="M4950 890 l0 -320 l170 0 l170 0 l0 40 l0 40 l-125 0 l-125 0 l0 100 l0 100 l115 0 l115 0 l0 45 l0 45 l-115 0 l-115 0 l0 95 l0 95 l125 0 l125 0 l0 40 l0 40 l-170 0 l-170 0 l0 -320 z" />
    <path d="M6030 890 l0 -320 l50 0 l50 0 l0 320 l0 320 l-50 0 l-50 0 l0 -320 z" />
  </g>
</svg>