<?xml version="1.0" encoding="utf-8"?>
<!DOCTYPE svg PUBLIC "-//W3C//DTD SVG 1.1//EN" "http://www.w3.org/Graphics/SVG/1.1/DTD/svg11.dtd">
<svg version="1.1" xmlns="http://www.w3.org/2000/svg" xmlns:xlink="http://www.w3.org/1999/xlink" xmlns:xml="http://www.w3.org/XML/1998/namespace" xmlns:dc="http://purl.org/dc/elements/1.1/" xmlns:cc="http://creativecommons.org/ns#" xmlns:rdf="http://www.w3.org/1999/02/22-rdf-syntax-ns#" xmlns:sodipodi="http://sodipodi.sourceforge.net/DTD/sodipodi-0.dtd" xmlns:inkscape="http://www.inkscape.org/namespaces/inkscape" width="1000" height="377" viewBox="0, 0, 381.80322, 144.0618" id="svg2" sodipodi:docname="Lincoln_logo.svg" inkscape:version="0.92.3 (2405546, 2018-03-11)">
  <sodipodi:namedview id="namedview18" pagecolor="#ffffff" bordercolor="#666666" borderopacity="1" objecttolerance="10" gridtolerance="10" guidetolerance="10" inkscape:pageopacity="0" inkscape:pageshadow="2" inkscape:window-width="1920" inkscape:window-height="1017" showgrid="false" showguides="true" inkscape:guide-bbox="true" inkscape:snap-intersection-paths="true" inkscape:object-paths="true" inkscape:snap-object-midpoints="true" inkscape:snap-center="true" inkscape:snap-global="false" fit-margin-top="0" fit-margin-left="0" fit-margin-right="0" fit-margin-bottom="0" units="in" inkscape:zoom="0.95" inkscape:cx="437.66856" inkscape:cy="74.774522" inkscape:window-x="-8" inkscape:window-y="-8" inkscape:window-maximized="1" inkscape:current-layer="layer2" />
  <metadata id="metadata30" />
  <defs id="defs4">
    <clipPath id="clip1">
      <path d="M0 902.9102 V990 h194.5312 v-87.08984 z m0 0" id="path7" inkscape:connector-curvature="0" />
    </clipPath>
    <clipPath id="clip1-4">
      <path d="M0 902.9102 V990 h194.5312 v-87.08984 z m0 0" id="path7-8" inkscape:connector-curvature="0" />
    </clipPath>
  </defs>
  <g transform="translate(32.17039, -2.434036)" id="layer1" inkscape:groupmode="layer" inkscape:label="Layer 1">
    <g id="g902" style="fill:black;">
      <path d="m157.0739 114.9337 c-2.25302 -2.85553 -5.98551 -4.45968 -9.65664 -4.45968 c-8.98134 0 -14.91774 6.99609 -14.91774 15.86506 c0 8.19708 5.59875 15.20154 14.91774 15.20154 c4.5797 0 8.07892 -1.98205 10.45471 -5.24074 l4.57355 3.35945 c-1.19097 1.61254 -5.99165 6.8365 -15.13876 6.8365 c-12.71998 0 -20.56562 -10.36391 -20.56562 -20.15675 c0 -12.11085 8.52092 -20.82025 20.84188 -20.82025 c5.25497 0 10.7985 1.93167 14.00919 6.05542 l-4.51831 3.35945 v0" id="path12" fill-rule="evenodd" stroke-width="1.615955" fill-opacity="1" inkscape:connector-curvature="0" style="stroke:none;" />
      <path d="m209.9907 141.5406 c-8.53319 0 -14.05828 -7.00446 -14.05828 -15.53749 c0 -8.53302 5.52509 -15.52911 14.05828 -15.52911 c8.5332 0 14.05829 6.99609 14.05829 15.52911 c0 8.53303 -5.52509 15.53749 -14.05829 15.53749 z m0 4.95521 c11.37555 0 19.42992 -8.91936 19.42992 -20.4927 c0 -11.55654 -8.05437 -20.4843 -19.42992 -20.4843 c-11.38169 0 -19.4299 8.92776 -19.4299 20.4843 c0 11.57334 8.04821 20.4927 19.4299 20.4927 v0" id="path14" fill-rule="evenodd" stroke-width="1.615955" fill-opacity="1" inkscape:connector-curvature="0" style="stroke:none;" />
      <path d="m-32.17039 107.5093 h5.152043 v34.03134 h17.44948 v4.95521 H-32.17039 V107.5093" id="path16" fill-rule="evenodd" stroke-width="1.615955" fill-opacity="1" inkscape:connector-curvature="0" style="stroke:none;" />
      <path d="m21.19005 107.5093 h5.152043 v38.98655 H21.19005 V107.5093" id="path18" fill-rule="evenodd" stroke-width="1.615955" fill-opacity="1" inkscape:connector-curvature="0" style="stroke:none;" />
      <path d="m60.93814 107.5093 h6.906366 l21.37597 32.05766 h0.116648 V107.5093 h5.261114 v38.98655 H87.90673 L66.30975 114.455 H66.19926 v32.04087 H60.93814 V107.5093" id="path20" fill-rule="evenodd" stroke-width="1.615955" fill-opacity="1" inkscape:connector-curvature="0" style="stroke:none;" />
      <path d="m263.3054 107.5093 h5.15204 v34.03134 h17.44949 v4.95521 H263.3054 V107.5093" id="path22" fill-rule="evenodd" stroke-width="1.615955" fill-opacity="1" inkscape:connector-curvature="0" style="stroke:none;" />
      <path d="m316.6735 107.5093 h6.7544 l20.94549 32.05766 h0.10741 V107.5093 h5.15204 v38.98655 h-6.55504 l-21.13719 -32.04087 h-0.13034 v32.04087 h-5.13671 V107.5093" id="path24" fill-rule="evenodd" stroke-width="1.615955" fill-opacity="1" inkscape:connector-curvature="0" style="stroke:none;" />
    </g>
    <path d="m171.2615 45.14047 c-0.0507 -11.1146 -0.6853 -23.66091 -2.462 -35.20879 c0 0 -3.69302 -0.433279 -8.50282 -0.5023548 c-0.32996 -4.521194 -0.59647 -6.995287 -0.59647 -6.995287 h-1.19293 c0 0 -0.2665 2.474094 -0.59646 6.995287 c-4.8098 0.069124 -8.50281 0.5023548 -8.50281 0.5023548 c-1.7894 11.54788 -2.42394 24.09419 -2.46836 35.20879 c-3.95317 0.452119 -7.10048 0.897969 -7.10048 0.897969 v1.142845 c0 0 3.14731 0.439565 7.10048 0.897969 c0.0444 11.1146 0.67896 23.65463 2.46836 35.2025 c0 0 3.69301 0.439565 8.50281 0.50864 c0.32996 4.521194 0.59646 6.989018 0.59646 6.989018 h1.19293 c0 0 0.26651 -2.467824 0.59647 -6.989018 c4.8098 -0.06912 8.50282 -0.50864 8.50282 -0.50864 c1.7767 -11.54788 2.41123 -24.08791 2.462 -35.2025 c3.95318 -0.458404 7.10682 -0.897969 7.10682 -0.897969 v-1.142845 c0 0 -3.15364 -0.44585 -7.10682 -0.897969 z m-5.12072 -31.79906 c1.55462 10.81947 1.95437 24.40189 1.9988 31.45997 c-2.25897 -0.232337 -4.57503 -0.426994 -6.58017 -0.521179 c-0.0508 -13.06751 -0.53301 -23.67348 -0.99622 -30.93879 z m-14.08041 0 h5.5776 c-0.45053 7.265305 -0.94547 17.87128 -0.98988 30.93879 c-2.00515 0.0942 -4.3339 0.288842 -6.58017 0.521179 c0.0444 -7.058077 0.43149 -20.6405 1.99245 -31.45997 z m0 66.5369 c-1.56096 -10.82576 -1.94803 -24.40189 -1.99245 -31.45998 c2.24627 0.226068 4.57502 0.420724 6.58017 0.521195 c0.0444 13.06751 0.53935 23.6672 0.98988 30.93879 h-5.5776 h14.08041 h-5.57759 c0.46321 -7.27159 0.94546 -17.87128 0.99622 -30.93879 c2.00514 -0.100471 4.3212 -0.295127 6.58017 -0.521195 c-0.0444 7.058094 -0.44418 20.63423 -1.9988 31.45998 h-14.08041 v0" id="path26" fill-rule="evenodd" stroke-width="1.615955" fill-opacity="1" inkscape:connector-curvature="0" style="fill:black;stroke:none;" />
  </g>
  <g transform="translate(32.17039, -2.434036)" id="layer2" inkscape:groupmode="layer" inkscape:label="Layer 2" />
</svg>