<?xml version="1.0" encoding="UTF-8"?><svg id="Calque_2" xmlns="http://www.w3.org/2000/svg" width="166.76" height="43.54" viewBox="0 0 166.76 43.54"><defs><style>.cls-1{fill:#e62e2e;}.cls-1,.cls-2,.cls-3{stroke-width:0px;}.cls-4,.cls-3{isolation:isolate;}.cls-2{fill:#fff;}.cls-3{fill:#000;mix-blend-mode:multiply;opacity:.5;}</style></defs><g id="Calque_1-2"><g class="cls-4"><g id="Layer_1"><path class="cls-1" d="M166.76,19.77c0-10.92-8.85-19.77-19.77-19.77H19.77C8.85,0,0,8.85,0,19.77h0c0,.68.03,1.34.1,2-.07.66-.1,1.32-.1,2h0c0,10.92,8.85,19.77,19.77,19.77h127.22c10.92,0,19.77-8.85,19.77-19.77h0c0-.68-.04-1.34-.1-2,.07-.66.1-1.32.1-2h0Z"/><path class="cls-3" d="M146.99,39.54H19.77C9.53,39.54,1.1,31.75.1,21.77c-.07.66-.1,1.32-.1,2h0c0,10.92,8.85,19.77,19.77,19.77h127.22c10.92,0,19.77-8.85,19.77-19.77h0c0-.68-.04-1.34-.1-2-1,9.98-9.43,17.77-19.67,17.77Z"/><path class="cls-2" d="M15.52,11.82h6.39c2.84,0,4.53,1.39,4.53,3.64v.02c0,1.54-1.15,2.89-2.65,3.11v.18c1.94.15,3.34,1.6,3.34,3.48v.02c0,2.56-1.94,4.17-5.06,4.17h-6.57v-14.62h0ZM18.58,14.09v3.81h2.3c1.65,0,2.55-.69,2.55-1.89v-.02c0-1.19-.84-1.89-2.3-1.89h-2.55ZM18.58,19.92v4.25h2.73c1.76,0,2.72-.75,2.72-2.14v-.02c0-1.36-.98-2.09-2.79-2.09h-2.66Z"/><path class="cls-2" d="M30.31,21.4v-9.57h3.06v9.3c0,1.89,1.1,3.1,3.07,3.1s3.06-1.21,3.06-3.1v-9.3h3.06v9.57c0,3.24-2.35,5.42-6.12,5.42s-6.13-2.17-6.13-5.42h0Z"/><path class="cls-2" d="M50.57,20.98l-5.09-9.16h3.31l3.22,6.15h.18l3.21-6.15h3.31l-5.1,9.16v5.46h-3.06v-5.46h0Z"/><path class="cls-2" d="M67.4,11.82h2.55l6.75,9.31h.16v-9.31h2.93v14.62h-2.53l-6.77-9.35h-.16v9.35h-2.93s0-14.62,0-14.62Z"/><path class="cls-2" d="M83.12,19.14v-.02c0-4.73,2.74-7.67,7.04-7.67s7.03,2.95,7.03,7.67v.02c0,4.72-2.72,7.68-7.03,7.68s-7.04-2.96-7.04-7.68ZM94.07,19.14v-.02c0-3.1-1.54-5.08-3.91-5.08s-3.92,1.98-3.92,5.08v.02c0,3.09,1.51,5.09,3.92,5.09s3.91-2,3.91-5.09Z"/><path class="cls-2" d="M99.12,11.82h3.18l2.28,10.45h.16l2.67-10.45h2.58l2.72,10.45h.16l2.26-10.45h3.16l-3.88,14.62h-2.87l-2.77-9.85h-.16l-2.74,9.85h-2.89s-3.87-14.62-3.87-14.62Z"/><path class="cls-2" d="M128.7,9.61h3.33c1.28,0,1.75.53,1.9,1.56l.12.8h15.76c.92,0,1.42.53,1.42,1.28,0,.14-.03.33-.05.48l-.68,4.63c-.24,1.68-1.15,2.68-2.82,2.68h-12.36l.15,1.02c.05.36.26.61.61.61h11.42c.62,0,1.16.44,1.16,1.12s-.55,1.14-1.16,1.14h-11.73c-1.67,0-2.57-1-2.83-2.65l-1.48-10.1h-2.78c-.68,0-1.27-.58-1.27-1.28s.59-1.28,1.27-1.28h0ZM136.64,26.31c1.1,0,1.97.87,1.97,1.96s-.87,1.96-1.97,1.96-1.96-.87-1.96-1.96.88-1.96,1.96-1.96ZM145.83,26.31c1.08,0,1.96.87,1.96,1.96s-.87,1.96-1.96,1.96-1.97-.87-1.97-1.96.88-1.96,1.97-1.96Z"/></g></g></g></svg>