<?xml version="1.0" encoding="UTF-8"?><svg id="Calque_2" xmlns="http://www.w3.org/2000/svg" width="144.63" height="56.48" viewBox="0 0 144.63 56.48"><defs><style>.cls-1{fill:#027cf5;}.cls-1,.cls-2,.cls-3{stroke-width:0px;}.cls-4,.cls-3{isolation:isolate;}.cls-2{fill:#fff;}.cls-3{fill:#000;mix-blend-mode:multiply;opacity:.5;}</style></defs><g id="Calque_1-2"><g class="cls-4"><g id="Layer_1"><path class="cls-1" d="M45.71,6.08C40.9,2.28,34.84,0,28.24,0,12.64,0,0,12.64,0,28.24s12.64,28.24,28.24,28.24c6.6,0,12.66-2.28,17.47-6.08,6.55-5.17,10.77-13.17,10.77-22.16s-4.22-16.99-10.77-22.16h0Z"/><path class="cls-1" d="M136.46,5.66H51.48c6.68,5.27,10.98,13.42,10.98,22.59s-4.3,17.32-10.98,22.59h84.98c4.51,0,8.17-3.66,8.17-8.17V13.83c0-4.51-3.66-8.17-8.17-8.17h0Z"/><path class="cls-3" d="M45.71,6.08C40.9,2.28,34.84,0,28.24,0,12.64,0,0,12.64,0,28.24s12.64,28.24,28.24,28.24c6.6,0,12.66-2.28,17.47-6.08,6.55-5.17,10.77-13.17,10.77-22.16s-4.22-16.99-10.77-22.16h0Z"/><path class="cls-2" d="M18.33,25.27c2.03-1.98,3.1-4.47,3.97-7.09.45-1.37.93-2.73,1.45-4.08.22-.58.55-1.11.84-1.66.04,0,.07.02.11.03.06.36.1.72.17,1.07.47,2.23,1.35,4.31,2.31,6.36,1.99,4.19,4.37,8.14,7.24,11.79.98,1.24,2.03,2.41,3.43,3.39-.24.02-.38.03-.51.04-1.4.05-2.75-.27-4.11-.53-1.81-.35-3.6-.78-5.44-.88-1.37-.07-2.72.02-4.05.37-.18.05-.32.09-.44-.13-1.64-2.86-3.29-5.71-4.94-8.57-.01-.02-.02-.04-.03-.1h0Z"/><path class="cls-2" d="M32.62,27.3c1.89-1.46,1.95-3.65,1.13-5.09-.76-1.33-2.63-2.51-4.97-1.57-.25-.51-.5-1.03-.74-1.55-.86-1.89-1.69-3.81-2.09-5.86-.09-.44-.12-.91-.1-1.36.03-.74.51-1.05,1.15-.69.62.35,1.21.79,1.72,1.28,1.67,1.61,3.02,3.49,4.3,5.42,2.31,3.49,4.35,7.13,5.85,11.04.46,1.19.76,2.45,1.08,3.7.1.39.07.84,0,1.25-.08.52-.44.69-.94.53-.72-.24-1.26-.74-1.79-1.25-1.58-1.53-2.88-3.3-4.12-5.11-.16-.24-.32-.48-.49-.74h0Z"/><path class="cls-2" d="M17.43,26.02c1.65,2.86,3.27,5.67,4.9,8.5-.08.06-.14.12-.21.16-1.17.68-2.33,1.36-3.5,2.02-3.05,1.72-6.74.03-7.34-3.42-.35-2.02.36-3.71,2.07-4.86,1.29-.87,2.69-1.59,4.07-2.4Z"/><path class="cls-2" d="M22.15,35.98c.11.4.21.79.33,1.16.56,1.75,1.46,3.32,2.67,4.7.69.78.84,1.68.38,2.61-.45.91-1.23,1.36-2.25,1.35-.56,0-1.06-.21-1.47-.6-2.03-1.88-3.33-4.18-3.91-6.88,0-.02,0-.05,0,.01,1.44-.8,2.83-1.57,4.25-2.36h0Z"/><path class="cls-2" d="M39.29,19.93c-.16-.13-.39-.23-.44-.4-.06-.17.03-.4.09-.59.02-.07.14-.12.22-.17,1.43-.83,2.87-1.67,4.31-2.48.18-.1.48-.13.67-.05.41.17.37.73-.05.98-.59.35-1.18.69-1.78,1.03-.83.48-1.66.96-2.5,1.44-.14.08-.3.14-.52.24h0Z"/><path class="cls-2" d="M43.3,24.63c-.78.04-1.56.07-2.34.1-.47.02-.74-.16-.75-.52-.02-.37.23-.58.69-.6,1.54-.07,3.07-.14,4.61-.21.14,0,.29-.01.43,0,.35,0,.57.2.59.5.03.33-.17.57-.53.6-.78.05-1.56.08-2.34.12-.12,0-.24,0-.36,0h0s0,.01,0,.01Z"/><path class="cls-2" d="M39.28,11.16c-.11.23-.16.37-.24.5-.88,1.39-1.77,2.78-2.65,4.17-.24.37-.55.48-.84.3-.3-.18-.34-.52-.09-.91.89-1.4,1.78-2.8,2.68-4.2.15-.24.37-.43.66-.31.19.08.33.29.5.44h0Z"/><path class="cls-2" d="M75.74,20c-.03.14-.04.3-.06.49s-.02.35-.02.48c0,.6.15,1.08.46,1.47s.76.57,1.36.57c.48,0,.88-.13,1.18-.39s.5-.61.58-1.04h2.29s0,.07-.01.11,0,.08-.02.12c-.07.61-.29,1.16-.64,1.66s-.82.89-1.43,1.18-1.32.43-2.16.43-1.6-.16-2.22-.49-1.09-.8-1.41-1.42-.49-1.37-.49-2.25c0-.08,0-.21.01-.39s.03-.36.06-.53l.25-1.39c.15-.82.42-1.54.81-2.15s.9-1.08,1.54-1.41,1.38-.5,2.24-.5c.63,0,1.19.09,1.69.27s.92.43,1.27.74.61.67.79,1.06.27.81.27,1.24c0,.09,0,.21-.01.35s-.04.26-.07.37h-2.32c.01-.07.02-.15.02-.23s0-.15,0-.21c-.01-.22-.07-.43-.15-.62s-.2-.35-.34-.49-.32-.25-.52-.33-.42-.12-.66-.12c-.35,0-.67.08-.95.25s-.52.43-.72.78-.35.8-.45,1.35l-.2,1.03h0Z"/><path class="cls-2" d="M83.41,18.52c.15-.84.43-1.56.86-2.14s.95-1.03,1.6-1.34,1.38-.46,2.2-.46,1.57.16,2.2.48,1.13.77,1.49,1.36.54,1.3.54,2.12c0,.16,0,.35-.01.55s-.03.4-.07.61l-.27,1.44c-.23,1.25-.74,2.22-1.53,2.92s-1.85,1.04-3.17,1.04c-.8,0-1.52-.15-2.15-.46s-1.12-.75-1.48-1.33-.54-1.28-.54-2.1c0-.19,0-.4.01-.61s.03-.42.07-.61l.26-1.44h0ZM85.62,20.04c-.03.16-.05.32-.07.48s-.02.32-.02.48c0,.4.07.76.21,1.07s.35.55.63.73.62.26,1.03.26c.36,0,.68-.09.97-.26s.53-.44.73-.8.35-.82.44-1.37l.21-1.15c.03-.16.05-.32.06-.49s.01-.3.01-.39c0-.4-.07-.75-.21-1.06s-.35-.55-.63-.72-.62-.26-1.02-.26c-.51,0-.96.18-1.34.56s-.65.98-.8,1.82l-.2,1.11h0Z"/><path class="cls-2" d="M93.12,24.9l1.79-10.16h2.56l1.41,5.83h.09l3.46-5.83h2.73l-1.79,10.16h-2.19l1.14-6.44h-.12l-3.08,5.15h-1.35l-1.2-5.15h-.12l-1.12,6.44h-2.22Z"/><path class="cls-2" d="M105.65,24.9l1.79-10.16h2.44l-1.79,10.16h-2.45Z"/><path class="cls-2" d="M116.86,24.9l-3-6.14h-.1l-1.07,6.14h-2.3l1.79-10.16h1.96l2.97,6.09h.1l1.06-6.09h2.3l-1.79,10.16h-1.93,0Z"/><path class="cls-2" d="M122.58,16.44c.4-.6.92-1.06,1.56-1.39s1.4-.49,2.28-.49c.73,0,1.35.1,1.87.29s.95.45,1.27.77.57.67.73,1.06.23.76.23,1.14v.15c0,.07,0,.12-.01.15h-2.36s0-.06,0-.09,0-.08,0-.11c0-.12-.04-.26-.1-.42s-.16-.31-.29-.46-.31-.26-.53-.36-.49-.14-.8-.14c-.39,0-.73.09-1.03.27s-.55.45-.75.81-.35.79-.44,1.3l-.22,1.14c-.02.13-.05.29-.06.46s-.03.33-.03.47c0,.45.08.83.25,1.14s.39.56.68.72.61.25.97.25.66-.06.94-.17.51-.27.69-.47.29-.43.34-.67l.13-.71h-1.84l.28-1.6h4.11l-.4,2.22c-.11.68-.36,1.27-.74,1.78s-.88.9-1.49,1.18-1.33.42-2.16.42c-.77,0-1.48-.14-2.12-.43-.64-.29-1.15-.73-1.53-1.32s-.57-1.36-.57-2.29c0-.17.01-.36.03-.58s.05-.41.08-.57l.24-1.32c.15-.81.42-1.52.82-2.12h0Z"/><path class="cls-2" d="M76.24,39.43s-.01.06-.01.09v.11c0,.36.11.67.33.94s.53.49.92.65.82.24,1.29.24c.38,0,.74-.06,1.1-.18s.65-.3.88-.54.35-.54.35-.9c0-.33-.09-.59-.28-.79s-.44-.37-.75-.51-.66-.27-1.04-.4l-1.28-.4c-.61-.2-1.18-.46-1.71-.79s-.96-.75-1.29-1.27-.49-1.18-.49-1.96c0-1.01.26-1.86.77-2.55s1.2-1.22,2.07-1.58c.87-.36,1.83-.54,2.89-.54s2.02.18,2.83.54,1.44.85,1.89,1.47.68,1.32.68,2.1c0,.08,0,.16-.02.24s-.02.14-.03.18h-3.15s0-.04,0-.06,0-.06,0-.11c0-.38-.11-.69-.32-.94s-.49-.44-.83-.57-.7-.19-1.09-.19-.74.06-1.05.19-.57.3-.77.53-.29.51-.29.84c0,.43.19.78.56,1.05s.87.5,1.49.71l1.4.43c.56.18,1.1.42,1.62.71s.94.69,1.27,1.19.49,1.16.49,1.97c0,1.02-.27,1.89-.8,2.6s-1.26,1.25-2.17,1.62-1.93.55-3.04.55c-.73,0-1.44-.08-2.12-.26s-1.29-.43-1.84-.78-.97-.79-1.29-1.32-.47-1.14-.47-1.85c0-.09,0-.17.01-.25s.02-.14.03-.21h3.27Z"/><path class="cls-2" d="M87.34,34.7c.21-1.21.62-2.23,1.22-3.07s1.36-1.48,2.28-1.92,1.97-.67,3.15-.67,2.24.23,3.15.68,1.62,1.1,2.13,1.95.77,1.86.77,3.04c0,.23,0,.5-.02.78s-.04.58-.1.87l-.38,2.07c-.33,1.79-1.06,3.18-2.19,4.17s-2.65,1.49-4.54,1.49c-1.15,0-2.17-.22-3.07-.66s-1.6-1.07-2.12-1.91-.77-1.83-.77-3c0-.28,0-.57.02-.88s.05-.6.1-.88l.37-2.07h0ZM90.51,36.87c-.04.23-.07.46-.1.69s-.03.45-.03.68c0,.57.1,1.08.3,1.53s.5.79.9,1.04.89.38,1.47.38c.51,0,.97-.12,1.38-.37s.76-.63,1.05-1.14.5-1.17.63-1.96l.3-1.64c.04-.23.07-.46.08-.7s.02-.43.02-.56c0-.57-.1-1.07-.3-1.51s-.5-.78-.9-1.03-.88-.37-1.46-.37c-.73,0-1.37.26-1.91.79s-.93,1.4-1.14,2.6l-.29,1.59h0Z"/><path class="cls-2" d="M102.28,34.7c.21-1.21.62-2.23,1.22-3.07s1.37-1.48,2.28-1.92c.92-.44,1.97-.67,3.15-.67s2.24.23,3.15.68,1.62,1.1,2.13,1.95.77,1.86.77,3.04c0,.23,0,.5-.02.78s-.04.58-.1.87l-.38,2.07c-.33,1.79-1.06,3.18-2.19,4.17-1.14.99-2.65,1.49-4.54,1.49-1.15,0-2.17-.22-3.07-.66s-1.6-1.07-2.12-1.91-.77-1.83-.77-3c0-.28,0-.57.02-.88s.05-.6.1-.88l.37-2.07h0ZM105.45,36.87c-.04.23-.07.46-.1.69s-.03.45-.03.68c0,.57.1,1.08.3,1.53s.5.79.9,1.04.89.38,1.47.38c.51,0,.97-.12,1.38-.37s.76-.63,1.05-1.14.5-1.17.63-1.96l.3-1.64c.04-.23.07-.46.08-.7s.02-.43.02-.56c0-.57-.1-1.07-.3-1.51s-.5-.78-.9-1.03-.88-.37-1.46-.37c-.73,0-1.37.26-1.91.79s-.93,1.4-1.15,2.6l-.29,1.59h0Z"/><path class="cls-2" d="M125.43,43.84l-4.29-8.78h-.15l-1.53,8.78h-3.29l2.57-14.53h2.8l4.25,8.71h.15l1.52-8.71h3.29l-2.55,14.53s-2.76,0-2.76,0Z"/></g></g></g></svg>