<?xml version="1.0" encoding="UTF-8"?><svg width="192" height="112" id="Calque_2" xmlns="http://www.w3.org/2000/svg" viewBox="0 0 96 56.52"><defs><style>.cls-1,.cls-2{stroke-width:0px;}.cls-2{fill:#f1c410;}</style></defs><g id="_03_Bubble"><path class="cls-2" d="m82.55,37.07c-.39.89-1.16,1.61-2.08,1.99-.93.38-1.99.41-2.95.09l-1.18-.39.08,1.26c.07,1-.1,2.1-.57,2.93-.46.85-1.25,1.42-2.2,1.68-.47.13-.98.16-1.49.14-.5-.02-1.01-.13-1.5-.29-.99-.32-1.88-.91-2.63-1.65l-.88-.86-.49,1.13c-.45,1.05-1.17,2.03-2.06,2.71-.9.68-1.99,1.03-3.12,1.04-.56,0-1.13-.09-1.67-.26-.55-.16-1.08-.39-1.57-.7-.49-.3-.95-.66-1.36-1.07-.41-.42-.77-.88-1.08-1.38l-.67-1.03-.73.98c-.75,1.01-1.73,1.85-2.87,2.35-1.14.51-2.41.72-3.62.52-.6-.1-1.18-.3-1.72-.57-.54-.28-1.02-.66-1.45-1.11-.43-.44-.79-.95-1.09-1.51-.16-.28-.29-.56-.41-.86-.11-.29-.22-.6-.28-.87l-.28-1.17-1.01.66c-.85.6-1.79,1.07-2.78,1.35-.5.13-1,.23-1.51.26s-1.03.03-1.52-.07c-.5-.09-.98-.23-1.43-.45-.44-.23-.85-.51-1.2-.87-.71-.71-1.17-1.68-1.4-2.7l-.11-.52-.51.14c-.73.19-1.48.3-2.24.29-.75-.01-1.5-.15-2.21-.39-1.42-.47-2.7-1.43-3.45-2.7-.38-.64-.63-1.34-.71-2.07-.08-.73.01-1.48.22-2.2.42-1.43,1.37-2.71,2.57-3.62l.36-.28-.27-.39c-.71-.94-1.14-2.07-1.22-3.22-.09-1.14.19-2.29.79-3.24.59-.95,1.49-1.7,2.52-2.14,1.03-.44,2.17-.57,3.27-.41l.67.1.24-.69c.15-.51.39-1.03.67-1.51.28-.48.61-.93.99-1.33.37-.4.8-.74,1.26-1.02.46-.29.96-.53,1.49-.68,1.04-.32,2.17-.37,3.25-.16,1.09.22,2.12.7,3,1.36l.64.48.51-.6c.96-1.14,2.2-2.09,3.58-2.68,1.37-.58,2.9-.8,4.39-.57,1.48.22,2.92.84,4.14,1.76,1.23.91,2.23,2.14,2.96,3.5l.28.52.53-.27c1.27-.68,2.68-1.13,4.12-1.22.72-.05,1.44-.03,2.15.08.71.11,1.41.32,2.07.6.65.28,1.28.64,1.85,1.07.56.44,1.07.95,1.51,1.52.89,1.13,1.51,2.49,1.81,3.9l.1.5.52-.08c1.17-.18,2.37-.1,3.47.3,1.09.39,2.07,1.07,2.78,1.95.36.44.63.94.84,1.46.21.52.33,1.07.37,1.63.05.56,0,1.13-.09,1.69-.05.28-.11.56-.2.84-.04.13-.08.27-.13.4l-.08.19-.04.1h0s-.01.04-.01.04l-.02.05c-.02.06-.04.12-.05.19-.02.14,0,.28.01.4.17.22.39.45.64.63l.09.07.03.03.08.06.14.12c.19.16.37.34.53.53.31.39.56.84.72,1.31.33.95.3,2.01-.1,2.9Z"/><path class="cls-1" d="m84.24,33.63c-.23-.66-.57-1.28-1.01-1.83-.22-.27-.47-.52-.73-.75l-.21-.16-.07-.05c.04-.12.07-.23.1-.35.09-.34.16-.68.21-1.03.09-.69.1-1.39.02-2.09-.15-1.41-.76-2.76-1.68-3.82s-2.14-1.82-3.45-2.23c-1.15-.36-2.37-.43-3.54-.27-.36-1.4-.98-2.72-1.87-3.86-.49-.64-1.06-1.22-1.7-1.73-.64-.5-1.35-.91-2.09-1.23-.74-.32-1.53-.56-2.32-.69-.8-.13-1.61-.16-2.42-.11-1.41.09-2.79.46-4.06,1.07h-.01c-.74-1.33-1.73-2.53-2.94-3.48-1.35-1.08-2.98-1.83-4.72-2.13-1.73-.32-3.56-.11-5.2.54-1.41.57-2.67,1.42-3.75,2.48-.93-.6-1.97-1.02-3.06-1.24-1.34-.26-2.75-.21-4.07.2-.66.19-1.3.48-1.88.85-.59.36-1.13.8-1.6,1.3-.79.85-1.4,1.81-1.83,2.88-1.18-.01-2.37.24-3.42.76-1.26.61-2.33,1.6-3.02,2.83-.69,1.22-.95,2.66-.78,4.01.15,1.22.62,2.37,1.32,3.33-1.18.99-2.11,2.31-2.55,3.8-.24.82-.36,1.7-.26,2.57.09.87.39,1.71.83,2.46.89,1.5,2.35,2.59,3.96,3.13.81.28,1.66.44,2.51.46.68.01,1.36-.07,2.02-.21.23,1.01.68,1.99,1.4,2.8.42.47.93.86,1.47,1.18.55.31,1.15.52,1.75.66.61.15,1.23.18,1.85.18.61-.01,1.22-.09,1.82-.22.83-.2,1.63-.49,2.39-.88,0,.02.02.05.03.07.15.35.31.7.49,1.04.37.67.82,1.31,1.36,1.87.54.57,1.17,1.07,1.87,1.43.71.36,1.47.62,2.24.74,1.56.26,3.17,0,4.57-.64,1.08-.47,2.03-1.17,2.82-2.02.21.26.42.51.65.75.51.5,1.07.95,1.68,1.33.61.37,1.28.66,1.97.87.69.21,1.42.33,2.15.32.74,0,1.47-.11,2.18-.35.7-.23,1.37-.58,1.95-1.03.58-.44,1.09-.97,1.52-1.54.21-.27.4-.55.57-.84.73.57,1.54,1.03,2.43,1.31.62.21,1.28.35,1.94.38.67.03,1.35-.02,2.01-.2.66-.18,1.3-.47,1.87-.9.57-.42,1.03-.98,1.37-1.58.33-.61.55-1.26.67-1.91.05-.29.08-.58.1-.86,1.01.13,2.06,0,3.01-.39,1.29-.52,2.41-1.55,2.99-2.86.58-1.3.6-2.81.15-4.12Zm-1.69,3.44c-.39.89-1.16,1.61-2.08,1.99-.93.38-1.99.41-2.95.09l-1.18-.39.08,1.26c.07,1-.1,2.1-.57,2.93-.46.85-1.25,1.42-2.2,1.68-.47.13-.98.16-1.49.14-.5-.02-1.01-.13-1.5-.29-.99-.32-1.88-.91-2.63-1.65l-.88-.86-.49,1.13c-.45,1.05-1.17,2.03-2.06,2.71-.9.68-1.99,1.03-3.12,1.04-.56,0-1.13-.09-1.67-.26-.55-.16-1.08-.39-1.57-.7-.49-.3-.95-.66-1.36-1.07-.41-.42-.77-.88-1.08-1.38l-.67-1.03-.73.98c-.75,1.01-1.73,1.85-2.87,2.35-1.14.51-2.41.72-3.62.52-.6-.1-1.18-.3-1.72-.57-.54-.28-1.02-.66-1.45-1.11-.43-.44-.79-.95-1.09-1.51-.16-.28-.29-.56-.41-.86-.11-.29-.22-.6-.28-.87l-.28-1.17-1.01.66c-.85.6-1.79,1.07-2.78,1.35-.5.13-1,.23-1.51.26s-1.03.03-1.52-.07c-.5-.09-.98-.23-1.43-.45-.44-.23-.85-.51-1.2-.87-.71-.71-1.17-1.68-1.4-2.7l-.11-.52-.51.14c-.73.19-1.48.3-2.24.29-.75-.01-1.5-.15-2.21-.39-1.42-.47-2.7-1.43-3.45-2.7-.38-.64-.63-1.34-.71-2.07-.08-.73.01-1.48.22-2.2.42-1.43,1.37-2.71,2.57-3.62l.36-.28-.27-.39c-.71-.94-1.14-2.07-1.22-3.22-.09-1.14.19-2.29.79-3.24.59-.95,1.49-1.7,2.52-2.14,1.03-.44,2.17-.57,3.27-.41l.67.1.24-.69c.15-.51.39-1.03.67-1.51.28-.48.61-.93.99-1.33.37-.4.8-.74,1.26-1.02.46-.29.96-.53,1.49-.68,1.04-.32,2.17-.37,3.25-.16,1.09.22,2.12.7,3,1.36l.64.48.51-.6c.96-1.14,2.2-2.09,3.58-2.68,1.37-.58,2.9-.8,4.39-.57,1.48.22,2.92.84,4.14,1.76,1.23.91,2.23,2.14,2.96,3.5l.28.52.53-.27c1.27-.68,2.68-1.13,4.12-1.22.72-.05,1.44-.03,2.15.08.71.11,1.41.32,2.07.6.65.28,1.28.64,1.85,1.07.56.44,1.07.95,1.51,1.52.89,1.13,1.51,2.49,1.81,3.9l.1.5.52-.08c1.17-.18,2.37-.1,3.47.3,1.09.39,2.07,1.07,2.78,1.95.36.44.63.94.84,1.46.21.52.33,1.07.37,1.63.05.56,0,1.13-.09,1.69-.05.28-.11.56-.2.84-.04.13-.08.27-.13.4l-.08.19-.04.1h0s-.01.04-.01.04l-.02.05c-.02.06-.04.12-.05.19-.02.14,0,.28.01.4.17.22.39.45.64.63l.09.07.03.03.08.06.14.12c.19.16.37.34.53.53.31.39.56.84.72,1.31.33.95.3,2.01-.1,2.9Z"/><path class="cls-1" d="m95.97,9.89c.04.76-.16,1.44-.48,2.02-.33.58-.77,1.07-1.27,1.45-.28.21-.57.38-.88.51.09.25.14.53.15.82.01.38-.08.81-.3,1.18-.22.38-.56.68-.9.87-.34.19-.69.3-1.03.36-.33.07-.66.09-.98.08-.33-.01-.64-.05-.95-.1-.34-.08-.66-.15-.96-.28-.61-.26-1.15-.64-1.58-1.08-.25-.25-.46-.52-.65-.79-.41.2-.83.39-1.27.56-.59.23-1.19.44-1.81.61-.61.16-1.24.3-1.91.35.52-.41,1.08-.74,1.64-1.04.57-.29,1.15-.56,1.74-.79.59-.23,1.2-.44,1.81-.6.62-.17,1.25-.31,1.91-.36-.41.32-.84.59-1.28.84.17.14.33.27.51.38.43.28.88.48,1.34.59.23.06.46.1.69.1.24.01.49,0,.74-.02.48-.03.94-.11,1.25-.27.16-.08.26-.16.35-.26.09-.1.16-.24.2-.41.08-.36.02-.84-.14-1.31-.17-.48-.44-.95-.8-1.44.59.13,1.15.46,1.59.94.03.04.07.08.1.12.19-.16.37-.34.53-.53.31-.37.56-.77.73-1.19.18-.41.27-.83.24-1.19.01-.09-.03-.17-.03-.25-.01-.04-.03-.08-.04-.12-.01-.04-.03-.08-.05-.12-.06-.16-.19-.32-.31-.48-.27-.33-.64-.61-1.06-.85-.16-.09-.34-.17-.52-.24-.11.1-.23.19-.36.27.35-1.02.53-1.98.45-2.86-.02-.22-.07-.43-.11-.63-.06-.18-.12-.37-.21-.52-.09-.16-.17-.29-.3-.39-.03-.03-.05-.06-.08-.09l-.11-.07c-.06-.06-.14-.1-.22-.14-.65-.35-1.54-.45-2.42-.34-.32.04-.63.12-.95.22,0,.37-.05.74-.14,1.08-.11.42-.28.82-.5,1.18.04-.42.06-.83.04-1.22-.03-.4-.09-.78-.21-1.14-.22-.71-.64-1.3-1.18-1.56-.27-.13-.56-.21-.88-.22-.32,0-.65.02-.98.11-.32.09-.65.19-.95.36-.16.07-.3.17-.45.26-.14.1-.28.19-.41.3s-.24.23-.36.34c-.09.12-.21.24-.28.37-.09.12-.14.27-.21.4-.04.15-.11.29-.13.45-.08.31-.07.65-.06.99.03.17.03.35.08.52l.05.26.08.26c.21.7.56,1.37,1.04,1.99.12.15.24.31.37.45.06.07.13.14.2.21.31-.33.65-.64,1.01-.94-.27.7-.61,1.34-.98,1.96-.36.62-.76,1.22-1.18,1.81-.42.58-.87,1.14-1.35,1.68-.48.54-.99,1.07-1.57,1.53.27-.69.61-1.33.97-1.96.37-.62.77-1.22,1.19-1.8s.87-1.15,1.35-1.69c.05-.06.1-.11.16-.17-1.02-.57-1.89-1.45-2.43-2.58-.4-.82-.63-1.78-.49-2.78,0-.25.1-.5.16-.74.1-.24.19-.49.33-.71.26-.45.6-.82.97-1.13.75-.63,1.63-1.03,2.58-1.2.47-.08.97-.09,1.47-.02.5.08.99.28,1.42.58s.75.73.95,1.17c.08.16.14.33.19.49.22-.15.47-.28.72-.38.55-.21,1.14-.33,1.75-.32.61,0,1.24.14,1.83.46.15.08.29.16.42.27l.21.17c.06.06.12.12.18.19.25.25.43.57.55.88.25.63.28,1.28.18,1.87-.09.54-.28,1.05-.55,1.5.05.01.11.03.16.04.61.18,1.21.48,1.71.96.12.13.25.24.36.39l.16.22.13.25c.05.08.09.17.12.26.04.09.07.18.1.28.03.18.09.38.09.56Z"/><path class="cls-1" d="m86.47,11.79c-.84.28-1.63.64-2.4,1.02-.77.39-1.53.81-2.27,1.25-.74.45-1.46.92-2.16,1.42-.7.51-1.39,1.04-2.02,1.65.84-.28,1.63-.64,2.4-1.02.77-.39,1.53-.81,2.27-1.25.74-.45,1.46-.92,2.16-1.42.7-.51,1.39-1.04,2.03-1.65Z"/><path class="cls-1" d="m84.08,48.38c.33.41.64.85.92,1.29.28.45.55.92.75,1.43-.36-.25-.68-.52-.98-.81-.07.17-.13.33-.18.5-.12.41-.17.82-.15,1.21.01.19.03.39.09.57.05.2.13.39.19.58.15.37.32.73.53.93.1.11.19.17.29.22.1.04.23.07.38.05.31-.02.67-.18,1-.43.34-.25.65-.58.95-.98.04.5-.09,1.02-.36,1.49-.02.04-.05.08-.08.12.18.11.37.2.56.28.37.16.75.26,1.12.3.37.04.73,0,1.01-.1.08-.02.13-.06.19-.09.03-.02.06-.04.08-.06.03-.02.06-.04.08-.07.12-.09.21-.23.31-.37.19-.29.32-.66.41-1.05.03-.15.06-.31.07-.47-.11-.07-.21-.14-.31-.22.9.03,1.71-.06,2.39-.34.17-.06.32-.15.47-.23.13-.1.27-.18.37-.3.1-.11.19-.21.24-.33.01-.03.03-.06.05-.09l.03-.1c.03-.06.04-.14.06-.21.12-.6-.01-1.33-.32-2.01-.11-.24-.25-.47-.4-.7-.3.09-.6.14-.9.14-.36.01-.72-.02-1.06-.11.34-.07.67-.15.98-.27.31-.12.6-.26.85-.44.51-.35.88-.83.95-1.32.04-.25.03-.5-.04-.76-.08-.25-.17-.51-.32-.75-.15-.24-.31-.47-.52-.67-.09-.11-.21-.2-.31-.3-.11-.08-.22-.18-.34-.25-.11-.08-.24-.14-.36-.21-.12-.05-.24-.11-.36-.13-.12-.05-.24-.05-.37-.07-.13,0-.26-.01-.39,0-.27.01-.54.1-.81.19-.13.06-.27.11-.4.19l-.2.1-.19.13c-.5.34-.96.78-1.33,1.31-.09.13-.19.27-.27.41-.04.07-.08.14-.12.2.34.17.67.36.99.58-.62-.04-1.21-.16-1.8-.3-.58-.14-1.16-.31-1.72-.51-.57-.19-1.12-.42-1.67-.66-.55-.25-1.08-.53-1.6-.88.62.04,1.21.16,1.8.3.58.14,1.16.31,1.72.51.57.2,1.12.42,1.67.67.06.03.12.06.18.08.21-.95.7-1.86,1.46-2.56.56-.52,1.27-.93,2.1-1.07.2-.05.42-.04.63-.05.22.02.43.03.64.09.42.1.8.28,1.14.5.68.44,1.21,1.04,1.58,1.76.18.36.31.75.37,1.17.06.42.02.86-.12,1.27-.13.42-.4.77-.7,1.04-.11.1-.23.18-.35.26.17.15.34.31.48.49.3.38.54.83.68,1.32.14.49.19,1.02.08,1.57-.03.14-.06.27-.12.4l-.08.2c-.03.07-.07.13-.11.19-.15.26-.35.48-.57.65-.44.35-.95.53-1.44.59-.46.06-.91.03-1.33-.07,0,.05,0,.09,0,.14,0,.53-.09,1.08-.35,1.59-.07.13-.13.26-.23.38l-.14.18-.16.17c-.05.06-.11.11-.18.16-.06.05-.13.1-.2.14-.14.08-.28.17-.43.21-.59.22-1.18.22-1.72.1-.54-.12-1.03-.35-1.46-.66-.23-.17-.44-.36-.62-.57-.18.13-.39.24-.62.32-.3.1-.66.13-1.01.05-.35-.08-.67-.28-.9-.5-.23-.23-.41-.48-.54-.73-.13-.25-.23-.51-.3-.77-.08-.26-.12-.51-.15-.78-.02-.28-.04-.56,0-.83.05-.55.23-1.07.47-1.52.14-.25.3-.49.47-.7-.26-.28-.52-.57-.76-.87-.33-.41-.64-.84-.92-1.29-.28-.45-.54-.92-.75-1.43.46.31.85.68,1.23,1.05.37.38.72.78,1.05,1.19Z"/><path class="cls-1" d="m82.2,44.69c.57.44,1.12.9,1.66,1.38.53.48,1.05.98,1.55,1.5.49.52.97,1.07,1.4,1.67-.64-.36-1.23-.78-1.81-1.21-.57-.44-1.12-.9-1.66-1.38-.53-.48-1.05-.98-1.55-1.5-.49-.52-.97-1.07-1.4-1.67.64.36,1.23.78,1.81,1.21Z"/><path class="cls-1" d="m16.16,30.12c.61-.17,1.24-.32,1.9-.38-.52.42-1.07.75-1.63,1.06s-1.13.58-1.72.82c-.43.18-.87.33-1.31.47.06.33.1.67.09,1.02-.01.62-.13,1.27-.4,1.87-.13.31-.31.58-.5.87-.19.26-.38.5-.61.73s-.48.44-.77.63c-.28.19-.61.34-.99.45-.38.09-.83.12-1.24,0-.42-.12-.78-.36-1.04-.64-.2-.22-.35-.46-.46-.7-.32.12-.65.2-.99.24-.63.08-1.28.03-1.92-.17-.63-.19-1.25-.54-1.74-1.11-.13-.14-.23-.32-.33-.48-.05-.08-.08-.18-.12-.27-.04-.08-.08-.17-.1-.27l-.07-.27-.03-.27c-.03-.18-.02-.35-.02-.53.04-.69.25-1.32.57-1.87.03-.05.05-.1.09-.14-.51-.14-1-.38-1.44-.71-.48-.36-.9-.84-1.16-1.47-.13-.31-.22-.66-.22-1.02v-.26l.04-.26c.02-.17.06-.33.11-.49.21-.64.57-1.17,1-1.6.44-.43.95-.76,1.49-.98.26-.1.52-.18.79-.23-.08-.15-.15-.31-.21-.48-.16-.46-.23-.99-.12-1.5.1-.51.31-1.01.62-1.41.31-.39.67-.73,1.07-1,.81-.53,1.72-.85,2.69-.91.48-.04.99,0,1.49.14.25.06.49.17.72.28.22.13.45.25.64.42.79.63,1.29,1.48,1.57,2.35.39,1.19.36,2.43.02,3.55.08,0,.16,0,.24,0,.72.06,1.44.15,2.14.28.71.12,1.41.28,2.11.48.69.2,1.38.42,2.06.74-.74.06-1.47.04-2.19-.02-.72-.06-1.43-.15-2.14-.28-.71-.13-1.41-.29-2.11-.48-.69-.2-1.38-.43-2.06-.75.47-.04.93-.04,1.38-.01v-.29c0-.2-.03-.39-.04-.59-.09-.77-.3-1.5-.63-2.15l-.12-.24-.15-.23c-.09-.15-.2-.28-.3-.43-.23-.25-.46-.5-.73-.67-.13-.1-.28-.16-.41-.24-.14-.04-.27-.11-.42-.13-.15-.05-.31-.06-.47-.08-.16,0-.32-.01-.49.01-.17,0-.33.04-.5.06-.17.04-.34.06-.5.12-.34.09-.65.24-.95.41-.3.16-.55.37-.78.59-.22.23-.37.49-.48.77-.21.56-.1,1.28.23,1.94.16.34.39.66.64.96.25.31.55.59.87.86-.41-.1-.8-.28-1.17-.5-.3-.18-.59-.41-.86-.67-.3.14-.57.3-.83.49-.71.52-1.29,1.21-1.51,1.91-.03.09-.06.18-.07.26l-.02.12v.12c-.03.16.01.32.05.49.04.18.13.35.21.53.11.17.22.35.36.52.55.69,1.35,1.26,2.31,1.76-.15.03-.3.04-.46.05-.08.18-.15.36-.2.54-.14.46-.21.92-.18,1.34.02.2.04.41.11.57.01.04.03.08.05.12.02.03.03.07.05.11.06.06.08.14.15.2.23.28.59.52,1,.7.41.18.87.29,1.35.34.24.03.49.04.75.02-.01-.06-.01-.11-.01-.16-.01-.64.16-1.26.49-1.77.09.6.22,1.13.43,1.59.2.45.49.84.8,1.04.15.1.3.15.43.16s.26,0,.43-.06c.33-.09.72-.36,1.1-.67.18-.15.37-.32.54-.49.17-.16.31-.35.43-.55.25-.4.43-.86.55-1.35.05-.21.09-.42.11-.64-.49.13-.99.23-1.51.28.52-.42,1.07-.75,1.63-1.06.56-.3,1.14-.57,1.72-.82.59-.24,1.19-.45,1.81-.63Z"/><path class="cls-1" d="m11,30.05c.88,0,1.75-.09,2.6-.21.86-.12,1.7-.28,2.55-.47.84-.19,1.68-.41,2.5-.67.83-.26,1.65-.55,2.44-.93-.88,0-1.75.09-2.61.21-.86.12-1.7.28-2.55.47-.84.19-1.68.41-2.5.67-.83.26-1.64.55-2.44.93Z"/></g></svg>
