<?xml version="1.0" encoding="UTF-8"?><svg id="Calque_2" xmlns="http://www.w3.org/2000/svg" width="108.61" height="81" xmlns:xlink="http://www.w3.org/1999/xlink" viewBox="0 0 108.61 81"><defs><style>.cls-1{clip-path:url(#clippath);}.cls-2{fill:none;}.cls-2,.cls-3,.cls-4{stroke-width:0px;}.cls-3{fill:#e62e2e;}.cls-5{clip-path:url(#clippath-1);}.cls-6{clip-path:url(#clippath-4);}.cls-7{clip-path:url(#clippath-3);}.cls-8{clip-path:url(#clippath-2);}.cls-9{clip-path:url(#clippath-5);}.cls-4{fill:#1c1c1c;}.cls-10{opacity:.5;}</style><clipPath id="clippath"><path class="cls-2" d="M100.66,2.09c-3.95,1.09-5.93,1.58-9.93,2.43v13.05c0,1.32-.16,2.38-.48,3.17-.32.79-.83,1.47-1.53,2.03-.67-.42-1.17-.98-1.51-1.69-.34-.71-.5-1.7-.5-2.99V5.33c-3.99.75-5.99,1.07-10.01,1.59.04,2.36.06,4.5.06,6.41v4.5c0,.63,0,1.15.03,1.57.02.41.03.65.03.71.15.79.42,1.62.82,2.5.39.88.89,1.73,1.49,2.54.6.82,1.31,1.55,2.11,2.21.81.66,1.68,1.15,2.61,1.48v8.43c3.93-.07,5.89-.1,9.78-.19v-8.9c.85-.47,1.67-1.1,2.44-1.91.78-.81,1.47-1.71,2.08-2.71.61-1.01,1.12-2.05,1.55-3.15.42-1.09.74-2.17.96-3.22V2.09h0Z"/></clipPath><clipPath id="clippath-1"><path class="cls-2" d="M71.5,7.51c-4.05.4-6.08.54-10.15.71v20.98c0,.77-.1,1.32-.29,1.64-.2.33-.63.5-1.3.5-.45,0-.68,0-1.14,0-.57,0-.94-.17-1.11-.52-.17-.35-.25-.91-.25-1.68V8.34c-4.07.07-6.1.04-10.17-.12v25.9c0,.59.06,1.1.17,1.51.11.42.32.76.62,1.05.3.28.73.49,1.28.62.55.14,1.26.2,2.13.2,6.36.01,9.55,0,15.9-.04,1.02,0,1.81-.1,2.38-.27.56-.17.99-.42,1.27-.76.28-.34.46-.75.54-1.23.08-.48.11-1.03.11-1.63V7.51h0Z"/></clipPath><clipPath id="clippath-2"><path class="cls-2" d="M41.76,26.92c0-.81-.16-1.47-.48-1.99-.32-.52-.76-.95-1.33-1.29-.57-.34-1.22-.61-1.95-.81-.74-.2-1.52-.38-2.35-.52.83-.13,1.6-.29,2.32-.48.71-.19,1.34-.45,1.87-.78.53-.33.94-.76,1.25-1.29.3-.52.46-1.19.46-2,0-.6.02-1.2.06-1.79.04-.6.06-1.19.06-1.79,0-.81-.07-1.59-.23-2.36-.15-.77-.45-1.46-.91-2.08-.45-.62-1.11-1.14-1.98-1.56-.87-.42-2.04-.71-3.51-.87-7.01-.78-10.5-1.35-17.42-2.83v32.72c7.07.14,10.65.2,17.81.27,4.22.04,6.34-1.59,6.34-4.88v-5.65h0ZM31.52,16.8c0,.68-.2,1.14-.59,1.38-.39.24-.91.33-1.55.28-.68-.06-1.01-.1-1.69-.16v-5.31c.68.08,1.01.12,1.69.2.64.07,1.15.29,1.55.66s.59.82.59,1.38v1.57h0ZM31.46,29.09c0,.52-.1.96-.28,1.31-.19.35-.81.5-1.86.46-.65-.03-.98-.04-1.63-.07v-5.73c.58.04.88.06,1.46.1.86.06,1.47.22,1.8.49s.51.68.51,1.23v2.22h0Z"/></clipPath><clipPath id="clippath-3"><path class="cls-2" d="M106.91,44.34c-3.87-.11-5.82-.17-9.74-.26v24.5c0,.79-.21,1.33-.63,1.62-.42.29-.85.4-1.28.31-.51-.1-.98-.44-1.4-1.02s-.63-1.32-.63-2.22v-23.28c-3.92-.08-5.89-.12-9.84-.18v22.04c0,.86-.22,1.49-.68,1.91-.45.42-.94.59-1.46.52-.41-.05-.83-.28-1.24-.67s-.62-.94-.62-1.66v-22.2c-3.99-.05-5.99-.08-10-.11v23.07c0,2.46.57,4.23,1.7,5.33,1.13,1.1,2.81,1.77,5.03,2.05,2.3.29,3.45.45,5.75.82,1.05.17,1.97.14,2.75-.09s1.44-.6,1.98-1.12c.54-.52.95-1.14,1.23-1.87.28-.73.42-1.5.42-2.32.11.86.31,1.71.59,2.54.28.83.67,1.6,1.18,2.3.5.71,1.13,1.33,1.9,1.88.76.55,1.7.95,2.81,1.21,2.27.54,3.4.83,5.65,1.44,2.17.59,3.8.5,4.9-.38,1.1-.88,1.64-2.85,1.64-5.87v-28.31h0Z"/></clipPath><clipPath id="clippath-4"><path class="cls-2" d="M62.7,44.73c-.87-.79-1.91-1.19-3.12-1.19-5.68-.02-8.52-.01-14.2.01-1.17,0-2.18.4-3.04,1.2-.85.8-1.28,1.92-1.28,3.35v20.22c0,.66.11,1.27.34,1.84.23.57.58,1.06,1.05,1.48.47.41,1.07.74,1.79.96.72.23,1.57.32,2.55.27,2.95-.13,5.24-.15,6.87-.16,1.63,0,2.83.01,3.61.02s1.25.02,1.42,0,.29-.01.37-.01c.87-.09,1.62-.22,2.24-.39.62-.17,1.14-.42,1.53-.76.4-.34.69-.78.88-1.34.19-.55.29-1.26.29-2.12v-20.08c0-1.43-.44-2.53-1.31-3.32h0ZM54.58,65.09c0,.59-.18,1.04-.54,1.35-.36.31-.84.46-1.45.47-.15,0-.42-.03-.79-.08-.41-.06-.75-.23-.99-.52-.25-.29-.37-.69-.37-1.19v-14.81c.26-.89.97-1.33,2.1-1.34,1.1,0,1.78.44,2.05,1.32v14.79h0Z"/></clipPath><clipPath id="clippath-5"><path class="cls-2" d="M35.37,48.83c0-1.85-.37-3.17-1.1-3.95s-1.93-1.17-3.58-1.15c-.88.01-1.32.02-2.2.03-.83.01-1.63.05-2.42.13-.79.08-1.5.25-2.13.54-.64.28-1.2.71-1.68,1.26-.49.56-.84,1.31-1.06,2.26-.11-1.19-.22-2.05-.34-2.59-.11-.53-.24-1.02-.39-1.47-4.14.08-6.2.12-10.29.22.29,1,.57,1.96.83,2.9.26.94.39,2,.39,3.2v27.86c3.94-1,5.93-1.44,9.91-2.21v-22.05c0-.84.2-1.48.61-1.9s.87-.65,1.38-.68c.52-.03.97.14,1.36.5.39.36.58.93.58,1.72v21.71c4.04-.68,6.07-.96,10.14-1.4v-24.92h0Z"/></clipPath></defs><g id="Layer_1"><path class="cls-3" d="M35.76,38.86c.75,0,1.5-.04,2.23-.15.74-.1,1.44-.32,2.12-.64.35-.17.67-.37.96-.58.28-.2.51-.41.68-.56.38-.37.7-.78.94-1.24.51-.99.73-2.07.76-3.14,0-.01,0-.03,0-.05.2.75.41,1.53.63,2.34.42,1.52,1.14,2.58,2.18,3.17,1.04.6,2.54.89,4.51.9,6.42,0,9.63,0,16.04-.02,2.46,0,4.15-.43,5.06-1.27.91-.84,1.36-2.21,1.36-4.09v-6.97c.25.25.49.5.77.74.85.73,1.75,1.39,2.68,1.98v8.08c1.76-.02,3.35-.04,4.84-.06.12.47.24.95.38,1.5,5.4-.04,8.1-.07,13.43-.14v-1.62c1.63-.04,3.37-.08,5.31-.14v-14.59c1.03-1.98,1.54-4.08,1.54-6.25V0c-5.24,1.56-7.88,2.23-13.2,3.36v1.6c-.19.04-.37.08-.56.11v-1.6c-5.34,1.11-8.04,1.56-13.44,2.23v3.67c-.65.07-1.22.13-1.76.19v-3.65c-5.45.62-8.19.82-13.66.99v1.46c-.19,0-.38.01-.57.02v-1.46c-5.5.15-8.25.12-13.75-.18v3.56c-1.03-.05-1.89-.1-2.69-.14-.22-.49-.51-.92-.83-1.33-.46-.53-.53-.61-.98-.99-1.34-1.03-3.26-1.67-5.76-1.96-7.73-.9-11.58-1.57-19.2-3.36v4.01c-3.7-.78-5.53-1.22-9.19-2.19,3.01,14.49,4.53,21.3,7.58,34.34,8.53.1,12.86.14,21.55.19h0Z"/><path class="cls-3" d="M95.46,42.46v1.57c-.17,0-.33,0-.5-.01v-1.57c-5.29-.06-7.95-.09-13.31-.13v1.46c-.17,0-.34,0-.5,0v-1.45c-5.42-.04-8.15-.06-13.61-.08v3.59c-.83-.01-1.55-.02-2.22-.03-.26-.65-.63-1.25-1.11-1.77-.06-.06-.14-.11-.2-.17-.14-.13-.24-.22-.35-.3-.41-.33-.85-.64-1.39-.87-.77-.34-1.67-.51-2.7-.51-5.68,0-8.52,0-14.2,0-1.4,0-2.59.35-3.57,1.04-.16.11-.31.24-.45.36-.09.07-.17.14-.29.24-.61.56-1.09,1.19-1.42,1.89-.39,0-.58,0-.96.01-.7.04-1.34.14-1.93.3-.18-.65-.45-1.25-.86-1.76-.16-.2-.34-.38-.54-.55v-.03h-.04c-.39-.34-.86-.64-1.41-.88-.85-.38-1.93-.56-3.25-.55-1.31,0-1.96.01-3.27.02-.94,0-1.84.1-2.7.28-.86.18-1.7.57-2.52,1.16-.08-.26-.16-.49-.25-.7s-.18-.41-.25-.6c-5.6.06-8.38.09-13.9.17.26.7.51,1.4.77,2.09.26.69.48,1.38.66,2.07-3.71.16-5.56.25-9.22.44.73,1.27,1.44,2.48,2.13,3.64.69,1.16,1.19,2.42,1.48,3.81,2.35,10.71,3.52,15.81,5.89,25.65,10.9-3.02,16.46-4.07,27.63-5.22v-8.27c.26.97.53,1.93.78,2.89.42,1.59,1.38,2.77,2.89,3.56,1.51.78,3.31,1.1,5.39,1,4.81-.23,7.22-.26,12.04-.15,2.46.06,4.28-.3,5.47-1.12.06-.05.21-.15.32-.23,1.17-.99,1.76-2.5,1.76-4.52v-.29c.24.7.51,1.37.83,2,.51.99,1.17,1.85,1.98,2.61.26.24.53.46.82.67.09.07.18.13.27.19.56.38,1.18.73,1.86,1.03,1.15.51,2.54.86,4.15,1.07,2.06.26,3.08.41,5.13.74,1.27.2,2.47.25,3.59.14.81-.08,1.58-.32,2.33-.69.68.13,1.36.25,2.04.39.76.69,1.55,1.25,2.36,1.65,1.17.59,2.4,1.05,3.69,1.37,2.04.51,3.06.78,5.08,1.35,1.62.46,2.98.64,4.09.51.65-.07,1.21-.25,1.71-.51.53-.26,1.1-.84,1.21-.98.54-.64.96-1.45,1.23-2.44.31-1.14.46-2.46.46-3.96v-30.43c-5.21-.09-7.84-.12-13.15-.19h0ZM35.37,73.75v-8.5,8.5Z"/><g class="cls-10"><path class="cls-4" d="M35.76,38.86c.75,0,1.5-.04,2.23-.15.74-.1,1.44-.32,2.12-.64.35-.17.67-.37.96-.58.28-.2.51-.41.68-.56.38-.37.7-.78.94-1.24.51-.99.73-2.07.76-3.14,0-.01,0-.03,0-.05.2.75.41,1.53.63,2.34.42,1.52,1.14,2.58,2.18,3.17,1.04.6,2.54.89,4.51.9,6.42,0,9.63,0,16.04-.02,2.46,0,4.15-.43,5.06-1.27.91-.84,1.36-2.21,1.36-4.09v-6.97c.25.25.49.5.77.74.85.73,1.75,1.39,2.68,1.98v8.08c1.76-.02,3.35-.04,4.84-.06.12.47.24.95.38,1.5,5.4-.04,8.1-.07,13.43-.14v-1.62c1.63-.04,3.37-.08,5.31-.14v-14.59c1.03-1.98,1.54-4.08,1.54-6.25V0c-5.24,1.56-7.88,2.23-13.2,3.36v1.6c-.19.04-.37.08-.56.11v-1.6c-5.34,1.11-8.04,1.56-13.44,2.23v3.67c-.65.07-1.22.13-1.76.19v-3.65c-5.45.62-8.19.82-13.66.99v1.46c-.19,0-.38.01-.57.02v-1.46c-5.5.15-8.25.12-13.75-.18v3.56c-1.03-.05-1.89-.1-2.69-.14-.22-.49-.51-.92-.83-1.33-.46-.53-.53-.61-.98-.99-1.34-1.03-3.26-1.67-5.76-1.96-7.73-.9-11.58-1.57-19.2-3.36v4.01c-3.7-.78-5.53-1.22-9.19-2.19,3.01,14.49,4.53,21.3,7.58,34.34,8.53.1,12.86.14,21.55.19h0Z"/><path class="cls-4" d="M95.46,42.46v1.57c-.17,0-.33,0-.5-.01v-1.57c-5.29-.06-7.95-.09-13.31-.13v1.46c-.17,0-.34,0-.5,0v-1.45c-5.42-.04-8.15-.06-13.61-.08v3.59c-.83-.01-1.55-.02-2.22-.03-.26-.65-.63-1.25-1.11-1.77-.06-.06-.14-.11-.2-.17-.14-.13-.24-.22-.35-.3-.41-.33-.85-.64-1.39-.87-.77-.34-1.67-.51-2.7-.51-5.68,0-8.52,0-14.2,0-1.4,0-2.59.35-3.57,1.04-.16.11-.31.24-.45.36-.09.07-.17.14-.29.24-.61.56-1.09,1.19-1.42,1.89-.39,0-.58,0-.96.01-.7.04-1.34.14-1.93.3-.18-.65-.45-1.25-.86-1.76-.16-.2-.34-.38-.54-.55v-.03h-.04c-.39-.34-.86-.64-1.41-.88-.85-.38-1.93-.56-3.25-.55-1.31,0-1.96.01-3.27.02-.94,0-1.84.1-2.7.28-.86.18-1.7.57-2.52,1.16-.08-.26-.16-.49-.25-.7s-.18-.41-.25-.6c-5.6.06-8.38.09-13.9.17.26.7.51,1.4.77,2.09.26.69.48,1.38.66,2.07-3.71.16-5.56.25-9.22.44.73,1.27,1.44,2.48,2.13,3.64.69,1.16,1.19,2.42,1.48,3.81,2.35,10.71,3.52,15.81,5.89,25.65,10.9-3.02,16.46-4.07,27.63-5.22v-8.27c.26.97.53,1.93.78,2.89.42,1.59,1.38,2.77,2.89,3.56,1.51.78,3.31,1.1,5.39,1,4.81-.23,7.22-.26,12.04-.15,2.46.06,4.28-.3,5.47-1.12.06-.05.21-.15.32-.23,1.17-.99,1.76-2.5,1.76-4.52v-.29c.24.7.51,1.37.83,2,.51.99,1.17,1.85,1.98,2.61.26.24.53.46.82.67.09.07.18.13.27.19.56.38,1.18.73,1.86,1.03,1.15.51,2.54.86,4.15,1.07,2.06.26,3.08.41,5.13.74,1.27.2,2.47.25,3.59.14.81-.08,1.58-.32,2.33-.69.68.13,1.36.25,2.04.39.76.69,1.55,1.25,2.36,1.65,1.17.59,2.4,1.05,3.69,1.37,2.04.51,3.06.78,5.08,1.35,1.62.46,2.98.64,4.09.51.65-.07,1.21-.25,1.71-.51.53-.26,1.1-.84,1.21-.98.54-.64.96-1.45,1.23-2.44.31-1.14.46-2.46.46-3.96v-30.43c-5.21-.09-7.84-.12-13.15-.19h0ZM35.37,73.75v-8.5,8.5Z"/></g><path class="cls-3" d="M100.66,2.09c-3.95,1.09-5.93,1.58-9.93,2.43v13.05c0,1.32-.16,2.38-.48,3.17-.32.79-.83,1.47-1.53,2.03-.67-.42-1.17-.98-1.51-1.69-.34-.71-.5-1.7-.5-2.99V5.33c-3.99.75-5.99,1.07-10.01,1.59.04,2.36.06,4.5.06,6.41v4.5c0,.63,0,1.15.03,1.57.02.41.03.65.03.71.15.79.42,1.62.82,2.5.39.88.89,1.73,1.49,2.54.6.82,1.31,1.55,2.11,2.21.81.66,1.68,1.15,2.61,1.48v8.43c3.93-.07,5.89-.1,9.78-.19v-8.9c.85-.47,1.67-1.1,2.44-1.91.78-.81,1.47-1.71,2.08-2.71.61-1.01,1.12-2.05,1.55-3.15.42-1.09.74-2.17.96-3.22V2.09h0Z"/><g class="cls-1"><path class="cls-3" d="M76.7,37.2c9.68-.13,14.5-.22,23.96-.49v.19c-9.46.25-14.28.34-23.96.46,0,0,0-.17,0-.17Z"/><path class="cls-3" d="M76.7,36.89c9.68-.14,14.5-.24,23.96-.53v.35c-9.46.26-14.28.36-23.96.49v-.3h0Z"/><path class="cls-3" d="M76.7,36.59c9.68-.15,14.5-.26,23.96-.57v.35c-9.46.29-14.28.39-23.96.53,0,0,0-.3,0-.3Z"/><path class="cls-3" d="M76.7,36.29c9.68-.16,14.5-.28,23.96-.62v.35c-9.46.31-14.28.43-23.96.57v-.3h0Z"/><path class="cls-3" d="M76.7,35.99c9.68-.17,14.5-.3,23.96-.66v.35c-9.46.33-14.28.46-23.96.62,0,0,0-.3,0-.3Z"/><path class="cls-3" d="M76.7,35.68c9.68-.18,14.5-.32,23.96-.7v.35c-9.46.36-14.28.49-23.96.66,0,0,0-.3,0-.3Z"/><path class="cls-3" d="M76.7,35.38c9.68-.19,14.5-.34,23.96-.75v.35c-9.46.38-14.28.52-23.96.7v-.3h0Z"/><path class="cls-3" d="M76.7,35.08c9.68-.2,14.5-.36,23.96-.79v.35c-9.46.4-14.28.55-23.96.75,0,0,0-.3,0-.3Z"/><path class="cls-3" d="M76.7,34.78c9.68-.22,14.5-.38,23.96-.83v.35c-9.46.43-14.28.59-23.96.79,0,0,0-.3,0-.3Z"/><path class="cls-3" d="M76.7,34.47c9.68-.23,14.5-.4,23.96-.88v.35c-9.46.45-14.28.62-23.96.83v-.3h0Z"/><path class="cls-3" d="M76.7,34.17c9.68-.24,14.5-.42,23.96-.92v.35c-9.46.47-14.28.65-23.96.88,0,0,0-.3,0-.3Z"/><path class="cls-3" d="M76.7,33.87c9.68-.25,14.5-.44,23.96-.96v.35c-9.46.5-14.28.68-23.96.92v-.3h0Z"/><path class="cls-3" d="M76.7,33.57c9.68-.26,14.5-.46,23.96-1.01v.35c-9.46.52-14.28.71-23.96.96,0,0,0-.3,0-.3Z"/><path class="cls-3" d="M76.7,33.26c9.68-.27,14.5-.48,23.96-1.05v.35c-9.46.54-14.28.75-23.96,1.01,0,0,0-.3,0-.3Z"/><path class="cls-3" d="M76.7,32.96c9.68-.28,14.5-.5,23.96-1.09v.35c-9.46.57-14.28.78-23.96,1.05v-.3h0Z"/><path class="cls-3" d="M76.7,32.66c9.68-.29,14.5-.52,23.96-1.14v.35c-9.46.59-14.28.81-23.96,1.09,0,0,0-.3,0-.3Z"/><path class="cls-3" d="M76.7,32.36c9.68-.31,14.5-.54,23.96-1.18v.35c-9.46.61-14.28.84-23.96,1.14v-.3h0Z"/><path class="cls-3" d="M76.7,32.05c9.68-.32,14.5-.56,23.96-1.22v.35c-9.46.64-14.28.88-23.96,1.18,0,0,0-.3,0-.3Z"/><path class="cls-3" d="M76.7,31.75c9.68-.33,14.5-.58,23.96-1.27v.35c-9.46.66-14.28.91-23.96,1.22,0,0,0-.3,0-.3Z"/><path class="cls-3" d="M76.7,31.45c9.68-.34,14.5-.6,23.96-1.31v.35c-9.46.69-14.28.94-23.96,1.27v-.3h0Z"/><path class="cls-3" d="M76.7,31.14c9.68-.35,14.5-.62,23.96-1.35v.35c-9.46.71-14.28.97-23.96,1.31,0,0,0-.3,0-.3Z"/><path class="cls-3" d="M76.7,30.84c9.68-.36,14.5-.64,23.96-1.4v.35c-9.46.73-14.28,1-23.96,1.35v-.3h0Z"/><path class="cls-3" d="M76.7,30.54c9.68-.37,14.5-.66,23.96-1.44v.35c-9.46.76-14.28,1.04-23.96,1.4,0,0,0-.3,0-.3Z"/><path class="cls-3" d="M76.7,30.24c9.68-.39,14.5-.68,23.96-1.49v.35c-9.46.78-14.28,1.07-23.96,1.44v-.3h0Z"/><path class="cls-3" d="M76.7,29.93c9.68-.4,14.5-.7,23.96-1.53v.35c-9.46.8-14.28,1.1-23.96,1.49,0,0,0-.3,0-.3Z"/><path class="cls-3" d="M76.7,29.63c9.68-.41,14.5-.72,23.96-1.57v.35c-9.46.83-14.28,1.13-23.96,1.53,0,0,0-.3,0-.3Z"/><path class="cls-3" d="M76.7,29.33c9.68-.42,14.5-.74,23.96-1.61v.35c-9.46.85-14.28,1.16-23.96,1.57v-.3h0Z"/><path class="cls-3" d="M76.7,29.03c9.68-.43,14.5-.76,23.96-1.66v.35c-9.46.87-14.28,1.2-23.96,1.61,0,0,0-.3,0-.3Z"/><path class="cls-3" d="M76.7,28.72c9.68-.44,14.5-.78,23.96-1.7v.35c-9.46.9-14.28,1.23-23.96,1.66v-.3h0Z"/><path class="cls-3" d="M76.7,28.42c9.68-.45,14.5-.8,23.96-1.75v.35c-9.46.92-14.28,1.26-23.96,1.7,0,0,0-.3,0-.3Z"/><path class="cls-3" d="M76.7,28.12c9.68-.46,14.5-.82,23.96-1.79v.35c-9.46.94-14.28,1.29-23.96,1.75,0,0,0-.3,0-.3Z"/><path class="cls-3" d="M76.7,27.82c9.68-.47,14.5-.84,23.96-1.83v.35c-9.46.97-14.28,1.32-23.96,1.79v-.3h0Z"/><path class="cls-3" d="M76.7,27.51c9.68-.49,14.5-.86,23.96-1.88v.35c-9.46.99-14.28,1.36-23.96,1.83,0,0,0-.3,0-.3Z"/><path class="cls-3" d="M76.7,27.21c9.68-.5,14.5-.88,23.96-1.92v.35c-9.46,1.01-14.28,1.39-23.96,1.88v-.3h0Z"/><path class="cls-3" d="M76.7,26.91c9.68-.51,14.5-.9,23.96-1.96v.35c-9.46,1.04-14.28,1.42-23.96,1.92,0,0,0-.3,0-.3Z"/><path class="cls-3" d="M76.7,26.61c9.68-.52,14.5-.92,23.96-2v.35c-9.46,1.06-14.28,1.45-23.96,1.96,0,0,0-.3,0-.3Z"/><path class="cls-3" d="M76.7,26.3c9.68-.53,14.5-.94,23.96-2.05v.35c-9.46,1.08-14.28,1.49-23.96,2v-.3h0Z"/><path class="cls-3" d="M76.7,26c9.68-.54,14.5-.96,23.96-2.09v.35c-9.46,1.11-14.28,1.52-23.96,2.05,0,0,0-.3,0-.3Z"/><path class="cls-3" d="M76.7,25.7c9.68-.55,14.5-.98,23.96-2.14v.35c-9.46,1.13-14.28,1.55-23.96,2.09v-.3h0Z"/><path class="cls-3" d="M76.7,25.4c9.68-.57,14.5-1,23.96-2.18v.35c-9.46,1.15-14.28,1.58-23.96,2.14,0,0,0-.3,0-.3Z"/><path class="cls-3" d="M76.7,25.09c9.68-.58,14.5-1.02,23.96-2.22v.35c-9.46,1.18-14.28,1.61-23.96,2.18,0,0,0-.3,0-.3Z"/><path class="cls-3" d="M76.7,24.79c9.68-.59,14.5-1.04,23.96-2.27v.35c-9.46,1.2-14.28,1.65-23.96,2.22v-.3h0Z"/><path class="cls-3" d="M76.7,24.49c9.68-.6,14.5-1.06,23.96-2.31v.35c-9.46,1.22-14.28,1.68-23.96,2.27,0,0,0-.3,0-.3Z"/><path class="cls-3" d="M76.7,24.18c9.68-.61,14.5-1.08,23.96-2.35v.35c-9.46,1.25-14.28,1.71-23.96,2.31v-.3h0Z"/><path class="cls-3" d="M76.7,23.88c9.68-.62,14.5-1.1,23.96-2.4v.35c-9.46,1.27-14.28,1.74-23.96,2.35,0,0,0-.3,0-.3Z"/><path class="cls-3" d="M76.7,23.58c9.68-.63,14.5-1.12,23.96-2.44v.35c-9.46,1.3-14.28,1.78-23.96,2.4,0,0,0-.3,0-.3Z"/><path class="cls-3" d="M76.7,23.28c9.68-.64,14.5-1.14,23.96-2.48v.35c-9.46,1.32-14.28,1.81-23.96,2.44v-.3h0Z"/><path class="cls-3" d="M76.7,22.97c9.68-.65,14.5-1.16,23.96-2.53v.35c-9.46,1.34-14.28,1.84-23.96,2.48,0,0,0-.3,0-.3Z"/><path class="cls-3" d="M76.7,22.67c9.68-.67,14.5-1.18,23.96-2.57v.35c-9.46,1.37-14.28,1.87-23.96,2.53v-.3h0Z"/><path class="cls-3" d="M76.7,22.37c9.68-.68,14.5-1.2,23.96-2.61v.35c-9.46,1.39-14.28,1.9-23.96,2.57,0,0,0-.3,0-.3Z"/><path class="cls-3" d="M76.7,22.07c9.68-.69,14.5-1.22,23.96-2.66v.35c-9.46,1.41-14.28,1.94-23.96,2.61v-.3h0Z"/><path class="cls-3" d="M76.7,21.76c9.68-.7,14.5-1.24,23.96-2.7v.35c-9.46,1.44-14.28,1.97-23.96,2.66,0,0,0-.3,0-.3Z"/><path class="cls-3" d="M76.7,21.46c9.68-.71,14.5-1.26,23.96-2.74v.35c-9.46,1.46-14.28,2-23.96,2.7,0,0,0-.3,0-.3Z"/><path class="cls-3" d="M76.7,21.16c9.68-.72,14.5-1.28,23.96-2.79v.35c-9.46,1.48-14.28,2.03-23.96,2.74v-.3h0Z"/><path class="cls-3" d="M76.7,20.86c9.68-.73,14.5-1.3,23.96-2.83v.35c-9.46,1.51-14.28,2.07-23.96,2.79,0,0,0-.3,0-.3Z"/><path class="cls-3" d="M76.7,20.55c9.68-.75,14.5-1.32,23.96-2.87v.35c-9.46,1.53-14.28,2.1-23.96,2.83v-.3h0Z"/><path class="cls-3" d="M76.7,20.25c9.68-.76,14.5-1.34,23.96-2.92v.35c-9.46,1.55-14.28,2.13-23.96,2.87,0,0,0-.3,0-.3Z"/><path class="cls-3" d="M76.7,19.95c9.68-.77,14.5-1.36,23.96-2.96v.35c-9.46,1.58-14.28,2.16-23.96,2.92,0,0,0-.3,0-.3Z"/><path class="cls-3" d="M76.7,19.65c9.68-.78,14.5-1.38,23.96-3v.35c-9.46,1.6-14.28,2.19-23.96,2.96v-.3h0Z"/><path class="cls-3" d="M76.7,19.34c9.68-.79,14.5-1.4,23.96-3.05v.35c-9.46,1.62-14.28,2.22-23.96,3,0,0,0-.3,0-.3Z"/><path class="cls-3" d="M76.7,19.04c9.68-.8,14.5-1.42,23.96-3.09v.35c-9.46,1.65-14.28,2.26-23.96,3.05v-.3h0Z"/><path class="cls-3" d="M76.7,18.74c9.68-.81,14.5-1.44,23.96-3.13v.35c-9.46,1.67-14.28,2.29-23.96,3.09,0,0,0-.3,0-.3Z"/><path class="cls-3" d="M76.7,18.44c9.68-.82,14.5-1.46,23.96-3.18v.35c-9.46,1.69-14.28,2.32-23.96,3.13v-.3h0Z"/><path class="cls-3" d="M76.7,18.13c9.68-.83,14.5-1.48,23.96-3.22v.35c-9.46,1.72-14.28,2.35-23.96,3.18,0,0,0-.3,0-.3Z"/><path class="cls-3" d="M76.7,17.83c9.68-.85,14.5-1.5,23.96-3.26v.35c-9.46,1.74-14.28,2.39-23.96,3.22,0,0,0-.3,0-.3Z"/><path class="cls-3" d="M76.7,17.53c9.68-.86,14.5-1.52,23.96-3.31v.35c-9.46,1.76-14.28,2.42-23.96,3.26v-.3h0Z"/><path class="cls-3" d="M76.7,17.22c9.68-.87,14.5-1.54,23.96-3.35v.35c-9.46,1.79-14.28,2.45-23.96,3.31,0,0,0-.3,0-.3Z"/><path class="cls-3" d="M76.7,16.92c9.68-.88,14.5-1.56,23.96-3.39v.35c-9.46,1.81-14.28,2.48-23.96,3.35,0,0,0-.3,0-.3Z"/><path class="cls-3" d="M76.7,16.62c9.68-.89,14.5-1.58,23.96-3.44v.35c-9.46,1.84-14.28,2.51-23.96,3.39v-.3h0Z"/><path class="cls-3" d="M76.7,16.32c9.68-.9,14.5-1.6,23.96-3.48v.35c-9.46,1.86-14.28,2.55-23.96,3.44,0,0,0-.3,0-.3Z"/><path class="cls-3" d="M76.7,16.01c9.68-.91,14.5-1.62,23.96-3.53v.35c-9.46,1.88-14.28,2.58-23.96,3.48v-.3h0Z"/><path class="cls-3" d="M76.7,15.71c9.68-.93,14.5-1.64,23.96-3.57v.35c-9.46,1.91-14.28,2.61-23.96,3.53,0,0,0-.3,0-.3Z"/><path class="cls-3" d="M76.7,15.41c9.68-.94,14.5-1.66,23.96-3.61v.35c-9.46,1.93-14.28,2.64-23.96,3.57v-.3h0Z"/><path class="cls-3" d="M76.7,15.11c9.68-.95,14.5-1.68,23.96-3.65v.35c-9.46,1.95-14.28,2.68-23.96,3.61,0,0,0-.3,0-.3Z"/><path class="cls-3" d="M76.7,14.8c9.68-.96,14.5-1.7,23.96-3.7v.35c-9.46,1.98-14.28,2.71-23.96,3.65,0,0,0-.3,0-.3Z"/><path class="cls-3" d="M76.7,14.5c9.68-.97,14.5-1.72,23.96-3.74v.35c-9.46,2-14.28,2.74-23.96,3.7v-.3h0Z"/><path class="cls-3" d="M76.7,14.2c9.68-.98,14.5-1.74,23.96-3.79v.35c-9.46,2.02-14.28,2.77-23.96,3.74,0,0,0-.3,0-.3Z"/><path class="cls-3" d="M76.7,13.9c9.68-.99,14.5-1.76,23.96-3.83v.35c-9.46,2.05-14.28,2.8-23.96,3.79v-.3h0Z"/><path class="cls-3" d="M76.7,13.59c9.68-1,14.5-1.78,23.96-3.87v.35c-9.46,2.07-14.28,2.84-23.96,3.83,0,0,0-.3,0-.3Z"/><path class="cls-3" d="M76.7,13.29c9.68-1.01,14.5-1.8,23.96-3.92v.35c-9.46,2.09-14.28,2.87-23.96,3.87v-.3h0Z"/><path class="cls-3" d="M76.7,12.99c9.68-1.03,14.5-1.82,23.96-3.96v.35c-9.46,2.12-14.28,2.9-23.96,3.92,0,0,0-.3,0-.3Z"/><path class="cls-3" d="M76.7,12.69c9.68-1.04,14.5-1.84,23.96-4v.35c-9.46,2.14-14.28,2.93-23.96,3.96,0,0,0-.3,0-.3Z"/><path class="cls-3" d="M76.7,12.38c9.68-1.05,14.5-1.86,23.96-4.05v.35c-9.46,2.16-14.28,2.96-23.96,4v-.3h0Z"/><path class="cls-3" d="M76.7,12.08c9.68-1.06,14.5-1.88,23.96-4.09v.35c-9.46,2.19-14.28,3-23.96,4.05,0,0,0-.3,0-.3Z"/><path class="cls-3" d="M76.7,11.78c9.68-1.07,14.5-1.9,23.96-4.13v.35c-9.46,2.21-14.28,3.03-23.96,4.09,0,0,0-.3,0-.3Z"/><path class="cls-3" d="M76.7,11.48c9.68-1.08,14.5-1.92,23.96-4.18v.35c-9.46,2.24-14.28,3.06-23.96,4.13v-.3h0Z"/><path class="cls-3" d="M76.7,11.17c9.68-1.09,14.5-1.94,23.96-4.22v.35c-9.46,2.26-14.28,3.09-23.96,4.18,0,0,0-.3,0-.3Z"/><path class="cls-3" d="M76.7,10.87c9.68-1.11,14.5-1.96,23.96-4.26v.35c-9.46,2.28-14.28,3.13-23.96,4.22v-.3h0Z"/><path class="cls-3" d="M76.7,10.57c9.68-1.12,14.5-1.98,23.96-4.31v.35c-9.46,2.31-14.28,3.16-23.96,4.26,0,0,0-.3,0-.3Z"/><path class="cls-3" d="M76.7,10.27c9.68-1.13,14.5-2,23.96-4.35v.35c-9.46,2.33-14.28,3.19-23.96,4.31v-.3h0Z"/><path class="cls-3" d="M76.7,9.96c9.68-1.14,14.5-2.02,23.96-4.39v.35c-9.46,2.35-14.28,3.22-23.96,4.35,0,0,0-.3,0-.3Z"/><path class="cls-3" d="M76.7,9.66c9.68-1.15,14.5-2.04,23.96-4.44v.35c-9.46,2.38-14.28,3.25-23.96,4.39v-.3h0Z"/><path class="cls-3" d="M76.7,9.36c9.68-1.16,14.5-2.06,23.96-4.48v.35c-9.46,2.4-14.28,3.29-23.96,4.44,0,0,0-.3,0-.3Z"/><path class="cls-3" d="M100.66,4.88c-9.46,2.42-14.28,3.32-23.96,4.48v-2.44c9.68-1.25,14.5-2.22,23.96-4.83v2.79Z"/></g><path class="cls-3" d="M71.5,7.51c-4.05.4-6.08.54-10.15.71v20.98c0,.77-.1,1.32-.29,1.64-.2.33-.63.5-1.3.5-.45,0-.68,0-1.14,0-.57,0-.94-.17-1.11-.52-.17-.35-.25-.91-.25-1.68V8.34c-4.07.07-6.1.04-10.17-.12v25.9c0,.59.06,1.1.17,1.51.11.42.32.76.62,1.05.3.28.73.49,1.28.62.55.14,1.26.2,2.13.2,6.36.01,9.55,0,15.9-.04,1.02,0,1.81-.1,2.38-.27.56-.17.99-.42,1.27-.76.28-.34.46-.75.54-1.23.08-.48.11-1.03.11-1.63V7.51h0Z"/><g class="cls-5"><path class="cls-3" d="M47.1,37.33c9.76.04,14.67.03,24.4-.07v.17c-9.73.09-14.64.11-24.4.07v-.16Z"/><path class="cls-3" d="M47.1,37.04c9.76.04,14.67.03,24.4-.08v.3c-9.73.1-14.64.11-24.4.07,0,0,0-.29,0-.29Z"/><path class="cls-3" d="M47.1,36.74c9.76.05,14.67.03,24.4-.08v.3c-9.73.11-14.64.12-24.4.08v-.29Z"/><path class="cls-3" d="M47.1,36.45c9.76.05,14.67.03,24.4-.09v.3c-9.73.11-14.64.13-24.4.08v-.29Z"/><path class="cls-3" d="M47.1,36.16c9.76.06,14.67.04,24.4-.1v.3c-9.73.12-14.64.14-24.4.09v-.29h0Z"/><path class="cls-3" d="M47.1,35.87c9.76.06,14.67.04,24.4-.1v.3c-9.73.13-14.64.15-24.4.1v-.29Z"/><path class="cls-3" d="M47.1,35.58c9.76.06,14.67.04,24.4-.11v.3c-9.73.14-14.64.16-24.4.1,0,0,0-.29,0-.29Z"/><path class="cls-3" d="M47.1,35.29c9.76.07,14.67.04,24.4-.11v.3c-9.73.15-14.64.17-24.4.11v-.29h0Z"/><path class="cls-3" d="M47.1,35c9.76.07,14.67.04,24.4-.12v.3c-9.73.16-14.64.18-24.4.11,0,0,0-.29,0-.29Z"/><path class="cls-3" d="M47.1,34.71c9.76.07,14.67.05,24.4-.13v.3c-9.73.17-14.64.19-24.4.12v-.29Z"/><path class="cls-3" d="M47.1,34.42c9.76.08,14.67.05,24.4-.13v.3c-9.73.18-14.64.2-24.4.13v-.29h0Z"/><path class="cls-3" d="M47.1,34.13c9.76.08,14.67.05,24.4-.14v.3c-9.73.18-14.64.21-24.4.13v-.29Z"/><path class="cls-3" d="M47.1,33.84c9.76.08,14.67.05,24.4-.15v.3c-9.73.19-14.64.22-24.4.14,0,0,0-.29,0-.29Z"/><path class="cls-3" d="M47.1,33.54c9.76.09,14.67.06,24.4-.15v.3c-9.73.2-14.64.23-24.4.15v-.29Z"/><path class="cls-3" d="M47.1,33.25c9.76.09,14.67.06,24.4-.16v.3c-9.73.21-14.64.24-24.4.15v-.29h0Z"/><path class="cls-3" d="M47.1,32.96c9.76.1,14.67.06,24.4-.17v.3c-9.73.22-14.64.25-24.4.16,0,0,0-.29,0-.29Z"/><path class="cls-3" d="M47.1,32.67c9.76.1,14.67.06,24.4-.17v.3c-9.73.23-14.64.26-24.4.17v-.29Z"/><path class="cls-3" d="M47.1,32.38c9.76.1,14.67.07,24.4-.18v.3c-9.73.24-14.64.27-24.4.17v-.29h0Z"/><path class="cls-3" d="M47.1,32.09c9.76.11,14.67.07,24.4-.18v.3c-9.73.24-14.64.28-24.4.18v-.29Z"/><path class="cls-3" d="M47.1,31.8c9.76.11,14.67.07,24.4-.19v.3c-9.73.25-14.64.29-24.4.18,0,0,0-.29,0-.29Z"/><path class="cls-3" d="M47.1,31.51c9.76.11,14.67.07,24.4-.2v.3c-9.73.26-14.64.3-24.4.19v-.29h0Z"/><path class="cls-3" d="M47.1,31.22c9.76.12,14.67.08,24.4-.2v.3c-9.73.27-14.64.31-24.4.2,0,0,0-.29,0-.29Z"/><path class="cls-3" d="M47.1,30.93c9.76.12,14.67.08,24.4-.21v.3c-9.73.28-14.64.32-24.4.2v-.29Z"/><path class="cls-3" d="M47.1,30.63c9.76.12,14.67.08,24.4-.21v.3c-9.73.29-14.64.33-24.4.21v-.29Z"/><path class="cls-3" d="M47.1,30.34c9.76.13,14.67.08,24.4-.22v.3c-9.73.3-14.64.34-24.4.21v-.29h0Z"/><path class="cls-3" d="M47.1,30.05c9.76.13,14.67.08,24.4-.23v.3c-9.73.3-14.64.35-24.4.22v-.29Z"/><path class="cls-3" d="M47.1,29.76c9.76.14,14.67.09,24.4-.23v.3c-9.73.31-14.64.36-24.4.23,0,0,0-.29,0-.29Z"/><path class="cls-3" d="M47.1,29.47c9.76.14,14.67.09,24.4-.24v.3c-9.73.32-14.64.37-24.4.23v-.29h0Z"/><path class="cls-3" d="M47.1,29.18c9.76.14,14.67.09,24.4-.25v.3c-9.73.33-14.64.38-24.4.24,0,0,0-.29,0-.29Z"/><path class="cls-3" d="M47.1,28.89c9.76.15,14.67.1,24.4-.25v.3c-9.73.34-14.64.39-24.4.25v-.29Z"/><path class="cls-3" d="M47.1,28.6c9.76.15,14.67.1,24.4-.26v.3c-9.73.35-14.64.4-24.4.25,0,0,0-.29,0-.29Z"/><path class="cls-3" d="M47.1,28.31c9.76.15,14.67.1,24.4-.27v.3c-9.73.36-14.64.41-24.4.26v-.29h0Z"/><path class="cls-3" d="M47.1,28.02c9.76.16,14.67.1,24.4-.27v.3c-9.73.36-14.64.42-24.4.27,0,0,0-.29,0-.29Z"/><path class="cls-3" d="M47.1,27.72c9.76.16,14.67.1,24.4-.28v.3c-9.73.37-14.64.43-24.4.27v-.29Z"/><path class="cls-3" d="M47.1,27.43c9.76.16,14.67.11,24.4-.29v.3c-9.73.38-14.64.44-24.4.28v-.29h0Z"/><path class="cls-3" d="M47.1,27.14c9.76.17,14.67.11,24.4-.29v.3c-9.73.39-14.64.45-24.4.29v-.29Z"/><path class="cls-3" d="M47.1,26.85c9.76.17,14.67.11,24.4-.3v.3c-9.73.4-14.64.46-24.4.29v-.29Z"/><path class="cls-3" d="M47.1,26.56c9.76.17,14.67.11,24.4-.3v.3c-9.73.41-14.64.47-24.4.3,0,0,0-.29,0-.29Z"/><path class="cls-3" d="M47.1,26.27c9.76.18,14.67.12,24.4-.31v.3c-9.73.42-14.64.48-24.4.3v-.29h0Z"/><path class="cls-3" d="M47.1,25.98c9.76.18,14.67.12,24.4-.32v.3c-9.73.43-14.64.49-24.4.31,0,0,0-.29,0-.29Z"/><path class="cls-3" d="M47.1,25.69c9.76.18,14.67.12,24.4-.32v.3c-9.73.43-14.64.5-24.4.32v-.29Z"/><path class="cls-3" d="M47.1,25.4c9.76.19,14.67.12,24.4-.33v.3c-9.73.44-14.64.51-24.4.32v-.29h0Z"/><path class="cls-3" d="M47.1,25.11c9.76.19,14.67.12,24.4-.33v.3c-9.73.45-14.64.52-24.4.33v-.29Z"/><path class="cls-3" d="M47.1,24.82c9.76.2,14.67.13,24.4-.34v.3c-9.73.46-14.64.53-24.4.33,0,0,0-.29,0-.29Z"/><path class="cls-3" d="M47.1,24.52c9.76.2,14.67.13,24.4-.35v.3c-9.73.47-14.64.54-24.4.34v-.29h0Z"/><path class="cls-3" d="M47.1,24.23c9.76.2,14.67.13,24.4-.35v.3c-9.73.48-14.64.55-24.4.35v-.29Z"/><path class="cls-3" d="M47.1,23.94c9.76.21,14.67.14,24.4-.36v.3c-9.73.49-14.64.56-24.4.35,0,0,0-.29,0-.29Z"/><path class="cls-3" d="M47.1,23.65c9.76.21,14.67.14,24.4-.37v.3c-9.73.5-14.64.57-24.4.36v-.29Z"/><path class="cls-3" d="M47.1,23.36c9.76.21,14.67.14,24.4-.37v.3c-9.73.5-14.64.58-24.4.37v-.29h0Z"/><path class="cls-3" d="M47.1,23.07c9.76.22,14.67.14,24.4-.38v.3c-9.73.51-14.64.59-24.4.37v-.29Z"/><path class="cls-3" d="M47.1,22.78c9.76.22,14.67.14,24.4-.39v.3c-9.73.52-14.64.6-24.4.38,0,0,0-.29,0-.29Z"/><path class="cls-3" d="M47.1,22.49c9.76.22,14.67.15,24.4-.39v.3c-9.73.53-14.64.61-24.4.39v-.29h0Z"/><path class="cls-3" d="M47.1,22.2c9.76.23,14.67.15,24.4-.4v.3c-9.73.54-14.64.62-24.4.39,0,0,0-.29,0-.29Z"/><path class="cls-3" d="M47.1,21.91c9.76.23,14.67.15,24.4-.4v.3c-9.73.55-14.64.63-24.4.4v-.29Z"/><path class="cls-3" d="M47.1,21.61c9.76.24,14.67.15,24.4-.41v.3c-9.73.56-14.64.64-24.4.4v-.29h0Z"/><path class="cls-3" d="M47.1,21.32c9.76.24,14.67.16,24.4-.42v.3c-9.73.56-14.64.65-24.4.41v-.29Z"/><path class="cls-3" d="M47.1,21.03c9.76.24,14.67.16,24.4-.42v.3c-9.73.57-14.64.66-24.4.42v-.29Z"/><path class="cls-3" d="M47.1,20.74c9.76.25,14.67.16,24.4-.43v.3c-9.73.58-14.64.67-24.4.42,0,0,0-.29,0-.29Z"/><path class="cls-3" d="M47.1,20.45c9.76.25,14.67.16,24.4-.44v.3c-9.73.59-14.64.68-24.4.43v-.29h0Z"/><path class="cls-3" d="M47.1,20.16c9.76.25,14.67.17,24.4-.44v.3c-9.73.6-14.64.69-24.4.44,0,0,0-.29,0-.29Z"/><path class="cls-3" d="M47.1,19.87c9.76.26,14.67.17,24.4-.45v.3c-9.73.61-14.64.7-24.4.44v-.29Z"/><path class="cls-3" d="M47.1,19.58c9.76.26,14.67.17,24.4-.46v.3c-9.73.62-14.64.71-24.4.45v-.29h0Z"/><path class="cls-3" d="M47.1,19.29c9.76.26,14.67.17,24.4-.46v.3c-9.73.62-14.64.72-24.4.46v-.29Z"/><path class="cls-3" d="M47.1,19c9.76.27,14.67.18,24.4-.47v.3c-9.73.63-14.64.73-24.4.46,0,0,0-.29,0-.29Z"/><path class="cls-3" d="M47.1,18.7c9.76.27,14.67.18,24.4-.47v.3c-9.73.64-14.64.74-24.4.47v-.29Z"/><path class="cls-3" d="M47.1,18.41c9.76.28,14.67.18,24.4-.48v.3c-9.73.65-14.64.75-24.4.47v-.29h0Z"/><path class="cls-3" d="M47.1,18.12c9.76.28,14.67.18,24.4-.49v.3c-9.73.66-14.64.76-24.4.48v-.29Z"/><path class="cls-3" d="M47.1,17.83c9.76.28,14.67.18,24.4-.49v.3c-9.73.67-14.64.77-24.4.49v-.29Z"/><path class="cls-3" d="M47.1,17.54c9.76.29,14.67.19,24.4-.5v.3c-9.73.68-14.64.78-24.4.49v-.29h0Z"/><path class="cls-3" d="M47.1,17.25c9.76.29,14.67.19,24.4-.5v.3c-9.73.68-14.64.79-24.4.5v-.29Z"/><path class="cls-3" d="M47.1,16.96c9.76.29,14.67.19,24.4-.51v.3c-9.73.69-14.64.79-24.4.5,0,0,0-.29,0-.29Z"/><path class="cls-3" d="M47.1,16.67c9.76.3,14.67.19,24.4-.52v.3c-9.73.7-14.64.81-24.4.51v-.29h0Z"/><path class="cls-3" d="M47.1,16.38c9.76.3,14.67.2,24.4-.52v.3c-9.73.71-14.64.82-24.4.52,0,0,0-.29,0-.29Z"/><path class="cls-3" d="M47.1,16.09c9.76.31,14.67.2,24.4-.53v.3c-9.73.72-14.64.82-24.4.52v-.29Z"/><path class="cls-3" d="M47.1,15.8c9.76.31,14.67.2,24.4-.54v.3c-9.73.73-14.64.83-24.4.53,0,0,0-.29,0-.29Z"/><path class="cls-3" d="M47.1,15.5c9.76.31,14.67.2,24.4-.54v.3c-9.73.74-14.64.85-24.4.54v-.29h0Z"/><path class="cls-3" d="M47.1,15.21c9.76.32,14.67.21,24.4-.55v.3c-9.73.75-14.64.86-24.4.54,0,0,0-.29,0-.29Z"/><path class="cls-3" d="M47.1,14.92c9.76.32,14.67.21,24.4-.56v.3c-9.73.75-14.64.86-24.4.55v-.29Z"/><path class="cls-3" d="M47.1,14.63c9.76.32,14.67.21,24.4-.56v.3c-9.73.76-14.64.88-24.4.56v-.29Z"/><path class="cls-3" d="M47.1,14.34c9.76.33,14.67.21,24.4-.57v.3c-9.73.77-14.64.89-24.4.56v-.29h0Z"/><path class="cls-3" d="M47.1,14.05c9.76.33,14.67.21,24.4-.57v.3c-9.73.78-14.64.89-24.4.57v-.29Z"/><path class="cls-3" d="M47.1,13.76c9.76.33,14.67.22,24.4-.58v.3c-9.73.79-14.64.9-24.4.57,0,0,0-.29,0-.29Z"/><path class="cls-3" d="M47.1,13.47c9.76.34,14.67.22,24.4-.59v.3c-9.73.8-14.64.91-24.4.58v-.29h0Z"/><path class="cls-3" d="M47.1,13.18c9.76.34,14.67.22,24.4-.59v.3c-9.73.81-14.64.92-24.4.59,0,0,0-.29,0-.29Z"/><path class="cls-3" d="M47.1,12.89c9.76.35,14.67.22,24.4-.6v.3c-9.73.82-14.64.93-24.4.59v-.29Z"/><path class="cls-3" d="M47.1,12.59c9.76.35,14.67.23,24.4-.61v.3c-9.73.82-14.64.94-24.4.6,0,0,0-.29,0-.29Z"/><path class="cls-3" d="M47.1,12.3c9.76.35,14.67.23,24.4-.61v.3c-9.73.83-14.64.95-24.4.61v-.29h0Z"/><path class="cls-3" d="M47.1,12.01c9.76.36,14.67.23,24.4-.62v.3c-9.73.84-14.64.96-24.4.61v-.29Z"/><path class="cls-3" d="M47.1,11.72c9.76.36,14.67.23,24.4-.62v.3c-9.73.85-14.64.97-24.4.62v-.29h0Z"/><path class="cls-3" d="M47.1,11.43c9.76.36,14.67.24,24.4-.63v.3c-9.73.86-14.64.98-24.4.62v-.29Z"/><path class="cls-3" d="M47.1,11.14c9.76.37,14.67.24,24.4-.64v.3c-9.73.87-14.64.99-24.4.63,0,0,0-.29,0-.29Z"/><path class="cls-3" d="M47.1,10.85c9.76.37,14.67.24,24.4-.64v.3c-9.73.88-14.64,1-24.4.64v-.29Z"/><path class="cls-3" d="M47.1,10.56c9.76.37,14.67.24,24.4-.65v.3c-9.73.89-14.64,1.01-24.4.64v-.29h0Z"/><path class="cls-3" d="M71.5,9.91c-9.73.89-14.64,1.02-24.4.65v-2.35c9.76.4,14.67.26,24.4-.7v2.39Z"/></g><path class="cls-3" d="M41.76,26.92c0-.81-.16-1.47-.48-1.99-.32-.52-.76-.95-1.33-1.29-.57-.34-1.22-.61-1.95-.81-.74-.2-1.52-.38-2.35-.52.83-.13,1.6-.29,2.32-.48.71-.19,1.34-.45,1.87-.78.53-.33.94-.76,1.25-1.29.3-.52.46-1.19.46-2,0-.6.02-1.2.06-1.79.04-.6.06-1.19.06-1.79,0-.81-.07-1.59-.23-2.36-.15-.77-.45-1.46-.91-2.08-.45-.62-1.11-1.14-1.98-1.56-.87-.42-2.04-.71-3.51-.87-7.01-.78-10.5-1.35-17.42-2.83v32.72c7.07.14,10.65.2,17.81.27,4.22.04,6.34-1.59,6.34-4.88v-5.65h0ZM31.52,16.8c0,.68-.2,1.14-.59,1.38-.39.24-.91.33-1.55.28-.68-.06-1.01-.1-1.69-.16v-5.31c.68.08,1.01.12,1.69.2.64.07,1.15.29,1.55.66s.59.82.59,1.38v1.57h0ZM31.46,29.09c0,.52-.1.96-.28,1.31-.19.35-.81.5-1.86.46-.65-.03-.98-.04-1.63-.07v-5.73c.58.04.88.06,1.46.1.86.06,1.47.22,1.8.49s.51.68.51,1.23v2.22h0Z"/><g class="cls-8"><path class="cls-3" d="M27.69,30.67c1.51.07,2.26.1,3.78.16v.11c-1.51-.06-2.27-.09-3.78-.15v-.11Z"/><path class="cls-3" d="M27.69,30.36c1.51.07,2.26.1,3.78.16v.3c-1.51-.06-2.27-.09-3.78-.16v-.31Z"/><path class="cls-3" d="M27.69,30.05c1.51.07,2.26.11,3.78.17v.3c-1.51-.06-2.27-.09-3.78-.16v-.31Z"/><path class="cls-3" d="M27.69,29.74c1.51.07,2.26.11,3.78.17v.3c-1.51-.06-2.27-.09-3.78-.17v-.31Z"/><path class="cls-3" d="M27.69,29.44c1.51.08,2.26.11,3.78.18v.3c-1.51-.06-2.27-.1-3.78-.17v-.31Z"/><path class="cls-3" d="M27.69,29.13c1.51.08,2.26.11,3.78.18v.3c-1.51-.07-2.27-.1-3.78-.18v-.31Z"/><path class="cls-3" d="M27.69,28.82c1.51.08,2.26.12,3.78.19v.3c-1.51-.07-2.27-.1-3.78-.18v-.31Z"/><path class="cls-3" d="M27.69,28.51c1.51.08,2.26.12,3.78.19v.3c-1.51-.07-2.27-.11-3.78-.19v-.31h0Z"/><path class="cls-3" d="M27.69,28.21c1.51.08,2.26.12,3.78.19v.3c-1.51-.07-2.27-.11-3.78-.19v-.31Z"/><path class="cls-3" d="M27.69,27.9c1.51.09,2.26.13,3.78.2v.3c-1.51-.07-2.27-.11-3.78-.19v-.31Z"/><path class="cls-3" d="M27.69,27.59c1.51.09,2.26.13,3.78.21v.3c-1.51-.07-2.27-.11-3.78-.2v-.31Z"/><path class="cls-3" d="M27.69,27.28c1.51.09,2.26.13,3.78.21v.3c-1.51-.08-2.27-.12-3.78-.21v-.31Z"/><path class="cls-3" d="M27.69,26.97c1.51.09,2.26.14,3.78.21v.3c-1.51-.08-2.27-.12-3.78-.21v-.31h0Z"/><path class="cls-3" d="M27.69,26.67c1.51.09,2.26.14,3.78.22v.3c-1.51-.08-2.27-.12-3.78-.21v-.31Z"/><path class="cls-3" d="M27.69,26.36c1.51.1,2.26.14,3.78.22v.3c-1.51-.08-2.27-.12-3.78-.22v-.31Z"/><path class="cls-3" d="M27.69,26.05c1.51.1,2.26.14,3.78.23v.3c-1.51-.08-2.27-.13-3.78-.22v-.31Z"/><path class="cls-3" d="M27.69,25.74c1.51.1,2.26.15,3.78.23v.3c-1.51-.08-2.27-.13-3.78-.23v-.31Z"/><path class="cls-3" d="M27.69,25.43c1.51.1,2.26.15,3.78.24v.3c-1.51-.09-2.27-.13-3.78-.23v-.31Z"/><path class="cls-3" d="M27.69,25.13c1.51.11,2.26.15,3.78.24v.3c-1.51-.09-2.27-.14-3.78-.24v-.31Z"/><path class="cls-3" d="M31.46,25.37c-1.51-.09-2.27-.14-3.78-.24v-.07c1.51.11,2.26.15,3.78.25v.07h0Z"/><path class="cls-3" d="M27.69,18.04c1.53.15,2.3.23,3.83.36v.25c-1.54-.13-2.3-.2-3.83-.36v-.25Z"/><path class="cls-3" d="M27.69,17.73c1.53.16,2.3.23,3.83.36v.3c-1.54-.13-2.3-.21-3.83-.36v-.31Z"/><path class="cls-3" d="M27.69,17.43c1.53.16,2.3.23,3.83.37v.3c-1.54-.14-2.3-.21-3.83-.36v-.31Z"/><path class="cls-3" d="M27.69,17.12c1.53.16,2.3.24,3.83.38v.3c-1.54-.14-2.3-.21-3.83-.37v-.31Z"/><path class="cls-3" d="M27.69,16.81c1.53.16,2.3.24,3.83.38v.3c-1.54-.14-2.3-.21-3.83-.38v-.31Z"/><path class="cls-3" d="M27.69,16.5c1.53.17,2.3.24,3.83.39v.3c-1.54-.14-2.3-.22-3.83-.38v-.31Z"/><path class="cls-3" d="M27.69,16.19c1.53.17,2.3.25,3.83.39v.3c-1.54-.14-2.3-.22-3.83-.39v-.31Z"/><path class="cls-3" d="M27.69,15.89c1.53.17,2.3.25,3.83.39v.3c-1.54-.14-2.3-.22-3.83-.39v-.31Z"/><path class="cls-3" d="M27.69,15.58c1.53.17,2.3.25,3.83.4v.3c-1.54-.15-2.3-.22-3.83-.39v-.31Z"/><path class="cls-3" d="M27.69,15.27c1.53.17,2.3.25,3.83.4v.3c-1.54-.15-2.3-.23-3.83-.4v-.31h0Z"/><path class="cls-3" d="M27.69,14.96c1.53.18,2.3.26,3.83.41v.3c-1.54-.15-2.3-.23-3.83-.4v-.31h0Z"/><path class="cls-3" d="M27.69,14.65c1.53.18,2.3.26,3.83.41v.3c-1.54-.15-2.3-.23-3.83-.41v-.31Z"/><path class="cls-3" d="M27.69,14.35c1.53.18,2.3.26,3.83.42v.3c-1.54-.15-2.3-.24-3.83-.41v-.31Z"/><path class="cls-3" d="M27.69,14.04c1.53.18,2.3.27,3.83.42v.3c-1.54-.15-2.3-.24-3.83-.42v-.31Z"/><path class="cls-3" d="M27.69,13.73c1.53.18,2.3.27,3.83.43v.3c-1.54-.16-2.3-.24-3.83-.42v-.31Z"/><path class="cls-3" d="M27.69,13.42c1.53.19,2.3.27,3.83.43v.3c-1.54-.16-2.3-.24-3.83-.43v-.31Z"/><path class="cls-3" d="M27.69,13.11c1.53.19,2.3.28,3.83.44v.3c-1.54-.16-2.3-.25-3.83-.43v-.31Z"/><path class="cls-3" d="M31.52,13.55c-1.54-.16-2.3-.25-3.83-.44v-.13c1.53.19,2.3.28,3.83.44v.12Z"/><path class="cls-3" d="M17.6,36.95c9.57.21,14.43.28,24.15.35v.21c-9.73-.07-14.58-.13-24.15-.33,0,0,0-.23,0-.23Z"/><path class="cls-3" d="M17.6,36.62c9.57.23,14.43.3,24.15.38v.29c-9.73-.07-14.58-.14-24.15-.35v-.32h0Z"/><path class="cls-3" d="M17.6,36.3c9.57.24,14.43.33,24.15.41v.29c-9.73-.08-14.58-.15-24.15-.38v-.32h0Z"/><path class="cls-3" d="M17.6,35.97c9.57.26,14.43.35,24.15.44v.29c-9.73-.08-14.58-.17-24.15-.41,0,0,0-.32,0-.32Z"/><path class="cls-3" d="M17.6,35.65c9.57.28,14.43.38,24.15.47v.29c-9.73-.09-14.58-.18-24.15-.44v-.32h0Z"/><path class="cls-3" d="M17.6,35.33c9.57.3,14.43.4,24.15.5v.29c-9.73-.1-14.58-.19-24.15-.47v-.32h0Z"/><path class="cls-3" d="M17.6,35c9.57.32,14.43.43,24.15.53v.29c-9.73-.1-14.58-.2-24.15-.5,0,0,0-.32,0-.32Z"/><path class="cls-3" d="M17.6,34.68c9.57.34,14.43.45,24.15.57v.29c-9.73-.11-14.58-.21-24.15-.53,0,0,0-.32,0-.33Z"/><path class="cls-3" d="M17.6,34.35c9.57.36,14.43.47,24.15.6v.29c-9.73-.11-14.58-.23-24.15-.57,0,0,0-.32,0-.32Z"/><path class="cls-3" d="M17.6,34.03c9.57.37,14.43.5,24.15.63v.29c-9.73-.12-14.58-.24-24.15-.6,0,0,0-.32,0-.32Z"/><path class="cls-3" d="M17.6,33.7c9.57.39,14.43.52,24.15.66v.29c-9.73-.13-14.58-.25-24.15-.63,0,0,0-.32,0-.32Z"/><path class="cls-3" d="M17.6,33.38c9.57.41,14.43.55,24.15.69v.29c-9.73-.13-14.58-.26-24.15-.66,0,0,0-.32,0-.33Z"/><path class="cls-3" d="M17.6,33.05c9.57.43,14.43.57,24.15.72v.29c-9.73-.14-14.58-.28-24.15-.69,0,0,0-.32,0-.32Z"/><path class="cls-3" d="M17.6,32.73c9.57.45,14.43.6,24.15.75v.29c-9.73-.15-14.58-.29-24.15-.72,0,0,0-.32,0-.32Z"/><path class="cls-3" d="M17.6,32.4c9.57.47,14.43.62,24.15.78v.29c-9.73-.15-14.58-.3-24.15-.75,0,0,0-.32,0-.32Z"/><path class="cls-3" d="M17.6,32.08c9.57.49,14.43.65,24.15.81v.29c-9.73-.16-14.58-.32-24.15-.78,0,0,0-.32,0-.33Z"/><path class="cls-3" d="M17.6,31.75c9.57.5,14.43.67,24.15.84v.29c-9.73-.17-14.58-.33-24.15-.81v-.32h0Z"/><path class="cls-3" d="M17.6,31.43c9.57.52,14.43.7,24.15.88v.29c-9.73-.17-14.58-.34-24.15-.84v-.32h0Z"/><path class="cls-3" d="M17.6,31.1c9.57.54,14.43.72,24.15.91v.29c-9.73-.18-14.58-.35-24.15-.88,0,0,0-.32,0-.32Z"/><path class="cls-3" d="M17.6,30.78c9.57.56,14.43.75,24.15.94v.29c-9.73-.18-14.58-.36-24.15-.91v-.32h0Z"/><path class="cls-3" d="M17.6,30.46c9.57.58,14.43.77,24.15.97v.29c-9.73-.19-14.58-.38-24.15-.94v-.32h0Z"/><path class="cls-3" d="M17.6,30.13c9.57.6,14.43.8,24.15,1v.29c-9.73-.2-14.58-.39-24.15-.97,0,0,0-.32,0-.32Z"/><path class="cls-3" d="M17.6,29.81c9.57.61,14.43.82,24.15,1.03v.29c-9.73-.2-14.58-.4-24.15-1,0,0,0-.32,0-.32Z"/><path class="cls-3" d="M17.6,29.48c9.57.63,14.43.85,24.15,1.06v.29c-9.73-.21-14.58-.42-24.15-1.03,0,0,0-.32,0-.32Z"/><path class="cls-3" d="M17.6,29.16c9.57.65,14.43.87,24.15,1.09v.29c-9.73-.21-14.58-.43-24.15-1.06,0,0,0-.32,0-.33Z"/><path class="cls-3" d="M17.6,28.83c9.57.67,14.43.89,24.15,1.12v.29c-9.73-.22-14.58-.44-24.15-1.09,0,0,0-.32,0-.32Z"/><path class="cls-3" d="M17.6,28.51c9.57.69,14.43.92,24.15,1.15v.29c-9.73-.23-14.58-.45-24.15-1.12,0,0,0-.32,0-.32Z"/><path class="cls-3" d="M17.6,28.18c9.57.71,14.43.94,24.15,1.18v.29c-9.73-.23-14.58-.46-24.15-1.15,0,0,0-.32,0-.32Z"/><path class="cls-3" d="M17.6,27.86c9.57.73,14.43.97,24.15,1.22v.29c-9.73-.24-14.58-.48-24.15-1.18,0,0,0-.32,0-.33Z"/><path class="cls-3" d="M17.6,27.53c9.57.74,14.43.99,24.15,1.25v.29c-9.73-.25-14.58-.49-24.15-1.22,0,0,0-.32,0-.32Z"/><path class="cls-3" d="M17.6,27.21c9.57.76,14.43,1.02,24.15,1.28v.29c-9.73-.25-14.58-.5-24.15-1.25,0,0,0-.32,0-.32Z"/><path class="cls-3" d="M17.6,26.88c9.57.78,14.43,1.04,24.15,1.31v.29c-9.73-.26-14.58-.51-24.15-1.28,0,0,0-.32,0-.32Z"/><path class="cls-3" d="M17.6,26.56c9.57.8,14.43,1.07,24.15,1.34v.29c-9.73-.27-14.58-.53-24.15-1.31,0,0,0-.32,0-.32Z"/><path class="cls-3" d="M17.6,26.23c9.57.82,14.43,1.09,24.15,1.37v.29c-9.73-.27-14.58-.54-24.15-1.34,0,0,0-.32,0-.33Z"/><path class="cls-3" d="M17.6,25.91c9.57.84,14.43,1.12,24.15,1.4v.29c-9.73-.28-14.58-.55-24.15-1.37,0,0,0-.32,0-.32Z"/><path class="cls-3" d="M17.6,25.58c9.57.86,14.43,1.14,24.15,1.43v.29c-9.73-.29-14.58-.57-24.15-1.4,0,0,0-.32,0-.32Z"/><path class="cls-3" d="M17.6,25.26c9.57.87,14.43,1.17,24.15,1.46v.29c-9.73-.29-14.58-.58-24.15-1.43,0,0,0-.32,0-.32Z"/><path class="cls-3" d="M17.6,24.94c9.57.89,14.43,1.19,24.15,1.5v.29c-9.73-.3-14.58-.59-24.15-1.46,0,0,0-.32,0-.33Z"/><path class="cls-3" d="M17.6,24.61c9.57.91,14.43,1.22,24.15,1.53v.29c-9.73-.3-14.58-.6-24.15-1.5,0,0,0-.32,0-.32Z"/><path class="cls-3" d="M17.6,24.29c9.57.93,14.43,1.24,24.15,1.56v.29c-9.73-.31-14.58-.61-24.15-1.53,0,0,0-.32,0-.32Z"/><path class="cls-3" d="M17.6,23.96c9.57.95,14.43,1.26,24.15,1.59v.29c-9.73-.32-14.58-.63-24.15-1.56,0,0,0-.32,0-.32Z"/><path class="cls-3" d="M17.6,23.64c9.57.97,14.43,1.29,24.15,1.62v.29c-9.73-.32-14.58-.64-24.15-1.59,0,0,0-.32,0-.33Z"/><path class="cls-3" d="M17.6,23.31c9.57.99,14.43,1.32,24.15,1.65v.29c-9.73-.33-14.58-.65-24.15-1.62,0,0,0-.32,0-.32Z"/><path class="cls-3" d="M17.6,22.99c9.57,1,14.43,1.34,24.15,1.68v.29c-9.73-.33-14.58-.67-24.15-1.65,0,0,0-.32,0-.32Z"/><path class="cls-3" d="M17.6,22.66c9.57,1.02,14.43,1.36,24.15,1.71v.29c-9.73-.34-14.58-.68-24.15-1.68,0,0,0-.32,0-.32Z"/><path class="cls-3" d="M17.6,22.34c9.57,1.04,14.43,1.39,24.15,1.74v.29c-9.73-.35-14.58-.69-24.15-1.71,0,0,0-.32,0-.32Z"/><path class="cls-3" d="M17.6,22.01c9.57,1.06,14.43,1.41,24.15,1.77v.29c-9.73-.35-14.58-.7-24.15-1.74,0,0,0-.32,0-.33Z"/><path class="cls-3" d="M17.6,21.69c9.57,1.08,14.43,1.44,24.15,1.81v.29c-9.73-.36-14.58-.71-24.15-1.77,0,0,0-.32,0-.32Z"/><path class="cls-3" d="M17.6,21.36c9.57,1.1,14.43,1.46,24.15,1.84v.29c-9.73-.37-14.58-.73-24.15-1.81,0,0,0-.32,0-.32Z"/><path class="cls-3" d="M17.6,21.04c9.57,1.11,14.43,1.49,24.15,1.87v.29c-9.73-.37-14.58-.74-24.15-1.84,0,0,0-.32,0-.32Z"/><path class="cls-3" d="M17.6,20.71c9.57,1.13,14.43,1.51,24.15,1.9v.29c-9.73-.38-14.58-.75-24.15-1.87,0,0,0-.32,0-.33Z"/><path class="cls-3" d="M17.6,20.39c9.57,1.15,14.43,1.54,24.15,1.93v.29c-9.73-.39-14.58-.76-24.15-1.9,0,0,0-.32,0-.32Z"/><path class="cls-3" d="M17.6,20.06c9.57,1.17,14.43,1.56,24.15,1.96v.29c-9.73-.39-14.58-.78-24.15-1.93,0,0,0-.32,0-.32Z"/><path class="cls-3" d="M17.6,19.74c9.57,1.19,14.43,1.59,24.15,1.99v.29c-9.73-.4-14.58-.79-24.15-1.96,0,0,0-.32,0-.32Z"/><path class="cls-3" d="M17.6,19.42c9.57,1.21,14.43,1.61,24.15,2.02v.29c-9.73-.4-14.58-.8-24.15-1.99,0,0,0-.32,0-.33Z"/><path class="cls-3" d="M17.6,19.09c9.57,1.22,14.43,1.64,24.15,2.05v.29c-9.73-.41-14.58-.82-24.15-2.02,0,0,0-.32,0-.32Z"/><path class="cls-3" d="M17.6,18.77c9.57,1.24,14.43,1.66,24.15,2.08v.29c-9.73-.42-14.58-.83-24.15-2.05,0,0,0-.32,0-.32Z"/><path class="cls-3" d="M17.6,18.44c9.57,1.26,14.43,1.68,24.15,2.11v.29c-9.73-.42-14.58-.84-24.15-2.08,0,0,0-.32,0-.32Z"/><path class="cls-3" d="M17.6,18.12c9.57,1.28,14.43,1.71,24.15,2.15v.29c-9.73-.43-14.58-.85-24.15-2.11,0,0,0-.32,0-.33Z"/><path class="cls-3" d="M17.6,17.79c9.57,1.3,14.43,1.74,24.15,2.18v.29c-9.73-.44-14.58-.86-24.15-2.15,0,0,0-.32,0-.33Z"/><path class="cls-3" d="M17.6,17.47c9.57,1.32,14.43,1.76,24.15,2.21v.29c-9.73-.44-14.58-.88-24.15-2.18,0,0,0-.32,0-.32Z"/><path class="cls-3" d="M17.6,17.14c9.57,1.34,14.43,1.78,24.15,2.24v.29c-9.73-.45-14.58-.89-24.15-2.21,0,0,0-.32,0-.32Z"/><path class="cls-3" d="M17.6,16.82c9.57,1.36,14.43,1.81,24.15,2.27v.29c-9.73-.46-14.58-.9-24.15-2.24,0,0,0-.32,0-.32Z"/><path class="cls-3" d="M17.6,16.49c9.57,1.37,14.43,1.83,24.15,2.3v.29c-9.73-.46-14.58-.92-24.15-2.27,0,0,0-.32,0-.33Z"/><path class="cls-3" d="M17.6,16.17c9.57,1.39,14.43,1.86,24.15,2.33v.29c-9.73-.47-14.58-.93-24.15-2.3,0,0,0-.32,0-.32Z"/><path class="cls-3" d="M17.6,15.84c9.57,1.41,14.43,1.88,24.15,2.36v.29c-9.73-.47-14.58-.94-24.15-2.33,0,0,0-.32,0-.32Z"/><path class="cls-3" d="M17.6,15.52c9.57,1.43,14.43,1.91,24.15,2.39v.29c-9.73-.48-14.58-.95-24.15-2.36,0,0,0-.32,0-.32Z"/><path class="cls-3" d="M17.6,15.19c9.57,1.45,14.43,1.93,24.15,2.43v.29c-9.73-.49-14.58-.96-24.15-2.39,0,0,0-.32,0-.33Z"/><path class="cls-3" d="M17.6,14.87c9.57,1.47,14.43,1.96,24.15,2.46v.29c-9.73-.49-14.58-.98-24.15-2.43,0,0,0-.32,0-.32Z"/><path class="cls-3" d="M17.6,14.54c9.57,1.48,14.43,1.98,24.15,2.49v.29c-9.73-.5-14.58-.99-24.15-2.46,0,0,0-.32,0-.32Z"/><path class="cls-3" d="M17.6,14.22c9.57,1.5,14.43,2.01,24.15,2.52v.29c-9.73-.5-14.58-1-24.15-2.49,0,0,0-.32,0-.32Z"/><path class="cls-3" d="M17.6,13.9c9.57,1.52,14.43,2.03,24.15,2.55v.29c-9.73-.51-14.58-1.01-24.15-2.52,0,0,0-.32,0-.33Z"/><path class="cls-3" d="M17.6,13.57c9.57,1.54,14.43,2.06,24.15,2.58v.29c-9.73-.52-14.58-1.03-24.15-2.55,0,0,0-.32,0-.32Z"/><path class="cls-3" d="M17.6,13.25c9.57,1.56,14.43,2.08,24.15,2.61v.29c-9.73-.52-14.58-1.04-24.15-2.58,0,0,0-.32,0-.32Z"/><path class="cls-3" d="M17.6,12.92c9.57,1.58,14.43,2.11,24.15,2.64v.29c-9.73-.53-14.58-1.05-24.15-2.61,0,0,0-.32,0-.32Z"/><path class="cls-3" d="M17.6,12.6c9.57,1.6,14.43,2.13,24.15,2.67v.29c-9.73-.54-14.58-1.07-24.15-2.64,0,0,0-.32,0-.32Z"/><path class="cls-3" d="M17.6,12.27c9.57,1.61,14.43,2.15,24.15,2.7v.29c-9.73-.54-14.58-1.08-24.15-2.67,0,0,0-.32,0-.33Z"/><path class="cls-3" d="M17.6,11.95c9.57,1.63,14.43,2.18,24.15,2.74v.29c-9.73-.55-14.58-1.09-24.15-2.7,0,0,0-.32,0-.32Z"/><path class="cls-3" d="M17.6,11.62c9.57,1.65,14.43,2.21,24.15,2.77v.29c-9.73-.56-14.58-1.1-24.15-2.74,0,0,0-.32,0-.32Z"/><path class="cls-3" d="M17.6,11.3c9.57,1.67,14.43,2.23,24.15,2.8v.29c-9.73-.56-14.58-1.11-24.15-2.77,0,0,0-.32,0-.32Z"/><path class="cls-3" d="M17.6,10.97c9.57,1.69,14.43,2.25,24.15,2.83v.29c-9.73-.57-14.58-1.13-24.15-2.8,0,0,0-.32,0-.33Z"/><path class="cls-3" d="M17.6,10.65c9.57,1.71,14.43,2.28,24.15,2.86v.29c-9.73-.57-14.58-1.14-24.15-2.83,0,0,0-.32,0-.32Z"/><path class="cls-3" d="M17.6,10.32c9.57,1.72,14.43,2.3,24.15,2.89v.29c-9.73-.58-14.58-1.15-24.15-2.86,0,0,0-.32,0-.32Z"/><path class="cls-3" d="M17.6,10c9.57,1.74,14.43,2.33,24.15,2.92v.29c-9.73-.59-14.58-1.17-24.15-2.89,0,0,0-.32,0-.32Z"/><path class="cls-3" d="M17.6,9.67c9.57,1.76,14.43,2.35,24.15,2.95v.29c-9.73-.59-14.58-1.18-24.15-2.92,0,0,0-.32,0-.33Z"/><path class="cls-3" d="M17.6,9.35c9.57,1.78,14.43,2.38,24.15,2.98v.29c-9.73-.6-14.58-1.19-24.15-2.95,0,0,0-.32,0-.32Z"/><path class="cls-3" d="M17.6,9.03c9.57,1.8,14.43,2.4,24.15,3.01v.29c-9.73-.61-14.58-1.2-24.15-2.98,0,0,0-.32,0-.32Z"/><path class="cls-3" d="M17.6,8.7c9.57,1.82,14.43,2.43,24.15,3.04v.29c-9.73-.61-14.58-1.21-24.15-3.01,0,0,0-.32,0-.32Z"/><path class="cls-3" d="M17.6,8.38c9.57,1.84,14.43,2.45,24.15,3.08v.29c-9.73-.62-14.58-1.23-24.15-3.04,0,0,0-.32,0-.32Z"/><path class="cls-3" d="M17.6,8.05c9.57,1.86,14.43,2.48,24.15,3.11v.29c-9.73-.62-14.58-1.24-24.15-3.08,0,0,0-.32,0-.33Z"/><path class="cls-3" d="M17.6,7.73c9.57,1.87,14.43,2.5,24.15,3.14v.29c-9.73-.63-14.58-1.25-24.15-3.11,0,0,0-.32,0-.32Z"/><path class="cls-3" d="M17.6,7.4c9.57,1.89,14.43,2.53,24.15,3.17v.29c-9.73-.64-14.58-1.26-24.15-3.14,0,0,0-.32,0-.32Z"/><path class="cls-3" d="M17.6,7.08c9.57,1.91,14.43,2.55,24.15,3.2v.29c-9.73-.64-14.58-1.28-24.15-3.17,0,0,0-.32,0-.32Z"/><path class="cls-3" d="M41.76,10.28c-9.73-.65-14.58-1.29-24.15-3.2v-2.62c9.57,2.06,14.43,2.75,24.15,3.45v2.37h0Z"/></g><path class="cls-3" d="M106.91,44.34c-3.87-.11-5.82-.17-9.74-.26v24.5c0,.79-.21,1.33-.63,1.62-.42.29-.85.4-1.28.31-.51-.1-.98-.44-1.4-1.02s-.63-1.32-.63-2.22v-23.28c-3.92-.08-5.89-.12-9.84-.18v22.04c0,.86-.22,1.49-.68,1.91-.45.42-.94.59-1.46.52-.41-.05-.83-.28-1.24-.67s-.62-.94-.62-1.66v-22.2c-3.99-.05-5.99-.08-10-.11v23.07c0,2.46.57,4.23,1.7,5.33,1.13,1.1,2.81,1.77,5.03,2.05,2.3.29,3.45.45,5.75.82,1.05.17,1.97.14,2.75-.09s1.44-.6,1.98-1.12c.54-.52.95-1.14,1.23-1.87.28-.73.42-1.5.42-2.32.11.86.31,1.71.59,2.54.28.83.67,1.6,1.18,2.3.5.71,1.13,1.33,1.9,1.88.76.55,1.7.95,2.81,1.21,2.27.54,3.4.83,5.65,1.44,2.17.59,3.8.5,4.9-.38,1.1-.88,1.64-2.85,1.64-5.87v-28.31h0Z"/><g class="cls-7"><path class="cls-3" d="M69.4,73.21c12.43.93,25.67,3.54,37.51,7.41v.2c-11.84-3.89-25.08-6.52-37.51-7.45v-.16Z"/><path class="cls-3" d="M69.4,72.92c12.43.92,25.66,3.51,37.51,7.35v.36c-11.84-3.87-25.08-6.49-37.51-7.41v-.29h0Z"/><path class="cls-3" d="M69.4,72.62c12.43.91,25.65,3.47,37.51,7.28v.36c-11.85-3.84-25.08-6.43-37.51-7.35v-.29h0Z"/><path class="cls-3" d="M69.4,72.33c12.43.9,25.64,3.43,37.51,7.21v.36c-11.86-3.81-25.08-6.37-37.51-7.28v-.29h0Z"/><path class="cls-3" d="M69.4,72.03c12.43.89,25.63,3.4,37.51,7.14v.36c-11.87-3.78-25.08-6.31-37.51-7.21v-.29h0Z"/><path class="cls-3" d="M69.4,71.73c12.43.88,25.62,3.37,37.51,7.08v.36c-11.88-3.74-25.08-6.25-37.51-7.14v-.29h0Z"/><path class="cls-3" d="M69.4,71.44c12.43.88,25.61,3.33,37.51,7.01v.36c-11.89-3.71-25.08-6.19-37.51-7.08v-.29h0Z"/><path class="cls-3" d="M69.4,71.14c12.43.87,25.6,3.3,37.51,6.94v.36c-11.9-3.68-25.08-6.13-37.51-7.01v-.29h0Z"/><path class="cls-3" d="M69.4,70.85c12.43.86,25.59,3.26,37.51,6.88v.36c-11.91-3.65-25.08-6.08-37.51-6.94v-.29h0Z"/><path class="cls-3" d="M69.4,70.55c12.43.85,25.58,3.23,37.51,6.81v.36c-11.92-3.61-25.08-6.02-37.51-6.88v-.3h0Z"/><path class="cls-3" d="M69.4,70.26c12.43.84,25.57,3.19,37.51,6.74v.36c-11.93-3.58-25.08-5.96-37.51-6.81v-.29h0Z"/><path class="cls-3" d="M69.4,69.96c12.43.83,25.56,3.16,37.51,6.67v.36c-11.94-3.55-25.08-5.9-37.51-6.74v-.29h0Z"/><path class="cls-3" d="M69.4,69.67c12.43.82,25.55,3.12,37.51,6.61v.36c-11.95-3.51-25.08-5.84-37.51-6.67v-.29h0Z"/><path class="cls-3" d="M69.4,69.37c12.43.82,25.54,3.09,37.51,6.54v.36c-11.96-3.48-25.08-5.78-37.51-6.61v-.29h0Z"/><path class="cls-3" d="M69.4,69.07c12.43.81,25.53,3.06,37.51,6.47v.36c-11.97-3.45-25.08-5.72-37.51-6.54v-.29h0Z"/><path class="cls-3" d="M69.4,68.78c12.43.8,25.52,3.02,37.51,6.41v.36c-11.98-3.42-25.08-5.66-37.51-6.47v-.29h0Z"/><path class="cls-3" d="M69.4,68.48c12.43.79,25.51,2.99,37.51,6.34v.36c-11.99-3.38-25.08-5.61-37.51-6.41v-.3Z"/><path class="cls-3" d="M69.4,68.19c12.43.78,25.5,2.95,37.51,6.27v.36c-12-3.35-25.08-5.55-37.51-6.34v-.29h0Z"/><path class="cls-3" d="M69.4,67.89c12.43.77,25.49,2.92,37.51,6.2v.36c-12.01-3.32-25.08-5.49-37.51-6.27v-.29h0Z"/><path class="cls-3" d="M69.4,67.6c12.43.76,25.49,2.89,37.51,6.14v.36c-12.01-3.28-25.08-5.43-37.51-6.2v-.3Z"/><path class="cls-3" d="M69.4,67.3c12.43.76,25.48,2.85,37.51,6.07v.36c-12.02-3.25-25.08-5.37-37.51-6.14v-.29h0Z"/><path class="cls-3" d="M69.4,67.01c12.43.75,25.47,2.82,37.51,6v.36c-12.03-3.22-25.08-5.31-37.51-6.07v-.29h0Z"/><path class="cls-3" d="M69.4,66.71c12.43.74,25.46,2.79,37.51,5.94v.36c-12.04-3.18-25.08-5.25-37.51-6v-.3h0Z"/><path class="cls-3" d="M69.4,66.41c12.43.73,25.45,2.75,37.51,5.87v.36c-12.05-3.15-25.08-5.2-37.51-5.94v-.3Z"/><path class="cls-3" d="M69.4,66.12c12.43.72,25.44,2.72,37.51,5.8v.36c-12.06-3.12-25.08-5.14-37.51-5.87v-.29h0Z"/><path class="cls-3" d="M69.4,65.82c12.43.71,25.43,2.68,37.51,5.73v.36c-12.07-3.08-25.07-5.08-37.51-5.8v-.29h0Z"/><path class="cls-3" d="M69.4,65.53c12.44.71,25.42,2.65,37.51,5.67v.36c-12.08-3.05-25.07-5.02-37.51-5.73v-.29h0Z"/><path class="cls-3" d="M69.4,65.23c12.44.7,25.41,2.62,37.51,5.6v.36c-12.09-3.02-25.07-4.96-37.51-5.67v-.29h0Z"/><path class="cls-3" d="M69.4,64.94c12.44.69,25.4,2.58,37.51,5.53v.36c-12.1-2.98-25.07-4.9-37.51-5.6v-.29h0Z"/><path class="cls-3" d="M69.4,64.64c12.44.68,25.4,2.55,37.51,5.47v.36c-12.1-2.95-25.07-4.84-37.51-5.53v-.29h0Z"/><path class="cls-3" d="M69.4,64.35c12.44.67,25.39,2.52,37.51,5.4v.36c-12.11-2.91-25.07-4.79-37.51-5.46v-.29h0Z"/><path class="cls-3" d="M69.4,64.05c12.44.66,25.38,2.49,37.51,5.33v.36c-12.12-2.88-25.07-4.73-37.51-5.4v-.29h0Z"/><path class="cls-3" d="M69.4,63.76c12.44.65,25.37,2.45,37.51,5.26v.36c-12.13-2.85-25.07-4.67-37.51-5.33v-.3Z"/><path class="cls-3" d="M69.4,63.46c12.44.65,25.36,2.42,37.51,5.2v.36c-12.14-2.81-25.07-4.61-37.51-5.26v-.29h0Z"/><path class="cls-3" d="M69.4,63.16c12.44.64,25.35,2.39,37.51,5.13v.36c-12.15-2.78-25.07-4.55-37.51-5.2v-.29h0Z"/><path class="cls-3" d="M69.4,62.87c12.44.63,25.35,2.35,37.51,5.06v.36c-12.15-2.74-25.07-4.49-37.51-5.13v-.29h0Z"/><path class="cls-3" d="M69.4,62.57c12.44.62,25.34,2.32,37.51,5v.36c-12.16-2.71-25.07-4.43-37.51-5.06v-.29h0Z"/><path class="cls-3" d="M69.4,62.28c12.44.61,25.33,2.29,37.51,4.93v.36c-12.17-2.68-25.07-4.38-37.51-5v-.3Z"/><path class="cls-3" d="M69.4,61.98c12.45.6,25.32,2.25,37.51,4.86v.36c-12.18-2.64-25.06-4.32-37.51-4.93v-.29Z"/><path class="cls-3" d="M69.4,61.69c12.45.6,25.31,2.22,37.51,4.79v.36c-12.19-2.61-25.06-4.26-37.51-4.86v-.29h0Z"/><path class="cls-3" d="M69.4,61.39c12.45.59,25.31,2.19,37.51,4.73v.36c-12.19-2.57-25.06-4.2-37.51-4.79v-.29h0Z"/><path class="cls-3" d="M69.4,61.1c12.45.58,25.3,2.16,37.51,4.66v.36c-12.2-2.54-25.06-4.14-37.51-4.73v-.29h0Z"/><path class="cls-3" d="M69.4,60.8c12.45.57,25.29,2.12,37.51,4.59v.36c-12.21-2.5-25.06-4.08-37.51-4.66v-.29h0Z"/><path class="cls-3" d="M69.4,60.5c12.45.56,25.28,2.09,37.51,4.53v.36c-12.22-2.47-25.06-4.02-37.51-4.59v-.3Z"/><path class="cls-3" d="M69.4,60.21c12.45.55,25.27,2.06,37.51,4.46v.36c-12.23-2.43-25.06-3.96-37.51-4.53v-.29Z"/><path class="cls-3" d="M69.4,59.91c12.45.55,25.27,2.03,37.51,4.39v.36c-12.23-2.4-25.06-3.9-37.51-4.46v-.29h0Z"/><path class="cls-3" d="M69.4,59.62c12.46.54,25.26,2,37.51,4.32v.36c-12.24-2.36-25.06-3.85-37.51-4.39v-.29h0Z"/><path class="cls-3" d="M69.4,59.32c12.46.53,25.25,1.96,37.51,4.26v.36c-12.25-2.33-25.06-3.79-37.51-4.32v-.29h0Z"/><path class="cls-3" d="M69.4,59.03c12.46.52,25.25,1.93,37.51,4.19v.36c-12.26-2.29-25.05-3.73-37.51-4.26v-.29h0Z"/><path class="cls-3" d="M69.4,58.73c12.46.51,25.24,1.9,37.51,4.12v.36c-12.26-2.26-25.05-3.67-37.51-4.19v-.3Z"/><path class="cls-3" d="M69.4,58.44c12.46.5,25.23,1.87,37.51,4.06v.36c-12.27-2.22-25.05-3.61-37.51-4.12v-.29h0Z"/><path class="cls-3" d="M69.4,58.14c12.46.5,25.23,1.83,37.51,3.99v.36c-12.28-2.19-25.05-3.55-37.51-4.06v-.29h0Z"/><path class="cls-3" d="M69.4,57.85c12.46.49,25.22,1.8,37.51,3.92v.36c-12.28-2.15-25.05-3.49-37.51-3.99v-.29Z"/><path class="cls-3" d="M69.4,57.55c12.46.48,25.21,1.77,37.51,3.85v.36c-12.29-2.12-25.05-3.43-37.51-3.92v-.29h0Z"/><path class="cls-3" d="M69.4,57.25c12.46.47,25.2,1.74,37.51,3.79v.36c-12.3-2.08-25.05-3.38-37.51-3.85v-.3Z"/><path class="cls-3" d="M69.4,56.96c12.46.46,25.2,1.71,37.51,3.72v.36c-12.31-2.05-25.05-3.32-37.51-3.79v-.29h0Z"/><path class="cls-3" d="M69.4,56.66c12.47.45,25.19,1.68,37.51,3.65v.36c-12.31-2.01-25.04-3.26-37.51-3.72v-.29h0Z"/><path class="cls-3" d="M69.4,56.37c12.47.44,25.18,1.64,37.51,3.59v.36c-12.32-1.98-25.04-3.2-37.51-3.65v-.29h0Z"/><path class="cls-3" d="M69.4,56.07c12.47.44,25.18,1.61,37.51,3.52v.36c-12.32-1.94-25.04-3.14-37.51-3.59v-.29Z"/><path class="cls-3" d="M69.4,55.78c12.47.43,25.17,1.58,37.51,3.45v.36c-12.33-1.91-25.04-3.08-37.51-3.52v-.29h0Z"/><path class="cls-3" d="M69.4,55.48c12.47.42,25.17,1.55,37.51,3.38v.36c-12.34-1.87-25.04-3.02-37.51-3.45v-.3Z"/><path class="cls-3" d="M69.4,55.19c12.47.41,25.16,1.52,37.51,3.32v.36c-12.34-1.83-25.04-2.96-37.51-3.38v-.29h0Z"/><path class="cls-3" d="M69.4,54.89c12.47.4,25.15,1.49,37.51,3.25v.36c-12.35-1.8-25.04-2.9-37.51-3.32v-.29h0Z"/><path class="cls-3" d="M69.4,54.59c12.47.39,25.15,1.46,37.51,3.18v.36c-12.35-1.76-25.04-2.85-37.51-3.25v-.29h0Z"/><path class="cls-3" d="M69.4,54.3c12.47.39,25.14,1.42,37.51,3.12v.36c-12.36-1.73-25.04-2.79-37.51-3.18v-.29h0Z"/><path class="cls-3" d="M69.4,54c12.48.38,25.14,1.39,37.51,3.05v.36c-12.37-1.69-25.04-2.73-37.51-3.12v-.29Z"/><path class="cls-3" d="M69.4,53.71c12.48.37,25.13,1.36,37.51,2.98v.36c-12.37-1.66-25.03-2.67-37.51-3.05v-.3Z"/><path class="cls-3" d="M69.4,53.41c12.48.36,25.13,1.33,37.51,2.91v.36c-12.38-1.62-25.03-2.61-37.51-2.98v-.29h0Z"/><path class="cls-3" d="M69.4,53.12c12.48.35,25.12,1.3,37.51,2.85v.36c-12.38-1.58-25.03-2.55-37.51-2.91v-.29h0Z"/><path class="cls-3" d="M69.4,52.82c12.48.35,25.12,1.27,37.51,2.78v.36c-12.39-1.55-25.03-2.49-37.51-2.85v-.29h0Z"/><path class="cls-3" d="M69.4,52.53c12.48.34,25.11,1.24,37.51,2.71v.36c-12.39-1.51-25.03-2.43-37.51-2.78v-.3Z"/><path class="cls-3" d="M69.4,52.23c12.48.33,25.11,1.21,37.51,2.65v.36c-12.4-1.48-25.03-2.38-37.51-2.71v-.29h0Z"/><path class="cls-3" d="M69.4,51.93c12.48.32,25.1,1.17,37.51,2.58v.36c-12.4-1.44-25.03-2.32-37.51-2.65v-.29h0Z"/><path class="cls-3" d="M69.4,51.64c12.48.31,25.1,1.14,37.51,2.51v.36c-12.41-1.4-25.03-2.26-37.51-2.58v-.29Z"/><path class="cls-3" d="M69.4,51.34c12.49.3,25.09,1.11,37.51,2.44v.36c-12.41-1.37-25.03-2.2-37.51-2.51v-.29h0Z"/><path class="cls-3" d="M69.4,51.05c12.49.29,25.09,1.08,37.51,2.38v.36c-12.42-1.33-25.03-2.14-37.51-2.44v-.29h0Z"/><path class="cls-3" d="M69.4,50.75c12.49.29,25.08,1.05,37.51,2.31v.36c-12.42-1.3-25.02-2.08-37.51-2.38v-.29h0Z"/><path class="cls-3" d="M69.4,50.46c12.49.28,25.08,1.02,37.51,2.24v.36c-12.43-1.26-25.02-2.02-37.51-2.31v-.3Z"/><path class="cls-3" d="M69.4,50.16c12.49.27,25.07.99,37.51,2.18v.36c-12.43-1.22-25.02-1.96-37.51-2.24v-.29h0Z"/><path class="cls-3" d="M69.4,49.87c12.49.26,25.07.96,37.51,2.11v.36c-12.43-1.19-25.02-1.9-37.51-2.18v-.29h0Z"/><path class="cls-3" d="M69.4,49.57c12.49.25,25.07.93,37.51,2.04v.36c-12.44-1.15-25.02-1.85-37.51-2.11v-.3Z"/><path class="cls-3" d="M69.4,49.28c12.49.25,25.06.9,37.51,1.97v.36c-12.44-1.11-25.02-1.79-37.51-2.04v-.29Z"/><path class="cls-3" d="M69.4,48.98c12.49.24,25.06.86,37.51,1.91v.36c-12.45-1.08-25.02-1.73-37.51-1.97v-.29h0Z"/><path class="cls-3" d="M69.4,48.68c12.49.23,25.06.83,37.51,1.84v.36c-12.45-1.04-25.02-1.67-37.51-1.91v-.29h0Z"/><path class="cls-3" d="M69.4,48.39c12.49.22,25.05.8,37.51,1.77v.36c-12.45-1.01-25.02-1.61-37.51-1.84v-.29h0Z"/><path class="cls-3" d="M69.4,48.09c12.49.21,25.05.77,37.51,1.71v.36c-12.46-.97-25.02-1.55-37.51-1.77v-.29h0Z"/><path class="cls-3" d="M69.4,47.8c12.49.2,25.04.74,37.51,1.64v.36c-12.46-.93-25.02-1.49-37.51-1.71v-.29h0Z"/><path class="cls-3" d="M69.4,47.5c12.5.2,25.04.71,37.51,1.57v.36c-12.46-.9-25.01-1.43-37.51-1.64v-.3Z"/><path class="cls-3" d="M69.4,47.21c12.5.19,25.04.68,37.51,1.5v.36c-12.47-.86-25.01-1.38-37.51-1.57v-.29Z"/><path class="cls-3" d="M69.4,46.91c12.5.18,25.04.65,37.51,1.44v.36c-12.47-.82-25.01-1.32-37.51-1.5v-.3Z"/><path class="cls-3" d="M69.4,46.62c12.5.17,25.03.62,37.51,1.37v.36c-12.47-.79-25.01-1.26-37.51-1.44v-.29h0Z"/><path class="cls-3" d="M69.4,46.32c12.5.16,25.03.59,37.51,1.3v.36c-12.48-.75-25.01-1.2-37.51-1.37v-.29h0Z"/><path class="cls-3" d="M69.4,46.02c12.5.15,25.03.56,37.51,1.24v.36c-12.48-.71-25.01-1.14-37.51-1.3v-.29h0Z"/><path class="cls-3" d="M106.91,47.26c-12.48-.68-25.01-1.08-37.51-1.24v-2.38c12.5.09,25.01.31,37.51.69v2.92Z"/></g><path class="cls-3" d="M62.7,44.73c-.87-.79-1.91-1.19-3.12-1.19-5.68-.02-8.52-.01-14.2.01-1.17,0-2.18.4-3.04,1.2-.85.8-1.28,1.92-1.28,3.35v20.22c0,.66.11,1.27.34,1.84.23.57.58,1.06,1.05,1.48.47.41,1.07.74,1.79.96.72.23,1.57.32,2.55.27,2.95-.13,5.24-.15,6.87-.16,1.63,0,2.83.01,3.61.02s1.25.02,1.42,0,.29-.01.37-.01c.87-.09,1.62-.22,2.24-.39.62-.17,1.14-.42,1.53-.76.4-.34.69-.78.88-1.34.19-.55.29-1.26.29-2.12v-20.08c0-1.43-.44-2.53-1.31-3.32h0ZM54.58,65.09c0,.59-.18,1.04-.54,1.35-.36.31-.84.46-1.45.47-.15,0-.42-.03-.79-.08-.41-.06-.75-.23-.99-.52-.25-.29-.37-.69-.37-1.19v-14.81c.26-.89.97-1.33,2.1-1.34,1.1,0,1.78.44,2.05,1.32v14.79h0Z"/><g class="cls-6"><path class="cls-3" d="M50.44,66.81c1.66-.03,2.49-.04,4.15-.04v.13c-1.66,0-2.49,0-4.15.04v-.13Z"/><path class="cls-3" d="M50.44,66.52c1.66-.03,2.49-.04,4.15-.03v.29c-1.66,0-2.49,0-4.15.04v-.29h0Z"/><path class="cls-3" d="M50.44,66.23c1.66-.03,2.49-.04,4.15-.03v.29c-1.66,0-2.49,0-4.15.03v-.29Z"/><path class="cls-3" d="M50.44,65.94c1.66-.03,2.49-.04,4.15-.03v.29c-1.66,0-2.49,0-4.15.03v-.29Z"/><path class="cls-3" d="M50.44,65.65c1.66-.03,2.49-.04,4.15-.03v.29c-1.66,0-2.49,0-4.15.03v-.29h0Z"/><path class="cls-3" d="M50.44,65.36c1.66-.03,2.49-.04,4.15-.03v.29c-1.66,0-2.49,0-4.15.03v-.29Z"/><path class="cls-3" d="M50.44,65.07c1.66-.03,2.49-.03,4.15-.03v.29c-1.66,0-2.49,0-4.15.03v-.29h0Z"/><path class="cls-3" d="M50.44,64.78c1.66-.03,2.49-.03,4.15-.03v.29c-1.66,0-2.49,0-4.15.03v-.29Z"/><path class="cls-3" d="M50.44,64.49c1.66-.03,2.49-.03,4.15-.03v.29c-1.66,0-2.49,0-4.15.03v-.29Z"/><path class="cls-3" d="M50.44,64.2c1.66-.03,2.49-.03,4.15-.03v.29c-1.66,0-2.49,0-4.15.03v-.29h0Z"/><path class="cls-3" d="M50.44,63.91c1.66-.03,2.49-.03,4.15-.03v.29c-1.66,0-2.49,0-4.15.03v-.29h0Z"/><path class="cls-3" d="M50.44,63.62c1.66-.03,2.49-.03,4.15-.03v.29c-1.66,0-2.49,0-4.15.03v-.29h0Z"/><path class="cls-3" d="M50.44,63.32c1.66-.03,2.49-.03,4.15-.03v.29c-1.66,0-2.49,0-4.15.03v-.29Z"/><path class="cls-3" d="M50.44,63.04c1.66-.03,2.49-.03,4.15-.03v.29c-1.66,0-2.49,0-4.15.03v-.29Z"/><path class="cls-3" d="M50.44,62.74c1.66-.03,2.49-.03,4.15-.03v.29c-1.66,0-2.49,0-4.15.03v-.29h0Z"/><path class="cls-3" d="M50.44,62.45c1.66-.03,2.49-.03,4.15-.03v.29c-1.66,0-2.49,0-4.15.03v-.29Z"/><path class="cls-3" d="M50.44,62.16c1.66-.02,2.49-.03,4.15-.03v.29c-1.66,0-2.49,0-4.15.03v-.29h0Z"/><path class="cls-3" d="M50.44,61.87c1.66-.02,2.49-.03,4.15-.03v.29c-1.66,0-2.49,0-4.15.03v-.29Z"/><path class="cls-3" d="M50.44,61.58c1.66-.02,2.49-.03,4.15-.03v.29c-1.66,0-2.49,0-4.15.03v-.29Z"/><path class="cls-3" d="M50.44,61.29c1.66-.02,2.49-.03,4.15-.03v.29c-1.66,0-2.49,0-4.15.03v-.29h0Z"/><path class="cls-3" d="M50.44,61c1.66-.02,2.49-.03,4.15-.03v.29c-1.66,0-2.49,0-4.15.03v-.29Z"/><path class="cls-3" d="M50.44,60.71c1.66-.02,2.49-.03,4.15-.03v.29c-1.66,0-2.49,0-4.15.03v-.29Z"/><path class="cls-3" d="M50.44,60.42c1.66-.02,2.49-.03,4.15-.03v.29c-1.66,0-2.49,0-4.15.03v-.29Z"/><path class="cls-3" d="M50.44,60.13c1.66-.02,2.49-.03,4.15-.03v.29c-1.66,0-2.49,0-4.15.03v-.29Z"/><path class="cls-3" d="M50.44,59.84c1.66-.02,2.49-.03,4.15-.03v.29c-1.66,0-2.49,0-4.15.03v-.29h0Z"/><path class="cls-3" d="M50.44,59.55c1.66-.02,2.49-.03,4.15-.03v.29c-1.66,0-2.49,0-4.15.03v-.29Z"/><path class="cls-3" d="M50.44,59.26c1.66-.02,2.49-.03,4.15-.03v.29c-1.66,0-2.49,0-4.15.03v-.29Z"/><path class="cls-3" d="M50.44,58.97c1.66-.02,2.49-.03,4.15-.02v.29c-1.66,0-2.49,0-4.15.03v-.29h0Z"/><path class="cls-3" d="M50.44,58.68c1.66-.02,2.49-.03,4.15-.02v.29c-1.66,0-2.49,0-4.15.02v-.29Z"/><path class="cls-3" d="M50.44,58.39c1.66-.02,2.49-.03,4.15-.02v.29c-1.66,0-2.49,0-4.15.02v-.29Z"/><path class="cls-3" d="M50.44,58.1c1.66-.02,2.49-.03,4.15-.02v.29c-1.66,0-2.49,0-4.15.02v-.29h0Z"/><path class="cls-3" d="M50.44,57.81c1.66-.02,2.49-.02,4.15-.02v.29c-1.66,0-2.49,0-4.15.02v-.29Z"/><path class="cls-3" d="M50.44,57.52c1.66-.02,2.49-.02,4.15-.02v.29c-1.66,0-2.49,0-4.15.02v-.29h0Z"/><path class="cls-3" d="M50.44,57.23c1.66-.02,2.49-.02,4.15-.02v.29c-1.66,0-2.49,0-4.15.02v-.29Z"/><path class="cls-3" d="M50.44,56.94c1.66-.02,2.49-.02,4.15-.02v.29c-1.66,0-2.49,0-4.15.02v-.29Z"/><path class="cls-3" d="M50.44,56.65c1.66-.02,2.49-.02,4.15-.02v.29c-1.66,0-2.49,0-4.15.02v-.29h0Z"/><path class="cls-3" d="M50.44,56.36c1.66-.02,2.49-.02,4.15-.02v.29c-1.66,0-2.49,0-4.15.02v-.29Z"/><path class="cls-3" d="M50.44,56.07c1.66-.02,2.49-.02,4.15-.02v.29c-1.66,0-2.49,0-4.15.02v-.29h0Z"/><path class="cls-3" d="M50.44,55.78c1.66-.02,2.49-.02,4.15-.02v.29c-1.66,0-2.49,0-4.15.02v-.29Z"/><path class="cls-3" d="M50.44,55.49c1.66-.02,2.49-.02,4.15-.02v.29c-1.66,0-2.49,0-4.15.02v-.29Z"/><path class="cls-3" d="M50.44,55.2c1.66-.02,2.49-.02,4.15-.02v.29c-1.66,0-2.49,0-4.15.02v-.29h0Z"/><path class="cls-3" d="M50.44,54.91c1.66-.02,2.49-.02,4.15-.02v.29c-1.66,0-2.49,0-4.15.02v-.29Z"/><path class="cls-3" d="M50.44,54.62c1.66-.02,2.49-.02,4.15-.02v.29c-1.66,0-2.49,0-4.15.02v-.29Z"/><path class="cls-3" d="M50.44,54.33c1.66-.02,2.49-.02,4.15-.02v.29c-1.66,0-2.49,0-4.15.02v-.29h0Z"/><path class="cls-3" d="M50.44,54.04c1.66-.01,2.49-.02,4.15-.02v.29c-1.66,0-2.49,0-4.15.02v-.29Z"/><path class="cls-3" d="M50.44,53.75c1.66-.01,2.49-.02,4.15-.02v.29c-1.66,0-2.49,0-4.15.02v-.29h0Z"/><path class="cls-3" d="M50.44,53.46c1.66-.01,2.49-.02,4.15-.02v.29c-1.66,0-2.49,0-4.15.02v-.29Z"/><path class="cls-3" d="M50.44,53.17c1.66-.01,2.49-.02,4.15-.02v.29c-1.66,0-2.49,0-4.15.02v-.29Z"/><path class="cls-3" d="M50.44,52.88c1.66-.01,2.49-.02,4.15-.02v.29c-1.66,0-2.49,0-4.15.02v-.29h0Z"/><path class="cls-3" d="M50.44,52.59c1.66-.01,2.49-.02,4.15-.02v.29c-1.66,0-2.49,0-4.15.02v-.29h0Z"/><path class="cls-3" d="M50.44,52.3c1.66-.01,2.49-.02,4.15-.01v.29c-1.66,0-2.49,0-4.15.02v-.29h0Z"/><path class="cls-3" d="M50.44,52.01c1.66-.01,2.49-.02,4.15-.01v.29c-1.66,0-2.49,0-4.15.01v-.29Z"/><path class="cls-3" d="M50.44,51.72c1.66-.01,2.49-.02,4.15-.01v.29c-1.66,0-2.49,0-4.15.01v-.29Z"/><path class="cls-3" d="M50.44,51.43c1.66-.01,2.49-.01,4.15-.01v.29c-1.66,0-2.49,0-4.15.01v-.29h0Z"/><path class="cls-3" d="M50.44,51.14c1.66-.01,2.49-.01,4.15-.01v.29c-1.66,0-2.49,0-4.15.01v-.29Z"/><path class="cls-3" d="M50.44,50.85c1.66-.01,2.49-.01,4.15-.01v.29c-1.66,0-2.49,0-4.15.01v-.29Z"/><path class="cls-3" d="M50.44,50.56c1.66-.01,2.49-.01,4.15-.01v.29c-1.66,0-2.49,0-4.15.01v-.29h0Z"/><path class="cls-3" d="M50.44,50.27c1.66-.01,2.49-.01,4.15-.01v.29c-1.66,0-2.49,0-4.15.01v-.29Z"/><path class="cls-3" d="M50.44,49.98c1.66-.01,2.49-.01,4.15-.01v.29c-1.66,0-2.49,0-4.15.01v-.29h0Z"/><path class="cls-3" d="M50.44,49.69c1.66-.01,2.49-.01,4.15-.01v.29c-1.66,0-2.49,0-4.15.01v-.29Z"/><path class="cls-3" d="M50.44,49.4c1.66-.01,2.49-.01,4.15-.01v.29c-1.66,0-2.49,0-4.15.01v-.29Z"/><path class="cls-3" d="M50.44,49.11c1.66-.01,2.49-.01,4.15-.01v.29c-1.66,0-2.49,0-4.15.01v-.29h0Z"/><path class="cls-3" d="M54.58,49.1c-1.66,0-2.49,0-4.15.01v-.13c1.66-.01,2.49-.01,4.15-.01v.13Z"/><path class="cls-3" d="M41.07,73.06c9.16-.69,13.77-.74,22.94-.23v.16c-9.17-.51-13.78-.46-22.94.23,0,0,0-.16,0-.16Z"/><path class="cls-3" d="M41.07,72.77c9.16-.68,13.77-.73,22.94-.23v.29c-9.17-.51-13.78-.46-22.94.23,0,0,0-.29,0-.29Z"/><path class="cls-3" d="M41.07,72.47c9.16-.68,13.77-.72,22.94-.23v.29c-9.17-.5-13.78-.46-22.94.23,0,0,0-.29,0-.29Z"/><path class="cls-3" d="M41.07,72.18c9.16-.67,13.77-.72,22.94-.22v.29c-9.17-.5-13.78-.45-22.94.23,0,0,0-.29,0-.29Z"/><path class="cls-3" d="M41.07,71.88c9.16-.66,13.77-.71,22.94-.22v.29c-9.17-.49-13.78-.45-22.94.22,0,0,0-.29,0-.29Z"/><path class="cls-3" d="M41.07,71.59c9.16-.66,13.77-.7,22.94-.22v.29c-9.17-.49-13.78-.44-22.94.22,0,0,0-.29,0-.29Z"/><path class="cls-3" d="M41.07,71.29c9.16-.65,13.77-.7,22.94-.22v.29c-9.17-.48-13.78-.44-22.94.22,0,0,0-.29,0-.29Z"/><path class="cls-3" d="M41.07,71c9.16-.65,13.77-.69,22.94-.22v.29c-9.17-.48-13.78-.43-22.94.22,0,0,0-.29,0-.29Z"/><path class="cls-3" d="M41.07,70.71c9.16-.64,13.77-.68,22.94-.21v.29c-9.17-.47-13.78-.43-22.94.22,0,0,0-.29,0-.29Z"/><path class="cls-3" d="M41.07,70.41c9.16-.63,13.77-.68,22.94-.21v.29c-9.17-.47-13.78-.43-22.94.21v-.29h0Z"/><path class="cls-3" d="M41.07,70.12c9.16-.63,13.77-.67,22.94-.21v.29c-9.17-.46-13.78-.42-22.94.21,0,0,0-.29,0-.29Z"/><path class="cls-3" d="M41.07,69.83c9.16-.62,13.77-.66,22.94-.21v.29c-9.17-.46-13.78-.42-22.94.21,0,0,0-.29,0-.29Z"/><path class="cls-3" d="M41.07,69.53c9.16-.61,13.77-.66,22.94-.21v.29c-9.17-.46-13.78-.41-22.94.21,0,0,0-.29,0-.29Z"/><path class="cls-3" d="M41.07,69.24c9.16-.61,13.77-.65,22.94-.2v.29c-9.17-.45-13.78-.41-22.94.21,0,0,0-.29,0-.29Z"/><path class="cls-3" d="M41.07,68.94c9.16-.6,13.77-.64,22.94-.2v.29c-9.17-.45-13.78-.41-22.94.2,0,0,0-.29,0-.29Z"/><path class="cls-3" d="M41.07,68.65c9.16-.6,13.77-.64,22.94-.2v.29c-9.17-.44-13.78-.4-22.94.2,0,0,0-.29,0-.29Z"/><path class="cls-3" d="M41.07,68.35c9.16-.59,13.77-.63,22.94-.2v.29c-9.17-.44-13.78-.4-22.94.2,0,0,0-.29,0-.29Z"/><path class="cls-3" d="M41.07,68.06c9.16-.58,13.77-.62,22.94-.19v.29c-9.17-.43-13.78-.39-22.94.2,0,0,0-.29,0-.29Z"/><path class="cls-3" d="M41.07,67.77c9.16-.58,13.77-.62,22.94-.19v.29c-9.17-.43-13.78-.39-22.94.19,0,0,0-.29,0-.29Z"/><path class="cls-3" d="M41.07,67.47c9.16-.57,13.77-.61,22.94-.19v.29c-9.17-.42-13.78-.39-22.94.19v-.29h0Z"/><path class="cls-3" d="M41.07,67.18c9.16-.57,13.77-.6,22.94-.19v.29c-9.17-.42-13.78-.38-22.94.19,0,0,0-.29,0-.29Z"/><path class="cls-3" d="M41.07,66.88c9.16-.56,13.77-.6,22.94-.19v.29c-9.17-.42-13.78-.38-22.94.19v-.29Z"/><path class="cls-3" d="M41.07,66.59c9.16-.55,13.77-.59,22.94-.18v.29c-9.17-.41-13.78-.37-22.94.19v-.29Z"/><path class="cls-3" d="M41.07,66.3c9.16-.55,13.77-.58,22.94-.18v.29c-9.17-.41-13.78-.37-22.94.18v-.29Z"/><path class="cls-3" d="M41.07,66c9.16-.54,13.77-.58,22.94-.18v.29c-9.17-.4-13.78-.36-22.94.18v-.29Z"/><path class="cls-3" d="M41.07,65.71c9.16-.53,13.77-.57,22.94-.18v.29c-9.17-.4-13.78-.36-22.94.18v-.29Z"/><path class="cls-3" d="M41.07,65.41c9.16-.53,13.77-.56,22.94-.18v.29c-9.17-.39-13.78-.36-22.94.18v-.29Z"/><path class="cls-3" d="M41.07,65.12c9.16-.52,13.77-.56,22.94-.17v.29c-9.17-.39-13.78-.35-22.94.18v-.29Z"/><path class="cls-3" d="M41.07,64.83c9.16-.51,13.77-.55,22.94-.17v.29c-9.17-.38-13.78-.35-22.94.17v-.29Z"/><path class="cls-3" d="M41.07,64.53c9.16-.51,13.77-.54,22.94-.17v.29c-9.17-.38-13.78-.34-22.94.17v-.29Z"/><path class="cls-3" d="M41.07,64.24c9.16-.5,13.77-.54,22.94-.17v.29c-9.17-.37-13.78-.34-22.94.17v-.29Z"/><path class="cls-3" d="M41.07,63.94c9.16-.5,13.77-.53,22.94-.17v.29c-9.17-.37-13.78-.33-22.94.17v-.29Z"/><path class="cls-3" d="M41.07,63.65c9.16-.49,13.77-.52,22.94-.16v.29c-9.17-.36-13.78-.33-22.94.17v-.29Z"/><path class="cls-3" d="M41.07,63.35c9.16-.48,13.77-.52,22.94-.16v.29c-9.17-.36-13.78-.33-22.94.16v-.29h0Z"/><path class="cls-3" d="M41.07,63.06c9.16-.48,13.77-.51,22.94-.16v.29c-9.17-.36-13.78-.32-22.94.16v-.29Z"/><path class="cls-3" d="M41.07,62.77c9.16-.47,13.77-.5,22.94-.16v.29c-9.17-.35-13.78-.32-22.94.16v-.29Z"/><path class="cls-3" d="M41.07,62.47c9.16-.46,13.77-.5,22.94-.15v.29c-9.17-.35-13.78-.31-22.94.16v-.29Z"/><path class="cls-3" d="M41.07,62.18c9.16-.46,13.77-.49,22.94-.15v.29c-9.17-.34-13.78-.31-22.94.15v-.29Z"/><path class="cls-3" d="M41.07,61.88c9.16-.45,13.77-.48,22.94-.15v.29c-9.17-.34-13.78-.31-22.94.15v-.29Z"/><path class="cls-3" d="M41.07,61.59c9.16-.45,13.77-.48,22.94-.15v.29c-9.17-.33-13.78-.3-22.94.15v-.29Z"/><path class="cls-3" d="M41.07,61.3c9.16-.44,13.77-.47,22.94-.15v.29c-9.17-.33-13.78-.3-22.94.15v-.29Z"/><path class="cls-3" d="M41.07,61c9.16-.43,13.77-.46,22.94-.14v.29c-9.17-.32-13.78-.29-22.94.15v-.29Z"/><path class="cls-3" d="M41.07,60.71c9.16-.43,13.77-.46,22.94-.14v.29c-9.17-.32-13.78-.29-22.94.14v-.29Z"/><path class="cls-3" d="M41.07,60.41c9.16-.42,13.77-.45,22.94-.14v.29c-9.17-.31-13.78-.29-22.94.14v-.29Z"/><path class="cls-3" d="M41.07,60.12c9.16-.42,13.77-.44,22.94-.14v.29c-9.17-.31-13.78-.28-22.94.14v-.29Z"/><path class="cls-3" d="M41.07,59.82c9.16-.41,13.77-.44,22.94-.14v.29c-9.17-.31-13.78-.28-22.94.14v-.29h0Z"/><path class="cls-3" d="M41.07,59.53c9.16-.4,13.77-.43,22.94-.13v.29c-9.17-.3-13.78-.27-22.94.14v-.29Z"/><path class="cls-3" d="M41.07,59.24c9.16-.4,13.77-.42,22.94-.13v.29c-9.17-.29-13.78-.27-22.94.13v-.29Z"/><path class="cls-3" d="M41.07,58.94c9.16-.39,13.77-.42,22.94-.13v.29c-9.17-.29-13.78-.26-22.94.13v-.29Z"/><path class="cls-3" d="M41.07,58.65c9.16-.38,13.77-.41,22.94-.13v.29c-9.17-.29-13.78-.26-22.94.13v-.29Z"/><path class="cls-3" d="M41.07,58.35c9.16-.38,13.77-.4,22.94-.13v.29c-9.17-.28-13.78-.26-22.94.13v-.29Z"/><path class="cls-3" d="M41.07,58.06c9.16-.37,13.77-.4,22.94-.12v.29c-9.17-.28-13.78-.25-22.94.13v-.29Z"/><path class="cls-3" d="M41.07,57.77c9.16-.36,13.77-.39,22.94-.12v.29c-9.17-.27-13.78-.25-22.94.12v-.29Z"/><path class="cls-3" d="M41.07,57.47c9.16-.36,13.77-.38,22.94-.12v.29c-9.17-.27-13.78-.24-22.94.12v-.29Z"/><path class="cls-3" d="M41.07,57.18c9.16-.35,13.77-.38,22.94-.12v.29c-9.17-.26-13.78-.24-22.94.12v-.29Z"/><path class="cls-3" d="M41.07,56.88c9.16-.35,13.77-.37,22.94-.12v.29c-9.17-.26-13.78-.24-22.94.12v-.29Z"/><path class="cls-3" d="M41.07,56.59c9.16-.34,13.77-.36,22.94-.11v.29c-9.17-.25-13.78-.23-22.94.12v-.29Z"/><path class="cls-3" d="M41.07,56.29c9.16-.33,13.77-.36,22.94-.11v.29c-9.17-.25-13.78-.23-22.94.11v-.29h0Z"/><path class="cls-3" d="M41.07,56c9.16-.33,13.77-.35,22.94-.11v.29c-9.17-.25-13.78-.22-22.94.11v-.29Z"/><path class="cls-3" d="M41.07,55.71c9.16-.32,13.77-.34,22.94-.11v.29c-9.17-.24-13.78-.22-22.94.11v-.29Z"/><path class="cls-3" d="M41.07,55.41c9.16-.32,13.77-.34,22.94-.11v.29c-9.17-.24-13.78-.21-22.94.11v-.29Z"/><path class="cls-3" d="M41.07,55.12c9.16-.31,13.77-.33,22.94-.1v.29c-9.17-.23-13.78-.21-22.94.11v-.29Z"/><path class="cls-3" d="M41.07,54.82c9.16-.3,13.77-.32,22.94-.1v.29c-9.17-.23-13.78-.21-22.94.1v-.29Z"/><path class="cls-3" d="M41.07,54.53c9.16-.3,13.77-.32,22.94-.1v.29c-9.17-.22-13.78-.2-22.94.1v-.29Z"/><path class="cls-3" d="M41.07,54.24c9.16-.29,13.77-.31,22.94-.1v.29c-9.17-.22-13.78-.2-22.94.1v-.29Z"/><path class="cls-3" d="M41.07,53.94c9.16-.28,13.77-.3,22.94-.1v.29c-9.17-.21-13.78-.19-22.94.1v-.29Z"/><path class="cls-3" d="M41.07,53.65c9.16-.28,13.77-.3,22.94-.09v.29c-9.17-.21-13.78-.19-22.94.1v-.29Z"/><path class="cls-3" d="M41.07,53.35c9.16-.27,13.77-.29,22.94-.09v.29c-9.17-.2-13.78-.18-22.94.09v-.29Z"/><path class="cls-3" d="M41.07,53.06c9.16-.26,13.77-.28,22.94-.09v.29c-9.17-.2-13.78-.18-22.94.09v-.29Z"/><path class="cls-3" d="M41.07,52.77c9.16-.26,13.77-.28,22.94-.09v.29c-9.17-.19-13.78-.18-22.94.09v-.29Z"/><path class="cls-3" d="M41.07,52.47c9.16-.25,13.77-.27,22.94-.08v.29c-9.17-.19-13.78-.17-22.94.09v-.29h0Z"/><path class="cls-3" d="M41.07,52.18c9.16-.25,13.77-.26,22.94-.08v.29c-9.17-.18-13.78-.17-22.94.08v-.29Z"/><path class="cls-3" d="M41.07,51.88c9.16-.24,13.77-.26,22.94-.08v.29c-9.17-.18-13.78-.16-22.94.08v-.29Z"/><path class="cls-3" d="M41.07,51.59c9.16-.23,13.77-.25,22.94-.08v.29c-9.17-.18-13.78-.16-22.94.08v-.29Z"/><path class="cls-3" d="M41.07,51.29c9.16-.23,13.77-.24,22.94-.08v.29c-9.17-.17-13.78-.16-22.94.08v-.29Z"/><path class="cls-3" d="M41.07,51c9.16-.22,13.77-.24,22.94-.07v.29c-9.17-.17-13.78-.15-22.94.08v-.29Z"/><path class="cls-3" d="M41.07,50.71c9.16-.21,13.77-.23,22.94-.07v.29c-9.17-.16-13.78-.15-22.94.07v-.29Z"/><path class="cls-3" d="M41.07,50.41c9.16-.21,13.77-.22,22.94-.07v.29c-9.17-.16-13.78-.14-22.94.07v-.29Z"/><path class="cls-3" d="M41.07,50.12c9.16-.2,13.77-.22,22.94-.07v.29c-9.17-.15-13.78-.14-22.94.07v-.29Z"/><path class="cls-3" d="M41.07,49.82c9.16-.2,13.77-.21,22.94-.07v.29c-9.17-.15-13.78-.14-22.94.07v-.29Z"/><path class="cls-3" d="M41.07,49.53c9.16-.19,13.77-.2,22.94-.06v.29c-9.17-.14-13.78-.13-22.94.07v-.29Z"/><path class="cls-3" d="M41.07,49.24c9.16-.18,13.77-.2,22.94-.06v.29c-9.17-.14-13.78-.13-22.94.06v-.29h0Z"/><path class="cls-3" d="M41.07,48.94c9.16-.18,13.77-.19,22.94-.06v.29c-9.17-.14-13.78-.12-22.94.06v-.29Z"/><path class="cls-3" d="M41.07,48.65c9.16-.17,13.77-.18,22.94-.06v.29c-9.17-.13-13.78-.12-22.94.06v-.29Z"/><path class="cls-3" d="M41.07,48.35c9.16-.17,13.77-.18,22.94-.06v.29c-9.17-.13-13.78-.11-22.94.06v-.29Z"/><path class="cls-3" d="M41.07,48.06c9.16-.16,13.77-.17,22.94-.05v.29c-9.17-.12-13.78-.11-22.94.06v-.29Z"/><path class="cls-3" d="M41.07,47.76c9.16-.15,13.77-.16,22.94-.05v.29c-9.17-.12-13.78-.11-22.94.05v-.29Z"/><path class="cls-3" d="M41.07,47.47c9.16-.15,13.77-.16,22.94-.05v.29c-9.17-.11-13.78-.1-22.94.05v-.29Z"/><path class="cls-3" d="M41.07,47.18c9.16-.14,13.77-.15,22.94-.05v.29c-9.17-.11-13.78-.1-22.94.05v-.29Z"/><path class="cls-3" d="M41.07,46.88c9.16-.13,13.77-.14,22.94-.04v.29c-9.17-.1-13.78-.09-22.94.05v-.29Z"/><path class="cls-3" d="M41.07,46.59c9.16-.13,13.77-.14,22.94-.04v.29c-9.17-.1-13.78-.09-22.94.04v-.29Z"/><path class="cls-3" d="M41.07,46.29c9.16-.12,13.77-.13,22.94-.04v.29c-9.17-.09-13.78-.08-22.94.04v-.29Z"/><path class="cls-3" d="M41.07,46c9.16-.11,13.77-.12,22.94-.04v.29c-9.17-.09-13.78-.08-22.94.04v-.29Z"/><path class="cls-3" d="M64.01,45.96c-9.17-.08-13.78-.08-22.94.04v-2.42c9.16-.06,13.77-.07,22.94-.02v2.4h0Z"/></g><path class="cls-3" d="M35.37,48.83c0-1.85-.37-3.17-1.1-3.95s-1.93-1.17-3.58-1.15c-.88.01-1.32.02-2.2.03-.83.01-1.63.05-2.42.13-.79.08-1.5.25-2.13.54-.64.28-1.2.71-1.68,1.26-.49.56-.84,1.31-1.06,2.26-.11-1.19-.22-2.05-.34-2.59-.11-.53-.24-1.02-.39-1.47-4.14.08-6.2.12-10.29.22.29,1,.57,1.96.83,2.9.26.94.39,2,.39,3.2v27.86c3.94-1,5.93-1.44,9.91-2.21v-22.05c0-.84.2-1.48.61-1.9s.87-.65,1.38-.68c.52-.03.97.14,1.36.5.39.36.58.93.58,1.72v21.71c4.04-.68,6.07-.96,10.14-1.4v-24.92h0Z"/><g class="cls-9"><path class="cls-3" d="M10.17,78.19c9.95-2.59,15.02-3.51,25.2-4.61v.17c-10.18,1.11-15.25,2.03-25.2,4.63,0,0,0-.19,0-.19Z"/><path class="cls-3" d="M10.17,77.85c9.95-2.56,15.02-3.48,25.2-4.57v.3c-10.18,1.1-15.25,2.02-25.2,4.61,0,0,0-.34,0-.34Z"/><path class="cls-3" d="M10.17,77.51c9.95-2.54,15.02-3.44,25.2-4.52v.3c-10.18,1.09-15.25,2-25.2,4.57v-.34h0Z"/><path class="cls-3" d="M10.17,77.17c9.95-2.51,15.02-3.41,25.2-4.48v.3c-10.18,1.08-15.25,1.99-25.2,4.52v-.34h0Z"/><path class="cls-3" d="M10.17,76.83c9.95-2.49,15.02-3.38,25.2-4.44v.3c-10.18,1.07-15.25,1.97-25.2,4.48,0,0,0-.34,0-.34Z"/><path class="cls-3" d="M10.17,76.49c9.95-2.47,15.02-3.35,25.2-4.4v.3c-10.18,1.06-15.25,1.95-25.2,4.44v-.34h0Z"/><path class="cls-3" d="M10.17,76.15c9.95-2.45,15.02-3.32,25.2-4.36v.3c-10.18,1.05-15.25,1.93-25.2,4.4,0,0,0-.34,0-.34Z"/><path class="cls-3" d="M10.17,75.81c9.95-2.42,15.02-3.28,25.2-4.32v.3c-10.18,1.04-15.25,1.91-25.2,4.36v-.34h0Z"/><path class="cls-3" d="M10.17,75.47c9.95-2.4,15.02-3.25,25.2-4.27v.3c-10.18,1.03-15.25,1.89-25.2,4.32v-.34h0Z"/><path class="cls-3" d="M10.17,75.13c9.95-2.38,15.02-3.22,25.2-4.23v.3c-10.18,1.02-15.25,1.88-25.2,4.27,0,0,0-.34,0-.34Z"/><path class="cls-3" d="M10.17,74.79c9.95-2.35,15.02-3.19,25.2-4.19v.3c-10.18,1.01-15.25,1.86-25.2,4.23v-.34h0Z"/><path class="cls-3" d="M10.17,74.45c9.95-2.33,15.02-3.16,25.2-4.15v.3c-10.18,1-15.25,1.84-25.2,4.19v-.34h0Z"/><path class="cls-3" d="M10.17,74.1c9.95-2.3,15.02-3.12,25.2-4.11v.3c-10.18.99-15.25,1.82-25.2,4.15,0,0,0-.34,0-.34Z"/><path class="cls-3" d="M10.17,73.76c9.95-2.28,15.02-3.09,25.2-4.07v.3c-10.18.98-15.25,1.8-25.2,4.11v-.34h0Z"/><path class="cls-3" d="M10.17,73.42c9.95-2.26,15.02-3.06,25.2-4.02v.3c-10.18.97-15.25,1.78-25.2,4.07,0,0,0-.34,0-.34Z"/><path class="cls-3" d="M10.17,73.08c9.95-2.23,15.02-3.03,25.2-3.98v.3c-10.18.96-15.25,1.77-25.2,4.02v-.34h0Z"/><path class="cls-3" d="M10.17,72.74c9.95-2.21,15.02-3,25.2-3.94v.3c-10.18.95-15.25,1.75-25.2,3.98,0,0,0-.34,0-.34Z"/><path class="cls-3" d="M10.17,72.4c9.95-2.19,15.02-2.97,25.2-3.9v.3c-10.18.94-15.25,1.73-25.2,3.94,0,0,0-.34,0-.34Z"/><path class="cls-3" d="M10.17,72.06c9.95-2.16,15.02-2.93,25.2-3.86v.3c-10.18.93-15.25,1.71-25.2,3.9,0,0,0-.34,0-.34Z"/><path class="cls-3" d="M10.17,71.72c9.95-2.14,15.02-2.9,25.2-3.82v.3c-10.18.92-15.25,1.69-25.2,3.86v-.34h0Z"/><path class="cls-3" d="M10.17,71.38c9.95-2.12,15.02-2.87,25.2-3.77v.3c-10.18.91-15.25,1.68-25.2,3.82,0,0,0-.34,0-.34Z"/><path class="cls-3" d="M10.17,71.04c9.95-2.09,15.02-2.84,25.2-3.73v.3c-10.18.9-15.25,1.66-25.2,3.77,0,0,0-.34,0-.34Z"/><path class="cls-3" d="M10.17,70.7c9.95-2.07,15.02-2.81,25.2-3.69v.3c-10.18.89-15.25,1.64-25.2,3.73,0,0,0-.34,0-.34Z"/><path class="cls-3" d="M10.17,70.36c9.95-2.05,15.02-2.78,25.2-3.65v.3c-10.18.88-15.25,1.62-25.2,3.69v-.34h0Z"/><path class="cls-3" d="M10.17,70.02c9.95-2.02,15.02-2.74,25.2-3.61v.3c-10.18.87-15.25,1.6-25.2,3.65,0,0,0-.34,0-.34Z"/><path class="cls-3" d="M10.17,69.68c9.95-2,15.02-2.71,25.2-3.56v.3c-10.18.86-15.25,1.58-25.2,3.61,0,0,0-.34,0-.34Z"/><path class="cls-3" d="M10.17,69.34c9.95-1.98,15.02-2.68,25.2-3.52v.3c-10.18.85-15.25,1.57-25.2,3.56v-.34h0Z"/><path class="cls-3" d="M10.17,69c9.95-1.95,15.02-2.65,25.2-3.48v.3c-10.18.84-15.25,1.55-25.2,3.52,0,0,0-.34,0-.34Z"/><path class="cls-3" d="M10.17,68.65c9.95-1.93,15.02-2.62,25.2-3.44v.3c-10.18.83-15.25,1.53-25.2,3.48,0,0,0-.34,0-.34Z"/><path class="cls-3" d="M10.17,68.31c9.95-1.91,15.02-2.59,25.2-3.4v.3c-10.18.82-15.25,1.51-25.2,3.44,0,0,0-.34,0-.34Z"/><path class="cls-3" d="M10.17,67.97c9.95-1.88,15.02-2.55,25.2-3.36v.3c-10.18.81-15.25,1.49-25.2,3.4v-.34h0Z"/><path class="cls-3" d="M10.17,67.63c9.95-1.86,15.02-2.52,25.2-3.31v.3c-10.18.8-15.25,1.47-25.2,3.36,0,0,0-.34,0-.34Z"/><path class="cls-3" d="M10.17,67.29c9.95-1.84,15.02-2.49,25.2-3.27v.3c-10.18.79-15.25,1.46-25.2,3.31,0,0,0-.34,0-.34Z"/><path class="cls-3" d="M10.17,66.95c9.95-1.81,15.02-2.46,25.2-3.23v.3c-10.18.78-15.25,1.44-25.2,3.27,0,0,0-.34,0-.34Z"/><path class="cls-3" d="M10.17,66.61c9.95-1.79,15.02-2.43,25.2-3.19v.3c-10.18.77-15.25,1.42-25.2,3.23v-.34h0Z"/><path class="cls-3" d="M10.17,66.27c9.95-1.77,15.02-2.39,25.2-3.15v.3c-10.18.76-15.25,1.4-25.2,3.19,0,0,0-.34,0-.34Z"/><path class="cls-3" d="M10.17,65.93c9.95-1.74,15.02-2.36,25.2-3.11v.3c-10.18.75-15.25,1.38-25.2,3.15,0,0,0-.34,0-.34Z"/><path class="cls-3" d="M10.17,65.59c9.95-1.72,15.02-2.33,25.2-3.06v.3c-10.18.74-15.25,1.36-25.2,3.11,0,0,0-.34,0-.34Z"/><path class="cls-3" d="M10.17,65.25c9.95-1.69,15.02-2.3,25.2-3.02v.3c-10.18.73-15.25,1.35-25.2,3.06v-.34h0Z"/><path class="cls-3" d="M10.17,64.91c9.95-1.67,15.02-2.27,25.2-2.98v.3c-10.18.72-15.25,1.33-25.2,3.02,0,0,0-.34,0-.34Z"/><path class="cls-3" d="M10.17,64.57c9.95-1.65,15.02-2.24,25.2-2.94v.3c-10.18.71-15.25,1.31-25.2,2.98,0,0,0-.34,0-.34Z"/><path class="cls-3" d="M10.17,64.23c9.95-1.62,15.02-2.2,25.2-2.9v.3c-10.18.7-15.25,1.29-25.2,2.94,0,0,0-.34,0-.34Z"/><path class="cls-3" d="M10.17,63.89c9.95-1.6,15.02-2.17,25.2-2.86v.3c-10.18.69-15.25,1.27-25.2,2.9v-.34h0Z"/><path class="cls-3" d="M10.17,63.55c9.95-1.58,15.02-2.14,25.2-2.81v.3c-10.18.68-15.25,1.25-25.2,2.86,0,0,0-.34,0-.34Z"/><path class="cls-3" d="M10.17,63.2c9.95-1.56,15.02-2.11,25.2-2.77v.3c-10.18.67-15.25,1.24-25.2,2.81,0,0,0-.34,0-.34Z"/><path class="cls-3" d="M10.17,62.86c9.95-1.53,15.02-2.08,25.2-2.73v.3c-10.18.66-15.25,1.22-25.2,2.77v-.34h0Z"/><path class="cls-3" d="M10.17,62.52c9.95-1.51,15.02-2.05,25.2-2.69v.3c-10.18.65-15.25,1.2-25.2,2.73,0,0,0-.34,0-.34Z"/><path class="cls-3" d="M10.17,62.18c9.95-1.49,15.02-2.01,25.2-2.65v.3c-10.18.64-15.25,1.18-25.2,2.69,0,0,0-.34,0-.34Z"/><path class="cls-3" d="M10.17,61.84c9.95-1.46,15.02-1.98,25.2-2.6v.3c-10.18.63-15.25,1.16-25.2,2.65,0,0,0-.34,0-.34Z"/><path class="cls-3" d="M10.17,61.5c9.95-1.44,15.02-1.95,25.2-2.56v.3c-10.18.62-15.25,1.14-25.2,2.6v-.34h0Z"/><path class="cls-3" d="M10.17,61.16c9.95-1.41,15.02-1.92,25.2-2.52v.3c-10.18.61-15.25,1.12-25.2,2.56,0,0,0-.34,0-.34Z"/><path class="cls-3" d="M10.17,60.82c9.95-1.39,15.02-1.89,25.2-2.48v.3c-10.18.6-15.25,1.11-25.2,2.52,0,0,0-.34,0-.34Z"/><path class="cls-3" d="M10.17,60.48c9.95-1.37,15.02-1.86,25.2-2.44v.3c-10.18.59-15.25,1.09-25.2,2.48,0,0,0-.34,0-.34Z"/><path class="cls-3" d="M10.17,60.14c9.95-1.34,15.02-1.82,25.2-2.4v.3c-10.18.58-15.25,1.07-25.2,2.44v-.34h0Z"/><path class="cls-3" d="M10.17,59.8c9.95-1.32,15.02-1.79,25.2-2.35v.3c-10.18.57-15.25,1.05-25.2,2.4,0,0,0-.34,0-.34Z"/><path class="cls-3" d="M10.17,59.46c9.95-1.3,15.02-1.76,25.2-2.31v.3c-10.18.56-15.25,1.03-25.2,2.35,0,0,0-.34,0-.34Z"/><path class="cls-3" d="M10.17,59.12c9.95-1.27,15.02-1.73,25.2-2.27v.3c-10.18.55-15.25,1.01-25.2,2.31,0,0,0-.34,0-.34Z"/><path class="cls-3" d="M10.17,58.78c9.95-1.25,15.02-1.7,25.2-2.23v.3c-10.18.54-15.25,1-25.2,2.27v-.34h0Z"/><path class="cls-3" d="M10.17,58.44c9.95-1.23,15.02-1.67,25.2-2.19v.3c-10.18.53-15.25.98-25.2,2.23,0,0,0-.34,0-.34Z"/><path class="cls-3" d="M10.17,58.1c9.95-1.2,15.02-1.63,25.2-2.14v.3c-10.18.52-15.25.96-25.2,2.19,0,0,0-.34,0-.34Z"/><path class="cls-3" d="M10.17,57.75c9.95-1.18,15.02-1.6,25.2-2.1v.3c-10.18.51-15.25.94-25.2,2.14v-.34h0Z"/><path class="cls-3" d="M10.17,57.41c9.95-1.16,15.02-1.57,25.2-2.06v.3c-10.18.5-15.25.92-25.2,2.1,0,0,0-.34,0-.34Z"/><path class="cls-3" d="M10.17,57.07c9.95-1.13,15.02-1.54,25.2-2.02v.3c-10.18.49-15.25.9-25.2,2.06,0,0,0-.34,0-.34Z"/><path class="cls-3" d="M10.17,56.73c9.95-1.11,15.02-1.51,25.2-1.98v.3c-10.18.48-15.25.89-25.2,2.02,0,0,0-.34,0-.34Z"/><path class="cls-3" d="M10.17,56.39c9.95-1.09,15.02-1.47,25.2-1.94v.3c-10.18.47-15.25.87-25.2,1.98v-.34h0Z"/><path class="cls-3" d="M10.17,56.05c9.95-1.06,15.02-1.44,25.2-1.89v.3c-10.18.46-15.25.85-25.2,1.94,0,0,0-.34,0-.34Z"/><path class="cls-3" d="M10.17,55.71c9.95-1.04,15.02-1.41,25.2-1.85v.3c-10.18.45-15.25.83-25.2,1.89,0,0,0-.34,0-.34Z"/><path class="cls-3" d="M10.17,55.37c9.95-1.02,15.02-1.38,25.2-1.81v.3c-10.18.44-15.25.81-25.2,1.85v-.34h0Z"/><path class="cls-3" d="M10.17,55.03c9.95-.99,15.02-1.35,25.2-1.77v.3c-10.18.43-15.25.79-25.2,1.81v-.34h0Z"/><path class="cls-3" d="M10.17,54.69c9.95-.97,15.02-1.32,25.2-1.73v.3c-10.18.42-15.25.78-25.2,1.77,0,0,0-.34,0-.34Z"/><path class="cls-3" d="M10.17,54.35c9.95-.95,15.02-1.28,25.2-1.69v.3c-10.18.41-15.25.76-25.2,1.73,0,0,0-.34,0-.34Z"/><path class="cls-3" d="M10.17,54.01c9.95-.92,15.02-1.25,25.2-1.64v.3c-10.18.4-15.25.74-25.2,1.69,0,0,0-.34,0-.34Z"/><path class="cls-3" d="M10.17,53.67c9.95-.9,15.02-1.22,25.2-1.6v.3c-10.18.39-15.25.72-25.2,1.64v-.34h0Z"/><path class="cls-3" d="M10.17,53.33c9.95-.88,15.02-1.19,25.2-1.56v.3c-10.18.38-15.25.7-25.2,1.6,0,0,0-.34,0-.34Z"/><path class="cls-3" d="M10.17,52.99c9.95-.85,15.02-1.16,25.2-1.52v.3c-10.18.37-15.25.68-25.2,1.56,0,0,0-.34,0-.34Z"/><path class="cls-3" d="M10.17,52.65c9.95-.83,15.02-1.12,25.2-1.48v.3c-10.18.36-15.25.67-25.2,1.52v-.34h0Z"/><path class="cls-3" d="M10.17,52.3c9.95-.81,15.02-1.09,25.2-1.44v.3c-10.18.35-15.25.65-25.2,1.48,0,0,0-.34,0-.34Z"/><path class="cls-3" d="M10.17,51.96c9.95-.78,15.02-1.06,25.2-1.39v.3c-10.18.34-15.25.63-25.2,1.44,0,0,0-.34,0-.34Z"/><path class="cls-3" d="M10.17,51.62c9.95-.76,15.02-1.03,25.2-1.35v.3c-10.18.33-15.25.61-25.2,1.39,0,0,0-.34,0-.34Z"/><path class="cls-3" d="M10.17,51.28c9.95-.74,15.02-1,25.2-1.31v.3c-10.18.32-15.25.59-25.2,1.35v-.34h0Z"/><path class="cls-3" d="M10.17,50.94c9.95-.71,15.02-.97,25.2-1.27v.3c-10.18.31-15.25.57-25.2,1.31,0,0,0-.34,0-.34Z"/><path class="cls-3" d="M10.17,50.6c9.95-.69,15.02-.93,25.2-1.23v.3c-10.18.3-15.25.56-25.2,1.27,0,0,0-.34,0-.34Z"/><path class="cls-3" d="M10.17,50.26c9.95-.67,15.02-.9,25.2-1.18v.3c-10.18.29-15.25.54-25.2,1.23,0,0,0-.34,0-.34Z"/><path class="cls-3" d="M10.17,49.92c9.95-.64,15.02-.87,25.2-1.14v.3c-10.18.28-15.25.52-25.2,1.18v-.34h0Z"/><path class="cls-3" d="M10.17,49.58c9.95-.62,15.02-.84,25.2-1.1v.3c-10.18.27-15.25.5-25.2,1.14,0,0,0-.34,0-.34Z"/><path class="cls-3" d="M10.17,49.24c9.95-.6,15.02-.81,25.2-1.06v.3c-10.18.26-15.25.48-25.2,1.1,0,0,0-.34,0-.34Z"/><path class="cls-3" d="M10.17,48.9c9.95-.57,15.02-.78,25.2-1.02v.3c-10.18.25-15.25.46-25.2,1.06v-.34h0Z"/><path class="cls-3" d="M10.17,48.56c9.95-.55,15.02-.74,25.2-.98v.3c-10.18.24-15.25.45-25.2,1.02,0,0,0-.34,0-.34Z"/><path class="cls-3" d="M10.17,48.22c9.95-.53,15.02-.71,25.2-.93v.3c-10.18.23-15.25.43-25.2.98,0,0,0-.34,0-.34Z"/><path class="cls-3" d="M10.17,47.88c9.95-.5,15.02-.68,25.2-.89v.3c-10.18.22-15.25.41-25.2.93,0,0,0-.34,0-.34Z"/><path class="cls-3" d="M10.17,47.54c9.95-.48,15.02-.65,25.2-.85v.3c-10.18.21-15.25.39-25.2.89v-.34h0Z"/><path class="cls-3" d="M10.17,47.2c9.95-.45,15.02-.62,25.2-.81v.3c-10.18.2-15.25.37-25.2.85,0,0,0-.34,0-.34Z"/><path class="cls-3" d="M10.17,46.85c9.95-.43,15.02-.58,25.2-.77v.3c-10.18.19-15.25.36-25.2.81,0,0,0-.34,0-.34Z"/><path class="cls-3" d="M35.37,46.09c-10.18.18-15.25.34-25.2.77v-2.75c9.95-.24,15.02-.33,25.2-.43v2.41h0Z"/></g></g></svg>