<?xml version="1.0" encoding="UTF-8"?><svg id="Calque_2" xmlns="http://www.w3.org/2000/svg" width="130.48" height="61.68" viewBox="0 0 130.48 61.68"><defs><style>.cls-1{fill:#e62e2e;}.cls-1,.cls-2{stroke-width:0px;}.cls-2{fill:#fff;}</style></defs><g id="Layer_1"><path class="cls-1" d="M130.48,9.3c0-1.99-.69-3.85-1.9-5.19-2-2.51-4.87-3.78-8.54-3.78-2.55,0-5.14.5-7.7,1.49-1.12.43-2.15.89-3.1,1.36-.06-.08-.11-.17-.18-.25-2.95-3.33-7.26-3.88-10.73-1.36-.24.18-.48.37-.69.58l-.26.26c-.25.25-.48.51-.68.8-.88,1.24-1.7,2.53-2.48,3.86l-2.12-2.78c-.12-.15-.25-.31-.38-.45-2.34-3.06-5.2-3.52-6.71-3.52-.49,0-.97.06-1.45.18l-.52.13c-.3.07-.57.21-.86.33-1.18-.38-2.51-.64-4.15-.64-1.72,0-3.58.23-5.3.66-.57.07-1.11.22-1.63.41C68.61,0,65.43-.01,62.43,1.7c-.14.09-.29.16-.45.24-.13.06-.26.13-.38.2l-1.33.76c-1.35-1.24-3.14-2.05-5.2-2.24-.26-.02-.52-.03-.77-.02-1.83.07-3.49.82-4.88,2.02-1.58-1.04-3.4-1.82-5.39-2.21-.13-.03-.27-.05-.4-.06-1.49-.18-3.08-.13-4.78.17-1.3.23-2.4.5-3.37.8l-1.22.38c-.25.08-.48.17-.71.28-.9.42-1.7.93-2.46,1.51-1.99-2.1-4.64-3.21-7.97-3.21-3.06,0-6.34.79-9.76,2.36-3.1,1.42-5.81,3.29-8.29,5.72-1.81,1.78-3.22,3.88-4.2,6.27-.57,1.42-.87,2.92-.87,4.45,0,.67.05,1.39.19,2.18.53,2.85,1.91,5.26,3.98,6.96,1.62,1.33,3.52,2.27,5.66,2.78,1.58.38,3.21.59,5.04.65,2.35,0,4.66-.29,6.88-.86.74-.19,1.54-.49,2.33-.75-1.41.8-2.86,2.07-4.02,4.06-.67,1.06-1.14,2.22-1.4,3.42-.05.04-.1.08-.14.11l-.29.24c-1.02.83-1.98,1.7-2.97,2.67-2.29,2.29-3.6,5.3-3.6,8.23,0,.47.04.95.06,1.09.36,3.99,3.25,7.11,7.74,8.37.08.02.21.06.3.08,2.06.48,4.27.73,6.57.73,2.61,0,5.17-.26,7.59-.79,2.16-.47,4-1.11,5.56-1.96,1.86,1.57,4.32,2.75,7.2,2.75,2.15,0,4.36-.53,6.75-1.61.12-.06.25-.12.37-.19,1.34-.72,2.65-1.56,3.66-2.33.02-.01.03-.03.05-.04,1.94,2.22,4.92,4.16,8.61,4.16,1.86,0,3.78-.42,5.81-1.23,1.48,2.39,3.97,3.83,6.75,3.83,1.8,0,3.5-.58,4.91-1.68.35-.27.67-.58.95-.93l.31-.38c.28-.34.52-.71.72-1.1.33-.66.66-1.35.97-2.04,1.06,1.54,2.54,2.65,4.27,3.18,2.03.62,4.22.37,6.17-.69l.26-.14c.91-.5,1.84-1.48,2.38-2.37.96-1.56,1.81-3.3,2.61-5.38.53-1.37,1.07-2.64,1.63-3.84.04-.09.08-.18.12-.27.36-.88,1.1-2.38,2.61-4.66,1.32-1.45,2.06-3.35,2.06-5.35,0-1.6-.46-3.14-1.37-4.58.93.15,1.73.25,2.37.25,2.79,0,5.16-.84,7.1-1.66.02,0,.05-.02.07-.03l.11-.04c2.46-.99,4.69-2.29,6.63-3.87,2.68-2.01,4.39-4.56,5.11-7.6.08-.32.12-.65.15-.98l.03-.5c0-.12.01-.25.01-.38,0-.71-.08-1.4-.25-2.08,1.21-1.46,1.89-3.27,1.89-5.26h0ZM88.19,30.18c.33-.65.64-1.32.95-2,1.06,1.54,2.55,2.65,4.27,3.18.06.02.12.02.18.03-.68,1-1.36,2.01-1.97,3.07l-2.12-2.78c-.12-.15-.25-.31-.38-.45-.3-.39-.61-.74-.92-1.05h0ZM26.82,28.96s.03.02.04.03c-.05.01-.1.02-.15.04-.03,0-.05.02-.08.02.06-.03.12-.06.18-.09h0Z"/><path class="cls-2" d="M23.3,24.07c1.12-.43,2.09-1.02,2.89-1.76l.26-.25.13-.82c0-1.48-1.5-2.09-3.28-1.23-.4.19-.72.32-.81.36-2.67.7-5.31,1.33-8.12,1.33-.49,0-1.43-.05-3.13-.26-.8-.12-1.34-.69-1.34-1.39,0-.19.03-.38.12-.58.63-1.63,1.83-2.94,3.4-4.37,1.93-1.63,4.13-2.93,6.54-3.86.84-.32,1.62-.55,2.32-.69.09.29.24.55.46.76.66.72,1.89.83,2.77.43,1.26-.35,2.08-1.3,2.08-2.42,0-.57-.2-1.09-.47-1.35-1.13-1.48-2.66-1.68-4-1.68-2.2,0-4.65.61-7.28,1.81-2.47,1.13-4.62,2.62-6.59,4.55-1.23,1.21-2.19,2.64-2.86,4.25-.28.71-.43,1.45-.43,2.22,0,.34.02.71.09,1.08.28,1.48.92,2.64,1.91,3.45.93.77,2,1.28,3.26,1.59,1.18.28,2.39.44,3.65.48,1.85,0,3.65-.22,5.37-.67,1.03-.27,2.07-.61,3.07-1h0Z"/><path class="cls-2" d="M33.99,25.73c1.26,0,2.68-.35,4.28-1.08,1.09-.59,2.14-1.26,3.17-2.03.49-.33.85-.72,1.17-1.07.17-.18.33-.36.6-.61.69-.75,1.4-1.49,2.19-2.31.29-.35.53-.72.77-1.08.22-.34.43-.68.85-1.19.62-1.12,1.07-2.36,1.34-3.66.08-.4.13-.82.13-1.23,0-1.04-.33-1.97-1.02-2.77-1.04-1.17-2.68-2.04-4.58-2.41-.88-.11-1.9-.08-2.99.11-1.01.18-1.9.39-2.64.63l-1.22.38c-1.3.6-2.31,1.48-3.01,2.62-.31.54-.71,1.06-1.17,1.55-.55.57-1.05,1.21-1.49,1.89-.82,1.15-1.43,2.47-1.83,3.92-.19.69-.28,1.39-.28,2.09,0,1.23.28,2.22.93,3.22.87,1.38,2.65,3,4.8,3h0ZM44.54,11.11c0,.22-.05.72-.36,1.56l-.18.45c-.31.79-.58,1.48-1.18,2.11-.94,1.23-2.01,2.38-3.25,3.48-1.44,1.54-3.3,2.64-5.54,3.28-.12.02-.26.04-.44.04-.74,0-.87-.27-1-.52-.21-.33-.32-.76-.32-1.28,0-.73.3-1.54.6-2.39,1.1-2.25,2.84-4.43,5.15-6.48.94-.82,2.25-1.23,4.01-1.23.5,0,1.01.05,1.53.14.33.07.61.19.85.38.11.24.12.39.12.46Z"/><path class="cls-2" d="M46.05,23.32c0,1.31,1.02,2.41,2.22,2.41.96,0,1.68-.61,1.92-1.6.31-1.14.73-2.48,1.28-3.99.51-1.45,1.04-2.76,1.59-3.92.24.89.53,1.39.96,1.7.87.61,1.61.52,2.58-.17l2.28-1.83c1.3-1.21,2.75-2.26,4.33-3.14-.6,1.39-1.21,2.78-1.82,4.17-1.39,3.16-2.78,6.33-4.07,9.53-.25.36-.38.78-.38,1.23,0,.67.21,1.29.63,1.81.6.76,1.29.91,1.77.91.34,0,.68-.09,1.01-.28l.28-.16.15-.28c.35-.64.59-1.26.73-1.92.1-.49.26-.96.5-1.43.6-1.32,1.16-2.65,1.72-3.98.67-1.61,1.35-3.21,2.06-4.73.57-.99,1.04-2.01,1.46-3.11.37-.98.79-1.94,1.2-2.79.66-1.09.98-2.01.98-2.83,0-.55-.15-1.1-.47-1.64-.75-1.18-2.1-1.27-3.39-.53-.33.2-.66.38-1.03.56l-3.74,2.13c-1.03.62-2.08,1.28-3.14,2-.58.39-1.12.8-1.61,1.23-.23-.75-.31-1.02-.32-1.05,0-.13.03-.22.1-.33l.18-.25c.37-.51.88-1.22.88-2.22,0-1.32-1.11-2.12-2.35-2.24-.86.04-1.58.6-2.15,1.68-.38.72-.74,1.48-1.06,2.2-1.35,2.66-2.69,5.65-4.11,9.14-.97,2.36-1.17,3.18-1.17,3.69h0Z"/><path class="cls-2" d="M65.1,23.08c0,.47.16,1.16.91,1.84.57.52,1.36.81,2.31.83,1.7,0,3.65-.12,6.01-.36.82-.13,1.79-.72,1.79-2.87-.07-.66-.45-1.36-1.32-1.66.73-1.48,1.45-2.97,2.09-4.36.89-1.46,1.74-3.1,2.51-4.89.17-.4.26-.83.27-1.28.33.01.61.08.85.19l1.11.56.44-1.16c.15-.41.23-.78.23-1.13,0-1.14-.74-2.5-4.25-2.5-1.39,0-2.92.21-4.3.59-.99,0-1.68.71-1.68,1.71,0,.55.2,1.07.6,1.56.34.42,1.11.95,2.18.82-.06.14-.13.27-.21.4-1.48,2.66-2.88,5.44-4.14,8.24-.2.4-.38.84-.42,1.47-.79.23-1.92.36-3.32.36-1.15.05-1.66.86-1.66,1.64h0Z"/><path class="cls-2" d="M84.8,10.39c-.12.56-.36,1.12-.61,1.71-.15.35-.3.71-.42,1.05-.72,1.9-1.39,3.83-2.01,5.77-.58,1.82-1.29,3.59-2.12,5.24-.28.31-.55.79-.55,1.49,0,.58.15,1.12.45,1.64.38.67,1.02,1.05,1.74,1.05.47,0,.9-.15,1.26-.43l.31-.38c.94-1.86,1.75-3.86,2.43-5.97.15-.49.34-.96.53-1.43.25-.61.5-1.23.62-1.72.39-.92.68-1.79.9-2.6.06-.23.14-.47.22-.71.5.56.96,1.14,1.39,1.73.56.74,1.15,1.48,1.74,2.22.92,1.16,1.87,2.35,2.69,3.55v.06c0,.63.17,1.23.49,1.81.59,1.14,1.66,1.62,2.87.96l.26-.14.15-.25c.76-1.24,1.46-2.67,2.12-4.38.58-1.53,1.18-2.93,1.8-4.25.71-1.74,1.89-3.82,3.5-6.2.47-.38.72-.92.72-1.54s-.23-1.23-.68-1.77c-1.1-1.24-2.04-1.01-2.76-.48l-.26.26c-2.41,3.41-4.37,7.21-5.81,11.24-.06.15-.12.33-.18.51,0,.03-.02.06-.03.09-.64-.76-1.59-1.97-2.86-3.61l-5.32-6.98c-.09-.09-.2-.21-.31-.36-.62-.83-1.3-1.25-2.03-1.25l-.52.13c-.91.48-1.05,1.19-1.05,1.56,0,.82.56,1.48,1.05,2.05.09.11.2.24.29.36h0Z"/><path class="cls-2" d="M110.26,15.17l.08-.07c1.92-1.61,4.13-2.9,6.56-3.86.84-.33,1.61-.57,2.31-.71.09.3.26.58.49.81.66.65,1.57.82,2.81.37,1.74-.62,2-1.78,2-2.42,0-.59-.22-1.11-.45-1.28-1.09-1.52-2.64-1.72-4.02-1.72-1.82,0-3.69.37-5.55,1.09-1.81.7-3.33,1.45-4.5,2.24-1.37.89-2.64,1.91-3.79,3.04-1.23,1.21-2.19,2.63-2.88,4.25-.29.72-.43,1.48-.43,2.25,0,.32.02.66.09,1.05.29,1.64.95,2.91,1.95,3.79.96.85,1.94,1.36,2.91,1.52.84.16,1.45.23,1.8.23,1.72,0,3.32-.57,4.78-1.19l-.43-1.03.71.92c1.95-.78,3.7-1.82,5.17-3.04,1.57-1.15,2.57-2.52,2.98-4.26l.03-.5c0-.77-.31-1.49-.89-2.1-.53-.56-1.18-.93-1.96-1.11-1.76-.34-3.68-.09-5.61.8-1.67.61-3.36,1.46-5.13,2.56-.67.38-1.05,1.01-1.05,1.72,0,.38.11.77.3,1.1.53,1.01,1.26,1.16,1.65,1.16.35,0,.69-.12,1.02-.35.79-.56,1.66-1.05,2.65-1.46.45-.2.9-.41,1.3-.64.65-.35,1.29-.65,1.92-.9.39-.15.82-.25,1.3-.29-.05.09-.11.18-.16.27-2.1,2.06-4.59,3.38-7.51,3.96-.65.21-1.19.26-2.52.1-.42-.05-.74-.21-1-.49-.24-.26-.35-.53-.35-.9,0-.19.03-.36.12-.58.62-1.68,1.95-3.05,3.3-4.29h0Z"/><path class="cls-2" d="M35.54,41.18v.7c0,1.11.77,1.62,1.49,1.62s1.59-.5,2.96-1.72c.79-.71,1.34-1.15,1.56-1.29.48-.26,1.77-.93,1.77-2.39,0-.32-.05-.6-.14-.84l-.74-1.04c-.67-1.04-1.53-1.77-2.75-2.22-1.99-.37-3.83-.42-6.21-.25l-.85.13c-1.54.18-3.05.5-4.39.9-1.26.26-2.32,1.13-3.14,2.54-.45.71-.68,1.48-.68,2.27,0,1.55.51,2.87,1.54,3.94,1.6,1.65,3.56,2.6,5.29,3.36.43.18.84.36,1.34.61l.51.21c.09.04.18.08.27.12-.49.15-1.11.31-1.92.44-2.4.42-4.64.61-7.66.4-.65-.05-1.23-.15-1.74-.25,0-.2.18-.43.32-.57.19-.19.37-.36.55-.51,1.24-.98,1.82-1.84,1.82-2.69,0-.36-.08-.74-.25-1.13-.16-.36-.58-1.33-1.58-1.33l-.59.07-.31.25c-.88.72-1.71,1.47-2.51,2.26-1.17,1.17-1.86,2.67-1.86,4.02,0,.2.02.41.04.55.09,1.03.75,2.42,3.4,3.16h.05c1.62.39,3.38.58,5.21.58,2.19,0,4.33-.22,6.33-.65,2.07-.44,3.67-1.07,4.88-1.94.56-.53.86-1.21.86-1.96,0-1.04-.41-1.94-1.21-2.67-.92-.86-1.87-1.54-2.91-2.07-.99-.5-2.14-1.01-3.4-1.51-.43-.19-1.73-.78-2.17-1.09-.28-.18-.47-.4-.54-.57,0-.33.1-.6.33-.85.31-.34.65-.58.96-.72,2.43-.93,5.03-1.39,7.74-1.39h.75c-1.62,1.39-2.37,2.48-2.39,3.49h0Z"/><path class="cls-2" d="M61.16,38.88c0-1.04-.33-1.97-1.02-2.77-1.04-1.17-2.68-2.04-4.58-2.41-.88-.11-1.9-.08-2.99.11-1.01.18-1.9.39-2.64.63l-1.22.38c-1.3.6-2.31,1.48-3.01,2.62-.31.54-.71,1.06-1.17,1.55-.55.57-1.05,1.21-1.49,1.89-.82,1.15-1.43,2.47-1.82,3.92-.19.69-.29,1.39-.29,2.09,0,1.23.29,2.22.93,3.22.87,1.38,2.65,3,4.8,3,1.26,0,2.68-.35,4.28-1.08,1.09-.59,2.14-1.26,3.17-2.03.49-.33.85-.72,1.17-1.07.17-.18.33-.36.6-.61.69-.75,1.4-1.49,2.19-2.31.29-.35.53-.72.77-1.08.22-.34.43-.68.85-1.19.62-1.12,1.07-2.36,1.34-3.66.08-.4.13-.82.13-1.23h0ZM45.27,48.89c-.21-.33-.32-.76-.32-1.28,0-.73.3-1.54.6-2.39,1.1-2.25,2.84-4.43,5.15-6.48.94-.82,2.25-1.23,4.01-1.23.5,0,1.01.05,1.53.14.33.07.61.19.85.38.11.24.12.39.12.46,0,.22-.05.72-.36,1.56l-.18.45c-.31.79-.58,1.48-1.18,2.11-.94,1.23-2.01,2.38-3.25,3.48-1.44,1.54-3.3,2.64-5.54,3.28-.12.02-.26.04-.44.04-.74,0-.87-.27-1-.52Z"/><path class="cls-2" d="M78.28,44.95c.22-.34.43-.68.85-1.19.62-1.12,1.07-2.36,1.34-3.66.08-.4.13-.82.13-1.23,0-1.04-.33-1.97-1.02-2.77-1.04-1.17-2.68-2.04-4.58-2.41-.87-.11-1.9-.08-2.99.11-1.01.18-1.9.39-2.64.63l-1.22.38c-1.3.6-2.31,1.48-3.01,2.62-.31.54-.71,1.06-1.17,1.55-.55.57-1.05,1.21-1.49,1.89-.82,1.15-1.43,2.47-1.82,3.92-.19.69-.29,1.39-.29,2.09,0,1.23.29,2.22.93,3.22.87,1.38,2.65,3,4.8,3,1.26,0,2.68-.35,4.28-1.08,1.09-.59,2.14-1.26,3.17-2.03.49-.33.85-.72,1.17-1.07.17-.18.33-.36.6-.61.69-.75,1.4-1.49,2.19-2.31.29-.35.53-.72.77-1.08h0ZM64.71,48.89c-.21-.33-.32-.76-.32-1.28,0-.73.3-1.54.6-2.39,1.1-2.25,2.84-4.43,5.15-6.48.94-.82,2.25-1.23,4.01-1.23.5,0,1.01.05,1.53.14.33.07.61.19.85.38.11.24.12.39.12.46,0,.22-.05.72-.36,1.56l-.18.45c-.31.79-.58,1.48-1.18,2.11-.94,1.23-2.01,2.38-3.25,3.48-1.44,1.54-3.3,2.64-5.54,3.28-.12.02-.26.04-.44.04-.74,0-.87-.27-1-.52Z"/><path class="cls-2" d="M99.22,33.78l-.26.26c-2.41,3.41-4.37,7.21-5.81,11.24-.06.15-.12.33-.18.51,0,.03-.02.06-.03.09-.64-.76-1.59-1.97-2.86-3.61l-5.32-6.98c-.09-.09-.2-.21-.31-.36-.62-.83-1.3-1.25-2.03-1.25l-.52.13c-.91.48-1.05,1.19-1.05,1.56,0,.82.56,1.48,1.05,2.05.09.11.2.24.29.36-.12.56-.36,1.12-.61,1.71-.15.35-.3.71-.42,1.05-.72,1.9-1.39,3.83-2.01,5.77-.58,1.82-1.29,3.59-2.12,5.24-.28.31-.55.79-.55,1.49,0,.58.15,1.12.45,1.64.38.67,1.02,1.05,1.74,1.05.47,0,.9-.15,1.26-.43l.31-.38c.94-1.86,1.75-3.86,2.43-5.97.15-.49.34-.96.53-1.43.25-.61.5-1.23.62-1.72.39-.92.68-1.79.9-2.6.06-.23.14-.47.22-.71.5.56.96,1.14,1.39,1.73.56.74,1.15,1.48,1.74,2.22.92,1.16,1.87,2.35,2.69,3.55v.06c0,.63.17,1.23.49,1.81.59,1.14,1.66,1.62,2.87.96l.26-.14.15-.25c.76-1.24,1.46-2.67,2.12-4.38.58-1.53,1.18-2.93,1.8-4.25.71-1.74,1.89-3.82,3.5-6.2.47-.38.72-.92.72-1.54s-.23-1.23-.68-1.77c-1.1-1.24-2.04-1.01-2.76-.48h0Z"/></g></svg>