<?xml version="1.0" encoding="UTF-8"?><svg id="Calque_2" xmlns="http://www.w3.org/2000/svg" width="109.23" height="67.03" viewBox="0 0 109.23 67.03"><defs><style>.cls-1{fill:#e62e2e;}.cls-1,.cls-2{stroke-width:0px;}.cls-2{fill:#fff;}</style></defs><g id="Layer_1"><path class="cls-1" d="M108.42,35.47c-.04-.08-.08-.16-.12-.24-1.85-3.51-5.82-4.95-13.79-4.95h-.47c.08-.41.12-.84.12-1.28,0-1.8-.6-3.51-1.78-5.08-.02-.03-.04-.05-.06-.07.21-.08.42-.15.62-.23,5.05-1.82,8.05-5.8,8.02-10.68,0-.29-.03-.58-.08-.86-.65-3.79-3.07-7.18-6.64-9.32-.11-.07-.22-.13-.33-.18C90.58.9,86.76.05,82.55.05c-5.65,0-10.94,1.09-15.72,3.25-.05.02-.1.05-.16.08-1.94-1.56-4.38-2.68-7.08-3.2-.12-.02-.25-.04-.38-.06-1.66-.2-3.5-.13-5.35.19-1.59.29-2.92.61-4.04.96l-1.55.48c-.22.07-.43.15-.64.25-.24.11-.45.25-.68.37-2.59-1.91-6.58-2.37-11.8-2.37h-1.24s-.09,0-.14,0h-.12c-.78.02-1.55.04-2.31.04-.22,0-.44.01-.66.04l-.25.03c-.22.03-.45.07-.67.13-1.02.26-2.15.44-3.49.64-1.04.16-2.34.35-3.74.66-.16.04-.32.08-.48.13-3.17,1.01-5.22,3.92-5.22,7.4,0,1.46.36,2.78.99,3.89-.34.94-.44,1.79-.44,2.47,0,1.11.25,2.18.71,3.13-.24.62-.48,1.25-.71,1.9-.31.89-.63,1.72-.99,2.52-.89,1.22-1.37,2.68-1.37,4.22,0,1.85.61,3.56,1.74,4.98-1.95.62-4.36,2.05-6.26,5.29-.9,1.45-1.43,3.06-1.55,4.7-.45.21-.88.47-1.29.78-.05.04-.1.08-.15.12-1.18.96-2.36,2.02-3.67,3.29-2.44,2.45-3.85,5.61-3.85,8.66,0,.4.03.82.08,1.26.2,1.95,1.4,6.39,7.93,8.22.05.01.09.03.14.04.03,0,.09.02.12.03,2.49.58,5.16.88,7.94.88,3.22,0,6.36-.33,9.33-.97,1.81-.39,3.4-.88,4.81-1.47,2.44,2.64,5.83,3.21,9.2,1.46.19-.1.38-.21.56-.34,1.14-.78,2.14-1.69,3-2.7.24-.28.49-.52.88-.82.16-.12.31-.25.45-.39.01-.01.03-.03.04-.04.85-.11,1.69-.18,2.55-.25.13,2.64,1.57,4.94,3.82,6.1,1.21.64,2.46.96,3.72.96.12,0,.25,0,.37-.01h.22c.18-.03.36-.05.54-.08,1.45-.26,2.57-.93,3.45-1.68.57.14,1.16.22,1.74.22,2.52,0,4.94-.13,7.12-.38,2.16-.22,5.38-.47,8.26-.22.15.01.31.02.46.02.61,0,1.19-.1,1.75-.24,1.02.53,2.14.82,3.31.82.49,0,.97-.05,1.44-.15,1.26-.12,2.45-.17,3.62-.17,1.58,0,3.09-.26,4.47-.76.15-.04.32-.08.52-.12,1.43-.21,2.75-.49,4.02-.85.63-.16,1.32-.35,2.13-.57.09-.02.17-.05.25-.08.8-.26,1.51-.56,2.17-.91,2.45-1.29,3.91-3.7,3.91-6.44,0-2.41-1.24-4.5-3.15-5.72,1.05-.87,1.75-1.96,2.16-3.07.52-.14,1.02-.36,1.48-.65,1.79-.9,3.17-2.4,3.87-4.24.35-.88.53-1.82.53-2.79,0-1.17-.26-2.3-.81-3.47h0ZM42.72,37.86c-.16-.38-.37-.73-.61-1.06l-.8-1.07c-1.44-2.17-3.37-3.72-5.74-4.61-.3-.11-.6-.2-.92-.25-1.7-.31-3.37-.48-5.21-.51.85-1.68,1.56-3.36,2.2-4.89l.46-1.11c.4-.93.86-1.87,1.31-2.8l.07-.15s0-.02.01-.03c.22-.02.43-.04.64-.06l.18-.02c.12-.01.23-.02.35-.03-.02.31-.03.61-.03.92,0,2.55.63,4.72,1.95,6.77,1.88,2.99,5.58,6.18,10.36,6.18,2.34,0,4.89-.61,7.57-1.82.11-.05.22-.11.33-.17,1.6-.86,3.13-1.84,4.68-2.99,1.04-.72,1.77-1.51,2.32-2.1.11-.12.21-.24.37-.38.12-.11.24-.23.36-.35.65-.7,1.33-1.41,2.02-2.13-.12.6-.21,1.21-.21,1.82,0,1.33.28,2.57.77,3.66-.02,0-.04-.02-.06-.03l-.19-.07c-.71-.24-1.47-.33-2.23-.25h-.15c-2.31.22-4.33,1.21-5.85,2.88-.24.26-.49.51-.74.75-5.18,4.03-9.6,7.33-13.15,9.81.43-1.09.54-2.1.54-2.84,0-1.11-.21-2.16-.62-3.1h0ZM97.39,59.05s0,0,.01,0h0s0,0-.01,0Z"/><path class="cls-2" d="M22.69,29.89c.54,0,1.02-.25,1.52-.89,1-1.78,1.8-3.71,2.58-5.57l.48-1.14c.44-1.02.92-2.02,1.41-3.02.33-.68.67-1.37,1.01-2.11.28-.69.65-.93,2.25-.93.64-.04,1.25-.09,1.85-.14.93-.09,1.85-.17,2.9-.17.58,0,2.33,0,2.68-1.65l.06-.26-.09-.26c-.54-1.57-2.12-1.58-2.83-1.58h-.01c-1.44.02-2.91.02-4.41.02.37-.88.78-1.7,1.33-2.42.53-.04,1.15-.05,1.87-.05,2.02,0,3.46.03,4.39.08.04.27.14.53.28.73.37.62.84.97,1.39,1.02l.17.02.68-.18c2.18-.51,2.64-1.75,2.64-2.7,0-.39-.1-.81-.31-1.26-.52-1.07-2.04-2.16-9.35-2.16h-1.24c-.86.02-1.73.05-2.57.05l-.25.03c-1.3.34-2.62.54-4.03.75-1.11.17-2.21.33-3.4.59-.99.32-1.55,1.18-1.55,2.38,0,1.83,1.18,2.04,1.7,2.05.75-.08,1.49-.21,2.21-.34.61-.11,1.2-.21,1.8-.29-.23.54-.47,1.08-.72,1.6-1.55.11-2.63.5-3.31,1.17-.75.75-1.14,1.48-1.14,2.16,0,1.09.82,1.78,1.79,1.73-.75,1.58-1.44,3.24-2.08,5.02-.45,1.3-.93,2.49-1.48,3.64-.39.37-.6.86-.6,1.39,0,.69.23,1.3.68,1.81.62.72,1.27.87,1.7.87h0Z"/><path class="cls-2" d="M42.59,14.59c-1.04,1.46-1.82,3.14-2.33,5-.24.86-.36,1.75-.36,2.62,0,1.54.34,2.73,1.14,3.97,1.08,1.71,3.27,3.71,5.9,3.71,1.59,0,3.38-.45,5.4-1.36,1.41-.76,2.77-1.64,4.12-2.64.59-.4,1.05-.89,1.45-1.32.23-.25.46-.5.79-.8.91-.98,1.85-1.96,2.86-3.01.36-.44.67-.91.97-1.38.3-.46.6-.93,1.1-1.53.79-1.43,1.36-3.01,1.71-4.68.11-.5.16-1.01.16-1.51,0-1.25-.4-2.36-1.21-3.31-1.3-1.46-3.36-2.55-5.71-3.01-1.11-.13-2.42-.09-3.78.14-1.37.25-2.49.51-3.42.81l-1.55.48c-1.62.75-2.88,1.83-3.74,3.25-.43.74-.97,1.46-1.6,2.13-.7.73-1.34,1.54-1.91,2.43h0ZM44.71,25.09c-.33-.51-.5-1.17-.5-1.94,0-1.05.41-2.15.8-3.22l.05-.14c1.48-3.02,3.79-5.94,6.88-8.67,1.33-1.17,3.16-1.73,5.6-1.73.68,0,1.38.06,2.11.19.56.11,1.02.33,1.42.67.17.35.25.67.25.92,0,.39-.09,1.11-.5,2.23l-.23.59c-.41,1.05-.8,2.04-1.61,2.9-1.26,1.64-2.68,3.17-4.3,4.61-1.96,2.09-4.49,3.59-7.52,4.45-.19.04-.42.06-.7.06-1.14,0-1.5-.46-1.73-.91Z"/><path class="cls-2" d="M68.47,13.66c.56,0,1.09-.25,1.59-.75.26-.26.5-.49.59-.57,1.38-.68,2.96-1.23,4.72-1.64-.42,1.18-.85,2.33-1.25,3.44-.26.6-.48,1.2-.7,1.83-.12.36-.29.64-.54.86-.56.08-1.43.09-2.58.5-1.75.67-2.6,1.42-2.6,2.29,0,1.05,1.13,1.5,2.94,1.87.28.07.56.16.83.27-.17.76-.48,1.51-.77,2.24-.11.26-.21.53-.31.79-.49.67-.73,1.43-.73,2.25,0,1.67.91,2.79,2.27,2.79l.26-.03c.84-.19,1.45-.78,1.83-1.78.22-.64.46-1.21.7-1.76.3-.69.52-1.36.66-2.03.05-.25.11-.48.18-.69,2.98,1.31,5.99,3.23,8.97,5.72.72.61,1.51,1.06,2.35,1.33l.22.07.22-.03c1.44-.21,1.55-1.3,1.55-1.64,0-.64-.24-1.27-.73-1.92-.44-.58-.88-.99-1.19-1.14-2.02-1.66-4.07-3.16-6.05-4.41-.24-.18-.51-.36-.8-.53l2.91-.37c2.8-.3,5.53-.97,8.07-1.96,2.92-1.03,4.6-3.05,4.59-5.71-.39-2.27-1.88-4.33-4.15-5.69-2.59-1.3-5.61-1.96-8.98-1.96-4.9,0-9.44.93-13.56,2.78-.93.5-1.56.95-2,1.42-.41.44-.62,1-.62,1.6,0,.7.25,1.32.7,1.77.31.33.79.78,1.41.78h0ZM91.46,12.51c-1.63,1.71-4.04,2.49-6.14,3.02-2.82.57-5.23.88-7.15.94.2-.64.46-1.26.72-1.91.26-.64.52-1.28.68-1.81.13-.26.2-.55.2-.88,0-.65-.19-1.27-.56-1.81.66-.07,1.33-.13,2.03-.17,2.9-.33,6.1.11,8.97,1.25.3.09.66.31,1.02.6.33.3.37.51.24.78h0Z"/><path class="cls-2" d="M26.44,48.91c-1.23-.63-2.7-1.28-4.45-1.97-1-.45-2.38-1.08-2.92-1.46-.45-.29-.76-.66-.93-1.16,0-.56.19-1.04.57-1.45.46-.5.95-.86,1.44-1.08,3.25-1.24,6.73-1.86,10.35-1.86h.92c.42,0,.86.04,1.29.11-3.43,2.73-3.86,4.13-3.88,4.97v.92c0,1.14.74,1.65,1.46,1.65.58,0,1.45-.25,3.57-2.13,1.06-.95,1.8-1.55,2.15-1.77.62-.33,2.06-1.09,2.06-2.71,0-.39-.06-.73-.18-1.01l-.89-1.2c-.83-1.28-1.87-2.17-3.29-2.71-2.57-.47-5.03-.53-8-.32l-1.13.18c-2,.24-3.96.64-5.73,1.18-1.51.31-2.8,1.38-3.82,3.12-.54.86-.82,1.77-.82,2.73,0,1.91.63,3.53,1.88,4.84,2.04,2.11,4.57,3.33,6.8,4.31.57.24,1.12.48,1.75.81l.67.28c.53.22.98.44,1.37.67-.87.4-2.09.74-3.64.99-2.43.42-4.89.63-7.52.63-.83,0-1.7-.02-2.66-.09-.91-.06-1.69-.21-2.31-.43-.43-.15-.43-.29-.43-.39,0-.34.19-.71.56-1.1.26-.26.51-.49.76-.71,1.51-1.19,2.21-2.2,2.21-3.16,0-.41-.1-.84-.29-1.29-.19-.44-.64-1.46-1.63-1.46-.29,0-.59.1-.87.31-1.06.87-2.13,1.82-3.27,2.93-1.44,1.45-2.31,3.29-2.31,4.94,0,.25.03.5.05.68.16,1.75,1.54,3.01,4.11,3.73h.04c2.1.5,4.37.75,6.74.75,2.85,0,5.62-.29,8.22-.85,2.65-.57,4.7-1.36,6.18-2.43.64-.6.97-1.37.97-2.23,0-1.22-.49-2.29-1.44-3.15-1.17-1.1-2.39-1.96-3.71-2.64h0Z"/><path class="cls-2" d="M60.03,52.2c1.25-4.22,3.04-8.34,4.85-12.5l.1-.43-.06-.3c0-.09.01-.17,0-.17l.13-.5c.03-.19.05-.36.05-.55,0-.45-.17-1.56-1.7-2.08l-.19-.07-.2.02c-.99.09-1.8.47-2.41,1.14-.42.46-.86.88-1.21,1.22-5.37,4.19-9.97,7.63-13.69,10.21-1.36.95-2.78,1.81-4.13,2.55-.68.3-1.69.47-2.99.49-1.43.02-2.71.05-3.92.11-1.02.18-1.71,1.31-1.71,2.25,0,.72.46,1.59,1.86,1.64.19-.01.39-.03.58-.04-1.97,1.46-1.97,2.05-1.97,2.34,0,.62.22,1.22.63,1.74.77.95,1.61,1.3,3.08.53.75-.52,1.41-1.11,1.96-1.76.48-.56,1-1.06,1.68-1.58.76-.75,1.66-1.23,2.59-1.43,3.08-.41,6.02-.51,9.14-.61l1.67-.06c-.03.09-.08.19-.14.29-.25.43-.5.9-.66,1.38-.15.49-.34.95-.55,1.42-.35.78-.52,1.47-.52,2.1,0,1.16.64,1.65,1,1.83.46.25.89.37,1.29.37h.22c.72-.14,1.36-.74,2.07-1.99.52-.97,1.01-2.03,1.52-3.19.46-1.14.81-2.07,1.07-2.76l.59-1.62h0ZM48.6,50.76c3.21-2.15,6.36-4.32,9.42-6.48-.82,2.25-1.58,4.29-2.33,6.25l-7.08.24Z"/><path class="cls-2" d="M76.82,55.56l-1.28-.05-.32-.09h-.18c-.89.03-2.12.05-3.65.05-1.12,0-2.1,0-2.93.02.54-.91,1.05-1.8,1.54-2.71.66-1.2,1.34-2.38,2.05-3.56.76-1.32,1.5-2.66,2.22-3.97.97-1.78,2.02-3.57,3.03-5.2.47-.51.72-1.11.72-1.75,0-1.26-.7-2.19-1.97-2.62l-.29-.1-.3.09c-1.04.3-1.75,1.04-2.02,2.03-.13.33-.26.57-.51.87-1.16,1.84-2.21,3.71-3.14,5.54-.7,1.36-1.45,2.7-2.26,4.07-1.5,2.77-3.19,5.38-5,7.79-.32.08-.66.03-1.54-.09h-.25c-1.08-.01-1.78.73-1.78,1.86,0,2.29,1.45,2.47,1.9,2.47h.05c2.31,0,4.54-.12,6.6-.35,2.8-.28,6.13-.5,9.25-.22.77,0,1.39-.54,1.82-1.58.13-.3.19-.58.19-.85,0-.76-.51-1.6-1.93-1.64h0Z"/><path class="cls-2" d="M103.63,37.68c-.28-.53-1.12-2.13-9.05-2.13l-1.91.03c-.79.02-1.52.04-2.21.04l-.25.03c-1.25.33-2.57.57-3.93.74-1.14.16-2.28.35-3.59.62-1.25.55-1.43,1.37-1.43,1.75-.03.41-.03.61-.03.64,0,1.65,1.1,1.97,1.44,2.02l.14.02.14-.02c.77-.09,1.54-.21,2.42-.35.52-.14,1.05-.25,1.6-.31-.21.52-.43,1.01-.66,1.47-.03.06-.07.12-.1.18-1.56.1-2.65.48-3.3,1.16-.76.76-1.14,1.47-1.14,2.16,0,1.11.71,1.79,1.8,1.75-.79,1.65-1.54,3.49-2.3,5.55-.44,1.28-.86,2.28-1.26,3.06-.39.39-.61.89-.61,1.41,0,.64.24,1.25.69,1.78.49.6,1.06.9,1.69.9.19,0,.36-.03.54-.09,1.59-.16,3.07-.24,4.52-.24,1.01,0,1.96-.17,2.78-.48.46-.15.93-.25,1.35-.33,1.26-.18,2.41-.42,3.49-.73.62-.16,1.32-.35,2.13-.57.46-.15.93-.34,1.37-.57.71-.37,1.1-1.01,1.1-1.78,0-1.04-.99-1.6-1.92-1.6-.51,0-1.03.1-1.64.33-.31.13-.6.2-.93.2l-3.94.37c-1.77.23-3.58.42-5.41.56.42-.96.8-1.85,1.15-2.67.41-.93.81-1.86,1.23-2.7.43-.79.83-1.6,1.19-2.43.26-.63.65-.92,2.29-.92l2.01-.19c.86-.12,1.77-.18,2.69-.18.62,0,2.28,0,2.67-1.59l.07-.29-.1-.28c-.57-1.59-2.21-1.59-2.83-1.59-1.02,0-1.99.02-2.92.05h-1.52c.37-.89.82-1.68,1.36-2.4.59-.04,1.72-.08,3.86-.08.61,0,1.42.03,2.4.11.04.25.14.49.25.64.48.91,1.11,1.1,1.55,1.1l.94-.28.45-.05.12-.12c1.05-.38,1.51-1.09,1.69-1.6.12-.27.17-.55.17-.87,0-.39-.09-.78-.32-1.26h0Z"/></g></svg>