<?xml version="1.0" encoding="UTF-8"?><svg width="134" height="186" id="Calque_2" xmlns="http://www.w3.org/2000/svg" viewBox="0 0 67.14 93.83"><defs><style>.cls-1,.cls-2{stroke-width:0px;}.cls-2{fill:#68c5b7;}</style></defs><g id="_11_Bubble"><path class="cls-2" d="m24.77,44.61c-.28.44-.31,1.02-.08,1.53.22.48.64.82,1.13.89,7.86,1.23,16.8,5.81,18.28,15,1.73,10.73-7.59,15.12-13.3,16.78-.45.13-.81.43-1,.84-.21.44-.2.96.01,1.46.67,1.5,1.35,3.48,2.02,5.4.29.83.58,1.67.87,2.48-.64-.62-1.27-1.27-1.89-1.92-1.44-1.5-2.93-3.05-4.44-4.14-.26-.19-.58-.47-.93-.79-1.16-1.02-2.47-2.18-3.72-2.24-2.72-.15-7.3-.67-11.41-2.48-4.11-1.8-7.74-4.89-8.58-10.14-1.49-9.35,4.37-17.66,13.94-19.76.7-.15,1.32-.23,1.86-.3,1.7-.22,3.05-.4,4.36-2.41.5-.76.97-1.07,1.52-1.42.61-.4,1.3-.84,1.96-1.87.27-.42.32-.93.14-1.41-.19-.49-.6-.86-1.09-.99-5.67-1.56-18.8-6.37-18.18-17.49.27-4.86,2.58-9.29,6.51-12.49,6.01-4.92,14.63-7.64,23.6-7.64,2.35,0,4.73.18,7.09.57,10.12,1.68,21.25,7.65,22.15,19.36.37,4.89-1.11,8.95-4.4,12.07-7.88,7.47-23.42,7.72-31.36,6.7-.66-.09-1.23.36-1.47.77-.52.83-1.02,1.19-1.6,1.62-.62.45-1.32.95-1.99,2.02Z"/><path class="cls-1" d="m27.64,43.8c.61-.45,1.31-.96,2-2.11,8.21,1.06,24.3.76,32.58-7.1,3.63-3.44,5.27-7.91,4.86-13.27-.96-12.58-12.71-18.96-23.39-20.73-11.76-1.92-23.98.91-31.89,7.39-4.25,3.47-6.76,8.28-7.06,13.56-.68,12.22,13.26,17.37,19.29,19.02.02,0,.06.04.08.15-.49.75-.96,1.06-1.51,1.42-.61.39-1.29.83-1.96,1.85-.94,1.44-1.73,1.55-3.3,1.75-.58.07-1.23.16-1.99.32C6.06,48.09,0,55.55,0,64.38c0,1.03.08,2.08.25,3.14,1.85,11.59,15.57,13.56,21.39,13.87.73.04,1.98,1.15,2.8,1.88.4.35.76.66,1.05.88,1.4,1.01,2.84,2.51,4.24,3.96,1.41,1.46,2.87,2.98,4.33,4.06l2.26,1.66-1.13-2.57c-.64-1.45-1.3-3.38-1.94-5.24-.68-1.95-1.37-3.97-2.07-5.52-.05-.11-.03-.19.04-.25,10.68-3.11,15.78-9.67,14.36-18.46-1.61-9.98-11.15-14.94-19.5-16.23-.03-.03-.06-.12-.05-.14.53-.83,1.03-1.2,1.61-1.62Zm-2.87.81c-.28.44-.31,1.02-.08,1.53.22.48.64.82,1.13.89,7.86,1.23,16.8,5.81,18.28,15,1.73,10.73-7.59,15.12-13.3,16.78-.45.13-.81.43-1,.84-.21.44-.2.96.01,1.46.67,1.5,1.35,3.48,2.02,5.4.29.83.58,1.67.87,2.48-.64-.62-1.27-1.27-1.89-1.92-1.44-1.5-2.93-3.05-4.44-4.14-.26-.19-.58-.47-.93-.79-1.16-1.02-2.47-2.18-3.72-2.24-2.72-.15-7.3-.67-11.41-2.48-4.11-1.8-7.74-4.89-8.58-10.14-1.49-9.35,4.37-17.66,13.94-19.76.7-.15,1.32-.23,1.86-.3,1.7-.22,3.05-.4,4.36-2.41.5-.76.97-1.07,1.52-1.42.61-.4,1.3-.84,1.96-1.87.27-.42.32-.93.14-1.41-.19-.49-.6-.86-1.09-.99-5.67-1.56-18.8-6.37-18.18-17.49.27-4.86,2.58-9.29,6.51-12.49,6.01-4.92,14.63-7.64,23.6-7.64,2.35,0,4.73.18,7.09.57,10.12,1.68,21.25,7.65,22.15,19.36.37,4.89-1.11,8.95-4.4,12.07-7.88,7.47-23.42,7.72-31.36,6.7-.66-.09-1.23.36-1.47.77-.52.83-1.02,1.19-1.6,1.62-.62.45-1.32.95-1.99,2.02Z"/></g></svg>
