<?xml version="1.0" encoding="UTF-8"?><svg id="Calque_2" xmlns="http://www.w3.org/2000/svg" width="119.43" height="119.79" viewBox="0 0 119.43 119.79"><defs><style>.cls-1{fill:#e62e2e;}.cls-1,.cls-2,.cls-3{stroke-width:0px;}.cls-4,.cls-3{isolation:isolate;}.cls-2{fill:#fff;}.cls-3{fill:#000;mix-blend-mode:multiply;opacity:.5;}</style></defs><g id="Calque_1-2"><g class="cls-4"><g id="Layer_1"><path class="cls-1" d="M108.69,41.54h-10.54L67.28,3.43c-1.91-2.18-4.67-3.43-7.57-3.43s-5.66,1.25-7.57,3.43l-30.86,38.11h-10.54c-5.93,0-10.73,4.81-10.73,10.73v56.78c0,5.93,4.81,10.73,10.73,10.73h97.96c5.93,0,10.73-4.81,10.73-10.73v-56.78c0-5.93-4.81-10.73-10.73-10.73h0ZM55.56,6.42c1.05-1.2,2.56-1.88,4.16-1.88s3.11.69,4.16,1.88l28.24,35.12H27.32L55.56,6.42Z"/><path class="cls-3" d="M55.56,6.42c1.05-1.2,2.56-1.88,4.16-1.88s3.11.69,4.16,1.88l28.24,35.12h6.04L67.28,3.43C65.37,1.25,62.61,0,59.71,0s-5.66,1.25-7.57,3.43l-30.86,38.11h6.04S55.56,6.42,55.56,6.42Z"/><path class="cls-2" d="M44.74,57.61l-7.57-.04-.03,4.86,6.33.04c.59,0,1.02.14,1.31.4.29.27.43.62.43,1.06s-.15.79-.45,1.05-.73.38-1.31.38l-6.33-.04-.04,6.25c0,.79-.19,1.38-.55,1.76-.36.38-.82.57-1.38.57-.57,0-1.03-.2-1.39-.59-.36-.39-.53-.98-.53-1.76l.09-14.61c0-.55.09-1,.25-1.35s.43-.6.78-.76c.35-.16.8-.24,1.34-.23l9.06.05c.61,0,1.07.14,1.36.42.3.27.44.63.44,1.07,0,.45-.15.81-.45,1.08-.3.27-.75.4-1.37.4h0Z"/><path class="cls-2" d="M57.79,54.4c1.97.01,3.66.42,5.06,1.23,1.41.81,2.47,1.95,3.18,3.43.72,1.48,1.07,3.21,1.06,5.19,0,1.47-.22,2.8-.62,4s-1.01,2.23-1.81,3.11c-.8.88-1.78,1.54-2.94,2-1.16.46-2.49.68-3.98.68-1.49,0-2.81-.26-3.98-.74-1.17-.49-2.15-1.17-2.93-2.04-.78-.88-1.37-1.93-1.76-3.16-.39-1.23-.59-2.56-.58-3.98,0-1.46.23-2.8.65-4.01.43-1.21,1.04-2.25,1.84-3.1.8-.85,1.77-1.5,2.91-1.94,1.14-.45,2.44-.67,3.89-.66h0ZM63.2,64.19c0-1.39-.21-2.6-.65-3.62-.44-1.02-1.08-1.79-1.91-2.32s-1.78-.79-2.86-.8c-.77,0-1.48.14-2.13.42-.65.29-1.22.7-1.69,1.25-.47.55-.85,1.25-1.13,2.11-.28.86-.42,1.82-.43,2.89,0,1.08.12,2.06.39,2.93.27.87.65,1.6,1.14,2.18.49.58,1.06,1.01,1.7,1.3.64.29,1.35.44,2.11.44.98,0,1.89-.24,2.72-.72s1.49-1.24,1.98-2.27c.49-1.03.75-2.29.75-3.79h0Z"/><path class="cls-2" d="M75.54,65.69h-1.35s-.04,6.09-.04,6.09c0,.8-.18,1.39-.54,1.77-.36.38-.82.57-1.39.56-.61,0-1.09-.21-1.42-.61-.33-.4-.5-.98-.49-1.75l.09-14.61c0-.83.19-1.43.57-1.8s.97-.55,1.8-.55l6.25.04c.86,0,1.6.05,2.21.12.61.08,1.16.23,1.65.46.6.25,1.12.61,1.57,1.08.45.47.8,1.01,1.03,1.63.23.62.35,1.27.34,1.96,0,1.42-.41,2.54-1.22,3.39-.8.84-2.02,1.43-3.64,1.78.68.37,1.33.91,1.95,1.62s1.17,1.47,1.65,2.27c.48.8.86,1.52,1.13,2.17s.4,1.09.4,1.33c0,.25-.08.5-.24.74s-.38.44-.66.58c-.28.14-.6.21-.96.21-.43,0-.79-.11-1.09-.31-.29-.21-.54-.46-.75-.78s-.49-.77-.85-1.38l-1.53-2.57c-.55-.94-1.04-1.66-1.47-2.16-.43-.5-.87-.83-1.32-1.02-.45-.18-1.01-.28-1.69-.28h0ZM77.79,57.73l-3.55-.02-.03,5.22,3.44.02c.92,0,1.7-.07,2.33-.23.63-.15,1.11-.43,1.45-.81.33-.38.5-.91.51-1.58,0-.53-.13-.99-.39-1.39-.27-.4-.64-.71-1.11-.91-.45-.19-1.33-.29-2.65-.3Z"/><path class="cls-2" d="M34.64,98.41c0,1.52-.41,2.88-1.2,4.08-.79,1.21-1.94,2.15-3.45,2.82-1.51.68-3.3,1.01-5.36,1-2.48-.01-4.52-.49-6.12-1.44-1.14-.68-2.06-1.58-2.77-2.71-.71-1.13-1.06-2.22-1.05-3.28,0-.62.22-1.14.65-1.58.43-.44.98-.65,1.64-.65.54,0,.99.18,1.36.52s.68.85.94,1.53c.31.8.66,1.47,1.03,2.01.37.54.89.98,1.56,1.34s1.56.53,2.65.54c1.51,0,2.73-.34,3.68-1.03.95-.7,1.42-1.57,1.43-2.62,0-.83-.25-1.51-.75-2.03-.5-.52-1.16-.92-1.96-1.2-.8-.28-1.88-.58-3.22-.89-1.8-.43-3.31-.94-4.52-1.51s-2.17-1.35-2.88-2.33-1.06-2.19-1.05-3.64c0-1.38.39-2.61,1.15-3.67.76-1.07,1.85-1.89,3.28-2.45,1.43-.57,3.11-.85,5.04-.83,1.54,0,2.87.21,3.99.6,1.12.39,2.05.9,2.79,1.54s1.28,1.31,1.61,2,.51,1.38.5,2.04c0,.61-.22,1.15-.65,1.63-.43.48-.97.72-1.61.72-.58,0-1.02-.15-1.32-.45-.3-.29-.63-.77-.98-1.43-.45-.95-1-1.69-1.63-2.23-.64-.53-1.66-.81-3.08-.81-1.31,0-2.37.27-3.18.85-.81.57-1.21,1.26-1.22,2.07,0,.5.13.94.4,1.3.27.37.65.68,1.12.95s.96.47,1.45.62c.49.15,1.3.37,2.43.66,1.41.34,2.69.71,3.84,1.12,1.14.41,2.12.9,2.92,1.47.8.58,1.42,1.3,1.87,2.18.44.88.66,1.95.66,3.21h0Z"/><path class="cls-2" d="M54.99,103.22l-1.18-3.16-10.2-.06-1.22,3.21c-.48,1.25-.88,2.1-1.21,2.54-.33.44-.88.65-1.63.65-.64,0-1.2-.24-1.69-.71-.49-.47-.73-1-.73-1.6,0-.34.06-.7.18-1.06s.31-.87.57-1.52l6.52-16.26c.18-.47.41-1.03.67-1.68.26-.65.54-1.2.83-1.63s.68-.78,1.15-1.05c.47-.27,1.06-.4,1.76-.39.71,0,1.3.14,1.77.41.47.27.85.62,1.14,1.04.29.42.53.88.73,1.36.2.49.45,1.14.75,1.95l6.46,16.23c.51,1.24.76,2.13.75,2.69,0,.58-.25,1.11-.74,1.6s-1.07.72-1.76.72c-.4,0-.74-.08-1.03-.22-.29-.14-.52-.34-.71-.59-.19-.25-.4-.62-.62-1.13s-.41-.96-.57-1.35h0ZM44.96,96.2l7.5.04-3.72-10.38-3.78,10.33Z"/><path class="cls-2" d="M69.24,83.71l-.11,18.26,10.31.06c.82,0,1.45.21,1.89.61.44.4.65.91.65,1.51,0,.62-.22,1.11-.66,1.49-.44.38-1.07.57-1.9.56l-12.27-.07c-1.11,0-1.9-.26-2.38-.75-.48-.49-.72-1.29-.71-2.38l.11-19.32c0-1.03.24-1.8.71-2.31s1.07-.76,1.83-.76c.76,0,1.38.26,1.85.77.47.51.7,1.29.7,2.32h0Z"/><path class="cls-2" d="M101.96,85.17l-11.45-.07-.04,6.16,10.54.06c.77,0,1.35.18,1.73.53s.57.81.57,1.38-.2,1.03-.57,1.39c-.38.36-.96.53-1.75.53l-10.54-.06-.04,7.14,11.85.07c.8,0,1.4.19,1.8.57.4.37.6.87.6,1.49,0,.59-.21,1.07-.62,1.44-.41.37-1.01.55-1.81.54l-13.81-.08c-1.11,0-1.9-.26-2.38-.75-.48-.49-.72-1.29-.71-2.38l.11-18.86c0-.73.12-1.33.34-1.79s.56-.8,1.03-1c.46-.21,1.06-.31,1.77-.31l13.42.08c.81,0,1.41.19,1.8.55.39.36.59.83.58,1.42,0,.59-.2,1.07-.6,1.43-.4.36-1,.53-1.81.53h0Z"/></g></g></g></svg>