<?xml version="1.0" encoding="UTF-8"?>
<svg id="Layer_2" data-name="Layer 2" xmlns="http://www.w3.org/2000/svg" width="376" height="376" viewBox="0 0 188.82 188.82">
  <defs>
    <style>
      .cls-1 {
        fill: #333;
        stroke-width: 0px;
      }
    </style>
  </defs>
  <g id="Layer_1-2" data-name="Layer 1">
    <polygon class="cls-1" points="156.15 69.3 156.15 83.78 148.17 83.78 105.04 83.78 105.04 40.65 105.04 32.67 119.52 32.67 94.41 0 69.3 32.67 83.78 32.67 83.78 40.65 83.78 83.78 40.65 83.78 32.67 83.78 32.67 69.3 0 94.41 32.67 119.52 32.67 105.04 40.65 105.04 83.78 105.04 83.78 148.17 83.78 156.15 69.3 156.15 94.41 188.82 119.52 156.15 105.04 156.15 105.04 148.17 105.04 105.04 148.17 105.04 156.15 105.04 156.15 119.52 188.82 94.41 156.15 69.3"/>
  </g>
</svg>
