<?xml version="1.0" encoding="UTF-8"?>
<svg id="Calque_2" data-name="Calque 2" xmlns="http://www.w3.org/2000/svg" viewBox="0 0 574.61 124.04">
  <defs>
    <style>
      .cls-1 {
        fill: #ffad29;
      }

      .cls-1, .cls-2 {
        stroke-width: 0px;
      }

      .cls-2 {
        fill: #fff;
      }

      .cls-3 {
        stroke: #000;
        stroke-miterlimit: 10;
        stroke-width: .7px;
      }
    </style>
  </defs>
  <g id="Calque_1-2" data-name="Calque 1">
    <g>
      <path class="cls-2" d="m525.6,13.67H100.83c24.01,19.26,30.52,53.86,14.01,80.8-3.91,6.38-8.79,11.81-14.33,16.2h425.09c27.07,0,49.02-21.71,49.02-48.5s-21.95-48.5-49.02-48.5Z"/>
      <g>
        <path class="cls-1" d="m94.47,9.18C65.29-8.74,27.1.38,9.18,29.57-8.74,58.75.38,96.94,29.57,114.86c29.18,17.92,67.37,8.79,85.29-20.39,17.92-29.18,8.79-67.37-20.39-85.29Zm14.49,81.83c-10.39,16.92-28.51,26.25-47.05,26.25-9.83,0-19.77-2.62-28.75-8.13-12.54-7.7-21.34-19.83-24.76-34.15-3.42-14.32-1.06-29.11,6.64-41.65C30.95,7.44,64.96-.69,90.84,15.21c12.54,7.7,21.33,19.83,24.76,34.14,3.42,14.32,1.06,29.11-6.64,41.65Z"/>
        <path class="cls-1" d="m89.62,17.21c-8.59-5.28-18.11-7.79-27.52-7.79-17.75,0-35.1,8.94-45.05,25.14-7.38,12.01-9.63,26.17-6.36,39.88,3.28,13.71,11.7,25.32,23.71,32.69,24.79,15.22,57.34,7.44,72.57-17.35,7.38-12.01,9.63-26.17,6.36-39.88-3.28-13.71-11.7-25.32-23.7-32.69Z"/>
      </g>
      <g>
        <path class="cls-3" d="m40.99,84.02c-4.27,0-7.36-.87-9.27-2.6-1.91-1.73-2.92-4.62-3.04-8.64-.02-.89-.03-1.64-.03-2.22s.03-1.23.08-1.92h8.39c-.06.49-.09,1.07-.11,1.75-.02.68-.02,1.34-.01,1.99,0,.64.03,1.15.07,1.52.11,1.06.46,1.88,1.05,2.45.59.57,1.47.85,2.64.85s2.07-.28,2.67-.85c.61-.57.95-1.38,1.02-2.45.15-1.66.23-3.29.25-4.89.02-1.6-.05-3.11-.2-4.5-.08-.93-.4-1.64-.98-2.13-.58-.48-1.39-.73-2.43-.73-.76,0-1.43.11-1.99.34-.56.22-1,.55-1.31.98-.32.43-.49.94-.5,1.54h-7.94v-25.79h22.77v7.39h-14.38v11.86h1.23c.5-.89,1.29-1.66,2.35-2.29,1.06-.63,2.33-.95,3.8-.95,2.5,0,4.38.87,5.64,2.6s1.97,4.07,2.14,7.02c.06.97.09,1.95.11,2.95s.01,1.97-.01,2.91c-.03.94-.08,1.8-.15,2.59-.26,2.69-.8,4.85-1.62,6.5-.82,1.65-2.05,2.85-3.69,3.61-1.64.75-3.82,1.13-6.55,1.13Z"/>
        <path class="cls-3" d="m57.49,83.46v-7.78h9.51v7.78h-9.51Z"/>
        <path class="cls-3" d="m83.39,84.02c-3.71,0-6.58-.97-8.62-2.92-2.03-1.95-3.1-4.72-3.19-8.32-.06-2.52-.09-5.1-.11-7.75-.02-2.65-.02-5.3,0-7.95.02-2.65.06-5.23.11-7.75.09-3.62,1.16-6.39,3.19-8.31,2.03-1.92,4.9-2.88,8.62-2.88s6.52.96,8.55,2.88c2.02,1.92,3.09,4.69,3.2,8.31.08,1.9.13,3.84.17,5.82s.06,3.96.06,5.94-.02,3.96-.06,5.92c-.04,1.96-.09,3.88-.17,5.76-.11,3.6-1.18,6.37-3.2,8.32-2.02,1.95-4.87,2.92-8.55,2.92Zm0-6.83c2.13,0,3.25-.95,3.36-2.85.13-2.85.22-5.78.27-8.78.05-3,.05-6,0-9.01-.05-3-.14-5.93-.27-8.78-.06-1.87-1.17-2.8-3.36-2.8s-3.36.93-3.41,2.8c-.08,2.14-.14,4.33-.18,6.56-.05,2.23-.07,4.47-.07,6.73s.02,4.5.07,6.73c.05,2.23.11,4.42.18,6.56.06,1.9,1.19,2.85,3.41,2.85Z"/>
      </g>
      <path class="cls-2" d="m61.92,117.26c-9.83,0-19.77-2.62-28.75-8.13-12.54-7.7-21.34-19.83-24.76-34.15-3.42-14.32-1.06-29.11,6.64-41.65C30.95,7.44,64.96-.69,90.84,15.21c12.54,7.7,21.33,19.83,24.76,34.14,3.42,14.32,1.06,29.11-6.64,41.65-10.39,16.92-28.51,26.25-47.05,26.25Zm.18-107.84c-17.75,0-35.1,8.94-45.05,25.14-7.38,12.01-9.63,26.17-6.36,39.88s11.7,25.32,23.71,32.69c24.79,15.23,57.34,7.44,72.57-17.35,7.38-12.01,9.63-26.17,6.36-39.88-3.28-13.71-11.7-25.32-23.7-32.69-8.59-5.28-18.11-7.79-27.52-7.79Z"/>
      <circle class="cls-1" cx="177.39" cy="62.17" r="35.56"/>
      <polygon class="cls-2" points="177.39 74.65 162.59 84.94 167.82 67.69 153.45 56.79 171.47 56.43 177.39 39.39 183.31 56.43 201.34 56.79 186.97 67.69 192.19 84.94 177.39 74.65"/>
      <circle class="cls-1" cx="263.39" cy="62.17" r="35.56"/>
      <polygon class="cls-2" points="263.39 74.65 248.59 84.94 253.82 67.69 239.45 56.79 257.47 56.43 263.39 39.39 269.31 56.43 287.34 56.79 272.97 67.69 278.19 84.94 263.39 74.65"/>
      <circle class="cls-1" cx="349.39" cy="62.17" r="35.56"/>
      <polygon class="cls-2" points="349.39 74.65 334.59 84.94 339.82 67.69 325.45 56.79 343.47 56.43 349.39 39.39 355.31 56.43 373.34 56.79 358.97 67.69 364.19 84.94 349.39 74.65"/>
      <circle class="cls-1" cx="435.39" cy="62.17" r="35.56"/>
      <polygon class="cls-2" points="435.39 74.65 420.59 84.94 425.82 67.69 411.45 56.79 429.47 56.43 435.39 39.39 441.31 56.43 459.34 56.79 444.97 67.69 450.19 84.94 435.39 74.65"/>
      <circle class="cls-1" cx="521.39" cy="62.17" r="35.56"/>
      <polygon class="cls-2" points="521.39 74.65 506.59 84.94 511.82 67.69 497.45 56.79 515.47 56.43 521.39 39.39 527.31 56.43 545.34 56.79 530.97 67.69 536.19 84.94 521.39 74.65"/>
    </g>
  </g>
</svg>