<?xml version="1.0" encoding="UTF-8"?><svg id="Calque_2" xmlns="http://www.w3.org/2000/svg" width="149.84" height="100.06" viewBox="0 0 149.84 100.06"><defs><style>.cls-1{fill:#1c1c1c;}.cls-1,.cls-2,.cls-3{stroke-width:0px;}.cls-2{fill:#34ad5c;}.cls-3{fill:#fff;}</style></defs><g id="Layer_1"><path class="cls-1" d="M74.95,91.45c-25.21,0-45.73-20.51-45.73-45.73S49.74,0,74.95,0s45.73,20.51,45.73,45.73-20.51,45.73-45.73,45.73ZM74.95,4c-23.01,0-41.73,18.72-41.73,41.73s18.72,41.73,41.73,41.73,41.73-18.72,41.73-41.73S97.96,4,74.95,4Z"/><path class="cls-2" d="M80.74,29.72c0-5.12,4.23-9.35,9.36-9.35s9.34,4.23,9.34,9.35-4.26,9.36-9.34,9.36-9.36-4.25-9.36-9.36ZM91.52,34.35v-3.2h3.19c.83,0,1.4-.57,1.4-1.44s-.57-1.42-1.4-1.42h-3.19v-3.16c0-.87-.57-1.44-1.42-1.44s-1.44.59-1.44,1.44v3.16h-3.18c-.85,0-1.42.57-1.42,1.42s.58,1.44,1.42,1.44h3.18v3.2c0,.85.57,1.42,1.44,1.42s1.42-.57,1.42-1.42Z"/><path class="cls-1" d="M60.15,46.06l-2.59-17.71h-4.87c-1.19,0-2.22-1.01-2.22-2.24s1.03-2.24,2.22-2.24h5.84c2.24,0,3.06.92,3.34,2.74l.21,1.4h16.1c-.09.57-.12,1.14-.12,1.71,0,6.54,5.28,11.88,11.9,12.02l-.16.27c-.76,1.21-2.03,1.88-3.8,1.88h-21.67l.26,1.79c.11.64.46,1.07,1.07,1.07h20.02c1.08,0,2.04.78,2.04,1.97s-.96,1.99-2.04,1.99h-20.57c-2.93,0-4.51-1.76-4.96-4.65h0Z"/><path class="cls-1" d="M66.62,53.17c1.92,0,3.44,1.53,3.44,3.43s-1.53,3.44-3.44,3.44-3.43-1.53-3.43-3.44,1.55-3.43,3.43-3.43Z"/><path class="cls-1" d="M82.73,53.17c1.9,0,3.43,1.53,3.43,3.43s-1.53,3.44-3.43,3.44-3.44-1.53-3.44-3.44,1.54-3.43,3.44-3.43Z"/><rect class="cls-2" y="66.66" width="149.84" height="33.4" rx="7.91" ry="7.91"/><path class="cls-3" d="M15.87,86.84l-1.01,2.99h-2.75l4.39-12.93h3.51l4.58,12.93h-2.94l-1.06-2.99s-4.73,0-4.73,0ZM20,84.54c-.92-2.73-1.5-4.47-1.82-5.64h-.02c-.32,1.28-.97,3.31-1.7,5.64h3.54,0Z"/><path class="cls-3" d="M26.45,76.89h5.13c3.77,0,6.23,2.48,6.23,6.31s-2.39,6.63-6.35,6.63h-5.01v-12.94ZM29.25,87.57h2.1c2.48,0,3.58-1.84,3.58-4.36,0-2.11-1.03-4.05-3.56-4.05h-2.11s0,8.42,0,8.42Z"/><path class="cls-3" d="M40.45,76.89h5.13c3.77,0,6.23,2.48,6.23,6.31s-2.39,6.63-6.35,6.63h-5.01v-12.94ZM43.25,87.57h2.1c2.48,0,3.57-1.84,3.57-4.36,0-2.11-1.03-4.05-3.56-4.05h-2.11v8.42Z"/><path class="cls-3" d="M61.76,79.18h-3.93v-2.29h10.65v2.29h-3.92v10.64h-2.8v-10.64Z"/><path class="cls-3" d="M81.9,83.31c0,3.6-2.16,6.7-6.36,6.7s-6.18-2.95-6.18-6.65,2.35-6.65,6.36-6.65c3.79,0,6.18,2.65,6.18,6.61ZM72.24,83.3c0,2.52,1.11,4.44,3.4,4.44,2.49,0,3.37-2.08,3.37-4.39,0-2.45-1-4.37-3.41-4.37s-3.36,1.8-3.36,4.32Z"/><path class="cls-3" d="M100.24,85.84c-.52,2.41-2.34,4.17-5.58,4.17-4.1,0-6.04-2.9-6.04-6.58s2-6.72,6.17-6.72c3.44,0,5.11,2.02,5.43,4.18h-2.8c-.27-1-.96-1.99-2.72-1.99-2.31,0-3.2,2.08-3.2,4.43,0,2.18.77,4.49,3.27,4.49,1.82,0,2.4-1.22,2.64-1.98h2.81Z"/><path class="cls-3" d="M105.01,86.84l-1.01,2.99h-2.75l4.39-12.93h3.51l4.58,12.93h-2.94l-1.06-2.99h-4.73ZM109.13,84.54c-.92-2.73-1.5-4.47-1.82-5.64h-.02c-.32,1.28-.97,3.31-1.7,5.64h3.54,0Z"/><path class="cls-3" d="M118.32,84.65v5.18h-2.73v-12.93h5.68c2.82,0,4.34,1.55,4.34,3.55,0,1.74-.94,2.67-1.88,3.06.64.24,1.6.9,1.6,3.22v.64c0,.87,0,1.86.19,2.47h-2.65c-.23-.56-.27-1.53-.27-2.9v-.19c0-1.41-.36-2.08-2.44-2.08h-1.84ZM118.32,82.42h2.35c1.53,0,2.12-.58,2.12-1.66s-.69-1.64-2.05-1.64h-2.41v3.3h0Z"/><path class="cls-3" d="M131.01,79.18h-3.93v-2.29h10.65v2.29h-3.92v10.64h-2.8v-10.64h0Z"/></g></svg>