<?xml version="1.0" encoding="UTF-8"?><svg width="384" height="100" id="Calque_2" xmlns="http://www.w3.org/2000/svg" viewBox="0 0 192 50"><defs><style>.cls-1{opacity:0;}.cls-1,.cls-2{stroke-width:0px;}.cls-2{fill:#0d1f49;}</style></defs><g id="_09_Lines"><rect class="cls-1" width="192" height="50"/><polygon class="cls-2" points="188.01 21.21 189.24 23.7 192 24.1 190 26.05 190.47 28.79 188.01 27.5 185.54 28.79 186.01 26.05 184.01 24.1 186.77 23.7 188.01 21.21"/><polygon class="cls-2" points="176.5 21.21 177.74 23.7 180.5 24.1 178.5 26.05 178.97 28.79 176.5 27.5 174.04 28.79 174.51 26.05 172.51 24.1 175.27 23.7 176.5 21.21"/><polygon class="cls-2" points="165 21.21 166.24 23.7 169 24.1 167 26.05 167.47 28.79 165 27.5 162.54 28.79 163.01 26.05 161.01 24.1 163.77 23.7 165 21.21"/><polygon class="cls-2" points="153.5 21.21 154.74 23.7 157.5 24.1 155.5 26.05 155.97 28.79 153.5 27.5 151.03 28.79 151.51 26.05 149.51 24.1 152.27 23.7 153.5 21.21"/><polygon class="cls-2" points="142 21.21 143.24 23.7 146 24.1 144 26.05 144.47 28.79 142 27.5 139.53 28.79 140 26.05 138.01 24.1 140.77 23.7 142 21.21"/><polygon class="cls-2" points="130.5 21.21 131.74 23.7 134.5 24.1 132.5 26.05 132.97 28.79 130.5 27.5 128.03 28.79 128.5 26.05 126.51 24.1 129.27 23.7 130.5 21.21"/><polygon class="cls-2" points="119 21.21 120.24 23.7 123 24.1 121 26.05 121.47 28.79 119 27.5 116.53 28.79 117 26.05 115.01 24.1 117.77 23.7 119 21.21"/><polygon class="cls-2" points="107.5 21.21 108.74 23.7 111.5 24.1 109.5 26.05 109.97 28.79 107.5 27.5 105.03 28.79 105.5 26.05 103.51 24.1 106.27 23.7 107.5 21.21"/><polygon class="cls-2" points="96 21.21 97.23 23.7 100 24.1 98 26.05 98.47 28.79 96 27.5 93.53 28.79 94 26.05 92 24.1 94.77 23.7 96 21.21"/><polygon class="cls-2" points="84.5 21.21 85.73 23.7 88.49 24.1 86.5 26.05 86.97 28.79 84.5 27.5 82.03 28.79 82.5 26.05 80.5 24.1 83.27 23.7 84.5 21.21"/><polygon class="cls-2" points="73 21.21 74.23 23.7 76.99 24.1 75 26.05 75.47 28.79 73 27.5 70.53 28.79 71 26.05 69 24.1 71.76 23.7 73 21.21"/><polygon class="cls-2" points="61.5 21.21 62.73 23.7 65.49 24.1 63.5 26.05 63.97 28.79 61.5 27.5 59.03 28.79 59.5 26.05 57.5 24.1 60.26 23.7 61.5 21.21"/><polygon class="cls-2" points="50 21.21 51.23 23.7 53.99 24.1 52 26.05 52.47 28.79 50 27.5 47.53 28.79 48 26.05 46 24.1 48.76 23.7 50 21.21"/><polygon class="cls-2" points="38.5 21.21 39.73 23.7 42.49 24.1 40.49 26.05 40.97 28.79 38.5 27.5 36.03 28.79 36.5 26.05 34.5 24.1 37.26 23.7 38.5 21.21"/><polygon class="cls-2" points="27 21.21 28.23 23.7 30.99 24.1 28.99 26.05 29.47 28.79 27 27.5 24.53 28.79 25 26.05 23 24.1 25.76 23.7 27 21.21"/><polygon class="cls-2" points="15.5 21.21 16.73 23.7 19.49 24.1 17.49 26.05 17.96 28.79 15.5 27.5 13.03 28.79 13.5 26.05 11.5 24.1 14.26 23.7 15.5 21.21"/><polygon class="cls-2" points="4 21.21 5.23 23.7 7.99 24.1 5.99 26.05 6.46 28.79 4 27.5 1.53 28.79 2 26.05 0 24.1 2.76 23.7 4 21.21"/></g></svg>
