<?xml version="1.0" encoding="UTF-8"?><svg width="184" height="146" id="Calque_2" xmlns="http://www.w3.org/2000/svg" viewBox="0 0 92.81 73.17"><defs><style>.cls-1,.cls-2{stroke-width:0px;}.cls-2{fill:#f79527;}</style></defs><g id="_06_Bubble"><path class="cls-2" d="m72.86,36.7c-.05.28-.05.55-.07.83-.04,1.1.17,2.17.49,3.17.32,1,.78,1.93,1.27,2.81.25.45.51.87.77,1.29.18.29.38.59.59.89-.91-.26-1.85-.44-2.8-.53-2.13-.2-4.33,0-6.37.86-1.01.43-1.98,1.01-2.79,1.81-.4.4-.76.85-1.06,1.34-.08.12-.16.24-.22.38l-.19.4c-.07.14-.1.28-.15.42-.04.14-.09.28-.12.41-.26,1.13-.26,2.23-.14,3.29.05.41.12.82.21,1.22-1.26-.88-2.56-1.7-3.9-2.48-.94-.56-1.91-1.07-2.9-1.54-1-.47-2.02-.9-3.1-1.19-.54-.16-1.1-.26-1.67-.33-.57-.05-1.17-.04-1.76.09-.15.04-.3.08-.44.13l-.43.19c-.25.15-.5.29-.74.45-.23.18-.47.34-.68.53-.2.2-.43.38-.62.6l-.29.32c-.09.11-.17.22-.26.34-.18.22-.34.46-.49.69-.17.24-.29.49-.44.73-.12.26-.26.5-.37.76-.15.33-.29.66-.41,1-.08-.21-.17-.43-.27-.64-.46-.89-1.01-1.73-1.66-2.49-.66-.76-1.44-1.42-2.3-1.96-.85-.55-1.79-.98-2.79-1.22s-2.04-.32-3.07-.22c-1.03.1-2.04.41-2.94.87-.91.47-1.74,1.06-2.46,1.75-.17.16-.33.32-.48.49-.02-.31-.04-.62-.08-.92-.06-.37-.13-.73-.23-1.09-.2-.71-.49-1.39-.86-2.03-.19-.31-.4-.62-.64-.9-.23-.29-.48-.57-.77-.83-.32-.26-.66-.45-.99-.55-.17-.06-.33-.1-.48-.13-.17-.04-.32-.05-.47-.07-.62-.07-1.19-.04-1.76.01-.56.05-1.11.15-1.65.26-.54.1-1.07.23-1.59.37-1.05.28-2.08.61-3.09.96-.65.23-1.28.48-1.91.73.65-1.19,1.23-2.41,1.72-3.68.31-.82.59-1.66.8-2.54.21-.87.35-1.78.32-2.73-.01-.47-.09-.96-.23-1.44-.08-.26-.17-.46-.26-.68-.1-.21-.18-.43-.3-.63-.42-.83-.98-1.59-1.62-2.26-.49-.52-1.03-.97-1.6-1.38.07-.01.15-.01.22-.02,1.18-.12,2.36-.3,3.54-.61,1.17-.3,2.34-.71,3.44-1.37.55-.34,1.08-.74,1.55-1.24.47-.5.85-1.12,1.09-1.76.48-1.28.5-2.6.38-3.83-.12-1.23-.41-2.41-.76-3.56-.25-.8-.53-1.59-.84-2.36.72.61,1.47,1.17,2.24,1.71,2.04,1.4,4.22,2.66,6.72,3.36.63.17,1.28.3,1.96.35.67.06,1.39.03,2.12-.17.36-.09.72-.24,1.07-.45.17-.1.34-.22.49-.34.14-.13.28-.25.4-.38.49-.5.87-1.03,1.23-1.58.35-.55.66-1.1.92-1.73.27-.62.46-1.26.6-1.89.1-.45.17-.9.22-1.34.11.13.23.26.35.39.67.72,1.37,1.43,2.11,2.09.74.67,1.52,1.31,2.38,1.88.43.28.87.55,1.35.79.47.24.98.45,1.53.59.55.14,1.14.23,1.77.17.16-.02.31-.05.47-.08.16-.03.27-.07.41-.11.26-.07.52-.17.77-.26,1.02-.41,1.93-1.04,2.71-1.76.78-.73,1.42-1.58,1.92-2.5.27.68.61,1.33,1.01,1.94.97,1.51,2.36,2.79,4.01,3.59.83.39,1.72.66,2.63.79.92.12,1.85.09,2.75-.07.9-.17,1.77-.47,2.57-.86.26-.13.51-.26.76-.41.11,1.06.36,2.1.78,3.09.32.78.74,1.53,1.25,2.21.27.33.51.66.88,1,.35.32.72.56,1.1.78.76.44,1.54.73,2.32.97.78.24,1.56.41,2.35.56.54.1,1.09.18,1.63.23-.82.52-1.62,1.06-2.39,1.67-.8.63-1.58,1.31-2.25,2.19-.33.45-.64.94-.84,1.54l-.06.23-.03.12-.02.1-.07.41Z"/><path class="cls-1" d="m77.6,45.02c-.27-.38-.51-.75-.77-1.16-.25-.41-.5-.81-.72-1.22-.45-.81-.85-1.64-1.12-2.49-.27-.85-.43-1.72-.4-2.56.02-.21.02-.42.06-.63l.05-.31.02-.07v-.06s.05-.12.05-.12c.1-.32.31-.67.56-1,.51-.67,1.2-1.29,1.92-1.86.73-.57,1.51-1.09,2.32-1.59.8-.49,1.65-.96,2.47-1.36l3.35-1.66-3.74-.09c-.72-.02-1.48-.07-2.22-.15-.74-.07-1.48-.18-2.21-.31-.73-.13-1.45-.3-2.14-.51-.68-.21-1.35-.47-1.93-.8-.28-.17-.55-.35-.77-.56-.2-.18-.42-.47-.64-.74-.41-.55-.74-1.15-1.01-1.79-.53-1.28-.76-2.72-.68-4.1l.12-2.16-1.68,1.38c-1.13.93-2.53,1.62-3.95,1.88-1.43.27-2.9.05-4.21-.57-.65-.31-1.25-.74-1.79-1.23-.54-.49-1.04-1.05-1.43-1.67-.4-.63-.73-1.3-.98-2-.24-.7-.4-1.43-.49-2.18l-.67-5.42-1.24,5.31c-.4,1.7-1.25,3.31-2.5,4.49-.62.58-1.33,1.07-2.1,1.37-.2.08-.39.16-.59.21-.1.02-.21.06-.29.07l-.24.04c-.34.04-.71-.01-1.09-.11-.38-.1-.77-.26-1.16-.45s-.77-.42-1.14-.67c-.75-.5-1.47-1.08-2.16-1.7s-1.35-1.29-1.99-1.97c-.63-.69-1.26-1.41-1.83-2.13l-1.81-2.3.09,2.93c0,.25,0,.55-.01.83,0,.28-.03.57-.06.85-.05.57-.13,1.12-.25,1.67-.12.54-.27,1.06-.48,1.54-.2.49-.48.99-.78,1.45-.3.47-.63.91-.98,1.27-.09.09-.17.17-.26.25-.08.07-.16.12-.25.17-.17.1-.36.19-.58.24-.44.12-.94.15-1.47.11-.52-.04-1.06-.14-1.59-.29-1.07-.3-2.13-.75-3.16-1.27-1.02-.53-2.02-1.14-2.98-1.8-1.93-1.33-3.72-2.87-5.39-4.54l-4.2-4.19,2.69,5.28c1.03,2.03,1.97,4.1,2.64,6.22.33,1.06.59,2.14.7,3.2s.07,2.11-.26,3c-.17.44-.4.82-.72,1.17-.32.34-.71.65-1.15.92-.87.53-1.9.9-2.96,1.18-1.05.28-2.16.46-3.27.58-1.1.12-2.25.18-3.33.16h-.01l-6.73-.13,6.45,1.86c.73.22,1.49.54,2.18.94.69.4,1.34.87,1.91,1.42.58.55,1.08,1.17,1.47,1.86.11.17.19.35.28.53.09.18.18.36.23.52.12.34.2.71.23,1.1.06.77-.02,1.59-.18,2.4-.15.82-.38,1.63-.65,2.43-.54,1.6-1.23,3.18-2.01,4.67l-.52.95,1.03-.35c.99-.33,2.01-.64,3.02-.91,1.02-.28,2.04-.54,3.06-.74,1.02-.2,2.05-.35,3.05-.38.5-.02.99,0,1.43.08.44.07.82.24.98.41.39.39.74.89,1.05,1.39.15.26.3.51.42.78.14.27.25.55.34.83.1.27.17.56.23.85.06.3.12.6.15.91.07.61.1,1.25.08,1.86l-.39,2.78,1.67-2.33c.49-.69,1.09-1.36,1.74-1.92.66-.56,1.37-1.06,2.13-1.41.77-.36,1.58-.58,2.4-.66.82-.08,1.66,0,2.47.2,1.62.43,3.11,1.37,4.28,2.62.59.63,1.1,1.33,1.53,2.09.41.76.74,1.57,1.01,2.41l.95,3.02.35-3.07c.25-2.03.97-4.09,2.32-5.61.15-.2.35-.36.53-.54.18-.18.39-.32.58-.48.21-.14.43-.27.64-.4l.31-.14c.11-.04.22-.07.33-.1.93-.21,1.97-.05,2.96.24,2,.6,3.89,1.64,5.7,2.76,1.8,1.14,3.54,2.41,5.18,3.75l1.71,1.4-.64-2.15c-.13-.43-.24-.92-.33-1.39-.08-.47-.15-.95-.19-1.42-.07-.95-.02-1.89.21-2.74.03-.1.07-.2.1-.3.04-.1.06-.21.12-.29l.13-.28c.04-.09.11-.18.17-.28.23-.36.52-.69.84-1,.64-.61,1.44-1.08,2.29-1.43,1.7-.7,3.64-.9,5.52-.7,1.9.18,3.75.77,5.48,1.62l5.06,2.5-4.06-3.93c-.66-.64-1.26-1.34-1.81-2.08Zm-10.86,1c-1.01.43-1.98,1.01-2.79,1.81-.4.4-.76.85-1.06,1.34-.08.12-.16.24-.22.38l-.19.4c-.07.14-.1.28-.15.42-.04.14-.09.28-.12.41-.26,1.13-.26,2.23-.14,3.29.05.41.12.82.21,1.22-1.26-.88-2.56-1.7-3.9-2.48-.94-.56-1.91-1.07-2.9-1.54-1-.47-2.02-.9-3.1-1.19-.54-.16-1.1-.26-1.67-.33-.57-.05-1.17-.04-1.76.09-.15.04-.3.08-.44.13l-.43.19c-.25.15-.5.29-.74.45-.23.18-.47.34-.68.53-.2.2-.43.38-.62.6l-.29.32c-.09.11-.17.22-.26.34-.18.22-.34.46-.49.69-.17.24-.29.49-.44.73-.12.26-.26.5-.37.76-.15.33-.29.66-.41,1-.08-.21-.17-.43-.27-.64-.46-.89-1.01-1.73-1.66-2.49-.66-.76-1.44-1.42-2.3-1.96-.85-.55-1.79-.98-2.79-1.22s-2.04-.32-3.07-.22c-1.03.1-2.04.41-2.94.87-.91.47-1.74,1.06-2.46,1.75-.17.16-.33.32-.48.49-.02-.31-.04-.62-.08-.92-.06-.37-.13-.73-.23-1.09-.2-.71-.49-1.39-.86-2.03-.19-.31-.4-.62-.64-.9-.23-.29-.48-.57-.77-.83-.32-.26-.66-.45-.99-.55-.17-.06-.33-.1-.48-.13-.17-.04-.32-.05-.47-.07-.62-.07-1.19-.04-1.76.01-.56.05-1.11.15-1.65.26-.54.1-1.07.23-1.59.37-1.05.28-2.08.61-3.09.96-.65.23-1.28.48-1.91.73.65-1.19,1.23-2.41,1.72-3.68.31-.82.59-1.66.8-2.54.21-.87.35-1.78.32-2.73-.01-.47-.09-.96-.23-1.44-.08-.26-.17-.46-.26-.68-.1-.21-.18-.43-.3-.63-.42-.83-.98-1.59-1.62-2.26-.49-.52-1.03-.97-1.6-1.38.07-.01.15-.01.22-.02,1.18-.12,2.36-.3,3.54-.61,1.17-.3,2.34-.71,3.44-1.37.55-.34,1.08-.74,1.55-1.24.47-.5.85-1.12,1.09-1.76.48-1.28.5-2.6.38-3.83-.12-1.23-.41-2.41-.76-3.56-.25-.8-.53-1.59-.84-2.36.72.61,1.47,1.17,2.24,1.71,2.04,1.4,4.22,2.66,6.72,3.36.63.17,1.28.3,1.96.35.67.06,1.39.03,2.12-.17.36-.09.72-.24,1.07-.45.17-.1.34-.22.49-.34.14-.13.28-.25.4-.38.49-.5.87-1.03,1.23-1.58.35-.55.66-1.1.92-1.73.27-.62.46-1.26.6-1.89.1-.45.17-.9.22-1.34.11.13.23.26.35.39.67.72,1.37,1.43,2.11,2.09.74.67,1.52,1.31,2.38,1.88.43.28.87.55,1.35.79.47.24.98.45,1.53.59.55.14,1.14.23,1.77.17.16-.02.31-.05.47-.08.16-.03.27-.07.41-.11.26-.07.52-.17.77-.26,1.02-.41,1.93-1.04,2.71-1.76.78-.73,1.42-1.58,1.92-2.5.27.68.61,1.33,1.01,1.94.97,1.51,2.36,2.79,4.01,3.59.83.39,1.72.66,2.63.79.92.12,1.85.09,2.75-.07.9-.17,1.77-.47,2.57-.86.26-.13.51-.26.76-.41.11,1.06.36,2.1.78,3.09.32.78.74,1.53,1.25,2.21.27.33.51.66.88,1,.35.32.72.56,1.1.78.76.44,1.54.73,2.32.97.78.24,1.56.41,2.35.56.54.1,1.09.18,1.63.23-.82.52-1.62,1.06-2.39,1.67-.8.63-1.58,1.31-2.25,2.19-.33.45-.64.94-.84,1.54l-.06.23-.03.12-.02.1-.07.41c-.05.28-.05.55-.07.83-.04,1.1.17,2.17.49,3.17.32,1,.78,1.93,1.27,2.81.25.45.51.87.77,1.29.18.29.38.59.59.89-.91-.26-1.85-.44-2.8-.53-2.13-.2-4.33,0-6.37.86Z"/><path class="cls-1" d="m35.51,56.01l-4,8.29c-.21.44-.03.96.41,1.17.43.2.95.02,1.16-.41.02-.05.04-.1.06-.15l2.37-8.9Z"/><path class="cls-1" d="m37.17,58.9l-2.43,13.24c-.08.47.23.93.7,1.01.48.09.93-.22,1.01-.7.01-.03.02-.07.02-.11l.7-13.44Z"/><path class="cls-1" d="m58.27,64.79s-.05-.1-.08-.14l-4.8-7.86,3.25,8.62c.16.45.67.68,1.12.51s.68-.67.51-1.13Z"/><path class="cls-1" d="m9.78,40.3l-9.06,1.63c-.48.09-.79.54-.71,1.01.09.48.54.79,1.02.71.05-.01.1-.03.15-.05l8.6-3.3Z"/><path class="cls-1" d="m80.34,58.15c-.05-.03-.11-.07-.17-.09l-7.04-3.15,6.16,4.64c.38.29.93.21,1.22-.17.29-.39.21-.94-.17-1.23Z"/><path class="cls-1" d="m29.81,15.21l-2.39-8.89c-.13-.46-.6-.74-1.07-.61-.46.12-.74.6-.61,1.06.01.06.03.11.05.16l4.02,8.28Z"/><path class="cls-1" d="m20.9,51.91l-6.05,6.94c-.32.36-.28.91.08,1.23s.91.28,1.23-.08c.03-.05.07-.09.09-.14l4.65-7.95Z"/><path class="cls-1" d="m86.57,19.34c-.15-.46-.64-.7-1.1-.55-.05.02-.1.04-.14.06l-8.7,4.76,9.4-3.17c.45-.15.7-.65.54-1.1Z"/><path class="cls-1" d="m67.17,8.15c-.36-.31-.91-.27-1.22.1-.04.04-.07.08-.09.12l-4.99,8.58,6.41-7.58c.31-.36.26-.91-.11-1.22Z"/><path class="cls-1" d="m48.96,5.49c.07-.47-.26-.92-.74-.99-.48-.06-.92.27-.99.74-.01.06-.01.12-.01.17l.47,8.73,1.27-8.65Z"/><path class="cls-1" d="m44.94,11.85l-1.23-11.08c-.05-.48-.48-.82-.96-.77-.47.05-.82.48-.76.96,0,.04.01.09.02.13l2.93,10.76Z"/><path class="cls-1" d="m74.87,6.73c-.31-.37-.86-.42-1.22-.11-.04.03-.07.06-.1.09l-7.7,8.73,8.91-7.49c.37-.31.42-.85.11-1.22Z"/><path class="cls-1" d="m92.81,38.11c.02-.48-.34-.89-.82-.92-.05,0-.09,0-.13,0l-11.42,1.12,11.45.61c.48.03.89-.34.92-.82Z"/><path class="cls-1" d="m13.19,25.32l-8.12-4.37c-.42-.22-.95-.06-1.17.36-.23.42-.07.95.35,1.18.05.02.1.05.15.06l8.79,2.77Z"/><path class="cls-1" d="m12.54,22.49L2.81,13.58c-.36-.32-.91-.3-1.23.05-.32.36-.3.91.05,1.23.03.03.06.05.09.07l10.82,7.56Z"/></g></svg>
