<?xml version="1.0" encoding="UTF-8"?>
<svg id="Calque_2" data-name="Calque 2" xmlns="http://www.w3.org/2000/svg" viewBox="0 0 419 75">
  <defs>
    <style>
      .cls-1 {
        fill: #ffad29;
      }

      .cls-1, .cls-2 {
        stroke-width: 0px;
      }

      .cls-2 {
        fill: #fff;
      }
    </style>
  </defs>
  <g id="Calque_1-2" data-name="Calque 1">
    <g>
      <rect class="cls-1" x="0" width="75" height="75" rx="12.12" ry="12.12"/>
      <path class="cls-2" d="m36.34,53.98l-13.34,9.28c-1.58,1.1-3.66-.41-3.1-2.25l4.71-15.56c.25-.81-.04-1.69-.72-2.21l-12.95-9.82c-1.53-1.16-.74-3.61,1.19-3.65l16.25-.33c.85-.02,1.6-.56,1.88-1.36l5.34-15.35c.63-1.82,3.2-1.82,3.84,0l5.34,15.35c.28.8,1.03,1.35,1.88,1.36l16.25.33c1.92.04,2.72,2.49,1.19,3.65l-12.95,9.82c-.68.51-.96,1.39-.72,2.21l4.71,15.56c.56,1.84-1.52,3.35-3.1,2.25l-13.34-9.28c-.7-.49-1.62-.49-2.32,0Z"/>
      <rect class="cls-1" x="86" width="75" height="75" rx="12.12" ry="12.12"/>
      <path class="cls-2" d="m122.34,53.98l-13.34,9.28c-1.58,1.1-3.66-.41-3.1-2.25l4.71-15.56c.25-.81-.04-1.69-.72-2.21l-12.95-9.82c-1.53-1.16-.74-3.61,1.19-3.65l16.25-.33c.85-.02,1.6-.56,1.88-1.36l5.34-15.35c.63-1.82,3.2-1.82,3.84,0l5.34,15.35c.28.8,1.03,1.35,1.88,1.36l16.25.33c1.92.04,2.72,2.49,1.19,3.65l-12.95,9.82c-.68.51-.96,1.39-.72,2.21l4.71,15.56c.56,1.84-1.52,3.35-3.1,2.25l-13.34-9.28c-.7-.49-1.62-.49-2.32,0Z"/>
      <rect class="cls-1" x="172" width="75" height="75" rx="12.12" ry="12.12"/>
      <path class="cls-2" d="m208.34,53.98l-13.34,9.28c-1.58,1.1-3.66-.41-3.1-2.25l4.71-15.56c.25-.81-.04-1.69-.72-2.21l-12.95-9.82c-1.53-1.16-.74-3.61,1.19-3.65l16.25-.33c.85-.02,1.6-.56,1.88-1.36l5.34-15.35c.63-1.82,3.2-1.82,3.84,0l5.34,15.35c.28.8,1.03,1.35,1.88,1.36l16.25.33c1.92.04,2.72,2.49,1.19,3.65l-12.95,9.82c-.68.51-.96,1.39-.72,2.21l4.71,15.56c.56,1.84-1.52,3.35-3.1,2.25l-13.34-9.28c-.7-.49-1.62-.49-2.32,0Z"/>
      <rect class="cls-1" x="258" width="75" height="75" rx="12.12" ry="12.12"/>
      <path class="cls-2" d="m294.34,53.98l-13.34,9.28c-1.58,1.1-3.66-.41-3.1-2.25l4.71-15.56c.25-.81-.04-1.69-.72-2.21l-12.95-9.82c-1.53-1.16-.74-3.61,1.19-3.65l16.25-.33c.85-.02,1.6-.56,1.88-1.36l5.34-15.35c.63-1.82,3.2-1.82,3.84,0l5.34,15.35c.28.8,1.03,1.35,1.88,1.36l16.25.33c1.92.04,2.72,2.49,1.19,3.65l-12.95,9.82c-.68.51-.96,1.39-.72,2.21l4.71,15.56c.56,1.84-1.52,3.35-3.1,2.25l-13.34-9.28c-.7-.49-1.62-.49-2.32,0Z"/>
      <rect class="cls-1" x="344" width="75" height="75" rx="12.12" ry="12.12"/>
      <path class="cls-2" d="m380.34,53.98l-13.34,9.28c-1.58,1.1-3.66-.41-3.1-2.25l4.71-15.56c.25-.81-.04-1.69-.72-2.21l-12.95-9.82c-1.53-1.16-.74-3.61,1.19-3.65l16.25-.33c.85-.02,1.6-.56,1.88-1.36l5.34-15.35c.63-1.82,3.2-1.82,3.84,0l5.34,15.35c.28.8,1.03,1.35,1.88,1.36l16.25.33c1.92.04,2.72,2.49,1.19,3.65l-12.95,9.82c-.68.51-.96,1.39-.72,2.21l4.71,15.56c.56,1.84-1.52,3.35-3.1,2.25l-13.34-9.28c-.7-.49-1.62-.49-2.32,0Z"/>
    </g>
  </g>
</svg>