<?xml version="1.0" encoding="UTF-8"?>
<svg id="Calque_2" data-name="Calque 2" xmlns="http://www.w3.org/2000/svg" viewBox="0 0 366.69 267.01">
  <defs>
    <style>
      .cls-1 {
        fill: #ffad29;
      }

      .cls-1, .cls-2, .cls-3 {
        stroke-width: 0px;
      }

      .cls-3 {
        fill: #fff;
      }
    </style>
  </defs>
  <g id="Calque_1-2" data-name="Calque 1">
    <g>
      <g>
        <g>
          <path class="cls-1" d="m183.28,27.74c-49.7,0-91.73,33.49-104.69,79.1h5.11c12.82-42.86,52.61-74.2,99.58-74.2s86.77,31.33,99.58,74.2h5.11c-12.97-45.6-54.99-79.1-104.69-79.1Z"/>
          <path class="cls-1" d="m183.28,245.38c47.97,0,88.79-31.2,103.23-74.38h-5.18c-14.24,40.43-52.81,69.48-98.05,69.48s-83.81-29.06-98.05-69.48h-5.18c14.44,43.17,55.26,74.38,103.23,74.38Z"/>
          <path class="cls-1" d="m183.28,33.67c-46.4,0-85.72,30.88-98.51,73.16h197.01c-12.79-42.29-52.1-73.16-98.51-73.16Z"/>
          <path class="cls-1" d="m183.28,239.45c44.66,0,82.75-28.6,96.95-68.45H86.33c14.2,39.84,52.29,68.45,96.95,68.45Z"/>
          <path class="cls-1" d="m290.57,73.11l-6.85-28.45-27.58-9.78-17.83-23.21-29.18,2.28L183.41,0l-25.73,13.95-29.18-2.28-17.83,23.21-27.58,9.78-6.84,28.45-21.22,20.15,2.51,13.56h17.76c13.06-47.37,56.52-82.27,107.98-82.27s94.93,34.9,107.98,82.27h18.01l2.51-13.56-21.22-20.15Z"/>
          <path class="cls-1" d="m183.28,248.55c-49.74,0-92-32.6-106.57-77.55h-12.5l1.52,2.21.78,29.25,24.95,15.3,12.61,26.41,29.01,3.83,22.26,19,28.06-8.3,28.06,8.3,22.26-19,29.01-3.83,12.61-26.41,24.95-15.3.78-29.25,1.52-2.21h-12.76c-14.56,44.95-56.83,77.55-106.57,77.55Z"/>
        </g>
        <polygon class="cls-1" points="366.69 119.48 324.19 119.48 315.26 171 356.65 171 335.63 148.95 366.69 119.48"/>
        <polygon class="cls-1" points="0 119.48 31.06 148.95 10.04 171 51.27 171 42.35 119.48 0 119.48"/>
      </g>
      <path class="cls-3" d="m40.16,106.83l11.11,64.17h264l11.11-64.17H40.16Zm270.05,58.17H56.33l-9.28-52h272.43l-9.27,52Z"/>
      <g>
        <path class="cls-2" d="m117.63,78.66c0-2.75.31-4.92.94-6.54.62-1.61,1.7-2.77,3.23-3.47,1.53-.7,3.67-1.05,6.42-1.05,2.06,0,3.78.19,5.14.58,1.36.39,2.44,1.01,3.23,1.87.79.86,1.36,2,1.68,3.42s.49,3.15.49,5.19-.17,3.84-.51,5.26c-.34,1.42-.91,2.56-1.7,3.42-.79.86-1.89,1.49-3.3,1.87v.17c.68.75,1.3,1.52,1.86,2.31.56.79,1.04,1.55,1.45,2.28v.1h-6.19l-2.42-4.32c-2.68-.02-4.76-.39-6.26-1.11-1.5-.71-2.55-1.88-3.15-3.49-.6-1.61-.9-3.78-.9-6.5Zm10.58,6.33c1.45,0,2.54-.18,3.27-.54.73-.36,1.21-1,1.46-1.92.25-.92.37-2.21.37-3.86s-.12-2.9-.37-3.81c-.25-.91-.74-1.55-1.46-1.92-.73-.37-1.82-.56-3.27-.56s-2.51.19-3.25.56c-.74.38-1.24,1.02-1.5,1.92-.26.91-.39,2.18-.39,3.81s.13,2.94.39,3.86.76,1.56,1.5,1.92c.74.36,1.82.54,3.25.54Z"/>
        <path class="cls-2" d="m160.82,67.91v12.7c0,2.22-.27,4-.8,5.34-.53,1.34-1.46,2.31-2.77,2.91-1.32.6-3.18.9-5.58.9s-4.43-.3-5.8-.9c-1.37-.6-2.33-1.57-2.88-2.91-.54-1.34-.82-3.12-.82-5.34v-12.7h5.45v12.59c0,1.16.11,2.07.34,2.72.23.66.63,1.12,1.23,1.38.59.26,1.42.39,2.48.39,1,0,1.76-.13,2.3-.39.53-.26.9-.72,1.11-1.38.2-.66.31-1.57.31-2.72v-12.59h5.45Z"/>
        <path class="cls-2" d="m184.65,89.35v.1h-5.79c-.16-.54-.35-1.17-.56-1.87-.22-.7-.45-1.45-.7-2.25h-7.35c-.45,1.59-.87,2.96-1.26,4.12h-5.79v-.07l6.98-21.48h7.49l6.98,21.44Zm-10.79-17.56c-.23,1.16-.56,2.56-.99,4.22-.43,1.66-.88,3.35-1.36,5.07h4.87c-.5-1.72-.96-3.42-1.4-5.07-.43-1.66-.76-3.06-.99-4.22h-.14Z"/>
        <path class="cls-2" d="m202.69,84.82v4.63h-15.66v-21.54h5.45v16.92h10.21Z"/>
        <path class="cls-2" d="m210.51,89.45h-5.45v-21.54h5.45v21.54Z"/>
        <path class="cls-2" d="m219.02,89.45v-16.95h-6.13v-4.59h17.7v4.59h-6.13v16.95h-5.45Z"/>
        <path class="cls-2" d="m237.91,89.45v-6.67l-6.98-14.77v-.1h5.96c.7,1.84,1.26,3.31,1.68,4.41s.75,1.96.99,2.59.43,1.13.56,1.51c.14.39.28.79.44,1.22h.14c.16-.43.31-.84.44-1.22.14-.39.32-.89.56-1.51s.57-1.49.99-2.59c.42-1.1.98-2.57,1.68-4.41h5.96v.1l-6.98,14.77v6.67h-5.45Z"/>
      </g>
      <path class="cls-3" d="m78.59,106.83c12.97-45.6,54.99-79.1,104.69-79.1s91.73,33.49,104.69,79.1h3.29c-13.06-47.37-56.52-82.27-107.98-82.27s-94.93,34.9-107.98,82.27h3.29Z"/>
      <path class="cls-3" d="m286.51,171c-14.44,43.17-55.26,74.38-103.23,74.38s-88.79-31.2-103.23-74.38h-3.34c14.56,44.95,56.83,77.55,106.57,77.55s92-32.6,106.57-77.55h-3.34Z"/>
      <path class="cls-3" d="m84.78,106.83c12.79-42.29,52.1-73.16,98.51-73.16s85.72,30.88,98.51,73.16h1.08c-12.82-42.86-52.61-74.2-99.58-74.2s-86.77,31.33-99.58,74.2h1.08Z"/>
      <path class="cls-3" d="m280.23,171c-14.2,39.84-52.29,68.45-96.95,68.45s-82.75-28.6-96.95-68.45h-1.1c14.24,40.43,52.81,69.48,98.05,69.48s83.81-29.06,98.05-69.48h-1.1Z"/>
      <polygon class="cls-1" points="310.2 165 56.33 165 47.05 113 319.48 113 310.2 165"/>
      <g>
        <path class="cls-2" d="m95.34,153.13h-6.76v-26.76h11.92c2.68,0,4.82.32,6.43.97s2.76,1.71,3.47,3.17c.7,1.47,1.06,3.45,1.06,5.96,0,2.37-.35,4.29-1.06,5.77-.71,1.48-1.86,2.57-3.47,3.28-1.61.71-3.75,1.06-6.43,1.06h-5.16v6.55Zm4.06-21.22h-4.06v9.13h4.06c2,0,3.34-.34,4.02-1.01s1.01-1.86,1.01-3.55-.34-2.77-1.01-3.49c-.68-.72-2.02-1.08-4.02-1.08Z"/>
        <path class="cls-2" d="m121.81,153.13h-6.76v-26.76h12.77c3.35,0,5.8.75,7.33,2.26,1.54,1.51,2.3,3.73,2.3,6.66,0,2.2-.55,4.08-1.65,5.64-1.1,1.56-2.55,2.54-4.35,2.94l-.04.13c.7.45,1.48,1.2,2.33,2.24.84,1.04,1.68,2.18,2.51,3.4s1.57,2.38,2.22,3.45v.04h-7.86l-4.57-6.76c-.4-.59-.71-1.01-.95-1.27-.24-.25-.52-.41-.85-.46-.32-.06-.84-.08-1.54-.08h-.89v8.58Zm4.9-21.26h-4.9v7.19h4.9c1.41,0,2.39-.28,2.94-.85.55-.56.82-1.48.82-2.75s-.27-2.18-.82-2.75c-.55-.56-1.53-.84-2.94-.84Z"/>
        <path class="cls-2" d="m142.31,153.13v-26.76h19.87v5.5h-13.11v5.07h11.37v5.5h-11.37v5.2h13.11v5.5h-19.87Z"/>
        <path class="cls-2" d="m177.78,151.78c-.48-1.52-.97-3.14-1.46-4.86-.49-1.72-.98-3.42-1.46-5.12-.48-1.69-.92-3.27-1.31-4.74-.39-1.46-.73-2.73-1.01-3.8-.28-1.07-.48-1.83-.59-2.28l-.17.04c.08.51.15,1.18.21,2.01.06.83.1,1.71.13,2.62.03.92.04,1.75.04,2.52v14.96h-6.47v-26.76h11.33c.39,1.49.81,3.06,1.25,4.71.44,1.65.87,3.28,1.31,4.9.44,1.62.82,3.16,1.16,4.61.34,1.45.58,2.71.72,3.78h.08c.14-1.07.37-2.33.7-3.76.32-1.44.7-2.97,1.12-4.61.42-1.63.86-3.28,1.31-4.92.45-1.65.86-3.22,1.23-4.71h11.16v26.76h-6.38v-14.96c0-.76.01-1.6.04-2.52.03-.92.08-1.79.15-2.62.07-.83.13-1.5.19-2.01l-.17-.04c-.11.45-.31,1.21-.59,2.28-.28,1.07-.63,2.35-1.04,3.83s-.85,3.06-1.33,4.76c-.48,1.69-.97,3.39-1.46,5.09-.49,1.71-.97,3.32-1.42,4.84h-7.27Z"/>
        <path class="cls-2" d="m209.02,153.13h-6.76v-26.76h6.76v26.76Z"/>
        <path class="cls-2" d="m237.26,126.37v15.77c0,2.76-.33,4.97-.99,6.64s-1.81,2.87-3.45,3.61c-1.63.75-3.95,1.12-6.93,1.12s-5.5-.37-7.21-1.12-2.9-1.95-3.57-3.61c-.68-1.66-1.01-3.88-1.01-6.64v-15.77h6.76v15.64c0,1.44.14,2.57.42,3.38.28.82.79,1.39,1.52,1.71.73.32,1.76.49,3.09.49,1.24,0,2.19-.16,2.85-.49s1.12-.89,1.37-1.71c.25-.82.38-1.94.38-3.38v-15.64h6.76Z"/>
        <path class="cls-2" d="m254.55,151.78c-.48-1.52-.97-3.14-1.46-4.86-.49-1.72-.98-3.42-1.46-5.12-.48-1.69-.92-3.27-1.31-4.74-.39-1.46-.73-2.73-1.01-3.8-.28-1.07-.48-1.83-.59-2.28l-.17.04c.08.51.15,1.18.21,2.01.06.83.1,1.71.13,2.62.03.92.04,1.75.04,2.52v14.96h-6.47v-26.76h11.33c.39,1.49.81,3.06,1.25,4.71.44,1.65.87,3.28,1.31,4.9.44,1.62.82,3.16,1.16,4.61.34,1.45.58,2.71.72,3.78h.08c.14-1.07.37-2.33.7-3.76.32-1.44.7-2.97,1.12-4.61.42-1.63.86-3.28,1.31-4.92.45-1.65.86-3.22,1.23-4.71h11.16v26.76h-6.38v-14.96c0-.76.01-1.6.04-2.52.03-.92.08-1.79.15-2.62.07-.83.13-1.5.19-2.01l-.17-.04c-.11.45-.31,1.21-.59,2.28-.28,1.07-.63,2.35-1.04,3.83s-.85,3.06-1.33,4.76c-.48,1.69-.97,3.39-1.46,5.09-.49,1.71-.97,3.32-1.42,4.84h-7.27Z"/>
      </g>
      <g>
        <polygon class="cls-2" points="128.2 198.93 119.52 204.97 122.58 194.85 114.16 188.46 124.73 188.25 128.2 178.27 131.67 188.25 142.24 188.46 133.81 194.85 136.87 204.97 128.2 198.93"/>
        <polygon class="cls-2" points="163.58 210.93 154.9 216.97 157.96 206.85 149.54 200.46 160.11 200.25 163.58 190.27 167.05 200.25 177.61 200.46 169.19 206.85 172.25 216.97 163.58 210.93"/>
        <polygon class="cls-2" points="198.95 210.93 190.28 216.97 193.34 206.85 184.92 200.46 195.48 200.25 198.95 190.27 202.42 200.25 212.99 200.46 204.57 206.85 207.63 216.97 198.95 210.93"/>
        <polygon class="cls-2" points="234.33 198.93 225.66 204.97 228.72 194.85 220.3 188.46 230.86 188.25 234.33 178.27 237.8 188.25 248.37 188.46 239.95 194.85 243.01 204.97 234.33 198.93"/>
      </g>
    </g>
  </g>
</svg>