<?xml version="1.0" encoding="UTF-8"?><svg id="Calque_2" xmlns="http://www.w3.org/2000/svg" width="116.45" height="116.45" viewBox="0 0 116.45 116.45"><defs><style>.cls-1{fill:#087534;}.cls-1,.cls-2{stroke-width:0px;}.cls-2{fill:#fff;}</style></defs><g id="Layer_1"><path class="cls-1" d="M60.39,1.23l3.87,6.49c.81,1.35,2.64,1.64,3.83.61l5.68-4.97c1.44-1.26,3.7-.52,4.12,1.34l1.68,7.37c.35,1.54,2.01,2.38,3.46,1.76l6.94-2.97c1.76-.75,3.68.65,3.51,2.55l-.68,7.52c-.14,1.57,1.17,2.88,2.74,2.74l7.52-.68c1.9-.17,3.3,1.75,2.55,3.51l-2.98,6.94c-.62,1.45.22,3.11,1.76,3.46l7.37,1.68c1.86.42,2.6,2.68,1.34,4.12l-4.98,5.68c-1.04,1.19-.75,3.02.61,3.83l6.49,3.87c1.64.98,1.64,3.36,0,4.33l-6.49,3.87c-1.35.81-1.64,2.64-.61,3.83l4.98,5.68c1.26,1.44.52,3.7-1.34,4.12l-7.37,1.68c-1.54.35-2.38,2.01-1.76,3.46l2.98,6.94c.75,1.76-.65,3.68-2.55,3.51l-7.52-.68c-1.57-.14-2.88,1.17-2.74,2.74l.68,7.52c.17,1.9-1.75,3.3-3.51,2.55l-6.94-2.98c-1.45-.62-3.11.22-3.46,1.76l-1.68,7.37c-.42,1.86-2.68,2.6-4.12,1.34l-5.68-4.98c-1.19-1.04-3.02-.75-3.83.61l-3.87,6.49c-.98,1.64-3.36,1.64-4.33,0l-3.87-6.49c-.81-1.35-2.64-1.64-3.83-.61l-5.68,4.98c-1.44,1.26-3.7.52-4.12-1.34l-1.68-7.37c-.35-1.54-2.01-2.38-3.46-1.76l-6.94,2.98c-1.76.75-3.68-.65-3.51-2.55l.68-7.52c.14-1.57-1.17-2.88-2.74-2.74l-7.52.68c-1.9.17-3.3-1.75-2.55-3.51l2.97-6.94c.62-1.45-.22-3.11-1.76-3.46l-7.37-1.68c-1.86-.42-2.6-2.68-1.34-4.12l4.97-5.68c1.04-1.19.75-3.02-.61-3.83l-6.49-3.87c-1.64-.98-1.64-3.36,0-4.33l6.49-3.87c1.35-.81,1.64-2.64.61-3.83l-4.97-5.68c-1.26-1.44-.52-3.7,1.34-4.12l7.37-1.68c1.54-.35,2.38-2.01,1.76-3.46l-2.97-6.94c-.75-1.76.65-3.68,2.55-3.51l7.52.68c1.57.14,2.88-1.17,2.74-2.74l-.68-7.52c-.17-1.9,1.75-3.3,3.51-2.55l6.94,2.97c1.45.62,3.11-.22,3.46-1.76l1.68-7.37c.42-1.86,2.68-2.6,4.12-1.34l5.68,4.97c1.19,1.04,3.02.75,3.83-.61l3.87-6.49c.98-1.64,3.36-1.64,4.33,0Z"/><path class="cls-2" d="M36.04,46.52v3.79h-9.77v6.01h7.49v3.73h-7.49v9.91h-4.7v-23.44h14.47Z"/><path class="cls-2" d="M52.3,69.96l-5.17-9.14h-2.22v9.14h-4.7v-23.44h8.8c1.81,0,3.36.32,4.64.96s2.23,1.5,2.87,2.59.96,2.3.96,3.64c0,1.54-.45,2.94-1.34,4.18-.89,1.24-2.23,2.1-4,2.57l5.61,9.5h-5.44,0ZM44.91,57.3h3.93c1.28,0,2.23-.31,2.86-.93.63-.61.94-1.47.94-2.57s-.31-1.91-.94-2.5c-.63-.59-1.58-.89-2.86-.89h-3.93v6.89Z"/><path class="cls-2" d="M67.28,50.32v5.88h7.89v3.73h-7.89v6.21h8.9v3.83h-13.6v-23.47h13.6v3.83s-8.9,0-8.9,0Z"/><path class="cls-2" d="M85.98,50.32v5.88h7.89v3.73h-7.89v6.21h8.9v3.83h-13.6v-23.47h13.6v3.83s-8.9,0-8.9,0Z"/></g></svg>