<?xml version="1.0" encoding="UTF-8"?><svg id="Calque_2" xmlns="http://www.w3.org/2000/svg" width="168.88" height="34.92" viewBox="0 0 168.88 34.92"><defs><style>.cls-1{fill:#1c1c1c;}.cls-1,.cls-2{stroke-width:0px;}.cls-2{fill:#fff;}</style></defs><g id="Layer_1"><path class="cls-1" d="M15.98,0h136.92c8.83,0,15.98,7.82,15.98,17.46h0c0,9.64-7.15,17.46-15.98,17.46H15.98C7.15,34.92,0,27.1,0,17.46h0C0,7.82,7.15,0,15.98,0Z"/><circle class="cls-2" cx="18.54" cy="17.46" r="11.45"/><path class="cls-2" d="M46.5,20.04c-.14.74-.62,2.55-.77,3.01h-8.48v-.63c1.5-.1,1.64-.22,1.64-1.66v-6.51c0-1.44-.17-1.57-1.45-1.68v-.63h5.33v.63c-1.33.12-1.5.24-1.5,1.68v6.63c0,.94.03,1.37.97,1.39.03.02.82.02.89.02.97,0,1.23-.21,1.64-.67.33-.34.77-1.08,1.08-1.78l.65.21h0Z"/><path class="cls-2" d="M47.3,23.05v-.63c1.3-.12,1.45-.22,1.45-1.66v-6.51c0-1.44-.17-1.57-1.45-1.68v-.63h5.28v.63c-1.28.12-1.45.24-1.45,1.68v6.51c0,1.42.15,1.52,1.45,1.66v.63h-5.28Z"/><path class="cls-2" d="M63.08,23.05v-.63c1.3-.14,1.39-.26,1.39-1.79l-.02-6.67c-1.23,2.94-2.58,6.19-3.81,9.09h-.56c-1.11-2.79-2.32-5.97-3.56-8.96-.22,5.37-.22,6.43-.22,7.04.02.92.36,1.16,1.64,1.28v.63h-4.24v-.63c.97-.09,1.42-.27,1.56-1.3.07-.51.14-1.49.53-7.13.05-.82-.07-1.28-1.54-1.42v-.63h3.69l3.3,7.54,3.32-7.54h3.61v.63c-1.37.14-1.52.27-1.49,1.64l.14,6.41c.02,1.54.08,1.61,1.47,1.79v.63h-5.2Z"/><path class="cls-2" d="M69.54,23.05v-.63c1.3-.12,1.45-.22,1.45-1.66v-6.51c0-1.44-.17-1.57-1.45-1.68v-.63h5.28v.63c-1.28.12-1.45.24-1.45,1.68v6.51c0,1.42.15,1.52,1.45,1.66v.63h-5.28Z"/><path class="cls-2" d="M85.72,14.89c-.19-.79-.56-1.44-.74-1.68-.31-.36-.44-.5-1.45-.5h-1.09v8.03c0,1.43.17,1.54,1.69,1.66v.63h-5.68v-.63c1.45-.12,1.61-.22,1.61-1.66v-8.04h-1.04c-.96,0-1.23.15-1.56.56-.24.32-.48.94-.7,1.62h-.65c.12-1.25.24-2.58.27-3.4h.51c.26.39.46.43.97.43h6.84c.46,0,.7-.1.99-.43h.5c.02.72.09,2.22.17,3.33l-.65.05h0Z"/><path class="cls-2" d="M96.95,20.14c-.09.46-.56,2.43-.72,2.91h-8.87v-.61c1.56-.15,1.66-.24,1.66-1.68v-6.53c0-1.45-.21-1.56-1.37-1.66v-.63h5.56c1.79,0,2.39-.02,2.63-.03.02.31.1,1.71.17,2.77l-.67.09c-.15-.58-.44-1.28-.74-1.59-.31-.34-.53-.44-1.4-.44h-1.11c-.65,0-.72.03-.72.61v3.57h1.68c.96,0,1.13-.26,1.39-1.47h.67v3.81h-.67c-.27-1.27-.41-1.47-1.4-1.47h-1.66v2.94c0,1.18.04,1.54,1.09,1.56h1.21c.96,0,1.21-.12,1.59-.58.43-.5.77-1.13,1.04-1.71l.63.15h0Z"/><path class="cls-2" d="M103.2,11.94c2.19,0,3.8.46,4.89,1.49.87.8,1.54,2,1.54,3.73,0,1.97-.82,3.47-2.14,4.46-1.26.96-2.89,1.44-4.84,1.44h-4.7v-.63c1.3-.1,1.45-.26,1.45-1.68v-6.5c0-1.44-.19-1.57-1.45-1.68v-.63h5.25,0ZM101.79,20.62c0,1.21.31,1.62,1.56,1.62,2.31,0,3.64-1.61,3.64-4.84,0-1.62-.44-3.04-1.23-3.78-.72-.72-1.61-.96-2.75-.96-.63,0-.92.14-1.03.24-.15.15-.19.44-.19.94v6.77h0Z"/><path class="cls-2" d="M124.18,14.89c-.19-.79-.56-1.44-.74-1.68-.31-.36-.45-.5-1.45-.5h-1.09v8.03c0,1.43.17,1.54,1.69,1.66v.63h-5.68v-.63c1.45-.12,1.61-.22,1.61-1.66v-8.04h-1.04c-.96,0-1.23.15-1.55.56-.24.32-.48.94-.7,1.62h-.65c.12-1.25.24-2.58.27-3.4h.51c.26.39.46.43.98.43h6.84c.46,0,.7-.1.99-.43h.5c.02.72.09,2.22.17,3.33l-.65.05h0Z"/><path class="cls-2" d="M126.02,23.05v-.63c1.3-.12,1.45-.22,1.45-1.66v-6.51c0-1.44-.17-1.57-1.45-1.68v-.63h5.28v.63c-1.28.12-1.45.24-1.45,1.68v6.51c0,1.42.15,1.52,1.45,1.66v.63h-5.28Z"/><path class="cls-2" d="M141.8,23.05v-.63c1.3-.14,1.38-.26,1.38-1.79l-.02-6.67c-1.23,2.94-2.58,6.19-3.81,9.09h-.56c-1.11-2.79-2.32-5.97-3.56-8.96-.22,5.37-.22,6.43-.22,7.04.02.92.36,1.16,1.64,1.28v.63h-4.24v-.63c.98-.09,1.42-.27,1.56-1.3.07-.51.14-1.49.53-7.13.05-.82-.07-1.28-1.54-1.42v-.63h3.69l3.3,7.54,3.32-7.54h3.61v.63c-1.37.14-1.52.27-1.49,1.64l.14,6.41c.02,1.54.09,1.61,1.47,1.79v.63h-5.2,0Z"/><path class="cls-2" d="M157.64,20.14c-.09.46-.56,2.43-.72,2.91h-8.87v-.61c1.55-.15,1.66-.24,1.66-1.68v-6.53c0-1.45-.21-1.56-1.37-1.66v-.63h5.56c1.79,0,2.39-.02,2.63-.03.02.31.1,1.71.17,2.77l-.67.09c-.15-.58-.44-1.28-.74-1.59-.31-.34-.53-.44-1.4-.44h-1.11c-.65,0-.72.03-.72.61v3.57h1.68c.96,0,1.13-.26,1.38-1.47h.67v3.81h-.67c-.27-1.27-.41-1.47-1.4-1.47h-1.66v2.94c0,1.18.04,1.54,1.09,1.56h1.21c.96,0,1.21-.12,1.59-.58.43-.5.77-1.13,1.04-1.71l.63.15h0Z"/><path class="cls-1" d="M19.26,13.1c3.06.37,5.24,3.14,4.87,6.2-.37,3.06-3.14,5.24-6.2,4.87s-5.24-3.14-4.87-6.2c.32-2.65,2.48-4.71,5.15-4.9v-.97h-1.04c-.17,0-.31-.14-.31-.31h0v-.76c0-.17.14-.31.31-.31h3.13c.17,0,.31.14.31.31v.76c0,.17-.14.31-.31.31h-1.04v1h0ZM18.59,18.65l3.7-1.13c-.5-1.63-2-2.74-3.7-2.74v3.87ZM23.59,14.78c.22-.51.19-1.06-.12-1.42-.37-.44-1.04-.48-1.66-.18.66.45,1.26.99,1.78,1.6h0ZM13.59,14.78c-.22-.51-.19-1.06.12-1.42.37-.44,1.04-.48,1.66-.18-.66.45-1.26.99-1.78,1.6h0Z"/></g></svg>