<?xml version="1.0" encoding="UTF-8"?><svg id="Calque_2" xmlns="http://www.w3.org/2000/svg" width="151.69" height="46.06" viewBox="0 0 151.69 46.06"><defs><style>.cls-1{fill:#027cf5;}.cls-1,.cls-2,.cls-3{stroke-width:0px;}.cls-4,.cls-3{isolation:isolate;}.cls-2{fill:#fff;}.cls-3{fill:#000;mix-blend-mode:multiply;opacity:.5;}</style></defs><g id="Calque_1-2"><g class="cls-4"><g id="Layer_1"><path class="cls-1" d="M128.66,0c-5.38,0-10.32,1.86-14.24,4.96-5.34,4.22-8.78,10.74-8.78,18.07s3.44,13.85,8.78,18.07c3.92,3.1,8.86,4.96,14.24,4.96,12.72,0,23.03-10.31,23.03-23.03S141.38,0,128.66,0h0Z"/><path class="cls-1" d="M100.69,23.03c0-7.47,3.51-14.12,8.95-18.42H6.66C2.98,4.61,0,7.59,0,11.27v23.51c0,3.68,2.98,6.66,6.66,6.66h102.98c-5.45-4.3-8.95-10.94-8.95-18.42h0Z"/><path class="cls-3" d="M114.42,41.1c3.92,3.1,8.86,4.96,14.24,4.96,12.72,0,23.03-10.31,23.03-23.03S141.38,0,128.66,0c-5.38,0-10.32,1.86-14.24,4.96-5.34,4.22-8.78,10.74-8.78,18.07s3.44,13.85,8.78,18.07h0Z"/><path class="cls-2" d="M128.2,16.89l-8.92,7.48v6.69c0,.8.26,1.44.78,1.93.52.48,1.21.72,2.08.72h13.46c.86,0,1.55-.24,2.07-.72.52-.48.78-1.12.78-1.93v-6.69l-8.89-7.48c-.45-.38-.9-.38-1.35,0Z"/><path class="cls-2" d="M141.47,20.48l-2.87-2.41v-4.64c0-.24-.07-.44-.22-.59-.15-.15-.34-.22-.59-.22h-2.3c-.24,0-.44.07-.59.22s-.22.34-.22.59v1.35l-3.72-3.12c-.63-.53-1.32-.79-2.08-.79s-1.46.26-2.08.79l-10.53,8.84c-.43.36-.64.79-.64,1.26,0,.44.14.81.43,1.08s.67.41,1.16.41c.21,0,.42-.04.63-.14.21-.09.4-.21.59-.37l9.77-8.19c.22-.18.45-.27.68-.27s.45.09.68.27l9.75,8.19c.19.15.39.28.6.37s.42.14.63.14c.47,0,.85-.13,1.14-.4.29-.27.43-.63.43-1.08,0-.5-.21-.93-.64-1.28h0Z"/><path class="cls-2" d="M10.85,16.95h8.72l-.54,2.52h-5.4l-.51,2.51h5.05l-.55,2.51h-5.05l-.97,4.63h-3.33l2.58-12.18h0Z"/><path class="cls-2" d="M31.51,21.87c0,3.65-2,7.47-6.98,7.47-3.56,0-5.08-2.27-5.08-4.98,0-3.65,2.23-7.65,6.88-7.65,3.59,0,5.19,2.33,5.19,5.15ZM22.94,24.43c0,1.46.58,2.45,1.96,2.45,2.34,0,3.17-3.22,3.17-5.22,0-1.36-.46-2.48-1.92-2.48-2.19,0-3.21,3.15-3.21,5.25h0Z"/><path class="cls-2" d="M36.46,24.44l-.98,4.68h-3.35l2.58-12.18h5.23c2.6,0,3.96,1.29,3.96,3.2,0,1.66-.99,2.78-2.51,3.21.65.29,1.44,1.03,1.03,3.01-.27,1.27-.46,2.24-.41,2.76h-3.22c-.07-.52.02-1.38.34-2.87.25-1.15.13-1.81-1.08-1.81h-1.6ZM36.96,22.07h1.55c1.16,0,1.97-.46,1.97-1.55,0-.73-.39-1.21-1.43-1.21h-1.51l-.58,2.76h0Z"/><path class="cls-2" d="M51.43,25.31c.08.98.69,1.66,1.96,1.66,1.01,0,1.62-.35,1.62-1.23,0-.78-.56-1.18-2-1.64-2.6-.85-3.63-1.86-3.63-3.48,0-2.21,1.62-3.9,4.9-3.9,2.97,0,4.81,1.38,4.85,3.74h-3.32c-.02-.56-.26-1.35-1.59-1.35-.8,0-1.39.34-1.39,1.08,0,.57.44.94,1.87,1.4,2.72.88,3.85,1.96,3.85,3.75,0,2.32-1.69,4.01-5.37,4.01-3.35,0-5.02-1.57-5.09-4.04h3.32,0Z"/><path class="cls-2" d="M63.51,26.6l-1.19,2.53h-3.52l6.27-12.18h4.43l1.27,12.18h-3.4l-.22-2.53h-3.64,0ZM67.11,24.07c-.16-1.85-.27-3.59-.31-4.72h-.05c-.54,1.34-1.31,2.97-2.15,4.72h2.5Z"/><path class="cls-2" d="M74.59,16.95h3.39l-2.04,9.65h5.54l-.9,2.52h-8.57l2.58-12.18h0Z"/><path class="cls-2" d="M91.86,24.14h-5.27l-.52,2.46h6.03l-.9,2.52h-8.93l2.58-12.18h8.77l-.53,2.52h-5.49l-.46,2.15h5.27l-.55,2.52h0Z"/></g></g></g></svg>