<?xml version="1.0" encoding="UTF-8"?><svg id="Calque_2" xmlns="http://www.w3.org/2000/svg" width="126.9" height="83.64" viewBox="0 0 126.9 83.64"><defs><style>.cls-1{fill:#1c1c1c;}.cls-1,.cls-2,.cls-3{stroke-width:0px;}.cls-2{fill:#fcca22;}.cls-3{fill:#fff;}</style></defs><g id="Layer_1"><path class="cls-2" d="M126.9,39.36H16.11C7.21,39.36,0,32.15,0,23.25V0h110.79c8.9,0,16.11,7.21,16.11,16.11v23.25Z"/><path class="cls-1" d="M26.01,28.31h-12.1l3.67-17.27h5.07l-2.79,13.13h7.03s-.89,4.14-.89,4.14Z"/><path class="cls-1" d="M27.73,28.31l3.67-17.27h5.07l-3.67,17.27s-5.07,0-5.07,0Z"/><path class="cls-1" d="M35.4,28.31l3.66-17.27h5.88l1.42,10.83h.1l5.83-10.83h6.33l-3.68,17.27h-4.49l2.33-10.87h-.14l-6.01,10.87h-2.92l-1.44-10.87h-.1l-2.31,10.87h-4.48Z"/><path class="cls-1" d="M57.53,28.31l3.68-17.27h5.07l-3.68,17.27s-5.07,0-5.07,0Z"/><path class="cls-1" d="M69.17,28.31l2.81-13.25h-4.8l.86-4.02h14.67l-.86,4.02h-4.8l-2.81,13.25h-5.07Z"/><path class="cls-1" d="M93,28.31h-12.18l3.68-17.27h12.17l-.86,4.02h-7.1l-.58,2.8h6.65l-.78,3.64h-6.65l-.6,2.79h7.11l-.85,4.02h0Z"/><path class="cls-1" d="M106.13,11.04c1.33,0,2.52.26,3.55.79,1.03.52,1.84,1.28,2.43,2.26.59.98.88,2.17.88,3.56,0,1.56-.21,2.98-.65,4.29-.43,1.3-1.05,2.43-1.85,3.38-.81.95-1.77,1.69-2.88,2.22s-2.36.79-3.72.79h-8.61l3.67-17.27h7.18ZM101.26,24.29h1.89c.68,0,1.3-.14,1.86-.41s1.05-.67,1.46-1.18c.41-.52.73-1.15.96-1.89.23-.74.34-1.58.34-2.53,0-.65-.12-1.21-.34-1.69-.23-.48-.55-.86-.98-1.13-.42-.27-.93-.41-1.53-.41h-1.71l-1.95,9.24h0Z"/><path class="cls-1" d="M126.9,83.64H60.06c-8.9,0-16.11-7.21-16.11-16.11v-23.25h66.85c8.9,0,16.11,7.21,16.11,16.11v23.25Z"/><path class="cls-3" d="M57.2,72.78l2.87-13.52h-4.9l.88-4.11h14.97l-.88,4.11h-4.9l-2.87,13.52s-5.18,0-5.18,0Z"/><path class="cls-3" d="M69.09,72.78l3.75-17.62h5.18l-3.75,17.62h-5.18Z"/><path class="cls-3" d="M76.92,72.78l3.74-17.62h6l1.45,11.05h.1l5.95-11.05h6.46l-3.75,17.62h-4.58l2.38-11.09h-.15l-6.13,11.09h-2.98l-1.46-11.09h-.1l-2.36,11.09h-4.57,0Z"/><path class="cls-3" d="M111.93,72.78h-12.43l3.75-17.62h12.42l-.88,4.11h-7.24l-.6,2.86h6.79l-.79,3.71h-6.79l-.61,2.85h7.26l-.87,4.1h0Z"/></g></svg>